G04 Layer_Color=8388736*
%FSLAX42Y42*%
%MOMM*%
G71*
G01*
G75*
%ADD37R,1.20X0.45*%
%ADD38R,0.45X1.20*%
%ADD39R,3.60X3.60*%
%ADD40R,1.10X1.00*%
%ADD41R,1.00X1.10*%
%ADD42R,4.35X1.25*%
%ADD43R,9.00X9.80*%
%ADD44R,0.90X1.10*%
%ADD45R,1.10X0.90*%
%ADD46R,1.80X3.40*%
%ADD47C,1.70*%
%ADD48R,1.70X1.70*%
%ADD49C,2.10*%
%ADD50R,2.00X2.00*%
%ADD51R,1.80X1.80*%
%ADD52C,1.90*%
%ADD53C,1.60*%
%ADD54R,1.40X1.40*%
%ADD55C,0.80*%
D37*
X12018Y7987D02*
D03*
Y7937D02*
D03*
Y7887D02*
D03*
Y7837D02*
D03*
Y7787D02*
D03*
Y7737D02*
D03*
Y7687D02*
D03*
Y7637D02*
D03*
X12518D02*
D03*
Y7687D02*
D03*
Y7737D02*
D03*
Y7787D02*
D03*
Y7837D02*
D03*
Y7887D02*
D03*
Y7937D02*
D03*
Y7987D02*
D03*
X9719D02*
D03*
Y7937D02*
D03*
Y7887D02*
D03*
Y7837D02*
D03*
Y7787D02*
D03*
Y7737D02*
D03*
Y7687D02*
D03*
Y7637D02*
D03*
X10219D02*
D03*
Y7687D02*
D03*
Y7737D02*
D03*
Y7787D02*
D03*
Y7837D02*
D03*
Y7887D02*
D03*
Y7937D02*
D03*
Y7987D02*
D03*
X12044Y6056D02*
D03*
Y6006D02*
D03*
Y5956D02*
D03*
Y5906D02*
D03*
Y5856D02*
D03*
Y5806D02*
D03*
Y5756D02*
D03*
Y5706D02*
D03*
X12544D02*
D03*
Y5756D02*
D03*
Y5806D02*
D03*
Y5856D02*
D03*
Y5906D02*
D03*
Y5956D02*
D03*
Y6006D02*
D03*
Y6056D02*
D03*
X9745D02*
D03*
Y6006D02*
D03*
Y5956D02*
D03*
Y5906D02*
D03*
Y5856D02*
D03*
Y5806D02*
D03*
Y5756D02*
D03*
Y5706D02*
D03*
X10245D02*
D03*
Y5756D02*
D03*
Y5806D02*
D03*
Y5856D02*
D03*
Y5906D02*
D03*
Y5956D02*
D03*
Y6006D02*
D03*
Y6056D02*
D03*
D38*
X12093Y7562D02*
D03*
X12143D02*
D03*
X12193D02*
D03*
X12243D02*
D03*
X12293D02*
D03*
X12343D02*
D03*
X12393D02*
D03*
X12443D02*
D03*
Y8062D02*
D03*
X12393D02*
D03*
X12343D02*
D03*
X12293D02*
D03*
X12243D02*
D03*
X12193D02*
D03*
X12143D02*
D03*
X12093D02*
D03*
X9794Y7562D02*
D03*
X9844D02*
D03*
X9894D02*
D03*
X9944D02*
D03*
X9994D02*
D03*
X10044D02*
D03*
X10094D02*
D03*
X10144D02*
D03*
Y8062D02*
D03*
X10094D02*
D03*
X10044D02*
D03*
X9994D02*
D03*
X9944D02*
D03*
X9894D02*
D03*
X9844D02*
D03*
X9794D02*
D03*
X12119Y5631D02*
D03*
X12169D02*
D03*
X12219D02*
D03*
X12269D02*
D03*
X12319D02*
D03*
X12369D02*
D03*
X12419D02*
D03*
X12469D02*
D03*
Y6131D02*
D03*
X12419D02*
D03*
X12369D02*
D03*
X12319D02*
D03*
X12269D02*
D03*
X12219D02*
D03*
X12169D02*
D03*
X12119D02*
D03*
X9820Y5631D02*
D03*
X9870D02*
D03*
X9920D02*
D03*
X9970D02*
D03*
X10020D02*
D03*
X10070D02*
D03*
X10120D02*
D03*
X10170D02*
D03*
Y6131D02*
D03*
X10120D02*
D03*
X10070D02*
D03*
X10020D02*
D03*
X9970D02*
D03*
X9920D02*
D03*
X9870D02*
D03*
X9820D02*
D03*
D39*
X12268Y7812D02*
D03*
X9969D02*
D03*
X12294Y5881D02*
D03*
X9995D02*
D03*
D40*
X9843Y7436D02*
D03*
Y7296D02*
D03*
X9715Y7296D02*
D03*
Y7436D02*
D03*
X9576Y7665D02*
D03*
Y7525D02*
D03*
X11900Y5734D02*
D03*
Y5594D02*
D03*
X12040Y5366D02*
D03*
Y5506D02*
D03*
X12167Y5506D02*
D03*
Y5366D02*
D03*
X9601Y5734D02*
D03*
Y5594D02*
D03*
X9741Y5366D02*
D03*
Y5506D02*
D03*
X9868Y5506D02*
D03*
Y5366D02*
D03*
X11875Y7665D02*
D03*
Y7525D02*
D03*
X12014Y7296D02*
D03*
Y7436D02*
D03*
X12141Y7436D02*
D03*
Y7296D02*
D03*
D41*
X9392Y7938D02*
D03*
X9252D02*
D03*
X10344Y7557D02*
D03*
X10484D02*
D03*
X12668Y5626D02*
D03*
X12808D02*
D03*
X11741Y5982D02*
D03*
X11601D02*
D03*
X10369Y5626D02*
D03*
X10509D02*
D03*
X9620Y5994D02*
D03*
X9480D02*
D03*
X12643Y7557D02*
D03*
X12783D02*
D03*
X11729Y7988D02*
D03*
X11589D02*
D03*
D42*
X8767Y5004D02*
D03*
Y5512D02*
D03*
D43*
X7747Y5258D02*
D03*
D44*
X10148Y7429D02*
D03*
X10299D02*
D03*
X9425Y7785D02*
D03*
X9575D02*
D03*
X9399Y8153D02*
D03*
X9549D02*
D03*
X10324Y8192D02*
D03*
X10174D02*
D03*
X12648Y6261D02*
D03*
X12498D02*
D03*
X11723Y6223D02*
D03*
X11873D02*
D03*
X11774Y5867D02*
D03*
X11924D02*
D03*
X12473Y5499D02*
D03*
X12623D02*
D03*
X10349Y6261D02*
D03*
X10199D02*
D03*
X9425Y6223D02*
D03*
X9575D02*
D03*
X9475Y5867D02*
D03*
X9625D02*
D03*
X10174Y5499D02*
D03*
X10324D02*
D03*
X12623Y8192D02*
D03*
X12473D02*
D03*
X11698Y8153D02*
D03*
X11848D02*
D03*
X11749Y7798D02*
D03*
X11899D02*
D03*
X12447Y7429D02*
D03*
X12597D02*
D03*
D45*
X10096Y7164D02*
D03*
Y7314D02*
D03*
X8966Y8066D02*
D03*
Y8216D02*
D03*
Y7393D02*
D03*
Y7543D02*
D03*
X12421Y5234D02*
D03*
Y5384D02*
D03*
X10122Y5234D02*
D03*
Y5384D02*
D03*
X12395Y7164D02*
D03*
Y7314D02*
D03*
X8966Y8903D02*
D03*
Y8753D02*
D03*
X9106Y5307D02*
D03*
Y5157D02*
D03*
D46*
X11024Y6033D02*
D03*
Y5524D02*
D03*
X13360Y5982D02*
D03*
Y5474D02*
D03*
X10998Y7950D02*
D03*
Y7442D02*
D03*
X13373Y7938D02*
D03*
Y7429D02*
D03*
X8712Y6680D02*
D03*
Y6172D02*
D03*
D47*
X11722Y9423D02*
D03*
X11976D02*
D03*
X12230D02*
D03*
X12484D02*
D03*
X12738D02*
D03*
X12992D02*
D03*
X13246D02*
D03*
X11062D02*
D03*
X10554D02*
D03*
X10300D02*
D03*
X10046D02*
D03*
X9792D02*
D03*
X9538D02*
D03*
X9284D02*
D03*
X9030D02*
D03*
X10808D02*
D03*
X11722Y9169D02*
D03*
X11976D02*
D03*
X12230D02*
D03*
X12484D02*
D03*
X12738D02*
D03*
X12992D02*
D03*
X13246D02*
D03*
X9538D02*
D03*
X9792D02*
D03*
X10046D02*
D03*
X10300D02*
D03*
X10554D02*
D03*
X10808D02*
D03*
X11062D02*
D03*
X12230Y4597D02*
D03*
X12484D02*
D03*
X12738D02*
D03*
X12992D02*
D03*
X13246D02*
D03*
X9944D02*
D03*
X10198D02*
D03*
X10452D02*
D03*
X10706D02*
D03*
X10960D02*
D03*
X11214D02*
D03*
X11468D02*
D03*
X12230Y4851D02*
D03*
X12484D02*
D03*
X12738D02*
D03*
X12992D02*
D03*
X13246D02*
D03*
X11468D02*
D03*
X11214D02*
D03*
X10960D02*
D03*
D48*
X13500Y9423D02*
D03*
X11316D02*
D03*
X13500Y9169D02*
D03*
X11316D02*
D03*
X13500Y4597D02*
D03*
X11722D02*
D03*
X13500Y4851D02*
D03*
X11722D02*
D03*
D49*
X7671Y6985D02*
D03*
X7683Y8496D02*
D03*
D50*
X7671Y7493D02*
D03*
X7683Y9004D02*
D03*
D51*
X7658Y6007D02*
D03*
X8496Y8687D02*
D03*
Y8014D02*
D03*
Y7341D02*
D03*
D52*
X7658Y6261D02*
D03*
X8496Y8941D02*
D03*
Y8268D02*
D03*
Y7595D02*
D03*
D53*
X10109Y8598D02*
D03*
X9855D02*
D03*
X10350D02*
D03*
X12433Y6668D02*
D03*
X12179D02*
D03*
X12675D02*
D03*
X10135D02*
D03*
X9881D02*
D03*
X10376D02*
D03*
X12408Y8598D02*
D03*
X12154D02*
D03*
X12649D02*
D03*
D54*
X9601D02*
D03*
X11925Y6668D02*
D03*
X9627D02*
D03*
X11900Y8598D02*
D03*
D55*
X12154Y7926D02*
D03*
X12268Y7812D02*
D03*
Y7926D02*
D03*
X12154Y7812D02*
D03*
Y7697D02*
D03*
X12268D02*
D03*
X12382D02*
D03*
Y7812D02*
D03*
Y7926D02*
D03*
X9855D02*
D03*
X9969Y7812D02*
D03*
Y7926D02*
D03*
X9855Y7812D02*
D03*
Y7697D02*
D03*
X9969D02*
D03*
X10084D02*
D03*
Y7812D02*
D03*
Y7926D02*
D03*
X12179Y5996D02*
D03*
X12294Y5881D02*
D03*
Y5996D02*
D03*
X12179Y5881D02*
D03*
Y5767D02*
D03*
X12294D02*
D03*
X12408D02*
D03*
Y5881D02*
D03*
Y5996D02*
D03*
X9881D02*
D03*
X9995Y5881D02*
D03*
Y5996D02*
D03*
X9881Y5881D02*
D03*
Y5767D02*
D03*
X9995D02*
D03*
X10109D02*
D03*
Y5881D02*
D03*
Y5996D02*
D03*
M02*
