G04 Layer_Color=65535*
%FSLAX42Y42*%
%MOMM*%
G71*
G01*
G75*
%ADD20C,0.25*%
%ADD33C,0.25*%
%ADD34C,0.20*%
%ADD35C,0.03*%
%ADD36C,0.13*%
D20*
X13703Y9322D02*
Y9474D01*
X13779D01*
X13805Y9449D01*
Y9398D01*
X13779Y9373D01*
X13703D01*
X13856Y9322D02*
X13906D01*
X13881D01*
Y9474D01*
X13856Y9449D01*
X9093Y9093D02*
Y9246D01*
X9169D01*
X9195Y9220D01*
Y9169D01*
X9169Y9144D01*
X9093D01*
X9347Y9093D02*
X9246D01*
X9347Y9195D01*
Y9220D01*
X9322Y9246D01*
X9271D01*
X9246Y9220D01*
X13691Y9081D02*
Y9233D01*
X13767D01*
X13792Y9207D01*
Y9157D01*
X13767Y9131D01*
X13691D01*
X13843Y9207D02*
X13868Y9233D01*
X13919D01*
X13945Y9207D01*
Y9182D01*
X13919Y9157D01*
X13894D01*
X13919D01*
X13945Y9131D01*
Y9106D01*
X13919Y9081D01*
X13868D01*
X13843Y9106D01*
X8572Y9360D02*
Y9512D01*
X8649D01*
X8674Y9487D01*
Y9436D01*
X8649Y9411D01*
X8572D01*
X8801Y9360D02*
Y9512D01*
X8725Y9436D01*
X8826D01*
X13703Y4496D02*
Y4648D01*
X13779D01*
X13805Y4623D01*
Y4572D01*
X13779Y4547D01*
X13703D01*
X13957Y4648D02*
X13856D01*
Y4572D01*
X13906Y4597D01*
X13932D01*
X13957Y4572D01*
Y4521D01*
X13932Y4496D01*
X13881D01*
X13856Y4521D01*
X9500Y4547D02*
Y4699D01*
X9576D01*
X9601Y4674D01*
Y4623D01*
X9576Y4597D01*
X9500D01*
X9754Y4699D02*
X9703Y4674D01*
X9652Y4623D01*
Y4572D01*
X9677Y4547D01*
X9728D01*
X9754Y4572D01*
Y4597D01*
X9728Y4623D01*
X9652D01*
X13691Y4762D02*
Y4915D01*
X13767D01*
X13792Y4889D01*
Y4839D01*
X13767Y4813D01*
X13691D01*
X13843Y4915D02*
X13945D01*
Y4889D01*
X13843Y4788D01*
Y4762D01*
X10503Y4813D02*
Y4966D01*
X10579D01*
X10604Y4940D01*
Y4889D01*
X10579Y4864D01*
X10503D01*
X10655Y4940D02*
X10681Y4966D01*
X10731D01*
X10757Y4940D01*
Y4915D01*
X10731Y4889D01*
X10757Y4864D01*
Y4839D01*
X10731Y4813D01*
X10681D01*
X10655Y4839D01*
Y4864D01*
X10681Y4889D01*
X10655Y4915D01*
Y4940D01*
X10681Y4889D02*
X10731D01*
X7363Y7877D02*
Y8029D01*
X7440D01*
X7465Y8003D01*
Y7953D01*
X7440Y7927D01*
X7363D01*
X7516Y7902D02*
X7541Y7877D01*
X7592D01*
X7617Y7902D01*
Y8003D01*
X7592Y8029D01*
X7541D01*
X7516Y8003D01*
Y7978D01*
X7541Y7953D01*
X7617D01*
X7376Y9388D02*
Y9540D01*
X7452D01*
X7478Y9515D01*
Y9464D01*
X7452Y9439D01*
X7376D01*
X7529Y9388D02*
X7579D01*
X7554D01*
Y9540D01*
X7529Y9515D01*
X7655D02*
X7681Y9540D01*
X7732D01*
X7757Y9515D01*
Y9413D01*
X7732Y9388D01*
X7681D01*
X7655Y9413D01*
Y9515D01*
X7422Y6439D02*
Y6591D01*
X7498D01*
X7523Y6566D01*
Y6515D01*
X7498Y6490D01*
X7422D01*
X7574Y6439D02*
X7625D01*
X7600D01*
Y6591D01*
X7574Y6566D01*
X7701Y6439D02*
X7752D01*
X7727D01*
Y6591D01*
X7701Y6566D01*
X10681Y8763D02*
Y8915D01*
X10757D01*
X10782Y8890D01*
Y8839D01*
X10757Y8814D01*
X10681D01*
X10833Y8763D02*
X10884D01*
X10858D01*
Y8915D01*
X10833Y8890D01*
X11036Y8763D02*
Y8915D01*
X10960Y8839D01*
X11062D01*
X9207Y7417D02*
Y7290D01*
X9233Y7264D01*
X9284D01*
X9309Y7290D01*
Y7417D01*
X9360Y7391D02*
X9385Y7417D01*
X9436D01*
X9461Y7391D01*
Y7366D01*
X9436Y7341D01*
X9411D01*
X9436D01*
X9461Y7315D01*
Y7290D01*
X9436Y7264D01*
X9385D01*
X9360Y7290D01*
X11532Y5486D02*
Y5359D01*
X11557Y5334D01*
X11608D01*
X11633Y5359D01*
Y5486D01*
X11786Y5334D02*
X11684D01*
X11786Y5436D01*
Y5461D01*
X11760Y5486D01*
X11709D01*
X11684Y5461D01*
X13005Y6833D02*
Y6985D01*
X13081D01*
X13106Y6960D01*
Y6909D01*
X13081Y6883D01*
X13005D01*
X13157Y6833D02*
X13208D01*
X13183D01*
Y6985D01*
X13157Y6960D01*
X13284D02*
X13310Y6985D01*
X13360D01*
X13386Y6960D01*
Y6934D01*
X13360Y6909D01*
X13335D01*
X13360D01*
X13386Y6883D01*
Y6858D01*
X13360Y6833D01*
X13310D01*
X13284Y6858D01*
X9233Y5486D02*
Y5359D01*
X9258Y5334D01*
X9309D01*
X9334Y5359D01*
Y5486D01*
X9385Y5334D02*
X9436D01*
X9411D01*
Y5486D01*
X9385Y5461D01*
X10706Y6833D02*
Y6985D01*
X10782D01*
X10808Y6960D01*
Y6909D01*
X10782Y6883D01*
X10706D01*
X10858Y6833D02*
X10909D01*
X10884D01*
Y6985D01*
X10858Y6960D01*
X11087Y6833D02*
X10985D01*
X11087Y6934D01*
Y6960D01*
X11062Y6985D01*
X11011D01*
X10985Y6960D01*
X11506Y7417D02*
Y7290D01*
X11532Y7264D01*
X11582D01*
X11608Y7290D01*
Y7417D01*
X11735Y7264D02*
Y7417D01*
X11659Y7341D01*
X11760D01*
X12979Y8763D02*
Y8915D01*
X13056D01*
X13081Y8890D01*
Y8839D01*
X13056Y8814D01*
X12979D01*
X13132Y8763D02*
X13183D01*
X13157D01*
Y8915D01*
X13132Y8890D01*
X13360Y8915D02*
X13259D01*
Y8839D01*
X13309Y8865D01*
X13335D01*
X13360Y8839D01*
Y8788D01*
X13335Y8763D01*
X13284D01*
X13259Y8788D01*
D33*
X11943Y8069D02*
G03*
X11943Y8069I-12J0D01*
G01*
X9644D02*
G03*
X9644Y8069I-12J0D01*
G01*
X11969Y6139D02*
G03*
X11969Y6139I-12J0D01*
G01*
X9670D02*
G03*
X9670Y6139I-12J0D01*
G01*
X8780Y4896D02*
G03*
X8780Y4896I-12J0D01*
G01*
D34*
X11996Y8039D02*
Y8084D01*
X12041D01*
X12496D02*
X12541D01*
Y8039D02*
Y8084D01*
Y7539D02*
Y7584D01*
X12496Y7539D02*
X12541D01*
X11996D02*
Y7584D01*
Y7539D02*
X12041D01*
X9697Y8039D02*
Y8084D01*
X9742D01*
X10197D02*
X10242D01*
Y8039D02*
Y8084D01*
Y7539D02*
Y7584D01*
X10197Y7539D02*
X10242D01*
X9697D02*
Y7584D01*
Y7539D02*
X9742D01*
X12021Y6109D02*
Y6154D01*
X12066D01*
X12521D02*
X12566D01*
Y6109D02*
Y6154D01*
Y5609D02*
Y5654D01*
X12521Y5609D02*
X12566D01*
X12021D02*
Y5654D01*
Y5609D02*
X12066D01*
X9722Y6109D02*
Y6154D01*
X9767D01*
X10222D02*
X10267D01*
Y6109D02*
Y6154D01*
Y5609D02*
Y5654D01*
X10222Y5609D02*
X10267D01*
X9722D02*
Y5654D01*
Y5609D02*
X9767D01*
X11595Y9296D02*
X13627D01*
Y9550D01*
X11595D02*
X13627D01*
X11595Y9296D02*
Y9550D01*
X8903Y9296D02*
Y9550D01*
X11443D01*
Y9296D02*
Y9550D01*
X11252Y9296D02*
X11443D01*
X8903D02*
X11252D01*
X11595Y9042D02*
X13627D01*
Y9296D01*
X11595D02*
X13627D01*
X11595Y9042D02*
Y9296D01*
X9411Y9042D02*
X11443D01*
Y9296D01*
X9411D02*
X11443D01*
X9411Y9042D02*
Y9296D01*
X12103Y4724D02*
X13627D01*
X12103Y4470D02*
X13627D01*
Y4724D01*
X12103Y4470D02*
Y4724D01*
X9817Y4470D02*
X11849D01*
Y4724D01*
X9817D02*
X11849D01*
X9817Y4470D02*
Y4724D01*
X12103Y4978D02*
X13627D01*
X12103Y4724D02*
X13627D01*
Y4978D01*
X12103Y4724D02*
Y4978D01*
X10833Y4724D02*
Y4978D01*
X11849D01*
X10833Y4724D02*
X11849D01*
Y4978D01*
X8227Y4738D02*
X8442D01*
Y5778D01*
X8227D02*
X8442D01*
X10204Y7465D02*
X10243D01*
X10204Y7394D02*
X10243D01*
X9480Y7820D02*
X9520D01*
X9480Y7750D02*
X9520D01*
X9454Y8188D02*
X9494D01*
X9454Y8118D02*
X9494D01*
X10229Y8156D02*
X10269D01*
X10229Y8227D02*
X10269D01*
X10061Y7219D02*
Y7259D01*
X10132Y7219D02*
Y7259D01*
X8931Y8121D02*
Y8161D01*
X9001Y8121D02*
Y8161D01*
X8931Y7448D02*
Y7488D01*
X9001Y7448D02*
Y7488D01*
X12386Y5289D02*
Y5329D01*
X12456Y5289D02*
Y5329D01*
X12553Y6226D02*
X12593D01*
X12553Y6296D02*
X12593D01*
X11778Y6258D02*
X11818D01*
X11778Y6188D02*
X11818D01*
X11829Y5902D02*
X11869D01*
X11829Y5832D02*
X11869D01*
X12528Y5534D02*
X12568D01*
X12528Y5464D02*
X12568D01*
X10087Y5289D02*
Y5329D01*
X10157Y5289D02*
Y5329D01*
X10254Y6226D02*
X10294D01*
X10254Y6296D02*
X10294D01*
X9480Y6258D02*
X9520D01*
X9480Y6188D02*
X9520D01*
X9530Y5902D02*
X9570D01*
X9530Y5832D02*
X9570D01*
X10229Y5534D02*
X10269D01*
X10229Y5464D02*
X10269D01*
X12360Y7219D02*
Y7259D01*
X12430Y7219D02*
Y7259D01*
X12528Y8156D02*
X12568D01*
X12528Y8227D02*
X12568D01*
X11753Y8188D02*
X11793D01*
X11753Y8118D02*
X11793D01*
X11804Y7833D02*
X11844D01*
X11804Y7763D02*
X11844D01*
X12502Y7465D02*
X12542D01*
X12502Y7394D02*
X12542D01*
X9001Y8808D02*
Y8848D01*
X8931Y8808D02*
Y8848D01*
X9141Y5212D02*
Y5252D01*
X9071Y5212D02*
Y5252D01*
D35*
X7341Y6921D02*
X7353D01*
X7341Y6680D02*
X7341Y6680D01*
Y6960D01*
X7341Y6680D02*
X7341Y6680D01*
X7341Y6680D02*
X7353D01*
X8090D01*
Y6972D01*
Y7798D01*
X7341Y6960D02*
Y7798D01*
X7671D01*
X7836D02*
X8090D01*
X7671D02*
X7836D01*
X7341Y7049D02*
X7417D01*
Y6921D02*
Y7049D01*
X7353Y6921D02*
X7417D01*
X7341Y7557D02*
X7417D01*
Y7429D02*
Y7557D01*
X7341Y7429D02*
X7417D01*
X7353Y8433D02*
X7366D01*
X7353Y8192D02*
X7353Y8192D01*
Y8471D01*
X7353Y8192D02*
X7353Y8192D01*
X7353Y8192D02*
X7366D01*
X8103D01*
Y8484D01*
Y9309D01*
X7353Y8471D02*
Y9309D01*
X7683D01*
X7849D02*
X8103D01*
X7683D02*
X7849D01*
X7353Y8560D02*
X7429D01*
Y8433D02*
Y8560D01*
X7366Y8433D02*
X7429D01*
X7353Y9068D02*
X7429D01*
Y8941D02*
Y9068D01*
X7353Y8941D02*
X7429D01*
X7976Y5906D02*
Y6361D01*
X7398Y5906D02*
Y6361D01*
X7976D01*
X7398Y5906D02*
X7976D01*
X9360Y8344D02*
Y8598D01*
Y8344D02*
X10592D01*
Y8598D01*
Y8915D01*
X9360D02*
X10592D01*
X9360Y8598D02*
Y8915D01*
X8814Y8585D02*
Y9040D01*
X8237Y8585D02*
Y9040D01*
X8814D01*
X8237Y8585D02*
X8814D01*
Y7912D02*
Y8367D01*
X8237Y7912D02*
Y8367D01*
X8814D01*
X8237Y7912D02*
X8814D01*
Y7239D02*
Y7694D01*
X8237Y7239D02*
Y7694D01*
X8814D01*
X8237Y7239D02*
X8814D01*
X11684Y6414D02*
Y6668D01*
Y6414D02*
X12916D01*
Y6668D01*
Y6985D01*
X11684D02*
X12916D01*
X11684Y6668D02*
Y6985D01*
X9385Y6414D02*
Y6668D01*
Y6414D02*
X10617D01*
Y6668D01*
Y6985D01*
X9385D02*
X10617D01*
X9385Y6668D02*
Y6985D01*
X11659Y8344D02*
Y8598D01*
Y8344D02*
X12890D01*
Y8598D01*
Y8915D01*
X11659D02*
X12890D01*
X11659Y8598D02*
Y8915D01*
X11112Y5512D02*
X11303D01*
X10617D02*
X10935D01*
X10782Y6096D02*
X10935D01*
X10617Y5931D02*
X10782Y6096D01*
X10617Y5512D02*
Y5931D01*
X11303Y5512D02*
X11430D01*
X11112Y6096D02*
X11252D01*
X11430Y5512D02*
Y5918D01*
X11252Y6096D02*
X11265D01*
X11430Y5931D01*
Y5918D02*
Y5931D01*
X13449Y5461D02*
X13640D01*
X12954D02*
X13271D01*
X13119Y6045D02*
X13271D01*
X12954Y5880D02*
X13119Y6045D01*
X12954Y5461D02*
Y5880D01*
X13640Y5461D02*
X13767D01*
X13449Y6045D02*
X13589D01*
X13767Y5461D02*
Y5867D01*
X13589Y6045D02*
X13602D01*
X13767Y5880D01*
Y5867D02*
Y5880D01*
X11087Y7429D02*
X11278D01*
X10592D02*
X10909D01*
X10757Y8014D02*
X10909D01*
X10592Y7849D02*
X10757Y8014D01*
X10592Y7429D02*
Y7849D01*
X11278Y7429D02*
X11405D01*
X11087Y8014D02*
X11227D01*
X11405Y7429D02*
Y7836D01*
X11227Y8014D02*
X11239D01*
X11405Y7849D01*
Y7836D02*
Y7849D01*
X13462Y7417D02*
X13652D01*
X12967D02*
X13284D01*
X13132Y8001D02*
X13284D01*
X12967Y7836D02*
X13132Y8001D01*
X12967Y7417D02*
Y7836D01*
X13652Y7417D02*
X13779D01*
X13462Y8001D02*
X13602D01*
X13779Y7417D02*
Y7823D01*
X13602Y8001D02*
X13614D01*
X13779Y7836D01*
Y7823D02*
Y7836D01*
X8801Y6160D02*
X8992D01*
X8306D02*
X8623D01*
X8471Y6744D02*
X8623D01*
X8306Y6579D02*
X8471Y6744D01*
X8306Y6160D02*
Y6579D01*
X8992Y6160D02*
X9119D01*
X8801Y6744D02*
X8941D01*
X9119Y6160D02*
Y6566D01*
X8941Y6744D02*
X8954D01*
X9119Y6579D01*
Y6566D02*
Y6579D01*
D36*
X7252Y4541D02*
Y4618D01*
X7290D01*
X7302Y4605D01*
Y4580D01*
X7290Y4567D01*
X7252D01*
X7328Y4618D02*
Y4605D01*
X7353Y4580D01*
X7379Y4605D01*
Y4618D01*
X7353Y4580D02*
Y4541D01*
X7404D02*
Y4618D01*
X7455Y4541D01*
Y4618D01*
X7531Y4554D02*
Y4605D01*
X7518Y4618D01*
X7493D01*
X7480Y4605D01*
Y4554D01*
X7493Y4541D01*
X7518D01*
X7506Y4567D02*
X7531Y4541D01*
X7518D02*
X7531Y4554D01*
X7633Y4605D02*
X7645Y4618D01*
X7671D01*
X7683Y4605D01*
Y4592D01*
X7671Y4580D01*
X7658D01*
X7671D01*
X7683Y4567D01*
Y4554D01*
X7671Y4541D01*
X7645D01*
X7633Y4554D01*
X7709Y4618D02*
Y4541D01*
X7747D01*
X7760Y4554D01*
Y4605D01*
X7747Y4618D01*
X7709D01*
X7861Y4541D02*
Y4618D01*
X7899D01*
X7912Y4605D01*
Y4580D01*
X7899Y4567D01*
X7861D01*
X7937Y4592D02*
Y4541D01*
Y4567D01*
X7950Y4580D01*
X7963Y4592D01*
X7975D01*
X8013Y4541D02*
X8039D01*
X8026D01*
Y4592D01*
X8013D01*
X8077Y4541D02*
Y4592D01*
X8115D01*
X8128Y4580D01*
Y4541D01*
X8166Y4605D02*
Y4592D01*
X8153D01*
X8179D01*
X8166D01*
Y4554D01*
X8179Y4541D01*
X8255D02*
X8229D01*
X8217Y4554D01*
Y4580D01*
X8229Y4592D01*
X8255D01*
X8267Y4580D01*
Y4567D01*
X8217D01*
X8293Y4592D02*
Y4541D01*
Y4567D01*
X8305Y4580D01*
X8318Y4592D01*
X8331D01*
X8496Y4605D02*
X8483Y4618D01*
X8458D01*
X8445Y4605D01*
Y4592D01*
X8458Y4580D01*
X8483D01*
X8496Y4567D01*
Y4554D01*
X8483Y4541D01*
X8458D01*
X8445Y4554D01*
X8521Y4618D02*
Y4541D01*
Y4580D01*
X8534Y4592D01*
X8559D01*
X8572Y4580D01*
Y4541D01*
X8597D02*
X8623D01*
X8610D01*
Y4592D01*
X8597D01*
X8699Y4541D02*
X8674D01*
X8661Y4554D01*
Y4580D01*
X8674Y4592D01*
X8699D01*
X8712Y4580D01*
Y4567D01*
X8661D01*
X8737Y4541D02*
X8763D01*
X8750D01*
Y4618D01*
X8737D01*
X8851D02*
Y4541D01*
X8813D01*
X8801Y4554D01*
Y4580D01*
X8813Y4592D01*
X8851D01*
X8953Y4618D02*
Y4567D01*
X8978Y4541D01*
X9004Y4567D01*
Y4618D01*
X9067Y4541D02*
X9042D01*
X9029Y4554D01*
Y4580D01*
X9042Y4592D01*
X9067D01*
X9080Y4580D01*
Y4567D01*
X9029D01*
X9105Y4592D02*
Y4541D01*
Y4567D01*
X9118Y4580D01*
X9131Y4592D01*
X9143D01*
X9181Y4605D02*
X9194Y4618D01*
X9220D01*
X9232Y4605D01*
Y4554D01*
X9220Y4541D01*
X9194D01*
X9181Y4554D01*
Y4605D01*
X9258Y4541D02*
Y4554D01*
X9270D01*
Y4541D01*
X9258D01*
X9321Y4554D02*
X9334Y4541D01*
X9359D01*
X9372Y4554D01*
Y4605D01*
X9359Y4618D01*
X9334D01*
X9321Y4605D01*
Y4592D01*
X9334Y4580D01*
X9372D01*
X7302Y4483D02*
X7290Y4496D01*
X7264D01*
X7252Y4483D01*
Y4470D01*
X7264Y4458D01*
X7290D01*
X7302Y4445D01*
Y4432D01*
X7290Y4420D01*
X7264D01*
X7252Y4432D01*
X7328Y4420D02*
Y4432D01*
X7341D01*
Y4420D01*
X7328D01*
X7391D02*
Y4470D01*
X7417Y4496D01*
X7442Y4470D01*
Y4420D01*
Y4458D01*
X7391D01*
X7480Y4420D02*
X7506D01*
X7518Y4432D01*
Y4458D01*
X7506Y4470D01*
X7480D01*
X7468Y4458D01*
Y4432D01*
X7480Y4420D01*
X7544D02*
Y4496D01*
Y4445D02*
X7582Y4470D01*
X7544Y4445D02*
X7582Y4420D01*
X7620D02*
X7645D01*
X7633D01*
Y4470D01*
X7620D01*
X7810Y4420D02*
X7760D01*
X7810Y4470D01*
Y4483D01*
X7798Y4496D01*
X7772D01*
X7760Y4483D01*
X7836D02*
X7848Y4496D01*
X7874D01*
X7886Y4483D01*
Y4432D01*
X7874Y4420D01*
X7848D01*
X7836Y4432D01*
Y4483D01*
X7912Y4420D02*
X7937D01*
X7925D01*
Y4496D01*
X7912Y4483D01*
X7975D02*
X7988Y4496D01*
X8013D01*
X8026Y4483D01*
Y4470D01*
X8013Y4458D01*
X8026Y4445D01*
Y4432D01*
X8013Y4420D01*
X7988D01*
X7975Y4432D01*
Y4445D01*
X7988Y4458D01*
X7975Y4470D01*
Y4483D01*
X7988Y4458D02*
X8013D01*
X9817Y7087D02*
X9804Y7074D01*
Y7048D01*
X9817Y7036D01*
X9868D01*
X9881Y7048D01*
Y7074D01*
X9868Y7087D01*
X9881Y7112D02*
Y7137D01*
Y7125D01*
X9804D01*
X9817Y7112D01*
Y7175D02*
X9804Y7188D01*
Y7214D01*
X9817Y7226D01*
X9830D01*
X9843Y7214D01*
Y7201D01*
Y7214D01*
X9855Y7226D01*
X9868D01*
X9881Y7214D01*
Y7188D01*
X9868Y7175D01*
X9690Y7087D02*
X9677Y7074D01*
Y7048D01*
X9690Y7036D01*
X9741D01*
X9754Y7048D01*
Y7074D01*
X9741Y7087D01*
X9754Y7112D02*
Y7137D01*
Y7125D01*
X9677D01*
X9690Y7112D01*
X9754Y7214D02*
X9677D01*
X9716Y7175D01*
Y7226D01*
X9360Y7683D02*
X9347Y7696D01*
X9322D01*
X9309Y7683D01*
Y7633D01*
X9322Y7620D01*
X9347D01*
X9360Y7633D01*
X9385Y7620D02*
X9411D01*
X9398D01*
Y7696D01*
X9385Y7683D01*
X9500Y7696D02*
X9449D01*
Y7658D01*
X9474Y7671D01*
X9487D01*
X9500Y7658D01*
Y7633D01*
X9487Y7620D01*
X9461D01*
X9449Y7633D01*
X9042Y7963D02*
X9030Y7976D01*
X9004D01*
X8992Y7963D01*
Y7912D01*
X9004Y7899D01*
X9030D01*
X9042Y7912D01*
X9068Y7899D02*
X9093D01*
X9080D01*
Y7976D01*
X9068Y7963D01*
X9182Y7976D02*
X9157Y7963D01*
X9131Y7937D01*
Y7912D01*
X9144Y7899D01*
X9169D01*
X9182Y7912D01*
Y7925D01*
X9169Y7937D01*
X9131D01*
X10655Y7391D02*
X10643Y7404D01*
X10617D01*
X10604Y7391D01*
Y7341D01*
X10617Y7328D01*
X10643D01*
X10655Y7341D01*
X10681Y7328D02*
X10706D01*
X10693D01*
Y7404D01*
X10681Y7391D01*
X10744Y7404D02*
X10795D01*
Y7391D01*
X10744Y7341D01*
Y7328D01*
X10363Y7696D02*
X10350Y7709D01*
X10325D01*
X10312Y7696D01*
Y7645D01*
X10325Y7633D01*
X10350D01*
X10363Y7645D01*
X10389Y7633D02*
X10414D01*
X10401D01*
Y7709D01*
X10389Y7696D01*
X10452D02*
X10465Y7709D01*
X10490D01*
X10503Y7696D01*
Y7683D01*
X10490Y7671D01*
X10503Y7658D01*
Y7645D01*
X10490Y7633D01*
X10465D01*
X10452Y7645D01*
Y7658D01*
X10465Y7671D01*
X10452Y7683D01*
Y7696D01*
X10465Y7671D02*
X10490D01*
X8915Y7036D02*
X8903Y7048D01*
X8877D01*
X8865Y7036D01*
Y6985D01*
X8877Y6972D01*
X8903D01*
X8915Y6985D01*
X8992Y6972D02*
X8941D01*
X8992Y7023D01*
Y7036D01*
X8979Y7048D01*
X8953D01*
X8941Y7036D01*
X9068Y7048D02*
X9017D01*
Y7010D01*
X9042Y7023D01*
X9055D01*
X9068Y7010D01*
Y6985D01*
X9055Y6972D01*
X9030D01*
X9017Y6985D01*
X8268Y9093D02*
Y9169D01*
X8306D01*
X8318Y9157D01*
Y9131D01*
X8306Y9119D01*
X8268D01*
X8344Y9093D02*
X8369D01*
X8357D01*
Y9169D01*
X8344Y9157D01*
X8458Y9169D02*
X8433Y9157D01*
X8407Y9131D01*
Y9106D01*
X8420Y9093D01*
X8445D01*
X8458Y9106D01*
Y9119D01*
X8445Y9131D01*
X8407D01*
X8242Y8414D02*
Y8490D01*
X8280D01*
X8293Y8477D01*
Y8452D01*
X8280Y8439D01*
X8242D01*
X8318Y8414D02*
X8344D01*
X8331D01*
Y8490D01*
X8318Y8477D01*
X8382Y8490D02*
X8433D01*
Y8477D01*
X8382Y8426D01*
Y8414D01*
X8242Y7734D02*
Y7810D01*
X8280D01*
X8293Y7798D01*
Y7772D01*
X8280Y7760D01*
X8242D01*
X8318Y7734D02*
X8344D01*
X8331D01*
Y7810D01*
X8318Y7798D01*
X8382D02*
X8395Y7810D01*
X8420D01*
X8433Y7798D01*
Y7785D01*
X8420Y7772D01*
X8433Y7760D01*
Y7747D01*
X8420Y7734D01*
X8395D01*
X8382Y7747D01*
Y7760D01*
X8395Y7772D01*
X8382Y7785D01*
Y7798D01*
X8395Y7772D02*
X8420D01*
X7328Y5842D02*
Y5893D01*
X7315Y5905D01*
X7290D01*
X7277Y5893D01*
Y5842D01*
X7290Y5829D01*
X7315D01*
X7302Y5855D02*
X7328Y5829D01*
X7315D02*
X7328Y5842D01*
X7353Y5829D02*
X7379D01*
X7366D01*
Y5905D01*
X7353Y5893D01*
X10185Y7277D02*
Y7353D01*
X10223D01*
X10236Y7341D01*
Y7315D01*
X10223Y7302D01*
X10185D01*
X10211D02*
X10236Y7277D01*
X10262D02*
X10287D01*
X10274D01*
Y7353D01*
X10262Y7341D01*
X10325Y7277D02*
X10350D01*
X10338D01*
Y7353D01*
X10325Y7341D01*
X9169Y7747D02*
Y7823D01*
X9207D01*
X9220Y7810D01*
Y7785D01*
X9207Y7772D01*
X9169D01*
X9195D02*
X9220Y7747D01*
X9246D02*
X9271D01*
X9258D01*
Y7823D01*
X9246Y7810D01*
X9360Y7747D02*
X9309D01*
X9360Y7798D01*
Y7810D01*
X9347Y7823D01*
X9322D01*
X9309Y7810D01*
X9144Y8115D02*
Y8191D01*
X9182D01*
X9195Y8179D01*
Y8153D01*
X9182Y8141D01*
X9144D01*
X9169D02*
X9195Y8115D01*
X9220D02*
X9246D01*
X9233D01*
Y8191D01*
X9220Y8179D01*
X9284D02*
X9296Y8191D01*
X9322D01*
X9334Y8179D01*
Y8166D01*
X9322Y8153D01*
X9309D01*
X9322D01*
X9334Y8141D01*
Y8128D01*
X9322Y8115D01*
X9296D01*
X9284Y8128D01*
X10427Y8157D02*
Y8233D01*
X10465D01*
X10477Y8220D01*
Y8195D01*
X10465Y8182D01*
X10427D01*
X10452D02*
X10477Y8157D01*
X10503D02*
X10528D01*
X10516D01*
Y8233D01*
X10503Y8220D01*
X10604Y8157D02*
Y8233D01*
X10566Y8195D01*
X10617D01*
X10198Y7087D02*
Y7163D01*
X10236D01*
X10249Y7150D01*
Y7125D01*
X10236Y7112D01*
X10198D01*
X10223D02*
X10249Y7087D01*
X10274D02*
X10300D01*
X10287D01*
Y7163D01*
X10274Y7150D01*
X10389Y7163D02*
X10338D01*
Y7125D01*
X10363Y7137D01*
X10376D01*
X10389Y7125D01*
Y7099D01*
X10376Y7087D01*
X10350D01*
X10338Y7099D01*
X9182Y5105D02*
Y5182D01*
X9220D01*
X9233Y5169D01*
Y5143D01*
X9220Y5131D01*
X9182D01*
X9207D02*
X9233Y5105D01*
X9309D02*
X9258D01*
X9309Y5156D01*
Y5169D01*
X9296Y5182D01*
X9271D01*
X9258Y5169D01*
X9334Y5105D02*
X9360D01*
X9347D01*
Y5182D01*
X9334Y5169D01*
X8865Y9004D02*
Y9080D01*
X8903D01*
X8915Y9068D01*
Y9042D01*
X8903Y9030D01*
X8865D01*
X8890D02*
X8915Y9004D01*
X8992D02*
X8941D01*
X8992Y9055D01*
Y9068D01*
X8979Y9080D01*
X8953D01*
X8941Y9068D01*
X9068Y9004D02*
X9017D01*
X9068Y9055D01*
Y9068D01*
X9055Y9080D01*
X9030D01*
X9017Y9068D01*
X8918Y8329D02*
Y8405D01*
X8956D01*
X8969Y8392D01*
Y8367D01*
X8956Y8354D01*
X8918D01*
X8943D02*
X8969Y8329D01*
X9045D02*
X8994D01*
X9045Y8379D01*
Y8392D01*
X9032Y8405D01*
X9007D01*
X8994Y8392D01*
X9070D02*
X9083Y8405D01*
X9108D01*
X9121Y8392D01*
Y8379D01*
X9108Y8367D01*
X9096D01*
X9108D01*
X9121Y8354D01*
Y8341D01*
X9108Y8329D01*
X9083D01*
X9070Y8341D01*
X8919Y7656D02*
Y7732D01*
X8957D01*
X8970Y7719D01*
Y7694D01*
X8957Y7681D01*
X8919D01*
X8945D02*
X8970Y7656D01*
X9046D02*
X8995D01*
X9046Y7706D01*
Y7719D01*
X9033Y7732D01*
X9008D01*
X8995Y7719D01*
X9110Y7656D02*
Y7732D01*
X9071Y7694D01*
X9122D01*
X12586Y5055D02*
X12510D01*
Y5093D01*
X12522Y5105D01*
X12548D01*
X12560Y5093D01*
Y5055D01*
Y5080D02*
X12586Y5105D01*
Y5131D02*
Y5156D01*
Y5143D01*
X12510D01*
X12522Y5131D01*
Y5194D02*
X12510Y5207D01*
Y5232D01*
X12522Y5245D01*
X12573D01*
X12586Y5232D01*
Y5207D01*
X12573Y5194D01*
X12522D01*
X12662Y6337D02*
Y6413D01*
X12700D01*
X12713Y6401D01*
Y6375D01*
X12700Y6363D01*
X12662D01*
X12687D02*
X12713Y6337D01*
X12738Y6350D02*
X12751Y6337D01*
X12776D01*
X12789Y6350D01*
Y6401D01*
X12776Y6413D01*
X12751D01*
X12738Y6401D01*
Y6388D01*
X12751Y6375D01*
X12789D01*
X11633Y6299D02*
Y6375D01*
X11671D01*
X11684Y6363D01*
Y6337D01*
X11671Y6325D01*
X11633D01*
X11659D02*
X11684Y6299D01*
X11709Y6363D02*
X11722Y6375D01*
X11747D01*
X11760Y6363D01*
Y6350D01*
X11747Y6337D01*
X11760Y6325D01*
Y6312D01*
X11747Y6299D01*
X11722D01*
X11709Y6312D01*
Y6325D01*
X11722Y6337D01*
X11709Y6350D01*
Y6363D01*
X11722Y6337D02*
X11747D01*
X11570Y5829D02*
Y5905D01*
X11608D01*
X11620Y5893D01*
Y5867D01*
X11608Y5855D01*
X11570D01*
X11595D02*
X11620Y5829D01*
X11646Y5905D02*
X11697D01*
Y5893D01*
X11646Y5842D01*
Y5829D01*
X12687Y5461D02*
Y5537D01*
X12725D01*
X12738Y5524D01*
Y5499D01*
X12725Y5486D01*
X12687D01*
X12713D02*
X12738Y5461D01*
X12814Y5537D02*
X12789Y5524D01*
X12763Y5499D01*
Y5474D01*
X12776Y5461D01*
X12802D01*
X12814Y5474D01*
Y5486D01*
X12802Y5499D01*
X12763D01*
X12700Y5778D02*
X12687Y5791D01*
X12662D01*
X12649Y5778D01*
Y5728D01*
X12662Y5715D01*
X12687D01*
X12700Y5728D01*
X12725Y5715D02*
X12751D01*
X12738D01*
Y5791D01*
X12725Y5778D01*
X12840Y5715D02*
X12789D01*
X12840Y5766D01*
Y5778D01*
X12827Y5791D01*
X12802D01*
X12789Y5778D01*
X13017Y5423D02*
X13005Y5436D01*
X12979D01*
X12967Y5423D01*
Y5372D01*
X12979Y5359D01*
X13005D01*
X13017Y5372D01*
X13043Y5359D02*
X13068D01*
X13056D01*
Y5436D01*
X13043Y5423D01*
X13106Y5359D02*
X13132D01*
X13119D01*
Y5436D01*
X13106Y5423D01*
X11392Y6007D02*
X11379Y6020D01*
X11354D01*
X11341Y6007D01*
Y5956D01*
X11354Y5944D01*
X11379D01*
X11392Y5956D01*
X11417Y5944D02*
X11443D01*
X11430D01*
Y6020D01*
X11417Y6007D01*
X11481D02*
X11493Y6020D01*
X11519D01*
X11532Y6007D01*
Y5956D01*
X11519Y5944D01*
X11493D01*
X11481Y5956D01*
Y6007D01*
X11747Y5766D02*
X11735Y5778D01*
X11709D01*
X11697Y5766D01*
Y5715D01*
X11709Y5702D01*
X11735D01*
X11747Y5715D01*
X11773D02*
X11786Y5702D01*
X11811D01*
X11824Y5715D01*
Y5766D01*
X11811Y5778D01*
X11786D01*
X11773Y5766D01*
Y5753D01*
X11786Y5740D01*
X11824D01*
X12014Y5207D02*
X12002Y5194D01*
Y5169D01*
X12014Y5156D01*
X12065D01*
X12078Y5169D01*
Y5194D01*
X12065Y5207D01*
X12014Y5232D02*
X12002Y5245D01*
Y5270D01*
X12014Y5283D01*
X12027D01*
X12040Y5270D01*
X12052Y5283D01*
X12065D01*
X12078Y5270D01*
Y5245D01*
X12065Y5232D01*
X12052D01*
X12040Y5245D01*
X12027Y5232D01*
X12014D01*
X12040Y5245D02*
Y5270D01*
X12141Y5207D02*
X12129Y5194D01*
Y5169D01*
X12141Y5156D01*
X12192D01*
X12205Y5169D01*
Y5194D01*
X12192Y5207D01*
X12129Y5232D02*
Y5283D01*
X12141D01*
X12192Y5232D01*
X12205D01*
X10160Y5042D02*
X10084D01*
Y5080D01*
X10097Y5093D01*
X10122D01*
X10135Y5080D01*
Y5042D01*
Y5067D02*
X10160Y5093D01*
X10084Y5169D02*
Y5118D01*
X10122D01*
X10109Y5143D01*
Y5156D01*
X10122Y5169D01*
X10147D01*
X10160Y5156D01*
Y5131D01*
X10147Y5118D01*
X10452Y6226D02*
Y6302D01*
X10490D01*
X10503Y6290D01*
Y6264D01*
X10490Y6252D01*
X10452D01*
X10477D02*
X10503Y6226D01*
X10566D02*
Y6302D01*
X10528Y6264D01*
X10579D01*
X9220Y6185D02*
Y6261D01*
X9258D01*
X9271Y6248D01*
Y6223D01*
X9258Y6210D01*
X9220D01*
X9246D02*
X9271Y6185D01*
X9296Y6248D02*
X9309Y6261D01*
X9334D01*
X9347Y6248D01*
Y6236D01*
X9334Y6223D01*
X9322D01*
X9334D01*
X9347Y6210D01*
Y6198D01*
X9334Y6185D01*
X9309D01*
X9296Y6198D01*
X9271Y5829D02*
Y5905D01*
X9309D01*
X9322Y5893D01*
Y5867D01*
X9309Y5855D01*
X9271D01*
X9296D02*
X9322Y5829D01*
X9398D02*
X9347D01*
X9398Y5880D01*
Y5893D01*
X9385Y5905D01*
X9360D01*
X9347Y5893D01*
X10389Y5448D02*
Y5524D01*
X10427D01*
X10439Y5512D01*
Y5486D01*
X10427Y5474D01*
X10389D01*
X10414D02*
X10439Y5448D01*
X10465D02*
X10490D01*
X10477D01*
Y5524D01*
X10465Y5512D01*
X10414Y5766D02*
X10401Y5778D01*
X10376D01*
X10363Y5766D01*
Y5715D01*
X10376Y5702D01*
X10401D01*
X10414Y5715D01*
X10490Y5778D02*
X10465Y5766D01*
X10439Y5740D01*
Y5715D01*
X10452Y5702D01*
X10477D01*
X10490Y5715D01*
Y5728D01*
X10477Y5740D01*
X10439D01*
X11354Y5474D02*
X11341Y5486D01*
X11316D01*
X11303Y5474D01*
Y5423D01*
X11316Y5410D01*
X11341D01*
X11354Y5423D01*
X11430Y5486D02*
X11379D01*
Y5448D01*
X11405Y5461D01*
X11417D01*
X11430Y5448D01*
Y5423D01*
X11417Y5410D01*
X11392D01*
X11379Y5423D01*
X9334Y6020D02*
X9322Y6032D01*
X9296D01*
X9284Y6020D01*
Y5969D01*
X9296Y5956D01*
X9322D01*
X9334Y5969D01*
X9398Y5956D02*
Y6032D01*
X9360Y5994D01*
X9411D01*
X9449Y5766D02*
X9436Y5778D01*
X9411D01*
X9398Y5766D01*
Y5715D01*
X9411Y5702D01*
X9436D01*
X9449Y5715D01*
X9474Y5766D02*
X9487Y5778D01*
X9512D01*
X9525Y5766D01*
Y5753D01*
X9512Y5740D01*
X9500D01*
X9512D01*
X9525Y5728D01*
Y5715D01*
X9512Y5702D01*
X9487D01*
X9474Y5715D01*
X9716Y5207D02*
X9703Y5194D01*
Y5169D01*
X9716Y5156D01*
X9766D01*
X9779Y5169D01*
Y5194D01*
X9766Y5207D01*
X9779Y5283D02*
Y5232D01*
X9728Y5283D01*
X9716D01*
X9703Y5270D01*
Y5245D01*
X9716Y5232D01*
X9843Y5245D02*
X9830Y5232D01*
Y5207D01*
X9843Y5194D01*
X9893D01*
X9906Y5207D01*
Y5232D01*
X9893Y5245D01*
X9906Y5270D02*
Y5296D01*
Y5283D01*
X9830D01*
X9843Y5270D01*
X12573Y7074D02*
X12497D01*
Y7112D01*
X12510Y7125D01*
X12535D01*
X12548Y7112D01*
Y7074D01*
Y7099D02*
X12573Y7125D01*
Y7201D02*
Y7150D01*
X12522Y7201D01*
X12510D01*
X12497Y7188D01*
Y7163D01*
X12510Y7150D01*
Y7226D02*
X12497Y7239D01*
Y7264D01*
X12510Y7277D01*
X12560D01*
X12573Y7264D01*
Y7239D01*
X12560Y7226D01*
X12510D01*
X12687Y8166D02*
Y8242D01*
X12725D01*
X12738Y8230D01*
Y8204D01*
X12725Y8191D01*
X12687D01*
X12713D02*
X12738Y8166D01*
X12763D02*
X12789D01*
X12776D01*
Y8242D01*
X12763Y8230D01*
X12827Y8179D02*
X12840Y8166D01*
X12865D01*
X12878Y8179D01*
Y8230D01*
X12865Y8242D01*
X12840D01*
X12827Y8230D01*
Y8217D01*
X12840Y8204D01*
X12878D01*
X11646Y8217D02*
Y8293D01*
X11684D01*
X11697Y8280D01*
Y8255D01*
X11684Y8242D01*
X11646D01*
X11671D02*
X11697Y8217D01*
X11722D02*
X11747D01*
X11735D01*
Y8293D01*
X11722Y8280D01*
X11786D02*
X11798Y8293D01*
X11824D01*
X11836Y8280D01*
Y8268D01*
X11824Y8255D01*
X11836Y8242D01*
Y8230D01*
X11824Y8217D01*
X11798D01*
X11786Y8230D01*
Y8242D01*
X11798Y8255D01*
X11786Y8268D01*
Y8280D01*
X11798Y8255D02*
X11824D01*
X11493Y7760D02*
Y7836D01*
X11532D01*
X11544Y7823D01*
Y7798D01*
X11532Y7785D01*
X11493D01*
X11519D02*
X11544Y7760D01*
X11570D02*
X11595D01*
X11582D01*
Y7836D01*
X11570Y7823D01*
X11633Y7836D02*
X11684D01*
Y7823D01*
X11633Y7772D01*
Y7760D01*
X12675Y7379D02*
Y7455D01*
X12713D01*
X12725Y7442D01*
Y7417D01*
X12713Y7404D01*
X12675D01*
X12700D02*
X12725Y7379D01*
X12751D02*
X12776D01*
X12763D01*
Y7455D01*
X12751Y7442D01*
X12865Y7455D02*
X12840Y7442D01*
X12814Y7417D01*
Y7391D01*
X12827Y7379D01*
X12852D01*
X12865Y7391D01*
Y7404D01*
X12852Y7417D01*
X12814D01*
X12687Y7696D02*
X12675Y7709D01*
X12649D01*
X12636Y7696D01*
Y7645D01*
X12649Y7633D01*
X12675D01*
X12687Y7645D01*
X12763Y7633D02*
X12713D01*
X12763Y7683D01*
Y7696D01*
X12751Y7709D01*
X12725D01*
X12713Y7696D01*
X12827Y7633D02*
Y7709D01*
X12789Y7671D01*
X12840D01*
X13017Y7391D02*
X13005Y7404D01*
X12979D01*
X12967Y7391D01*
Y7341D01*
X12979Y7328D01*
X13005D01*
X13017Y7341D01*
X13094Y7328D02*
X13043D01*
X13094Y7379D01*
Y7391D01*
X13081Y7404D01*
X13056D01*
X13043Y7391D01*
X13119D02*
X13132Y7404D01*
X13157D01*
X13170Y7391D01*
Y7379D01*
X13157Y7366D01*
X13144D01*
X13157D01*
X13170Y7353D01*
Y7341D01*
X13157Y7328D01*
X13132D01*
X13119Y7341D01*
X11379Y8014D02*
X11366Y8026D01*
X11341D01*
X11328Y8014D01*
Y7963D01*
X11341Y7950D01*
X11366D01*
X11379Y7963D01*
X11455Y7950D02*
X11405D01*
X11455Y8001D01*
Y8014D01*
X11443Y8026D01*
X11417D01*
X11405Y8014D01*
X11532Y7950D02*
X11481D01*
X11532Y8001D01*
Y8014D01*
X11519Y8026D01*
X11493D01*
X11481Y8014D01*
X11659Y7683D02*
X11646Y7696D01*
X11620D01*
X11608Y7683D01*
Y7633D01*
X11620Y7620D01*
X11646D01*
X11659Y7633D01*
X11735Y7620D02*
X11684D01*
X11735Y7671D01*
Y7683D01*
X11722Y7696D01*
X11697D01*
X11684Y7683D01*
X11760Y7620D02*
X11786D01*
X11773D01*
Y7696D01*
X11760Y7683D01*
X11989Y7087D02*
X11976Y7074D01*
Y7048D01*
X11989Y7036D01*
X12040D01*
X12052Y7048D01*
Y7074D01*
X12040Y7087D01*
X12052Y7163D02*
Y7112D01*
X12002Y7163D01*
X11989D01*
X11976Y7150D01*
Y7125D01*
X11989Y7112D01*
Y7188D02*
X11976Y7201D01*
Y7226D01*
X11989Y7239D01*
X12040D01*
X12052Y7226D01*
Y7201D01*
X12040Y7188D01*
X11989D01*
X12116Y7087D02*
X12103Y7074D01*
Y7048D01*
X12116Y7036D01*
X12167D01*
X12179Y7048D01*
Y7074D01*
X12167Y7087D01*
X12179Y7112D02*
Y7137D01*
Y7125D01*
X12103D01*
X12116Y7112D01*
X12167Y7175D02*
X12179Y7188D01*
Y7214D01*
X12167Y7226D01*
X12116D01*
X12103Y7214D01*
Y7188D01*
X12116Y7175D01*
X12129D01*
X12141Y7188D01*
Y7226D01*
X7696Y7887D02*
X7747D01*
X7722Y7912D02*
Y7861D01*
X7772Y7849D02*
X7798D01*
X7785D01*
Y7925D01*
X7772Y7912D01*
X7887Y7849D02*
X7836D01*
X7887Y7899D01*
Y7912D01*
X7874Y7925D01*
X7849D01*
X7836Y7912D01*
X7912Y7925D02*
Y7874D01*
X7937Y7849D01*
X7963Y7874D01*
Y7925D01*
M02*
