M48
;Layer_Color=9474304
;FILE_FORMAT=4:4
METRIC,LZ
;TYPE=PLATED
T1F00S00C0.7000
T2F00S00C0.9000
T3F00S00C1.0000
T4F00S00C1.0900
T5F00S00C1.2000
T6F00S00C1.3000
T7F00S00C2.4000
T8F00S00C3.2600
%
T01
X01319613Y00704158
X01165774Y00701581
X01140227Y00725563
X00735411Y00539371
X00959691Y0103124
X01140227Y00983108
X01215825Y00968021
X01218394Y00889888
X01257641Y00885742
X01318779Y00895713
X01349625Y00891958
T02
X0122301Y0045974
X0124841
X0127381
X0129921
X0132461
X0135001
Y0048514
X0132461
X0129921
X0127381
X0124841
X0122301
X01222352Y00597655
Y00623055
X01273705
Y00597655
X01325058
Y00623055
Y00784095
X01273705
X01222352
X01141118Y00773088
X0104633Y00784095
X00992757
X00939184
X00854864Y00773441
X00854063Y00659035
Y00634905
Y00609505
Y00584105
X00939184Y00597655
Y00623055
X00992757
Y00597655
X0104633
Y00623055
X01140589Y00634905
Y00659035
Y00609505
Y00584105
X0114681Y0048514
Y0045974
X0112141
X0109601
X0107061
X0104521
X0101981
X0099441
X0109601Y0048514
X0112141
X0117221
Y0045974
X01141118Y00798488
Y00823888
Y00848018
X0113157Y0091694
Y0094234
X0110617
X0108077
X0105537
X0102997
X0100457
X0097917
X0095377
X0092837
X0090297
X0095377Y0091694
X0097917
X0100457
X0102997
X0105537
X0108077
X0110617
X0117221
Y0094234
X0104633Y00809495
X00992757
X00939184
X00854864Y00798841
Y00824241
Y00848371
X01222352Y00809495
X01273705
X01325058
X0132461Y0091694
Y0094234
X0129921
X0127381
X0124841
X0122301
X0119761
Y0091694
X0122301
X0124841
X0127381
X0129921
X0135001
Y0094234
T03
X01192613Y00546045
X01218013
X01243413
X01268813
X01294213
X01319613
X01345013
X01370413
Y00673045
X01345013
X01319613
X01294213
X01268813
X01243413
X01218013
X01192613
Y00735553
X01218013
X01243413
X01268813
X01294213
X01319613
X01345013
X01370413
X0108146
X0105606
X0103066
X0100526
X00979861
X00954461
X00929061
X00903661
Y00673045
X00929061
X00954461
X00979861
X0100526
X0103066
X0105606
X0108146
Y00546045
X0105606
X0103066
X0100526
X00979861
X00954461
X00929061
X00903661
X00767574Y00939189
Y00964589
Y00989989
Y01015389
Y01040789
Y01066189
X00889453Y01068546
X00914853
X00940253
X01038608
X01064008
X01089408
X01089972Y00982835
X01115372
X01064572
X0105606Y00862553
X0103066
X0100526
X00979861
X00954461
X00929061
X00903661
X0108146
X01192613
X01218013
X01243413
X01268813
X01294213
X01319613
X01345013
X01370413
X01306711Y00982835
X01281311
X01255911
T04
X00641305Y00493988
Y00521598
Y00549208
Y00576818
Y00604428
Y00632038
Y00659648
Y00687258
Y00714868
Y00742478
Y00770088
X00669705Y00783893
Y00756283
Y00728673
Y00701063
Y00673453
Y00645843
Y00618233
Y00590623
Y00563013
Y00535403
Y00507793
Y00480183
Y00811503
X00641305Y00797698
T05
X01282639Y0039351
X01308039
X01343854
X01369254
X00778416Y00571628
Y00597028
Y00622428
Y00647828
Y00673228
Y00698628
Y00724028
Y00749428
X00716701Y00749333
Y00774733
Y00723933
Y00698533
Y00673133
Y00647733
Y00622333
Y00596933
Y00571533
Y00800133
X00718483Y0087137
X00743883
X00769283
X00794683
X00841437Y00995334
X00866837
X0089918
X00924579
X00956922
X00982322
X01166664Y00995285
X01192064
X01353574
X01378974
T06
X01186479Y0107239
X01237279
X01308039Y01072549
X01358839
T07
X0088218Y00418704
X0077169
T08
X00655505Y00410583
Y00881103
M30
