G04 Layer_Physical_Order=2*
G04 Layer_Color=36540*
%FSLAX44Y44*%
%MOMM*%
G71*
G01*
G75*
%ADD19C,0.2540*%
%ADD20C,0.6096*%
%ADD21C,0.0127*%
%ADD22C,0.0254*%
%ADD23C,1.4000*%
%ADD31C,1.2700*%
D19*
X1315720Y889000D02*
X1316990Y887730D01*
X1300352Y899160D02*
X1306830Y892682D01*
Y885318D02*
Y892682D01*
Y885318D02*
X1311910Y880238D01*
Y872390D02*
Y880238D01*
X1308100Y859918D02*
X1322198Y845820D01*
X1323340D01*
X1308100Y868580D02*
X1311910Y872390D01*
X1308100Y859918D02*
Y868580D01*
X1281048Y899160D02*
X1300352D01*
X1228090Y850900D02*
X1244600D01*
X1181100D02*
X1228090D01*
Y858520D01*
X1262380Y892810D01*
X1274698D01*
X1281048Y899160D01*
X1047750Y892810D02*
X1102360D01*
X1046480Y882650D02*
X1049020Y880110D01*
X1022984Y885952D02*
X1028572Y891540D01*
X998094Y885952D02*
X1022984D01*
X1094740Y900430D02*
X1102360Y892810D01*
X1094740Y900430D02*
Y901700D01*
X1046480Y891540D02*
X1047750Y892810D01*
X1046480Y882650D02*
Y891540D01*
X992506D02*
X998094Y885952D01*
X977900Y891540D02*
X992506D01*
X1028572D02*
X1046480D01*
X976630Y890270D02*
X977900Y891540D01*
X1177290Y854710D02*
X1181100Y850900D01*
X988060Y699770D02*
X989330Y698500D01*
X1035432D02*
X1040512Y693420D01*
X1017142Y698500D02*
X1035432D01*
X1047876Y693420D02*
X1058036Y703580D01*
X988060Y699770D02*
X992886D01*
X1001776Y690880D01*
X1040512Y693420D02*
X1047876D01*
X1009522Y690880D02*
X1017142Y698500D01*
X1001776Y690880D02*
X1009522D01*
X1058036Y703580D02*
X1096010D01*
X1102360Y697230D01*
X1249680Y715010D02*
Y722630D01*
Y699770D02*
Y715010D01*
X1307972Y695960D02*
X1318260D01*
X1249680Y715010D02*
X1257300Y707390D01*
X1296542D01*
X1307972Y695960D01*
X1318260D02*
Y697230D01*
X1316990Y698500D02*
X1318260Y697230D01*
X1249680Y699770D02*
X1253490Y695960D01*
D20*
X1329690Y863600D02*
X1334008Y859282D01*
X1316990Y863600D02*
X1329690D01*
X1334008Y833677D02*
Y859282D01*
X1330960Y803021D02*
X1334008Y806069D01*
X1292072Y866827D02*
X1302258Y856641D01*
Y789479D02*
Y856641D01*
X1334008Y806069D02*
Y832459D01*
X1333780Y832687D02*
Y833449D01*
Y832687D02*
X1334008Y832459D01*
X1330960Y727710D02*
Y803021D01*
X1292072Y866827D02*
Y880211D01*
X1333780Y833449D02*
X1334008Y833677D01*
X1296670Y884809D02*
Y890270D01*
X1292072Y880211D02*
X1296670Y884809D01*
X1280160Y872490D02*
X1282700Y869950D01*
Y799947D02*
Y869950D01*
X1277620D02*
X1280160Y872490D01*
X1280922Y725678D02*
Y798169D01*
X1282700Y799947D01*
X1313408Y769491D02*
Y778328D01*
X1308100Y764183D02*
X1313408Y769491D01*
X1308100Y722630D02*
Y764183D01*
X1085850Y883920D02*
X1096772Y872998D01*
X1102969D01*
X1113790Y862177D01*
X1116330D01*
X1098550Y850900D02*
X1104900Y844550D01*
X1098550Y850900D02*
Y862330D01*
X1085850Y882650D02*
Y883920D01*
X1065530Y871220D02*
X1068070Y868680D01*
X1085850Y882650D02*
X1087120Y881380D01*
X1116330Y862177D02*
X1124103D01*
X1115568Y862939D02*
X1116330Y862177D01*
X1114203Y862939D02*
X1115568D01*
X1040130Y866140D02*
X1042670D01*
X1036574Y862584D02*
X1040130Y866140D01*
X1036574Y862229D02*
Y862584D01*
X1010300Y835955D02*
X1036574Y862229D01*
X1104900Y812139D02*
Y844550D01*
X1124103Y862177D02*
X1131570Y854710D01*
X1104900Y812139D02*
X1107440Y809599D01*
Y778510D02*
Y809599D01*
X1131570Y824891D02*
X1150620Y805841D01*
X1258570Y830733D02*
Y862330D01*
X1246479Y818642D02*
X1258570Y830733D01*
X1242896Y817573D02*
X1243964Y818642D01*
X1246479D01*
X1044956Y612039D02*
Y681736D01*
X1014984Y582575D02*
Y664464D01*
X1044956Y612039D02*
X1049020Y607975D01*
X1026160Y675640D02*
X1031240D01*
X1055370Y692150D02*
X1060450D01*
X1044956Y681736D02*
X1055370Y692150D01*
X1079500Y694690D02*
X1080770D01*
X1079500D02*
X1087882Y686308D01*
X1014984Y664464D02*
X1026160Y675640D01*
X1097280Y725170D02*
X1134110D01*
X1097280D02*
X1099932Y727822D01*
X1087882Y686308D02*
X1110742D01*
X1139190Y657860D01*
X1097280Y675640D02*
X1102360D01*
X1095248Y643229D02*
X1107440Y631037D01*
Y577850D02*
Y631037D01*
X1097280Y658215D02*
Y659130D01*
X1095248Y656183D02*
X1097280Y658215D01*
X1095248Y643229D02*
Y656183D01*
X1049020Y525780D02*
Y607975D01*
X1334363Y677672D02*
X1350714Y661321D01*
Y651799D02*
Y661321D01*
X1332230Y638963D02*
X1338816Y645549D01*
X1344465D01*
X1350714Y651799D01*
X1306830Y615354D02*
X1313408Y608776D01*
X1306830Y615354D02*
Y660553D01*
X1332230Y523240D02*
Y638963D01*
X1296670Y670713D02*
Y694690D01*
Y670713D02*
X1306830Y660553D01*
X1313408Y599939D02*
Y608776D01*
X1306830Y523240D02*
Y593360D01*
X1313408Y599939D01*
X1314450Y680720D02*
X1319530D01*
X1325525Y677672D02*
X1334363D01*
X1325322Y677468D02*
X1325525Y677672D01*
X1257300Y678180D02*
Y681990D01*
X1259840Y669443D02*
X1280769Y690372D01*
X1259840Y523240D02*
Y669443D01*
X1245285Y666165D02*
X1257300Y678180D01*
X1245285Y666165D02*
Y666165D01*
Y666165D02*
X1246886Y664565D01*
Y655727D02*
Y664565D01*
X1225408Y634249D02*
X1246886Y655727D01*
X1325322Y677468D02*
X1325322D01*
X1225408Y580750D02*
Y634249D01*
Y580750D02*
X1231900Y574258D01*
Y523240D02*
Y574258D01*
X1139190Y566420D02*
Y657860D01*
Y566420D02*
X1140460Y565150D01*
X1102360Y675640D02*
X1106170Y671830D01*
Y668020D02*
Y671830D01*
X1097280Y659130D02*
X1106170Y668020D01*
X1107440Y577850D02*
X1123950Y561340D01*
Y525780D02*
Y561340D01*
X1140460Y511810D02*
Y565150D01*
X1106170Y511810D02*
X1140460D01*
X1094740Y523240D02*
X1106170Y511810D01*
X1094740Y523240D02*
X1096238Y524738D01*
X1014984Y582575D02*
X1021080Y576479D01*
Y528320D02*
Y576479D01*
X1302258Y789479D02*
X1313408Y778328D01*
X1280922Y725678D02*
X1282700Y723900D01*
X1242896Y762836D02*
Y817573D01*
X1231900Y751840D02*
X1242896Y762836D01*
X1060450Y804519D02*
X1066292Y798677D01*
Y789839D02*
Y798677D01*
X1060450Y783997D02*
X1066292Y789839D01*
X1060450Y783997D02*
X1073150Y771297D01*
Y727710D02*
Y771297D01*
X1145032Y742595D02*
Y772922D01*
X1150620Y778510D01*
X1107440D02*
X1126490Y759460D01*
Y739140D02*
Y759460D01*
X1150620Y778510D02*
Y805841D01*
X1134110Y731673D02*
X1145032Y742595D01*
X1134110Y725170D02*
Y731673D01*
X1131570Y824891D02*
Y854710D01*
X1068070Y845820D02*
Y868680D01*
X1060450Y838200D02*
X1068070Y845820D01*
X1060450Y804519D02*
Y838200D01*
X1010300Y778108D02*
Y835955D01*
Y778108D02*
X1020572Y767836D01*
Y750469D02*
Y767836D01*
X1017270Y747167D02*
X1020572Y750469D01*
X1017270Y725170D02*
Y747167D01*
D21*
X1400810Y485204D02*
Y812863D01*
X715073Y434403D02*
X1375774D01*
X715073Y968188D02*
X1375774D01*
X715073Y434403D02*
Y968188D01*
D22*
X1375774D02*
X1391472D01*
X1400810Y808990D02*
Y958613D01*
X1400573D02*
Y959087D01*
X1391472Y968188D02*
X1400573Y959087D01*
X1375774Y434403D02*
X1395793D01*
X1400573Y439183D01*
Y485204D01*
D23*
X1271270Y737870D02*
D03*
D31*
X1315720Y889000D02*
D03*
X1323340Y845820D02*
D03*
X1316990Y863600D02*
D03*
X1296670Y890270D02*
D03*
X1277620Y869950D02*
D03*
X1098550Y862330D02*
D03*
X1085850Y883920D02*
D03*
X1049020Y880110D02*
D03*
X1094740Y901700D02*
D03*
X1065530Y871220D02*
D03*
X1042670Y866140D02*
D03*
X976630Y890270D02*
D03*
X1177290Y854710D02*
D03*
X1244600Y850900D02*
D03*
X1031240Y675640D02*
D03*
X988060Y699770D02*
D03*
X1060450Y692150D02*
D03*
X1079500Y694690D02*
D03*
X1097280Y725170D02*
D03*
X1102360Y697230D02*
D03*
X1097280Y675640D02*
D03*
X1316990Y698500D02*
D03*
X1296670Y694690D02*
D03*
X1281430Y695960D02*
D03*
X1319530Y680720D02*
D03*
X1249680Y722630D02*
D03*
X1257300Y681990D02*
D03*
X1253490Y695960D02*
D03*
X1332230Y523240D02*
D03*
X1306830D02*
D03*
X1259840D02*
D03*
X1231900D02*
D03*
X1123950Y525780D02*
D03*
X1094740Y523240D02*
D03*
X1049020Y525780D02*
D03*
X1021080Y528320D02*
D03*
X1330960Y727710D02*
D03*
X1308100Y722630D02*
D03*
X1282700Y723900D02*
D03*
X1258570Y862330D02*
D03*
X1231900Y751840D02*
D03*
X1126490Y739140D02*
D03*
X1073150Y727710D02*
D03*
X1017270Y725170D02*
D03*
M02*
