G04 Layer_Color=8388736*
%FSLAX44Y44*%
%MOMM*%
G71*
G01*
G75*
%ADD21C,0.0254*%
%ADD22C,0.0127*%
%ADD45R,3.6032X3.6032*%
%ADD46R,0.4532X1.2032*%
%ADD47R,1.2032X0.4532*%
%ADD48R,1.1032X0.9032*%
%ADD49R,3.4032X1.8032*%
%ADD50R,0.9032X1.1032*%
%ADD51R,1.0032X1.1032*%
%ADD52R,9.0032X9.8032*%
%ADD53R,4.3532X1.2532*%
%ADD54C,1.9032*%
%ADD55R,1.8032X1.8032*%
%ADD56C,1.7032*%
%ADD57R,1.7032X1.7032*%
%ADD58R,2.0032X2.0032*%
%ADD59C,2.1032*%
%ADD60C,1.6032*%
%ADD61R,1.4032X1.4032*%
%ADD62C,1.4732*%
D21*
X1400573Y439183D02*
Y485204D01*
X1395793Y434403D02*
X1400573Y439183D01*
X1375774Y434403D02*
X1395793D01*
X1391472Y968188D02*
X1400573Y959087D01*
Y958613D02*
Y959087D01*
X1400810Y808990D02*
Y958613D01*
X1375774Y968188D02*
X1391472D01*
D22*
X715073Y434403D02*
Y968188D01*
X1375774D01*
X715073Y434403D02*
X1375774D01*
X1400810Y485204D02*
Y812863D01*
D45*
X1285240Y831850D02*
D03*
X1068070D02*
D03*
X1285240Y654170D02*
D03*
X1068070D02*
D03*
D46*
X1267740Y856850D02*
D03*
X1272740D02*
D03*
X1277740D02*
D03*
X1282740D02*
D03*
X1287740D02*
D03*
X1292740D02*
D03*
X1297740D02*
D03*
X1302740D02*
D03*
Y806850D02*
D03*
X1297740D02*
D03*
X1292740D02*
D03*
X1287740D02*
D03*
X1282740D02*
D03*
X1277740D02*
D03*
X1272740D02*
D03*
X1267740D02*
D03*
X1050570Y856850D02*
D03*
X1055570D02*
D03*
X1060570D02*
D03*
X1065570D02*
D03*
X1070570D02*
D03*
X1075570D02*
D03*
X1080570D02*
D03*
X1085570D02*
D03*
Y806850D02*
D03*
X1080570D02*
D03*
X1075570D02*
D03*
X1070570D02*
D03*
X1065570D02*
D03*
X1060570D02*
D03*
X1055570D02*
D03*
X1050570D02*
D03*
X1267740Y679170D02*
D03*
X1272740D02*
D03*
X1277740D02*
D03*
X1282740D02*
D03*
X1287740D02*
D03*
X1292740D02*
D03*
X1297740D02*
D03*
X1302740D02*
D03*
Y629170D02*
D03*
X1297740D02*
D03*
X1292740D02*
D03*
X1287740D02*
D03*
X1282740D02*
D03*
X1277740D02*
D03*
X1272740D02*
D03*
X1267740D02*
D03*
X1050570Y679170D02*
D03*
X1055570D02*
D03*
X1060570D02*
D03*
X1065570D02*
D03*
X1070570D02*
D03*
X1075570D02*
D03*
X1080570D02*
D03*
X1085570D02*
D03*
Y629170D02*
D03*
X1080570D02*
D03*
X1075570D02*
D03*
X1070570D02*
D03*
X1065570D02*
D03*
X1060570D02*
D03*
X1055570D02*
D03*
X1050570D02*
D03*
D47*
X1310240Y849350D02*
D03*
Y844350D02*
D03*
Y839350D02*
D03*
Y834350D02*
D03*
Y829350D02*
D03*
Y824350D02*
D03*
Y819350D02*
D03*
Y814350D02*
D03*
X1260240D02*
D03*
Y819350D02*
D03*
Y824350D02*
D03*
Y829350D02*
D03*
Y834350D02*
D03*
Y839350D02*
D03*
Y844350D02*
D03*
Y849350D02*
D03*
X1093070D02*
D03*
Y844350D02*
D03*
Y839350D02*
D03*
Y834350D02*
D03*
Y829350D02*
D03*
Y824350D02*
D03*
Y819350D02*
D03*
Y814350D02*
D03*
X1043070D02*
D03*
Y819350D02*
D03*
Y824350D02*
D03*
Y829350D02*
D03*
Y834350D02*
D03*
Y839350D02*
D03*
Y844350D02*
D03*
Y849350D02*
D03*
X1310240Y671670D02*
D03*
Y666670D02*
D03*
Y661670D02*
D03*
Y656670D02*
D03*
Y651670D02*
D03*
Y646670D02*
D03*
Y641670D02*
D03*
Y636670D02*
D03*
X1260240D02*
D03*
Y641670D02*
D03*
Y646670D02*
D03*
Y651670D02*
D03*
Y656670D02*
D03*
Y661670D02*
D03*
Y666670D02*
D03*
Y671670D02*
D03*
X1093070D02*
D03*
Y666670D02*
D03*
Y661670D02*
D03*
Y656670D02*
D03*
Y651670D02*
D03*
Y646670D02*
D03*
Y641670D02*
D03*
Y636670D02*
D03*
X1043070D02*
D03*
Y641670D02*
D03*
Y646670D02*
D03*
Y651670D02*
D03*
Y656670D02*
D03*
Y661670D02*
D03*
Y666670D02*
D03*
Y671670D02*
D03*
D48*
X927100Y845940D02*
D03*
Y860940D02*
D03*
Y793990D02*
D03*
Y808990D02*
D03*
Y756800D02*
D03*
Y741800D02*
D03*
D49*
X859790Y648970D02*
D03*
X910590D02*
D03*
D50*
X952380Y584200D02*
D03*
X937380D02*
D03*
X1360590Y801680D02*
D03*
X1345590D02*
D03*
X1360590Y815650D02*
D03*
X1345590D02*
D03*
X1360590Y829620D02*
D03*
X1345590D02*
D03*
X1360590Y843590D02*
D03*
X1345590D02*
D03*
X1360710Y857560D02*
D03*
X1345710D02*
D03*
X1134110Y802005D02*
D03*
X1119110D02*
D03*
X1134110Y818197D02*
D03*
X1119110D02*
D03*
X1134110Y834390D02*
D03*
X1119110D02*
D03*
X1134110Y850583D02*
D03*
X1119110D02*
D03*
X1134110Y866775D02*
D03*
X1119110D02*
D03*
X1357510Y619760D02*
D03*
X1342510D02*
D03*
Y635952D02*
D03*
X1357510D02*
D03*
X1342510Y652145D02*
D03*
X1357510D02*
D03*
X1342510Y668337D02*
D03*
X1357510D02*
D03*
X1342510Y684530D02*
D03*
X1357510D02*
D03*
X1123950Y616790D02*
D03*
X1138950D02*
D03*
X1123950Y633300D02*
D03*
X1138950D02*
D03*
X1123950Y649810D02*
D03*
X1138950D02*
D03*
Y666320D02*
D03*
X1123950D02*
D03*
Y682830D02*
D03*
X1138950D02*
D03*
D51*
X1219230Y798830D02*
D03*
X1205230D02*
D03*
X1219230Y814832D02*
D03*
X1205230D02*
D03*
X1219230Y830834D02*
D03*
X1205230D02*
D03*
X1219230Y846836D02*
D03*
X1205230D02*
D03*
X1219230Y862838D02*
D03*
X1205230D02*
D03*
X1219230Y878840D02*
D03*
X1205230D02*
D03*
X1014760Y803910D02*
D03*
X1000760D02*
D03*
X1014760Y819150D02*
D03*
X1000760D02*
D03*
X1014760Y834390D02*
D03*
X1000760D02*
D03*
X1014760Y849630D02*
D03*
X1000760D02*
D03*
X1014760Y864870D02*
D03*
X1000760D02*
D03*
X1014760Y880110D02*
D03*
X1000760D02*
D03*
X1221740Y622046D02*
D03*
X1207740D02*
D03*
X1221740Y637540D02*
D03*
X1207740D02*
D03*
X1207740Y653034D02*
D03*
X1221740D02*
D03*
X1207740Y668528D02*
D03*
X1221740D02*
D03*
X1207740Y684022D02*
D03*
X1221740D02*
D03*
X1001380Y605790D02*
D03*
X1015380D02*
D03*
X1001380Y621283D02*
D03*
X1015380D02*
D03*
X1001380Y636778D02*
D03*
X1015380D02*
D03*
X1001380Y652272D02*
D03*
X1015380D02*
D03*
Y667766D02*
D03*
X1001380D02*
D03*
Y683260D02*
D03*
X1015380D02*
D03*
X1221740Y606552D02*
D03*
X1207740D02*
D03*
D52*
X840740Y521970D02*
D03*
D53*
X942740Y547370D02*
D03*
Y496570D02*
D03*
D54*
X859790Y759460D02*
D03*
Y813435D02*
D03*
Y867410D02*
D03*
X750570Y600710D02*
D03*
D55*
X859790Y734060D02*
D03*
Y788035D02*
D03*
Y842010D02*
D03*
X750570Y575310D02*
D03*
D56*
X1096010Y485140D02*
D03*
X1121410D02*
D03*
X1146810D02*
D03*
X1324610D02*
D03*
X1299210D02*
D03*
X1273810D02*
D03*
X1248410D02*
D03*
X1223010D02*
D03*
X1106170Y916940D02*
D03*
X1080770D02*
D03*
X1055370D02*
D03*
X1029970D02*
D03*
X1004570D02*
D03*
X979170D02*
D03*
X953770D02*
D03*
X1146810Y459740D02*
D03*
X1121410D02*
D03*
X1096010D02*
D03*
X1070610D02*
D03*
X1045210D02*
D03*
X1019810D02*
D03*
X994410D02*
D03*
X1324610D02*
D03*
X1299210D02*
D03*
X1273810D02*
D03*
X1248410D02*
D03*
X1223010D02*
D03*
X1324610Y916940D02*
D03*
X1299210D02*
D03*
X1273810D02*
D03*
X1248410D02*
D03*
X1223010D02*
D03*
X1197610D02*
D03*
X1172210D02*
D03*
X1324610Y942340D02*
D03*
X1299210D02*
D03*
X1273810D02*
D03*
X1248410D02*
D03*
X1223010D02*
D03*
X1197610D02*
D03*
X1172210D02*
D03*
X1080770D02*
D03*
X902970D02*
D03*
X928370D02*
D03*
X953770D02*
D03*
X979170D02*
D03*
X1004570D02*
D03*
X1029970D02*
D03*
X1055370D02*
D03*
X1106170D02*
D03*
D57*
X1172210Y485140D02*
D03*
X1350010D02*
D03*
X1131570Y916940D02*
D03*
X1172210Y459740D02*
D03*
X1350010D02*
D03*
Y916940D02*
D03*
Y942340D02*
D03*
X1131570D02*
D03*
D58*
X768350Y730250D02*
D03*
X765810Y899160D02*
D03*
D59*
X768350Y679450D02*
D03*
X765810Y848360D02*
D03*
D60*
X1109980Y539750D02*
D03*
X1060450D02*
D03*
X1085850D02*
D03*
X1320800Y538480D02*
D03*
X1271270D02*
D03*
X1296670D02*
D03*
X1320800Y737870D02*
D03*
X1271270D02*
D03*
X1296670D02*
D03*
X1109980Y739140D02*
D03*
X1060450D02*
D03*
X1085850D02*
D03*
D61*
X1035050Y539750D02*
D03*
X1245870Y538480D02*
D03*
Y737870D02*
D03*
X1035050Y739140D02*
D03*
D62*
X917956Y818642D02*
D03*
X922140Y900550D02*
D03*
X1365250Y785368D02*
D03*
X1205230Y896921D02*
D03*
X1009904Y754888D02*
D03*
X1139571Y789559D02*
D03*
X1037336Y785368D02*
D03*
X1154176Y725424D02*
D03*
X1236076Y585169D02*
D03*
X1170940Y751332D02*
D03*
X1020968Y782527D02*
D03*
X1025652Y586994D02*
D03*
X1368552Y700278D02*
D03*
X1357510Y574802D02*
D03*
X1207740D02*
D03*
X1377442Y593090D02*
D03*
X941832Y562817D02*
D03*
X971111Y551434D02*
D03*
X1149858Y660908D02*
D03*
X880745Y808990D02*
D03*
X889374Y842010D02*
D03*
X971111Y496570D02*
D03*
X934211Y648970D02*
D03*
X1017270Y725170D02*
D03*
X1073150Y727710D02*
D03*
X1126490Y739140D02*
D03*
X1173480Y885952D02*
D03*
X1134364Y770128D02*
D03*
X1086395Y777203D02*
D03*
X1055624Y794258D02*
D03*
X1208659Y772287D02*
D03*
X1229502Y777447D02*
D03*
Y888031D02*
D03*
X1253564Y798068D02*
D03*
X1230122Y806958D02*
D03*
X1231900Y751840D02*
D03*
X1258570Y862330D02*
D03*
X1282700Y723900D02*
D03*
X1308100Y722630D02*
D03*
X1330960Y727710D02*
D03*
X1021080Y528320D02*
D03*
X1049020Y525780D02*
D03*
X1033780Y623570D02*
D03*
X1094740Y523240D02*
D03*
X1188466Y636778D02*
D03*
X1123950Y525780D02*
D03*
X1085570Y616549D02*
D03*
X1231900Y523240D02*
D03*
Y694690D02*
D03*
X1259840Y523240D02*
D03*
X1306830D02*
D03*
X1332230D02*
D03*
X1209040Y699770D02*
D03*
X1236218Y660146D02*
D03*
X1253490Y695960D02*
D03*
X1267460Y698500D02*
D03*
X1257300Y681990D02*
D03*
X1249680Y722630D02*
D03*
X1319530Y680720D02*
D03*
X1272740Y616712D02*
D03*
X1291844Y616458D02*
D03*
X1281430Y695960D02*
D03*
X1296670Y694690D02*
D03*
X1324610Y646430D02*
D03*
X1302740Y604357D02*
D03*
X1318260Y627380D02*
D03*
X1347216Y697785D02*
D03*
X1340046Y656217D02*
D03*
X1316990Y698500D02*
D03*
X1139952Y704213D02*
D03*
X1055624Y616458D02*
D03*
X1123950Y601980D02*
D03*
X1096772Y626618D02*
D03*
X1105916Y651764D02*
D03*
X1097280Y675640D02*
D03*
X1102360Y697230D02*
D03*
X1097280Y725170D02*
D03*
X1079500Y694690D02*
D03*
X1060450Y692150D02*
D03*
X988060Y699770D02*
D03*
X1044194Y702310D02*
D03*
X1031240Y689610D02*
D03*
Y675640D02*
D03*
X1030450Y656683D02*
D03*
X1244600Y850900D02*
D03*
X1242060Y829310D02*
D03*
X1177290Y854710D02*
D03*
X1085570Y794230D02*
D03*
X976630Y890270D02*
D03*
X1001776Y894842D02*
D03*
X1021080Y866140D02*
D03*
X1042670D02*
D03*
X1096772Y805180D02*
D03*
X1139818Y880030D02*
D03*
X1021080Y896620D02*
D03*
X1121410Y892810D02*
D03*
X1065530Y871220D02*
D03*
X1094740Y901700D02*
D03*
X1109980Y881380D02*
D03*
X1031240D02*
D03*
X1049020Y880110D02*
D03*
X1085850Y883920D02*
D03*
X1098550Y862330D02*
D03*
X1302740Y773910D02*
D03*
X1271016Y901700D02*
D03*
X1291590Y793750D02*
D03*
X1277620Y869950D02*
D03*
X1296670Y890270D02*
D03*
X1370482Y874879D02*
D03*
X1329436Y881888D02*
D03*
X1302740Y875792D02*
D03*
X1323112Y810260D02*
D03*
X1345590Y774446D02*
D03*
X1316990Y863600D02*
D03*
X1323340Y845820D02*
D03*
Y828040D02*
D03*
X1338580Y871220D02*
D03*
X1315720Y889000D02*
D03*
X1003300Y584200D02*
D03*
X1005840Y699770D02*
D03*
M02*
