G04 Layer_Color=16711935*
%FSLAX42Y42*%
%MOMM*%
G71*
G01*
G75*
%ADD22C,0.03*%
%ADD23C,0.01*%
%ADD48C,1.60*%
%ADD49R,1.40X1.40*%
%ADD50C,1.90*%
%ADD51R,1.80X1.80*%
%ADD52R,2.00X2.00*%
%ADD53C,2.10*%
%ADD54C,1.70*%
%ADD55R,1.70X1.70*%
%ADD56C,1.47*%
%ADD57C,0.70*%
%ADD58C,0.80*%
D22*
X14006Y4392D02*
Y4852D01*
X13958Y4344D02*
X14006Y4392D01*
X13758Y4344D02*
X13958D01*
X13915Y9682D02*
X14006Y9591D01*
Y9586D02*
Y9591D01*
X14008Y8090D02*
Y9586D01*
X13758Y9682D02*
X13915D01*
D23*
X7151Y4344D02*
Y9682D01*
X13758D01*
X7151Y4344D02*
X13758D01*
X14008Y4852D02*
Y8129D01*
D48*
X12649Y8598D02*
D03*
X12154D02*
D03*
X12408D02*
D03*
X10376Y6668D02*
D03*
X9881D02*
D03*
X10135D02*
D03*
X12675D02*
D03*
X12179D02*
D03*
X12433D02*
D03*
X10350Y8598D02*
D03*
X9855D02*
D03*
X10109D02*
D03*
D49*
X11900D02*
D03*
X9627Y6668D02*
D03*
X11925D02*
D03*
X9601Y8598D02*
D03*
D50*
X8496Y7595D02*
D03*
Y8268D02*
D03*
Y8941D02*
D03*
X7658Y6261D02*
D03*
D51*
X8496Y7341D02*
D03*
Y8014D02*
D03*
Y8687D02*
D03*
X7658Y6007D02*
D03*
D52*
X7683Y9004D02*
D03*
X7671Y7493D02*
D03*
D53*
X7683Y8496D02*
D03*
X7671Y6985D02*
D03*
D54*
X10960Y4851D02*
D03*
X11214D02*
D03*
X11468D02*
D03*
X13246D02*
D03*
X12992D02*
D03*
X12738D02*
D03*
X12484D02*
D03*
X12230D02*
D03*
X11468Y4597D02*
D03*
X11214D02*
D03*
X10960D02*
D03*
X10706D02*
D03*
X10452D02*
D03*
X10198D02*
D03*
X9944D02*
D03*
X13246D02*
D03*
X12992D02*
D03*
X12738D02*
D03*
X12484D02*
D03*
X12230D02*
D03*
X11062Y9169D02*
D03*
X10808D02*
D03*
X10554D02*
D03*
X10300D02*
D03*
X10046D02*
D03*
X9792D02*
D03*
X9538D02*
D03*
X13246D02*
D03*
X12992D02*
D03*
X12738D02*
D03*
X12484D02*
D03*
X12230D02*
D03*
X11976D02*
D03*
X11722D02*
D03*
X10808Y9423D02*
D03*
X9030D02*
D03*
X9284D02*
D03*
X9538D02*
D03*
X9792D02*
D03*
X10046D02*
D03*
X10300D02*
D03*
X10554D02*
D03*
X11062D02*
D03*
X13246D02*
D03*
X12992D02*
D03*
X12738D02*
D03*
X12484D02*
D03*
X12230D02*
D03*
X11976D02*
D03*
X11722D02*
D03*
D55*
Y4851D02*
D03*
X13500D02*
D03*
X11722Y4597D02*
D03*
X13500D02*
D03*
X11316Y9169D02*
D03*
X13500D02*
D03*
X11316Y9423D02*
D03*
X13500D02*
D03*
D56*
X10770Y6744D02*
D03*
X11886Y5989D02*
D03*
X12179Y8204D02*
D03*
X11930Y8047D02*
D03*
X12624Y8064D02*
D03*
X10935Y5220D02*
D03*
X11481Y6210D02*
D03*
X9893Y5105D02*
D03*
X9500Y6357D02*
D03*
X12764Y6223D02*
D03*
X10427Y7341D02*
D03*
X12687Y5309D02*
D03*
Y7264D02*
D03*
X9536Y7945D02*
D03*
X9631Y8047D02*
D03*
X9284Y8700D02*
D03*
X9220Y8026D02*
D03*
X10871Y8446D02*
D03*
X10566Y7938D02*
D03*
X10385Y7926D02*
D03*
X11011Y7709D02*
D03*
X11698Y8419D02*
D03*
X11557Y8230D02*
D03*
X11861Y7919D02*
D03*
X13018Y8560D02*
D03*
X12649Y7874D02*
D03*
X11201Y6083D02*
D03*
X11955Y6117D02*
D03*
X12941Y6604D02*
D03*
X12370Y6287D02*
D03*
X12205Y6274D02*
D03*
X12675Y5982D02*
D03*
X10541Y6782D02*
D03*
X9144Y6604D02*
D03*
X9347Y6096D02*
D03*
X9656Y6117D02*
D03*
X11621Y7366D02*
D03*
X9728Y8252D02*
D03*
X10673Y6182D02*
D03*
X12540Y6406D02*
D03*
X9881Y8204D02*
D03*
X9906Y6274D02*
D03*
X10325Y8064D02*
D03*
X10046Y8217D02*
D03*
X12649Y6134D02*
D03*
X10350D02*
D03*
X10071Y6287D02*
D03*
X12344Y8217D02*
D03*
X10366Y7787D02*
D03*
D57*
X12154Y7812D02*
D03*
X12268D02*
D03*
X12382D02*
D03*
Y7926D02*
D03*
X12268Y7697D02*
D03*
X12154Y7926D02*
D03*
X12268D02*
D03*
X12154Y7697D02*
D03*
X12382D02*
D03*
X9881Y5996D02*
D03*
X9995Y5881D02*
D03*
Y5996D02*
D03*
X9881Y5881D02*
D03*
Y5767D02*
D03*
X9995D02*
D03*
X10109D02*
D03*
Y5881D02*
D03*
Y5996D02*
D03*
X12179D02*
D03*
X12294Y5881D02*
D03*
Y5996D02*
D03*
X12179Y5881D02*
D03*
Y5767D02*
D03*
X12294D02*
D03*
X12408D02*
D03*
Y5881D02*
D03*
Y5996D02*
D03*
X9855Y7926D02*
D03*
X9969Y7812D02*
D03*
Y7926D02*
D03*
X9855Y7812D02*
D03*
Y7697D02*
D03*
X9969D02*
D03*
X10084D02*
D03*
Y7812D02*
D03*
Y7926D02*
D03*
D58*
X12103Y4478D02*
D03*
M02*
