G04 Layer_Physical_Order=2*
G04 Layer_Color=16711680*
%FSLAX25Y25*%
%MOIN*%
G70*
G01*
G75*
%ADD20C,0.02400*%
%ADD21C,0.01000*%
%ADD22C,0.05905*%
%ADD23R,0.05905X0.05905*%
%ADD24R,0.07480X0.07480*%
%ADD25C,0.07480*%
%ADD26C,0.05512*%
%ADD27R,0.05512X0.05512*%
%ADD28C,0.07087*%
%ADD29R,0.07087X0.07087*%
%ADD30C,0.05000*%
%ADD31C,0.02362*%
G36*
X552899Y382213D02*
Y170293D01*
X280297D01*
X279798Y170654D01*
X280286Y382269D01*
X552146D01*
X552495Y382617D01*
X552899Y382213D01*
D02*
G37*
%LPC*%
G36*
X452500Y247969D02*
Y245000D01*
X455469D01*
X455388Y245408D01*
X455240Y245842D01*
X455038Y246254D01*
X454783Y246635D01*
X454480Y246980D01*
X454135Y247283D01*
X453754Y247538D01*
X453342Y247741D01*
X452908Y247888D01*
X452500Y247969D01*
D02*
G37*
G36*
X451500D02*
X451092Y247888D01*
X450658Y247741D01*
X450246Y247538D01*
X449865Y247283D01*
X449520Y246980D01*
X449217Y246635D01*
X448962Y246254D01*
X448760Y245842D01*
X448612Y245408D01*
X448531Y245000D01*
X451500D01*
Y247969D01*
D02*
G37*
G36*
X505803Y246000D02*
X502834D01*
Y243031D01*
X503242Y243112D01*
X503677Y243260D01*
X504088Y243462D01*
X504469Y243717D01*
X504814Y244020D01*
X505117Y244365D01*
X505372Y244746D01*
X505575Y245158D01*
X505722Y245592D01*
X505803Y246000D01*
D02*
G37*
G36*
X382356Y265856D02*
X375644D01*
Y259144D01*
X377191D01*
Y252674D01*
X377078Y252595D01*
X376691Y252496D01*
X376480Y252736D01*
X376135Y253039D01*
X375754Y253294D01*
X375342Y253497D01*
X374908Y253644D01*
X374500Y253725D01*
Y250256D01*
Y246787D01*
X374908Y246868D01*
X375342Y247016D01*
X375754Y247218D01*
X376135Y247473D01*
X376480Y247776D01*
X376691Y248017D01*
X377078Y247917D01*
X377191Y247838D01*
Y242000D01*
X377213Y241779D01*
X377101Y241314D01*
X377063Y240827D01*
X377101Y240341D01*
X377215Y239866D01*
X377402Y239416D01*
X377657Y239000D01*
X377974Y238629D01*
X378345Y238312D01*
X378761Y238057D01*
X379212Y237870D01*
X379686Y237756D01*
X380173Y237718D01*
X380659Y237756D01*
X381134Y237870D01*
X381584Y238057D01*
X382000Y238312D01*
X382371Y238629D01*
X382688Y239000D01*
X382943Y239416D01*
X383130Y239866D01*
X383244Y240341D01*
X383282Y240827D01*
X383244Y241314D01*
X383130Y241788D01*
X382943Y242239D01*
X382688Y242655D01*
X382371Y243026D01*
X382000Y243343D01*
X381584Y243598D01*
X381134Y243785D01*
X380809Y243863D01*
Y259144D01*
X382356D01*
Y265856D01*
D02*
G37*
G36*
X399000Y265863D02*
X398561Y265834D01*
X398130Y265749D01*
X397713Y265607D01*
X397318Y265412D01*
X396953Y265168D01*
X396622Y264878D01*
X396332Y264547D01*
X396088Y264182D01*
X395893Y263787D01*
X395752Y263370D01*
X395666Y262939D01*
X395637Y262500D01*
X395666Y262061D01*
X395752Y261630D01*
X395893Y261213D01*
X396088Y260818D01*
X396332Y260453D01*
X396622Y260122D01*
X396953Y259832D01*
X397191Y259672D01*
Y251004D01*
X397176Y250971D01*
X396758Y250589D01*
X396500Y250610D01*
X396013Y250571D01*
X395539Y250457D01*
X395088Y250271D01*
X394672Y250016D01*
X394301Y249699D01*
X393984Y249328D01*
X393729Y248912D01*
X393543Y248461D01*
X393535Y248428D01*
X393142Y248221D01*
X392796Y248351D01*
X392771Y248412D01*
X392516Y248828D01*
X392199Y249199D01*
X391828Y249516D01*
X391412Y249771D01*
X390961Y249957D01*
X390809Y249994D01*
Y259672D01*
X391047Y259832D01*
X391378Y260122D01*
X391668Y260453D01*
X391913Y260818D01*
X392107Y261213D01*
X392249Y261630D01*
X392334Y262061D01*
X392363Y262500D01*
X392334Y262939D01*
X392249Y263370D01*
X392107Y263787D01*
X391913Y264182D01*
X391668Y264547D01*
X391378Y264878D01*
X391047Y265168D01*
X390682Y265412D01*
X390287Y265607D01*
X389870Y265749D01*
X389439Y265834D01*
X389000Y265863D01*
X388561Y265834D01*
X388130Y265749D01*
X387713Y265607D01*
X387318Y265412D01*
X386953Y265168D01*
X386622Y264878D01*
X386332Y264547D01*
X386087Y264182D01*
X385893Y263787D01*
X385752Y263370D01*
X385666Y262939D01*
X385637Y262500D01*
X385666Y262061D01*
X385752Y261630D01*
X385893Y261213D01*
X386087Y260818D01*
X386332Y260453D01*
X386622Y260122D01*
X386953Y259832D01*
X387191Y259672D01*
Y248320D01*
X387043Y247961D01*
X386929Y247486D01*
X386890Y247000D01*
X386929Y246514D01*
X387043Y246039D01*
X387229Y245588D01*
X387484Y245172D01*
X387801Y244801D01*
X388172Y244484D01*
X388588Y244229D01*
X389039Y244043D01*
X389513Y243929D01*
X390000Y243890D01*
X390487Y243929D01*
X390961Y244043D01*
X391412Y244229D01*
X391828Y244484D01*
X392199Y244801D01*
X392516Y245172D01*
X392771Y245588D01*
X392957Y246039D01*
X392965Y246072D01*
X393358Y246279D01*
X393704Y246149D01*
X393729Y246088D01*
X393984Y245672D01*
X394301Y245301D01*
X394672Y244984D01*
X395088Y244729D01*
X395539Y244543D01*
X396013Y244429D01*
X396500Y244390D01*
X396987Y244429D01*
X397461Y244543D01*
X397912Y244729D01*
X398328Y244984D01*
X398699Y245301D01*
X399016Y245672D01*
X399271Y246088D01*
X399457Y246539D01*
X399571Y247013D01*
X399610Y247500D01*
X399571Y247987D01*
X399566Y248008D01*
X400279Y248721D01*
X400504Y248995D01*
X400671Y249308D01*
X400774Y249647D01*
X400809Y250000D01*
Y259672D01*
X401047Y259832D01*
X401378Y260122D01*
X401668Y260453D01*
X401912Y260818D01*
X402107Y261213D01*
X402248Y261630D01*
X402334Y262061D01*
X402363Y262500D01*
X402334Y262939D01*
X402248Y263370D01*
X402107Y263787D01*
X401912Y264182D01*
X401668Y264547D01*
X401378Y264878D01*
X401047Y265168D01*
X400682Y265412D01*
X400287Y265607D01*
X399870Y265749D01*
X399439Y265834D01*
X399000Y265863D01*
D02*
G37*
G36*
X502834Y249969D02*
Y247000D01*
X505803D01*
X505722Y247408D01*
X505575Y247842D01*
X505372Y248254D01*
X505117Y248635D01*
X504814Y248980D01*
X504469Y249283D01*
X504088Y249538D01*
X503677Y249741D01*
X503242Y249888D01*
X502834Y249969D01*
D02*
G37*
G36*
X397500Y238170D02*
X397324Y238128D01*
X397007Y237997D01*
X396714Y237817D01*
X396453Y237594D01*
X396230Y237333D01*
X396051Y237040D01*
X396021Y236968D01*
X395479D01*
X395449Y237040D01*
X395270Y237333D01*
X395047Y237594D01*
X394786Y237817D01*
X394493Y237997D01*
X394176Y238128D01*
X394000Y238170D01*
Y236047D01*
X393000D01*
Y238170D01*
X392824Y238128D01*
X392507Y237997D01*
X392214Y237817D01*
X391953Y237594D01*
X391730Y237333D01*
X391551Y237040D01*
X391521Y236968D01*
X390979D01*
X390949Y237040D01*
X390770Y237333D01*
X390547Y237594D01*
X390286Y237817D01*
X389993Y237997D01*
X389676Y238128D01*
X389500Y238170D01*
Y236047D01*
X389000D01*
Y235547D01*
X386877D01*
X386919Y235371D01*
X387051Y235054D01*
X387230Y234761D01*
X387453Y234500D01*
X387714Y234277D01*
X388007Y234098D01*
X388079Y234068D01*
Y233527D01*
X388007Y233497D01*
X387714Y233317D01*
X387453Y233094D01*
X387230Y232833D01*
X387051Y232540D01*
X386919Y232223D01*
X386877Y232047D01*
X389000D01*
Y231047D01*
X386877D01*
X386919Y230871D01*
X387051Y230554D01*
X387230Y230261D01*
X387453Y230000D01*
X387714Y229777D01*
X388007Y229598D01*
X388079Y229568D01*
Y229027D01*
X388007Y228997D01*
X387714Y228817D01*
X387453Y228594D01*
X387230Y228333D01*
X387051Y228041D01*
X386919Y227723D01*
X386877Y227547D01*
X389000D01*
Y227047D01*
X389500D01*
Y224924D01*
X389676Y224966D01*
X389993Y225098D01*
X390286Y225277D01*
X390547Y225500D01*
X390770Y225761D01*
X390949Y226054D01*
X390979Y226126D01*
X391521D01*
X391551Y226054D01*
X391730Y225761D01*
X391953Y225500D01*
X392214Y225277D01*
X392507Y225098D01*
X392824Y224966D01*
X393000Y224924D01*
Y227047D01*
X394000D01*
Y224924D01*
X394176Y224966D01*
X394493Y225098D01*
X394786Y225277D01*
X395047Y225500D01*
X395270Y225761D01*
X395449Y226054D01*
X395479Y226126D01*
X396021D01*
X396051Y226054D01*
X396230Y225761D01*
X396453Y225500D01*
X396714Y225277D01*
X397007Y225098D01*
X397324Y224966D01*
X397500Y224924D01*
Y227047D01*
X398000D01*
Y227547D01*
X400123D01*
X400081Y227723D01*
X399949Y228041D01*
X399770Y228333D01*
X399547Y228594D01*
X399286Y228817D01*
X398993Y228997D01*
X398921Y229027D01*
Y229568D01*
X398993Y229598D01*
X399286Y229777D01*
X399547Y230000D01*
X399770Y230261D01*
X399949Y230554D01*
X400081Y230871D01*
X400123Y231047D01*
X398000D01*
Y232047D01*
X400123D01*
X400081Y232223D01*
X399949Y232540D01*
X399770Y232833D01*
X399547Y233094D01*
X399286Y233317D01*
X398993Y233497D01*
X398921Y233527D01*
Y234068D01*
X398993Y234098D01*
X399286Y234277D01*
X399547Y234500D01*
X399770Y234761D01*
X399949Y235054D01*
X400081Y235371D01*
X400123Y235547D01*
X398000D01*
Y236047D01*
X397500D01*
Y238170D01*
D02*
G37*
G36*
X489000D02*
Y236547D01*
X490623D01*
X490581Y236723D01*
X490449Y237040D01*
X490270Y237333D01*
X490047Y237594D01*
X489786Y237817D01*
X489493Y237997D01*
X489176Y238128D01*
X489000Y238170D01*
D02*
G37*
G36*
X479000D02*
X478824Y238128D01*
X478507Y237997D01*
X478214Y237817D01*
X477953Y237594D01*
X477730Y237333D01*
X477551Y237040D01*
X477419Y236723D01*
X477377Y236547D01*
X479000D01*
Y238170D01*
D02*
G37*
G36*
X360000Y263110D02*
X359513Y263071D01*
X359039Y262957D01*
X358588Y262771D01*
X358172Y262516D01*
X357801Y262199D01*
X357484Y261828D01*
X357229Y261412D01*
X357043Y260961D01*
X356929Y260487D01*
X356890Y260000D01*
X356929Y259513D01*
X357043Y259039D01*
X357229Y258588D01*
X357484Y258172D01*
X357801Y257801D01*
X358172Y257484D01*
X358588Y257229D01*
X359039Y257043D01*
X359513Y256929D01*
X360000Y256890D01*
X360487Y256929D01*
X360508Y256934D01*
X365942Y251500D01*
X365777Y251335D01*
X365552Y251061D01*
X365385Y250748D01*
X365282Y250409D01*
X365247Y250056D01*
Y242516D01*
X365228Y242504D01*
X364857Y242187D01*
X364540Y241816D01*
X364285Y241400D01*
X364098Y240950D01*
X363984Y240475D01*
X363983Y240461D01*
X363467Y240271D01*
X356453Y247285D01*
X356223Y247461D01*
X355956Y247572D01*
X355669Y247609D01*
X305499D01*
X305336Y248089D01*
X305096Y248576D01*
X304794Y249028D01*
X304436Y249436D01*
X304028Y249794D01*
X303576Y250096D01*
X303089Y250336D01*
X302575Y250511D01*
X302042Y250617D01*
X301500Y250652D01*
X300958Y250617D01*
X300425Y250511D01*
X299911Y250336D01*
X299424Y250096D01*
X298972Y249794D01*
X298564Y249436D01*
X298206Y249028D01*
X297904Y248576D01*
X297664Y248089D01*
X297489Y247575D01*
X297383Y247042D01*
X297348Y246500D01*
X297383Y245958D01*
X297489Y245425D01*
X297664Y244911D01*
X297904Y244424D01*
X298206Y243972D01*
X298564Y243564D01*
X298972Y243206D01*
X299424Y242904D01*
X299911Y242664D01*
X300425Y242489D01*
X300958Y242383D01*
X301500Y242348D01*
X302042Y242383D01*
X302575Y242489D01*
X303089Y242664D01*
X303576Y242904D01*
X304028Y243206D01*
X304436Y243564D01*
X304794Y243972D01*
X305096Y244424D01*
X305336Y244911D01*
X305499Y245391D01*
X355209D01*
X362383Y238216D01*
X362384Y238210D01*
X362463Y238021D01*
X362353Y237800D01*
X362139Y237585D01*
X361953Y237610D01*
X305643D01*
Y240643D01*
X297357D01*
Y232357D01*
X305643D01*
Y235390D01*
X361493D01*
X411845Y185039D01*
X411624Y184552D01*
X411500Y184560D01*
X411035Y184530D01*
X410578Y184439D01*
X410138Y184289D01*
X409720Y184083D01*
X409333Y183825D01*
X408982Y183518D01*
X408675Y183167D01*
X408417Y182780D01*
X408211Y182362D01*
X408061Y181922D01*
X407970Y181465D01*
X407940Y181000D01*
X407970Y180535D01*
X408061Y180078D01*
X408211Y179638D01*
X408417Y179220D01*
X408675Y178833D01*
X408982Y178482D01*
X409333Y178175D01*
X409720Y177917D01*
X410138Y177711D01*
X410578Y177561D01*
X411035Y177470D01*
X411500Y177440D01*
X411965Y177470D01*
X412422Y177561D01*
X412862Y177711D01*
X413280Y177917D01*
X413667Y178175D01*
X414018Y178482D01*
X414325Y178833D01*
X414583Y179220D01*
X414789Y179638D01*
X414939Y180078D01*
X415030Y180535D01*
X415060Y181000D01*
X415052Y181124D01*
X415539Y181345D01*
X416668Y180216D01*
X416898Y180039D01*
X417166Y179928D01*
X417453Y179891D01*
X418125D01*
X418211Y179638D01*
X418417Y179220D01*
X418675Y178833D01*
X418982Y178482D01*
X419333Y178175D01*
X419720Y177917D01*
X420138Y177711D01*
X420578Y177561D01*
X421035Y177470D01*
X421500Y177440D01*
X421965Y177470D01*
X422422Y177561D01*
X422862Y177711D01*
X423102Y177829D01*
X425715Y175215D01*
X425945Y175039D01*
X426213Y174928D01*
X426500Y174890D01*
X472606D01*
X472734Y174734D01*
X473006Y174512D01*
X473315Y174346D01*
X473525Y174283D01*
X473451Y173783D01*
X387186D01*
X364170Y196799D01*
X364190Y197000D01*
X364155Y197349D01*
X364054Y197685D01*
X363888Y197994D01*
X363666Y198266D01*
X363394Y198488D01*
X363085Y198653D01*
X362749Y198755D01*
X362400Y198790D01*
X362051Y198755D01*
X361715Y198653D01*
X361406Y198488D01*
X361135Y198266D01*
X360912Y197994D01*
X360747Y197685D01*
X360645Y197349D01*
X360610Y197000D01*
X360645Y196651D01*
X360747Y196315D01*
X360912Y196006D01*
X361135Y195735D01*
X361406Y195512D01*
X361715Y195346D01*
X362051Y195245D01*
X362400Y195210D01*
X362601Y195230D01*
X385942Y171889D01*
X386172Y171713D01*
X386439Y171602D01*
X386727Y171564D01*
X513173D01*
X513461Y171602D01*
X513728Y171713D01*
X513958Y171889D01*
X519898Y177829D01*
X520138Y177711D01*
X520578Y177561D01*
X521035Y177470D01*
X521500Y177440D01*
X521965Y177470D01*
X522422Y177561D01*
X522862Y177711D01*
X523280Y177917D01*
X523667Y178175D01*
X524018Y178482D01*
X524325Y178833D01*
X524583Y179220D01*
X524789Y179638D01*
X524939Y180078D01*
X525030Y180535D01*
X525060Y181000D01*
X525030Y181465D01*
X524939Y181922D01*
X524789Y182362D01*
X524583Y182780D01*
X524325Y183167D01*
X524018Y183518D01*
X523667Y183825D01*
X523280Y184083D01*
X522862Y184289D01*
X522565Y184390D01*
X522647Y184890D01*
X526040D01*
X527947Y182984D01*
Y177447D01*
X535053D01*
Y184553D01*
X529516D01*
X527284Y186785D01*
X527055Y186961D01*
X526787Y187072D01*
X526500Y187109D01*
X522647D01*
X522565Y187610D01*
X522862Y187711D01*
X523280Y187917D01*
X523667Y188175D01*
X524018Y188482D01*
X524325Y188833D01*
X524583Y189220D01*
X524789Y189637D01*
X524939Y190078D01*
X525030Y190535D01*
X525060Y191000D01*
X525030Y191465D01*
X524939Y191921D01*
X524789Y192362D01*
X524583Y192780D01*
X524325Y193167D01*
X524018Y193518D01*
X523667Y193825D01*
X523280Y194083D01*
X522862Y194289D01*
X522422Y194439D01*
X521965Y194530D01*
X521500Y194560D01*
X521035Y194530D01*
X520578Y194439D01*
X520138Y194289D01*
X519720Y194083D01*
X519333Y193825D01*
X518982Y193518D01*
X518675Y193167D01*
X518417Y192780D01*
X518211Y192362D01*
X518061Y191921D01*
X517970Y191465D01*
X517940Y191000D01*
X517970Y190535D01*
X518061Y190078D01*
X518211Y189637D01*
X518417Y189220D01*
X518675Y188833D01*
X518982Y188482D01*
X519333Y188175D01*
X519720Y187917D01*
X520138Y187711D01*
X520435Y187610D01*
X520353Y187109D01*
X512647D01*
X512565Y187610D01*
X512862Y187711D01*
X513280Y187917D01*
X513667Y188175D01*
X514018Y188482D01*
X514325Y188833D01*
X514583Y189220D01*
X514789Y189637D01*
X514939Y190078D01*
X515030Y190535D01*
X515060Y191000D01*
X515030Y191465D01*
X514939Y191921D01*
X514789Y192362D01*
X514583Y192780D01*
X514325Y193167D01*
X514018Y193518D01*
X513667Y193825D01*
X513280Y194083D01*
X512862Y194289D01*
X512422Y194439D01*
X511965Y194530D01*
X511500Y194560D01*
X511035Y194530D01*
X510578Y194439D01*
X510138Y194289D01*
X509720Y194083D01*
X509333Y193825D01*
X508982Y193518D01*
X508675Y193167D01*
X508417Y192780D01*
X508211Y192362D01*
X508061Y191921D01*
X507970Y191465D01*
X507940Y191000D01*
X507970Y190535D01*
X508061Y190078D01*
X508211Y189637D01*
X508417Y189220D01*
X508675Y188833D01*
X508982Y188482D01*
X509333Y188175D01*
X509720Y187917D01*
X510138Y187711D01*
X510435Y187610D01*
X510353Y187109D01*
X502647D01*
X502564Y187610D01*
X502863Y187711D01*
X503280Y187917D01*
X503667Y188175D01*
X504018Y188482D01*
X504325Y188833D01*
X504583Y189220D01*
X504789Y189637D01*
X504939Y190078D01*
X505030Y190535D01*
X505060Y191000D01*
X505030Y191465D01*
X504939Y191921D01*
X504789Y192362D01*
X504583Y192780D01*
X504325Y193167D01*
X504018Y193518D01*
X503667Y193825D01*
X503280Y194083D01*
X502863Y194289D01*
X502422Y194439D01*
X501965Y194530D01*
X501500Y194560D01*
X501035Y194530D01*
X500578Y194439D01*
X500138Y194289D01*
X499720Y194083D01*
X499333Y193825D01*
X498982Y193518D01*
X498675Y193167D01*
X498417Y192780D01*
X498211Y192362D01*
X498061Y191921D01*
X497970Y191465D01*
X497940Y191000D01*
X497970Y190535D01*
X498061Y190078D01*
X498211Y189637D01*
X498417Y189220D01*
X498675Y188833D01*
X498982Y188482D01*
X499333Y188175D01*
X499720Y187917D01*
X500138Y187711D01*
X500435Y187610D01*
X500353Y187109D01*
X492647D01*
X492564Y187610D01*
X492863Y187711D01*
X493280Y187917D01*
X493667Y188175D01*
X494018Y188482D01*
X494325Y188833D01*
X494583Y189220D01*
X494789Y189637D01*
X494939Y190078D01*
X495030Y190535D01*
X495060Y191000D01*
X495030Y191465D01*
X494939Y191921D01*
X494789Y192362D01*
X494583Y192780D01*
X494325Y193167D01*
X494018Y193518D01*
X493667Y193825D01*
X493280Y194083D01*
X492863Y194289D01*
X492421Y194439D01*
X491965Y194530D01*
X491500Y194560D01*
X491035Y194530D01*
X490579Y194439D01*
X490137Y194289D01*
X489720Y194083D01*
X489333Y193825D01*
X488982Y193518D01*
X488675Y193167D01*
X488417Y192780D01*
X488211Y192362D01*
X488061Y191921D01*
X487970Y191465D01*
X487940Y191000D01*
X487970Y190535D01*
X488061Y190078D01*
X488211Y189637D01*
X488417Y189220D01*
X488675Y188833D01*
X488982Y188482D01*
X489333Y188175D01*
X489720Y187917D01*
X490137Y187711D01*
X490436Y187610D01*
X490353Y187109D01*
X482647D01*
X482564Y187610D01*
X482863Y187711D01*
X483280Y187917D01*
X483667Y188175D01*
X484018Y188482D01*
X484325Y188833D01*
X484583Y189220D01*
X484789Y189637D01*
X484939Y190078D01*
X485030Y190535D01*
X485060Y191000D01*
X485030Y191465D01*
X484939Y191921D01*
X484789Y192362D01*
X484583Y192780D01*
X484325Y193167D01*
X484018Y193518D01*
X483667Y193825D01*
X483280Y194083D01*
X482863Y194289D01*
X482421Y194439D01*
X481965Y194530D01*
X481500Y194560D01*
X481035Y194530D01*
X480579Y194439D01*
X480137Y194289D01*
X479720Y194083D01*
X479333Y193825D01*
X478982Y193518D01*
X478675Y193167D01*
X478417Y192780D01*
X478211Y192362D01*
X478061Y191921D01*
X477970Y191465D01*
X477940Y191000D01*
X477970Y190535D01*
X478061Y190078D01*
X478211Y189637D01*
X478417Y189220D01*
X478675Y188833D01*
X478982Y188482D01*
X479333Y188175D01*
X479720Y187917D01*
X480137Y187711D01*
X480436Y187610D01*
X480353Y187109D01*
X465413D01*
X465053Y187447D01*
X465053Y187610D01*
Y194553D01*
X457947D01*
Y187610D01*
X457947Y187447D01*
X457587Y187109D01*
X452647D01*
X452564Y187610D01*
X452863Y187711D01*
X453280Y187917D01*
X453667Y188175D01*
X454018Y188482D01*
X454325Y188833D01*
X454583Y189220D01*
X454789Y189637D01*
X454939Y190078D01*
X455030Y190535D01*
X455060Y191000D01*
X455030Y191465D01*
X454939Y191921D01*
X454789Y192362D01*
X454583Y192780D01*
X454325Y193167D01*
X454018Y193518D01*
X453667Y193825D01*
X453280Y194083D01*
X452863Y194289D01*
X452422Y194439D01*
X451965Y194530D01*
X451500Y194560D01*
X451035Y194530D01*
X450578Y194439D01*
X450138Y194289D01*
X449720Y194083D01*
X449333Y193825D01*
X448982Y193518D01*
X448675Y193167D01*
X448417Y192780D01*
X448211Y192362D01*
X448061Y191921D01*
X447970Y191465D01*
X447940Y191000D01*
X447970Y190535D01*
X448061Y190078D01*
X448211Y189637D01*
X448417Y189220D01*
X448675Y188833D01*
X448982Y188482D01*
X449333Y188175D01*
X449720Y187917D01*
X450138Y187711D01*
X450435Y187610D01*
X450353Y187109D01*
X442647D01*
X442564Y187610D01*
X442863Y187711D01*
X443280Y187917D01*
X443667Y188175D01*
X444018Y188482D01*
X444325Y188833D01*
X444583Y189220D01*
X444789Y189637D01*
X444939Y190078D01*
X445030Y190535D01*
X445060Y191000D01*
X445030Y191465D01*
X444939Y191921D01*
X444789Y192362D01*
X444583Y192780D01*
X444325Y193167D01*
X444018Y193518D01*
X443667Y193825D01*
X443280Y194083D01*
X442863Y194289D01*
X442421Y194439D01*
X441965Y194530D01*
X441500Y194560D01*
X441035Y194530D01*
X440579Y194439D01*
X440137Y194289D01*
X439720Y194083D01*
X439333Y193825D01*
X438982Y193518D01*
X438675Y193167D01*
X438417Y192780D01*
X438211Y192362D01*
X438061Y191921D01*
X437970Y191465D01*
X437940Y191000D01*
X437970Y190535D01*
X438061Y190078D01*
X438211Y189637D01*
X438417Y189220D01*
X438675Y188833D01*
X438982Y188482D01*
X439333Y188175D01*
X439720Y187917D01*
X440137Y187711D01*
X440436Y187610D01*
X440353Y187109D01*
X432647D01*
X432564Y187610D01*
X432863Y187711D01*
X433280Y187917D01*
X433667Y188175D01*
X434018Y188482D01*
X434325Y188833D01*
X434583Y189220D01*
X434789Y189637D01*
X434939Y190078D01*
X435030Y190535D01*
X435060Y191000D01*
X435030Y191465D01*
X434939Y191921D01*
X434789Y192362D01*
X434583Y192780D01*
X434325Y193167D01*
X434018Y193518D01*
X433667Y193825D01*
X433280Y194083D01*
X432863Y194289D01*
X432421Y194439D01*
X431965Y194530D01*
X431500Y194560D01*
X431035Y194530D01*
X430579Y194439D01*
X430137Y194289D01*
X429720Y194083D01*
X429333Y193825D01*
X428982Y193518D01*
X428675Y193167D01*
X428417Y192780D01*
X428211Y192362D01*
X428061Y191921D01*
X427970Y191465D01*
X427940Y191000D01*
X427970Y190535D01*
X428061Y190078D01*
X428211Y189637D01*
X428417Y189220D01*
X428675Y188833D01*
X428982Y188482D01*
X429333Y188175D01*
X429720Y187917D01*
X430137Y187711D01*
X430436Y187610D01*
X430353Y187109D01*
X416413D01*
X367138Y236384D01*
X367329Y236900D01*
X367542Y236917D01*
X368017Y237031D01*
X368467Y237218D01*
X368883Y237473D01*
X369254Y237790D01*
X369571Y238161D01*
X369826Y238577D01*
X370013Y239028D01*
X370127Y239502D01*
X370165Y239989D01*
X370127Y240475D01*
X370013Y240950D01*
X369826Y241400D01*
X369571Y241816D01*
X369254Y242187D01*
X368883Y242504D01*
X368864Y242516D01*
Y249307D01*
X369779Y250221D01*
X370004Y250495D01*
X370007Y250502D01*
X370499Y250361D01*
X370493Y250256D01*
X370522Y249798D01*
X370612Y249348D01*
X370760Y248914D01*
X370962Y248502D01*
X371217Y248121D01*
X371520Y247776D01*
X371865Y247473D01*
X372246Y247218D01*
X372658Y247016D01*
X373092Y246868D01*
X373500Y246787D01*
Y250256D01*
Y253725D01*
X373092Y253644D01*
X372658Y253497D01*
X372246Y253294D01*
X371865Y253039D01*
X371520Y252736D01*
X371217Y252391D01*
X370962Y252010D01*
X370795Y251669D01*
X370739Y251663D01*
X370274Y251853D01*
X370171Y252192D01*
X370004Y252505D01*
X369779Y252779D01*
X363066Y259492D01*
X363071Y259513D01*
X363110Y260000D01*
X363071Y260487D01*
X362957Y260961D01*
X362771Y261412D01*
X362516Y261828D01*
X362199Y262199D01*
X361828Y262516D01*
X361412Y262771D01*
X360961Y262957D01*
X360487Y263071D01*
X360000Y263110D01*
D02*
G37*
G36*
X472856Y265856D02*
X466144D01*
Y259144D01*
X467691D01*
Y242000D01*
X467726Y241647D01*
X467829Y241308D01*
X467996Y240995D01*
X468221Y240721D01*
X468495Y240496D01*
X468808Y240329D01*
X469147Y240226D01*
X469367Y240204D01*
X469555Y239898D01*
X469872Y239527D01*
X470243Y239210D01*
X470659Y238955D01*
X471110Y238768D01*
X471584Y238654D01*
X472071Y238616D01*
X472557Y238654D01*
X473032Y238768D01*
X473482Y238955D01*
X473898Y239210D01*
X474269Y239527D01*
X474586Y239898D01*
X474841Y240314D01*
X475028Y240764D01*
X475142Y241239D01*
X475180Y241725D01*
X475142Y242212D01*
X475028Y242686D01*
X474841Y243137D01*
X474586Y243553D01*
X474269Y243924D01*
X473898Y244241D01*
X473482Y244496D01*
X473032Y244683D01*
X472557Y244797D01*
X472071Y244835D01*
X471809Y244814D01*
X471309Y245175D01*
Y259144D01*
X472856D01*
Y265856D01*
D02*
G37*
G36*
X488000Y238170D02*
X487824Y238128D01*
X487507Y237997D01*
X487214Y237817D01*
X486953Y237594D01*
X486730Y237333D01*
X486551Y237040D01*
X486521Y236968D01*
X485979D01*
X485949Y237040D01*
X485770Y237333D01*
X485547Y237594D01*
X485286Y237817D01*
X484993Y237997D01*
X484676Y238128D01*
X484500Y238170D01*
Y236047D01*
X483500D01*
Y238170D01*
X483324Y238128D01*
X483007Y237997D01*
X482714Y237817D01*
X482453Y237594D01*
X482230Y237333D01*
X482051Y237040D01*
X482021Y236968D01*
X481479D01*
X481449Y237040D01*
X481270Y237333D01*
X481047Y237594D01*
X480786Y237817D01*
X480493Y237997D01*
X480176Y238128D01*
X480000Y238170D01*
Y236047D01*
X479500D01*
Y235547D01*
X477377D01*
X477419Y235371D01*
X477551Y235054D01*
X477730Y234761D01*
X477953Y234500D01*
X478214Y234277D01*
X478507Y234098D01*
X478579Y234068D01*
Y233527D01*
X478507Y233497D01*
X478214Y233317D01*
X477953Y233094D01*
X477730Y232833D01*
X477551Y232540D01*
X477419Y232223D01*
X477377Y232047D01*
X479500D01*
Y231047D01*
X477377D01*
X477419Y230871D01*
X477551Y230554D01*
X477730Y230261D01*
X477953Y230000D01*
X478214Y229777D01*
X478507Y229598D01*
X478579Y229568D01*
Y229027D01*
X478507Y228997D01*
X478214Y228817D01*
X477953Y228594D01*
X477730Y228333D01*
X477551Y228041D01*
X477419Y227723D01*
X477377Y227547D01*
X479500D01*
Y227047D01*
X480000D01*
Y224924D01*
X480176Y224966D01*
X480493Y225098D01*
X480786Y225277D01*
X481047Y225500D01*
X481270Y225761D01*
X481449Y226054D01*
X481479Y226126D01*
X482021D01*
X482051Y226054D01*
X482230Y225761D01*
X482453Y225500D01*
X482714Y225277D01*
X483007Y225098D01*
X483324Y224966D01*
X483500Y224924D01*
Y227047D01*
X484500D01*
Y224924D01*
X484676Y224966D01*
X484993Y225098D01*
X485286Y225277D01*
X485547Y225500D01*
X485770Y225761D01*
X485949Y226054D01*
X485979Y226126D01*
X486521D01*
X486551Y226054D01*
X486730Y225761D01*
X486953Y225500D01*
X487214Y225277D01*
X487507Y225098D01*
X487824Y224966D01*
X488000Y224924D01*
Y227047D01*
X488500D01*
Y227547D01*
X490623D01*
X490581Y227723D01*
X490449Y228041D01*
X490270Y228333D01*
X490047Y228594D01*
X489786Y228817D01*
X489493Y228997D01*
X489421Y229027D01*
Y229568D01*
X489493Y229598D01*
X489786Y229777D01*
X490047Y230000D01*
X490270Y230261D01*
X490449Y230554D01*
X490581Y230871D01*
X490623Y231047D01*
X488500D01*
Y232047D01*
X490623D01*
X490581Y232223D01*
X490449Y232540D01*
X490270Y232833D01*
X490047Y233094D01*
X489786Y233317D01*
X489493Y233497D01*
X489421Y233527D01*
Y234068D01*
X489493Y234098D01*
X489786Y234277D01*
X490047Y234500D01*
X490270Y234761D01*
X490449Y235054D01*
X490581Y235371D01*
X490623Y235547D01*
X488500D01*
Y236047D01*
X488000D01*
Y238170D01*
D02*
G37*
G36*
X504989Y378620D02*
X453910D01*
X453623Y378582D01*
X453356Y378471D01*
X453126Y378295D01*
X451515Y376684D01*
X451339Y376455D01*
X451228Y376187D01*
X451191Y375900D01*
Y349960D01*
X416080Y314849D01*
X415629Y314662D01*
X415213Y314407D01*
X414842Y314090D01*
X414526Y313719D01*
X414270Y313303D01*
X414084Y312853D01*
X413970Y312378D01*
X413932Y311892D01*
X413970Y311405D01*
X414084Y310931D01*
X414270Y310480D01*
X414526Y310064D01*
X414842Y309693D01*
X415213Y309376D01*
X415629Y309121D01*
X416080Y308934D01*
X416555Y308820D01*
X417010Y308785D01*
X417069Y308709D01*
X417228Y308295D01*
X416606Y307673D01*
X410996D01*
X410871Y307975D01*
X410616Y308391D01*
X410299Y308762D01*
X410139Y308899D01*
X410126Y309068D01*
X410242Y309462D01*
X410551Y309590D01*
X410967Y309845D01*
X411338Y310162D01*
X411655Y310533D01*
X411910Y310949D01*
X412097Y311400D01*
X412210Y311875D01*
X412249Y312361D01*
X412210Y312847D01*
X412205Y312869D01*
X430279Y330943D01*
X430504Y331217D01*
X430559Y331319D01*
X430828Y331484D01*
X431199Y331801D01*
X431516Y332172D01*
X431771Y332588D01*
X431957Y333039D01*
X432071Y333513D01*
X432110Y334000D01*
X432071Y334487D01*
X431957Y334961D01*
X431771Y335412D01*
X431516Y335828D01*
X431199Y336199D01*
X430828Y336516D01*
X430412Y336771D01*
X429961Y336957D01*
X429486Y337071D01*
X429000Y337110D01*
X428514Y337071D01*
X428039Y336957D01*
X427588Y336771D01*
X427172Y336516D01*
X426801Y336199D01*
X426484Y335828D01*
X426229Y335412D01*
X426043Y334961D01*
X425929Y334487D01*
X425890Y334000D01*
X425929Y333513D01*
X426043Y333039D01*
X426229Y332588D01*
X426449Y332229D01*
X409903Y315683D01*
X409634Y315725D01*
X409531Y315828D01*
X409344Y316266D01*
X409457Y316539D01*
X409571Y317014D01*
X409610Y317500D01*
X409571Y317986D01*
X409457Y318461D01*
X409309Y318820D01*
Y335672D01*
X409547Y335832D01*
X409878Y336122D01*
X410168Y336453D01*
X410413Y336818D01*
X410607Y337213D01*
X410748Y337630D01*
X410834Y338061D01*
X410863Y338500D01*
X410834Y338939D01*
X410748Y339370D01*
X410607Y339787D01*
X410413Y340182D01*
X410168Y340547D01*
X409878Y340878D01*
X409547Y341168D01*
X409182Y341412D01*
X408787Y341607D01*
X408370Y341748D01*
X407939Y341834D01*
X407500Y341863D01*
X407061Y341834D01*
X406630Y341748D01*
X406213Y341607D01*
X405818Y341412D01*
X405453Y341168D01*
X405122Y340878D01*
X404832Y340547D01*
X404588Y340182D01*
X404393Y339787D01*
X404251Y339370D01*
X404166Y338939D01*
X404137Y338500D01*
X404166Y338061D01*
X404251Y337630D01*
X404393Y337213D01*
X404588Y336818D01*
X404832Y336453D01*
X405122Y336122D01*
X405453Y335832D01*
X405691Y335672D01*
Y320494D01*
X405539Y320457D01*
X405088Y320271D01*
X404672Y320016D01*
X404301Y319699D01*
X403984Y319328D01*
X403729Y318912D01*
X403543Y318461D01*
X403429Y317986D01*
X403390Y317500D01*
X403429Y317014D01*
X403543Y316539D01*
X403729Y316088D01*
X403984Y315672D01*
X404301Y315301D01*
X404672Y314984D01*
X405088Y314729D01*
X405539Y314543D01*
X406013Y314429D01*
X406176Y314416D01*
X406442Y313893D01*
X406368Y313773D01*
X406182Y313322D01*
X406068Y312847D01*
X406030Y312361D01*
X406068Y311875D01*
X406182Y311400D01*
X406368Y310949D01*
X406623Y310533D01*
X406940Y310162D01*
X407100Y310025D01*
X407113Y309856D01*
X406997Y309462D01*
X406688Y309334D01*
X406272Y309079D01*
X405901Y308762D01*
X405584Y308391D01*
X405329Y307975D01*
X405143Y307524D01*
X405029Y307049D01*
X404990Y306563D01*
X405029Y306077D01*
X405143Y305602D01*
X405329Y305151D01*
X405584Y304735D01*
X405901Y304364D01*
X406272Y304047D01*
X406688Y303792D01*
X407139Y303606D01*
X407614Y303492D01*
X408100Y303453D01*
X408587Y303492D01*
X409061Y303606D01*
X409512Y303792D01*
X409928Y304047D01*
X410299Y304364D01*
X410616Y304735D01*
X410871Y305151D01*
X410996Y305453D01*
X417065D01*
X417352Y305491D01*
X417620Y305602D01*
X417850Y305779D01*
X467123Y355052D01*
X467299Y355281D01*
X467410Y355549D01*
X467448Y355836D01*
X467448Y355836D01*
Y360857D01*
X467948Y360873D01*
X467970Y360535D01*
X468061Y360079D01*
X468211Y359637D01*
X468417Y359220D01*
X468675Y358833D01*
X468982Y358482D01*
X469333Y358175D01*
X469720Y357917D01*
X470138Y357711D01*
X470578Y357561D01*
X471035Y357470D01*
X471500Y357440D01*
X471965Y357470D01*
X472422Y357561D01*
X472862Y357711D01*
X473280Y357917D01*
X473667Y358175D01*
X474018Y358482D01*
X474325Y358833D01*
X474583Y359220D01*
X474789Y359637D01*
X474939Y360079D01*
X475030Y360535D01*
X475060Y361000D01*
X475030Y361465D01*
X474939Y361922D01*
X474789Y362363D01*
X474583Y362780D01*
X474325Y363167D01*
X474018Y363518D01*
X473667Y363825D01*
X473280Y364083D01*
X472862Y364289D01*
X472422Y364439D01*
X471965Y364530D01*
X471500Y364560D01*
X471035Y364530D01*
X470578Y364439D01*
X470138Y364289D01*
X469720Y364083D01*
X469333Y363825D01*
X468982Y363518D01*
X468675Y363167D01*
X468417Y362780D01*
X468211Y362363D01*
X468061Y361922D01*
X467970Y361465D01*
X467948Y361127D01*
X467448Y361143D01*
Y365379D01*
X469898Y367829D01*
X470138Y367711D01*
X470578Y367561D01*
X471035Y367470D01*
X471500Y367440D01*
X471965Y367470D01*
X472422Y367561D01*
X472862Y367711D01*
X473280Y367917D01*
X473667Y368175D01*
X474018Y368482D01*
X474325Y368833D01*
X474583Y369220D01*
X474789Y369637D01*
X474939Y370078D01*
X475030Y370535D01*
X475060Y371000D01*
X475030Y371465D01*
X474939Y371921D01*
X474789Y372362D01*
X474583Y372780D01*
X474325Y373167D01*
X474018Y373518D01*
X473667Y373825D01*
X473280Y374083D01*
X472862Y374289D01*
X472422Y374439D01*
X471965Y374530D01*
X471500Y374560D01*
X471035Y374530D01*
X470578Y374439D01*
X470138Y374289D01*
X469720Y374083D01*
X469333Y373825D01*
X468982Y373518D01*
X468675Y373167D01*
X468417Y372780D01*
X468211Y372362D01*
X468061Y371921D01*
X467970Y371465D01*
X467940Y371000D01*
X467970Y370535D01*
X468061Y370078D01*
X468211Y369637D01*
X468329Y369398D01*
X465554Y366623D01*
X465378Y366393D01*
X465267Y366126D01*
X465229Y365839D01*
Y362601D01*
X464729Y362485D01*
X464583Y362780D01*
X464325Y363167D01*
X464018Y363518D01*
X463667Y363825D01*
X463280Y364083D01*
X462862Y364289D01*
X462422Y364439D01*
X461965Y364530D01*
X461500Y364560D01*
X461035Y364530D01*
X460578Y364439D01*
X460138Y364289D01*
X459720Y364083D01*
X459333Y363825D01*
X458982Y363518D01*
X458675Y363167D01*
X458417Y362780D01*
X458211Y362363D01*
X458061Y361922D01*
X457970Y361465D01*
X457940Y361000D01*
X457970Y360535D01*
X458061Y360079D01*
X458211Y359637D01*
X458417Y359220D01*
X458675Y358833D01*
X458982Y358482D01*
X459333Y358175D01*
X459720Y357917D01*
X460138Y357711D01*
X460578Y357561D01*
X461035Y357470D01*
X461500Y357440D01*
X461965Y357470D01*
X462422Y357561D01*
X462862Y357711D01*
X463280Y357917D01*
X463667Y358175D01*
X464018Y358482D01*
X464325Y358833D01*
X464583Y359220D01*
X464729Y359515D01*
X465229Y359399D01*
Y356296D01*
X420638Y311704D01*
X420224Y311864D01*
X420148Y311922D01*
X420113Y312378D01*
X419999Y312853D01*
X419812Y313303D01*
X419557Y313719D01*
X419240Y314090D01*
X419200Y314124D01*
X419166Y314797D01*
X453085Y348715D01*
X453261Y348945D01*
X453372Y349213D01*
X453409Y349500D01*
Y375440D01*
X454370Y376401D01*
X477152D01*
X477344Y375939D01*
X476033Y374628D01*
X475856Y374398D01*
X475745Y374131D01*
X475708Y373844D01*
Y357877D01*
X419416Y301585D01*
X419239Y301355D01*
X419128Y301087D01*
X419091Y300800D01*
Y246296D01*
X418788Y246171D01*
X418372Y245916D01*
X418001Y245599D01*
X417684Y245228D01*
X417429Y244812D01*
X417243Y244361D01*
X417129Y243886D01*
X417090Y243400D01*
X417129Y242914D01*
X417243Y242439D01*
X417429Y241988D01*
X417684Y241572D01*
X418001Y241201D01*
X418372Y240884D01*
X418788Y240629D01*
X419239Y240443D01*
X419714Y240329D01*
X420200Y240290D01*
X420686Y240329D01*
X421161Y240443D01*
X421612Y240629D01*
X422028Y240884D01*
X422399Y241201D01*
X422716Y241572D01*
X422971Y241988D01*
X423157Y242439D01*
X423271Y242914D01*
X423310Y243400D01*
X423271Y243886D01*
X423157Y244361D01*
X422971Y244812D01*
X422716Y245228D01*
X422399Y245599D01*
X422028Y245916D01*
X421612Y246171D01*
X421310Y246296D01*
Y263107D01*
X421775Y263291D01*
X421809Y263294D01*
X422172Y262984D01*
X422588Y262729D01*
X423039Y262543D01*
X423514Y262429D01*
X424000Y262390D01*
X424486Y262429D01*
X424961Y262543D01*
X425412Y262729D01*
X425828Y262984D01*
X426199Y263301D01*
X426516Y263672D01*
X426771Y264088D01*
X426957Y264539D01*
X427071Y265014D01*
X427110Y265500D01*
X427071Y265986D01*
X426957Y266461D01*
X426771Y266912D01*
X426516Y267328D01*
X426199Y267699D01*
X425828Y268016D01*
X425412Y268271D01*
X425109Y268396D01*
Y280240D01*
X451260Y306391D01*
X453891D01*
Y292500D01*
X453928Y292213D01*
X454039Y291945D01*
X454215Y291716D01*
X454668Y291263D01*
X454543Y290961D01*
X454429Y290487D01*
X454390Y290000D01*
X454429Y289513D01*
X454543Y289039D01*
X454729Y288588D01*
X454984Y288172D01*
X455301Y287801D01*
X455672Y287484D01*
X456088Y287229D01*
X456539Y287043D01*
X457014Y286929D01*
X457500Y286890D01*
X457986Y286929D01*
X458461Y287043D01*
X458912Y287229D01*
X459328Y287484D01*
X459699Y287801D01*
X460016Y288172D01*
X460271Y288588D01*
X460457Y289039D01*
X460571Y289513D01*
X460610Y290000D01*
X460571Y290487D01*
X460457Y290961D01*
X460271Y291412D01*
X460016Y291828D01*
X459699Y292199D01*
X459328Y292516D01*
X458912Y292771D01*
X458461Y292957D01*
X457986Y293071D01*
X457500Y293110D01*
X457014Y293071D01*
X456609Y292974D01*
X456418Y293060D01*
X456110Y293321D01*
Y307500D01*
Y321104D01*
X456412Y321229D01*
X456828Y321484D01*
X457199Y321801D01*
X457516Y322172D01*
X457771Y322588D01*
X457957Y323039D01*
X458071Y323514D01*
X458110Y324000D01*
X458071Y324486D01*
X457957Y324961D01*
X457771Y325412D01*
X457516Y325828D01*
X457199Y326199D01*
X456828Y326516D01*
X456412Y326771D01*
X455961Y326957D01*
X455486Y327071D01*
X455000Y327110D01*
X454514Y327071D01*
X454039Y326957D01*
X453588Y326771D01*
X453172Y326516D01*
X452801Y326199D01*
X452484Y325828D01*
X452229Y325412D01*
X452043Y324961D01*
X451929Y324486D01*
X451890Y324000D01*
X451929Y323514D01*
X452043Y323039D01*
X452229Y322588D01*
X452484Y322172D01*
X452801Y321801D01*
X453172Y321484D01*
X453588Y321229D01*
X453891Y321104D01*
Y308610D01*
X450800D01*
X450513Y308572D01*
X450245Y308461D01*
X450015Y308284D01*
X423215Y281485D01*
X423039Y281255D01*
X422928Y280987D01*
X422891Y280700D01*
Y268396D01*
X422588Y268271D01*
X422172Y268016D01*
X421809Y267706D01*
X421775Y267709D01*
X421310Y267893D01*
Y300340D01*
X477602Y356633D01*
X477778Y356862D01*
X477889Y357130D01*
X477927Y357417D01*
Y359083D01*
X478391Y359213D01*
X478427Y359205D01*
X478675Y358833D01*
X478982Y358482D01*
X479333Y358175D01*
X479720Y357917D01*
X480137Y357711D01*
X480579Y357561D01*
X481035Y357470D01*
X481500Y357440D01*
X481965Y357470D01*
X482421Y357561D01*
X482863Y357711D01*
X483280Y357917D01*
X483667Y358175D01*
X484018Y358482D01*
X484325Y358833D01*
X484583Y359220D01*
X484789Y359637D01*
X484939Y360079D01*
X485030Y360535D01*
X485060Y361000D01*
X485030Y361465D01*
X484939Y361922D01*
X484789Y362363D01*
X484583Y362780D01*
X484325Y363167D01*
X484018Y363518D01*
X483667Y363825D01*
X483280Y364083D01*
X482863Y364289D01*
X482421Y364439D01*
X481965Y364530D01*
X481500Y364560D01*
X481035Y364530D01*
X480579Y364439D01*
X480137Y364289D01*
X479720Y364083D01*
X479333Y363825D01*
X478982Y363518D01*
X478675Y363167D01*
X478427Y362795D01*
X478391Y362787D01*
X477927Y362917D01*
Y369083D01*
X478391Y369213D01*
X478427Y369205D01*
X478675Y368833D01*
X478982Y368482D01*
X479333Y368175D01*
X479720Y367917D01*
X480137Y367711D01*
X480579Y367561D01*
X481035Y367470D01*
X481500Y367440D01*
X481965Y367470D01*
X482421Y367561D01*
X482863Y367711D01*
X483102Y367829D01*
X486168Y364763D01*
X486398Y364586D01*
X486666Y364475D01*
X486953Y364438D01*
X489350D01*
X489502Y363938D01*
X489333Y363825D01*
X488982Y363518D01*
X488675Y363167D01*
X488417Y362780D01*
X488211Y362363D01*
X488061Y361922D01*
X487970Y361465D01*
X487940Y361000D01*
X487970Y360535D01*
X488061Y360079D01*
X488211Y359637D01*
X488417Y359220D01*
X488675Y358833D01*
X488982Y358482D01*
X489333Y358175D01*
X489720Y357917D01*
X490137Y357711D01*
X490579Y357561D01*
X491035Y357470D01*
X491500Y357440D01*
X491965Y357470D01*
X492421Y357561D01*
X492863Y357711D01*
X493280Y357917D01*
X493667Y358175D01*
X494018Y358482D01*
X494325Y358833D01*
X494583Y359220D01*
X494789Y359637D01*
X494939Y360079D01*
X495030Y360535D01*
X495060Y361000D01*
X495030Y361465D01*
X494939Y361922D01*
X494789Y362363D01*
X494583Y362780D01*
X494325Y363167D01*
X494018Y363518D01*
X493667Y363825D01*
X493498Y363938D01*
X493650Y364438D01*
X499350D01*
X499502Y363938D01*
X499333Y363825D01*
X498982Y363518D01*
X498675Y363167D01*
X498417Y362780D01*
X498211Y362363D01*
X498061Y361922D01*
X497970Y361465D01*
X497940Y361000D01*
X497970Y360535D01*
X498061Y360079D01*
X498211Y359637D01*
X498417Y359220D01*
X498675Y358833D01*
X498982Y358482D01*
X499333Y358175D01*
X499720Y357917D01*
X500138Y357711D01*
X500578Y357561D01*
X501035Y357470D01*
X501500Y357440D01*
X501965Y357470D01*
X502422Y357561D01*
X502863Y357711D01*
X503280Y357917D01*
X503667Y358175D01*
X504018Y358482D01*
X504325Y358833D01*
X504583Y359220D01*
X504789Y359637D01*
X504939Y360079D01*
X505030Y360535D01*
X505060Y361000D01*
X505030Y361465D01*
X504939Y361922D01*
X504789Y362363D01*
X504583Y362780D01*
X504325Y363167D01*
X504018Y363518D01*
X503667Y363825D01*
X503498Y363938D01*
X503650Y364438D01*
X509350D01*
X509502Y363938D01*
X509333Y363825D01*
X508982Y363518D01*
X508675Y363167D01*
X508417Y362780D01*
X508211Y362363D01*
X508061Y361922D01*
X507970Y361465D01*
X507940Y361000D01*
X507970Y360535D01*
X508061Y360079D01*
X508211Y359637D01*
X508417Y359220D01*
X508675Y358833D01*
X508982Y358482D01*
X509333Y358175D01*
X509720Y357917D01*
X510138Y357711D01*
X510578Y357561D01*
X511035Y357470D01*
X511500Y357440D01*
X511965Y357470D01*
X512422Y357561D01*
X512862Y357711D01*
X513280Y357917D01*
X513667Y358175D01*
X514018Y358482D01*
X514325Y358833D01*
X514583Y359220D01*
X514789Y359637D01*
X514939Y360079D01*
X515030Y360535D01*
X515060Y361000D01*
X515030Y361465D01*
X514939Y361922D01*
X514789Y362363D01*
X514583Y362780D01*
X514325Y363167D01*
X514018Y363518D01*
X513667Y363825D01*
X513498Y363938D01*
X513650Y364438D01*
X516000D01*
X516287Y364475D01*
X516555Y364586D01*
X516784Y364763D01*
X517284Y365263D01*
X517461Y365493D01*
X517572Y365760D01*
X517610Y366047D01*
X517610Y366047D01*
Y369853D01*
X518110Y369935D01*
X518211Y369637D01*
X518417Y369220D01*
X518675Y368833D01*
X518982Y368482D01*
X519333Y368175D01*
X519720Y367917D01*
X520138Y367711D01*
X520578Y367561D01*
X521035Y367470D01*
X521500Y367440D01*
X521965Y367470D01*
X522422Y367561D01*
X522862Y367711D01*
X523280Y367917D01*
X523667Y368175D01*
X524018Y368482D01*
X524325Y368833D01*
X524583Y369220D01*
X524789Y369637D01*
X524939Y370078D01*
X525030Y370535D01*
X525060Y371000D01*
X525030Y371465D01*
X524939Y371921D01*
X524789Y372362D01*
X524583Y372780D01*
X524325Y373167D01*
X524018Y373518D01*
X523667Y373825D01*
X523280Y374083D01*
X522862Y374289D01*
X522422Y374439D01*
X521965Y374530D01*
X521500Y374560D01*
X521035Y374530D01*
X520578Y374439D01*
X520138Y374289D01*
X519720Y374083D01*
X519333Y373825D01*
X518982Y373518D01*
X518675Y373167D01*
X518417Y372780D01*
X518211Y372362D01*
X518110Y372064D01*
X517610Y372147D01*
Y375540D01*
X517760Y375691D01*
X534059D01*
X534696Y375053D01*
X534489Y374553D01*
X527947D01*
Y369016D01*
X525715Y366785D01*
X525539Y366555D01*
X525428Y366287D01*
X525390Y366000D01*
Y362147D01*
X524891Y362065D01*
X524789Y362363D01*
X524583Y362780D01*
X524325Y363167D01*
X524018Y363518D01*
X523667Y363825D01*
X523280Y364083D01*
X522862Y364289D01*
X522422Y364439D01*
X521965Y364530D01*
X521500Y364560D01*
X521035Y364530D01*
X520578Y364439D01*
X520138Y364289D01*
X519720Y364083D01*
X519333Y363825D01*
X518982Y363518D01*
X518675Y363167D01*
X518417Y362780D01*
X518211Y362363D01*
X518061Y361922D01*
X517970Y361465D01*
X517940Y361000D01*
X517970Y360535D01*
X518061Y360079D01*
X518211Y359637D01*
X518417Y359220D01*
X518675Y358833D01*
X518982Y358482D01*
X519333Y358175D01*
X519720Y357917D01*
X520138Y357711D01*
X520578Y357561D01*
X521035Y357470D01*
X521500Y357440D01*
X521965Y357470D01*
X522422Y357561D01*
X522862Y357711D01*
X523280Y357917D01*
X523667Y358175D01*
X524018Y358482D01*
X524325Y358833D01*
X524583Y359220D01*
X524789Y359637D01*
X524891Y359935D01*
X525390Y359853D01*
Y333860D01*
X501575Y310044D01*
X501091Y310267D01*
X501110Y310500D01*
X501071Y310986D01*
X500969Y311411D01*
X513779Y324221D01*
X514004Y324495D01*
X514171Y324808D01*
X514274Y325147D01*
X514309Y325500D01*
Y334473D01*
X514328Y334484D01*
X514699Y334801D01*
X515016Y335172D01*
X515271Y335588D01*
X515457Y336039D01*
X515571Y336513D01*
X515610Y337000D01*
X515571Y337487D01*
X515457Y337961D01*
X515271Y338412D01*
X515016Y338828D01*
X514699Y339199D01*
X514328Y339516D01*
X513912Y339771D01*
X513461Y339957D01*
X512986Y340071D01*
X512500Y340110D01*
X512014Y340071D01*
X511539Y339957D01*
X511088Y339771D01*
X510672Y339516D01*
X510301Y339199D01*
X509984Y338828D01*
X509729Y338412D01*
X509543Y337961D01*
X509429Y337487D01*
X509390Y337000D01*
X509429Y336513D01*
X509543Y336039D01*
X509729Y335588D01*
X509984Y335172D01*
X510301Y334801D01*
X510672Y334484D01*
X510691Y334473D01*
Y326249D01*
X500813Y316371D01*
X500329Y316595D01*
X500337Y316688D01*
X500299Y317175D01*
X500185Y317649D01*
X499998Y318100D01*
X499801Y318421D01*
X499809Y318500D01*
Y335672D01*
X500047Y335832D01*
X500378Y336122D01*
X500668Y336453D01*
X500913Y336818D01*
X501107Y337213D01*
X501249Y337630D01*
X501334Y338061D01*
X501363Y338500D01*
X501334Y338939D01*
X501249Y339370D01*
X501107Y339787D01*
X500913Y340182D01*
X500668Y340547D01*
X500378Y340878D01*
X500047Y341168D01*
X499682Y341412D01*
X499287Y341607D01*
X498870Y341748D01*
X498439Y341834D01*
X498000Y341863D01*
X497561Y341834D01*
X497130Y341748D01*
X496713Y341607D01*
X496318Y341412D01*
X495953Y341168D01*
X495622Y340878D01*
X495332Y340547D01*
X495087Y340182D01*
X494893Y339787D01*
X494752Y339370D01*
X494666Y338939D01*
X494637Y338500D01*
X494666Y338061D01*
X494752Y337630D01*
X494893Y337213D01*
X495087Y336818D01*
X495332Y336453D01*
X495622Y336122D01*
X495953Y335832D01*
X496191Y335672D01*
Y319615D01*
X495816Y319459D01*
X495400Y319204D01*
X495028Y318887D01*
X494712Y318516D01*
X494457Y318100D01*
X494270Y317649D01*
X494156Y317175D01*
X494151Y317114D01*
X493635Y316923D01*
X492279Y318279D01*
X492005Y318504D01*
X491692Y318671D01*
X491353Y318774D01*
X491000Y318809D01*
X476500D01*
X476147Y318774D01*
X475808Y318671D01*
X475495Y318504D01*
X475221Y318279D01*
X474083Y317141D01*
X473599Y317364D01*
X473610Y317500D01*
X473571Y317986D01*
X473457Y318461D01*
X473271Y318912D01*
X473016Y319328D01*
X472699Y319699D01*
X472328Y320016D01*
X471912Y320271D01*
X471461Y320457D01*
X470986Y320571D01*
X470500Y320610D01*
X470309Y320786D01*
Y335144D01*
X471856D01*
Y341856D01*
X465144D01*
Y335144D01*
X466691D01*
Y318000D01*
X466726Y317647D01*
X466829Y317308D01*
X466996Y316995D01*
X467221Y316721D01*
X467206Y316630D01*
X466692Y316239D01*
X466205Y316277D01*
X465719Y316239D01*
X465244Y316125D01*
X464794Y315938D01*
X464377Y315683D01*
X464007Y315366D01*
X463690Y314995D01*
X463435Y314579D01*
X463248Y314128D01*
X463134Y313654D01*
X463096Y313167D01*
X463134Y312681D01*
X463248Y312207D01*
X463435Y311756D01*
X463690Y311340D01*
X464007Y310969D01*
X464377Y310652D01*
X464794Y310397D01*
X465244Y310210D01*
X465719Y310096D01*
X466205Y310058D01*
X466692Y310096D01*
X467166Y310210D01*
X467617Y310397D01*
X468033Y310652D01*
X468404Y310969D01*
X468721Y311340D01*
X468733Y311359D01*
X472771D01*
X472918Y311373D01*
X473124Y311393D01*
X473124Y311393D01*
X473124Y311393D01*
X473232Y311426D01*
X473463Y311496D01*
X473463Y311496D01*
X473463Y311496D01*
X473553Y311544D01*
X473776Y311663D01*
X473776Y311664D01*
X473776Y311664D01*
X473864Y311736D01*
X474050Y311888D01*
X474050Y311888D01*
X474050Y311889D01*
X474132Y311988D01*
X474275Y312162D01*
X474275Y312162D01*
X474275Y312163D01*
X474337Y312279D01*
X477249Y315191D01*
X490251D01*
X491290Y314153D01*
X491423Y313902D01*
X491648Y313628D01*
X494167Y311109D01*
X494441Y310884D01*
X494692Y310751D01*
X494894Y310548D01*
X494890Y310500D01*
X494929Y310014D01*
X495043Y309539D01*
X495229Y309088D01*
X495484Y308672D01*
X495801Y308301D01*
X496172Y307984D01*
X496588Y307729D01*
X497039Y307543D01*
X497514Y307429D01*
X498000Y307390D01*
X498233Y307409D01*
X498456Y306925D01*
X425663Y234132D01*
X425361Y234257D01*
X424886Y234371D01*
X424400Y234410D01*
X423914Y234371D01*
X423439Y234257D01*
X422988Y234071D01*
X422572Y233816D01*
X422201Y233499D01*
X421884Y233128D01*
X421629Y232712D01*
X421443Y232261D01*
X421329Y231786D01*
X421290Y231300D01*
X421329Y230814D01*
X421443Y230339D01*
X421629Y229888D01*
X421884Y229472D01*
X422201Y229101D01*
X422572Y228784D01*
X422988Y228529D01*
X423439Y228343D01*
X423914Y228229D01*
X424400Y228190D01*
X424886Y228229D01*
X425361Y228343D01*
X425812Y228529D01*
X426228Y228784D01*
X426599Y229101D01*
X426916Y229472D01*
X427171Y229888D01*
X427357Y230339D01*
X427471Y230814D01*
X427510Y231300D01*
X427471Y231786D01*
X427357Y232261D01*
X427232Y232563D01*
X527284Y332615D01*
X527284Y332615D01*
X527461Y332845D01*
X527572Y333113D01*
X527609Y333400D01*
Y357087D01*
X527947Y357447D01*
X528110Y357447D01*
X535053D01*
Y364553D01*
X528110D01*
X527947Y364553D01*
X527609Y364913D01*
Y365540D01*
X529516Y367447D01*
X535053D01*
Y373512D01*
X535553Y373780D01*
X535668Y373703D01*
Y332837D01*
X492915Y290085D01*
X492739Y289855D01*
X492628Y289587D01*
X492591Y289300D01*
Y264815D01*
X492414Y264703D01*
X492091Y264636D01*
X491878Y264878D01*
X491547Y265168D01*
X491182Y265412D01*
X490787Y265607D01*
X490370Y265749D01*
X489939Y265834D01*
X489500Y265863D01*
X489061Y265834D01*
X488630Y265749D01*
X488213Y265607D01*
X487818Y265412D01*
X487453Y265168D01*
X487122Y264878D01*
X486832Y264547D01*
X486587Y264182D01*
X486393Y263787D01*
X486251Y263370D01*
X486166Y262939D01*
X486137Y262500D01*
X486166Y262061D01*
X486225Y261763D01*
X486093Y261601D01*
X485925Y261289D01*
X485822Y260949D01*
X485788Y260596D01*
Y250353D01*
X485588Y250271D01*
X485172Y250016D01*
X484801Y249699D01*
X484484Y249328D01*
X484229Y248912D01*
X484043Y248461D01*
X484035Y248428D01*
X483642Y248221D01*
X483296Y248351D01*
X483271Y248412D01*
X483016Y248828D01*
X482699Y249199D01*
X482328Y249516D01*
X481912Y249771D01*
X481461Y249957D01*
X481309Y249994D01*
Y259672D01*
X481547Y259832D01*
X481878Y260122D01*
X482168Y260453D01*
X482412Y260818D01*
X482607Y261213D01*
X482749Y261630D01*
X482834Y262061D01*
X482863Y262500D01*
X482834Y262939D01*
X482749Y263370D01*
X482607Y263787D01*
X482412Y264182D01*
X482168Y264547D01*
X481878Y264878D01*
X481547Y265168D01*
X481181Y265412D01*
X480787Y265607D01*
X480370Y265749D01*
X479939Y265834D01*
X479500Y265863D01*
X479061Y265834D01*
X478630Y265749D01*
X478213Y265607D01*
X477818Y265412D01*
X477453Y265168D01*
X477122Y264878D01*
X476832Y264547D01*
X476587Y264182D01*
X476393Y263787D01*
X476252Y263370D01*
X476166Y262939D01*
X476137Y262500D01*
X476166Y262061D01*
X476252Y261630D01*
X476393Y261213D01*
X476587Y260818D01*
X476832Y260453D01*
X477122Y260122D01*
X477453Y259832D01*
X477691Y259672D01*
Y248320D01*
X477543Y247961D01*
X477429Y247486D01*
X477390Y247000D01*
X477429Y246514D01*
X477543Y246039D01*
X477729Y245588D01*
X477984Y245172D01*
X478301Y244801D01*
X478672Y244484D01*
X479088Y244229D01*
X479539Y244043D01*
X480014Y243929D01*
X480500Y243890D01*
X480986Y243929D01*
X481461Y244043D01*
X481912Y244229D01*
X482328Y244484D01*
X482699Y244801D01*
X483016Y245172D01*
X483271Y245588D01*
X483457Y246039D01*
X483465Y246072D01*
X483858Y246279D01*
X484204Y246149D01*
X484229Y246088D01*
X484484Y245672D01*
X484801Y245301D01*
X485172Y244984D01*
X485588Y244729D01*
X486039Y244543D01*
X486514Y244429D01*
X487000Y244390D01*
X487486Y244429D01*
X487961Y244543D01*
X488412Y244729D01*
X488828Y244984D01*
X489199Y245301D01*
X489516Y245672D01*
X489771Y246088D01*
X489957Y246539D01*
X490071Y247013D01*
X490110Y247500D01*
X490071Y247987D01*
X489957Y248461D01*
X489771Y248912D01*
X489516Y249328D01*
X489405Y249457D01*
Y259048D01*
X489500Y259137D01*
X489939Y259166D01*
X490370Y259251D01*
X490787Y259393D01*
X491182Y259588D01*
X491547Y259832D01*
X491878Y260122D01*
X492091Y260364D01*
X492414Y260297D01*
X492591Y260185D01*
Y255096D01*
X492288Y254971D01*
X491872Y254716D01*
X491501Y254399D01*
X491184Y254028D01*
X490929Y253612D01*
X490743Y253161D01*
X490629Y252687D01*
X490590Y252200D01*
X490629Y251713D01*
X490743Y251239D01*
X490929Y250788D01*
X491184Y250372D01*
X491501Y250001D01*
X491872Y249684D01*
X492288Y249429D01*
X492739Y249243D01*
X493214Y249129D01*
X493700Y249090D01*
X494186Y249129D01*
X494661Y249243D01*
X495112Y249429D01*
X495528Y249684D01*
X495725Y249853D01*
X496226Y249625D01*
Y244719D01*
X496260Y244366D01*
X496336Y244116D01*
X496172Y244016D01*
X495801Y243699D01*
X495484Y243328D01*
X495229Y242912D01*
X495043Y242461D01*
X494929Y241986D01*
X494890Y241500D01*
X494929Y241014D01*
X495043Y240539D01*
X495229Y240088D01*
X495484Y239672D01*
X495801Y239301D01*
X496172Y238984D01*
X496588Y238729D01*
X497039Y238543D01*
X497065Y238536D01*
X497160Y238076D01*
X497155Y238001D01*
X496801Y237699D01*
X496484Y237328D01*
X496229Y236912D01*
X496043Y236461D01*
X495929Y235986D01*
X495890Y235500D01*
X495929Y235014D01*
X496043Y234539D01*
X496229Y234088D01*
X496484Y233672D01*
X496801Y233301D01*
X497172Y232984D01*
X497588Y232729D01*
X498039Y232543D01*
X498514Y232429D01*
X499000Y232390D01*
X499486Y232429D01*
X499961Y232543D01*
X500412Y232729D01*
X500828Y232984D01*
X501199Y233301D01*
X501516Y233672D01*
X501527Y233691D01*
X502983D01*
X503336Y233726D01*
X503676Y233829D01*
X503988Y233996D01*
X504262Y234221D01*
X511279Y241238D01*
X511504Y241512D01*
X511671Y241824D01*
X511774Y242164D01*
X511809Y242517D01*
Y257930D01*
X512016Y258172D01*
X512271Y258588D01*
X512457Y259039D01*
X512571Y259513D01*
X512610Y260000D01*
X512571Y260487D01*
X512457Y260961D01*
X512271Y261412D01*
X512016Y261828D01*
X511699Y262199D01*
X511328Y262516D01*
X510912Y262771D01*
X510461Y262957D01*
X509986Y263071D01*
X509500Y263110D01*
X509014Y263071D01*
X508539Y262957D01*
X508088Y262771D01*
X507672Y262516D01*
X507301Y262199D01*
X506984Y261828D01*
X506729Y261412D01*
X506543Y260961D01*
X506429Y260487D01*
X506390Y260000D01*
X506429Y259513D01*
X506543Y259039D01*
X506729Y258588D01*
X506984Y258172D01*
X507301Y257801D01*
X507672Y257484D01*
X508088Y257229D01*
X508191Y257187D01*
Y243266D01*
X502234Y237309D01*
X501527D01*
X501516Y237328D01*
X501199Y237699D01*
X500828Y238016D01*
X500412Y238271D01*
X499961Y238457D01*
X499935Y238464D01*
X499840Y238924D01*
X499845Y238999D01*
X500199Y239301D01*
X500516Y239672D01*
X500771Y240088D01*
X500957Y240539D01*
X501071Y241014D01*
X501110Y241500D01*
X501071Y241986D01*
X500957Y242461D01*
X500818Y242798D01*
X501026Y243086D01*
X501184Y243194D01*
X501426Y243112D01*
X501834Y243031D01*
Y246500D01*
Y249969D01*
X501426Y249888D01*
X500992Y249741D01*
X500581Y249538D01*
X500343Y249379D01*
X499935Y249544D01*
X499843Y249636D01*
Y259246D01*
X499870Y259251D01*
X500287Y259393D01*
X500681Y259588D01*
X501047Y259832D01*
X501378Y260122D01*
X501668Y260453D01*
X501912Y260818D01*
X502107Y261213D01*
X502248Y261630D01*
X502334Y262061D01*
X502363Y262500D01*
X502334Y262939D01*
X502248Y263370D01*
X502107Y263787D01*
X501912Y264182D01*
X501668Y264547D01*
X501378Y264878D01*
X501047Y265168D01*
X500681Y265412D01*
X500287Y265607D01*
X499870Y265749D01*
X499439Y265834D01*
X499000Y265863D01*
X498561Y265834D01*
X498130Y265749D01*
X497713Y265607D01*
X497319Y265412D01*
X496953Y265168D01*
X496622Y264878D01*
X496332Y264547D01*
X496088Y264182D01*
X495893Y263787D01*
X495751Y263370D01*
X495666Y262939D01*
X495637Y262500D01*
X495666Y262061D01*
X495751Y261630D01*
X495893Y261213D01*
X496088Y260818D01*
X496226Y260612D01*
Y254775D01*
X495725Y254547D01*
X495528Y254716D01*
X495112Y254971D01*
X494809Y255096D01*
Y288840D01*
X537562Y331593D01*
X537562Y331593D01*
X537738Y331822D01*
X537849Y332090D01*
X537887Y332377D01*
X537887Y332377D01*
Y374541D01*
X537849Y374828D01*
X537738Y375096D01*
X537562Y375326D01*
X535303Y377585D01*
X535073Y377761D01*
X534805Y377872D01*
X534518Y377909D01*
X517300D01*
X517013Y377872D01*
X516745Y377761D01*
X516515Y377585D01*
X515716Y376784D01*
X515539Y376555D01*
X515428Y376287D01*
X515390Y376000D01*
Y372147D01*
X514890Y372064D01*
X514789Y372362D01*
X514583Y372780D01*
X514325Y373167D01*
X514018Y373518D01*
X513667Y373825D01*
X513280Y374083D01*
X512862Y374289D01*
X512422Y374439D01*
X511965Y374530D01*
X511500Y374560D01*
X511035Y374530D01*
X510578Y374439D01*
X510138Y374289D01*
X509898Y374171D01*
X505774Y378295D01*
X505544Y378471D01*
X505277Y378582D01*
X504989Y378620D01*
D02*
G37*
G36*
X410000Y292469D02*
X409592Y292388D01*
X409158Y292241D01*
X408746Y292038D01*
X408365Y291783D01*
X408020Y291480D01*
X407717Y291135D01*
X407462Y290754D01*
X407260Y290342D01*
X407112Y289908D01*
X407031Y289500D01*
X410000D01*
Y292469D01*
D02*
G37*
G36*
X500000Y289469D02*
Y286500D01*
X502969D01*
X502888Y286908D01*
X502740Y287342D01*
X502538Y287754D01*
X502283Y288135D01*
X501980Y288480D01*
X501635Y288783D01*
X501254Y289038D01*
X500842Y289241D01*
X500408Y289388D01*
X500000Y289469D01*
D02*
G37*
G36*
X499000D02*
X498592Y289388D01*
X498158Y289241D01*
X497746Y289038D01*
X497365Y288783D01*
X497020Y288480D01*
X496717Y288135D01*
X496462Y287754D01*
X496259Y287342D01*
X496112Y286908D01*
X496031Y286500D01*
X499000D01*
Y289469D01*
D02*
G37*
G36*
X334000Y298500D02*
X329980D01*
X329986Y298406D01*
X330102Y297822D01*
X330293Y297258D01*
X330557Y296724D01*
X330888Y296228D01*
X331280Y295780D01*
X331728Y295388D01*
X332224Y295057D01*
X332758Y294794D01*
X333322Y294602D01*
X333906Y294486D01*
X334000Y294480D01*
Y298500D01*
D02*
G37*
G36*
X306340Y299340D02*
X297660D01*
Y290660D01*
X306340D01*
Y299340D01*
D02*
G37*
G36*
X411000Y292469D02*
Y289500D01*
X413969D01*
X413888Y289908D01*
X413740Y290342D01*
X413538Y290754D01*
X413283Y291135D01*
X412980Y291480D01*
X412635Y291783D01*
X412254Y292038D01*
X411842Y292241D01*
X411408Y292388D01*
X411000Y292469D01*
D02*
G37*
G36*
X502969Y285500D02*
X500000D01*
Y282531D01*
X500408Y282612D01*
X500842Y282759D01*
X501254Y282962D01*
X501635Y283217D01*
X501980Y283520D01*
X502283Y283865D01*
X502538Y284246D01*
X502740Y284658D01*
X502888Y285092D01*
X502969Y285500D01*
D02*
G37*
G36*
X499000D02*
X496031D01*
X496112Y285092D01*
X496259Y284658D01*
X496462Y284246D01*
X496717Y283865D01*
X497020Y283520D01*
X497365Y283217D01*
X497746Y282962D01*
X498158Y282759D01*
X498592Y282612D01*
X499000Y282531D01*
Y285500D01*
D02*
G37*
G36*
X302000Y279349D02*
X301432Y279312D01*
X300874Y279201D01*
X300336Y279018D01*
X299825Y278767D01*
X299352Y278451D01*
X298924Y278076D01*
X298549Y277648D01*
X298233Y277175D01*
X297982Y276664D01*
X297799Y276126D01*
X297688Y275568D01*
X297651Y275000D01*
X297688Y274432D01*
X297799Y273874D01*
X297982Y273336D01*
X298233Y272825D01*
X298549Y272352D01*
X298924Y271924D01*
X299352Y271549D01*
X299825Y271233D01*
X300336Y270982D01*
X300874Y270799D01*
X301432Y270688D01*
X302000Y270651D01*
X302568Y270688D01*
X303126Y270799D01*
X303664Y270982D01*
X304175Y271233D01*
X304648Y271549D01*
X305076Y271924D01*
X305451Y272352D01*
X305767Y272825D01*
X306018Y273336D01*
X306201Y273874D01*
X306312Y274432D01*
X306349Y275000D01*
X306312Y275568D01*
X306201Y276126D01*
X306018Y276664D01*
X305767Y277175D01*
X305451Y277648D01*
X305076Y278076D01*
X304648Y278451D01*
X304175Y278767D01*
X303664Y279018D01*
X303126Y279201D01*
X302568Y279312D01*
X302000Y279349D01*
D02*
G37*
G36*
X413969Y288500D02*
X411000D01*
Y285531D01*
X411408Y285612D01*
X411842Y285759D01*
X412254Y285962D01*
X412635Y286217D01*
X412980Y286520D01*
X413283Y286865D01*
X413538Y287246D01*
X413740Y287658D01*
X413888Y288092D01*
X413969Y288500D01*
D02*
G37*
G36*
X410000D02*
X407031D01*
X407112Y288092D01*
X407260Y287658D01*
X407462Y287246D01*
X407717Y286865D01*
X408020Y286520D01*
X408365Y286217D01*
X408746Y285962D01*
X409158Y285759D01*
X409592Y285612D01*
X410000Y285531D01*
Y288500D01*
D02*
G37*
G36*
X338643Y293143D02*
X330357D01*
Y284857D01*
X338643D01*
Y293143D01*
D02*
G37*
G36*
X398500Y238170D02*
Y236547D01*
X400123D01*
X400081Y236723D01*
X399949Y237040D01*
X399770Y237333D01*
X399547Y237594D01*
X399286Y237817D01*
X398993Y237997D01*
X398676Y238128D01*
X398500Y238170D01*
D02*
G37*
G36*
X433969Y205000D02*
X431000D01*
Y202031D01*
X431408Y202112D01*
X431842Y202259D01*
X432254Y202462D01*
X432635Y202717D01*
X432980Y203020D01*
X433283Y203365D01*
X433538Y203746D01*
X433741Y204158D01*
X433888Y204592D01*
X433969Y205000D01*
D02*
G37*
G36*
X430000D02*
X427031D01*
X427112Y204592D01*
X427259Y204158D01*
X427462Y203746D01*
X427717Y203365D01*
X428020Y203020D01*
X428365Y202717D01*
X428746Y202462D01*
X429158Y202259D01*
X429592Y202112D01*
X430000Y202031D01*
Y205000D01*
D02*
G37*
G36*
X390000Y204469D02*
Y201500D01*
X392969D01*
X392888Y201908D01*
X392741Y202342D01*
X392538Y202754D01*
X392283Y203135D01*
X391980Y203480D01*
X391635Y203783D01*
X391254Y204038D01*
X390842Y204240D01*
X390408Y204388D01*
X390000Y204469D01*
D02*
G37*
G36*
X430000Y208969D02*
X429592Y208888D01*
X429158Y208740D01*
X428746Y208538D01*
X428365Y208283D01*
X428020Y207980D01*
X427717Y207635D01*
X427462Y207254D01*
X427259Y206842D01*
X427112Y206408D01*
X427031Y206000D01*
X430000D01*
Y208969D01*
D02*
G37*
G36*
X502969Y208500D02*
X500000D01*
Y205531D01*
X500408Y205612D01*
X500842Y205760D01*
X501254Y205962D01*
X501635Y206217D01*
X501980Y206520D01*
X502283Y206865D01*
X502538Y207246D01*
X502740Y207658D01*
X502888Y208092D01*
X502969Y208500D01*
D02*
G37*
G36*
X499000D02*
X496031D01*
X496112Y208092D01*
X496259Y207658D01*
X496462Y207246D01*
X496717Y206865D01*
X497020Y206520D01*
X497365Y206217D01*
X497746Y205962D01*
X498158Y205760D01*
X498592Y205612D01*
X499000Y205531D01*
Y208500D01*
D02*
G37*
G36*
X535053Y194553D02*
X527947D01*
Y187447D01*
X535053D01*
Y194553D01*
D02*
G37*
G36*
X401500Y184560D02*
X401035Y184530D01*
X400578Y184439D01*
X400138Y184289D01*
X399720Y184083D01*
X399333Y183825D01*
X398982Y183518D01*
X398675Y183167D01*
X398417Y182780D01*
X398211Y182362D01*
X398061Y181922D01*
X397970Y181465D01*
X397940Y181000D01*
X397970Y180535D01*
X398061Y180078D01*
X398211Y179638D01*
X398417Y179220D01*
X398675Y178833D01*
X398982Y178482D01*
X399333Y178175D01*
X399720Y177917D01*
X400138Y177711D01*
X400578Y177561D01*
X401035Y177470D01*
X401500Y177440D01*
X401965Y177470D01*
X402422Y177561D01*
X402863Y177711D01*
X403280Y177917D01*
X403667Y178175D01*
X404018Y178482D01*
X404325Y178833D01*
X404583Y179220D01*
X404789Y179638D01*
X404939Y180078D01*
X405030Y180535D01*
X405060Y181000D01*
X405030Y181465D01*
X404939Y181922D01*
X404789Y182362D01*
X404583Y182780D01*
X404325Y183167D01*
X404018Y183518D01*
X403667Y183825D01*
X403280Y184083D01*
X402863Y184289D01*
X402422Y184439D01*
X401965Y184530D01*
X401500Y184560D01*
D02*
G37*
G36*
X391500D02*
X391035Y184530D01*
X390579Y184439D01*
X390138Y184289D01*
X389720Y184083D01*
X389333Y183825D01*
X388982Y183518D01*
X388675Y183167D01*
X388417Y182780D01*
X388211Y182362D01*
X388061Y181922D01*
X387970Y181465D01*
X387940Y181000D01*
X387970Y180535D01*
X388061Y180078D01*
X388211Y179638D01*
X388417Y179220D01*
X388675Y178833D01*
X388982Y178482D01*
X389333Y178175D01*
X389720Y177917D01*
X390138Y177711D01*
X390579Y177561D01*
X391035Y177470D01*
X391500Y177440D01*
X391965Y177470D01*
X392422Y177561D01*
X392863Y177711D01*
X393280Y177917D01*
X393667Y178175D01*
X394018Y178482D01*
X394325Y178833D01*
X394583Y179220D01*
X394789Y179638D01*
X394939Y180078D01*
X395030Y180535D01*
X395060Y181000D01*
X395030Y181465D01*
X394939Y181922D01*
X394789Y182362D01*
X394583Y182780D01*
X394325Y183167D01*
X394018Y183518D01*
X393667Y183825D01*
X393280Y184083D01*
X392863Y184289D01*
X392422Y184439D01*
X391965Y184530D01*
X391500Y184560D01*
D02*
G37*
G36*
X389000Y204469D02*
X388592Y204388D01*
X388158Y204240D01*
X387746Y204038D01*
X387365Y203783D01*
X387020Y203480D01*
X386717Y203135D01*
X386462Y202754D01*
X386260Y202342D01*
X386112Y201908D01*
X386031Y201500D01*
X389000D01*
Y204469D01*
D02*
G37*
G36*
X392969Y200500D02*
X390000D01*
Y197531D01*
X390408Y197612D01*
X390842Y197759D01*
X391254Y197962D01*
X391635Y198217D01*
X391980Y198520D01*
X392283Y198865D01*
X392538Y199246D01*
X392741Y199658D01*
X392888Y200092D01*
X392969Y200500D01*
D02*
G37*
G36*
X389000D02*
X386031D01*
X386112Y200092D01*
X386260Y199658D01*
X386462Y199246D01*
X386717Y198865D01*
X387020Y198520D01*
X387365Y198217D01*
X387746Y197962D01*
X388158Y197759D01*
X388592Y197612D01*
X389000Y197531D01*
Y200500D01*
D02*
G37*
G36*
X431000Y208969D02*
Y206000D01*
X433969D01*
X433888Y206408D01*
X433741Y206842D01*
X433538Y207254D01*
X433283Y207635D01*
X432980Y207980D01*
X432635Y208283D01*
X432254Y208538D01*
X431842Y208740D01*
X431408Y208888D01*
X431000Y208969D01*
D02*
G37*
G36*
X479000Y226547D02*
X477377D01*
X477419Y226371D01*
X477551Y226054D01*
X477730Y225761D01*
X477953Y225500D01*
X478214Y225277D01*
X478507Y225098D01*
X478824Y224966D01*
X479000Y224924D01*
Y226547D01*
D02*
G37*
G36*
X400123D02*
X398500D01*
Y224924D01*
X398676Y224966D01*
X398993Y225098D01*
X399286Y225277D01*
X399547Y225500D01*
X399770Y225761D01*
X399949Y226054D01*
X400081Y226371D01*
X400123Y226547D01*
D02*
G37*
G36*
X388500D02*
X386877D01*
X386919Y226371D01*
X387051Y226054D01*
X387230Y225761D01*
X387453Y225500D01*
X387714Y225277D01*
X388007Y225098D01*
X388324Y224966D01*
X388500Y224924D01*
Y226547D01*
D02*
G37*
G36*
Y238170D02*
X388324Y238128D01*
X388007Y237997D01*
X387714Y237817D01*
X387453Y237594D01*
X387230Y237333D01*
X387051Y237040D01*
X386919Y236723D01*
X386877Y236547D01*
X388500D01*
Y238170D01*
D02*
G37*
G36*
X408500Y265863D02*
X408061Y265834D01*
X407630Y265749D01*
X407213Y265607D01*
X406818Y265412D01*
X406453Y265168D01*
X406122Y264878D01*
X405832Y264547D01*
X405587Y264182D01*
X405393Y263787D01*
X405252Y263370D01*
X405166Y262939D01*
X405137Y262500D01*
X405166Y262061D01*
X405252Y261630D01*
X405393Y261213D01*
X405587Y260818D01*
X405832Y260453D01*
X406122Y260122D01*
X406453Y259832D01*
X406691Y259672D01*
Y244494D01*
X406539Y244457D01*
X406088Y244271D01*
X405672Y244016D01*
X405301Y243699D01*
X404984Y243328D01*
X404729Y242912D01*
X404543Y242461D01*
X404429Y241986D01*
X404390Y241500D01*
X404429Y241014D01*
X404543Y240539D01*
X404729Y240088D01*
X404984Y239672D01*
X405301Y239301D01*
X405672Y238984D01*
X406088Y238729D01*
X406539Y238543D01*
X407014Y238429D01*
X407439Y238395D01*
X407572Y238240D01*
X407729Y237912D01*
X407543Y237461D01*
X407429Y236986D01*
X407390Y236500D01*
X407429Y236014D01*
X407543Y235539D01*
X407729Y235088D01*
X407984Y234672D01*
X408301Y234301D01*
X408672Y233984D01*
X409088Y233729D01*
X409539Y233543D01*
X410014Y233429D01*
X410500Y233390D01*
X410986Y233429D01*
X411008Y233434D01*
X420221Y224221D01*
X420495Y223996D01*
X420808Y223829D01*
X421147Y223726D01*
X421500Y223691D01*
X445000D01*
X445353Y223726D01*
X445692Y223829D01*
X446005Y223996D01*
X446279Y224221D01*
X447279Y225221D01*
X447504Y225495D01*
X447671Y225808D01*
X447774Y226147D01*
X447809Y226500D01*
Y237691D01*
X463929D01*
X464320Y237301D01*
X464315Y237279D01*
X464276Y236793D01*
X464315Y236306D01*
X464429Y235832D01*
X464615Y235381D01*
X464870Y234965D01*
X465187Y234594D01*
X465558Y234277D01*
X465974Y234022D01*
X466425Y233835D01*
X466899Y233721D01*
X467386Y233683D01*
X467872Y233721D01*
X468347Y233835D01*
X468798Y234022D01*
X469214Y234277D01*
X469585Y234594D01*
X469902Y234965D01*
X470156Y235381D01*
X470343Y235832D01*
X470457Y236306D01*
X470495Y236793D01*
X470457Y237279D01*
X470343Y237754D01*
X470156Y238204D01*
X469902Y238620D01*
X469585Y238991D01*
X469214Y239308D01*
X468798Y239563D01*
X468347Y239750D01*
X467872Y239864D01*
X467386Y239902D01*
X466899Y239864D01*
X466878Y239859D01*
X465957Y240779D01*
X465683Y241004D01*
X465371Y241171D01*
X465031Y241274D01*
X464678Y241309D01*
X454418D01*
X454339Y241422D01*
X454240Y241809D01*
X454480Y242020D01*
X454783Y242365D01*
X455038Y242746D01*
X455240Y243158D01*
X455388Y243592D01*
X455469Y244000D01*
X448531D01*
X448612Y243592D01*
X448760Y243158D01*
X448962Y242746D01*
X449217Y242365D01*
X449520Y242020D01*
X449760Y241809D01*
X449661Y241422D01*
X449582Y241309D01*
X443527D01*
X443516Y241328D01*
X443199Y241699D01*
X442828Y242016D01*
X442412Y242271D01*
X441961Y242457D01*
X441486Y242571D01*
X441000Y242610D01*
X440514Y242571D01*
X440039Y242457D01*
X439588Y242271D01*
X439172Y242016D01*
X438801Y241699D01*
X438484Y241328D01*
X438229Y240912D01*
X438043Y240461D01*
X437929Y239986D01*
X437890Y239500D01*
X437929Y239014D01*
X438043Y238539D01*
X438229Y238088D01*
X438484Y237672D01*
X438801Y237301D01*
X439172Y236984D01*
X439588Y236729D01*
X440039Y236543D01*
X440514Y236429D01*
X441000Y236390D01*
X441486Y236429D01*
X441961Y236543D01*
X442412Y236729D01*
X442828Y236984D01*
X443199Y237301D01*
X443516Y237672D01*
X443527Y237691D01*
X444191D01*
Y227309D01*
X422249D01*
X413566Y235992D01*
X413571Y236014D01*
X413610Y236500D01*
X413571Y236986D01*
X413457Y237461D01*
X413271Y237912D01*
X413016Y238328D01*
X412699Y238699D01*
X412328Y239016D01*
X411912Y239271D01*
X411461Y239457D01*
X410986Y239571D01*
X410561Y239605D01*
X410428Y239760D01*
X410271Y240088D01*
X410457Y240539D01*
X410571Y241014D01*
X410610Y241500D01*
X410571Y241986D01*
X410457Y242461D01*
X410309Y242820D01*
Y259672D01*
X410547Y259832D01*
X410878Y260122D01*
X411168Y260453D01*
X411412Y260818D01*
X411607Y261213D01*
X411749Y261630D01*
X411834Y262061D01*
X411863Y262500D01*
X411834Y262939D01*
X411749Y263370D01*
X411607Y263787D01*
X411412Y264182D01*
X411168Y264547D01*
X410878Y264878D01*
X410547Y265168D01*
X410182Y265412D01*
X409787Y265607D01*
X409370Y265749D01*
X408939Y265834D01*
X408500Y265863D01*
D02*
G37*
G36*
X490623Y226547D02*
X489000D01*
Y224924D01*
X489176Y224966D01*
X489493Y225098D01*
X489786Y225277D01*
X490047Y225500D01*
X490270Y225761D01*
X490449Y226054D01*
X490581Y226371D01*
X490623Y226547D01*
D02*
G37*
G36*
X499000Y212469D02*
X498592Y212388D01*
X498158Y212241D01*
X497746Y212038D01*
X497365Y211783D01*
X497020Y211480D01*
X496717Y211135D01*
X496462Y210754D01*
X496259Y210342D01*
X496112Y209908D01*
X496031Y209500D01*
X499000D01*
Y212469D01*
D02*
G37*
G36*
X409969Y210000D02*
X407000D01*
Y207031D01*
X407408Y207112D01*
X407842Y207259D01*
X408254Y207462D01*
X408635Y207717D01*
X408980Y208020D01*
X409283Y208365D01*
X409538Y208746D01*
X409740Y209158D01*
X409888Y209592D01*
X409969Y210000D01*
D02*
G37*
G36*
X406000D02*
X403031D01*
X403112Y209592D01*
X403260Y209158D01*
X403462Y208746D01*
X403717Y208365D01*
X404020Y208020D01*
X404365Y207717D01*
X404746Y207462D01*
X405158Y207259D01*
X405592Y207112D01*
X406000Y207031D01*
Y210000D01*
D02*
G37*
G36*
X407000Y213969D02*
Y211000D01*
X409969D01*
X409888Y211408D01*
X409740Y211842D01*
X409538Y212254D01*
X409283Y212635D01*
X408980Y212980D01*
X408635Y213283D01*
X408254Y213538D01*
X407842Y213740D01*
X407408Y213888D01*
X407000Y213969D01*
D02*
G37*
G36*
X406000D02*
X405592Y213888D01*
X405158Y213740D01*
X404746Y213538D01*
X404365Y213283D01*
X404020Y212980D01*
X403717Y212635D01*
X403462Y212254D01*
X403260Y211842D01*
X403112Y211408D01*
X403031Y211000D01*
X406000D01*
Y213969D01*
D02*
G37*
G36*
X500000Y212469D02*
Y209500D01*
X502969D01*
X502888Y209908D01*
X502740Y210342D01*
X502538Y210754D01*
X502283Y211135D01*
X501980Y211480D01*
X501635Y211783D01*
X501254Y212038D01*
X500842Y212241D01*
X500408Y212388D01*
X500000Y212469D01*
D02*
G37*
G36*
X303000Y339219D02*
Y335000D01*
X307220D01*
X307218Y335032D01*
X307129Y335556D01*
X306981Y336068D01*
X306778Y336560D01*
X306520Y337026D01*
X306212Y337460D01*
X305857Y337857D01*
X305460Y338212D01*
X305026Y338520D01*
X304560Y338777D01*
X304068Y338981D01*
X303556Y339129D01*
X303032Y339218D01*
X303000Y339219D01*
D02*
G37*
G36*
X302000D02*
X301968Y339218D01*
X301444Y339129D01*
X300932Y338981D01*
X300440Y338777D01*
X299974Y338520D01*
X299540Y338212D01*
X299143Y337857D01*
X298788Y337460D01*
X298480Y337026D01*
X298222Y336560D01*
X298019Y336068D01*
X297871Y335556D01*
X297782Y335032D01*
X297780Y335000D01*
X302000D01*
Y339219D01*
D02*
G37*
G36*
X461047Y334922D02*
Y331953D01*
X464016D01*
X463935Y332361D01*
X463788Y332795D01*
X463585Y333207D01*
X463330Y333588D01*
X463027Y333933D01*
X462682Y334236D01*
X462301Y334490D01*
X461890Y334693D01*
X461455Y334841D01*
X461047Y334922D01*
D02*
G37*
G36*
X306840Y358840D02*
X298160D01*
Y350160D01*
X306840D01*
Y358840D01*
D02*
G37*
G36*
X339020Y351500D02*
X335000D01*
Y347480D01*
X335094Y347486D01*
X335678Y347602D01*
X336242Y347794D01*
X336776Y348057D01*
X337272Y348388D01*
X337719Y348780D01*
X338112Y349228D01*
X338443Y349724D01*
X338706Y350258D01*
X338898Y350822D01*
X339014Y351406D01*
X339020Y351500D01*
D02*
G37*
G36*
X334000D02*
X329980D01*
X329986Y351406D01*
X330102Y350822D01*
X330293Y350258D01*
X330557Y349724D01*
X330888Y349228D01*
X331280Y348780D01*
X331728Y348388D01*
X332224Y348057D01*
X332758Y347794D01*
X333322Y347602D01*
X333906Y347486D01*
X334000Y347480D01*
Y351500D01*
D02*
G37*
G36*
X460047Y334922D02*
X459639Y334841D01*
X459205Y334693D01*
X458793Y334490D01*
X458412Y334236D01*
X458067Y333933D01*
X457764Y333588D01*
X457510Y333207D01*
X457307Y332795D01*
X457159Y332361D01*
X457078Y331953D01*
X460047D01*
Y334922D01*
D02*
G37*
G36*
Y330953D02*
X457078D01*
X457159Y330545D01*
X457307Y330111D01*
X457510Y329699D01*
X457764Y329318D01*
X458067Y328973D01*
X458412Y328670D01*
X458793Y328415D01*
X459205Y328212D01*
X459639Y328065D01*
X460047Y327984D01*
Y330953D01*
D02*
G37*
G36*
X488500Y341863D02*
X488061Y341834D01*
X487630Y341748D01*
X487213Y341607D01*
X486819Y341412D01*
X486453Y341168D01*
X486122Y340878D01*
X485832Y340547D01*
X485588Y340182D01*
X485393Y339787D01*
X485252Y339370D01*
X485166Y338939D01*
X485137Y338500D01*
X485166Y338061D01*
X485252Y337630D01*
X485393Y337213D01*
X485588Y336818D01*
X485832Y336453D01*
X486122Y336122D01*
X486453Y335832D01*
X486691Y335672D01*
Y327004D01*
X486676Y326971D01*
X486258Y326589D01*
X486000Y326610D01*
X485514Y326571D01*
X485039Y326457D01*
X484588Y326271D01*
X484172Y326016D01*
X483801Y325699D01*
X483484Y325328D01*
X483229Y324912D01*
X483043Y324461D01*
X482929Y323987D01*
X482890Y323500D01*
X482929Y323013D01*
X483043Y322539D01*
X483229Y322088D01*
X483484Y321672D01*
X483801Y321301D01*
X484172Y320984D01*
X484588Y320729D01*
X485039Y320543D01*
X485514Y320429D01*
X486000Y320390D01*
X486486Y320429D01*
X486961Y320543D01*
X487412Y320729D01*
X487828Y320984D01*
X488199Y321301D01*
X488516Y321672D01*
X488771Y322088D01*
X488957Y322539D01*
X489071Y323013D01*
X489110Y323500D01*
X489071Y323987D01*
X489066Y324008D01*
X489779Y324721D01*
X490004Y324995D01*
X490171Y325308D01*
X490274Y325647D01*
X490309Y326000D01*
Y335672D01*
X490547Y335832D01*
X490878Y336122D01*
X491168Y336453D01*
X491412Y336818D01*
X491607Y337213D01*
X491749Y337630D01*
X491834Y338061D01*
X491863Y338500D01*
X491834Y338939D01*
X491749Y339370D01*
X491607Y339787D01*
X491412Y340182D01*
X491168Y340547D01*
X490878Y340878D01*
X490547Y341168D01*
X490181Y341412D01*
X489787Y341607D01*
X489370Y341748D01*
X488939Y341834D01*
X488500Y341863D01*
D02*
G37*
G36*
X335000Y330020D02*
Y326000D01*
X339020D01*
X339014Y326094D01*
X338898Y326678D01*
X338706Y327242D01*
X338443Y327777D01*
X338112Y328272D01*
X337719Y328719D01*
X337272Y329112D01*
X336776Y329443D01*
X336242Y329707D01*
X335678Y329898D01*
X335094Y330014D01*
X335000Y330020D01*
D02*
G37*
G36*
X307220Y334000D02*
X303000D01*
Y329781D01*
X303032Y329782D01*
X303556Y329871D01*
X304068Y330019D01*
X304560Y330223D01*
X305026Y330480D01*
X305460Y330788D01*
X305857Y331143D01*
X306212Y331540D01*
X306520Y331974D01*
X306778Y332440D01*
X306981Y332932D01*
X307129Y333444D01*
X307218Y333968D01*
X307220Y334000D01*
D02*
G37*
G36*
X302000D02*
X297780D01*
X297782Y333968D01*
X297871Y333444D01*
X298019Y332932D01*
X298222Y332440D01*
X298480Y331974D01*
X298788Y331540D01*
X299143Y331143D01*
X299540Y330788D01*
X299974Y330480D01*
X300440Y330223D01*
X300932Y330019D01*
X301444Y329871D01*
X301968Y329782D01*
X302000Y329781D01*
Y334000D01*
D02*
G37*
G36*
X464016Y330953D02*
X461047D01*
Y327984D01*
X461455Y328065D01*
X461890Y328212D01*
X462301Y328415D01*
X462682Y328670D01*
X463027Y328973D01*
X463330Y329318D01*
X463585Y329699D01*
X463788Y330111D01*
X463935Y330545D01*
X464016Y330953D01*
D02*
G37*
G36*
X415500Y374560D02*
X415035Y374530D01*
X414578Y374439D01*
X414138Y374289D01*
X413720Y374083D01*
X413333Y373825D01*
X412982Y373518D01*
X412675Y373167D01*
X412417Y372780D01*
X412211Y372362D01*
X412061Y371921D01*
X411970Y371465D01*
X411940Y371000D01*
X411970Y370535D01*
X412061Y370078D01*
X412211Y369637D01*
X412417Y369220D01*
X412675Y368833D01*
X412982Y368482D01*
X413333Y368175D01*
X413720Y367917D01*
X414138Y367711D01*
X414578Y367561D01*
X415035Y367470D01*
X415500Y367440D01*
X415965Y367470D01*
X416422Y367561D01*
X416862Y367711D01*
X417280Y367917D01*
X417667Y368175D01*
X418018Y368482D01*
X418325Y368833D01*
X418583Y369220D01*
X418789Y369637D01*
X418939Y370078D01*
X419030Y370535D01*
X419060Y371000D01*
X419030Y371465D01*
X418939Y371921D01*
X418789Y372362D01*
X418583Y372780D01*
X418325Y373167D01*
X418018Y373518D01*
X417667Y373825D01*
X417280Y374083D01*
X416862Y374289D01*
X416422Y374439D01*
X415965Y374530D01*
X415500Y374560D01*
D02*
G37*
G36*
X405500D02*
X405035Y374530D01*
X404578Y374439D01*
X404138Y374289D01*
X403720Y374083D01*
X403333Y373825D01*
X402982Y373518D01*
X402675Y373167D01*
X402417Y372780D01*
X402211Y372362D01*
X402061Y371921D01*
X401970Y371465D01*
X401940Y371000D01*
X401970Y370535D01*
X402061Y370078D01*
X402211Y369637D01*
X402417Y369220D01*
X402675Y368833D01*
X402982Y368482D01*
X403333Y368175D01*
X403720Y367917D01*
X404138Y367711D01*
X404578Y367561D01*
X405035Y367470D01*
X405500Y367440D01*
X405965Y367470D01*
X406422Y367561D01*
X406862Y367711D01*
X407280Y367917D01*
X407667Y368175D01*
X408018Y368482D01*
X408325Y368833D01*
X408583Y369220D01*
X408789Y369637D01*
X408939Y370078D01*
X409030Y370535D01*
X409060Y371000D01*
X409030Y371465D01*
X408939Y371921D01*
X408789Y372362D01*
X408583Y372780D01*
X408325Y373167D01*
X408018Y373518D01*
X407667Y373825D01*
X407280Y374083D01*
X406862Y374289D01*
X406422Y374439D01*
X405965Y374530D01*
X405500Y374560D01*
D02*
G37*
G36*
X395500D02*
X395035Y374530D01*
X394579Y374439D01*
X394138Y374289D01*
X393720Y374083D01*
X393333Y373825D01*
X392982Y373518D01*
X392675Y373167D01*
X392417Y372780D01*
X392211Y372362D01*
X392061Y371921D01*
X391970Y371465D01*
X391940Y371000D01*
X391970Y370535D01*
X392061Y370078D01*
X392211Y369637D01*
X392417Y369220D01*
X392675Y368833D01*
X392982Y368482D01*
X393333Y368175D01*
X393720Y367917D01*
X394138Y367711D01*
X394579Y367561D01*
X395035Y367470D01*
X395500Y367440D01*
X395965Y367470D01*
X396422Y367561D01*
X396863Y367711D01*
X397280Y367917D01*
X397667Y368175D01*
X398018Y368482D01*
X398325Y368833D01*
X398583Y369220D01*
X398789Y369637D01*
X398939Y370078D01*
X399030Y370535D01*
X399060Y371000D01*
X399030Y371465D01*
X398939Y371921D01*
X398789Y372362D01*
X398583Y372780D01*
X398325Y373167D01*
X398018Y373518D01*
X397667Y373825D01*
X397280Y374083D01*
X396863Y374289D01*
X396422Y374439D01*
X395965Y374530D01*
X395500Y374560D01*
D02*
G37*
G36*
X461500D02*
X461035Y374530D01*
X460578Y374439D01*
X460138Y374289D01*
X459720Y374083D01*
X459333Y373825D01*
X458982Y373518D01*
X458675Y373167D01*
X458417Y372780D01*
X458211Y372362D01*
X458061Y371921D01*
X457970Y371465D01*
X457940Y371000D01*
X457970Y370535D01*
X458061Y370078D01*
X458211Y369637D01*
X458417Y369220D01*
X458675Y368833D01*
X458982Y368482D01*
X459333Y368175D01*
X459720Y367917D01*
X460138Y367711D01*
X460578Y367561D01*
X461035Y367470D01*
X461500Y367440D01*
X461965Y367470D01*
X462422Y367561D01*
X462862Y367711D01*
X463280Y367917D01*
X463667Y368175D01*
X464018Y368482D01*
X464325Y368833D01*
X464583Y369220D01*
X464789Y369637D01*
X464939Y370078D01*
X465030Y370535D01*
X465060Y371000D01*
X465030Y371465D01*
X464939Y371921D01*
X464789Y372362D01*
X464583Y372780D01*
X464325Y373167D01*
X464018Y373518D01*
X463667Y373825D01*
X463280Y374083D01*
X462862Y374289D01*
X462422Y374439D01*
X461965Y374530D01*
X461500Y374560D01*
D02*
G37*
G36*
X430000Y377609D02*
X362500D01*
X362213Y377572D01*
X361945Y377461D01*
X361716Y377285D01*
X359716Y375285D01*
X359539Y375055D01*
X359428Y374787D01*
X359390Y374500D01*
Y372147D01*
X358891Y372064D01*
X358789Y372362D01*
X358583Y372780D01*
X358325Y373167D01*
X358018Y373518D01*
X357667Y373825D01*
X357280Y374083D01*
X356862Y374289D01*
X356421Y374439D01*
X355965Y374530D01*
X355500Y374560D01*
X355035Y374530D01*
X354578Y374439D01*
X354137Y374289D01*
X353720Y374083D01*
X353333Y373825D01*
X352982Y373518D01*
X352675Y373167D01*
X352417Y372780D01*
X352211Y372362D01*
X352061Y371921D01*
X351970Y371465D01*
X351940Y371000D01*
X351970Y370535D01*
X352061Y370078D01*
X352211Y369637D01*
X352417Y369220D01*
X352675Y368833D01*
X352982Y368482D01*
X353333Y368175D01*
X353720Y367917D01*
X354137Y367711D01*
X354578Y367561D01*
X355035Y367470D01*
X355500Y367440D01*
X355965Y367470D01*
X356421Y367561D01*
X356862Y367711D01*
X357280Y367917D01*
X357667Y368175D01*
X358018Y368482D01*
X358325Y368833D01*
X358583Y369220D01*
X358789Y369637D01*
X358891Y369935D01*
X359390Y369853D01*
Y368460D01*
X337074Y346143D01*
X330357D01*
Y337857D01*
X338643D01*
Y344574D01*
X361284Y367215D01*
X361461Y367445D01*
X361572Y367713D01*
X361610Y368000D01*
Y369853D01*
X362109Y369935D01*
X362211Y369637D01*
X362417Y369220D01*
X362675Y368833D01*
X362982Y368482D01*
X363333Y368175D01*
X363720Y367917D01*
X364138Y367711D01*
X364579Y367561D01*
X365035Y367470D01*
X365500Y367440D01*
X365965Y367470D01*
X366422Y367561D01*
X366863Y367711D01*
X367280Y367917D01*
X367667Y368175D01*
X368018Y368482D01*
X368325Y368833D01*
X368583Y369220D01*
X368789Y369637D01*
X368939Y370078D01*
X369030Y370535D01*
X369060Y371000D01*
X369030Y371465D01*
X368939Y371921D01*
X368789Y372362D01*
X368583Y372780D01*
X368325Y373167D01*
X368018Y373518D01*
X367667Y373825D01*
X367280Y374083D01*
X366863Y374289D01*
X366422Y374439D01*
X365965Y374530D01*
X365500Y374560D01*
X365035Y374530D01*
X364579Y374439D01*
X364138Y374289D01*
X363720Y374083D01*
X363333Y373825D01*
X362982Y373518D01*
X362675Y373167D01*
X362417Y372780D01*
X362211Y372362D01*
X362109Y372064D01*
X361610Y372147D01*
Y374040D01*
X362960Y375391D01*
X429540D01*
X432329Y372602D01*
X432211Y372362D01*
X432061Y371921D01*
X431970Y371465D01*
X431940Y371000D01*
X431970Y370535D01*
X432061Y370078D01*
X432211Y369637D01*
X432417Y369220D01*
X432675Y368833D01*
X432982Y368482D01*
X433333Y368175D01*
X433720Y367917D01*
X434137Y367711D01*
X434579Y367561D01*
X435035Y367470D01*
X435500Y367440D01*
X435965Y367470D01*
X436421Y367561D01*
X436863Y367711D01*
X437280Y367917D01*
X437667Y368175D01*
X438018Y368482D01*
X438325Y368833D01*
X438583Y369220D01*
X438789Y369637D01*
X438939Y370078D01*
X439030Y370535D01*
X439060Y371000D01*
X439030Y371465D01*
X438939Y371921D01*
X438789Y372362D01*
X438583Y372780D01*
X438325Y373167D01*
X438018Y373518D01*
X437667Y373825D01*
X437280Y374083D01*
X436863Y374289D01*
X436421Y374439D01*
X435965Y374530D01*
X435500Y374560D01*
X435035Y374530D01*
X434579Y374439D01*
X434137Y374289D01*
X433898Y374171D01*
X430785Y377285D01*
X430555Y377461D01*
X430287Y377572D01*
X430000Y377609D01*
D02*
G37*
G36*
X425500Y374560D02*
X425035Y374530D01*
X424579Y374439D01*
X424137Y374289D01*
X423720Y374083D01*
X423333Y373825D01*
X422982Y373518D01*
X422675Y373167D01*
X422417Y372780D01*
X422211Y372362D01*
X422061Y371921D01*
X421970Y371465D01*
X421940Y371000D01*
X421970Y370535D01*
X422061Y370078D01*
X422211Y369637D01*
X422417Y369220D01*
X422675Y368833D01*
X422982Y368482D01*
X423333Y368175D01*
X423720Y367917D01*
X424137Y367711D01*
X424579Y367561D01*
X425035Y367470D01*
X425500Y367440D01*
X425965Y367470D01*
X426421Y367561D01*
X426862Y367711D01*
X427280Y367917D01*
X427667Y368175D01*
X428018Y368482D01*
X428325Y368833D01*
X428583Y369220D01*
X428789Y369637D01*
X428939Y370078D01*
X429030Y370535D01*
X429060Y371000D01*
X429030Y371465D01*
X428939Y371921D01*
X428789Y372362D01*
X428583Y372780D01*
X428325Y373167D01*
X428018Y373518D01*
X427667Y373825D01*
X427280Y374083D01*
X426862Y374289D01*
X426421Y374439D01*
X425965Y374530D01*
X425500Y374560D01*
D02*
G37*
G36*
X385500D02*
X385035Y374530D01*
X384578Y374439D01*
X384138Y374289D01*
X383720Y374083D01*
X383333Y373825D01*
X382982Y373518D01*
X382675Y373167D01*
X382417Y372780D01*
X382211Y372362D01*
X382061Y371921D01*
X381970Y371465D01*
X381940Y371000D01*
X381970Y370535D01*
X382061Y370078D01*
X382211Y369637D01*
X382417Y369220D01*
X382675Y368833D01*
X382982Y368482D01*
X383333Y368175D01*
X383720Y367917D01*
X384138Y367711D01*
X384578Y367561D01*
X385035Y367470D01*
X385500Y367440D01*
X385965Y367470D01*
X386421Y367561D01*
X386862Y367711D01*
X387280Y367917D01*
X387667Y368175D01*
X388018Y368482D01*
X388325Y368833D01*
X388583Y369220D01*
X388789Y369637D01*
X388939Y370078D01*
X389030Y370535D01*
X389060Y371000D01*
X389030Y371465D01*
X388939Y371921D01*
X388789Y372362D01*
X388583Y372780D01*
X388325Y373167D01*
X388018Y373518D01*
X387667Y373825D01*
X387280Y374083D01*
X386862Y374289D01*
X386421Y374439D01*
X385965Y374530D01*
X385500Y374560D01*
D02*
G37*
G36*
X375500Y364560D02*
X375035Y364530D01*
X374578Y364439D01*
X374137Y364289D01*
X373720Y364083D01*
X373333Y363825D01*
X372982Y363518D01*
X372675Y363167D01*
X372417Y362780D01*
X372211Y362363D01*
X372061Y361922D01*
X371970Y361465D01*
X371940Y361000D01*
X371970Y360535D01*
X372061Y360079D01*
X372211Y359637D01*
X372417Y359220D01*
X372675Y358833D01*
X372982Y358482D01*
X373333Y358175D01*
X373720Y357917D01*
X374137Y357711D01*
X374578Y357561D01*
X375035Y357470D01*
X375500Y357440D01*
X375965Y357470D01*
X376421Y357561D01*
X376863Y357711D01*
X377280Y357917D01*
X377667Y358175D01*
X378018Y358482D01*
X378325Y358833D01*
X378583Y359220D01*
X378789Y359637D01*
X378939Y360079D01*
X379030Y360535D01*
X379060Y361000D01*
X379030Y361465D01*
X378939Y361922D01*
X378789Y362363D01*
X378583Y362780D01*
X378325Y363167D01*
X378018Y363518D01*
X377667Y363825D01*
X377280Y364083D01*
X376863Y364289D01*
X376421Y364439D01*
X375965Y364530D01*
X375500Y364560D01*
D02*
G37*
G36*
X335000Y356520D02*
Y352500D01*
X339020D01*
X339014Y352594D01*
X338898Y353178D01*
X338706Y353742D01*
X338443Y354276D01*
X338112Y354772D01*
X337719Y355220D01*
X337272Y355612D01*
X336776Y355943D01*
X336242Y356206D01*
X335678Y356398D01*
X335094Y356514D01*
X335000Y356520D01*
D02*
G37*
G36*
X334000D02*
X333906Y356514D01*
X333322Y356398D01*
X332758Y356206D01*
X332224Y355943D01*
X331728Y355612D01*
X331280Y355220D01*
X330888Y354772D01*
X330557Y354276D01*
X330293Y353742D01*
X330102Y353178D01*
X329986Y352594D01*
X329980Y352500D01*
X334000D01*
Y356520D01*
D02*
G37*
G36*
X375500Y374560D02*
X375035Y374530D01*
X374578Y374439D01*
X374137Y374289D01*
X373720Y374083D01*
X373333Y373825D01*
X372982Y373518D01*
X372675Y373167D01*
X372417Y372780D01*
X372211Y372362D01*
X372061Y371921D01*
X371970Y371465D01*
X371940Y371000D01*
X371970Y370535D01*
X372061Y370078D01*
X372211Y369637D01*
X372417Y369220D01*
X372675Y368833D01*
X372982Y368482D01*
X373333Y368175D01*
X373720Y367917D01*
X374137Y367711D01*
X374578Y367561D01*
X375035Y367470D01*
X375500Y367440D01*
X375965Y367470D01*
X376421Y367561D01*
X376863Y367711D01*
X377280Y367917D01*
X377667Y368175D01*
X378018Y368482D01*
X378325Y368833D01*
X378583Y369220D01*
X378789Y369637D01*
X378939Y370078D01*
X379030Y370535D01*
X379060Y371000D01*
X379030Y371465D01*
X378939Y371921D01*
X378789Y372362D01*
X378583Y372780D01*
X378325Y373167D01*
X378018Y373518D01*
X377667Y373825D01*
X377280Y374083D01*
X376863Y374289D01*
X376421Y374439D01*
X375965Y374530D01*
X375500Y374560D01*
D02*
G37*
G36*
X449053Y374553D02*
X441947D01*
Y367447D01*
X442725D01*
X442916Y366985D01*
X442588Y366657D01*
X401547D01*
X401260Y366619D01*
X400992Y366508D01*
X400763Y366332D01*
X400763Y366332D01*
X399715Y365284D01*
X399539Y365055D01*
X399428Y364787D01*
X399391Y364500D01*
Y362147D01*
X398890Y362065D01*
X398789Y362363D01*
X398583Y362780D01*
X398325Y363167D01*
X398018Y363518D01*
X397667Y363825D01*
X397280Y364083D01*
X396863Y364289D01*
X396422Y364439D01*
X395965Y364530D01*
X395500Y364560D01*
X395035Y364530D01*
X394579Y364439D01*
X394138Y364289D01*
X393720Y364083D01*
X393333Y363825D01*
X392982Y363518D01*
X392675Y363167D01*
X392417Y362780D01*
X392211Y362363D01*
X392061Y361922D01*
X391970Y361465D01*
X391940Y361000D01*
X391970Y360535D01*
X392061Y360079D01*
X392211Y359637D01*
X392417Y359220D01*
X392675Y358833D01*
X392982Y358482D01*
X393333Y358175D01*
X393720Y357917D01*
X394138Y357711D01*
X394579Y357561D01*
X395035Y357470D01*
X395500Y357440D01*
X395965Y357470D01*
X396422Y357561D01*
X396863Y357711D01*
X397280Y357917D01*
X397667Y358175D01*
X398018Y358482D01*
X398325Y358833D01*
X398583Y359220D01*
X398789Y359637D01*
X398890Y359935D01*
X399391Y359853D01*
Y358060D01*
X382215Y340884D01*
X382039Y340655D01*
X381928Y340387D01*
X381891Y340100D01*
Y327796D01*
X381588Y327671D01*
X381172Y327416D01*
X380801Y327099D01*
X380484Y326728D01*
X380309Y326441D01*
X379809Y326582D01*
Y335144D01*
X381356D01*
Y341856D01*
X374644D01*
Y335144D01*
X376191D01*
Y318000D01*
X376226Y317647D01*
X376329Y317308D01*
X376451Y317079D01*
X376429Y316986D01*
X376390Y316500D01*
X376429Y316014D01*
X376543Y315539D01*
X376111Y315273D01*
X375828Y315516D01*
X375412Y315771D01*
X374961Y315957D01*
X374486Y316071D01*
X374000Y316110D01*
X373952Y316106D01*
X367309Y322749D01*
Y339973D01*
X367328Y339984D01*
X367699Y340301D01*
X368016Y340672D01*
X368271Y341088D01*
X368457Y341539D01*
X368571Y342014D01*
X368610Y342500D01*
X368571Y342986D01*
X368457Y343461D01*
X368271Y343912D01*
X368016Y344328D01*
X367699Y344699D01*
X367328Y345016D01*
X366912Y345271D01*
X366461Y345457D01*
X365986Y345571D01*
X365500Y345610D01*
X365014Y345571D01*
X364539Y345457D01*
X364088Y345271D01*
X363672Y345016D01*
X363301Y344699D01*
X362984Y344328D01*
X362729Y343912D01*
X362543Y343461D01*
X362429Y342986D01*
X362390Y342500D01*
X362429Y342014D01*
X362543Y341539D01*
X362729Y341088D01*
X362984Y340672D01*
X363301Y340301D01*
X363672Y339984D01*
X363691Y339973D01*
Y322000D01*
X363726Y321647D01*
X363829Y321308D01*
X363996Y320995D01*
X364221Y320721D01*
X371031Y313911D01*
X370929Y313487D01*
X370890Y313000D01*
X370929Y312513D01*
X371043Y312039D01*
X371229Y311588D01*
X371484Y311172D01*
X371801Y310801D01*
X372172Y310484D01*
X372588Y310229D01*
X373039Y310043D01*
X373514Y309929D01*
X374000Y309890D01*
X374486Y309929D01*
X374961Y310043D01*
X375412Y310229D01*
X375828Y310484D01*
X376199Y310801D01*
X376516Y311172D01*
X376771Y311588D01*
X376957Y312039D01*
X377071Y312513D01*
X377110Y313000D01*
X377071Y313487D01*
X376957Y313961D01*
X377389Y314227D01*
X377672Y313984D01*
X378088Y313729D01*
X378539Y313543D01*
X379013Y313429D01*
X379500Y313390D01*
X379987Y313429D01*
X380461Y313543D01*
X380912Y313729D01*
X381328Y313984D01*
X381699Y314301D01*
X382016Y314672D01*
X382271Y315088D01*
X382457Y315539D01*
X382571Y316014D01*
X382610Y316500D01*
X382571Y316986D01*
X382457Y317461D01*
X382271Y317912D01*
X382016Y318328D01*
X381699Y318699D01*
X381328Y319016D01*
X380912Y319271D01*
X380461Y319457D01*
X379987Y319571D01*
X379809Y319585D01*
Y323218D01*
X380309Y323359D01*
X380484Y323072D01*
X380801Y322701D01*
X381172Y322384D01*
X381588Y322129D01*
X382039Y321943D01*
X382513Y321829D01*
X383000Y321790D01*
X383487Y321829D01*
X383961Y321943D01*
X384412Y322129D01*
X384828Y322384D01*
X385199Y322701D01*
X385516Y323072D01*
X385758Y323468D01*
X385831Y323482D01*
X386290Y323436D01*
X386329Y323308D01*
X386496Y322995D01*
X386721Y322721D01*
X386995Y322496D01*
X387308Y322329D01*
X387647Y322226D01*
X388000Y322191D01*
X388353Y322226D01*
X388369Y322231D01*
X388371Y322229D01*
X388822Y322043D01*
X389297Y321929D01*
X389783Y321890D01*
X390270Y321929D01*
X390744Y322043D01*
X391195Y322229D01*
X391611Y322484D01*
X391982Y322801D01*
X392201Y323058D01*
X392566Y323079D01*
X392782Y323003D01*
X392984Y322672D01*
X393301Y322301D01*
X393672Y321984D01*
X394088Y321729D01*
X394539Y321543D01*
X395013Y321429D01*
X395500Y321390D01*
X395987Y321429D01*
X396461Y321543D01*
X396912Y321729D01*
X397328Y321984D01*
X397699Y322301D01*
X398016Y322672D01*
X398271Y323088D01*
X398457Y323539D01*
X398571Y324013D01*
X399279Y324721D01*
X399504Y324995D01*
X399671Y325308D01*
X399774Y325647D01*
X399809Y326000D01*
Y335672D01*
X400047Y335832D01*
X400378Y336122D01*
X400668Y336453D01*
X400913Y336818D01*
X401107Y337213D01*
X401249Y337630D01*
X401334Y338061D01*
X401363Y338500D01*
X401334Y338939D01*
X401249Y339370D01*
X401107Y339787D01*
X400913Y340182D01*
X400668Y340547D01*
X400378Y340878D01*
X400047Y341168D01*
X399682Y341412D01*
X399287Y341607D01*
X398870Y341748D01*
X398439Y341834D01*
X398000Y341863D01*
X397561Y341834D01*
X397130Y341748D01*
X396713Y341607D01*
X396318Y341412D01*
X395953Y341168D01*
X395622Y340878D01*
X395332Y340547D01*
X395088Y340182D01*
X394893Y339787D01*
X394752Y339370D01*
X394666Y338939D01*
X394637Y338500D01*
X394666Y338061D01*
X394752Y337630D01*
X394893Y337213D01*
X395088Y336818D01*
X395332Y336453D01*
X395622Y336122D01*
X395953Y335832D01*
X396191Y335672D01*
Y327985D01*
X395691Y327594D01*
X395500Y327610D01*
X395013Y327571D01*
X394539Y327457D01*
X394088Y327271D01*
X393672Y327016D01*
X393301Y326699D01*
X393082Y326443D01*
X392718Y326421D01*
X392502Y326497D01*
X392299Y326828D01*
X391982Y327199D01*
X391611Y327516D01*
X391195Y327771D01*
X390744Y327957D01*
X390270Y328071D01*
X389809Y328108D01*
Y335672D01*
X390047Y335832D01*
X390378Y336122D01*
X390668Y336453D01*
X390913Y336818D01*
X391107Y337213D01*
X391248Y337630D01*
X391334Y338061D01*
X391363Y338500D01*
X391334Y338939D01*
X391248Y339370D01*
X391107Y339787D01*
X390913Y340182D01*
X390668Y340547D01*
X390378Y340878D01*
X390047Y341168D01*
X389682Y341412D01*
X389287Y341607D01*
X388870Y341748D01*
X388439Y341834D01*
X388000Y341863D01*
X387561Y341834D01*
X387130Y341748D01*
X386819Y341643D01*
X386531Y342062D01*
X401285Y356816D01*
X401461Y357045D01*
X401572Y357313D01*
X401610Y357600D01*
Y359853D01*
X402109Y359935D01*
X402211Y359637D01*
X402417Y359220D01*
X402675Y358833D01*
X402982Y358482D01*
X403333Y358175D01*
X403720Y357917D01*
X404138Y357711D01*
X404578Y357561D01*
X405035Y357470D01*
X405500Y357440D01*
X405965Y357470D01*
X406422Y357561D01*
X406862Y357711D01*
X407280Y357917D01*
X407667Y358175D01*
X408018Y358482D01*
X408325Y358833D01*
X408583Y359220D01*
X408789Y359637D01*
X408939Y360079D01*
X409030Y360535D01*
X409060Y361000D01*
X409030Y361465D01*
X408939Y361922D01*
X408789Y362363D01*
X408583Y362780D01*
X408325Y363167D01*
X408018Y363518D01*
X407667Y363825D01*
X407498Y363938D01*
X407650Y364438D01*
X413350D01*
X413502Y363938D01*
X413333Y363825D01*
X412982Y363518D01*
X412675Y363167D01*
X412417Y362780D01*
X412211Y362363D01*
X412061Y361922D01*
X411970Y361465D01*
X411940Y361000D01*
X411970Y360535D01*
X412061Y360079D01*
X412211Y359637D01*
X412417Y359220D01*
X412675Y358833D01*
X412982Y358482D01*
X413333Y358175D01*
X413720Y357917D01*
X414138Y357711D01*
X414578Y357561D01*
X415035Y357470D01*
X415500Y357440D01*
X415965Y357470D01*
X416422Y357561D01*
X416862Y357711D01*
X417280Y357917D01*
X417667Y358175D01*
X418018Y358482D01*
X418325Y358833D01*
X418583Y359220D01*
X418789Y359637D01*
X418939Y360079D01*
X419030Y360535D01*
X419060Y361000D01*
X419030Y361465D01*
X418939Y361922D01*
X418789Y362363D01*
X418583Y362780D01*
X418325Y363167D01*
X418018Y363518D01*
X417667Y363825D01*
X417498Y363938D01*
X417650Y364438D01*
X423350D01*
X423502Y363938D01*
X423333Y363825D01*
X422982Y363518D01*
X422675Y363167D01*
X422417Y362780D01*
X422211Y362363D01*
X422061Y361922D01*
X421970Y361465D01*
X421940Y361000D01*
X421970Y360535D01*
X422061Y360079D01*
X422211Y359637D01*
X422417Y359220D01*
X422675Y358833D01*
X422982Y358482D01*
X423333Y358175D01*
X423720Y357917D01*
X424137Y357711D01*
X424579Y357561D01*
X425035Y357470D01*
X425500Y357440D01*
X425965Y357470D01*
X426421Y357561D01*
X426862Y357711D01*
X427280Y357917D01*
X427667Y358175D01*
X428018Y358482D01*
X428325Y358833D01*
X428583Y359220D01*
X428789Y359637D01*
X428939Y360079D01*
X429030Y360535D01*
X429060Y361000D01*
X429030Y361465D01*
X428939Y361922D01*
X428789Y362363D01*
X428583Y362780D01*
X428325Y363167D01*
X428018Y363518D01*
X427667Y363825D01*
X427498Y363938D01*
X427650Y364438D01*
X433350D01*
X433502Y363938D01*
X433333Y363825D01*
X432982Y363518D01*
X432675Y363167D01*
X432417Y362780D01*
X432211Y362363D01*
X432061Y361922D01*
X431970Y361465D01*
X431940Y361000D01*
X431970Y360535D01*
X432061Y360079D01*
X432211Y359637D01*
X432417Y359220D01*
X432675Y358833D01*
X432982Y358482D01*
X433333Y358175D01*
X433720Y357917D01*
X434137Y357711D01*
X434579Y357561D01*
X435035Y357470D01*
X435500Y357440D01*
X435965Y357470D01*
X436421Y357561D01*
X436863Y357711D01*
X437280Y357917D01*
X437667Y358175D01*
X438018Y358482D01*
X438325Y358833D01*
X438583Y359220D01*
X438789Y359637D01*
X438939Y360079D01*
X439030Y360535D01*
X439060Y361000D01*
X439030Y361465D01*
X438939Y361922D01*
X438789Y362363D01*
X438583Y362780D01*
X438325Y363167D01*
X438018Y363518D01*
X437667Y363825D01*
X437498Y363938D01*
X437650Y364438D01*
X441947D01*
Y357447D01*
X449053D01*
Y364553D01*
X444329D01*
X444122Y365053D01*
X446284Y367215D01*
X446461Y367445D01*
X446462Y367447D01*
X449053D01*
Y374553D01*
D02*
G37*
G36*
X385500Y364560D02*
X385035Y364530D01*
X384578Y364439D01*
X384138Y364289D01*
X383720Y364083D01*
X383333Y363825D01*
X382982Y363518D01*
X382675Y363167D01*
X382417Y362780D01*
X382211Y362363D01*
X382061Y361922D01*
X381970Y361465D01*
X381940Y361000D01*
X381970Y360535D01*
X382061Y360079D01*
X382211Y359637D01*
X382417Y359220D01*
X382675Y358833D01*
X382982Y358482D01*
X383333Y358175D01*
X383720Y357917D01*
X384138Y357711D01*
X384578Y357561D01*
X385035Y357470D01*
X385500Y357440D01*
X385965Y357470D01*
X386421Y357561D01*
X386862Y357711D01*
X387280Y357917D01*
X387667Y358175D01*
X388018Y358482D01*
X388325Y358833D01*
X388583Y359220D01*
X388789Y359637D01*
X388939Y360079D01*
X389030Y360535D01*
X389060Y361000D01*
X389030Y361465D01*
X388939Y361922D01*
X388789Y362363D01*
X388583Y362780D01*
X388325Y363167D01*
X388018Y363518D01*
X387667Y363825D01*
X387280Y364083D01*
X386862Y364289D01*
X386421Y364439D01*
X385965Y364530D01*
X385500Y364560D01*
D02*
G37*
G36*
X433000Y306969D02*
X432592Y306888D01*
X432158Y306740D01*
X431746Y306538D01*
X431365Y306283D01*
X431020Y305980D01*
X430717Y305635D01*
X430462Y305254D01*
X430260Y304842D01*
X430112Y304408D01*
X430031Y304000D01*
X433000D01*
Y306969D01*
D02*
G37*
G36*
X489623Y302547D02*
X488000D01*
Y300924D01*
X488176Y300966D01*
X488493Y301098D01*
X488786Y301277D01*
X489047Y301500D01*
X489270Y301761D01*
X489449Y302054D01*
X489581Y302371D01*
X489623Y302547D01*
D02*
G37*
G36*
X478000D02*
X476377D01*
X476419Y302371D01*
X476551Y302054D01*
X476730Y301761D01*
X476953Y301500D01*
X477214Y301277D01*
X477507Y301098D01*
X477824Y300966D01*
X478000Y300924D01*
Y302547D01*
D02*
G37*
G36*
X362500Y315500D02*
X359531D01*
X359612Y315092D01*
X359759Y314658D01*
X359962Y314246D01*
X360217Y313865D01*
X360520Y313520D01*
X360865Y313217D01*
X361246Y312962D01*
X361658Y312759D01*
X362092Y312612D01*
X362500Y312531D01*
Y315500D01*
D02*
G37*
G36*
X338643Y319643D02*
X330357D01*
Y311357D01*
X338643D01*
Y319643D01*
D02*
G37*
G36*
X434000Y306969D02*
Y304000D01*
X436969D01*
X436888Y304408D01*
X436740Y304842D01*
X436538Y305254D01*
X436283Y305635D01*
X435980Y305980D01*
X435635Y306283D01*
X435254Y306538D01*
X434842Y306740D01*
X434408Y306888D01*
X434000Y306969D01*
D02*
G37*
G36*
X399123Y302547D02*
X397500D01*
Y300924D01*
X397676Y300966D01*
X397993Y301098D01*
X398286Y301277D01*
X398547Y301500D01*
X398770Y301761D01*
X398949Y302054D01*
X399081Y302371D01*
X399123Y302547D01*
D02*
G37*
G36*
X335000Y303520D02*
Y299500D01*
X339020D01*
X339014Y299594D01*
X338898Y300178D01*
X338706Y300742D01*
X338443Y301276D01*
X338112Y301772D01*
X337719Y302220D01*
X337272Y302612D01*
X336776Y302943D01*
X336242Y303206D01*
X335678Y303398D01*
X335094Y303514D01*
X335000Y303520D01*
D02*
G37*
G36*
X334000D02*
X333906Y303514D01*
X333322Y303398D01*
X332758Y303206D01*
X332224Y302943D01*
X331728Y302612D01*
X331280Y302220D01*
X330888Y301772D01*
X330557Y301276D01*
X330293Y300742D01*
X330102Y300178D01*
X329986Y299594D01*
X329980Y299500D01*
X334000D01*
Y303520D01*
D02*
G37*
G36*
X339020Y298500D02*
X335000D01*
Y294480D01*
X335094Y294486D01*
X335678Y294602D01*
X336242Y294794D01*
X336776Y295057D01*
X337272Y295388D01*
X337719Y295780D01*
X338112Y296228D01*
X338443Y296724D01*
X338706Y297258D01*
X338898Y297822D01*
X339014Y298406D01*
X339020Y298500D01*
D02*
G37*
G36*
X387500Y302547D02*
X385877D01*
X385919Y302371D01*
X386051Y302054D01*
X386230Y301761D01*
X386453Y301500D01*
X386714Y301277D01*
X387007Y301098D01*
X387324Y300966D01*
X387500Y300924D01*
Y302547D01*
D02*
G37*
G36*
X436969Y303000D02*
X434000D01*
Y300031D01*
X434408Y300112D01*
X434842Y300259D01*
X435254Y300462D01*
X435635Y300717D01*
X435980Y301020D01*
X436283Y301365D01*
X436538Y301746D01*
X436740Y302158D01*
X436888Y302592D01*
X436969Y303000D01*
D02*
G37*
G36*
X433000D02*
X430031D01*
X430112Y302592D01*
X430260Y302158D01*
X430462Y301746D01*
X430717Y301365D01*
X431020Y301020D01*
X431365Y300717D01*
X431746Y300462D01*
X432158Y300259D01*
X432592Y300112D01*
X433000Y300031D01*
Y303000D01*
D02*
G37*
G36*
X334000Y325000D02*
X329980D01*
X329986Y324906D01*
X330102Y324322D01*
X330293Y323758D01*
X330557Y323223D01*
X330888Y322728D01*
X331280Y322281D01*
X331728Y321888D01*
X332224Y321557D01*
X332758Y321293D01*
X333322Y321102D01*
X333906Y320986D01*
X334000Y320980D01*
Y325000D01*
D02*
G37*
G36*
X363500Y319469D02*
Y316500D01*
X366469D01*
X366388Y316908D01*
X366241Y317342D01*
X366038Y317754D01*
X365783Y318135D01*
X365480Y318480D01*
X365135Y318783D01*
X364754Y319038D01*
X364342Y319240D01*
X363908Y319388D01*
X363500Y319469D01*
D02*
G37*
G36*
X362500D02*
X362092Y319388D01*
X361658Y319240D01*
X361246Y319038D01*
X360865Y318783D01*
X360520Y318480D01*
X360217Y318135D01*
X359962Y317754D01*
X359759Y317342D01*
X359612Y316908D01*
X359531Y316500D01*
X362500D01*
Y319469D01*
D02*
G37*
G36*
X334000Y330020D02*
X333906Y330014D01*
X333322Y329898D01*
X332758Y329707D01*
X332224Y329443D01*
X331728Y329112D01*
X331280Y328719D01*
X330888Y328272D01*
X330557Y327777D01*
X330293Y327242D01*
X330102Y326678D01*
X329986Y326094D01*
X329980Y326000D01*
X334000D01*
Y330020D01*
D02*
G37*
G36*
X478500Y341863D02*
X478061Y341834D01*
X477630Y341748D01*
X477213Y341607D01*
X476819Y341412D01*
X476453Y341168D01*
X476122Y340878D01*
X475832Y340547D01*
X475588Y340182D01*
X475393Y339787D01*
X475251Y339370D01*
X475166Y338939D01*
X475137Y338500D01*
X475166Y338061D01*
X475251Y337630D01*
X475393Y337213D01*
X475588Y336818D01*
X475832Y336453D01*
X476122Y336122D01*
X476453Y335832D01*
X476691Y335672D01*
Y326570D01*
X476484Y326328D01*
X476229Y325912D01*
X476043Y325461D01*
X475929Y324987D01*
X475890Y324500D01*
X475929Y324013D01*
X476043Y323539D01*
X476229Y323088D01*
X476484Y322672D01*
X476801Y322301D01*
X477172Y321984D01*
X477588Y321729D01*
X478039Y321543D01*
X478514Y321429D01*
X479000Y321390D01*
X479486Y321429D01*
X479961Y321543D01*
X480412Y321729D01*
X480828Y321984D01*
X481199Y322301D01*
X481516Y322672D01*
X481771Y323088D01*
X481957Y323539D01*
X482071Y324013D01*
X482110Y324500D01*
X482071Y324987D01*
X481957Y325461D01*
X481771Y325912D01*
X481516Y326328D01*
X481199Y326699D01*
X480828Y327016D01*
X480412Y327271D01*
X480309Y327313D01*
Y335672D01*
X480547Y335832D01*
X480878Y336122D01*
X481168Y336453D01*
X481413Y336818D01*
X481607Y337213D01*
X481748Y337630D01*
X481834Y338061D01*
X481863Y338500D01*
X481834Y338939D01*
X481748Y339370D01*
X481607Y339787D01*
X481413Y340182D01*
X481168Y340547D01*
X480878Y340878D01*
X480547Y341168D01*
X480182Y341412D01*
X479787Y341607D01*
X479370Y341748D01*
X478939Y341834D01*
X478500Y341863D01*
D02*
G37*
G36*
X339020Y325000D02*
X335000D01*
Y320980D01*
X335094Y320986D01*
X335678Y321102D01*
X336242Y321293D01*
X336776Y321557D01*
X337272Y321888D01*
X337719Y322281D01*
X338112Y322728D01*
X338443Y323223D01*
X338706Y323758D01*
X338898Y324322D01*
X339014Y324906D01*
X339020Y325000D01*
D02*
G37*
G36*
X487000Y314170D02*
X486824Y314128D01*
X486507Y313997D01*
X486214Y313817D01*
X485953Y313594D01*
X485730Y313333D01*
X485551Y313040D01*
X485521Y312968D01*
X484979D01*
X484949Y313040D01*
X484770Y313333D01*
X484547Y313594D01*
X484286Y313817D01*
X483993Y313997D01*
X483676Y314128D01*
X483500Y314170D01*
Y312047D01*
X482500D01*
Y314170D01*
X482324Y314128D01*
X482007Y313997D01*
X481714Y313817D01*
X481453Y313594D01*
X481230Y313333D01*
X481051Y313040D01*
X481021Y312968D01*
X480479D01*
X480449Y313040D01*
X480270Y313333D01*
X480047Y313594D01*
X479786Y313817D01*
X479493Y313997D01*
X479176Y314128D01*
X479000Y314170D01*
Y312047D01*
X478500D01*
Y311547D01*
X476377D01*
X476419Y311371D01*
X476551Y311054D01*
X476730Y310761D01*
X476953Y310500D01*
X477214Y310277D01*
X477507Y310098D01*
X477579Y310068D01*
Y309527D01*
X477507Y309497D01*
X477214Y309317D01*
X476953Y309094D01*
X476730Y308833D01*
X476551Y308541D01*
X476419Y308223D01*
X476377Y308047D01*
X478500D01*
Y307047D01*
X476377D01*
X476419Y306871D01*
X476551Y306554D01*
X476730Y306261D01*
X476953Y306000D01*
X477214Y305777D01*
X477507Y305598D01*
X477579Y305568D01*
Y305027D01*
X477507Y304997D01*
X477214Y304817D01*
X476953Y304594D01*
X476730Y304333D01*
X476551Y304041D01*
X476419Y303723D01*
X476377Y303547D01*
X478500D01*
Y303047D01*
X479000D01*
Y300924D01*
X479176Y300966D01*
X479493Y301098D01*
X479786Y301277D01*
X480047Y301500D01*
X480270Y301761D01*
X480449Y302054D01*
X480479Y302126D01*
X481021D01*
X481051Y302054D01*
X481230Y301761D01*
X481453Y301500D01*
X481714Y301277D01*
X482007Y301098D01*
X482324Y300966D01*
X482500Y300924D01*
Y303047D01*
X483500D01*
Y300924D01*
X483676Y300966D01*
X483993Y301098D01*
X484286Y301277D01*
X484547Y301500D01*
X484770Y301761D01*
X484949Y302054D01*
X484979Y302126D01*
X485521D01*
X485551Y302054D01*
X485730Y301761D01*
X485953Y301500D01*
X486214Y301277D01*
X486507Y301098D01*
X486824Y300966D01*
X487000Y300924D01*
Y303047D01*
X487500D01*
Y303547D01*
X489623D01*
X489581Y303723D01*
X489449Y304041D01*
X489270Y304333D01*
X489047Y304594D01*
X488786Y304817D01*
X488493Y304997D01*
X488421Y305027D01*
Y305568D01*
X488493Y305598D01*
X488786Y305777D01*
X489047Y306000D01*
X489270Y306261D01*
X489449Y306554D01*
X489581Y306871D01*
X489623Y307047D01*
X487500D01*
Y308047D01*
X489623D01*
X489581Y308223D01*
X489449Y308541D01*
X489270Y308833D01*
X489047Y309094D01*
X488786Y309317D01*
X488493Y309497D01*
X488421Y309527D01*
Y310068D01*
X488493Y310098D01*
X488786Y310277D01*
X489047Y310500D01*
X489270Y310761D01*
X489449Y311054D01*
X489581Y311371D01*
X489623Y311547D01*
X487500D01*
Y312047D01*
X487000D01*
Y314170D01*
D02*
G37*
G36*
X366469Y315500D02*
X363500D01*
Y312531D01*
X363908Y312612D01*
X364342Y312759D01*
X364754Y312962D01*
X365135Y313217D01*
X365480Y313520D01*
X365783Y313865D01*
X366038Y314246D01*
X366241Y314658D01*
X366388Y315092D01*
X366469Y315500D01*
D02*
G37*
G36*
X397500Y314170D02*
Y312547D01*
X399123D01*
X399081Y312723D01*
X398949Y313040D01*
X398770Y313333D01*
X398547Y313594D01*
X398286Y313817D01*
X397993Y313997D01*
X397676Y314128D01*
X397500Y314170D01*
D02*
G37*
G36*
X387500D02*
X387324Y314128D01*
X387007Y313997D01*
X386714Y313817D01*
X386453Y313594D01*
X386230Y313333D01*
X386051Y313040D01*
X385919Y312723D01*
X385877Y312547D01*
X387500D01*
Y314170D01*
D02*
G37*
G36*
X396500D02*
X396324Y314128D01*
X396007Y313997D01*
X395714Y313817D01*
X395453Y313594D01*
X395230Y313333D01*
X395051Y313040D01*
X395021Y312968D01*
X394479D01*
X394449Y313040D01*
X394270Y313333D01*
X394047Y313594D01*
X393786Y313817D01*
X393493Y313997D01*
X393176Y314128D01*
X393000Y314170D01*
Y312047D01*
X392000D01*
Y314170D01*
X391824Y314128D01*
X391507Y313997D01*
X391214Y313817D01*
X390953Y313594D01*
X390730Y313333D01*
X390551Y313040D01*
X390521Y312968D01*
X389979D01*
X389949Y313040D01*
X389770Y313333D01*
X389547Y313594D01*
X389286Y313817D01*
X388993Y313997D01*
X388676Y314128D01*
X388500Y314170D01*
Y312047D01*
X388000D01*
Y311547D01*
X385877D01*
X385919Y311371D01*
X386051Y311054D01*
X386230Y310761D01*
X386453Y310500D01*
X386714Y310277D01*
X387007Y310098D01*
X387079Y310068D01*
Y309527D01*
X387007Y309497D01*
X386714Y309317D01*
X386453Y309094D01*
X386230Y308833D01*
X386051Y308541D01*
X385919Y308223D01*
X385877Y308047D01*
X388000D01*
Y307047D01*
X385877D01*
X385919Y306871D01*
X386051Y306554D01*
X386230Y306261D01*
X386453Y306000D01*
X386714Y305777D01*
X387007Y305598D01*
X387079Y305568D01*
Y305027D01*
X387007Y304997D01*
X386714Y304817D01*
X386453Y304594D01*
X386230Y304333D01*
X386051Y304041D01*
X385919Y303723D01*
X385877Y303547D01*
X388000D01*
Y303047D01*
X388500D01*
Y300924D01*
X388676Y300966D01*
X388993Y301098D01*
X389286Y301277D01*
X389547Y301500D01*
X389770Y301761D01*
X389949Y302054D01*
X389979Y302126D01*
X390521D01*
X390551Y302054D01*
X390730Y301761D01*
X390953Y301500D01*
X391214Y301277D01*
X391507Y301098D01*
X391824Y300966D01*
X392000Y300924D01*
Y303047D01*
X393000D01*
Y300924D01*
X393176Y300966D01*
X393493Y301098D01*
X393786Y301277D01*
X394047Y301500D01*
X394270Y301761D01*
X394449Y302054D01*
X394479Y302126D01*
X395021D01*
X395051Y302054D01*
X395230Y301761D01*
X395453Y301500D01*
X395714Y301277D01*
X396007Y301098D01*
X396324Y300966D01*
X396500Y300924D01*
Y303047D01*
X397000D01*
Y303547D01*
X399123D01*
X399081Y303723D01*
X398949Y304041D01*
X398770Y304333D01*
X398547Y304594D01*
X398286Y304817D01*
X397993Y304997D01*
X397921Y305027D01*
Y305568D01*
X397993Y305598D01*
X398286Y305777D01*
X398547Y306000D01*
X398770Y306261D01*
X398949Y306554D01*
X399081Y306871D01*
X399123Y307047D01*
X397000D01*
Y308047D01*
X399123D01*
X399081Y308223D01*
X398949Y308541D01*
X398770Y308833D01*
X398547Y309094D01*
X398286Y309317D01*
X397993Y309497D01*
X397921Y309527D01*
Y310068D01*
X397993Y310098D01*
X398286Y310277D01*
X398547Y310500D01*
X398770Y310761D01*
X398949Y311054D01*
X399081Y311371D01*
X399123Y311547D01*
X397000D01*
Y312047D01*
X396500D01*
Y314170D01*
D02*
G37*
G36*
X488000D02*
Y312547D01*
X489623D01*
X489581Y312723D01*
X489449Y313040D01*
X489270Y313333D01*
X489047Y313594D01*
X488786Y313817D01*
X488493Y313997D01*
X488176Y314128D01*
X488000Y314170D01*
D02*
G37*
G36*
X478000D02*
X477824Y314128D01*
X477507Y313997D01*
X477214Y313817D01*
X476953Y313594D01*
X476730Y313333D01*
X476551Y313040D01*
X476419Y312723D01*
X476377Y312547D01*
X478000D01*
Y314170D01*
D02*
G37*
%LPD*%
G36*
X449172Y184800D02*
X449089Y184143D01*
X448699Y183801D01*
X448357Y183411D01*
X448069Y182981D01*
X447840Y182516D01*
X447674Y182025D01*
X447573Y181517D01*
X447572Y181500D01*
X451500D01*
Y180500D01*
X447572D01*
X447573Y180483D01*
X447674Y179975D01*
X447840Y179484D01*
X448069Y179019D01*
X448357Y178589D01*
X448699Y178199D01*
X449089Y177857D01*
X449172Y177200D01*
X449097Y177110D01*
X443903D01*
X443828Y177200D01*
X443911Y177857D01*
X444301Y178199D01*
X444643Y178589D01*
X444931Y179019D01*
X445160Y179484D01*
X445326Y179975D01*
X445427Y180483D01*
X445429Y180500D01*
X441500D01*
X437571D01*
X437573Y180483D01*
X437674Y179975D01*
X437840Y179484D01*
X438069Y179019D01*
X438357Y178589D01*
X438699Y178199D01*
X439089Y177857D01*
X439172Y177200D01*
X439097Y177110D01*
X432647D01*
X432564Y177610D01*
X432863Y177711D01*
X433280Y177917D01*
X433667Y178175D01*
X434018Y178482D01*
X434325Y178833D01*
X434583Y179220D01*
X434789Y179638D01*
X434939Y180078D01*
X435030Y180535D01*
X435060Y181000D01*
X435030Y181465D01*
X434939Y181922D01*
X434789Y182362D01*
X434583Y182780D01*
X434325Y183167D01*
X434018Y183518D01*
X433667Y183825D01*
X433280Y184083D01*
X432863Y184289D01*
X432564Y184390D01*
X432647Y184890D01*
X439097D01*
X439172Y184800D01*
X439089Y184143D01*
X438699Y183801D01*
X438357Y183411D01*
X438069Y182981D01*
X437840Y182516D01*
X437674Y182025D01*
X437573Y181517D01*
X437571Y181500D01*
X441500D01*
X445429D01*
X445427Y181517D01*
X445326Y182025D01*
X445160Y182516D01*
X444931Y182981D01*
X444643Y183411D01*
X444301Y183801D01*
X443911Y184143D01*
X443828Y184800D01*
X443903Y184890D01*
X449097D01*
X449172Y184800D01*
D02*
G37*
D20*
X495612Y312388D02*
X498000Y310000D01*
X365500Y322000D02*
X374500Y313000D01*
X495446Y312388D02*
X495612D01*
X492927Y314907D02*
X495446Y312388D01*
X492927Y314907D02*
Y315073D01*
X491000Y317000D02*
X492927Y315073D01*
X498034Y261534D02*
X499000Y262500D01*
X498034Y244719D02*
Y261534D01*
Y244719D02*
X498200Y244553D01*
Y241700D02*
Y244553D01*
X498000Y241500D02*
X498200Y241700D01*
X472719Y313219D02*
X476500Y317000D01*
X472719Y313219D02*
X472771Y313167D01*
X466205D02*
X472771D01*
X469000Y317500D02*
X470500D01*
X468500Y318000D02*
X469000Y317500D01*
X367056Y239989D02*
Y250056D01*
X368500Y251500D01*
X360000Y260000D02*
X368500Y251500D01*
X378000Y318000D02*
X379500Y316500D01*
X510000Y242517D02*
Y259500D01*
X502983Y235500D02*
X510000Y242517D01*
X499000Y235500D02*
X502983D01*
X487596Y260596D02*
X489500Y262500D01*
X487596Y248096D02*
Y260596D01*
X487000Y247500D02*
X487596Y248096D01*
X464678Y239500D02*
X467386Y236793D01*
X471796Y242000D02*
X472071Y241725D01*
X469500Y242000D02*
X471796D01*
X446000Y239500D02*
X464678D01*
X441000D02*
X446000D01*
Y226500D02*
Y239500D01*
X445000Y225500D02*
X446000Y226500D01*
X421500Y225500D02*
X445000D01*
X410500Y236500D02*
X421500Y225500D01*
X407500Y241500D02*
X408500Y242500D01*
X409139Y312361D02*
X429000Y332222D01*
Y334000D01*
X388000Y324000D02*
Y338500D01*
X389000Y325000D02*
X389783D01*
X395500Y324500D02*
X396500D01*
X398000Y326000D01*
X388000Y324000D02*
X389000Y325000D01*
X478500Y324000D02*
Y338500D01*
Y324000D02*
X479000Y324500D01*
X476500Y317000D02*
X491000D01*
X365500Y322000D02*
Y342500D01*
X512500Y325500D02*
Y337000D01*
X498000Y311000D02*
X512500Y325500D01*
X509500Y260000D02*
X510000Y259500D01*
X479500Y248000D02*
X480500Y247000D01*
X408500Y242500D02*
Y262500D01*
X379000Y242000D02*
X380173Y240827D01*
X479500Y248000D02*
Y262500D01*
X389000Y248000D02*
Y262500D01*
Y248000D02*
X390000Y247000D01*
X406500Y317500D02*
X407500Y318500D01*
Y338500D01*
X398000Y326000D02*
Y338500D01*
X378000Y318000D02*
Y338500D01*
X469500Y242000D02*
Y262500D01*
X399000Y250000D02*
Y262500D01*
X396500Y247500D02*
X399000Y250000D01*
X379000Y242000D02*
Y262500D01*
X498000Y318500D02*
Y338500D01*
X486000Y323500D02*
X488500Y326000D01*
Y338500D01*
X468500Y318000D02*
Y338500D01*
D21*
X416000Y313200D02*
X417041Y312159D01*
Y311892D02*
Y312159D01*
X526500Y366000D02*
X531500Y371000D01*
X526500Y333400D02*
Y366000D01*
X534518Y376800D02*
X536777Y374541D01*
X517300Y376800D02*
X534518D01*
X536777Y332377D02*
Y374541D01*
X493700Y289300D02*
X536777Y332377D01*
X478843Y375870D02*
X486630D01*
X476817Y373844D02*
X478843Y375870D01*
X476817Y357417D02*
Y373844D01*
X420200Y300800D02*
X476817Y357417D01*
X417065Y306563D02*
X466338Y355836D01*
Y365839D02*
X471500Y371000D01*
X466338Y355836D02*
Y365839D01*
X486630Y375870D02*
X491500Y371000D01*
X504989Y377510D02*
X511500Y371000D01*
X453910Y377510D02*
X504989D01*
X452300Y375900D02*
X453910Y377510D01*
X415953Y186000D02*
X526500D01*
X363456Y238497D02*
X415953Y186000D01*
X363456Y238497D02*
Y238713D01*
X355669Y246500D02*
X363456Y238713D01*
X301500Y246500D02*
X355669D01*
X513173Y172673D02*
X521500Y181000D01*
X386727Y172673D02*
X513173D01*
X362400Y197000D02*
X386727Y172673D01*
X498000Y310000D02*
Y310500D01*
Y311000D01*
X426500Y176000D02*
X474000D01*
X421500Y181000D02*
X426500Y176000D01*
X516000Y365547D02*
X516500Y366047D01*
Y376000D01*
X517300Y376800D01*
X486953Y365547D02*
X516000D01*
X408100Y306563D02*
X417065D01*
X401547Y365547D02*
X443047D01*
X400500Y364500D02*
X401547Y365547D01*
X400500Y357600D02*
Y364500D01*
X360500Y374500D02*
X362500Y376500D01*
X360500Y368000D02*
Y374500D01*
X334500Y342000D02*
X360500Y368000D01*
X362500Y376500D02*
X430000D01*
X435500Y371000D01*
X374000Y313000D02*
X374500D01*
X424000Y280700D02*
X450800Y307500D01*
X424000Y265500D02*
Y280700D01*
X420200Y243400D02*
Y300800D01*
X416000Y313200D02*
X452300Y349500D01*
X455000Y307500D02*
Y324000D01*
Y292500D02*
Y307500D01*
X450800D02*
X455000D01*
Y292500D02*
X457500Y290000D01*
X417453Y181000D02*
X421500D01*
X361953Y236500D02*
X417453Y181000D01*
X301500Y236500D02*
X361953D01*
X445500Y368000D02*
Y371000D01*
X443047Y365547D02*
X445500Y368000D01*
X383000Y340100D02*
X400500Y357600D01*
X383000Y324900D02*
Y340100D01*
X526500Y186000D02*
X531500Y181000D01*
X424400Y231300D02*
X526500Y333400D01*
X481500Y371000D02*
X486953Y365547D01*
X493700Y252200D02*
Y289300D01*
X452300Y349500D02*
Y375900D01*
D22*
X431500Y191000D02*
D03*
X441500D02*
D03*
X451500D02*
D03*
X521500D02*
D03*
X511500D02*
D03*
X501500D02*
D03*
X491500D02*
D03*
X481500D02*
D03*
X451500Y181000D02*
D03*
X441500D02*
D03*
X431500D02*
D03*
X421500D02*
D03*
X411500D02*
D03*
X401500D02*
D03*
X391500D02*
D03*
X521500D02*
D03*
X511500D02*
D03*
X501500D02*
D03*
X491500D02*
D03*
X481500D02*
D03*
X435500Y361000D02*
D03*
X425500D02*
D03*
X415500D02*
D03*
X405500D02*
D03*
X395500D02*
D03*
X385500D02*
D03*
X375500D02*
D03*
X521500D02*
D03*
X511500D02*
D03*
X501500D02*
D03*
X491500D02*
D03*
X481500D02*
D03*
X471500D02*
D03*
X461500D02*
D03*
X425500Y371000D02*
D03*
X355500D02*
D03*
X365500D02*
D03*
X375500D02*
D03*
X385500D02*
D03*
X395500D02*
D03*
X405500D02*
D03*
X415500D02*
D03*
X435500D02*
D03*
X521500D02*
D03*
X511500D02*
D03*
X501500D02*
D03*
X491500D02*
D03*
X481500D02*
D03*
X471500D02*
D03*
X461500D02*
D03*
D23*
Y191000D02*
D03*
X531500D02*
D03*
X461500Y181000D02*
D03*
X531500D02*
D03*
X445500Y361000D02*
D03*
X531500D02*
D03*
X445500Y371000D02*
D03*
X531500D02*
D03*
D24*
X302000Y295000D02*
D03*
X302500Y354500D02*
D03*
D25*
X302000Y275000D02*
D03*
X302500Y334500D02*
D03*
D26*
X408500Y262500D02*
D03*
X389000D02*
D03*
X399000D02*
D03*
X499000D02*
D03*
X479500D02*
D03*
X489500D02*
D03*
X407500Y338500D02*
D03*
X388000D02*
D03*
X398000D02*
D03*
X498000D02*
D03*
X478500D02*
D03*
X488500D02*
D03*
D27*
X379000Y262500D02*
D03*
X469500D02*
D03*
X378000Y338500D02*
D03*
X468500D02*
D03*
D28*
X301500Y246500D02*
D03*
X334500Y352000D02*
D03*
Y325500D02*
D03*
Y299000D02*
D03*
D29*
X301500Y236500D02*
D03*
X334500Y342000D02*
D03*
Y315500D02*
D03*
Y289000D02*
D03*
D30*
X497227Y316688D02*
D03*
X502334Y246500D02*
D03*
X417041Y311892D02*
D03*
X470500Y317500D02*
D03*
X466205Y313167D02*
D03*
X367056Y239989D02*
D03*
X379500Y316500D02*
D03*
X467386Y236793D02*
D03*
X472071Y241725D02*
D03*
X410500Y236500D02*
D03*
X407500Y241500D02*
D03*
X498000Y310500D02*
D03*
X409139Y312361D02*
D03*
X429000Y334000D02*
D03*
X408100Y306563D02*
D03*
X374000Y313000D02*
D03*
X389783Y325000D02*
D03*
X395500Y324500D02*
D03*
X479000D02*
D03*
X424000Y265500D02*
D03*
X430500Y205500D02*
D03*
X452000Y244500D02*
D03*
X389500Y201000D02*
D03*
X374000Y250256D02*
D03*
X410500Y289000D02*
D03*
X499500Y209000D02*
D03*
Y286000D02*
D03*
X406500Y210500D02*
D03*
X365500Y342500D02*
D03*
X363000Y316000D02*
D03*
X433500Y303500D02*
D03*
X460547Y331453D02*
D03*
X455000Y324000D02*
D03*
X512500Y337000D02*
D03*
X441000Y239500D02*
D03*
X509500Y260000D02*
D03*
X487000Y247500D02*
D03*
X480500Y247000D02*
D03*
X499000Y235500D02*
D03*
X360000Y260000D02*
D03*
X380173Y240827D02*
D03*
X457500Y290000D02*
D03*
X383000Y324900D02*
D03*
X420200Y243400D02*
D03*
X424400Y231300D02*
D03*
X493700Y252200D02*
D03*
X390000Y247000D02*
D03*
X406500Y317500D02*
D03*
X498000Y241500D02*
D03*
X396500Y247500D02*
D03*
X486000Y323500D02*
D03*
D31*
X362400Y197000D02*
D03*
X398000Y236047D02*
D03*
Y231547D02*
D03*
Y227047D02*
D03*
X393500D02*
D03*
X389000D02*
D03*
Y231547D02*
D03*
X393500Y236047D02*
D03*
Y231547D02*
D03*
X389000Y236047D02*
D03*
X488500D02*
D03*
Y231547D02*
D03*
Y227047D02*
D03*
X484000D02*
D03*
X479500D02*
D03*
Y231547D02*
D03*
X484000Y236047D02*
D03*
Y231547D02*
D03*
X479500Y236047D02*
D03*
X397000Y312047D02*
D03*
Y307547D02*
D03*
Y303047D02*
D03*
X392500D02*
D03*
X388000D02*
D03*
Y307547D02*
D03*
X392500Y312047D02*
D03*
Y307547D02*
D03*
X388000Y312047D02*
D03*
X487500D02*
D03*
Y307547D02*
D03*
Y303047D02*
D03*
X483000D02*
D03*
X478500D02*
D03*
Y307547D02*
D03*
X483000Y312047D02*
D03*
Y307547D02*
D03*
X478500Y312047D02*
D03*
X474000Y176000D02*
D03*
M02*
