G04 Layer_Color=8388736*
%FSLAX44Y44*%
%MOMM*%
G71*
G01*
G75*
%ADD37R,1.8032X3.4032*%
%ADD38R,4.3532X1.2532*%
%ADD39R,9.0032X9.8032*%
%ADD40R,1.1032X0.9032*%
%ADD41R,1.1032X1.0032*%
%ADD42R,1.0032X1.1032*%
%ADD43R,0.9032X1.1032*%
%ADD44R,3.6032X3.6032*%
%ADD45R,0.4532X1.2032*%
%ADD46R,1.2032X0.4532*%
%ADD47R,2.0032X2.0032*%
%ADD48C,2.0032*%
%ADD49C,1.6032*%
%ADD50R,1.6032X1.6032*%
%ADD51C,2.1032*%
%ADD52R,2.1032X2.1032*%
%ADD53C,1.7032*%
%ADD54R,1.7032X1.7032*%
%ADD55C,0.8032*%
%ADD56C,1.4732*%
D37*
X871220Y617220D02*
D03*
Y668020D02*
D03*
X1337310Y742950D02*
D03*
Y793750D02*
D03*
X1099820Y744220D02*
D03*
Y795020D02*
D03*
X1336040Y547370D02*
D03*
Y598170D02*
D03*
X1102360Y552450D02*
D03*
Y603250D02*
D03*
D38*
X876700Y500380D02*
D03*
Y551180D02*
D03*
D39*
X774700Y525780D02*
D03*
D40*
X910590Y515740D02*
D03*
Y530740D02*
D03*
X896620Y875270D02*
D03*
Y890270D02*
D03*
X1239520Y731400D02*
D03*
Y716400D02*
D03*
X1012190Y538360D02*
D03*
Y523360D02*
D03*
X1242060Y538360D02*
D03*
Y523360D02*
D03*
X896620Y754260D02*
D03*
Y739260D02*
D03*
Y821570D02*
D03*
Y806570D02*
D03*
X1009650Y731400D02*
D03*
Y716400D02*
D03*
D41*
X1214120Y729600D02*
D03*
Y743600D02*
D03*
X1201420Y743600D02*
D03*
Y729600D02*
D03*
X1187450Y752460D02*
D03*
Y766460D02*
D03*
X986790Y536560D02*
D03*
Y550560D02*
D03*
X974090Y550560D02*
D03*
Y536560D02*
D03*
X959723Y557048D02*
D03*
Y571048D02*
D03*
X1216660Y536560D02*
D03*
Y550560D02*
D03*
X1203960Y550560D02*
D03*
Y536560D02*
D03*
X1189810Y557407D02*
D03*
Y571407D02*
D03*
X957392Y749185D02*
D03*
Y763185D02*
D03*
X971550Y743600D02*
D03*
Y729600D02*
D03*
X984250Y729600D02*
D03*
Y743600D02*
D03*
D42*
X1158860Y798830D02*
D03*
X1172860D02*
D03*
X1278270Y755650D02*
D03*
X1264270D02*
D03*
X944950Y599589D02*
D03*
X958950D02*
D03*
X1050940Y562610D02*
D03*
X1036940D02*
D03*
X1160130Y598170D02*
D03*
X1174130D02*
D03*
X1280810Y562610D02*
D03*
X1266810D02*
D03*
X1048400Y755650D02*
D03*
X1034400D02*
D03*
X925180Y793750D02*
D03*
X939180D02*
D03*
D43*
X1259720Y742950D02*
D03*
X1244720D02*
D03*
X1189870Y779780D02*
D03*
X1174870D02*
D03*
X1183610Y816005D02*
D03*
X1168610D02*
D03*
X1247260Y819150D02*
D03*
X1262260D02*
D03*
X1032390Y549910D02*
D03*
X1017390D02*
D03*
X962540Y586740D02*
D03*
X947540D02*
D03*
X955711Y622620D02*
D03*
X940711D02*
D03*
X1019930Y626110D02*
D03*
X1034930D02*
D03*
X1262260Y549910D02*
D03*
X1247260D02*
D03*
X1192410Y586740D02*
D03*
X1177410D02*
D03*
X1187330Y622300D02*
D03*
X1172330D02*
D03*
X1249800Y626110D02*
D03*
X1264800D02*
D03*
X1017390Y819150D02*
D03*
X1032390D02*
D03*
X954920Y815340D02*
D03*
X939920D02*
D03*
X956192Y775979D02*
D03*
X941192D02*
D03*
X1029850Y742950D02*
D03*
X1014850D02*
D03*
D44*
X999490Y588130D02*
D03*
X1229360D02*
D03*
X996950Y781170D02*
D03*
X1226820D02*
D03*
D45*
X981990Y613130D02*
D03*
X986990D02*
D03*
X991990D02*
D03*
X996990D02*
D03*
X1001990D02*
D03*
X1006990D02*
D03*
X1011990D02*
D03*
X1016990D02*
D03*
Y563130D02*
D03*
X1011990D02*
D03*
X1006990D02*
D03*
X1001990D02*
D03*
X996990D02*
D03*
X991990D02*
D03*
X986990D02*
D03*
X981990D02*
D03*
X1211860Y613130D02*
D03*
X1216860D02*
D03*
X1221860D02*
D03*
X1226860D02*
D03*
X1231860D02*
D03*
X1236860D02*
D03*
X1241860D02*
D03*
X1246860D02*
D03*
Y563130D02*
D03*
X1241860D02*
D03*
X1236860D02*
D03*
X1231860D02*
D03*
X1226860D02*
D03*
X1221860D02*
D03*
X1216860D02*
D03*
X1211860D02*
D03*
X979450Y806170D02*
D03*
X984450D02*
D03*
X989450D02*
D03*
X994450D02*
D03*
X999450D02*
D03*
X1004450D02*
D03*
X1009450D02*
D03*
X1014450D02*
D03*
Y756170D02*
D03*
X1009450D02*
D03*
X1004450D02*
D03*
X999450D02*
D03*
X994450D02*
D03*
X989450D02*
D03*
X984450D02*
D03*
X979450D02*
D03*
X1209320Y806170D02*
D03*
X1214320D02*
D03*
X1219320D02*
D03*
X1224320D02*
D03*
X1229320D02*
D03*
X1234320D02*
D03*
X1239320D02*
D03*
X1244320D02*
D03*
Y756170D02*
D03*
X1239320D02*
D03*
X1234320D02*
D03*
X1229320D02*
D03*
X1224320D02*
D03*
X1219320D02*
D03*
X1214320D02*
D03*
X1209320D02*
D03*
D46*
X1024490Y605630D02*
D03*
Y600630D02*
D03*
Y595630D02*
D03*
Y590630D02*
D03*
Y585630D02*
D03*
Y580630D02*
D03*
Y575630D02*
D03*
Y570630D02*
D03*
X974490D02*
D03*
Y575630D02*
D03*
Y580630D02*
D03*
Y585630D02*
D03*
Y590630D02*
D03*
Y595630D02*
D03*
Y600630D02*
D03*
Y605630D02*
D03*
X1254360D02*
D03*
Y600630D02*
D03*
Y595630D02*
D03*
Y590630D02*
D03*
Y585630D02*
D03*
Y580630D02*
D03*
Y575630D02*
D03*
Y570630D02*
D03*
X1204360D02*
D03*
Y575630D02*
D03*
Y580630D02*
D03*
Y585630D02*
D03*
Y590630D02*
D03*
Y595630D02*
D03*
Y600630D02*
D03*
Y605630D02*
D03*
X1021950Y798670D02*
D03*
Y793670D02*
D03*
Y788670D02*
D03*
Y783670D02*
D03*
Y778670D02*
D03*
Y773670D02*
D03*
Y768670D02*
D03*
Y763670D02*
D03*
X971950D02*
D03*
Y768670D02*
D03*
Y773670D02*
D03*
Y778670D02*
D03*
Y783670D02*
D03*
Y788670D02*
D03*
Y793670D02*
D03*
Y798670D02*
D03*
X1251820D02*
D03*
Y793670D02*
D03*
Y788670D02*
D03*
Y783670D02*
D03*
Y778670D02*
D03*
Y773670D02*
D03*
Y768670D02*
D03*
Y763670D02*
D03*
X1201820D02*
D03*
Y768670D02*
D03*
Y773670D02*
D03*
Y778670D02*
D03*
Y783670D02*
D03*
Y788670D02*
D03*
Y793670D02*
D03*
Y798670D02*
D03*
D47*
X849630Y734060D02*
D03*
Y801370D02*
D03*
Y868680D02*
D03*
X765810Y600710D02*
D03*
D48*
X849630Y759460D02*
D03*
Y826770D02*
D03*
Y894080D02*
D03*
X765810Y626110D02*
D03*
D49*
X1240790Y859790D02*
D03*
X1215390D02*
D03*
X1264920D02*
D03*
X1010920D02*
D03*
X985520D02*
D03*
X1035050D02*
D03*
X1243330Y666750D02*
D03*
X1217930D02*
D03*
X1267460D02*
D03*
X1013460D02*
D03*
X988060D02*
D03*
X1037590D02*
D03*
D50*
X1189990Y859790D02*
D03*
X960120D02*
D03*
X1192530Y666750D02*
D03*
X962660D02*
D03*
D51*
X768350Y849630D02*
D03*
X767080Y698500D02*
D03*
D52*
X768350Y900430D02*
D03*
X767080Y749300D02*
D03*
D53*
X1096010Y485140D02*
D03*
X1121410D02*
D03*
X1146810D02*
D03*
X1324610D02*
D03*
X1299210D02*
D03*
X1273810D02*
D03*
X1248410D02*
D03*
X1223010D02*
D03*
X1146810Y459740D02*
D03*
X1121410D02*
D03*
X1096010D02*
D03*
X1070610D02*
D03*
X1045210D02*
D03*
X1019810D02*
D03*
X994410D02*
D03*
X1324610D02*
D03*
X1299210D02*
D03*
X1273810D02*
D03*
X1248410D02*
D03*
X1223010D02*
D03*
X1106170Y916940D02*
D03*
X1080770D02*
D03*
X1055370D02*
D03*
X1029970D02*
D03*
X1004570D02*
D03*
X979170D02*
D03*
X953770D02*
D03*
X1324610D02*
D03*
X1299210D02*
D03*
X1273810D02*
D03*
X1248410D02*
D03*
X1223010D02*
D03*
X1197610D02*
D03*
X1172210D02*
D03*
X1080770Y942340D02*
D03*
X902970D02*
D03*
X928370D02*
D03*
X953770D02*
D03*
X979170D02*
D03*
X1004570D02*
D03*
X1029970D02*
D03*
X1055370D02*
D03*
X1106170D02*
D03*
X1324610D02*
D03*
X1299210D02*
D03*
X1273810D02*
D03*
X1248410D02*
D03*
X1223010D02*
D03*
X1197610D02*
D03*
X1172210D02*
D03*
D54*
Y485140D02*
D03*
X1350010D02*
D03*
X1172210Y459740D02*
D03*
X1350010D02*
D03*
X1131570Y916940D02*
D03*
X1350010D02*
D03*
X1131570Y942340D02*
D03*
X1350010D02*
D03*
D55*
X1215390Y792600D02*
D03*
X1226820D02*
D03*
X1238250Y781170D02*
D03*
X1215390Y769740D02*
D03*
X1226820D02*
D03*
Y781170D02*
D03*
X1215390D02*
D03*
X1238250Y792600D02*
D03*
X1010920Y599560D02*
D03*
Y588130D02*
D03*
Y576700D02*
D03*
X999490D02*
D03*
X988060D02*
D03*
Y588130D02*
D03*
X999490Y599560D02*
D03*
Y588130D02*
D03*
X988060Y599560D02*
D03*
X1240790D02*
D03*
Y588130D02*
D03*
Y576700D02*
D03*
X1229360D02*
D03*
X1217930D02*
D03*
Y588130D02*
D03*
X1229360Y599560D02*
D03*
Y588130D02*
D03*
X1217930Y599560D02*
D03*
X1008380Y792600D02*
D03*
Y781170D02*
D03*
Y769740D02*
D03*
X996950D02*
D03*
X985520D02*
D03*
Y781170D02*
D03*
X996950Y792600D02*
D03*
Y781170D02*
D03*
X985520Y792600D02*
D03*
X1238250Y769740D02*
D03*
D56*
X1042670Y600710D02*
D03*
X1264920Y788670D02*
D03*
X1039213Y793397D02*
D03*
X1089660Y848360D02*
D03*
M02*
