G04 Layer_Physical_Order=4*
G04 Layer_Color=16711680*
%FSLAX44Y44*%
%MOMM*%
G71*
G01*
G75*
%ADD19C,0.2540*%
%ADD20C,0.6096*%
%ADD21C,0.0254*%
%ADD22C,0.0127*%
%ADD23C,1.7000*%
%ADD24R,1.6000X1.6000*%
%ADD25C,1.5000*%
%ADD26R,1.5000X1.5000*%
%ADD27R,1.8000X1.8000*%
%ADD28C,1.9000*%
%ADD29C,1.4000*%
%ADD30R,1.2000X1.2000*%
%ADD31C,1.2700*%
D19*
X1153668Y951498D02*
X1158360Y956190D01*
X1183760D01*
X1197610Y942340D01*
X1379474Y677808D02*
Y815340D01*
X1339850Y902462D02*
Y927100D01*
X1324610Y942340D02*
X1339850Y927100D01*
X917956Y818642D02*
X960508D01*
X1041520Y956190D02*
X1067794Y957072D01*
X1080770Y942340D01*
X1086104Y962406D02*
X1106170Y942340D01*
X1024128Y962406D02*
X1086104D01*
X1015238Y953516D02*
X1024128Y962406D01*
X922140Y900550D02*
X928370Y906780D01*
X1037336Y785368D02*
X1061466D01*
X918464Y846582D02*
X953516D01*
X909066Y837184D02*
X918464Y846582D01*
X909066Y812800D02*
Y837184D01*
Y812800D02*
X927608Y794258D01*
X1219200Y677418D02*
X1231900Y690118D01*
X1207516Y677418D02*
X1219200D01*
X1121410Y914400D02*
Y932180D01*
X1076452Y775208D02*
X1087374Y761238D01*
X1098296D01*
X1336040Y899668D02*
Y922528D01*
X1331468Y927100D02*
X1336040Y922528D01*
X1292352Y927100D02*
X1331468D01*
X1288034Y931418D02*
X1292352Y927100D01*
X1288034Y931418D02*
Y945642D01*
X1281176Y952500D02*
X1288034Y945642D01*
X1265936Y952500D02*
X1281176D01*
X1260348Y946912D02*
X1265936Y952500D01*
X1260348Y936752D02*
Y946912D01*
X1255776Y932180D02*
X1260348Y936752D01*
X1233170Y932180D02*
X1255776D01*
X1223010Y942340D02*
X1233170Y932180D01*
X1261618Y820928D02*
Y836168D01*
X1262126Y930656D02*
X1273810Y942340D01*
X859790Y734060D02*
X898398Y772668D01*
X1121410Y932180D02*
X1131570Y942340D01*
X1065530Y941070D02*
X1074420Y932180D01*
X1065530Y941070D02*
Y952246D01*
X1065276Y952500D02*
X1065530Y952246D01*
X1045584Y952500D02*
X1065276D01*
X1045330Y952246D02*
X1045584Y952500D01*
X1182310Y900662D02*
Y932240D01*
X1172210Y942340D02*
X1182310Y932240D01*
X1162170Y875630D02*
Y950214D01*
X1164336Y952380D01*
X1176782D01*
X1182250Y946912D01*
Y939920D02*
Y946912D01*
Y939920D02*
X1189990Y932180D01*
X1202944D01*
X1207770Y937006D01*
Y942848D01*
X1217422Y952500D01*
X1238250D01*
X1248410Y942340D01*
X1025652Y586994D02*
X1108964D01*
X1207740Y574802D02*
X1357510D01*
X1300226Y593090D02*
X1377442D01*
X1056894Y473456D02*
X1070610Y459740D01*
X852424Y473456D02*
X1056894D01*
X750570Y575310D02*
X852424Y473456D01*
X1144778Y910336D02*
Y950976D01*
X1153802Y960000D01*
X1281550D01*
X1299210Y942340D01*
X859790Y788035D02*
X880745Y808990D01*
X750570Y600710D02*
X838708Y512572D01*
X1328420D01*
X1337056Y503936D01*
Y472694D02*
Y503936D01*
Y472694D02*
X1350010Y459740D01*
X859790Y842010D02*
X889374D01*
X1311910Y472440D02*
X1324610Y459740D01*
X1311910Y472440D02*
Y487680D01*
X1303020Y496570D02*
X1311910Y487680D01*
X971111Y496570D02*
X1303020D01*
X1009904Y754888D02*
X1052450D01*
X992886Y765810D02*
X995426Y768350D01*
X1055370Y942340D02*
X1069220Y928490D01*
X1052450Y754888D02*
X1056768Y750570D01*
X1100582D01*
X1128867Y730250D02*
X1130172D01*
X1135380Y735458D01*
Y736763D01*
X1173480Y885952D02*
X1189990D01*
X1100582Y750570D02*
X1139571Y789559D01*
X898398Y772668D02*
X1056640D01*
X1069220Y785248D01*
X995426Y768350D02*
X1064132D01*
X1064640Y767842D01*
X1069086D01*
X1076452Y775208D01*
X927608Y794258D02*
X1055624D01*
X1061466Y785368D02*
X1064514Y788416D01*
Y827024D01*
X1086395Y777203D02*
X1115568Y806376D01*
X1245996Y750316D02*
X1321460D01*
X1247648Y806958D02*
X1261618Y820928D01*
X1135380Y736763D02*
X1219288Y820671D01*
X1170940Y751332D02*
X1213358Y793750D01*
X1170686Y750316D02*
X1217804D01*
X1257808Y789178D02*
X1271778Y803148D01*
X1208659Y772287D02*
X1225550Y789178D01*
X1237054D01*
X1213358Y793750D02*
X1244854D01*
X1249426Y789178D01*
X1257808D01*
X1253564Y798068D02*
X1275535Y820039D01*
X1230122Y806958D02*
X1247648D01*
X1217804Y750316D02*
X1228218Y760730D01*
X1235582D01*
X1245996Y750316D01*
X1182310Y900662D02*
X1234612Y848360D01*
X1267460Y865012D02*
Y866012D01*
X1236551Y896921D02*
X1267460Y866012D01*
X1205230Y896921D02*
X1236551D01*
X1364742Y784860D02*
X1365250Y785368D01*
X1237054Y789178D02*
X1241372Y784860D01*
X1281302Y878840D02*
X1286510Y873632D01*
Y870712D02*
Y873632D01*
X1188466Y636778D02*
X1212850D01*
X1169162Y639064D02*
X1207516Y677418D01*
X1133602Y644652D02*
X1149858Y660908D01*
X1231900Y690118D02*
Y694690D01*
X1304290Y666496D02*
Y681862D01*
X1212850Y636778D02*
X1236218Y660146D01*
X1267460Y678180D02*
X1308100Y637540D01*
X1267460Y678180D02*
Y698500D01*
X1329046Y627380D02*
X1379474Y677808D01*
X1291844Y601472D02*
Y616458D01*
Y601472D02*
X1300226Y593090D01*
X1317109Y612716D02*
X1366080D01*
X1333500Y642748D02*
Y663448D01*
X1328292Y637540D02*
X1333500Y642748D01*
X1324356Y646430D02*
X1324610D01*
X1308100Y637540D02*
X1328292D01*
X1303206Y626618D02*
X1317109Y612716D01*
X1318260Y627380D02*
X1329046D01*
X1304290Y666496D02*
X1324356Y646430D01*
X1340046Y656217D02*
Y656902D01*
X1320672Y689610D02*
X1374140Y743078D01*
X1312038Y689610D02*
X1320672D01*
X1304290Y681862D02*
X1312038Y689610D01*
X1333500Y663448D02*
X1340046Y656902D01*
X1374140Y743078D02*
Y812292D01*
X1076452Y611124D02*
X1081024Y606552D01*
X1076452Y611124D02*
Y626618D01*
X1088898Y639064D01*
X1108964Y586994D02*
X1123950Y601980D01*
X1120902Y616712D02*
X1272740D01*
X1110742Y606552D02*
X1120902Y616712D01*
X1081024Y606552D02*
X1110742D01*
X1096772Y626618D02*
X1303206D01*
X1113028Y642874D02*
X1114806Y644652D01*
X1133602D01*
X1105916Y667894D02*
X1109980Y671958D01*
X1040384Y720852D02*
X1065276D01*
X1088898Y639064D02*
X1169162D01*
X1097026Y642874D02*
X1113028D01*
X1105916Y651764D02*
Y667894D01*
X1065276Y720852D02*
X1078992Y707136D01*
Y706754D02*
Y707136D01*
X1070610Y669290D02*
X1097026Y642874D01*
X1055624Y616458D02*
Y684404D01*
X1070610Y698372D02*
X1078992Y706754D01*
X1109980Y671958D02*
Y679322D01*
X1105916Y683386D02*
X1109980Y679322D01*
X1105916Y683386D02*
Y685800D01*
Y706246D02*
Y707299D01*
X1128867Y730250D01*
X1105916Y685800D02*
X1111250Y691134D01*
Y700912D01*
X1105916Y706246D02*
X1111250Y700912D01*
X992886Y707516D02*
Y765810D01*
X1027000Y665050D02*
X1027430Y665480D01*
X1070610Y669290D02*
Y698372D01*
X1051560Y688468D02*
Y694944D01*
Y688468D02*
X1055624Y684404D01*
X1022350Y702818D02*
X1040384Y720852D01*
X996950Y691040D02*
Y703452D01*
X992886Y707516D02*
X996950Y703452D01*
X1022350Y670560D02*
X1027430Y665480D01*
X1022350Y670560D02*
Y702818D01*
X1031240Y688212D02*
X1040130Y679322D01*
X1044194Y702310D02*
X1051560Y694944D01*
X1031240Y688212D02*
Y689610D01*
X1036320Y668148D02*
X1040130Y671958D01*
Y679322D01*
X1027000Y665050D02*
X1030450Y661601D01*
Y656683D02*
Y661601D01*
Y656683D02*
Y657540D01*
X1039340Y653001D02*
Y660366D01*
X1036320Y663385D02*
X1039340Y660366D01*
X1036320Y663385D02*
Y668148D01*
X1033780Y623570D02*
Y647441D01*
X1039340Y653001D01*
X996950Y691040D02*
X1030450Y657540D01*
X1168600Y831542D02*
X1170832Y829310D01*
X1242060D01*
X1238378Y820420D02*
X1245742D01*
X1238127Y820671D02*
X1238378Y820420D01*
X1219288Y820671D02*
X1238127D01*
X1245742Y820420D02*
X1250950Y825628D01*
X1245742Y838200D02*
X1250950Y832992D01*
Y825628D02*
Y832992D01*
X1199600Y838200D02*
X1245742D01*
X1255776Y842010D02*
X1261618Y836168D01*
X1233932Y842010D02*
X1255776D01*
X1235710Y854582D02*
X1240918Y859790D01*
X1259868Y848460D02*
X1262290D01*
X1240918Y859790D02*
X1248538D01*
X1234612Y848360D02*
X1235710Y849458D01*
Y854582D01*
X1248538Y859790D02*
X1259868Y848460D01*
X1189990Y885952D02*
X1233932Y842010D01*
X1162170Y875630D02*
X1174200Y863600D01*
X1180972D01*
X1186180Y858392D01*
Y851620D02*
Y858392D01*
Y851620D02*
X1199600Y838200D01*
X1135126Y900684D02*
X1144778Y910336D01*
X1138682Y854710D02*
X1153668Y869696D01*
X1098296Y761238D02*
X1168600Y831542D01*
X1074420Y932180D02*
X1121410D01*
X953516Y846582D02*
X1001776Y894842D01*
X1045330Y895470D02*
Y952246D01*
X1025398Y866140D02*
X1064514Y827024D01*
X1021080Y866140D02*
X1025398D01*
X1076452Y775208D02*
Y861641D01*
X1113790Y906780D02*
X1121410Y914400D01*
X1115568Y806376D02*
Y834390D01*
X1069220Y785248D02*
Y859798D01*
X1153668Y869696D02*
Y951498D01*
X1125092Y901700D02*
X1126108Y900684D01*
X1135126D01*
X1121410Y887984D02*
Y892810D01*
X1112520Y880872D02*
X1138682Y854710D01*
X1056640Y867538D02*
Y874902D01*
Y867538D02*
X1061848Y862330D01*
X1069212D01*
X1116210Y912781D02*
Y921099D01*
X1110329Y926980D02*
X1116210Y921099D01*
X1102011Y926980D02*
X1110329D01*
X1096130Y921099D02*
X1102011Y926980D01*
X1107312Y901700D02*
X1125092D01*
X1098422Y892810D02*
X1107312Y901700D01*
X1113790Y906780D02*
Y910361D01*
X1116210Y912781D01*
X1096130Y915662D02*
Y921099D01*
X1073150Y892682D02*
X1096130Y915662D01*
X1106298Y890270D02*
X1113662D01*
X1115948Y887984D01*
X1121410D01*
X960508Y818642D02*
X1022350Y880484D01*
Y885062D01*
X1031240Y881380D02*
X1045330Y895470D01*
X928370Y906780D02*
X1014730D01*
X1015238Y907288D01*
Y953516D01*
X1022350Y885062D02*
X1027558Y890270D01*
X1032136D01*
X1041520Y899654D01*
Y956190D01*
X1056640Y874902D02*
X1061848Y880110D01*
X1096010Y879982D02*
X1106298Y890270D01*
X1076960Y880238D02*
X1082168Y875030D01*
X1069220Y859798D02*
X1075690Y866268D01*
X1073150D02*
X1075690D01*
X1069212Y862330D02*
X1073150Y866268D01*
X1076452Y861641D02*
X1079500Y864689D01*
Y872309D01*
X1073150Y878660D02*
X1079500Y872309D01*
X1061848Y880110D02*
X1069212D01*
X1069220Y880102D01*
Y928490D01*
X1073150Y878660D02*
Y892682D01*
X1076960Y880238D02*
Y887602D01*
X1082168Y892810D01*
X1098422D01*
X1092072Y875030D02*
X1092200Y875158D01*
X1082168Y875030D02*
X1092072D01*
X1109980Y878332D02*
Y881380D01*
Y878332D02*
X1112520Y880872D01*
X1096772Y805180D02*
Y841248D01*
X1102488Y845820D02*
X1104138D01*
X1115568Y834390D01*
X1085850Y867590D02*
X1092200Y873941D01*
Y875158D01*
X1085850Y852170D02*
Y867590D01*
X1089660Y858648D02*
Y866012D01*
Y858648D02*
X1102488Y845820D01*
X1096010Y872362D02*
Y879982D01*
X1089660Y866012D02*
X1096010Y872362D01*
X1085850Y852170D02*
X1096772Y841248D01*
X1278382Y878840D02*
X1281302D01*
X1262126Y895096D02*
Y930656D01*
Y895096D02*
X1278382Y878840D01*
X1271016Y901700D02*
X1296924Y875792D01*
X1350010Y942340D02*
X1383284Y909066D01*
X1366080Y612716D02*
X1383284Y629920D01*
X1358050Y836764D02*
X1379474Y815340D01*
X1383284Y629920D02*
Y909066D01*
X1339850Y902462D02*
X1358050Y884262D01*
X1336040Y899668D02*
X1354240Y881468D01*
Y832192D02*
X1374140Y812292D01*
X1343159Y806457D02*
Y862323D01*
X1358050Y836764D02*
Y884262D01*
X1354240Y832192D02*
Y881468D01*
X1350430Y807897D02*
Y868183D01*
X1296924Y875792D02*
X1302740D01*
X1286510Y870712D02*
X1304798Y852424D01*
X1321460Y750316D02*
X1345590Y774446D01*
X1241372Y784860D02*
X1364742D01*
X1291590Y793750D02*
X1336283D01*
X1350430Y807897D01*
X1271778Y803148D02*
X1307592D01*
X1310132Y800608D01*
X1337310D01*
X1343159Y806457D01*
X1304798Y852424D02*
X1316102D01*
X1318388Y854710D01*
X1282710Y828040D02*
X1323340D01*
X1327022Y819150D02*
X1332230Y824358D01*
X1319658Y819150D02*
X1327022D01*
X1318769Y820039D02*
X1319658Y819150D01*
X1275535Y820039D02*
X1318769D01*
X1327022Y854710D02*
X1336460Y845273D01*
X1318388Y854710D02*
X1327022D01*
X1323112Y810260D02*
X1323521D01*
X1336460Y823199D02*
Y845273D01*
X1323521Y810260D02*
X1336460Y823199D01*
X1295542Y836930D02*
X1327022D01*
X1332230Y831722D01*
Y824358D02*
Y831722D01*
X1262290Y848460D02*
X1282710Y828040D01*
X1267460Y865012D02*
X1295542Y836930D01*
X1338580Y866902D02*
X1343159Y862323D01*
X1338580Y866902D02*
Y871220D01*
X1347470Y871143D02*
Y874902D01*
Y871143D02*
X1350430Y868183D01*
X1340484Y881888D02*
X1347470Y874902D01*
X1329436Y881888D02*
X1340484D01*
D20*
X1071880Y727710D02*
X1073150D01*
X1060450Y739140D02*
X1071880Y727710D01*
X1109980Y739140D02*
X1126490D01*
X1031240D02*
X1035050D01*
X1017270Y725170D02*
X1031240Y739140D01*
X1231900Y751840D02*
X1245870Y737870D01*
X1271270D02*
X1282700Y726440D01*
Y723900D02*
Y726440D01*
X1296670Y734060D02*
Y737870D01*
Y734060D02*
X1308100Y722630D01*
X1320800Y737870D02*
X1330960Y727710D01*
X1023620Y528320D02*
X1035050Y539750D01*
X1021080Y528320D02*
X1023620D01*
X1060450Y537210D02*
Y539750D01*
X1049020Y525780D02*
X1060450Y537210D01*
X1085850Y532130D02*
Y539750D01*
Y532130D02*
X1094740Y523240D01*
X1109980Y539750D02*
X1123950Y525780D01*
X1244600Y538480D02*
X1245870D01*
X1231900Y525780D02*
X1244600Y538480D01*
X1231900Y523240D02*
Y525780D01*
X1271270Y535940D02*
Y538480D01*
X1259840Y524510D02*
X1271270Y535940D01*
X1259840Y523240D02*
Y524510D01*
X1296670Y533400D02*
Y538480D01*
Y533400D02*
X1306830Y523240D01*
X1320800Y534670D02*
Y538480D01*
Y534670D02*
X1332230Y523240D01*
X1085850Y739140D02*
X1097280Y727710D01*
Y725170D02*
Y727710D01*
D21*
X1400573Y439183D02*
Y485204D01*
X1395793Y434403D02*
X1400573Y439183D01*
X1375774Y434403D02*
X1395793D01*
X1391472Y968188D02*
X1400573Y959087D01*
Y958613D02*
Y959087D01*
X1400810Y808990D02*
Y958613D01*
X1375774Y968188D02*
X1391472D01*
D22*
X715073Y434403D02*
Y968188D01*
X1375774D01*
X715073Y434403D02*
X1375774D01*
X1400810Y485204D02*
Y812863D01*
D23*
X859790Y759460D02*
D03*
Y813435D02*
D03*
Y867410D02*
D03*
X750570Y600710D02*
D03*
D24*
X859790Y734060D02*
D03*
Y788035D02*
D03*
Y842010D02*
D03*
X750570Y575310D02*
D03*
D25*
X1096010Y485140D02*
D03*
X1121410D02*
D03*
X1146810D02*
D03*
X1324610D02*
D03*
X1299210D02*
D03*
X1273810D02*
D03*
X1248410D02*
D03*
X1223010D02*
D03*
X1106170Y916940D02*
D03*
X1080770D02*
D03*
X1055370D02*
D03*
X1029970D02*
D03*
X1004570D02*
D03*
X979170D02*
D03*
X953770D02*
D03*
X1146810Y459740D02*
D03*
X1121410D02*
D03*
X1096010D02*
D03*
X1070610D02*
D03*
X1045210D02*
D03*
X1019810D02*
D03*
X994410D02*
D03*
X1324610D02*
D03*
X1299210D02*
D03*
X1273810D02*
D03*
X1248410D02*
D03*
X1223010D02*
D03*
X1324610Y916940D02*
D03*
X1299210D02*
D03*
X1273810D02*
D03*
X1248410D02*
D03*
X1223010D02*
D03*
X1197610D02*
D03*
X1172210D02*
D03*
X1324610Y942340D02*
D03*
X1299210D02*
D03*
X1273810D02*
D03*
X1248410D02*
D03*
X1223010D02*
D03*
X1197610D02*
D03*
X1172210D02*
D03*
X1080770D02*
D03*
X902970D02*
D03*
X928370D02*
D03*
X953770D02*
D03*
X979170D02*
D03*
X1004570D02*
D03*
X1029970D02*
D03*
X1055370D02*
D03*
X1106170D02*
D03*
D26*
X1172210Y485140D02*
D03*
X1350010D02*
D03*
X1131570Y916940D02*
D03*
X1172210Y459740D02*
D03*
X1350010D02*
D03*
Y916940D02*
D03*
Y942340D02*
D03*
X1131570D02*
D03*
D27*
X768350Y730250D02*
D03*
X765810Y899160D02*
D03*
D28*
X768350Y679450D02*
D03*
X765810Y848360D02*
D03*
D29*
X1109980Y539750D02*
D03*
X1060450D02*
D03*
X1085850D02*
D03*
X1320800Y538480D02*
D03*
X1271270D02*
D03*
X1296670D02*
D03*
X1320800Y737870D02*
D03*
X1271270D02*
D03*
X1296670D02*
D03*
X1109980Y739140D02*
D03*
X1060450D02*
D03*
X1085850D02*
D03*
D30*
X1035050Y539750D02*
D03*
X1245870Y538480D02*
D03*
Y737870D02*
D03*
X1035050Y739140D02*
D03*
D31*
X917956Y818642D02*
D03*
X922140Y900550D02*
D03*
X1365250Y785368D02*
D03*
X1205230Y896921D02*
D03*
X1009904Y754888D02*
D03*
X1139571Y789559D02*
D03*
X1037336Y785368D02*
D03*
X1154176Y725424D02*
D03*
X1236076Y585169D02*
D03*
X1170940Y751332D02*
D03*
X1020968Y782527D02*
D03*
X1025652Y586994D02*
D03*
X1368552Y700278D02*
D03*
X1357510Y574802D02*
D03*
X1207740D02*
D03*
X1377442Y593090D02*
D03*
X941832Y562817D02*
D03*
X971111Y551434D02*
D03*
X1149858Y660908D02*
D03*
X880745Y808990D02*
D03*
X889374Y842010D02*
D03*
X971111Y496570D02*
D03*
X934211Y648970D02*
D03*
X1017270Y725170D02*
D03*
X1073150Y727710D02*
D03*
X1126490Y739140D02*
D03*
X1173480Y885952D02*
D03*
X1134364Y770128D02*
D03*
X1086395Y777203D02*
D03*
X1055624Y794258D02*
D03*
X1208659Y772287D02*
D03*
X1229502Y777447D02*
D03*
Y888031D02*
D03*
X1253564Y798068D02*
D03*
X1230122Y806958D02*
D03*
X1231900Y751840D02*
D03*
X1258570Y862330D02*
D03*
X1282700Y723900D02*
D03*
X1308100Y722630D02*
D03*
X1330960Y727710D02*
D03*
X1021080Y528320D02*
D03*
X1049020Y525780D02*
D03*
X1033780Y623570D02*
D03*
X1094740Y523240D02*
D03*
X1188466Y636778D02*
D03*
X1123950Y525780D02*
D03*
X1085570Y616549D02*
D03*
X1231900Y523240D02*
D03*
Y694690D02*
D03*
X1259840Y523240D02*
D03*
X1306830D02*
D03*
X1332230D02*
D03*
X1209040Y699770D02*
D03*
X1236218Y660146D02*
D03*
X1253490Y695960D02*
D03*
X1267460Y698500D02*
D03*
X1257300Y681990D02*
D03*
X1249680Y722630D02*
D03*
X1319530Y680720D02*
D03*
X1272740Y616712D02*
D03*
X1291844Y616458D02*
D03*
X1281430Y695960D02*
D03*
X1296670Y694690D02*
D03*
X1324610Y646430D02*
D03*
X1302740Y604357D02*
D03*
X1318260Y627380D02*
D03*
X1347216Y697785D02*
D03*
X1340046Y656217D02*
D03*
X1316990Y698500D02*
D03*
X1139952Y704213D02*
D03*
X1055624Y616458D02*
D03*
X1123950Y601980D02*
D03*
X1096772Y626618D02*
D03*
X1105916Y651764D02*
D03*
X1097280Y675640D02*
D03*
X1102360Y697230D02*
D03*
X1097280Y725170D02*
D03*
X1079500Y694690D02*
D03*
X1060450Y692150D02*
D03*
X988060Y699770D02*
D03*
X1044194Y702310D02*
D03*
X1031240Y689610D02*
D03*
Y675640D02*
D03*
X1030450Y656683D02*
D03*
X1244600Y850900D02*
D03*
X1242060Y829310D02*
D03*
X1177290Y854710D02*
D03*
X1085570Y794230D02*
D03*
X976630Y890270D02*
D03*
X1001776Y894842D02*
D03*
X1021080Y866140D02*
D03*
X1042670D02*
D03*
X1096772Y805180D02*
D03*
X1139818Y880030D02*
D03*
X1021080Y896620D02*
D03*
X1121410Y892810D02*
D03*
X1065530Y871220D02*
D03*
X1094740Y901700D02*
D03*
X1109980Y881380D02*
D03*
X1031240D02*
D03*
X1049020Y880110D02*
D03*
X1085850Y883920D02*
D03*
X1098550Y862330D02*
D03*
X1302740Y773910D02*
D03*
X1271016Y901700D02*
D03*
X1291590Y793750D02*
D03*
X1277620Y869950D02*
D03*
X1296670Y890270D02*
D03*
X1370482Y874879D02*
D03*
X1329436Y881888D02*
D03*
X1302740Y875792D02*
D03*
X1323112Y810260D02*
D03*
X1345590Y774446D02*
D03*
X1316990Y863600D02*
D03*
X1323340Y845820D02*
D03*
Y828040D02*
D03*
X1338580Y871220D02*
D03*
X1315720Y889000D02*
D03*
X1003300Y584200D02*
D03*
X1005840Y699770D02*
D03*
M02*
