G04 Layer_Color=16711935*
%FSLAX44Y44*%
%MOMM*%
G71*
G01*
G75*
%ADD21C,0.0127*%
%ADD22C,0.0254*%
%ADD54C,1.6032*%
%ADD55R,1.4032X1.4032*%
%ADD56C,2.1032*%
%ADD57R,2.0032X2.0032*%
%ADD58R,1.7032X1.7032*%
%ADD59C,1.7032*%
%ADD60R,1.8032X1.8032*%
%ADD61C,1.9032*%
%ADD62C,1.4732*%
D21*
X1400810Y485204D02*
Y812863D01*
X715073Y434403D02*
X1375774D01*
X715073Y968188D02*
X1375774D01*
X715073Y434403D02*
Y968188D01*
D22*
X1375774D02*
X1391472D01*
X1400810Y808990D02*
Y958613D01*
X1400573D02*
Y959087D01*
X1391472Y968188D02*
X1400573Y959087D01*
X1375774Y434403D02*
X1395793D01*
X1400573Y439183D01*
Y485204D01*
D54*
X1296670Y538480D02*
D03*
X1271270D02*
D03*
X1320800D02*
D03*
X1085850Y539750D02*
D03*
X1060450D02*
D03*
X1109980D02*
D03*
X1296670Y737870D02*
D03*
X1271270D02*
D03*
X1320800D02*
D03*
X1085850Y739140D02*
D03*
X1060450D02*
D03*
X1109980D02*
D03*
D55*
X1245870Y538480D02*
D03*
X1035050Y539750D02*
D03*
X1245870Y737870D02*
D03*
X1035050Y739140D02*
D03*
D56*
X765810Y848360D02*
D03*
X768350Y679450D02*
D03*
D57*
X765810Y899160D02*
D03*
X768350Y730250D02*
D03*
D58*
X1131570Y942340D02*
D03*
X1350010D02*
D03*
Y916940D02*
D03*
Y459740D02*
D03*
X1172210D02*
D03*
X1131570Y916940D02*
D03*
X1350010Y485140D02*
D03*
X1172210D02*
D03*
D59*
X1106170Y942340D02*
D03*
X1055370D02*
D03*
X1029970D02*
D03*
X1004570D02*
D03*
X979170D02*
D03*
X953770D02*
D03*
X928370D02*
D03*
X902970D02*
D03*
X1080770D02*
D03*
X1172210D02*
D03*
X1197610D02*
D03*
X1223010D02*
D03*
X1248410D02*
D03*
X1273810D02*
D03*
X1299210D02*
D03*
X1324610D02*
D03*
X1172210Y916940D02*
D03*
X1197610D02*
D03*
X1223010D02*
D03*
X1248410D02*
D03*
X1273810D02*
D03*
X1299210D02*
D03*
X1324610D02*
D03*
X1223010Y459740D02*
D03*
X1248410D02*
D03*
X1273810D02*
D03*
X1299210D02*
D03*
X1324610D02*
D03*
X994410D02*
D03*
X1019810D02*
D03*
X1045210D02*
D03*
X1070610D02*
D03*
X1096010D02*
D03*
X1121410D02*
D03*
X1146810D02*
D03*
X953770Y916940D02*
D03*
X979170D02*
D03*
X1004570D02*
D03*
X1029970D02*
D03*
X1055370D02*
D03*
X1080770D02*
D03*
X1106170D02*
D03*
X1223010Y485140D02*
D03*
X1248410D02*
D03*
X1273810D02*
D03*
X1299210D02*
D03*
X1324610D02*
D03*
X1146810D02*
D03*
X1121410D02*
D03*
X1096010D02*
D03*
D60*
X750570Y575310D02*
D03*
X859790Y842010D02*
D03*
Y788035D02*
D03*
Y734060D02*
D03*
D61*
X750570Y600710D02*
D03*
X859790Y867410D02*
D03*
Y813435D02*
D03*
Y759460D02*
D03*
D62*
X1005840Y699770D02*
D03*
X1003300Y584200D02*
D03*
X1315720Y889000D02*
D03*
X1338580Y871220D02*
D03*
X1323340Y828040D02*
D03*
Y845820D02*
D03*
X1316990Y863600D02*
D03*
X1345590Y774446D02*
D03*
X1323112Y810260D02*
D03*
X1302740Y875792D02*
D03*
X1329436Y881888D02*
D03*
X1370482Y874879D02*
D03*
X1296670Y890270D02*
D03*
X1277620Y869950D02*
D03*
X1291590Y793750D02*
D03*
X1271016Y901700D02*
D03*
X1302740Y773910D02*
D03*
X1098550Y862330D02*
D03*
X1085850Y883920D02*
D03*
X1049020Y880110D02*
D03*
X1031240Y881380D02*
D03*
X1109980D02*
D03*
X1094740Y901700D02*
D03*
X1065530Y871220D02*
D03*
X1121410Y892810D02*
D03*
X1021080Y896620D02*
D03*
X1139818Y880030D02*
D03*
X1096772Y805180D02*
D03*
X1042670Y866140D02*
D03*
X1021080D02*
D03*
X1001776Y894842D02*
D03*
X976630Y890270D02*
D03*
X1085570Y794230D02*
D03*
X1177290Y854710D02*
D03*
X1242060Y829310D02*
D03*
X1244600Y850900D02*
D03*
X1030450Y656683D02*
D03*
X1031240Y675640D02*
D03*
Y689610D02*
D03*
X1044194Y702310D02*
D03*
X988060Y699770D02*
D03*
X1060450Y692150D02*
D03*
X1079500Y694690D02*
D03*
X1097280Y725170D02*
D03*
X1102360Y697230D02*
D03*
X1097280Y675640D02*
D03*
X1105916Y651764D02*
D03*
X1096772Y626618D02*
D03*
X1123950Y601980D02*
D03*
X1055624Y616458D02*
D03*
X1139952Y704213D02*
D03*
X1316990Y698500D02*
D03*
X1340046Y656217D02*
D03*
X1347216Y697785D02*
D03*
X1318260Y627380D02*
D03*
X1302740Y604357D02*
D03*
X1324610Y646430D02*
D03*
X1296670Y694690D02*
D03*
X1281430Y695960D02*
D03*
X1291844Y616458D02*
D03*
X1272740Y616712D02*
D03*
X1319530Y680720D02*
D03*
X1249680Y722630D02*
D03*
X1257300Y681990D02*
D03*
X1267460Y698500D02*
D03*
X1253490Y695960D02*
D03*
X1236218Y660146D02*
D03*
X1209040Y699770D02*
D03*
X1332230Y523240D02*
D03*
X1306830D02*
D03*
X1259840D02*
D03*
X1231900Y694690D02*
D03*
Y523240D02*
D03*
X1085570Y616549D02*
D03*
X1123950Y525780D02*
D03*
X1188466Y636778D02*
D03*
X1094740Y523240D02*
D03*
X1033780Y623570D02*
D03*
X1049020Y525780D02*
D03*
X1021080Y528320D02*
D03*
X1330960Y727710D02*
D03*
X1308100Y722630D02*
D03*
X1282700Y723900D02*
D03*
X1258570Y862330D02*
D03*
X1231900Y751840D02*
D03*
X1230122Y806958D02*
D03*
X1253564Y798068D02*
D03*
X1229502Y888031D02*
D03*
Y777447D02*
D03*
X1208659Y772287D02*
D03*
X1055624Y794258D02*
D03*
X1086395Y777203D02*
D03*
X1134364Y770128D02*
D03*
X1173480Y885952D02*
D03*
X1126490Y739140D02*
D03*
X1073150Y727710D02*
D03*
X1017270Y725170D02*
D03*
X934211Y648970D02*
D03*
X971111Y496570D02*
D03*
X889374Y842010D02*
D03*
X880745Y808990D02*
D03*
X1149858Y660908D02*
D03*
X971111Y551434D02*
D03*
X941832Y562817D02*
D03*
X1377442Y593090D02*
D03*
X1207740Y574802D02*
D03*
X1357510D02*
D03*
X1368552Y700278D02*
D03*
X1025652Y586994D02*
D03*
X1020968Y782527D02*
D03*
X1170940Y751332D02*
D03*
X1236076Y585169D02*
D03*
X1154176Y725424D02*
D03*
X1037336Y785368D02*
D03*
X1139571Y789559D02*
D03*
X1009904Y754888D02*
D03*
X1205230Y896921D02*
D03*
X1365250Y785368D02*
D03*
X922140Y900550D02*
D03*
X917956Y818642D02*
D03*
M02*
