G04 Layer_Physical_Order=2*
G04 Layer_Color=16711680*
%FSLAX44Y44*%
%MOMM*%
G71*
G01*
G75*
%ADD20C,0.2540*%
%ADD21C,0.6096*%
%ADD22R,1.8000X1.8000*%
%ADD23C,1.8000*%
%ADD24C,1.4000*%
%ADD25R,1.4000X1.4000*%
%ADD26C,1.9000*%
%ADD27R,1.9000X1.9000*%
%ADD28C,1.5000*%
%ADD29R,1.5000X1.5000*%
%ADD30C,0.6000*%
%ADD31C,1.2700*%
G36*
X1404364Y970821D02*
Y432545D01*
X711955D01*
X710687Y433460D01*
X711927Y970963D01*
X1402451D01*
X1403336Y971848D01*
X1404364Y970821D01*
D02*
G37*
%LPC*%
G36*
X1012190Y604952D02*
Y600830D01*
X1016312D01*
X1016205Y601277D01*
X1015871Y602083D01*
X1015416Y602826D01*
X1014849Y603489D01*
X1014186Y604056D01*
X1013443Y604511D01*
X1012637Y604845D01*
X1012190Y604952D01*
D02*
G37*
G36*
X986790D02*
X986343Y604845D01*
X985537Y604511D01*
X984794Y604056D01*
X984130Y603489D01*
X983564Y602826D01*
X983109Y602083D01*
X982775Y601277D01*
X982667Y600830D01*
X986790D01*
Y604952D01*
D02*
G37*
G36*
X1037590Y675038D02*
X1036508Y674967D01*
X1035445Y674755D01*
X1034418Y674407D01*
X1033446Y673927D01*
X1032545Y673325D01*
X1031730Y672610D01*
X1031015Y671795D01*
X1030413Y670894D01*
X1029933Y669922D01*
X1029585Y668895D01*
X1029373Y667832D01*
X1029302Y666750D01*
X1029373Y665668D01*
X1029585Y664605D01*
X1029933Y663578D01*
X1030413Y662606D01*
X1031015Y661705D01*
X1031730Y660890D01*
X1032545Y660175D01*
X1033251Y659703D01*
Y620815D01*
X1032688Y620680D01*
X1031580Y620220D01*
X1030557Y619594D01*
X1029645Y618815D01*
X1028866Y617903D01*
X1028240Y616880D01*
X1027781Y615772D01*
X1027501Y614606D01*
X1027406Y613410D01*
X1027501Y612214D01*
X1027781Y611048D01*
X1028240Y609940D01*
X1028866Y608917D01*
X1029645Y608005D01*
X1030557Y607226D01*
X1031580Y606600D01*
X1032688Y606141D01*
X1033854Y605860D01*
X1035050Y605766D01*
X1035357Y605791D01*
X1036102Y604575D01*
X1035860Y604180D01*
X1035400Y603072D01*
X1035120Y601906D01*
X1035026Y600710D01*
X1035120Y599514D01*
X1035400Y598348D01*
X1035860Y597240D01*
X1036486Y596217D01*
X1037265Y595305D01*
X1038177Y594526D01*
X1039200Y593899D01*
X1040308Y593441D01*
X1041474Y593161D01*
X1042670Y593066D01*
X1043866Y593161D01*
X1044041Y593203D01*
X1067542Y569702D01*
X1068199Y569162D01*
X1068950Y568761D01*
X1069763Y568515D01*
X1070610Y568431D01*
X1130300D01*
X1131146Y568515D01*
X1131960Y568761D01*
X1132711Y569162D01*
X1133368Y569702D01*
X1135908Y572242D01*
X1136448Y572899D01*
X1136849Y573650D01*
X1137095Y574464D01*
X1137179Y575310D01*
Y603991D01*
X1178486D01*
X1179653Y602825D01*
X1179611Y602649D01*
X1179517Y601453D01*
X1179611Y600258D01*
X1179891Y599091D01*
X1180350Y597983D01*
X1180976Y596961D01*
X1181755Y596049D01*
X1182667Y595270D01*
X1183690Y594643D01*
X1184798Y594184D01*
X1185964Y593904D01*
X1187160Y593810D01*
X1188356Y593904D01*
X1189522Y594184D01*
X1190630Y594643D01*
X1191653Y595270D01*
X1192565Y596049D01*
X1193344Y596961D01*
X1193971Y597983D01*
X1194430Y599091D01*
X1194709Y600258D01*
X1194804Y601453D01*
X1194709Y602649D01*
X1194430Y603815D01*
X1193971Y604924D01*
X1193344Y605946D01*
X1192565Y606858D01*
X1191653Y607637D01*
X1190630Y608264D01*
X1189522Y608723D01*
X1188356Y609003D01*
X1187160Y609097D01*
X1185964Y609003D01*
X1185789Y608961D01*
X1183352Y611398D01*
X1182694Y611938D01*
X1181944Y612339D01*
X1181130Y612585D01*
X1180284Y612669D01*
X1153854D01*
X1153469Y613939D01*
X1153503Y613962D01*
X1154380Y614730D01*
X1155148Y615606D01*
X1155796Y616575D01*
X1156311Y617621D01*
X1156685Y618724D01*
X1156891Y619760D01*
X1139268D01*
X1139474Y618724D01*
X1139849Y617621D01*
X1140365Y616575D01*
X1141012Y615606D01*
X1141780Y614730D01*
X1142656Y613962D01*
X1142691Y613939D01*
X1142306Y612669D01*
X1126418D01*
X1126324Y612823D01*
X1125545Y613735D01*
X1124633Y614514D01*
X1123610Y615140D01*
X1122502Y615600D01*
X1121336Y615880D01*
X1120140Y615974D01*
X1118944Y615880D01*
X1117778Y615600D01*
X1116670Y615140D01*
X1115647Y614514D01*
X1114735Y613735D01*
X1113956Y612823D01*
X1113329Y611800D01*
X1112870Y610692D01*
X1112590Y609526D01*
X1112496Y608330D01*
X1112590Y607134D01*
X1112870Y605968D01*
X1113329Y604860D01*
X1113956Y603837D01*
X1114735Y602925D01*
X1115647Y602146D01*
X1116670Y601520D01*
X1117778Y601060D01*
X1118944Y600780D01*
X1120140Y600686D01*
X1121336Y600780D01*
X1122502Y601060D01*
X1123610Y601520D01*
X1124633Y602146D01*
X1125545Y602925D01*
X1126324Y603837D01*
X1126418Y603991D01*
X1128501D01*
Y577109D01*
X1072407D01*
X1050177Y599339D01*
X1050219Y599514D01*
X1050314Y600710D01*
X1050219Y601906D01*
X1049939Y603072D01*
X1049481Y604180D01*
X1048854Y605203D01*
X1048075Y606115D01*
X1047163Y606894D01*
X1046140Y607520D01*
X1045032Y607980D01*
X1043866Y608260D01*
X1042670Y608354D01*
X1042363Y608329D01*
X1041618Y609545D01*
X1041861Y609940D01*
X1042319Y611048D01*
X1042599Y612214D01*
X1042694Y613410D01*
X1042599Y614606D01*
X1042319Y615772D01*
X1041929Y616715D01*
Y659703D01*
X1042635Y660175D01*
X1043450Y660890D01*
X1044165Y661705D01*
X1044767Y662606D01*
X1045247Y663578D01*
X1045595Y664605D01*
X1045807Y665668D01*
X1045878Y666750D01*
X1045807Y667832D01*
X1045595Y668895D01*
X1045247Y669922D01*
X1044767Y670894D01*
X1044165Y671795D01*
X1043450Y672610D01*
X1042635Y673325D01*
X1041734Y673927D01*
X1040762Y674407D01*
X1039735Y674755D01*
X1038672Y674967D01*
X1037590Y675038D01*
D02*
G37*
G36*
X1216660Y604952D02*
X1216213Y604845D01*
X1215407Y604511D01*
X1214664Y604056D01*
X1214000Y603489D01*
X1213434Y602826D01*
X1212979Y602083D01*
X1212645Y601277D01*
X1212538Y600830D01*
X1216660D01*
Y604952D01*
D02*
G37*
G36*
X1239520D02*
X1239073Y604845D01*
X1238267Y604511D01*
X1237524Y604056D01*
X1236861Y603489D01*
X1236294Y602826D01*
X1235839Y602083D01*
X1235762Y601899D01*
X1234388D01*
X1234311Y602083D01*
X1233856Y602826D01*
X1233289Y603489D01*
X1232626Y604056D01*
X1231883Y604511D01*
X1231077Y604845D01*
X1230630Y604952D01*
Y599560D01*
X1228090D01*
Y604952D01*
X1227643Y604845D01*
X1226837Y604511D01*
X1226094Y604056D01*
X1225431Y603489D01*
X1224864Y602826D01*
X1224409Y602083D01*
X1224332Y601899D01*
X1222958D01*
X1222881Y602083D01*
X1222426Y602826D01*
X1221860Y603489D01*
X1221196Y604056D01*
X1220453Y604511D01*
X1219647Y604845D01*
X1219200Y604952D01*
Y599560D01*
X1217930D01*
Y598290D01*
X1212538D01*
X1212645Y597843D01*
X1212979Y597037D01*
X1213434Y596293D01*
X1214000Y595630D01*
X1214664Y595064D01*
X1215407Y594608D01*
X1215591Y594532D01*
Y593158D01*
X1215407Y593081D01*
X1214664Y592626D01*
X1214000Y592059D01*
X1213434Y591396D01*
X1212979Y590653D01*
X1212645Y589847D01*
X1212538Y589400D01*
X1217930D01*
Y586860D01*
X1212538D01*
X1212645Y586413D01*
X1212979Y585607D01*
X1213434Y584864D01*
X1214000Y584200D01*
X1214664Y583634D01*
X1215407Y583178D01*
X1215591Y583102D01*
Y581728D01*
X1215407Y581651D01*
X1214664Y581196D01*
X1214000Y580629D01*
X1213434Y579966D01*
X1212979Y579223D01*
X1212645Y578417D01*
X1212538Y577970D01*
X1217930D01*
Y576700D01*
X1219200D01*
Y571307D01*
X1219647Y571415D01*
X1220453Y571749D01*
X1221196Y572204D01*
X1221860Y572770D01*
X1222426Y573433D01*
X1222881Y574177D01*
X1222958Y574361D01*
X1224332D01*
X1224409Y574177D01*
X1224864Y573433D01*
X1225431Y572770D01*
X1226094Y572204D01*
X1226837Y571749D01*
X1227643Y571415D01*
X1228090Y571307D01*
Y576700D01*
X1230630D01*
Y571307D01*
X1231077Y571415D01*
X1231883Y571749D01*
X1232626Y572204D01*
X1233289Y572770D01*
X1233856Y573433D01*
X1234311Y574177D01*
X1234388Y574361D01*
X1235762D01*
X1235839Y574177D01*
X1236294Y573433D01*
X1236861Y572770D01*
X1237524Y572204D01*
X1238267Y571749D01*
X1239073Y571415D01*
X1239520Y571307D01*
Y576700D01*
X1240790D01*
Y577970D01*
X1246182D01*
X1246075Y578417D01*
X1245741Y579223D01*
X1245286Y579966D01*
X1244719Y580629D01*
X1244056Y581196D01*
X1243313Y581651D01*
X1243129Y581728D01*
Y583102D01*
X1243313Y583178D01*
X1244056Y583634D01*
X1244719Y584200D01*
X1245286Y584864D01*
X1245741Y585607D01*
X1246075Y586413D01*
X1246182Y586860D01*
X1240790D01*
Y589400D01*
X1246182D01*
X1246075Y589847D01*
X1245741Y590653D01*
X1245286Y591396D01*
X1244719Y592059D01*
X1244056Y592626D01*
X1243313Y593081D01*
X1243129Y593158D01*
Y594532D01*
X1243313Y594608D01*
X1244056Y595064D01*
X1244719Y595630D01*
X1245286Y596293D01*
X1245741Y597037D01*
X1246075Y597843D01*
X1246182Y598290D01*
X1240790D01*
Y599560D01*
X1239520D01*
Y604952D01*
D02*
G37*
G36*
X1009650D02*
X1009203Y604845D01*
X1008397Y604511D01*
X1007654Y604056D01*
X1006991Y603489D01*
X1006424Y602826D01*
X1005969Y602083D01*
X1005892Y601899D01*
X1004518D01*
X1004441Y602083D01*
X1003986Y602826D01*
X1003419Y603489D01*
X1002756Y604056D01*
X1002013Y604511D01*
X1001207Y604845D01*
X1000760Y604952D01*
Y599560D01*
X998220D01*
Y604952D01*
X997773Y604845D01*
X996967Y604511D01*
X996224Y604056D01*
X995561Y603489D01*
X994994Y602826D01*
X994539Y602083D01*
X994462Y601899D01*
X993088D01*
X993011Y602083D01*
X992556Y602826D01*
X991990Y603489D01*
X991326Y604056D01*
X990583Y604511D01*
X989777Y604845D01*
X989330Y604952D01*
Y599560D01*
X988060D01*
Y598290D01*
X982667D01*
X982775Y597843D01*
X983109Y597037D01*
X983564Y596293D01*
X984130Y595630D01*
X984794Y595064D01*
X985537Y594608D01*
X985721Y594532D01*
Y593158D01*
X985537Y593081D01*
X984794Y592626D01*
X984130Y592059D01*
X983564Y591396D01*
X983109Y590653D01*
X982775Y589847D01*
X982667Y589400D01*
X988060D01*
Y586860D01*
X982667D01*
X982775Y586413D01*
X983109Y585607D01*
X983564Y584864D01*
X984130Y584200D01*
X984794Y583634D01*
X985537Y583178D01*
X985721Y583102D01*
Y581728D01*
X985537Y581651D01*
X984794Y581196D01*
X984130Y580629D01*
X983564Y579966D01*
X983109Y579223D01*
X982775Y578417D01*
X982667Y577970D01*
X988060D01*
Y576700D01*
X989330D01*
Y571307D01*
X989777Y571415D01*
X990583Y571749D01*
X991326Y572204D01*
X991990Y572770D01*
X992556Y573433D01*
X993011Y574177D01*
X993088Y574361D01*
X994462D01*
X994539Y574177D01*
X994994Y573433D01*
X995561Y572770D01*
X996224Y572204D01*
X996967Y571749D01*
X997773Y571415D01*
X998220Y571307D01*
Y576700D01*
X1000760D01*
Y571307D01*
X1001207Y571415D01*
X1002013Y571749D01*
X1002756Y572204D01*
X1003419Y572770D01*
X1003986Y573433D01*
X1004441Y574177D01*
X1004518Y574361D01*
X1005892D01*
X1005969Y574177D01*
X1006424Y573433D01*
X1006991Y572770D01*
X1007654Y572204D01*
X1008397Y571749D01*
X1009203Y571415D01*
X1009650Y571307D01*
Y576700D01*
X1010920D01*
Y577970D01*
X1016312D01*
X1016205Y578417D01*
X1015871Y579223D01*
X1015416Y579966D01*
X1014849Y580629D01*
X1014186Y581196D01*
X1013443Y581651D01*
X1013259Y581728D01*
Y583102D01*
X1013443Y583178D01*
X1014186Y583634D01*
X1014849Y584200D01*
X1015416Y584864D01*
X1015871Y585607D01*
X1016205Y586413D01*
X1016312Y586860D01*
X1010920D01*
Y589400D01*
X1016312D01*
X1016205Y589847D01*
X1015871Y590653D01*
X1015416Y591396D01*
X1014849Y592059D01*
X1014186Y592626D01*
X1013443Y593081D01*
X1013259Y593158D01*
Y594532D01*
X1013443Y594608D01*
X1014186Y595064D01*
X1014849Y595630D01*
X1015416Y596293D01*
X1015871Y597037D01*
X1016205Y597843D01*
X1016312Y598290D01*
X1010920D01*
Y599560D01*
X1009650D01*
Y604952D01*
D02*
G37*
G36*
X1242060D02*
Y600830D01*
X1246182D01*
X1246075Y601277D01*
X1245741Y602083D01*
X1245286Y602826D01*
X1244719Y603489D01*
X1244056Y604056D01*
X1243313Y604511D01*
X1242507Y604845D01*
X1242060Y604952D01*
D02*
G37*
G36*
X1246182Y575430D02*
X1242060D01*
Y571307D01*
X1242507Y571415D01*
X1243313Y571749D01*
X1244056Y572204D01*
X1244719Y572770D01*
X1245286Y573433D01*
X1245741Y574177D01*
X1246075Y574983D01*
X1246182Y575430D01*
D02*
G37*
G36*
X1031240Y543481D02*
X1030204Y543275D01*
X1029101Y542901D01*
X1028055Y542385D01*
X1027086Y541738D01*
X1026210Y540970D01*
X1025442Y540093D01*
X1024794Y539125D01*
X1024279Y538079D01*
X1023904Y536976D01*
X1023699Y535940D01*
X1031240D01*
Y543481D01*
D02*
G37*
G36*
X1270000Y539672D02*
Y532130D01*
X1277542D01*
X1277336Y533166D01*
X1276961Y534269D01*
X1276445Y535315D01*
X1275798Y536283D01*
X1275030Y537160D01*
X1274154Y537928D01*
X1273185Y538576D01*
X1272139Y539091D01*
X1271036Y539465D01*
X1270000Y539672D01*
D02*
G37*
G36*
X1267460D02*
X1266424Y539465D01*
X1265321Y539091D01*
X1264275Y538576D01*
X1263307Y537928D01*
X1262430Y537160D01*
X1261662Y536283D01*
X1261014Y535315D01*
X1260499Y534269D01*
X1260125Y533166D01*
X1259919Y532130D01*
X1267460D01*
Y539672D01*
D02*
G37*
G36*
X1033780Y543481D02*
Y535940D01*
X1041321D01*
X1041115Y536976D01*
X1040741Y538079D01*
X1040226Y539125D01*
X1039578Y540093D01*
X1038810Y540970D01*
X1037934Y541738D01*
X1036965Y542385D01*
X1035919Y542901D01*
X1034816Y543275D01*
X1033780Y543481D01*
D02*
G37*
G36*
X1216660Y575430D02*
X1212538D01*
X1212645Y574983D01*
X1212979Y574177D01*
X1213434Y573433D01*
X1214000Y572770D01*
X1214664Y572204D01*
X1215407Y571749D01*
X1216213Y571415D01*
X1216660Y571307D01*
Y575430D01*
D02*
G37*
G36*
X1016312D02*
X1012190D01*
Y571307D01*
X1012637Y571415D01*
X1013443Y571749D01*
X1014186Y572204D01*
X1014849Y572770D01*
X1015416Y573433D01*
X1015871Y574177D01*
X1016205Y574983D01*
X1016312Y575430D01*
D02*
G37*
G36*
X986790D02*
X982667D01*
X982775Y574983D01*
X983109Y574177D01*
X983564Y573433D01*
X984130Y572770D01*
X984794Y572204D01*
X985537Y571749D01*
X986343Y571415D01*
X986790Y571307D01*
Y575430D01*
D02*
G37*
G36*
X1200800Y675020D02*
X1184260D01*
Y658480D01*
X1188191D01*
Y614680D01*
X1188275Y613834D01*
X1188521Y613020D01*
X1188922Y612269D01*
X1189462Y611612D01*
X1190119Y611072D01*
X1190870Y610671D01*
X1191684Y610424D01*
X1192343Y610360D01*
X1192876Y609490D01*
X1193654Y608578D01*
X1194566Y607799D01*
X1195589Y607172D01*
X1196697Y606713D01*
X1197864Y606433D01*
X1199059Y606339D01*
X1200255Y606433D01*
X1201421Y606713D01*
X1202529Y607172D01*
X1203552Y607799D01*
X1204464Y608578D01*
X1205243Y609490D01*
X1205870Y610512D01*
X1206329Y611620D01*
X1206609Y612787D01*
X1206703Y613983D01*
X1206609Y615178D01*
X1206329Y616344D01*
X1205870Y617453D01*
X1205243Y618475D01*
X1204464Y619387D01*
X1203552Y620166D01*
X1202529Y620793D01*
X1201421Y621252D01*
X1200255Y621532D01*
X1199059Y621626D01*
X1198139Y621554D01*
X1197084Y622147D01*
X1196869Y622316D01*
Y658480D01*
X1200800D01*
Y675020D01*
D02*
G37*
G36*
X1267460Y725170D02*
X1259919D01*
X1260125Y724134D01*
X1260499Y723031D01*
X1261014Y721985D01*
X1261662Y721016D01*
X1262430Y720140D01*
X1263307Y719372D01*
X1264275Y718725D01*
X1265321Y718209D01*
X1266424Y717834D01*
X1267460Y717628D01*
Y725170D01*
D02*
G37*
G36*
X767080Y709293D02*
X765671Y709201D01*
X764286Y708925D01*
X762950Y708472D01*
X761684Y707847D01*
X760510Y707063D01*
X759448Y706132D01*
X758517Y705070D01*
X757733Y703896D01*
X757109Y702630D01*
X756655Y701293D01*
X756379Y699909D01*
X756287Y698500D01*
X756379Y697091D01*
X756655Y695706D01*
X757109Y694370D01*
X757733Y693103D01*
X758517Y691930D01*
X759448Y690868D01*
X760510Y689937D01*
X761684Y689153D01*
X762950Y688529D01*
X764286Y688075D01*
X765671Y687799D01*
X767080Y687707D01*
X768489Y687799D01*
X769874Y688075D01*
X771210Y688529D01*
X772477Y689153D01*
X773650Y689937D01*
X774712Y690868D01*
X775643Y691930D01*
X776427Y693103D01*
X777051Y694370D01*
X777505Y695706D01*
X777781Y697091D01*
X777873Y698500D01*
X777781Y699909D01*
X777505Y701293D01*
X777051Y702630D01*
X776427Y703896D01*
X775643Y705070D01*
X774712Y706132D01*
X773650Y707063D01*
X772477Y707847D01*
X771210Y708472D01*
X769874Y708925D01*
X768489Y709201D01*
X767080Y709293D01*
D02*
G37*
G36*
X970930Y675020D02*
X954390D01*
Y658480D01*
X958321D01*
Y641424D01*
X957051Y641039D01*
X957028Y641074D01*
X956260Y641950D01*
X955384Y642718D01*
X954415Y643366D01*
X953369Y643881D01*
X952266Y644256D01*
X951230Y644462D01*
Y635650D01*
Y626839D01*
X952266Y627045D01*
X953369Y627419D01*
X954415Y627935D01*
X955384Y628582D01*
X956260Y629351D01*
X957028Y630227D01*
X957051Y630261D01*
X958321Y629876D01*
Y614680D01*
X958379Y614089D01*
X958369Y614064D01*
X958089Y612897D01*
X957995Y611702D01*
X958089Y610506D01*
X958369Y609340D01*
X958828Y608232D01*
X959455Y607209D01*
X960234Y606297D01*
X961146Y605518D01*
X962168Y604891D01*
X963276Y604432D01*
X964443Y604152D01*
X965638Y604058D01*
X966834Y604152D01*
X968000Y604432D01*
X969109Y604891D01*
X970131Y605518D01*
X971043Y606297D01*
X971822Y607209D01*
X972449Y608232D01*
X972908Y609340D01*
X973188Y610506D01*
X973282Y611702D01*
X973188Y612897D01*
X972908Y614064D01*
X972449Y615172D01*
X971822Y616194D01*
X971043Y617106D01*
X970131Y617885D01*
X969109Y618512D01*
X968000Y618971D01*
X966999Y619212D01*
Y658480D01*
X970930D01*
Y675020D01*
D02*
G37*
G36*
X1277542Y725170D02*
X1270000D01*
Y717628D01*
X1271036Y717834D01*
X1272139Y718209D01*
X1273185Y718725D01*
X1274154Y719372D01*
X1275030Y720140D01*
X1275798Y721016D01*
X1276445Y721985D01*
X1276961Y723031D01*
X1277336Y724134D01*
X1277542Y725170D01*
D02*
G37*
G36*
X1051481Y732790D02*
X1043940D01*
Y725248D01*
X1044976Y725454D01*
X1046079Y725829D01*
X1047125Y726345D01*
X1048093Y726992D01*
X1048970Y727760D01*
X1049738Y728636D01*
X1050386Y729605D01*
X1050901Y730651D01*
X1051275Y731754D01*
X1051481Y732790D01*
D02*
G37*
G36*
X1041400D02*
X1033858D01*
X1034064Y731754D01*
X1034439Y730651D01*
X1034955Y729605D01*
X1035602Y728636D01*
X1036370Y727760D01*
X1037246Y726992D01*
X1038215Y726345D01*
X1039261Y725829D01*
X1040364Y725454D01*
X1041400Y725248D01*
Y732790D01*
D02*
G37*
G36*
X859900Y744330D02*
X839360D01*
Y723790D01*
X859900D01*
Y744330D01*
D02*
G37*
G36*
X948690Y644462D02*
X947654Y644256D01*
X946551Y643881D01*
X945505Y643366D01*
X944537Y642718D01*
X943660Y641950D01*
X942892Y641074D01*
X942244Y640105D01*
X941729Y639060D01*
X941355Y637956D01*
X941149Y636920D01*
X948690D01*
Y644462D01*
D02*
G37*
G36*
X1217930Y675038D02*
X1216848Y674967D01*
X1215785Y674755D01*
X1214758Y674407D01*
X1213786Y673927D01*
X1212885Y673325D01*
X1212070Y672610D01*
X1211355Y671795D01*
X1210753Y670894D01*
X1210273Y669922D01*
X1209925Y668895D01*
X1209713Y667832D01*
X1209642Y666750D01*
X1209713Y665668D01*
X1209925Y664605D01*
X1210273Y663578D01*
X1210753Y662606D01*
X1211355Y661705D01*
X1212070Y660890D01*
X1212885Y660175D01*
X1213591Y659703D01*
Y630685D01*
X1213201Y629742D01*
X1212921Y628576D01*
X1212826Y627380D01*
X1212921Y626184D01*
X1213201Y625018D01*
X1213660Y623910D01*
X1214286Y622887D01*
X1215065Y621975D01*
X1215977Y621196D01*
X1217000Y620569D01*
X1218108Y620111D01*
X1219274Y619831D01*
X1220470Y619736D01*
X1221666Y619831D01*
X1222832Y620111D01*
X1223940Y620569D01*
X1224963Y621196D01*
X1225875Y621975D01*
X1226654Y622887D01*
X1227281Y623910D01*
X1227739Y625018D01*
X1228019Y626184D01*
X1228114Y627380D01*
X1228019Y628576D01*
X1227739Y629742D01*
X1227281Y630850D01*
X1226654Y631873D01*
X1225875Y632785D01*
X1224963Y633564D01*
X1223940Y634190D01*
X1222832Y634650D01*
X1222269Y634785D01*
Y659703D01*
X1222975Y660175D01*
X1223790Y660890D01*
X1224505Y661705D01*
X1225107Y662606D01*
X1225587Y663578D01*
X1225935Y664605D01*
X1226147Y665668D01*
X1226218Y666750D01*
X1226147Y667832D01*
X1225935Y668895D01*
X1225587Y669922D01*
X1225107Y670894D01*
X1224505Y671795D01*
X1223790Y672610D01*
X1222975Y673325D01*
X1222074Y673927D01*
X1221102Y674407D01*
X1220075Y674755D01*
X1219012Y674967D01*
X1217930Y675038D01*
D02*
G37*
G36*
X988060D02*
X986978Y674967D01*
X985915Y674755D01*
X984888Y674407D01*
X983916Y673927D01*
X983015Y673325D01*
X982200Y672610D01*
X981485Y671795D01*
X980883Y670894D01*
X980403Y669922D01*
X980055Y668895D01*
X979843Y667832D01*
X979772Y666750D01*
X979843Y665668D01*
X980055Y664605D01*
X980403Y663578D01*
X980883Y662606D01*
X981485Y661705D01*
X982200Y660890D01*
X983015Y660175D01*
X983721Y659703D01*
Y630685D01*
X983331Y629742D01*
X983051Y628576D01*
X982956Y627380D01*
X983051Y626184D01*
X983331Y625018D01*
X983790Y623910D01*
X984416Y622887D01*
X985195Y621975D01*
X986107Y621196D01*
X987130Y620569D01*
X988238Y620111D01*
X989404Y619831D01*
X990600Y619736D01*
X991796Y619831D01*
X992962Y620111D01*
X994070Y620569D01*
X995093Y621196D01*
X996005Y621975D01*
X996784Y622887D01*
X997411Y623910D01*
X997869Y625018D01*
X998149Y626184D01*
X998244Y627380D01*
X998149Y628576D01*
X997869Y629742D01*
X997411Y630850D01*
X996784Y631873D01*
X996005Y632785D01*
X995093Y633564D01*
X994070Y634190D01*
X992962Y634650D01*
X992399Y634785D01*
Y659703D01*
X993105Y660175D01*
X993920Y660890D01*
X994635Y661705D01*
X995237Y662606D01*
X995717Y663578D01*
X996065Y664605D01*
X996277Y665668D01*
X996348Y666750D01*
X996277Y667832D01*
X996065Y668895D01*
X995717Y669922D01*
X995237Y670894D01*
X994635Y671795D01*
X993920Y672610D01*
X993105Y673325D01*
X992204Y673927D01*
X991232Y674407D01*
X990205Y674755D01*
X989142Y674967D01*
X988060Y675038D01*
D02*
G37*
G36*
X914400Y668044D02*
X913204Y667950D01*
X912038Y667670D01*
X910930Y667210D01*
X909907Y666584D01*
X908995Y665805D01*
X908216Y664893D01*
X907589Y663870D01*
X907131Y662762D01*
X906851Y661596D01*
X906756Y660400D01*
X906851Y659204D01*
X907131Y658038D01*
X907589Y656930D01*
X908216Y655907D01*
X908995Y654995D01*
X909907Y654216D01*
X910930Y653589D01*
X912038Y653130D01*
X913204Y652850D01*
X914400Y652756D01*
X915596Y652850D01*
X915771Y652893D01*
X930381Y638283D01*
Y615878D01*
X930227Y615784D01*
X929315Y615005D01*
X928536Y614093D01*
X927909Y613070D01*
X927450Y611962D01*
X927190Y610879D01*
X926946Y610729D01*
X925866Y610407D01*
X908352Y627922D01*
X907821Y628329D01*
X907203Y628585D01*
X906540Y628672D01*
X775772D01*
X775751Y628774D01*
X775319Y630049D01*
X774723Y631256D01*
X773975Y632375D01*
X773088Y633388D01*
X772075Y634275D01*
X770956Y635023D01*
X769749Y635619D01*
X768474Y636051D01*
X767153Y636314D01*
X765810Y636402D01*
X764467Y636314D01*
X763146Y636051D01*
X761871Y635619D01*
X760664Y635023D01*
X759545Y634275D01*
X758532Y633388D01*
X757645Y632375D01*
X756897Y631256D01*
X756301Y630049D01*
X755869Y628774D01*
X755606Y627453D01*
X755518Y626110D01*
X755606Y624767D01*
X755869Y623446D01*
X756301Y622171D01*
X756897Y620964D01*
X757645Y619845D01*
X758532Y618832D01*
X759545Y617945D01*
X760664Y617197D01*
X761871Y616601D01*
X763146Y616169D01*
X764467Y615906D01*
X765810Y615818D01*
X767153Y615906D01*
X768474Y616169D01*
X769749Y616601D01*
X770956Y617197D01*
X772075Y617945D01*
X773088Y618832D01*
X773975Y619845D01*
X774723Y620964D01*
X775319Y622171D01*
X775751Y623446D01*
X775772Y623548D01*
X905479D01*
X923292Y605735D01*
X923355Y605255D01*
X923611Y604637D01*
X924018Y604106D01*
X1057496Y470628D01*
X1058027Y470221D01*
X1058645Y469965D01*
X1059308Y469878D01*
X1116396D01*
X1116693Y468608D01*
X1116379Y468453D01*
X1115285Y467722D01*
X1114295Y466855D01*
X1113428Y465865D01*
X1112697Y464771D01*
X1112114Y463590D01*
X1111691Y462344D01*
X1111435Y461053D01*
X1111432Y461010D01*
X1121410D01*
X1131388D01*
X1131385Y461053D01*
X1131129Y462344D01*
X1130706Y463590D01*
X1130124Y464771D01*
X1129392Y465865D01*
X1128525Y466855D01*
X1127535Y467722D01*
X1126441Y468453D01*
X1126127Y468608D01*
X1126423Y469878D01*
X1141796D01*
X1142093Y468608D01*
X1141779Y468453D01*
X1140685Y467722D01*
X1139695Y466855D01*
X1138828Y465865D01*
X1138096Y464771D01*
X1137514Y463590D01*
X1137091Y462344D01*
X1136835Y461053D01*
X1136832Y461010D01*
X1146810D01*
X1156788D01*
X1156785Y461053D01*
X1156529Y462344D01*
X1156106Y463590D01*
X1155524Y464771D01*
X1154792Y465865D01*
X1153925Y466855D01*
X1152935Y467722D01*
X1151841Y468453D01*
X1151527Y468608D01*
X1151824Y469878D01*
X1336249D01*
X1341240Y464887D01*
Y450970D01*
X1358780D01*
Y468510D01*
X1344863D01*
X1339122Y474252D01*
X1338591Y474659D01*
X1337973Y474915D01*
X1337310Y475002D01*
X1060369D01*
X934666Y600705D01*
X934674Y600890D01*
X935175Y601992D01*
X935916Y602051D01*
X937082Y602331D01*
X938190Y602789D01*
X939213Y603416D01*
X940125Y604195D01*
X940904Y605107D01*
X941531Y606130D01*
X941990Y607238D01*
X942270Y608404D01*
X942364Y609600D01*
X942270Y610796D01*
X941990Y611962D01*
X941531Y613070D01*
X940904Y614093D01*
X940125Y615005D01*
X939213Y615784D01*
X939059Y615878D01*
Y640080D01*
X938976Y640927D01*
X938729Y641740D01*
X938328Y642491D01*
X937788Y643148D01*
X921907Y659029D01*
X921949Y659204D01*
X922044Y660400D01*
X921949Y661596D01*
X921669Y662762D01*
X921210Y663870D01*
X920584Y664893D01*
X919805Y665805D01*
X918893Y666584D01*
X917870Y667210D01*
X916762Y667670D01*
X915596Y667950D01*
X914400Y668044D01*
D02*
G37*
G36*
X1146810Y629841D02*
X1145774Y629636D01*
X1144671Y629261D01*
X1143625Y628745D01*
X1142656Y628098D01*
X1141780Y627330D01*
X1141012Y626454D01*
X1140365Y625485D01*
X1139849Y624439D01*
X1139474Y623336D01*
X1139268Y622300D01*
X1146810D01*
Y629841D01*
D02*
G37*
G36*
X1013460Y675038D02*
X1012378Y674967D01*
X1011315Y674755D01*
X1010288Y674407D01*
X1009316Y673927D01*
X1008415Y673325D01*
X1007600Y672610D01*
X1006885Y671795D01*
X1006283Y670894D01*
X1005803Y669922D01*
X1005455Y668895D01*
X1005243Y667832D01*
X1005172Y666750D01*
X1005243Y665668D01*
X1005455Y664605D01*
X1005803Y663578D01*
X1006283Y662606D01*
X1006885Y661705D01*
X1007600Y660890D01*
X1008415Y660175D01*
X1009121Y659703D01*
Y637143D01*
X1008980Y636980D01*
X1008092Y636216D01*
X1007110Y636294D01*
X1005914Y636199D01*
X1004748Y635919D01*
X1003640Y635461D01*
X1002617Y634834D01*
X1001705Y634055D01*
X1000926Y633143D01*
X1000300Y632120D01*
X999840Y631012D01*
X999560Y629846D01*
X999466Y628650D01*
X999560Y627454D01*
X999840Y626288D01*
X1000300Y625180D01*
X1000926Y624157D01*
X1001705Y623245D01*
X1002617Y622466D01*
X1003640Y621839D01*
X1004748Y621381D01*
X1005914Y621101D01*
X1007110Y621006D01*
X1008306Y621101D01*
X1009472Y621381D01*
X1010580Y621839D01*
X1011603Y622466D01*
X1012515Y623245D01*
X1013294Y624157D01*
X1013921Y625180D01*
X1014380Y626288D01*
X1014660Y627454D01*
X1014754Y628650D01*
X1014660Y629846D01*
X1014617Y630021D01*
X1016528Y631932D01*
X1017068Y632589D01*
X1017469Y633340D01*
X1017716Y634154D01*
X1017799Y635000D01*
Y659703D01*
X1018505Y660175D01*
X1019320Y660890D01*
X1020035Y661705D01*
X1020637Y662606D01*
X1021117Y663578D01*
X1021465Y664605D01*
X1021677Y665668D01*
X1021748Y666750D01*
X1021677Y667832D01*
X1021465Y668895D01*
X1021117Y669922D01*
X1020637Y670894D01*
X1020035Y671795D01*
X1019320Y672610D01*
X1018505Y673325D01*
X1017604Y673927D01*
X1016632Y674407D01*
X1015605Y674755D01*
X1014542Y674967D01*
X1013460Y675038D01*
D02*
G37*
G36*
X948690Y634380D02*
X941149D01*
X941355Y633344D01*
X941729Y632241D01*
X942244Y631196D01*
X942892Y630227D01*
X943660Y629351D01*
X944537Y628582D01*
X945505Y627935D01*
X946551Y627419D01*
X947654Y627045D01*
X948690Y626839D01*
Y634380D01*
D02*
G37*
G36*
X1149350Y629841D02*
Y622300D01*
X1156891D01*
X1156685Y623336D01*
X1156311Y624439D01*
X1155796Y625485D01*
X1155148Y626454D01*
X1154380Y627330D01*
X1153503Y628098D01*
X1152535Y628745D01*
X1151489Y629261D01*
X1150386Y629636D01*
X1149350Y629841D01*
D02*
G37*
G36*
X1041321Y533400D02*
X1033780D01*
Y525858D01*
X1034816Y526064D01*
X1035919Y526439D01*
X1036965Y526954D01*
X1037934Y527602D01*
X1038810Y528370D01*
X1039578Y529246D01*
X1040226Y530215D01*
X1040741Y531261D01*
X1041115Y532364D01*
X1041321Y533400D01*
D02*
G37*
G36*
X1096010Y493929D02*
X1094863Y493854D01*
X1093735Y493629D01*
X1092647Y493260D01*
X1091616Y492751D01*
X1090660Y492113D01*
X1089795Y491355D01*
X1089037Y490490D01*
X1088399Y489534D01*
X1087890Y488503D01*
X1087521Y487415D01*
X1087296Y486287D01*
X1087221Y485140D01*
X1087296Y483993D01*
X1087521Y482865D01*
X1087890Y481777D01*
X1088399Y480746D01*
X1089037Y479790D01*
X1089795Y478925D01*
X1090660Y478167D01*
X1091616Y477529D01*
X1092647Y477020D01*
X1093735Y476651D01*
X1094863Y476426D01*
X1096010Y476351D01*
X1097157Y476426D01*
X1098285Y476651D01*
X1099373Y477020D01*
X1100404Y477529D01*
X1101360Y478167D01*
X1102225Y478925D01*
X1102983Y479790D01*
X1103621Y480746D01*
X1104130Y481777D01*
X1104499Y482865D01*
X1104724Y483993D01*
X1104799Y485140D01*
X1104724Y486287D01*
X1104499Y487415D01*
X1104130Y488503D01*
X1103621Y489534D01*
X1102983Y490490D01*
X1102225Y491355D01*
X1101360Y492113D01*
X1100404Y492751D01*
X1099373Y493260D01*
X1098285Y493629D01*
X1097157Y493854D01*
X1096010Y493929D01*
D02*
G37*
G36*
X776080Y610980D02*
X755540D01*
Y590440D01*
X776080D01*
Y598148D01*
X918299D01*
X1046783Y469664D01*
X1046488Y468826D01*
X1046186Y468465D01*
X1045210Y468529D01*
X1044063Y468454D01*
X1042935Y468229D01*
X1041847Y467860D01*
X1040816Y467351D01*
X1039860Y466713D01*
X1038995Y465955D01*
X1038237Y465090D01*
X1037599Y464134D01*
X1037090Y463103D01*
X1036721Y462015D01*
X1036496Y460887D01*
X1036421Y459740D01*
X1036496Y458593D01*
X1036721Y457465D01*
X1037090Y456377D01*
X1037599Y455346D01*
X1038237Y454390D01*
X1038995Y453525D01*
X1039860Y452767D01*
X1040816Y452129D01*
X1041847Y451620D01*
X1042935Y451251D01*
X1044063Y451026D01*
X1045210Y450951D01*
X1046357Y451026D01*
X1047485Y451251D01*
X1048573Y451620D01*
X1049604Y452129D01*
X1050560Y452767D01*
X1051425Y453525D01*
X1052183Y454390D01*
X1052821Y455346D01*
X1053330Y456377D01*
X1053699Y457465D01*
X1053924Y458593D01*
X1053999Y459740D01*
X1053935Y460716D01*
X1054296Y461018D01*
X1055134Y461313D01*
X1058519Y457928D01*
X1059049Y457521D01*
X1059667Y457265D01*
X1060330Y457178D01*
X1062218D01*
X1062490Y456377D01*
X1062999Y455346D01*
X1063637Y454390D01*
X1064395Y453525D01*
X1065260Y452767D01*
X1066216Y452129D01*
X1067247Y451620D01*
X1068335Y451251D01*
X1069463Y451026D01*
X1070610Y450951D01*
X1071757Y451026D01*
X1072885Y451251D01*
X1073973Y451620D01*
X1074732Y451995D01*
X1081498Y445228D01*
X1082029Y444821D01*
X1082647Y444565D01*
X1083310Y444478D01*
X1200539D01*
X1200926Y444006D01*
X1201576Y443473D01*
X1202318Y443076D01*
X1203123Y442832D01*
X1203960Y442749D01*
X1204797Y442832D01*
X1205602Y443076D01*
X1206344Y443473D01*
X1206994Y444006D01*
X1207527Y444656D01*
X1207924Y445398D01*
X1208168Y446203D01*
X1208251Y447040D01*
X1208168Y447877D01*
X1207924Y448682D01*
X1207527Y449424D01*
X1206994Y450074D01*
X1206344Y450607D01*
X1205602Y451004D01*
X1204797Y451248D01*
X1203960Y451331D01*
X1203123Y451248D01*
X1202318Y451004D01*
X1201576Y450607D01*
X1200926Y450074D01*
X1200539Y449602D01*
X1151824D01*
X1151527Y450872D01*
X1151841Y451026D01*
X1152935Y451758D01*
X1153925Y452625D01*
X1154792Y453615D01*
X1155524Y454709D01*
X1156106Y455890D01*
X1156529Y457136D01*
X1156785Y458427D01*
X1156788Y458470D01*
X1146810D01*
X1136832D01*
X1136835Y458427D01*
X1137091Y457136D01*
X1137514Y455890D01*
X1138096Y454709D01*
X1138828Y453615D01*
X1139695Y452625D01*
X1140685Y451758D01*
X1141779Y451026D01*
X1142093Y450872D01*
X1141796Y449602D01*
X1126423D01*
X1126127Y450872D01*
X1126441Y451026D01*
X1127535Y451758D01*
X1128525Y452625D01*
X1129392Y453615D01*
X1130124Y454709D01*
X1130706Y455890D01*
X1131129Y457136D01*
X1131385Y458427D01*
X1131388Y458470D01*
X1121410D01*
X1111432D01*
X1111435Y458427D01*
X1111691Y457136D01*
X1112114Y455890D01*
X1112697Y454709D01*
X1113428Y453615D01*
X1114295Y452625D01*
X1115285Y451758D01*
X1116379Y451026D01*
X1116693Y450872D01*
X1116396Y449602D01*
X1084371D01*
X1078355Y455618D01*
X1078730Y456377D01*
X1079099Y457465D01*
X1079324Y458593D01*
X1079399Y459740D01*
X1079324Y460887D01*
X1079099Y462015D01*
X1078730Y463103D01*
X1078221Y464134D01*
X1077583Y465090D01*
X1076825Y465955D01*
X1075960Y466713D01*
X1075004Y467351D01*
X1073973Y467860D01*
X1072885Y468229D01*
X1071757Y468454D01*
X1070610Y468529D01*
X1069463Y468454D01*
X1068335Y468229D01*
X1067247Y467860D01*
X1066216Y467351D01*
X1065260Y466713D01*
X1064395Y465955D01*
X1063637Y465090D01*
X1062999Y464134D01*
X1062490Y463103D01*
X1062418Y462890D01*
X1061018Y462675D01*
X921172Y602522D01*
X920641Y602929D01*
X920023Y603185D01*
X919360Y603272D01*
X776080D01*
Y610980D01*
D02*
G37*
G36*
X1180980Y468510D02*
X1163440D01*
Y450970D01*
X1180980D01*
Y468510D01*
D02*
G37*
G36*
X1121410Y493929D02*
X1120263Y493854D01*
X1119135Y493629D01*
X1118047Y493260D01*
X1117016Y492751D01*
X1116060Y492113D01*
X1115195Y491355D01*
X1114437Y490490D01*
X1113799Y489534D01*
X1113290Y488503D01*
X1112921Y487415D01*
X1112696Y486287D01*
X1112621Y485140D01*
X1112696Y483993D01*
X1112921Y482865D01*
X1113290Y481777D01*
X1113799Y480746D01*
X1114437Y479790D01*
X1115195Y478925D01*
X1116060Y478167D01*
X1117016Y477529D01*
X1118047Y477020D01*
X1119135Y476651D01*
X1120263Y476426D01*
X1121410Y476351D01*
X1122557Y476426D01*
X1123685Y476651D01*
X1124773Y477020D01*
X1125804Y477529D01*
X1126760Y478167D01*
X1127625Y478925D01*
X1128383Y479790D01*
X1129021Y480746D01*
X1129530Y481777D01*
X1129899Y482865D01*
X1130124Y483993D01*
X1130199Y485140D01*
X1130124Y486287D01*
X1129899Y487415D01*
X1129530Y488503D01*
X1129021Y489534D01*
X1128383Y490490D01*
X1127625Y491355D01*
X1126760Y492113D01*
X1125804Y492751D01*
X1124773Y493260D01*
X1123685Y493629D01*
X1122557Y493854D01*
X1121410Y493929D01*
D02*
G37*
G36*
X1248410D02*
X1247263Y493854D01*
X1246135Y493629D01*
X1245047Y493260D01*
X1244016Y492751D01*
X1243060Y492113D01*
X1242195Y491355D01*
X1241437Y490490D01*
X1240799Y489534D01*
X1240290Y488503D01*
X1239921Y487415D01*
X1239696Y486287D01*
X1239621Y485140D01*
X1239696Y483993D01*
X1239921Y482865D01*
X1240290Y481777D01*
X1240799Y480746D01*
X1241437Y479790D01*
X1242195Y478925D01*
X1243060Y478167D01*
X1244016Y477529D01*
X1245047Y477020D01*
X1246135Y476651D01*
X1247263Y476426D01*
X1248410Y476351D01*
X1249557Y476426D01*
X1250685Y476651D01*
X1251773Y477020D01*
X1252804Y477529D01*
X1253760Y478167D01*
X1254625Y478925D01*
X1255383Y479790D01*
X1256021Y480746D01*
X1256530Y481777D01*
X1256899Y482865D01*
X1257124Y483993D01*
X1257199Y485140D01*
X1257124Y486287D01*
X1256899Y487415D01*
X1256530Y488503D01*
X1256021Y489534D01*
X1255383Y490490D01*
X1254625Y491355D01*
X1253760Y492113D01*
X1252804Y492751D01*
X1251773Y493260D01*
X1250685Y493629D01*
X1249557Y493854D01*
X1248410Y493929D01*
D02*
G37*
G36*
X1223010D02*
X1221863Y493854D01*
X1220735Y493629D01*
X1219647Y493260D01*
X1218616Y492751D01*
X1217660Y492113D01*
X1216795Y491355D01*
X1216037Y490490D01*
X1215399Y489534D01*
X1214890Y488503D01*
X1214521Y487415D01*
X1214296Y486287D01*
X1214221Y485140D01*
X1214296Y483993D01*
X1214521Y482865D01*
X1214890Y481777D01*
X1215399Y480746D01*
X1216037Y479790D01*
X1216795Y478925D01*
X1217660Y478167D01*
X1218616Y477529D01*
X1219647Y477020D01*
X1220735Y476651D01*
X1221863Y476426D01*
X1223010Y476351D01*
X1224157Y476426D01*
X1225285Y476651D01*
X1226373Y477020D01*
X1227404Y477529D01*
X1228360Y478167D01*
X1229225Y478925D01*
X1229983Y479790D01*
X1230621Y480746D01*
X1231130Y481777D01*
X1231499Y482865D01*
X1231724Y483993D01*
X1231799Y485140D01*
X1231724Y486287D01*
X1231499Y487415D01*
X1231130Y488503D01*
X1230621Y489534D01*
X1229983Y490490D01*
X1229225Y491355D01*
X1228360Y492113D01*
X1227404Y492751D01*
X1226373Y493260D01*
X1225285Y493629D01*
X1224157Y493854D01*
X1223010Y493929D01*
D02*
G37*
G36*
X1146810D02*
X1145663Y493854D01*
X1144535Y493629D01*
X1143447Y493260D01*
X1142416Y492751D01*
X1141460Y492113D01*
X1140595Y491355D01*
X1139837Y490490D01*
X1139199Y489534D01*
X1138690Y488503D01*
X1138321Y487415D01*
X1138096Y486287D01*
X1138021Y485140D01*
X1138096Y483993D01*
X1138321Y482865D01*
X1138690Y481777D01*
X1139199Y480746D01*
X1139837Y479790D01*
X1140595Y478925D01*
X1141460Y478167D01*
X1142416Y477529D01*
X1143447Y477020D01*
X1144535Y476651D01*
X1145663Y476426D01*
X1146810Y476351D01*
X1147957Y476426D01*
X1149085Y476651D01*
X1150173Y477020D01*
X1151204Y477529D01*
X1152160Y478167D01*
X1153025Y478925D01*
X1153783Y479790D01*
X1154421Y480746D01*
X1154930Y481777D01*
X1155299Y482865D01*
X1155524Y483993D01*
X1155599Y485140D01*
X1155524Y486287D01*
X1155299Y487415D01*
X1154930Y488503D01*
X1154421Y489534D01*
X1153783Y490490D01*
X1153025Y491355D01*
X1152160Y492113D01*
X1151204Y492751D01*
X1150173Y493260D01*
X1149085Y493629D01*
X1147957Y493854D01*
X1146810Y493929D01*
D02*
G37*
G36*
X920496Y504671D02*
X919659Y504588D01*
X918854Y504344D01*
X918112Y503947D01*
X917462Y503414D01*
X916928Y502764D01*
X916532Y502022D01*
X916288Y501217D01*
X916205Y500380D01*
X916288Y499543D01*
X916532Y498738D01*
X916928Y497996D01*
X917462Y497346D01*
X918112Y496813D01*
X918854Y496416D01*
X919659Y496172D01*
X920496Y496089D01*
X921104Y496149D01*
X980342Y436911D01*
X980873Y436503D01*
X981491Y436247D01*
X982154Y436160D01*
X1303592D01*
X1304255Y436247D01*
X1304873Y436503D01*
X1305404Y436911D01*
X1320488Y451995D01*
X1321247Y451620D01*
X1322335Y451251D01*
X1323463Y451026D01*
X1324610Y450951D01*
X1325757Y451026D01*
X1326885Y451251D01*
X1327973Y451620D01*
X1329004Y452129D01*
X1329960Y452767D01*
X1330825Y453525D01*
X1331583Y454390D01*
X1332221Y455346D01*
X1332730Y456377D01*
X1333099Y457465D01*
X1333324Y458593D01*
X1333399Y459740D01*
X1333324Y460887D01*
X1333099Y462015D01*
X1332730Y463103D01*
X1332221Y464134D01*
X1331583Y465090D01*
X1330825Y465955D01*
X1329960Y466713D01*
X1329004Y467351D01*
X1327973Y467860D01*
X1326885Y468229D01*
X1325757Y468454D01*
X1324610Y468529D01*
X1323463Y468454D01*
X1322335Y468229D01*
X1321247Y467860D01*
X1320216Y467351D01*
X1319260Y466713D01*
X1318395Y465955D01*
X1317637Y465090D01*
X1316999Y464134D01*
X1316490Y463103D01*
X1316121Y462015D01*
X1315896Y460887D01*
X1315821Y459740D01*
X1315896Y458593D01*
X1316121Y457465D01*
X1316490Y456377D01*
X1316864Y455618D01*
X1302531Y441284D01*
X983215D01*
X924727Y499772D01*
X924787Y500380D01*
X924704Y501217D01*
X924460Y502022D01*
X924063Y502764D01*
X923530Y503414D01*
X922880Y503947D01*
X922138Y504344D01*
X921333Y504588D01*
X920496Y504671D01*
D02*
G37*
G36*
X1096010Y468529D02*
X1094863Y468454D01*
X1093735Y468229D01*
X1092647Y467860D01*
X1091616Y467351D01*
X1090660Y466713D01*
X1089795Y465955D01*
X1089037Y465090D01*
X1088399Y464134D01*
X1087890Y463103D01*
X1087521Y462015D01*
X1087296Y460887D01*
X1087221Y459740D01*
X1087296Y458593D01*
X1087521Y457465D01*
X1087890Y456377D01*
X1088399Y455346D01*
X1089037Y454390D01*
X1089795Y453525D01*
X1090660Y452767D01*
X1091616Y452129D01*
X1092647Y451620D01*
X1093735Y451251D01*
X1094863Y451026D01*
X1096010Y450951D01*
X1097157Y451026D01*
X1098285Y451251D01*
X1099373Y451620D01*
X1100404Y452129D01*
X1101360Y452767D01*
X1102225Y453525D01*
X1102983Y454390D01*
X1103621Y455346D01*
X1104130Y456377D01*
X1104499Y457465D01*
X1104724Y458593D01*
X1104799Y459740D01*
X1104724Y460887D01*
X1104499Y462015D01*
X1104130Y463103D01*
X1103621Y464134D01*
X1102983Y465090D01*
X1102225Y465955D01*
X1101360Y466713D01*
X1100404Y467351D01*
X1099373Y467860D01*
X1098285Y468229D01*
X1097157Y468454D01*
X1096010Y468529D01*
D02*
G37*
G36*
X1019810D02*
X1018663Y468454D01*
X1017535Y468229D01*
X1016447Y467860D01*
X1015416Y467351D01*
X1014460Y466713D01*
X1013595Y465955D01*
X1012837Y465090D01*
X1012199Y464134D01*
X1011690Y463103D01*
X1011321Y462015D01*
X1011096Y460887D01*
X1011021Y459740D01*
X1011096Y458593D01*
X1011321Y457465D01*
X1011690Y456377D01*
X1012199Y455346D01*
X1012837Y454390D01*
X1013595Y453525D01*
X1014460Y452767D01*
X1015416Y452129D01*
X1016447Y451620D01*
X1017535Y451251D01*
X1018663Y451026D01*
X1019810Y450951D01*
X1020957Y451026D01*
X1022085Y451251D01*
X1023173Y451620D01*
X1024204Y452129D01*
X1025160Y452767D01*
X1026025Y453525D01*
X1026783Y454390D01*
X1027421Y455346D01*
X1027930Y456377D01*
X1028299Y457465D01*
X1028524Y458593D01*
X1028599Y459740D01*
X1028524Y460887D01*
X1028299Y462015D01*
X1027930Y463103D01*
X1027421Y464134D01*
X1026783Y465090D01*
X1026025Y465955D01*
X1025160Y466713D01*
X1024204Y467351D01*
X1023173Y467860D01*
X1022085Y468229D01*
X1020957Y468454D01*
X1019810Y468529D01*
D02*
G37*
G36*
X994410D02*
X993263Y468454D01*
X992135Y468229D01*
X991047Y467860D01*
X990016Y467351D01*
X989060Y466713D01*
X988195Y465955D01*
X987437Y465090D01*
X986799Y464134D01*
X986290Y463103D01*
X985921Y462015D01*
X985696Y460887D01*
X985621Y459740D01*
X985696Y458593D01*
X985921Y457465D01*
X986290Y456377D01*
X986799Y455346D01*
X987437Y454390D01*
X988195Y453525D01*
X989060Y452767D01*
X990016Y452129D01*
X991047Y451620D01*
X992135Y451251D01*
X993263Y451026D01*
X994410Y450951D01*
X995557Y451026D01*
X996685Y451251D01*
X997773Y451620D01*
X998804Y452129D01*
X999760Y452767D01*
X1000625Y453525D01*
X1001383Y454390D01*
X1002021Y455346D01*
X1002530Y456377D01*
X1002899Y457465D01*
X1003124Y458593D01*
X1003199Y459740D01*
X1003124Y460887D01*
X1002899Y462015D01*
X1002530Y463103D01*
X1002021Y464134D01*
X1001383Y465090D01*
X1000625Y465955D01*
X999760Y466713D01*
X998804Y467351D01*
X997773Y467860D01*
X996685Y468229D01*
X995557Y468454D01*
X994410Y468529D01*
D02*
G37*
G36*
X1223010D02*
X1221863Y468454D01*
X1220735Y468229D01*
X1219647Y467860D01*
X1218616Y467351D01*
X1217660Y466713D01*
X1216795Y465955D01*
X1216037Y465090D01*
X1215399Y464134D01*
X1214890Y463103D01*
X1214521Y462015D01*
X1214296Y460887D01*
X1214221Y459740D01*
X1214296Y458593D01*
X1214521Y457465D01*
X1214890Y456377D01*
X1215399Y455346D01*
X1216037Y454390D01*
X1216795Y453525D01*
X1217660Y452767D01*
X1218616Y452129D01*
X1219647Y451620D01*
X1220735Y451251D01*
X1221863Y451026D01*
X1223010Y450951D01*
X1224157Y451026D01*
X1225285Y451251D01*
X1226373Y451620D01*
X1227404Y452129D01*
X1228360Y452767D01*
X1229225Y453525D01*
X1229983Y454390D01*
X1230621Y455346D01*
X1231130Y456377D01*
X1231499Y457465D01*
X1231724Y458593D01*
X1231799Y459740D01*
X1231724Y460887D01*
X1231499Y462015D01*
X1231130Y463103D01*
X1230621Y464134D01*
X1229983Y465090D01*
X1229225Y465955D01*
X1228360Y466713D01*
X1227404Y467351D01*
X1226373Y467860D01*
X1225285Y468229D01*
X1224157Y468454D01*
X1223010Y468529D01*
D02*
G37*
G36*
X1299210D02*
X1298063Y468454D01*
X1296935Y468229D01*
X1295847Y467860D01*
X1294816Y467351D01*
X1293860Y466713D01*
X1292995Y465955D01*
X1292237Y465090D01*
X1291599Y464134D01*
X1291090Y463103D01*
X1290721Y462015D01*
X1290496Y460887D01*
X1290421Y459740D01*
X1290496Y458593D01*
X1290721Y457465D01*
X1291090Y456377D01*
X1291599Y455346D01*
X1292237Y454390D01*
X1292995Y453525D01*
X1293860Y452767D01*
X1294816Y452129D01*
X1295847Y451620D01*
X1296935Y451251D01*
X1298063Y451026D01*
X1299210Y450951D01*
X1300357Y451026D01*
X1301485Y451251D01*
X1302573Y451620D01*
X1303604Y452129D01*
X1304560Y452767D01*
X1305425Y453525D01*
X1306183Y454390D01*
X1306821Y455346D01*
X1307330Y456377D01*
X1307699Y457465D01*
X1307924Y458593D01*
X1307999Y459740D01*
X1307924Y460887D01*
X1307699Y462015D01*
X1307330Y463103D01*
X1306821Y464134D01*
X1306183Y465090D01*
X1305425Y465955D01*
X1304560Y466713D01*
X1303604Y467351D01*
X1302573Y467860D01*
X1301485Y468229D01*
X1300357Y468454D01*
X1299210Y468529D01*
D02*
G37*
G36*
X1273810D02*
X1272663Y468454D01*
X1271535Y468229D01*
X1270447Y467860D01*
X1269416Y467351D01*
X1268460Y466713D01*
X1267595Y465955D01*
X1266837Y465090D01*
X1266199Y464134D01*
X1265690Y463103D01*
X1265321Y462015D01*
X1265096Y460887D01*
X1265021Y459740D01*
X1265096Y458593D01*
X1265321Y457465D01*
X1265690Y456377D01*
X1266199Y455346D01*
X1266837Y454390D01*
X1267595Y453525D01*
X1268460Y452767D01*
X1269416Y452129D01*
X1270447Y451620D01*
X1271535Y451251D01*
X1272663Y451026D01*
X1273810Y450951D01*
X1274957Y451026D01*
X1276085Y451251D01*
X1277173Y451620D01*
X1278204Y452129D01*
X1279160Y452767D01*
X1280025Y453525D01*
X1280783Y454390D01*
X1281421Y455346D01*
X1281930Y456377D01*
X1282299Y457465D01*
X1282524Y458593D01*
X1282599Y459740D01*
X1282524Y460887D01*
X1282299Y462015D01*
X1281930Y463103D01*
X1281421Y464134D01*
X1280783Y465090D01*
X1280025Y465955D01*
X1279160Y466713D01*
X1278204Y467351D01*
X1277173Y467860D01*
X1276085Y468229D01*
X1274957Y468454D01*
X1273810Y468529D01*
D02*
G37*
G36*
X1248410D02*
X1247263Y468454D01*
X1246135Y468229D01*
X1245047Y467860D01*
X1244016Y467351D01*
X1243060Y466713D01*
X1242195Y465955D01*
X1241437Y465090D01*
X1240799Y464134D01*
X1240290Y463103D01*
X1239921Y462015D01*
X1239696Y460887D01*
X1239621Y459740D01*
X1239696Y458593D01*
X1239921Y457465D01*
X1240290Y456377D01*
X1240799Y455346D01*
X1241437Y454390D01*
X1242195Y453525D01*
X1243060Y452767D01*
X1244016Y452129D01*
X1245047Y451620D01*
X1246135Y451251D01*
X1247263Y451026D01*
X1248410Y450951D01*
X1249557Y451026D01*
X1250685Y451251D01*
X1251773Y451620D01*
X1252804Y452129D01*
X1253760Y452767D01*
X1254625Y453525D01*
X1255383Y454390D01*
X1256021Y455346D01*
X1256530Y456377D01*
X1256899Y457465D01*
X1257124Y458593D01*
X1257199Y459740D01*
X1257124Y460887D01*
X1256899Y462015D01*
X1256530Y463103D01*
X1256021Y464134D01*
X1255383Y465090D01*
X1254625Y465955D01*
X1253760Y466713D01*
X1252804Y467351D01*
X1251773Y467860D01*
X1250685Y468229D01*
X1249557Y468454D01*
X1248410Y468529D01*
D02*
G37*
G36*
X1273810Y493929D02*
X1272663Y493854D01*
X1271535Y493629D01*
X1270447Y493260D01*
X1269416Y492751D01*
X1268460Y492113D01*
X1267595Y491355D01*
X1266837Y490490D01*
X1266199Y489534D01*
X1265690Y488503D01*
X1265321Y487415D01*
X1265096Y486287D01*
X1265021Y485140D01*
X1265096Y483993D01*
X1265321Y482865D01*
X1265690Y481777D01*
X1266199Y480746D01*
X1266837Y479790D01*
X1267595Y478925D01*
X1268460Y478167D01*
X1269416Y477529D01*
X1270447Y477020D01*
X1271535Y476651D01*
X1272663Y476426D01*
X1273810Y476351D01*
X1274957Y476426D01*
X1276085Y476651D01*
X1277173Y477020D01*
X1278204Y477529D01*
X1279160Y478167D01*
X1280025Y478925D01*
X1280783Y479790D01*
X1281421Y480746D01*
X1281930Y481777D01*
X1282299Y482865D01*
X1282524Y483993D01*
X1282599Y485140D01*
X1282524Y486287D01*
X1282299Y487415D01*
X1281930Y488503D01*
X1281421Y489534D01*
X1280783Y490490D01*
X1280025Y491355D01*
X1279160Y492113D01*
X1278204Y492751D01*
X1277173Y493260D01*
X1276085Y493629D01*
X1274957Y493854D01*
X1273810Y493929D01*
D02*
G37*
G36*
X1267460Y529590D02*
X1259919D01*
X1260125Y528554D01*
X1260499Y527451D01*
X1261014Y526405D01*
X1261662Y525437D01*
X1262430Y524560D01*
X1263307Y523792D01*
X1264275Y523144D01*
X1265321Y522629D01*
X1266424Y522254D01*
X1267460Y522048D01*
Y529590D01*
D02*
G37*
G36*
X1102281Y520700D02*
X1094740D01*
Y513158D01*
X1095776Y513364D01*
X1096879Y513739D01*
X1097925Y514254D01*
X1098894Y514902D01*
X1099770Y515670D01*
X1100538Y516547D01*
X1101186Y517515D01*
X1101701Y518561D01*
X1102076Y519664D01*
X1102281Y520700D01*
D02*
G37*
G36*
X1092200D02*
X1084659D01*
X1084865Y519664D01*
X1085239Y518561D01*
X1085754Y517515D01*
X1086402Y516547D01*
X1087170Y515670D01*
X1088046Y514902D01*
X1089015Y514254D01*
X1090061Y513739D01*
X1091164Y513364D01*
X1092200Y513158D01*
Y520700D01*
D02*
G37*
G36*
X1277542Y529590D02*
X1270000D01*
Y522048D01*
X1271036Y522254D01*
X1272139Y522629D01*
X1273185Y523144D01*
X1274154Y523792D01*
X1275030Y524560D01*
X1275798Y525437D01*
X1276445Y526405D01*
X1276961Y527451D01*
X1277336Y528554D01*
X1277542Y529590D01*
D02*
G37*
G36*
X1031240Y533400D02*
X1023699D01*
X1023904Y532364D01*
X1024279Y531261D01*
X1024794Y530215D01*
X1025442Y529246D01*
X1026210Y528370D01*
X1027086Y527602D01*
X1028055Y526954D01*
X1029101Y526439D01*
X1030204Y526064D01*
X1031240Y525858D01*
Y533400D01*
D02*
G37*
G36*
X1094740Y530782D02*
Y523240D01*
X1102281D01*
X1102076Y524276D01*
X1101701Y525379D01*
X1101186Y526425D01*
X1100538Y527393D01*
X1099770Y528270D01*
X1098894Y529038D01*
X1097925Y529686D01*
X1096879Y530201D01*
X1095776Y530575D01*
X1094740Y530782D01*
D02*
G37*
G36*
X1092200D02*
X1091164Y530575D01*
X1090061Y530201D01*
X1089015Y529686D01*
X1088046Y529038D01*
X1087170Y528270D01*
X1086402Y527393D01*
X1085754Y526425D01*
X1085239Y525379D01*
X1084865Y524276D01*
X1084659Y523240D01*
X1092200D01*
Y530782D01*
D02*
G37*
G36*
X990600Y519352D02*
Y511810D01*
X998141D01*
X997935Y512846D01*
X997561Y513949D01*
X997046Y514995D01*
X996398Y515964D01*
X995630Y516840D01*
X994753Y517608D01*
X993785Y518256D01*
X992739Y518771D01*
X991636Y519146D01*
X990600Y519352D01*
D02*
G37*
G36*
X1180980Y493910D02*
X1163440D01*
Y476370D01*
X1180980D01*
Y493910D01*
D02*
G37*
G36*
X1324610Y493929D02*
X1323463Y493854D01*
X1322335Y493629D01*
X1321247Y493260D01*
X1320216Y492751D01*
X1319260Y492113D01*
X1318395Y491355D01*
X1317637Y490490D01*
X1316999Y489534D01*
X1316490Y488503D01*
X1316121Y487415D01*
X1315896Y486287D01*
X1315821Y485140D01*
X1315896Y483993D01*
X1316121Y482865D01*
X1316490Y481777D01*
X1316999Y480746D01*
X1317637Y479790D01*
X1318395Y478925D01*
X1319260Y478167D01*
X1320216Y477529D01*
X1321247Y477020D01*
X1322335Y476651D01*
X1323463Y476426D01*
X1324610Y476351D01*
X1325757Y476426D01*
X1326885Y476651D01*
X1327973Y477020D01*
X1329004Y477529D01*
X1329960Y478167D01*
X1330825Y478925D01*
X1331583Y479790D01*
X1332221Y480746D01*
X1332730Y481777D01*
X1333099Y482865D01*
X1333324Y483993D01*
X1333399Y485140D01*
X1333324Y486287D01*
X1333099Y487415D01*
X1332730Y488503D01*
X1332221Y489534D01*
X1331583Y490490D01*
X1330825Y491355D01*
X1329960Y492113D01*
X1329004Y492751D01*
X1327973Y493260D01*
X1326885Y493629D01*
X1325757Y493854D01*
X1324610Y493929D01*
D02*
G37*
G36*
X1299210D02*
X1298063Y493854D01*
X1296935Y493629D01*
X1295847Y493260D01*
X1294816Y492751D01*
X1293860Y492113D01*
X1292995Y491355D01*
X1292237Y490490D01*
X1291599Y489534D01*
X1291090Y488503D01*
X1290721Y487415D01*
X1290496Y486287D01*
X1290421Y485140D01*
X1290496Y483993D01*
X1290721Y482865D01*
X1291090Y481777D01*
X1291599Y480746D01*
X1292237Y479790D01*
X1292995Y478925D01*
X1293860Y478167D01*
X1294816Y477529D01*
X1295847Y477020D01*
X1296935Y476651D01*
X1298063Y476426D01*
X1299210Y476351D01*
X1300357Y476426D01*
X1301485Y476651D01*
X1302573Y477020D01*
X1303604Y477529D01*
X1304560Y478167D01*
X1305425Y478925D01*
X1306183Y479790D01*
X1306821Y480746D01*
X1307330Y481777D01*
X1307699Y482865D01*
X1307924Y483993D01*
X1307999Y485140D01*
X1307924Y486287D01*
X1307699Y487415D01*
X1307330Y488503D01*
X1306821Y489534D01*
X1306183Y490490D01*
X1305425Y491355D01*
X1304560Y492113D01*
X1303604Y492751D01*
X1302573Y493260D01*
X1301485Y493629D01*
X1300357Y493854D01*
X1299210Y493929D01*
D02*
G37*
G36*
X1358780Y493910D02*
X1341240D01*
Y476370D01*
X1358780D01*
Y493910D01*
D02*
G37*
G36*
X988060Y519352D02*
X987024Y519146D01*
X985921Y518771D01*
X984875Y518256D01*
X983906Y517608D01*
X983030Y516840D01*
X982262Y515964D01*
X981615Y514995D01*
X981099Y513949D01*
X980724Y512846D01*
X980518Y511810D01*
X988060D01*
Y519352D01*
D02*
G37*
G36*
X998141Y509270D02*
X990600D01*
Y501729D01*
X991636Y501935D01*
X992739Y502309D01*
X993785Y502825D01*
X994753Y503472D01*
X995630Y504240D01*
X996398Y505117D01*
X997046Y506085D01*
X997561Y507131D01*
X997935Y508234D01*
X998141Y509270D01*
D02*
G37*
G36*
X988060D02*
X980518D01*
X980724Y508234D01*
X981099Y507131D01*
X981615Y506085D01*
X982262Y505117D01*
X983030Y504240D01*
X983906Y503472D01*
X984875Y502825D01*
X985921Y502309D01*
X987024Y501935D01*
X988060Y501729D01*
Y509270D01*
D02*
G37*
G36*
X848360Y892810D02*
X838148D01*
X838164Y892570D01*
X838459Y891087D01*
X838946Y889654D01*
X839615Y888298D01*
X840455Y887040D01*
X841452Y885902D01*
X842590Y884905D01*
X843848Y884065D01*
X845204Y883396D01*
X846637Y882909D01*
X848120Y882614D01*
X848360Y882598D01*
Y892810D01*
D02*
G37*
G36*
X861112D02*
X850900D01*
Y882598D01*
X851140Y882614D01*
X852623Y882909D01*
X854056Y883396D01*
X855412Y884065D01*
X856670Y884905D01*
X857807Y885902D01*
X858805Y887040D01*
X859645Y888298D01*
X860314Y889654D01*
X860801Y891087D01*
X861096Y892570D01*
X861112Y892810D01*
D02*
G37*
G36*
X767080Y861618D02*
X767000Y861613D01*
X765667Y861387D01*
X764367Y861012D01*
X763118Y860495D01*
X761934Y859841D01*
X760831Y859058D01*
X759823Y858157D01*
X758922Y857149D01*
X758139Y856046D01*
X757485Y854862D01*
X756968Y853613D01*
X756593Y852313D01*
X756367Y850980D01*
X756362Y850900D01*
X767080D01*
Y861618D01*
D02*
G37*
G36*
X769620D02*
Y850900D01*
X780338D01*
X780333Y850980D01*
X780107Y852313D01*
X779732Y853613D01*
X779215Y854862D01*
X778561Y856046D01*
X777778Y857149D01*
X776877Y858157D01*
X775869Y859058D01*
X774766Y859841D01*
X773582Y860495D01*
X772333Y861012D01*
X771033Y861387D01*
X769700Y861613D01*
X769620Y861618D01*
D02*
G37*
G36*
X850900Y905562D02*
Y895350D01*
X861112D01*
X861096Y895590D01*
X860801Y897073D01*
X860314Y898506D01*
X859645Y899862D01*
X858805Y901120D01*
X857807Y902258D01*
X856670Y903255D01*
X855412Y904095D01*
X854056Y904764D01*
X852623Y905251D01*
X851140Y905546D01*
X850900Y905562D01*
D02*
G37*
G36*
X953770Y925729D02*
X952623Y925654D01*
X951495Y925429D01*
X950407Y925060D01*
X949376Y924551D01*
X948420Y923913D01*
X947555Y923155D01*
X946797Y922290D01*
X946159Y921334D01*
X945650Y920303D01*
X945281Y919215D01*
X945056Y918087D01*
X944981Y916940D01*
X945056Y915793D01*
X945281Y914665D01*
X945650Y913577D01*
X946159Y912546D01*
X946797Y911590D01*
X947555Y910725D01*
X948420Y909967D01*
X949376Y909329D01*
X950407Y908820D01*
X951495Y908451D01*
X952623Y908226D01*
X953770Y908151D01*
X954917Y908226D01*
X956045Y908451D01*
X957133Y908820D01*
X958164Y909329D01*
X959120Y909967D01*
X959985Y910725D01*
X960743Y911590D01*
X961381Y912546D01*
X961890Y913577D01*
X962259Y914665D01*
X962484Y915793D01*
X962559Y916940D01*
X962484Y918087D01*
X962259Y919215D01*
X961890Y920303D01*
X961381Y921334D01*
X960743Y922290D01*
X959985Y923155D01*
X959120Y923913D01*
X958164Y924551D01*
X957133Y925060D01*
X956045Y925429D01*
X954917Y925654D01*
X953770Y925729D01*
D02*
G37*
G36*
X779120Y911200D02*
X757580D01*
Y889660D01*
X779120D01*
Y911200D01*
D02*
G37*
G36*
X848360Y905562D02*
X848120Y905546D01*
X846637Y905251D01*
X845204Y904764D01*
X843848Y904095D01*
X842590Y903255D01*
X841452Y902258D01*
X840455Y901120D01*
X839615Y899862D01*
X838946Y898506D01*
X838459Y897073D01*
X838164Y895590D01*
X838148Y895350D01*
X848360D01*
Y905562D01*
D02*
G37*
G36*
X1168520Y840620D02*
X1160978D01*
X1161184Y839584D01*
X1161559Y838481D01*
X1162074Y837436D01*
X1162722Y836467D01*
X1163490Y835591D01*
X1164366Y834822D01*
X1165335Y834175D01*
X1166380Y833659D01*
X1167484Y833285D01*
X1168520Y833079D01*
Y840620D01*
D02*
G37*
G36*
X1178601D02*
X1171060D01*
Y833079D01*
X1172096Y833285D01*
X1173199Y833659D01*
X1174244Y834175D01*
X1175213Y834822D01*
X1176089Y835591D01*
X1176858Y836467D01*
X1177505Y837436D01*
X1178021Y838481D01*
X1178395Y839584D01*
X1178601Y840620D01*
D02*
G37*
G36*
X850900Y838251D02*
Y828040D01*
X861112D01*
X861096Y828279D01*
X860801Y829763D01*
X860314Y831196D01*
X859645Y832552D01*
X858805Y833810D01*
X857807Y834948D01*
X856670Y835945D01*
X855412Y836785D01*
X854056Y837454D01*
X852623Y837941D01*
X851140Y838236D01*
X850900Y838251D01*
D02*
G37*
G36*
X1240790Y868078D02*
X1239708Y868007D01*
X1238645Y867795D01*
X1237618Y867447D01*
X1236646Y866967D01*
X1235745Y866365D01*
X1234930Y865650D01*
X1234215Y864835D01*
X1233613Y863934D01*
X1233133Y862962D01*
X1232785Y861935D01*
X1232573Y860872D01*
X1232502Y859790D01*
X1232573Y858708D01*
X1232785Y857645D01*
X1233133Y856618D01*
X1233613Y855646D01*
X1234215Y854745D01*
X1234930Y853930D01*
X1235745Y853215D01*
X1236451Y852743D01*
Y830183D01*
X1236310Y830020D01*
X1235422Y829256D01*
X1234440Y829334D01*
X1233244Y829240D01*
X1232078Y828960D01*
X1230970Y828501D01*
X1229947Y827874D01*
X1229035Y827095D01*
X1228256Y826183D01*
X1227629Y825160D01*
X1227170Y824052D01*
X1226890Y822886D01*
X1226796Y821690D01*
X1226890Y820494D01*
X1227170Y819328D01*
X1227629Y818220D01*
X1228256Y817197D01*
X1229035Y816285D01*
X1229947Y815506D01*
X1230970Y814880D01*
X1232078Y814420D01*
X1233244Y814140D01*
X1234440Y814046D01*
X1235636Y814140D01*
X1236802Y814420D01*
X1237910Y814880D01*
X1238933Y815506D01*
X1239845Y816285D01*
X1240624Y817197D01*
X1241251Y818220D01*
X1241710Y819328D01*
X1241990Y820494D01*
X1242084Y821690D01*
X1241990Y822886D01*
X1241947Y823061D01*
X1243858Y824972D01*
X1244398Y825629D01*
X1244799Y826380D01*
X1245045Y827194D01*
X1245129Y828040D01*
Y852743D01*
X1245835Y853215D01*
X1246650Y853930D01*
X1247365Y854745D01*
X1247967Y855646D01*
X1248447Y856618D01*
X1248795Y857645D01*
X1249007Y858708D01*
X1249078Y859790D01*
X1249007Y860872D01*
X1248795Y861935D01*
X1248447Y862962D01*
X1247967Y863934D01*
X1247365Y864835D01*
X1246650Y865650D01*
X1245835Y866365D01*
X1244934Y866967D01*
X1243962Y867447D01*
X1242935Y867795D01*
X1241872Y868007D01*
X1240790Y868078D01*
D02*
G37*
G36*
X1168520Y850702D02*
X1167484Y850496D01*
X1166380Y850121D01*
X1165335Y849606D01*
X1164366Y848958D01*
X1163490Y848190D01*
X1162722Y847314D01*
X1162074Y846345D01*
X1161559Y845300D01*
X1161184Y844196D01*
X1160978Y843160D01*
X1168520D01*
Y850702D01*
D02*
G37*
G36*
X1171060D02*
Y843160D01*
X1178601D01*
X1178395Y844196D01*
X1178021Y845300D01*
X1177505Y846345D01*
X1176858Y847314D01*
X1176089Y848190D01*
X1175213Y848958D01*
X1174244Y849606D01*
X1173199Y850121D01*
X1172096Y850496D01*
X1171060Y850702D01*
D02*
G37*
G36*
X767080Y848360D02*
X756362D01*
X756367Y848280D01*
X756593Y846947D01*
X756968Y845647D01*
X757485Y844398D01*
X758139Y843214D01*
X758922Y842111D01*
X759823Y841103D01*
X760831Y840202D01*
X761934Y839419D01*
X763118Y838765D01*
X764367Y838248D01*
X765667Y837873D01*
X767000Y837647D01*
X767080Y837642D01*
Y848360D01*
D02*
G37*
G36*
X780338D02*
X769620D01*
Y837642D01*
X769700Y837647D01*
X771033Y837873D01*
X772333Y838248D01*
X773582Y838765D01*
X774766Y839419D01*
X775869Y840202D01*
X776877Y841103D01*
X777778Y842111D01*
X778561Y843214D01*
X779215Y844398D01*
X779732Y845647D01*
X780107Y846947D01*
X780333Y848280D01*
X780338Y848360D01*
D02*
G37*
G36*
X1055370Y951129D02*
X1054223Y951054D01*
X1053095Y950829D01*
X1052007Y950460D01*
X1050976Y949951D01*
X1050020Y949313D01*
X1049155Y948555D01*
X1048397Y947690D01*
X1047759Y946734D01*
X1047250Y945703D01*
X1046881Y944615D01*
X1046656Y943487D01*
X1046581Y942340D01*
X1046656Y941193D01*
X1046881Y940065D01*
X1047250Y938977D01*
X1047759Y937946D01*
X1048397Y936990D01*
X1049155Y936125D01*
X1050020Y935367D01*
X1050976Y934729D01*
X1052007Y934220D01*
X1053095Y933851D01*
X1054223Y933626D01*
X1055370Y933551D01*
X1056517Y933626D01*
X1057645Y933851D01*
X1058733Y934220D01*
X1059764Y934729D01*
X1060720Y935367D01*
X1061585Y936125D01*
X1062343Y936990D01*
X1062981Y937946D01*
X1063490Y938977D01*
X1063859Y940065D01*
X1064084Y941193D01*
X1064159Y942340D01*
X1064084Y943487D01*
X1063859Y944615D01*
X1063490Y945703D01*
X1062981Y946734D01*
X1062343Y947690D01*
X1061585Y948555D01*
X1060720Y949313D01*
X1059764Y949951D01*
X1058733Y950460D01*
X1057645Y950829D01*
X1056517Y951054D01*
X1055370Y951129D01*
D02*
G37*
G36*
X1080770D02*
X1079623Y951054D01*
X1078495Y950829D01*
X1077407Y950460D01*
X1076376Y949951D01*
X1075420Y949313D01*
X1074555Y948555D01*
X1073797Y947690D01*
X1073159Y946734D01*
X1072650Y945703D01*
X1072281Y944615D01*
X1072056Y943487D01*
X1071981Y942340D01*
X1072056Y941193D01*
X1072281Y940065D01*
X1072650Y938977D01*
X1073159Y937946D01*
X1073797Y936990D01*
X1074555Y936125D01*
X1075420Y935367D01*
X1076376Y934729D01*
X1077407Y934220D01*
X1078495Y933851D01*
X1079623Y933626D01*
X1080770Y933551D01*
X1081917Y933626D01*
X1083045Y933851D01*
X1084133Y934220D01*
X1085164Y934729D01*
X1086120Y935367D01*
X1086985Y936125D01*
X1087743Y936990D01*
X1088381Y937946D01*
X1088890Y938977D01*
X1089259Y940065D01*
X1089484Y941193D01*
X1089559Y942340D01*
X1089484Y943487D01*
X1089259Y944615D01*
X1088890Y945703D01*
X1088381Y946734D01*
X1087743Y947690D01*
X1086985Y948555D01*
X1086120Y949313D01*
X1085164Y949951D01*
X1084133Y950460D01*
X1083045Y950829D01*
X1081917Y951054D01*
X1080770Y951129D01*
D02*
G37*
G36*
X1004570D02*
X1003423Y951054D01*
X1002295Y950829D01*
X1001207Y950460D01*
X1000176Y949951D01*
X999220Y949313D01*
X998355Y948555D01*
X997597Y947690D01*
X996959Y946734D01*
X996450Y945703D01*
X996081Y944615D01*
X995856Y943487D01*
X995781Y942340D01*
X995856Y941193D01*
X996081Y940065D01*
X996450Y938977D01*
X996959Y937946D01*
X997597Y936990D01*
X998355Y936125D01*
X999220Y935367D01*
X1000176Y934729D01*
X1001207Y934220D01*
X1002295Y933851D01*
X1003423Y933626D01*
X1004570Y933551D01*
X1005717Y933626D01*
X1006845Y933851D01*
X1007933Y934220D01*
X1008964Y934729D01*
X1009920Y935367D01*
X1010785Y936125D01*
X1011543Y936990D01*
X1012181Y937946D01*
X1012690Y938977D01*
X1013059Y940065D01*
X1013284Y941193D01*
X1013359Y942340D01*
X1013284Y943487D01*
X1013059Y944615D01*
X1012690Y945703D01*
X1012181Y946734D01*
X1011543Y947690D01*
X1010785Y948555D01*
X1009920Y949313D01*
X1008964Y949951D01*
X1007933Y950460D01*
X1006845Y950829D01*
X1005717Y951054D01*
X1004570Y951129D01*
D02*
G37*
G36*
X1029970D02*
X1028823Y951054D01*
X1027695Y950829D01*
X1026607Y950460D01*
X1025576Y949951D01*
X1024620Y949313D01*
X1023755Y948555D01*
X1022997Y947690D01*
X1022359Y946734D01*
X1021850Y945703D01*
X1021481Y944615D01*
X1021256Y943487D01*
X1021181Y942340D01*
X1021256Y941193D01*
X1021481Y940065D01*
X1021850Y938977D01*
X1022359Y937946D01*
X1022997Y936990D01*
X1023755Y936125D01*
X1024620Y935367D01*
X1025576Y934729D01*
X1026607Y934220D01*
X1027695Y933851D01*
X1028823Y933626D01*
X1029970Y933551D01*
X1031117Y933626D01*
X1032245Y933851D01*
X1033333Y934220D01*
X1034364Y934729D01*
X1035320Y935367D01*
X1036185Y936125D01*
X1036943Y936990D01*
X1037581Y937946D01*
X1038090Y938977D01*
X1038459Y940065D01*
X1038684Y941193D01*
X1038759Y942340D01*
X1038684Y943487D01*
X1038459Y944615D01*
X1038090Y945703D01*
X1037581Y946734D01*
X1036943Y947690D01*
X1036185Y948555D01*
X1035320Y949313D01*
X1034364Y949951D01*
X1033333Y950460D01*
X1032245Y950829D01*
X1031117Y951054D01*
X1029970Y951129D01*
D02*
G37*
G36*
X1354074Y959634D02*
X1313942D01*
X1313279Y959547D01*
X1312661Y959291D01*
X1312130Y958884D01*
X1310098Y956852D01*
X1309691Y956321D01*
X1309435Y955703D01*
X1309348Y955040D01*
Y931052D01*
X1237921D01*
X1230755Y938218D01*
X1231130Y938977D01*
X1231499Y940065D01*
X1231724Y941193D01*
X1231799Y942340D01*
X1231724Y943487D01*
X1231499Y944615D01*
X1231130Y945703D01*
X1230621Y946734D01*
X1229983Y947690D01*
X1229225Y948555D01*
X1229095Y948668D01*
X1229573Y949938D01*
X1237189D01*
X1240665Y946462D01*
X1240290Y945703D01*
X1239921Y944615D01*
X1239696Y943487D01*
X1239621Y942340D01*
X1239696Y941193D01*
X1239921Y940065D01*
X1240290Y938977D01*
X1240799Y937946D01*
X1241437Y936990D01*
X1242195Y936125D01*
X1243060Y935367D01*
X1244016Y934729D01*
X1245047Y934220D01*
X1246135Y933851D01*
X1247263Y933626D01*
X1248410Y933551D01*
X1249557Y933626D01*
X1250685Y933851D01*
X1251773Y934220D01*
X1252804Y934729D01*
X1253760Y935367D01*
X1254625Y936125D01*
X1255383Y936990D01*
X1256021Y937946D01*
X1256530Y938977D01*
X1256899Y940065D01*
X1257124Y941193D01*
X1257199Y942340D01*
X1257124Y943487D01*
X1256899Y944615D01*
X1256530Y945703D01*
X1256021Y946734D01*
X1255383Y947690D01*
X1254625Y948555D01*
X1253760Y949313D01*
X1252804Y949951D01*
X1251773Y950460D01*
X1250685Y950829D01*
X1249557Y951054D01*
X1248410Y951129D01*
X1247263Y951054D01*
X1246135Y950829D01*
X1245047Y950460D01*
X1244288Y950086D01*
X1241798Y952575D01*
X1242284Y953748D01*
X1284179D01*
X1291465Y946462D01*
X1291090Y945703D01*
X1290721Y944615D01*
X1290496Y943487D01*
X1290421Y942340D01*
X1290496Y941193D01*
X1290721Y940065D01*
X1291090Y938977D01*
X1291599Y937946D01*
X1292237Y936990D01*
X1292995Y936125D01*
X1293860Y935367D01*
X1294816Y934729D01*
X1295847Y934220D01*
X1296935Y933851D01*
X1298063Y933626D01*
X1299210Y933551D01*
X1300357Y933626D01*
X1301485Y933851D01*
X1302573Y934220D01*
X1303604Y934729D01*
X1304560Y935367D01*
X1305425Y936125D01*
X1306183Y936990D01*
X1306821Y937946D01*
X1307330Y938977D01*
X1307699Y940065D01*
X1307924Y941193D01*
X1307999Y942340D01*
X1307924Y943487D01*
X1307699Y944615D01*
X1307330Y945703D01*
X1306821Y946734D01*
X1306183Y947690D01*
X1305425Y948555D01*
X1304560Y949313D01*
X1303604Y949951D01*
X1302573Y950460D01*
X1301485Y950829D01*
X1300357Y951054D01*
X1299210Y951129D01*
X1298063Y951054D01*
X1296935Y950829D01*
X1295847Y950460D01*
X1295088Y950086D01*
X1287052Y958122D01*
X1286521Y958529D01*
X1285903Y958785D01*
X1285240Y958872D01*
X1150366D01*
X1149703Y958785D01*
X1149085Y958529D01*
X1148554Y958122D01*
X1147030Y956598D01*
X1146623Y956067D01*
X1146367Y955449D01*
X1146280Y954786D01*
Y888791D01*
X1058811Y801323D01*
X1057910Y801394D01*
X1056714Y801300D01*
X1055548Y801020D01*
X1054440Y800561D01*
X1054102Y800354D01*
X1053311Y801358D01*
X1092728Y840775D01*
X1093268Y841433D01*
X1093427Y841732D01*
X1094153Y842176D01*
X1095065Y842955D01*
X1095844Y843867D01*
X1096470Y844890D01*
X1096929Y845998D01*
X1097209Y847164D01*
X1097304Y848360D01*
X1097209Y849556D01*
X1096929Y850722D01*
X1096470Y851830D01*
X1095844Y852853D01*
X1095065Y853765D01*
X1094153Y854544D01*
X1093130Y855171D01*
X1092022Y855630D01*
X1090856Y855910D01*
X1089660Y856004D01*
X1088464Y855910D01*
X1087298Y855630D01*
X1086190Y855171D01*
X1085167Y854544D01*
X1084255Y853765D01*
X1083476Y852853D01*
X1082850Y851830D01*
X1082391Y850722D01*
X1082111Y849556D01*
X1082016Y848360D01*
X1082111Y847164D01*
X1082391Y845998D01*
X1082850Y844890D01*
X1083476Y843867D01*
X1083509Y843829D01*
X1040776Y801096D01*
X1039421Y801162D01*
X1039208Y801395D01*
X1039048Y801693D01*
X1038897Y802289D01*
X1039321Y802980D01*
X1039780Y804088D01*
X1040060Y805254D01*
X1040154Y806450D01*
X1040060Y807646D01*
X1039780Y808812D01*
X1039389Y809755D01*
Y852743D01*
X1040095Y853215D01*
X1040910Y853930D01*
X1041625Y854745D01*
X1042227Y855646D01*
X1042707Y856618D01*
X1043055Y857645D01*
X1043267Y858708D01*
X1043338Y859790D01*
X1043267Y860872D01*
X1043055Y861935D01*
X1042707Y862962D01*
X1042227Y863934D01*
X1041625Y864835D01*
X1040910Y865650D01*
X1040095Y866365D01*
X1039194Y866967D01*
X1038222Y867447D01*
X1037195Y867795D01*
X1036132Y868007D01*
X1035050Y868078D01*
X1033968Y868007D01*
X1032905Y867795D01*
X1031878Y867447D01*
X1030906Y866967D01*
X1030005Y866365D01*
X1029190Y865650D01*
X1028475Y864835D01*
X1027873Y863934D01*
X1027393Y862962D01*
X1027045Y861935D01*
X1026833Y860872D01*
X1026762Y859790D01*
X1026833Y858708D01*
X1027045Y857645D01*
X1027393Y856618D01*
X1027873Y855646D01*
X1028475Y854745D01*
X1029190Y853930D01*
X1030005Y853215D01*
X1030711Y852743D01*
Y813855D01*
X1030148Y813719D01*
X1029040Y813260D01*
X1028017Y812634D01*
X1027105Y811855D01*
X1026326Y810943D01*
X1025699Y809920D01*
X1025240Y808812D01*
X1024960Y807646D01*
X1024866Y806450D01*
X1024960Y805254D01*
X1025240Y804088D01*
X1025699Y802980D01*
X1026326Y801957D01*
X1027105Y801045D01*
X1028017Y800266D01*
X1029040Y799640D01*
X1030148Y799181D01*
X1031314Y798901D01*
X1032166Y798833D01*
X1032515Y798452D01*
X1032675Y798154D01*
X1032826Y797557D01*
X1032403Y796867D01*
X1031944Y795759D01*
X1031664Y794593D01*
X1031570Y793397D01*
X1031664Y792201D01*
X1031944Y791035D01*
X1032403Y789927D01*
X1033029Y788904D01*
X1033808Y787992D01*
X1034579Y787334D01*
X1034577Y786762D01*
X1034324Y785966D01*
X1034212Y785939D01*
X1033104Y785480D01*
X1032081Y784854D01*
X1031169Y784075D01*
X1030390Y783163D01*
X1029763Y782140D01*
X1029305Y781032D01*
X1029025Y779866D01*
X1028930Y778670D01*
X1029025Y777474D01*
X1029305Y776308D01*
X1029763Y775200D01*
X1030390Y774177D01*
X1031169Y773265D01*
X1032081Y772486D01*
X1033104Y771860D01*
X1034212Y771401D01*
X1035378Y771121D01*
X1036574Y771026D01*
X1037770Y771121D01*
X1038936Y771401D01*
X1040044Y771860D01*
X1041067Y772486D01*
X1041979Y773265D01*
X1042758Y774177D01*
X1043384Y775200D01*
X1043761Y776108D01*
X1059346D01*
X1060009Y776195D01*
X1060627Y776451D01*
X1061157Y776859D01*
X1180643Y896344D01*
X1194338D01*
X1194824Y895171D01*
X1065496Y765844D01*
X1065089Y765313D01*
X1064833Y764695D01*
X1064746Y764032D01*
Y625423D01*
X1063838Y625047D01*
X1062815Y624420D01*
X1061903Y623641D01*
X1061124Y622729D01*
X1060498Y621706D01*
X1060039Y620598D01*
X1059759Y619432D01*
X1059664Y618236D01*
X1059759Y617040D01*
X1060039Y615874D01*
X1060498Y614766D01*
X1061124Y613743D01*
X1061903Y612831D01*
X1062815Y612052D01*
X1063838Y611426D01*
X1064946Y610966D01*
X1066112Y610686D01*
X1067308Y610592D01*
X1068504Y610686D01*
X1069670Y610966D01*
X1070778Y611426D01*
X1071801Y612052D01*
X1072713Y612831D01*
X1073492Y613743D01*
X1074118Y614766D01*
X1074577Y615874D01*
X1074857Y617040D01*
X1074952Y618236D01*
X1074857Y619432D01*
X1074577Y620598D01*
X1074118Y621706D01*
X1073492Y622729D01*
X1072713Y623641D01*
X1071801Y624420D01*
X1070778Y625047D01*
X1069870Y625423D01*
Y668983D01*
X1071140Y669451D01*
X1071555Y668965D01*
X1072467Y668186D01*
X1073490Y667560D01*
X1074598Y667101D01*
X1075764Y666821D01*
X1076960Y666726D01*
X1078156Y666821D01*
X1079322Y667101D01*
X1080430Y667560D01*
X1081453Y668186D01*
X1082365Y668965D01*
X1083144Y669877D01*
X1083771Y670900D01*
X1084230Y672008D01*
X1084510Y673174D01*
X1084604Y674370D01*
X1084510Y675566D01*
X1084230Y676732D01*
X1083771Y677840D01*
X1083144Y678863D01*
X1082365Y679775D01*
X1081453Y680554D01*
X1080430Y681180D01*
X1079522Y681557D01*
Y711917D01*
X1146093Y778488D01*
X1153138D01*
Y742950D01*
X1153225Y742287D01*
X1153481Y741669D01*
X1153888Y741138D01*
X1155157Y739870D01*
X1154781Y738962D01*
X1154501Y737796D01*
X1154406Y736600D01*
X1154501Y735404D01*
X1154781Y734238D01*
X1155239Y733130D01*
X1155866Y732107D01*
X1156645Y731195D01*
X1157557Y730416D01*
X1158580Y729790D01*
X1159688Y729331D01*
X1160854Y729051D01*
X1162050Y728956D01*
X1163246Y729051D01*
X1164412Y729331D01*
X1165520Y729790D01*
X1166543Y730416D01*
X1167455Y731195D01*
X1168234Y732107D01*
X1168860Y733130D01*
X1169320Y734238D01*
X1169600Y735404D01*
X1169694Y736600D01*
X1169600Y737796D01*
X1169320Y738962D01*
X1168860Y740070D01*
X1168234Y741093D01*
X1167455Y742005D01*
X1166543Y742784D01*
X1165520Y743410D01*
X1164412Y743869D01*
X1163246Y744149D01*
X1162050Y744244D01*
X1160854Y744149D01*
X1159688Y743869D01*
X1159429Y743762D01*
X1158262Y744635D01*
Y781050D01*
Y815773D01*
X1159170Y816150D01*
X1160193Y816776D01*
X1161105Y817555D01*
X1161884Y818467D01*
X1162511Y819490D01*
X1162970Y820598D01*
X1163250Y821764D01*
X1163344Y822960D01*
X1163250Y824156D01*
X1162970Y825322D01*
X1162511Y826430D01*
X1161884Y827453D01*
X1161105Y828365D01*
X1160193Y829144D01*
X1159170Y829771D01*
X1158062Y830229D01*
X1156896Y830509D01*
X1155700Y830604D01*
X1154504Y830509D01*
X1153338Y830229D01*
X1152230Y829771D01*
X1151207Y829144D01*
X1150295Y828365D01*
X1149516Y827453D01*
X1148889Y826430D01*
X1148430Y825322D01*
X1148150Y824156D01*
X1148056Y822960D01*
X1148150Y821764D01*
X1148430Y820598D01*
X1148889Y819490D01*
X1149516Y818467D01*
X1150295Y817555D01*
X1151207Y816776D01*
X1152230Y816150D01*
X1153138Y815773D01*
Y783612D01*
X1145032D01*
X1144369Y783525D01*
X1143751Y783269D01*
X1143220Y782862D01*
X1075148Y714790D01*
X1074741Y714259D01*
X1074485Y713641D01*
X1074398Y712978D01*
Y681557D01*
X1073490Y681180D01*
X1072467Y680554D01*
X1071555Y679775D01*
X1071140Y679289D01*
X1069870Y679757D01*
Y762971D01*
X1213392Y906492D01*
X1213799Y907023D01*
X1214055Y907641D01*
X1214142Y908304D01*
Y912223D01*
X1215399Y912546D01*
X1216037Y911590D01*
X1216795Y910725D01*
X1217660Y909967D01*
X1218616Y909329D01*
X1219647Y908820D01*
X1220735Y908451D01*
X1221863Y908226D01*
X1223010Y908151D01*
X1224157Y908226D01*
X1225285Y908451D01*
X1226373Y908820D01*
X1227404Y909329D01*
X1228360Y909967D01*
X1229225Y910725D01*
X1229983Y911590D01*
X1230621Y912546D01*
X1231130Y913577D01*
X1231499Y914665D01*
X1231724Y915793D01*
X1231799Y916940D01*
X1231724Y918087D01*
X1231499Y919215D01*
X1231130Y920303D01*
X1230621Y921334D01*
X1229983Y922290D01*
X1229225Y923155D01*
X1228360Y923913D01*
X1227404Y924551D01*
X1226373Y925060D01*
X1225285Y925429D01*
X1224157Y925654D01*
X1223010Y925729D01*
X1221863Y925654D01*
X1220735Y925429D01*
X1219647Y925060D01*
X1218616Y924551D01*
X1217660Y923913D01*
X1216795Y923155D01*
X1216037Y922290D01*
X1215399Y921334D01*
X1214142Y921657D01*
Y937623D01*
X1215399Y937946D01*
X1216037Y936990D01*
X1216795Y936125D01*
X1217660Y935367D01*
X1218616Y934729D01*
X1219647Y934220D01*
X1220735Y933851D01*
X1221863Y933626D01*
X1223010Y933551D01*
X1224157Y933626D01*
X1225285Y933851D01*
X1226373Y934220D01*
X1227132Y934594D01*
X1235049Y926678D01*
X1235579Y926271D01*
X1236197Y926015D01*
X1236860Y925928D01*
X1243936D01*
X1244232Y924658D01*
X1244016Y924551D01*
X1243060Y923913D01*
X1242195Y923155D01*
X1241437Y922290D01*
X1240799Y921334D01*
X1240290Y920303D01*
X1239921Y919215D01*
X1239696Y918087D01*
X1239621Y916940D01*
X1239696Y915793D01*
X1239921Y914665D01*
X1240290Y913577D01*
X1240799Y912546D01*
X1241437Y911590D01*
X1242195Y910725D01*
X1243060Y909967D01*
X1244016Y909329D01*
X1245047Y908820D01*
X1246135Y908451D01*
X1247263Y908226D01*
X1248410Y908151D01*
X1249557Y908226D01*
X1250685Y908451D01*
X1251773Y908820D01*
X1252804Y909329D01*
X1253760Y909967D01*
X1254625Y910725D01*
X1255383Y911590D01*
X1256021Y912546D01*
X1256530Y913577D01*
X1256899Y914665D01*
X1257124Y915793D01*
X1257199Y916940D01*
X1257124Y918087D01*
X1256899Y919215D01*
X1256530Y920303D01*
X1256021Y921334D01*
X1255383Y922290D01*
X1254625Y923155D01*
X1253760Y923913D01*
X1252804Y924551D01*
X1252588Y924658D01*
X1252884Y925928D01*
X1269336D01*
X1269632Y924658D01*
X1269416Y924551D01*
X1268460Y923913D01*
X1267595Y923155D01*
X1266837Y922290D01*
X1266199Y921334D01*
X1265690Y920303D01*
X1265321Y919215D01*
X1265096Y918087D01*
X1265021Y916940D01*
X1265096Y915793D01*
X1265321Y914665D01*
X1265690Y913577D01*
X1266199Y912546D01*
X1266837Y911590D01*
X1267595Y910725D01*
X1268460Y909967D01*
X1269416Y909329D01*
X1270447Y908820D01*
X1271535Y908451D01*
X1272663Y908226D01*
X1273810Y908151D01*
X1274957Y908226D01*
X1276085Y908451D01*
X1277173Y908820D01*
X1278204Y909329D01*
X1279160Y909967D01*
X1280025Y910725D01*
X1280783Y911590D01*
X1281421Y912546D01*
X1281930Y913577D01*
X1282299Y914665D01*
X1282524Y915793D01*
X1282599Y916940D01*
X1282524Y918087D01*
X1282299Y919215D01*
X1281930Y920303D01*
X1281421Y921334D01*
X1280783Y922290D01*
X1280025Y923155D01*
X1279160Y923913D01*
X1278204Y924551D01*
X1277988Y924658D01*
X1278284Y925928D01*
X1294736D01*
X1295032Y924658D01*
X1294816Y924551D01*
X1293860Y923913D01*
X1292995Y923155D01*
X1292237Y922290D01*
X1291599Y921334D01*
X1291090Y920303D01*
X1290721Y919215D01*
X1290496Y918087D01*
X1290421Y916940D01*
X1290496Y915793D01*
X1290721Y914665D01*
X1291090Y913577D01*
X1291599Y912546D01*
X1292237Y911590D01*
X1292995Y910725D01*
X1293860Y909967D01*
X1294816Y909329D01*
X1295847Y908820D01*
X1296935Y908451D01*
X1298063Y908226D01*
X1299210Y908151D01*
X1300357Y908226D01*
X1301485Y908451D01*
X1302573Y908820D01*
X1303604Y909329D01*
X1304560Y909967D01*
X1305425Y910725D01*
X1306183Y911590D01*
X1306821Y912546D01*
X1307330Y913577D01*
X1307699Y914665D01*
X1307924Y915793D01*
X1307999Y916940D01*
X1307924Y918087D01*
X1307699Y919215D01*
X1307330Y920303D01*
X1306821Y921334D01*
X1306183Y922290D01*
X1305425Y923155D01*
X1304560Y923913D01*
X1303604Y924551D01*
X1303388Y924658D01*
X1303684Y925928D01*
X1310640D01*
X1311303Y926015D01*
X1311921Y926271D01*
X1312452Y926678D01*
X1313722Y927948D01*
X1314129Y928479D01*
X1314385Y929097D01*
X1314472Y929760D01*
Y953979D01*
X1315003Y954510D01*
X1353013D01*
X1355240Y952283D01*
X1354754Y951110D01*
X1341240D01*
Y937193D01*
X1339308Y935262D01*
X1338901Y934731D01*
X1338645Y934113D01*
X1338558Y933450D01*
Y929551D01*
X1335498Y926491D01*
X1335091Y925961D01*
X1334835Y925343D01*
X1334748Y924680D01*
Y847897D01*
X1273602Y786751D01*
X1272451Y787396D01*
X1272469Y787474D01*
X1272564Y788670D01*
X1272469Y789866D01*
X1272189Y791032D01*
X1272177Y791061D01*
X1304818Y823702D01*
X1305358Y824359D01*
X1305759Y825110D01*
X1306006Y825923D01*
X1306089Y826770D01*
Y849702D01*
X1306243Y849796D01*
X1307155Y850575D01*
X1307934Y851487D01*
X1308560Y852510D01*
X1309019Y853618D01*
X1309299Y854784D01*
X1309394Y855980D01*
X1309299Y857176D01*
X1309019Y858342D01*
X1308560Y859450D01*
X1307934Y860473D01*
X1307155Y861385D01*
X1306243Y862164D01*
X1305220Y862791D01*
X1304112Y863250D01*
X1302946Y863530D01*
X1301750Y863624D01*
X1300554Y863530D01*
X1299388Y863250D01*
X1298280Y862791D01*
X1297257Y862164D01*
X1296345Y861385D01*
X1295566Y860473D01*
X1294940Y859450D01*
X1294480Y858342D01*
X1294200Y857176D01*
X1294106Y855980D01*
X1294200Y854784D01*
X1294480Y853618D01*
X1294940Y852510D01*
X1295566Y851487D01*
X1296345Y850575D01*
X1297257Y849796D01*
X1297411Y849702D01*
Y828567D01*
X1265140Y796296D01*
X1264920Y796314D01*
X1263724Y796219D01*
X1262558Y795939D01*
X1262529Y795927D01*
X1260760Y797696D01*
X1261043Y798500D01*
X1261366Y798886D01*
X1262380Y798806D01*
X1263576Y798901D01*
X1264742Y799181D01*
X1265850Y799640D01*
X1266873Y800266D01*
X1267785Y801045D01*
X1268564Y801957D01*
X1269191Y802980D01*
X1269650Y804088D01*
X1269930Y805254D01*
X1270024Y806450D01*
X1269930Y807646D01*
X1269650Y808812D01*
X1269259Y809755D01*
Y852743D01*
X1269965Y853215D01*
X1270780Y853930D01*
X1271495Y854745D01*
X1272097Y855646D01*
X1272577Y856618D01*
X1272925Y857645D01*
X1273137Y858708D01*
X1273208Y859790D01*
X1273137Y860872D01*
X1272925Y861935D01*
X1272577Y862962D01*
X1272097Y863934D01*
X1271495Y864835D01*
X1270780Y865650D01*
X1269965Y866365D01*
X1269064Y866967D01*
X1268092Y867447D01*
X1267065Y867795D01*
X1266002Y868007D01*
X1264920Y868078D01*
X1263838Y868007D01*
X1262775Y867795D01*
X1261748Y867447D01*
X1260776Y866967D01*
X1259875Y866365D01*
X1259060Y865650D01*
X1258345Y864835D01*
X1257743Y863934D01*
X1257263Y862962D01*
X1256915Y861935D01*
X1256703Y860872D01*
X1256632Y859790D01*
X1256703Y858708D01*
X1256915Y857645D01*
X1257263Y856618D01*
X1257743Y855646D01*
X1258345Y854745D01*
X1259060Y853930D01*
X1259875Y853215D01*
X1260581Y852743D01*
Y813855D01*
X1260018Y813719D01*
X1258910Y813260D01*
X1257887Y812634D01*
X1256975Y811855D01*
X1256196Y810943D01*
X1255570Y809920D01*
X1255110Y808812D01*
X1254830Y807646D01*
X1254736Y806450D01*
X1254816Y805436D01*
X1254429Y805113D01*
X1253626Y804830D01*
X1250208Y808248D01*
X1249551Y808788D01*
X1248800Y809189D01*
X1247987Y809436D01*
X1247140Y809519D01*
X1210310D01*
X1209464Y809436D01*
X1208650Y809189D01*
X1207899Y808788D01*
X1207242Y808248D01*
X1201598Y802604D01*
X1200446Y803249D01*
X1200518Y803546D01*
X1200612Y804742D01*
X1200518Y805937D01*
X1200238Y807104D01*
X1199779Y808212D01*
X1199152Y809234D01*
X1198373Y810146D01*
X1197461Y810925D01*
X1196439Y811552D01*
X1195330Y812011D01*
X1194329Y812252D01*
Y851520D01*
X1198260D01*
Y868060D01*
X1181720D01*
Y851520D01*
X1185651D01*
Y807720D01*
X1185709Y807129D01*
X1185699Y807104D01*
X1185419Y805937D01*
X1185325Y804742D01*
X1185419Y803546D01*
X1185699Y802380D01*
X1186158Y801272D01*
X1186456Y800786D01*
X1186263Y800191D01*
X1185789Y799524D01*
X1185787Y799523D01*
X1184858Y799449D01*
X1183691Y799169D01*
X1182583Y798710D01*
X1181561Y798084D01*
X1180649Y797305D01*
X1179870Y796393D01*
X1179243Y795370D01*
X1178784Y794262D01*
X1178504Y793096D01*
X1178410Y791900D01*
X1178504Y790704D01*
X1178784Y789538D01*
X1179243Y788430D01*
X1179870Y787407D01*
X1180649Y786495D01*
X1181561Y785716D01*
X1182583Y785089D01*
X1183691Y784631D01*
X1184858Y784351D01*
X1186053Y784256D01*
X1187249Y784351D01*
X1188416Y784631D01*
X1189524Y785089D01*
X1190546Y785716D01*
X1191458Y786495D01*
X1192237Y787407D01*
X1192331Y787561D01*
X1197030D01*
X1197877Y787644D01*
X1198690Y787891D01*
X1199441Y788292D01*
X1200098Y788832D01*
X1212107Y800841D01*
X1245343D01*
X1257294Y788890D01*
X1257276Y788670D01*
X1257371Y787474D01*
X1257651Y786308D01*
X1258110Y785200D01*
X1258736Y784177D01*
X1259515Y783265D01*
X1260427Y782486D01*
X1261450Y781860D01*
X1262558Y781401D01*
X1263724Y781121D01*
X1264920Y781026D01*
X1266116Y781121D01*
X1266194Y781139D01*
X1266839Y779988D01*
X1081246Y594395D01*
X1080338Y594771D01*
X1079172Y595051D01*
X1077976Y595146D01*
X1076780Y595051D01*
X1075614Y594771D01*
X1074506Y594313D01*
X1073483Y593686D01*
X1072571Y592907D01*
X1071792Y591995D01*
X1071165Y590972D01*
X1070706Y589864D01*
X1070426Y588698D01*
X1070332Y587502D01*
X1070426Y586306D01*
X1070706Y585140D01*
X1071165Y584032D01*
X1071792Y583009D01*
X1072571Y582097D01*
X1073483Y581318D01*
X1074506Y580691D01*
X1075614Y580233D01*
X1076780Y579953D01*
X1077976Y579858D01*
X1079172Y579953D01*
X1080338Y580233D01*
X1081446Y580691D01*
X1082469Y581318D01*
X1083381Y582097D01*
X1084160Y583009D01*
X1084787Y584032D01*
X1085246Y585140D01*
X1085526Y586306D01*
X1085620Y587502D01*
X1085526Y588698D01*
X1085246Y589864D01*
X1084869Y590772D01*
X1339122Y845024D01*
X1339529Y845555D01*
X1339785Y846173D01*
X1339872Y846836D01*
Y922520D01*
X1339970Y922585D01*
X1341240Y921906D01*
Y908170D01*
X1357608D01*
Y842055D01*
X1252186Y736634D01*
X1251779Y736103D01*
X1251523Y735485D01*
X1251436Y734822D01*
Y671790D01*
X1250166Y671405D01*
X1249905Y671795D01*
X1249190Y672610D01*
X1248375Y673325D01*
X1247474Y673927D01*
X1246502Y674407D01*
X1245475Y674755D01*
X1244412Y674967D01*
X1243330Y675038D01*
X1242248Y674967D01*
X1241185Y674755D01*
X1240158Y674407D01*
X1239186Y673927D01*
X1238285Y673325D01*
X1237470Y672610D01*
X1236755Y671795D01*
X1236153Y670894D01*
X1235673Y669922D01*
X1235325Y668895D01*
X1235113Y667832D01*
X1235042Y666750D01*
X1235113Y665668D01*
X1235325Y664605D01*
X1235673Y663578D01*
X1236153Y662606D01*
X1236755Y661705D01*
X1237470Y660890D01*
X1238285Y660175D01*
X1238991Y659703D01*
Y637143D01*
X1238850Y636980D01*
X1237962Y636216D01*
X1236980Y636294D01*
X1235784Y636199D01*
X1234618Y635919D01*
X1233510Y635461D01*
X1232487Y634834D01*
X1231575Y634055D01*
X1230796Y633143D01*
X1230170Y632120D01*
X1229710Y631012D01*
X1229430Y629846D01*
X1229336Y628650D01*
X1229430Y627454D01*
X1229710Y626288D01*
X1230170Y625180D01*
X1230796Y624157D01*
X1231575Y623245D01*
X1232487Y622466D01*
X1233510Y621839D01*
X1234618Y621381D01*
X1235784Y621101D01*
X1236980Y621006D01*
X1238176Y621101D01*
X1239342Y621381D01*
X1240450Y621839D01*
X1241473Y622466D01*
X1242385Y623245D01*
X1243164Y624157D01*
X1243791Y625180D01*
X1244249Y626288D01*
X1244529Y627454D01*
X1244624Y628650D01*
X1244529Y629846D01*
X1244487Y630021D01*
X1246398Y631932D01*
X1246938Y632589D01*
X1247339Y633340D01*
X1247586Y634154D01*
X1247608Y634381D01*
X1247847Y634576D01*
X1248926Y634899D01*
X1249505Y634404D01*
X1250528Y633778D01*
X1251636Y633318D01*
X1252802Y633038D01*
X1253998Y632944D01*
X1255194Y633038D01*
X1256360Y633318D01*
X1257468Y633778D01*
X1258491Y634404D01*
X1259403Y635183D01*
X1260073Y635968D01*
X1260533Y635933D01*
X1261343Y635560D01*
Y620155D01*
X1260427Y619594D01*
X1259515Y618815D01*
X1258736Y617903D01*
X1258110Y616880D01*
X1257651Y615772D01*
X1257371Y614606D01*
X1257276Y613410D01*
X1257371Y612214D01*
X1257651Y611048D01*
X1258110Y609940D01*
X1258736Y608917D01*
X1259515Y608005D01*
X1260427Y607226D01*
X1261450Y606600D01*
X1262558Y606141D01*
X1263201Y605986D01*
X1263416Y604628D01*
X1262967Y604354D01*
X1262055Y603575D01*
X1261276Y602663D01*
X1260649Y601640D01*
X1260191Y600532D01*
X1259911Y599366D01*
X1259816Y598170D01*
X1259911Y596974D01*
X1260191Y595808D01*
X1260649Y594700D01*
X1261276Y593677D01*
X1262055Y592765D01*
X1262967Y591986D01*
X1263990Y591359D01*
X1265098Y590900D01*
X1266264Y590620D01*
X1267460Y590526D01*
X1268656Y590620D01*
X1269822Y590900D01*
X1270930Y591359D01*
X1271953Y591986D01*
X1272865Y592765D01*
X1273644Y593677D01*
X1274270Y594700D01*
X1274730Y595808D01*
X1275010Y596974D01*
X1275104Y598170D01*
X1275010Y599366D01*
X1274967Y599541D01*
X1298468Y623042D01*
X1299008Y623699D01*
X1299409Y624450D01*
X1299655Y625263D01*
X1299739Y626110D01*
Y655234D01*
X1300314Y655907D01*
X1300941Y656930D01*
X1301400Y658038D01*
X1301680Y659204D01*
X1301774Y660400D01*
X1301680Y661596D01*
X1301400Y662762D01*
X1300941Y663870D01*
X1300314Y664893D01*
X1299535Y665805D01*
X1298623Y666584D01*
X1297600Y667210D01*
X1296492Y667670D01*
X1295326Y667950D01*
X1294130Y668044D01*
X1292934Y667950D01*
X1291768Y667670D01*
X1290660Y667210D01*
X1289637Y666584D01*
X1288725Y665805D01*
X1287946Y664893D01*
X1287319Y663870D01*
X1286861Y662762D01*
X1286581Y661596D01*
X1286486Y660400D01*
X1286581Y659204D01*
X1286861Y658038D01*
X1287319Y656930D01*
X1287946Y655907D01*
X1288725Y654995D01*
X1289637Y654216D01*
X1290660Y653589D01*
X1291061Y653423D01*
Y627907D01*
X1286465Y623312D01*
X1285895Y623379D01*
X1285123Y623765D01*
X1284955Y624606D01*
X1284581Y625709D01*
X1284066Y626755D01*
X1283418Y627724D01*
X1282650Y628600D01*
X1281774Y629368D01*
X1280805Y630015D01*
X1279759Y630531D01*
X1278656Y630905D01*
X1277620Y631111D01*
Y622300D01*
X1275080D01*
Y631111D01*
X1274044Y630905D01*
X1272941Y630531D01*
X1271895Y630015D01*
X1271291Y629612D01*
X1270258Y630029D01*
X1270021Y630263D01*
Y658886D01*
X1270632Y659093D01*
X1271604Y659573D01*
X1272505Y660175D01*
X1273320Y660890D01*
X1274035Y661705D01*
X1274637Y662606D01*
X1275117Y663578D01*
X1275465Y664605D01*
X1275677Y665668D01*
X1275748Y666750D01*
X1275677Y667832D01*
X1275465Y668895D01*
X1275117Y669922D01*
X1274637Y670894D01*
X1274035Y671795D01*
X1273320Y672610D01*
X1272505Y673325D01*
X1271604Y673927D01*
X1270632Y674407D01*
X1269605Y674755D01*
X1268542Y674967D01*
X1267460Y675038D01*
X1266378Y674967D01*
X1265315Y674755D01*
X1264288Y674407D01*
X1263316Y673927D01*
X1262415Y673325D01*
X1261600Y672610D01*
X1260885Y671795D01*
X1260283Y670894D01*
X1259803Y669922D01*
X1259455Y668895D01*
X1259243Y667832D01*
X1259172Y666750D01*
X1259243Y665668D01*
X1259455Y664605D01*
X1259803Y663578D01*
X1260283Y662606D01*
X1260885Y661705D01*
X1261343Y661182D01*
Y645616D01*
X1260533Y645243D01*
X1260073Y645208D01*
X1259403Y645993D01*
X1258491Y646772D01*
X1257468Y647399D01*
X1256560Y647775D01*
Y733761D01*
X1361982Y839182D01*
X1362389Y839713D01*
X1362645Y840331D01*
X1362732Y840994D01*
Y950976D01*
X1362645Y951639D01*
X1362389Y952257D01*
X1361982Y952788D01*
X1355886Y958884D01*
X1355355Y959291D01*
X1354737Y959547D01*
X1354074Y959634D01*
D02*
G37*
G36*
X1324610Y951129D02*
X1323463Y951054D01*
X1322335Y950829D01*
X1321247Y950460D01*
X1320216Y949951D01*
X1319260Y949313D01*
X1318395Y948555D01*
X1317637Y947690D01*
X1316999Y946734D01*
X1316490Y945703D01*
X1316121Y944615D01*
X1315896Y943487D01*
X1315821Y942340D01*
X1315896Y941193D01*
X1316121Y940065D01*
X1316490Y938977D01*
X1316999Y937946D01*
X1317637Y936990D01*
X1318395Y936125D01*
X1319260Y935367D01*
X1320216Y934729D01*
X1321247Y934220D01*
X1322335Y933851D01*
X1323463Y933626D01*
X1324610Y933551D01*
X1325757Y933626D01*
X1326885Y933851D01*
X1327973Y934220D01*
X1329004Y934729D01*
X1329960Y935367D01*
X1330825Y936125D01*
X1331583Y936990D01*
X1332221Y937946D01*
X1332730Y938977D01*
X1333099Y940065D01*
X1333324Y941193D01*
X1333399Y942340D01*
X1333324Y943487D01*
X1333099Y944615D01*
X1332730Y945703D01*
X1332221Y946734D01*
X1331583Y947690D01*
X1330825Y948555D01*
X1329960Y949313D01*
X1329004Y949951D01*
X1327973Y950460D01*
X1326885Y950829D01*
X1325757Y951054D01*
X1324610Y951129D01*
D02*
G37*
G36*
X1092200Y958872D02*
X920750D01*
X920087Y958785D01*
X919469Y958529D01*
X918938Y958122D01*
X913858Y953042D01*
X913451Y952511D01*
X913195Y951893D01*
X913108Y951230D01*
Y935781D01*
X856277Y878950D01*
X839360D01*
Y858410D01*
X859900D01*
Y875327D01*
X917482Y932908D01*
X917889Y933439D01*
X918145Y934057D01*
X918232Y934720D01*
Y950169D01*
X921811Y953748D01*
X1091139D01*
X1098425Y946462D01*
X1098050Y945703D01*
X1097681Y944615D01*
X1097456Y943487D01*
X1097381Y942340D01*
X1097456Y941193D01*
X1097681Y940065D01*
X1098050Y938977D01*
X1098559Y937946D01*
X1099197Y936990D01*
X1099955Y936125D01*
X1100820Y935367D01*
X1101776Y934729D01*
X1102807Y934220D01*
X1103895Y933851D01*
X1105023Y933626D01*
X1106170Y933551D01*
X1107317Y933626D01*
X1108445Y933851D01*
X1109533Y934220D01*
X1110564Y934729D01*
X1111520Y935367D01*
X1112385Y936125D01*
X1113143Y936990D01*
X1113781Y937946D01*
X1114290Y938977D01*
X1114659Y940065D01*
X1114884Y941193D01*
X1114959Y942340D01*
X1114884Y943487D01*
X1114659Y944615D01*
X1114290Y945703D01*
X1113781Y946734D01*
X1113143Y947690D01*
X1112385Y948555D01*
X1111520Y949313D01*
X1110564Y949951D01*
X1109533Y950460D01*
X1108445Y950829D01*
X1107317Y951054D01*
X1106170Y951129D01*
X1105023Y951054D01*
X1103895Y950829D01*
X1102807Y950460D01*
X1102048Y950086D01*
X1094012Y958122D01*
X1093481Y958529D01*
X1092863Y958785D01*
X1092200Y958872D01*
D02*
G37*
G36*
X1273810Y951129D02*
X1272663Y951054D01*
X1271535Y950829D01*
X1270447Y950460D01*
X1269416Y949951D01*
X1268460Y949313D01*
X1267595Y948555D01*
X1266837Y947690D01*
X1266199Y946734D01*
X1265690Y945703D01*
X1265321Y944615D01*
X1265096Y943487D01*
X1265021Y942340D01*
X1265096Y941193D01*
X1265321Y940065D01*
X1265690Y938977D01*
X1266199Y937946D01*
X1266837Y936990D01*
X1267595Y936125D01*
X1268460Y935367D01*
X1269416Y934729D01*
X1270447Y934220D01*
X1271535Y933851D01*
X1272663Y933626D01*
X1273810Y933551D01*
X1274957Y933626D01*
X1276085Y933851D01*
X1277173Y934220D01*
X1278204Y934729D01*
X1279160Y935367D01*
X1280025Y936125D01*
X1280783Y936990D01*
X1281421Y937946D01*
X1281930Y938977D01*
X1282299Y940065D01*
X1282524Y941193D01*
X1282599Y942340D01*
X1282524Y943487D01*
X1282299Y944615D01*
X1281930Y945703D01*
X1281421Y946734D01*
X1280783Y947690D01*
X1280025Y948555D01*
X1279160Y949313D01*
X1278204Y949951D01*
X1277173Y950460D01*
X1276085Y950829D01*
X1274957Y951054D01*
X1273810Y951129D01*
D02*
G37*
G36*
X1324610Y925729D02*
X1323463Y925654D01*
X1322335Y925429D01*
X1321247Y925060D01*
X1320216Y924551D01*
X1319260Y923913D01*
X1318395Y923155D01*
X1317637Y922290D01*
X1316999Y921334D01*
X1316490Y920303D01*
X1316121Y919215D01*
X1315896Y918087D01*
X1315821Y916940D01*
X1315896Y915793D01*
X1316121Y914665D01*
X1316490Y913577D01*
X1316999Y912546D01*
X1317637Y911590D01*
X1318395Y910725D01*
X1319260Y909967D01*
X1320216Y909329D01*
X1321247Y908820D01*
X1322335Y908451D01*
X1323463Y908226D01*
X1324610Y908151D01*
X1325757Y908226D01*
X1326885Y908451D01*
X1327973Y908820D01*
X1329004Y909329D01*
X1329960Y909967D01*
X1330825Y910725D01*
X1331583Y911590D01*
X1332221Y912546D01*
X1332730Y913577D01*
X1333099Y914665D01*
X1333324Y915793D01*
X1333399Y916940D01*
X1333324Y918087D01*
X1333099Y919215D01*
X1332730Y920303D01*
X1332221Y921334D01*
X1331583Y922290D01*
X1330825Y923155D01*
X1329960Y923913D01*
X1329004Y924551D01*
X1327973Y925060D01*
X1326885Y925429D01*
X1325757Y925654D01*
X1324610Y925729D01*
D02*
G37*
G36*
X1140340Y951110D02*
X1122800D01*
Y933570D01*
X1125138D01*
X1125624Y932397D01*
X1124279Y931052D01*
X1019930D01*
X1019267Y930965D01*
X1018649Y930709D01*
X1018118Y930301D01*
X1015458Y927642D01*
X1015051Y927111D01*
X1014795Y926493D01*
X1014708Y925830D01*
Y909365D01*
X971008Y865666D01*
X970601Y865135D01*
X970345Y864517D01*
X970258Y863854D01*
Y832433D01*
X969350Y832057D01*
X968327Y831430D01*
X967415Y830651D01*
X966636Y829739D01*
X966010Y828716D01*
X965729Y828039D01*
X964459Y828291D01*
Y851520D01*
X968390D01*
Y868060D01*
X951850D01*
Y851520D01*
X955781D01*
Y807720D01*
X955839Y807129D01*
X955829Y807104D01*
X955549Y805937D01*
X955455Y804742D01*
X955549Y803546D01*
X955829Y802380D01*
X956288Y801272D01*
X956288Y801271D01*
X955365Y800425D01*
X954453Y801204D01*
X953430Y801831D01*
X952322Y802290D01*
X951156Y802570D01*
X949960Y802664D01*
X949740Y802646D01*
X932709Y819677D01*
Y863672D01*
X932863Y863766D01*
X933775Y864545D01*
X934554Y865457D01*
X935181Y866480D01*
X935639Y867588D01*
X935919Y868754D01*
X936014Y869950D01*
X935919Y871146D01*
X935639Y872312D01*
X935181Y873420D01*
X934554Y874443D01*
X933775Y875355D01*
X932863Y876134D01*
X931840Y876760D01*
X930732Y877219D01*
X929566Y877499D01*
X928370Y877594D01*
X927174Y877499D01*
X926008Y877219D01*
X924900Y876760D01*
X923877Y876134D01*
X922965Y875355D01*
X922186Y874443D01*
X921560Y873420D01*
X921100Y872312D01*
X920820Y871146D01*
X920726Y869950D01*
X920820Y868754D01*
X921100Y867588D01*
X921560Y866480D01*
X922186Y865457D01*
X922965Y864545D01*
X923877Y863766D01*
X924031Y863672D01*
Y817880D01*
X924115Y817033D01*
X924361Y816220D01*
X924762Y815469D01*
X925302Y814812D01*
X942703Y797411D01*
X942691Y797382D01*
X942411Y796216D01*
X942316Y795020D01*
X942411Y793824D01*
X942691Y792658D01*
X943149Y791550D01*
X943776Y790527D01*
X944555Y789615D01*
X945467Y788836D01*
X946490Y788210D01*
X947598Y787750D01*
X948764Y787470D01*
X949960Y787376D01*
X951156Y787470D01*
X952322Y787750D01*
X953430Y788210D01*
X954453Y788836D01*
X955365Y789615D01*
X956144Y790527D01*
X956770Y791550D01*
X957230Y792658D01*
X957510Y793824D01*
X957604Y795020D01*
X957510Y796216D01*
X957230Y797382D01*
X956770Y798490D01*
X956770Y798490D01*
X957694Y799337D01*
X958606Y798558D01*
X959628Y797931D01*
X960736Y797472D01*
X961903Y797192D01*
X963098Y797098D01*
X964294Y797192D01*
X965460Y797472D01*
X966569Y797931D01*
X967591Y798558D01*
X968503Y799337D01*
X969282Y800249D01*
X969909Y801272D01*
X970368Y802380D01*
X970648Y803546D01*
X970742Y804742D01*
X970648Y805937D01*
X970368Y807104D01*
X969909Y808212D01*
X969282Y809234D01*
X968503Y810146D01*
X967591Y810925D01*
X966569Y811552D01*
X965460Y812011D01*
X964459Y812252D01*
Y822201D01*
X965729Y822453D01*
X966010Y821776D01*
X966636Y820753D01*
X967415Y819841D01*
X968327Y819062D01*
X969350Y818436D01*
X970458Y817977D01*
X971624Y817697D01*
X972820Y817602D01*
X974016Y817697D01*
X975182Y817977D01*
X976290Y818436D01*
X977313Y819062D01*
X978225Y819841D01*
X979004Y820753D01*
X979631Y821776D01*
X979946Y822539D01*
X981242Y822347D01*
X981264Y822113D01*
X981511Y821300D01*
X981912Y820549D01*
X982452Y819892D01*
X983109Y819352D01*
X983860Y818951D01*
X984673Y818705D01*
X985520Y818621D01*
X986367Y818705D01*
X986492Y818743D01*
X986579Y818689D01*
X987687Y818231D01*
X988854Y817951D01*
X990049Y817856D01*
X991245Y817951D01*
X992411Y818231D01*
X993519Y818689D01*
X994542Y819316D01*
X995454Y820095D01*
X996233Y821007D01*
X996263Y821055D01*
X997683Y820944D01*
X997759Y820760D01*
X998386Y819737D01*
X999165Y818825D01*
X1000077Y818046D01*
X1001100Y817420D01*
X1002208Y816961D01*
X1003374Y816681D01*
X1004570Y816586D01*
X1005766Y816681D01*
X1006932Y816961D01*
X1008040Y817420D01*
X1009063Y818046D01*
X1009975Y818825D01*
X1010754Y819737D01*
X1011380Y820760D01*
X1011840Y821868D01*
X1012120Y823034D01*
X1012125Y823109D01*
X1013988Y824972D01*
X1014528Y825629D01*
X1014929Y826380D01*
X1015175Y827194D01*
X1015259Y828040D01*
Y852743D01*
X1015965Y853215D01*
X1016780Y853930D01*
X1017495Y854745D01*
X1018097Y855646D01*
X1018577Y856618D01*
X1018925Y857645D01*
X1019137Y858708D01*
X1019208Y859790D01*
X1019137Y860872D01*
X1018925Y861935D01*
X1018577Y862962D01*
X1018097Y863934D01*
X1017495Y864835D01*
X1016780Y865650D01*
X1015965Y866365D01*
X1015064Y866967D01*
X1014092Y867447D01*
X1013065Y867795D01*
X1012002Y868007D01*
X1010920Y868078D01*
X1009838Y868007D01*
X1008775Y867795D01*
X1007748Y867447D01*
X1006776Y866967D01*
X1005875Y866365D01*
X1005060Y865650D01*
X1004345Y864835D01*
X1003743Y863934D01*
X1003263Y862962D01*
X1002915Y861935D01*
X1002703Y860872D01*
X1002632Y859790D01*
X1002703Y858708D01*
X1002915Y857645D01*
X1003263Y856618D01*
X1003743Y855646D01*
X1004345Y854745D01*
X1005060Y853930D01*
X1005875Y853215D01*
X1006581Y852743D01*
Y832681D01*
X1005311Y831815D01*
X1004570Y831874D01*
X1003374Y831779D01*
X1002208Y831499D01*
X1001100Y831040D01*
X1000077Y830414D01*
X999165Y829635D01*
X998386Y828723D01*
X998357Y828675D01*
X996936Y828786D01*
X996860Y828970D01*
X996233Y829993D01*
X995454Y830905D01*
X994542Y831684D01*
X993519Y832310D01*
X992411Y832769D01*
X991245Y833049D01*
X990049Y833144D01*
X989859Y833319D01*
Y852743D01*
X990565Y853215D01*
X991380Y853930D01*
X992095Y854745D01*
X992697Y855646D01*
X993177Y856618D01*
X993525Y857645D01*
X993737Y858708D01*
X993808Y859790D01*
X993737Y860872D01*
X993525Y861935D01*
X993177Y862962D01*
X992697Y863934D01*
X992095Y864835D01*
X991380Y865650D01*
X990565Y866365D01*
X989664Y866967D01*
X988692Y867447D01*
X987665Y867795D01*
X986602Y868007D01*
X985520Y868078D01*
X984438Y868007D01*
X983375Y867795D01*
X982348Y867447D01*
X981376Y866967D01*
X981305Y866920D01*
X980496Y867906D01*
X1019082Y906492D01*
X1019489Y907023D01*
X1019745Y907641D01*
X1019832Y908304D01*
Y924769D01*
X1020991Y925928D01*
X1025496D01*
X1025792Y924658D01*
X1025576Y924551D01*
X1024620Y923913D01*
X1023755Y923155D01*
X1022997Y922290D01*
X1022359Y921334D01*
X1021850Y920303D01*
X1021481Y919215D01*
X1021256Y918087D01*
X1021181Y916940D01*
X1021256Y915793D01*
X1021481Y914665D01*
X1021850Y913577D01*
X1022359Y912546D01*
X1022997Y911590D01*
X1023755Y910725D01*
X1024620Y909967D01*
X1025576Y909329D01*
X1026607Y908820D01*
X1027695Y908451D01*
X1028823Y908226D01*
X1029970Y908151D01*
X1031117Y908226D01*
X1032245Y908451D01*
X1033333Y908820D01*
X1034364Y909329D01*
X1035320Y909967D01*
X1036185Y910725D01*
X1036943Y911590D01*
X1037581Y912546D01*
X1038090Y913577D01*
X1038459Y914665D01*
X1038684Y915793D01*
X1038759Y916940D01*
X1038684Y918087D01*
X1038459Y919215D01*
X1038090Y920303D01*
X1037581Y921334D01*
X1036943Y922290D01*
X1036185Y923155D01*
X1035320Y923913D01*
X1034364Y924551D01*
X1034148Y924658D01*
X1034444Y925928D01*
X1050896D01*
X1051192Y924658D01*
X1050976Y924551D01*
X1050020Y923913D01*
X1049155Y923155D01*
X1048397Y922290D01*
X1047759Y921334D01*
X1047250Y920303D01*
X1046881Y919215D01*
X1046656Y918087D01*
X1046581Y916940D01*
X1046656Y915793D01*
X1046881Y914665D01*
X1047250Y913577D01*
X1047759Y912546D01*
X1048397Y911590D01*
X1049155Y910725D01*
X1050020Y909967D01*
X1050976Y909329D01*
X1052007Y908820D01*
X1053095Y908451D01*
X1054223Y908226D01*
X1055370Y908151D01*
X1056517Y908226D01*
X1057645Y908451D01*
X1058733Y908820D01*
X1059764Y909329D01*
X1060720Y909967D01*
X1061585Y910725D01*
X1062343Y911590D01*
X1062981Y912546D01*
X1063490Y913577D01*
X1063859Y914665D01*
X1064084Y915793D01*
X1064159Y916940D01*
X1064084Y918087D01*
X1063859Y919215D01*
X1063490Y920303D01*
X1062981Y921334D01*
X1062343Y922290D01*
X1061585Y923155D01*
X1060720Y923913D01*
X1059764Y924551D01*
X1059548Y924658D01*
X1059844Y925928D01*
X1076296D01*
X1076592Y924658D01*
X1076376Y924551D01*
X1075420Y923913D01*
X1074555Y923155D01*
X1073797Y922290D01*
X1073159Y921334D01*
X1072650Y920303D01*
X1072281Y919215D01*
X1072056Y918087D01*
X1071981Y916940D01*
X1072056Y915793D01*
X1072281Y914665D01*
X1072650Y913577D01*
X1073159Y912546D01*
X1073797Y911590D01*
X1074555Y910725D01*
X1075420Y909967D01*
X1076376Y909329D01*
X1077407Y908820D01*
X1078495Y908451D01*
X1079623Y908226D01*
X1080770Y908151D01*
X1081917Y908226D01*
X1083045Y908451D01*
X1084133Y908820D01*
X1085164Y909329D01*
X1086120Y909967D01*
X1086985Y910725D01*
X1087743Y911590D01*
X1088381Y912546D01*
X1088890Y913577D01*
X1089259Y914665D01*
X1089484Y915793D01*
X1089559Y916940D01*
X1089484Y918087D01*
X1089259Y919215D01*
X1088890Y920303D01*
X1088381Y921334D01*
X1087743Y922290D01*
X1086985Y923155D01*
X1086120Y923913D01*
X1085164Y924551D01*
X1084948Y924658D01*
X1085244Y925928D01*
X1101696D01*
X1101992Y924658D01*
X1101776Y924551D01*
X1100820Y923913D01*
X1099955Y923155D01*
X1099197Y922290D01*
X1098559Y921334D01*
X1098050Y920303D01*
X1097681Y919215D01*
X1097456Y918087D01*
X1097381Y916940D01*
X1097456Y915793D01*
X1097681Y914665D01*
X1098050Y913577D01*
X1098559Y912546D01*
X1099197Y911590D01*
X1099955Y910725D01*
X1100820Y909967D01*
X1101776Y909329D01*
X1102807Y908820D01*
X1103895Y908451D01*
X1105023Y908226D01*
X1106170Y908151D01*
X1107317Y908226D01*
X1108445Y908451D01*
X1109533Y908820D01*
X1110564Y909329D01*
X1111520Y909967D01*
X1112385Y910725D01*
X1113143Y911590D01*
X1113781Y912546D01*
X1114290Y913577D01*
X1114659Y914665D01*
X1114884Y915793D01*
X1114959Y916940D01*
X1114884Y918087D01*
X1114659Y919215D01*
X1114290Y920303D01*
X1113781Y921334D01*
X1113143Y922290D01*
X1112385Y923155D01*
X1111520Y923913D01*
X1110564Y924551D01*
X1110348Y924658D01*
X1110644Y925928D01*
X1121620D01*
X1122800Y925710D01*
X1122800Y924658D01*
Y908170D01*
X1140340D01*
Y925710D01*
X1127947D01*
X1127833Y925849D01*
X1127453Y926980D01*
X1133382Y932908D01*
X1133789Y933439D01*
X1133843Y933570D01*
X1140340D01*
Y951110D01*
D02*
G37*
G36*
X979170Y925729D02*
X978023Y925654D01*
X976895Y925429D01*
X975807Y925060D01*
X974776Y924551D01*
X973820Y923913D01*
X972955Y923155D01*
X972197Y922290D01*
X971559Y921334D01*
X971050Y920303D01*
X970681Y919215D01*
X970456Y918087D01*
X970381Y916940D01*
X970456Y915793D01*
X970681Y914665D01*
X971050Y913577D01*
X971559Y912546D01*
X972197Y911590D01*
X972955Y910725D01*
X973820Y909967D01*
X974776Y909329D01*
X975807Y908820D01*
X976895Y908451D01*
X978023Y908226D01*
X979170Y908151D01*
X980317Y908226D01*
X981445Y908451D01*
X982533Y908820D01*
X983564Y909329D01*
X984520Y909967D01*
X985385Y910725D01*
X986143Y911590D01*
X986781Y912546D01*
X987290Y913577D01*
X987659Y914665D01*
X987884Y915793D01*
X987959Y916940D01*
X987884Y918087D01*
X987659Y919215D01*
X987290Y920303D01*
X986781Y921334D01*
X986143Y922290D01*
X985385Y923155D01*
X984520Y923913D01*
X983564Y924551D01*
X982533Y925060D01*
X981445Y925429D01*
X980317Y925654D01*
X979170Y925729D01*
D02*
G37*
G36*
X1004570D02*
X1003423Y925654D01*
X1002295Y925429D01*
X1001207Y925060D01*
X1000176Y924551D01*
X999220Y923913D01*
X998355Y923155D01*
X997597Y922290D01*
X996959Y921334D01*
X996450Y920303D01*
X996081Y919215D01*
X995856Y918087D01*
X995781Y916940D01*
X995856Y915793D01*
X996081Y914665D01*
X996450Y913577D01*
X996959Y912546D01*
X997597Y911590D01*
X998355Y910725D01*
X999220Y909967D01*
X1000176Y909329D01*
X1001207Y908820D01*
X1002295Y908451D01*
X1003423Y908226D01*
X1004570Y908151D01*
X1005717Y908226D01*
X1006845Y908451D01*
X1007933Y908820D01*
X1008964Y909329D01*
X1009920Y909967D01*
X1010785Y910725D01*
X1011543Y911590D01*
X1012181Y912546D01*
X1012690Y913577D01*
X1013059Y914665D01*
X1013284Y915793D01*
X1013359Y916940D01*
X1013284Y918087D01*
X1013059Y919215D01*
X1012690Y920303D01*
X1012181Y921334D01*
X1011543Y922290D01*
X1010785Y923155D01*
X1009920Y923913D01*
X1008964Y924551D01*
X1007933Y925060D01*
X1006845Y925429D01*
X1005717Y925654D01*
X1004570Y925729D01*
D02*
G37*
G36*
X953770Y951129D02*
X952623Y951054D01*
X951495Y950829D01*
X950407Y950460D01*
X949376Y949951D01*
X948420Y949313D01*
X947555Y948555D01*
X946797Y947690D01*
X946159Y946734D01*
X945650Y945703D01*
X945281Y944615D01*
X945056Y943487D01*
X944981Y942340D01*
X945056Y941193D01*
X945281Y940065D01*
X945650Y938977D01*
X946159Y937946D01*
X946797Y936990D01*
X947555Y936125D01*
X948420Y935367D01*
X949376Y934729D01*
X950407Y934220D01*
X951495Y933851D01*
X952623Y933626D01*
X953770Y933551D01*
X954917Y933626D01*
X956045Y933851D01*
X957133Y934220D01*
X958164Y934729D01*
X959120Y935367D01*
X959985Y936125D01*
X960743Y936990D01*
X961381Y937946D01*
X961890Y938977D01*
X962259Y940065D01*
X962484Y941193D01*
X962559Y942340D01*
X962484Y943487D01*
X962259Y944615D01*
X961890Y945703D01*
X961381Y946734D01*
X960743Y947690D01*
X959985Y948555D01*
X959120Y949313D01*
X958164Y949951D01*
X957133Y950460D01*
X956045Y950829D01*
X954917Y951054D01*
X953770Y951129D01*
D02*
G37*
G36*
X979170D02*
X978023Y951054D01*
X976895Y950829D01*
X975807Y950460D01*
X974776Y949951D01*
X973820Y949313D01*
X972955Y948555D01*
X972197Y947690D01*
X971559Y946734D01*
X971050Y945703D01*
X970681Y944615D01*
X970456Y943487D01*
X970381Y942340D01*
X970456Y941193D01*
X970681Y940065D01*
X971050Y938977D01*
X971559Y937946D01*
X972197Y936990D01*
X972955Y936125D01*
X973820Y935367D01*
X974776Y934729D01*
X975807Y934220D01*
X976895Y933851D01*
X978023Y933626D01*
X979170Y933551D01*
X980317Y933626D01*
X981445Y933851D01*
X982533Y934220D01*
X983564Y934729D01*
X984520Y935367D01*
X985385Y936125D01*
X986143Y936990D01*
X986781Y937946D01*
X987290Y938977D01*
X987659Y940065D01*
X987884Y941193D01*
X987959Y942340D01*
X987884Y943487D01*
X987659Y944615D01*
X987290Y945703D01*
X986781Y946734D01*
X986143Y947690D01*
X985385Y948555D01*
X984520Y949313D01*
X983564Y949951D01*
X982533Y950460D01*
X981445Y950829D01*
X980317Y951054D01*
X979170Y951129D01*
D02*
G37*
G36*
X902970D02*
X901823Y951054D01*
X900695Y950829D01*
X899607Y950460D01*
X898576Y949951D01*
X897620Y949313D01*
X896755Y948555D01*
X895997Y947690D01*
X895359Y946734D01*
X894850Y945703D01*
X894481Y944615D01*
X894256Y943487D01*
X894181Y942340D01*
X894256Y941193D01*
X894481Y940065D01*
X894850Y938977D01*
X895359Y937946D01*
X895997Y936990D01*
X896755Y936125D01*
X897620Y935367D01*
X898576Y934729D01*
X899607Y934220D01*
X900695Y933851D01*
X901823Y933626D01*
X902970Y933551D01*
X904117Y933626D01*
X905245Y933851D01*
X906333Y934220D01*
X907364Y934729D01*
X908320Y935367D01*
X909185Y936125D01*
X909943Y936990D01*
X910581Y937946D01*
X911090Y938977D01*
X911459Y940065D01*
X911684Y941193D01*
X911759Y942340D01*
X911684Y943487D01*
X911459Y944615D01*
X911090Y945703D01*
X910581Y946734D01*
X909943Y947690D01*
X909185Y948555D01*
X908320Y949313D01*
X907364Y949951D01*
X906333Y950460D01*
X905245Y950829D01*
X904117Y951054D01*
X902970Y951129D01*
D02*
G37*
G36*
X928370D02*
X927223Y951054D01*
X926095Y950829D01*
X925007Y950460D01*
X923976Y949951D01*
X923020Y949313D01*
X922155Y948555D01*
X921397Y947690D01*
X920759Y946734D01*
X920250Y945703D01*
X919881Y944615D01*
X919656Y943487D01*
X919581Y942340D01*
X919656Y941193D01*
X919881Y940065D01*
X920250Y938977D01*
X920759Y937946D01*
X921397Y936990D01*
X922155Y936125D01*
X923020Y935367D01*
X923976Y934729D01*
X925007Y934220D01*
X926095Y933851D01*
X927223Y933626D01*
X928370Y933551D01*
X929517Y933626D01*
X930645Y933851D01*
X931733Y934220D01*
X932764Y934729D01*
X933720Y935367D01*
X934585Y936125D01*
X935343Y936990D01*
X935981Y937946D01*
X936490Y938977D01*
X936859Y940065D01*
X937084Y941193D01*
X937159Y942340D01*
X937084Y943487D01*
X936859Y944615D01*
X936490Y945703D01*
X935981Y946734D01*
X935343Y947690D01*
X934585Y948555D01*
X933720Y949313D01*
X932764Y949951D01*
X931733Y950460D01*
X930645Y950829D01*
X929517Y951054D01*
X928370Y951129D01*
D02*
G37*
G36*
X1109902Y769620D02*
X1102360D01*
Y762078D01*
X1103396Y762284D01*
X1104499Y762659D01*
X1105545Y763175D01*
X1106514Y763822D01*
X1107390Y764590D01*
X1108158Y765467D01*
X1108805Y766435D01*
X1109321Y767481D01*
X1109696Y768584D01*
X1109902Y769620D01*
D02*
G37*
G36*
X984250Y768470D02*
X980127D01*
X980235Y768023D01*
X980569Y767217D01*
X981024Y766473D01*
X981590Y765810D01*
X982254Y765244D01*
X982997Y764789D01*
X983803Y764455D01*
X984250Y764347D01*
Y768470D01*
D02*
G37*
G36*
X850900Y770941D02*
Y760730D01*
X861112D01*
X861096Y760969D01*
X860801Y762453D01*
X860314Y763886D01*
X859645Y765242D01*
X858805Y766500D01*
X857807Y767637D01*
X856670Y768635D01*
X855412Y769475D01*
X854056Y770144D01*
X852623Y770631D01*
X851140Y770926D01*
X850900Y770941D01*
D02*
G37*
G36*
X1099820Y769620D02*
X1092279D01*
X1092485Y768584D01*
X1092859Y767481D01*
X1093374Y766435D01*
X1094022Y765467D01*
X1094790Y764590D01*
X1095667Y763822D01*
X1096635Y763175D01*
X1097681Y762659D01*
X1098784Y762284D01*
X1099820Y762078D01*
Y769620D01*
D02*
G37*
G36*
X1243643Y768470D02*
X1239520D01*
Y764347D01*
X1239967Y764455D01*
X1240773Y764789D01*
X1241516Y765244D01*
X1242179Y765810D01*
X1242746Y766473D01*
X1243201Y767217D01*
X1243535Y768023D01*
X1243643Y768470D01*
D02*
G37*
G36*
X1099820Y779702D02*
X1098784Y779495D01*
X1097681Y779121D01*
X1096635Y778605D01*
X1095667Y777958D01*
X1094790Y777190D01*
X1094022Y776313D01*
X1093374Y775345D01*
X1092859Y774299D01*
X1092485Y773196D01*
X1092279Y772160D01*
X1099820D01*
Y779702D01*
D02*
G37*
G36*
X1013773Y768470D02*
X1009650D01*
Y764347D01*
X1010097Y764455D01*
X1010903Y764789D01*
X1011646Y765244D01*
X1012309Y765810D01*
X1012876Y766473D01*
X1013331Y767217D01*
X1013665Y768023D01*
X1013773Y768470D01*
D02*
G37*
G36*
X1214120D02*
X1209997D01*
X1210105Y768023D01*
X1210439Y767217D01*
X1210894Y766473D01*
X1211460Y765810D01*
X1212124Y765244D01*
X1212867Y764789D01*
X1213673Y764455D01*
X1214120Y764347D01*
Y768470D01*
D02*
G37*
G36*
X1041400Y742871D02*
X1040364Y742665D01*
X1039261Y742291D01*
X1038215Y741776D01*
X1037246Y741128D01*
X1036370Y740360D01*
X1035602Y739483D01*
X1034955Y738515D01*
X1034439Y737469D01*
X1034064Y736366D01*
X1033858Y735330D01*
X1041400D01*
Y742871D01*
D02*
G37*
G36*
X1043940D02*
Y735330D01*
X1051481D01*
X1051275Y736366D01*
X1050901Y737469D01*
X1050386Y738515D01*
X1049738Y739483D01*
X1048970Y740360D01*
X1048093Y741128D01*
X1047125Y741776D01*
X1046079Y742291D01*
X1044976Y742665D01*
X1043940Y742871D01*
D02*
G37*
G36*
X1267460Y735251D02*
X1266424Y735045D01*
X1265321Y734671D01*
X1264275Y734156D01*
X1263307Y733508D01*
X1262430Y732740D01*
X1261662Y731863D01*
X1261014Y730895D01*
X1260499Y729849D01*
X1260125Y728746D01*
X1259919Y727710D01*
X1267460D01*
Y735251D01*
D02*
G37*
G36*
X1270000D02*
Y727710D01*
X1277542D01*
X1277336Y728746D01*
X1276961Y729849D01*
X1276445Y730895D01*
X1275798Y731863D01*
X1275030Y732740D01*
X1274154Y733508D01*
X1273185Y734156D01*
X1272139Y734671D01*
X1271036Y735045D01*
X1270000Y735251D01*
D02*
G37*
G36*
X861112Y758190D02*
X850900D01*
Y747979D01*
X851140Y747994D01*
X852623Y748289D01*
X854056Y748776D01*
X855412Y749445D01*
X856670Y750285D01*
X857807Y751283D01*
X858805Y752420D01*
X859645Y753678D01*
X860314Y755034D01*
X860801Y756467D01*
X861096Y757951D01*
X861112Y758190D01*
D02*
G37*
G36*
X848360Y770941D02*
X848120Y770926D01*
X846637Y770631D01*
X845204Y770144D01*
X843848Y769475D01*
X842590Y768635D01*
X841452Y767637D01*
X840455Y766500D01*
X839615Y765242D01*
X838946Y763886D01*
X838459Y762453D01*
X838164Y760969D01*
X838148Y760730D01*
X848360D01*
Y770941D01*
D02*
G37*
G36*
X777850Y760070D02*
X756310D01*
Y738530D01*
X777850D01*
Y760070D01*
D02*
G37*
G36*
X848360Y758190D02*
X838148D01*
X838164Y757951D01*
X838459Y756467D01*
X838946Y755034D01*
X839615Y753678D01*
X840455Y752420D01*
X841452Y751283D01*
X842590Y750285D01*
X843848Y749445D01*
X845204Y748776D01*
X846637Y748289D01*
X848120Y747994D01*
X848360Y747979D01*
Y758190D01*
D02*
G37*
G36*
X920750Y811451D02*
X919714Y811245D01*
X918611Y810871D01*
X917565Y810356D01*
X916597Y809708D01*
X915720Y808940D01*
X914952Y808064D01*
X914305Y807095D01*
X913789Y806049D01*
X913415Y804946D01*
X913208Y803910D01*
X920750D01*
Y811451D01*
D02*
G37*
G36*
X923290D02*
Y803910D01*
X930832D01*
X930626Y804946D01*
X930251Y806049D01*
X929735Y807095D01*
X929088Y808064D01*
X928320Y808940D01*
X927443Y809708D01*
X926475Y810356D01*
X925429Y810871D01*
X924326Y811245D01*
X923290Y811451D01*
D02*
G37*
G36*
X1007110Y797992D02*
X1006663Y797885D01*
X1005857Y797551D01*
X1005114Y797096D01*
X1004451Y796529D01*
X1003884Y795866D01*
X1003429Y795123D01*
X1003352Y794939D01*
X1001978D01*
X1001901Y795123D01*
X1001446Y795866D01*
X1000880Y796529D01*
X1000216Y797096D01*
X999473Y797551D01*
X998667Y797885D01*
X998220Y797992D01*
Y792600D01*
X995680D01*
Y797992D01*
X995233Y797885D01*
X994427Y797551D01*
X993684Y797096D01*
X993020Y796529D01*
X992454Y795866D01*
X991999Y795123D01*
X991922Y794939D01*
X990548D01*
X990471Y795123D01*
X990016Y795866D01*
X989449Y796529D01*
X988786Y797096D01*
X988043Y797551D01*
X987237Y797885D01*
X986790Y797992D01*
Y792600D01*
X985520D01*
Y791330D01*
X980127D01*
X980235Y790883D01*
X980569Y790077D01*
X981024Y789333D01*
X981590Y788670D01*
X982254Y788104D01*
X982997Y787648D01*
X983181Y787572D01*
Y786198D01*
X982997Y786121D01*
X982254Y785666D01*
X981590Y785099D01*
X981024Y784436D01*
X980569Y783693D01*
X980235Y782887D01*
X980127Y782440D01*
X985520D01*
Y779900D01*
X980127D01*
X980235Y779453D01*
X980569Y778647D01*
X981024Y777904D01*
X981590Y777240D01*
X982254Y776674D01*
X982997Y776218D01*
X983181Y776142D01*
Y774768D01*
X982997Y774691D01*
X982254Y774236D01*
X981590Y773669D01*
X981024Y773006D01*
X980569Y772263D01*
X980235Y771457D01*
X980127Y771010D01*
X985520D01*
Y769740D01*
X986790D01*
Y764347D01*
X987237Y764455D01*
X988043Y764789D01*
X988786Y765244D01*
X989449Y765810D01*
X990016Y766473D01*
X990471Y767217D01*
X990548Y767401D01*
X991922D01*
X991999Y767217D01*
X992454Y766473D01*
X993020Y765810D01*
X993684Y765244D01*
X994427Y764789D01*
X995233Y764455D01*
X995680Y764347D01*
Y769740D01*
X998220D01*
Y764347D01*
X998667Y764455D01*
X999473Y764789D01*
X1000216Y765244D01*
X1000880Y765810D01*
X1001446Y766473D01*
X1001901Y767217D01*
X1001978Y767401D01*
X1003352D01*
X1003429Y767217D01*
X1003884Y766473D01*
X1004451Y765810D01*
X1005114Y765244D01*
X1005857Y764789D01*
X1006663Y764455D01*
X1007110Y764347D01*
Y769740D01*
X1008380D01*
Y771010D01*
X1013773D01*
X1013665Y771457D01*
X1013331Y772263D01*
X1012876Y773006D01*
X1012309Y773669D01*
X1011646Y774236D01*
X1010903Y774691D01*
X1010719Y774768D01*
Y776142D01*
X1010903Y776218D01*
X1011646Y776674D01*
X1012309Y777240D01*
X1012876Y777904D01*
X1013331Y778647D01*
X1013665Y779453D01*
X1013773Y779900D01*
X1008380D01*
Y782440D01*
X1013773D01*
X1013665Y782887D01*
X1013331Y783693D01*
X1012876Y784436D01*
X1012309Y785099D01*
X1011646Y785666D01*
X1010903Y786121D01*
X1010719Y786198D01*
Y787572D01*
X1010903Y787648D01*
X1011646Y788104D01*
X1012309Y788670D01*
X1012876Y789333D01*
X1013331Y790077D01*
X1013665Y790883D01*
X1013773Y791330D01*
X1008380D01*
Y792600D01*
X1007110D01*
Y797992D01*
D02*
G37*
G36*
X1236980D02*
X1236533Y797885D01*
X1235727Y797551D01*
X1234984Y797096D01*
X1234321Y796529D01*
X1233754Y795866D01*
X1233299Y795123D01*
X1233222Y794939D01*
X1231848D01*
X1231771Y795123D01*
X1231316Y795866D01*
X1230750Y796529D01*
X1230086Y797096D01*
X1229343Y797551D01*
X1228537Y797885D01*
X1228090Y797992D01*
Y792600D01*
X1225550D01*
Y797992D01*
X1225103Y797885D01*
X1224297Y797551D01*
X1223554Y797096D01*
X1222890Y796529D01*
X1222324Y795866D01*
X1221869Y795123D01*
X1221792Y794939D01*
X1220418D01*
X1220341Y795123D01*
X1219886Y795866D01*
X1219320Y796529D01*
X1218656Y797096D01*
X1217913Y797551D01*
X1217107Y797885D01*
X1216660Y797992D01*
Y792600D01*
X1215390D01*
Y791330D01*
X1209997D01*
X1210105Y790883D01*
X1210439Y790077D01*
X1210894Y789333D01*
X1211460Y788670D01*
X1212124Y788104D01*
X1212867Y787648D01*
X1213051Y787572D01*
Y786198D01*
X1212867Y786121D01*
X1212124Y785666D01*
X1211460Y785099D01*
X1210894Y784436D01*
X1210439Y783693D01*
X1210105Y782887D01*
X1209997Y782440D01*
X1215390D01*
Y779900D01*
X1209997D01*
X1210105Y779453D01*
X1210439Y778647D01*
X1210894Y777904D01*
X1211460Y777240D01*
X1212124Y776674D01*
X1212867Y776218D01*
X1213051Y776142D01*
Y774768D01*
X1212867Y774691D01*
X1212124Y774236D01*
X1211460Y773669D01*
X1210894Y773006D01*
X1210439Y772263D01*
X1210105Y771457D01*
X1209997Y771010D01*
X1215390D01*
Y769740D01*
X1216660D01*
Y764347D01*
X1217107Y764455D01*
X1217913Y764789D01*
X1218656Y765244D01*
X1219320Y765810D01*
X1219886Y766473D01*
X1220341Y767217D01*
X1220418Y767401D01*
X1221792D01*
X1221869Y767217D01*
X1222324Y766473D01*
X1222890Y765810D01*
X1223554Y765244D01*
X1224297Y764789D01*
X1225103Y764455D01*
X1225550Y764347D01*
Y769740D01*
X1228090D01*
Y764347D01*
X1228537Y764455D01*
X1229343Y764789D01*
X1230086Y765244D01*
X1230750Y765810D01*
X1231316Y766473D01*
X1231771Y767217D01*
X1231848Y767401D01*
X1233222D01*
X1233299Y767217D01*
X1233754Y766473D01*
X1234321Y765810D01*
X1234984Y765244D01*
X1235727Y764789D01*
X1236533Y764455D01*
X1236980Y764347D01*
Y769740D01*
X1238250D01*
Y771010D01*
X1243643D01*
X1243535Y771457D01*
X1243201Y772263D01*
X1242746Y773006D01*
X1242179Y773669D01*
X1241516Y774236D01*
X1240773Y774691D01*
X1240589Y774768D01*
Y776142D01*
X1240773Y776218D01*
X1241516Y776674D01*
X1242179Y777240D01*
X1242746Y777904D01*
X1243201Y778647D01*
X1243535Y779453D01*
X1243643Y779900D01*
X1238250D01*
Y782440D01*
X1243643D01*
X1243535Y782887D01*
X1243201Y783693D01*
X1242746Y784436D01*
X1242179Y785099D01*
X1241516Y785666D01*
X1240773Y786121D01*
X1240589Y786198D01*
Y787572D01*
X1240773Y787648D01*
X1241516Y788104D01*
X1242179Y788670D01*
X1242746Y789333D01*
X1243201Y790077D01*
X1243535Y790883D01*
X1243643Y791330D01*
X1238250D01*
Y792600D01*
X1236980D01*
Y797992D01*
D02*
G37*
G36*
X1215390Y868078D02*
X1214308Y868007D01*
X1213245Y867795D01*
X1212218Y867447D01*
X1211246Y866967D01*
X1210345Y866365D01*
X1209530Y865650D01*
X1208815Y864835D01*
X1208213Y863934D01*
X1207733Y862962D01*
X1207385Y861935D01*
X1207173Y860872D01*
X1207102Y859790D01*
X1207173Y858708D01*
X1207385Y857645D01*
X1207733Y856618D01*
X1208213Y855646D01*
X1208815Y854745D01*
X1209530Y853930D01*
X1210345Y853215D01*
X1211051Y852743D01*
Y829396D01*
X1210476Y828723D01*
X1209849Y827700D01*
X1209390Y826592D01*
X1209110Y825426D01*
X1209016Y824230D01*
X1209110Y823034D01*
X1209390Y821868D01*
X1209849Y820760D01*
X1210476Y819737D01*
X1211255Y818825D01*
X1212167Y818046D01*
X1213190Y817420D01*
X1214298Y816961D01*
X1215464Y816681D01*
X1216660Y816586D01*
X1217856Y816681D01*
X1219022Y816961D01*
X1220130Y817420D01*
X1221153Y818046D01*
X1222065Y818825D01*
X1222844Y819737D01*
X1223471Y820760D01*
X1223930Y821868D01*
X1224210Y823034D01*
X1224304Y824230D01*
X1224210Y825426D01*
X1223930Y826592D01*
X1223471Y827700D01*
X1222844Y828723D01*
X1222065Y829635D01*
X1221153Y830414D01*
X1220130Y831040D01*
X1219729Y831207D01*
Y852743D01*
X1220435Y853215D01*
X1221250Y853930D01*
X1221965Y854745D01*
X1222567Y855646D01*
X1223047Y856618D01*
X1223395Y857645D01*
X1223607Y858708D01*
X1223678Y859790D01*
X1223607Y860872D01*
X1223395Y861935D01*
X1223047Y862962D01*
X1222567Y863934D01*
X1221965Y864835D01*
X1221250Y865650D01*
X1220435Y866365D01*
X1219534Y866967D01*
X1218562Y867447D01*
X1217535Y867795D01*
X1216472Y868007D01*
X1215390Y868078D01*
D02*
G37*
G36*
X848360Y838251D02*
X848120Y838236D01*
X846637Y837941D01*
X845204Y837454D01*
X843848Y836785D01*
X842590Y835945D01*
X841452Y834948D01*
X840455Y833810D01*
X839615Y832552D01*
X838946Y831196D01*
X838459Y829763D01*
X838164Y828279D01*
X838148Y828040D01*
X848360D01*
Y838251D01*
D02*
G37*
G36*
Y825500D02*
X838148D01*
X838164Y825260D01*
X838459Y823777D01*
X838946Y822344D01*
X839615Y820988D01*
X840455Y819730D01*
X841452Y818593D01*
X842590Y817595D01*
X843848Y816755D01*
X845204Y816086D01*
X846637Y815599D01*
X848120Y815304D01*
X848360Y815288D01*
Y825500D01*
D02*
G37*
G36*
X861112D02*
X850900D01*
Y815288D01*
X851140Y815304D01*
X852623Y815599D01*
X854056Y816086D01*
X855412Y816755D01*
X856670Y817595D01*
X857807Y818593D01*
X858805Y819730D01*
X859645Y820988D01*
X860314Y822344D01*
X860801Y823777D01*
X861096Y825260D01*
X861112Y825500D01*
D02*
G37*
G36*
X920750Y801370D02*
X913208D01*
X913415Y800334D01*
X913789Y799231D01*
X914305Y798185D01*
X914952Y797216D01*
X915720Y796340D01*
X916597Y795572D01*
X917565Y794924D01*
X918611Y794409D01*
X919714Y794035D01*
X920750Y793829D01*
Y801370D01*
D02*
G37*
G36*
X930832D02*
X923290D01*
Y793829D01*
X924326Y794035D01*
X925429Y794409D01*
X926475Y794924D01*
X927443Y795572D01*
X928320Y796340D01*
X929088Y797216D01*
X929735Y798185D01*
X930251Y799231D01*
X930626Y800334D01*
X930832Y801370D01*
D02*
G37*
G36*
X1102360Y779702D02*
Y772160D01*
X1109902D01*
X1109696Y773196D01*
X1109321Y774299D01*
X1108805Y775345D01*
X1108158Y776313D01*
X1107390Y777190D01*
X1106514Y777958D01*
X1105545Y778605D01*
X1104499Y779121D01*
X1103396Y779495D01*
X1102360Y779702D01*
D02*
G37*
G36*
X859900Y811640D02*
X839360D01*
Y791100D01*
X859900D01*
Y811640D01*
D02*
G37*
G36*
X1214120Y797992D02*
X1213673Y797885D01*
X1212867Y797551D01*
X1212124Y797096D01*
X1211460Y796529D01*
X1210894Y795866D01*
X1210439Y795123D01*
X1210105Y794317D01*
X1209997Y793870D01*
X1214120D01*
Y797992D01*
D02*
G37*
G36*
X1239520D02*
Y793870D01*
X1243643D01*
X1243535Y794317D01*
X1243201Y795123D01*
X1242746Y795866D01*
X1242179Y796529D01*
X1241516Y797096D01*
X1240773Y797551D01*
X1239967Y797885D01*
X1239520Y797992D01*
D02*
G37*
G36*
X984250D02*
X983803Y797885D01*
X982997Y797551D01*
X982254Y797096D01*
X981590Y796529D01*
X981024Y795866D01*
X980569Y795123D01*
X980235Y794317D01*
X980127Y793870D01*
X984250D01*
Y797992D01*
D02*
G37*
G36*
X1009650D02*
Y793870D01*
X1013773D01*
X1013665Y794317D01*
X1013331Y795123D01*
X1012876Y795866D01*
X1012309Y796529D01*
X1011646Y797096D01*
X1010903Y797551D01*
X1010097Y797885D01*
X1009650Y797992D01*
D02*
G37*
%LPD*%
D20*
X1179582Y898906D02*
X1196340D01*
X1207770Y910336D01*
Y932180D01*
X1197610Y942340D02*
X1207770Y932180D01*
X1285240Y956310D02*
X1299210Y942340D01*
X1150366Y956310D02*
X1285240D01*
X1148842Y954786D02*
X1150366Y956310D01*
X1148842Y887730D02*
Y954786D01*
X1253998Y640588D02*
Y734822D01*
X1360170Y840994D01*
Y950976D01*
X1354074Y957072D02*
X1360170Y950976D01*
X1223010Y942340D02*
X1236860Y928490D01*
X1341120Y933450D02*
X1350010Y942340D01*
X1341120Y928490D02*
Y933450D01*
X1337310Y924680D02*
X1341120Y928490D01*
X1337310Y846836D02*
Y924680D01*
X1077976Y587502D02*
X1337310Y846836D01*
X1238250Y952500D02*
X1248410Y942340D01*
X1217168Y952500D02*
X1238250D01*
X1211580Y946912D02*
X1217168Y952500D01*
X1211580Y908304D02*
Y946912D01*
X765810Y626110D02*
X906540D01*
X1337310Y472440D02*
X1350010Y459740D01*
X972820Y825246D02*
Y863854D01*
X1017270Y908304D01*
X1125340Y928490D02*
X1131570Y934720D01*
Y942340D01*
X1303592Y438722D02*
X1324610Y459740D01*
X982154Y438722D02*
X1303592D01*
X920496Y500380D02*
X982154Y438722D01*
X765810Y600710D02*
X919360D01*
X1060330Y459740D01*
X1070610D01*
X906540Y626110D02*
X925830Y606820D01*
Y605918D02*
Y606820D01*
Y605918D02*
X1059308Y472440D01*
X1337310D01*
X1155700Y742950D02*
X1162050Y736600D01*
X1145032Y781050D02*
X1155700D01*
Y742950D02*
Y781050D01*
Y822960D01*
X1056640Y795528D02*
X1148842Y887730D01*
X1067308Y764032D02*
X1211580Y908304D01*
X1067308Y618236D02*
Y764032D01*
X1076960Y674370D02*
Y712978D01*
X1145032Y781050D01*
X949960Y795020D02*
X951230D01*
X1092200Y956310D02*
X1106170Y942340D01*
X920750Y956310D02*
X1092200D01*
X849630Y868680D02*
X915670Y934720D01*
Y951230D01*
X920750Y956310D01*
X1017270Y908304D02*
Y925830D01*
X1019930Y928490D01*
X1125340D01*
X1059346Y778670D02*
X1179582Y898906D01*
X1036574Y778670D02*
X1059346D01*
X1056640Y795528D02*
X1057910Y794258D01*
Y793750D02*
Y794258D01*
X1236860Y928490D02*
X1310640D01*
X1313942Y957072D02*
X1354074D01*
X1311910Y955040D02*
X1313942Y957072D01*
X1311910Y929760D02*
Y955040D01*
X1310640Y928490D02*
X1311910Y929760D01*
X1070610Y459740D02*
X1083310Y447040D01*
X1203960D01*
X1264920Y788670D02*
Y789940D01*
Y787400D02*
Y788670D01*
D21*
X1189990Y807720D02*
Y859790D01*
X1240790Y828040D02*
Y859790D01*
X1234440Y821690D02*
X1240790Y828040D01*
X1264920Y808990D02*
Y859790D01*
X962660Y614680D02*
Y666750D01*
X1007110Y628650D02*
X1013460Y635000D01*
Y666750D01*
X1192530Y614680D02*
Y666750D01*
X1243330Y635000D02*
Y666750D01*
X960120Y807720D02*
Y859790D01*
X1010920Y828040D02*
Y859790D01*
X1035050Y808990D02*
Y859790D01*
X1032510Y806450D02*
X1035050Y808990D01*
X988060Y629920D02*
X990600Y627380D01*
X988060Y629920D02*
Y666750D01*
X1217930Y629920D02*
Y666750D01*
X962660Y614680D02*
X965638Y611702D01*
X934720Y609600D02*
Y640080D01*
X1037590Y615950D02*
Y666750D01*
X914400Y660400D02*
X934720Y640080D01*
X1217930Y629920D02*
X1220470Y627380D01*
X1236980Y628650D02*
X1243330Y635000D01*
X1264920Y613410D02*
X1267460Y615950D01*
Y598170D02*
X1295400Y626110D01*
Y659130D01*
X1294130Y660400D02*
X1295400Y659130D01*
X1264920Y789940D02*
X1301750Y826770D01*
Y855980D01*
X928370Y817880D02*
Y869950D01*
X960120Y807720D02*
X963098Y804742D01*
X1267460Y615950D02*
Y616103D01*
X1265682Y664972D02*
X1267460Y666750D01*
X1265682Y617881D02*
X1267460Y616103D01*
X1265682Y617881D02*
Y664972D01*
X1189990Y807720D02*
X1192968Y804742D01*
X1186053Y791900D02*
X1197030D01*
X1210310Y805180D01*
X1247140D01*
X1215390Y822960D02*
X1216660Y824230D01*
X1215390Y822960D02*
Y859790D01*
X985520Y822960D02*
X988060Y825500D01*
X1007110Y824230D02*
X1010920Y828040D01*
X1004570Y824230D02*
X1007110D01*
X988060Y825500D02*
X990049D01*
X985520Y822960D02*
Y859790D01*
X1089660Y843844D02*
Y848360D01*
X1039213Y793397D02*
X1089660Y843844D01*
X1035050Y613410D02*
X1037590Y615950D01*
X1042670Y600710D02*
X1070610Y572770D01*
X1130300D01*
X1132840Y575310D01*
Y608330D01*
X1120140D02*
X1132840D01*
X1180284D01*
X1192530Y614680D02*
X1198362D01*
X1199059Y613983D01*
X1180284Y608330D02*
X1187160Y601453D01*
X928370Y817880D02*
X951230Y795020D01*
X1247140Y805180D02*
X1264920Y787400D01*
D22*
X849630Y734060D02*
D03*
Y801370D02*
D03*
Y868680D02*
D03*
X765810Y600710D02*
D03*
D23*
X849630Y759460D02*
D03*
Y826770D02*
D03*
Y894080D02*
D03*
X765810Y626110D02*
D03*
D24*
X1240790Y859790D02*
D03*
X1215390D02*
D03*
X1264920D02*
D03*
X1010920D02*
D03*
X985520D02*
D03*
X1035050D02*
D03*
X1243330Y666750D02*
D03*
X1217930D02*
D03*
X1267460D02*
D03*
X1013460D02*
D03*
X988060D02*
D03*
X1037590D02*
D03*
D25*
X1189990Y859790D02*
D03*
X960120D02*
D03*
X1192530Y666750D02*
D03*
X962660D02*
D03*
D26*
X768350Y849630D02*
D03*
X767080Y698500D02*
D03*
D27*
X768350Y900430D02*
D03*
X767080Y749300D02*
D03*
D28*
X1172210Y942340D02*
D03*
X1197610D02*
D03*
X1223010D02*
D03*
X1248410D02*
D03*
X1273810D02*
D03*
X1299210D02*
D03*
X1324610D02*
D03*
X1106170D02*
D03*
X1055370D02*
D03*
X1029970D02*
D03*
X1004570D02*
D03*
X979170D02*
D03*
X953770D02*
D03*
X928370D02*
D03*
X902970D02*
D03*
X1080770D02*
D03*
X1172210Y916940D02*
D03*
X1197610D02*
D03*
X1223010D02*
D03*
X1248410D02*
D03*
X1273810D02*
D03*
X1299210D02*
D03*
X1324610D02*
D03*
X953770D02*
D03*
X979170D02*
D03*
X1004570D02*
D03*
X1029970D02*
D03*
X1055370D02*
D03*
X1080770D02*
D03*
X1106170D02*
D03*
X1223010Y459740D02*
D03*
X1248410D02*
D03*
X1273810D02*
D03*
X1299210D02*
D03*
X1324610D02*
D03*
X994410D02*
D03*
X1019810D02*
D03*
X1045210D02*
D03*
X1070610D02*
D03*
X1096010D02*
D03*
X1121410D02*
D03*
X1146810D02*
D03*
X1223010Y485140D02*
D03*
X1248410D02*
D03*
X1273810D02*
D03*
X1299210D02*
D03*
X1324610D02*
D03*
X1146810D02*
D03*
X1121410D02*
D03*
X1096010D02*
D03*
D29*
X1350010Y942340D02*
D03*
X1131570D02*
D03*
X1350010Y916940D02*
D03*
X1131570D02*
D03*
X1350010Y459740D02*
D03*
X1172210D02*
D03*
X1350010Y485140D02*
D03*
X1172210D02*
D03*
D30*
X1203960Y447040D02*
D03*
X1215390Y792600D02*
D03*
X1226820Y781170D02*
D03*
Y792600D02*
D03*
X1215390Y781170D02*
D03*
Y769740D02*
D03*
X1226820D02*
D03*
X1238250D02*
D03*
Y781170D02*
D03*
Y792600D02*
D03*
X985520D02*
D03*
X996950Y781170D02*
D03*
Y792600D02*
D03*
X985520Y781170D02*
D03*
Y769740D02*
D03*
X996950D02*
D03*
X1008380D02*
D03*
Y781170D02*
D03*
Y792600D02*
D03*
X1217930Y599560D02*
D03*
X1229360Y588130D02*
D03*
Y599560D02*
D03*
X1217930Y588130D02*
D03*
Y576700D02*
D03*
X1229360D02*
D03*
X1240790D02*
D03*
Y588130D02*
D03*
Y599560D02*
D03*
X988060D02*
D03*
X999490Y588130D02*
D03*
Y599560D02*
D03*
X988060Y588130D02*
D03*
Y576700D02*
D03*
X999490D02*
D03*
X1010920D02*
D03*
Y588130D02*
D03*
Y599560D02*
D03*
X920496Y500380D02*
D03*
D31*
X1234440Y821690D02*
D03*
X1007110Y628650D02*
D03*
X1264920Y613410D02*
D03*
X1032510Y806450D02*
D03*
X990600Y627380D02*
D03*
X1253998Y640588D02*
D03*
X1077976Y587502D02*
D03*
X1067308Y618236D02*
D03*
X972820Y825246D02*
D03*
X1162050Y736600D02*
D03*
X965638Y611702D02*
D03*
X934720Y609600D02*
D03*
X914400Y660400D02*
D03*
X1267460Y598170D02*
D03*
X1220470Y627380D02*
D03*
X1236980Y628650D02*
D03*
X1294130Y660400D02*
D03*
X1120140Y608330D02*
D03*
X1301750Y855980D02*
D03*
X1186053Y791900D02*
D03*
X1155700Y822960D02*
D03*
X1169790Y841890D02*
D03*
X1101090Y770890D02*
D03*
X922020Y802640D02*
D03*
X928370Y869950D02*
D03*
X963098Y804742D02*
D03*
X1032510Y534670D02*
D03*
X1268730Y726440D02*
D03*
Y530860D02*
D03*
X1042670Y734060D02*
D03*
X1276350Y622300D02*
D03*
X949960Y635650D02*
D03*
X989330Y510540D02*
D03*
X1148080Y621030D02*
D03*
X1093470Y521970D02*
D03*
X1262380Y806450D02*
D03*
X1192968Y804742D02*
D03*
X1076960Y674370D02*
D03*
X1216660Y824230D02*
D03*
X1004570D02*
D03*
X990049Y825500D02*
D03*
X949960Y795020D02*
D03*
X1036574Y778670D02*
D03*
X1089660Y848360D02*
D03*
X1039213Y793397D02*
D03*
X1057910Y793750D02*
D03*
X1264920Y788670D02*
D03*
X1035050Y613410D02*
D03*
X1042670Y600710D02*
D03*
X1199059Y613983D02*
D03*
X1187160Y601453D02*
D03*
M02*
