G04 Layer_Color=16711935*
%FSLAX44Y44*%
%MOMM*%
G71*
G01*
G75*
%ADD46C,1.7032*%
%ADD47R,1.7032X1.7032*%
%ADD48R,2.1032X2.1032*%
%ADD49C,2.1032*%
%ADD50C,1.6032*%
%ADD51R,1.6032X1.6032*%
%ADD52C,2.0032*%
%ADD53R,2.0032X2.0032*%
%ADD54C,1.4732*%
D46*
X1096010Y485140D02*
D03*
X1121410D02*
D03*
X1146810D02*
D03*
X1324610D02*
D03*
X1299210D02*
D03*
X1273810D02*
D03*
X1248410D02*
D03*
X1223010D02*
D03*
X1146810Y459740D02*
D03*
X1121410D02*
D03*
X1096010D02*
D03*
X1070610D02*
D03*
X1045210D02*
D03*
X1019810D02*
D03*
X994410D02*
D03*
X1324610D02*
D03*
X1299210D02*
D03*
X1273810D02*
D03*
X1248410D02*
D03*
X1223010D02*
D03*
X1106170Y916940D02*
D03*
X1080770D02*
D03*
X1055370D02*
D03*
X1029970D02*
D03*
X1004570D02*
D03*
X979170D02*
D03*
X953770D02*
D03*
X1324610D02*
D03*
X1299210D02*
D03*
X1273810D02*
D03*
X1248410D02*
D03*
X1223010D02*
D03*
X1197610D02*
D03*
X1172210D02*
D03*
X1080770Y942340D02*
D03*
X902970D02*
D03*
X928370D02*
D03*
X953770D02*
D03*
X979170D02*
D03*
X1004570D02*
D03*
X1029970D02*
D03*
X1055370D02*
D03*
X1106170D02*
D03*
X1324610D02*
D03*
X1299210D02*
D03*
X1273810D02*
D03*
X1248410D02*
D03*
X1223010D02*
D03*
X1197610D02*
D03*
X1172210D02*
D03*
D47*
Y485140D02*
D03*
X1350010D02*
D03*
X1172210Y459740D02*
D03*
X1350010D02*
D03*
X1131570Y916940D02*
D03*
X1350010D02*
D03*
X1131570Y942340D02*
D03*
X1350010D02*
D03*
D48*
X767080Y749300D02*
D03*
X768350Y900430D02*
D03*
D49*
X767080Y698500D02*
D03*
X768350Y849630D02*
D03*
D50*
X1037590Y666750D02*
D03*
X988060D02*
D03*
X1013460D02*
D03*
X1267460D02*
D03*
X1217930D02*
D03*
X1243330D02*
D03*
X1035050Y859790D02*
D03*
X985520D02*
D03*
X1010920D02*
D03*
X1264920D02*
D03*
X1215390D02*
D03*
X1240790D02*
D03*
D51*
X962660Y666750D02*
D03*
X1192530D02*
D03*
X960120Y859790D02*
D03*
X1189990D02*
D03*
D52*
X765810Y626110D02*
D03*
X849630Y894080D02*
D03*
Y826770D02*
D03*
Y759460D02*
D03*
D53*
X765810Y600710D02*
D03*
X849630Y868680D02*
D03*
Y801370D02*
D03*
Y734060D02*
D03*
D54*
X1042670Y600710D02*
D03*
X1264920Y788670D02*
D03*
X1039213Y793397D02*
D03*
X1089660Y848360D02*
D03*
M02*
