M48
;Layer_Color=9474304
;FILE_FORMAT=2:5
INCH,LZ
;TYPE=PLATED
T1F00S00C0.01181
T2F00S00C0.02756
T3F00S00C0.02800
T4F00S00C0.03543
T5F00S00C0.03563
T6F00S00C0.04724
T7F00S00C0.05118
%
T01
X0474Y0176
X04795Y0227047
X0484
X04885
Y0231547
Y0236047
X0484
Y0231547
X04795
Y0236047
X04785Y0303047
X0483
X04875
Y0307547
Y0312047
X0483
Y0307547
X04785
Y0312047
X0397
Y0307547
Y0303047
X03925
X0388
Y0307547
X03925
Y0312047
X0388
X0389Y0236047
Y0231547
Y0227047
X03935
X0398
Y0231547
Y0236047
X03935
Y0231547
X03624Y0197
T02
X04995Y0209
X0499Y02355
X0498Y02415
X0502334Y02465
X04937Y02522
X0487Y02475
X04805Y0247
X0472071Y0241725
X05095Y026
X04995Y0286
X04575Y029
X04335Y03035
X0417041Y0311892
X04081Y0306563
X04105Y0289
X0424Y02655
X04202Y02434
X04075Y02415
X03965Y02475
X039Y0247
X0380173Y0240827
X0367056Y0239989
X0374Y0250256
X036Y026
X03895Y0201
X04065Y02105
X04305Y02055
X04244Y02313
X0441Y02395
X0452Y02445
X0467386Y0236793
X0466205Y0313167
X0455Y0324
X0460547Y0331453
X04065Y03175
X03955Y03245
X0389783Y0325
X0383Y03249
X03795Y03165
X0374Y0313
X0363Y0316
X03655Y03425
X04705Y03175
X0479Y03245
X0486Y03235
X0497227Y0316688
X05125Y0337
T03
X0498Y03105
X0409139Y0312361
X04105Y02365
X0429Y0334
T04
X04815Y0181
Y0191
X04915
X05015
X05115
X05215
X05315
Y0181
X05215
X05115
X05015
X04915
X04615
Y0191
X04515
X04415
X04315
Y0181
X04415
X04515
X04215
X04115
X04015
X03915
X03955Y0361
X04055
X04155
X04255
X04355
X04455
Y0371
X04355
X04255
X04155
X04055
X03955
X03855
Y0361
X03755
Y0371
X03655
X03555
X04615
Y0361
X04715
X04815
X04915
X05015
X05115
X05215
X05315
Y0371
X05215
X05115
X05015
X04915
X04815
X04715
T05
X04695Y02625
X04795
X04895
X0499
X04085
X0399
X0389
X0379
X0378Y03385
X0388
X0398
X04075
X04685
X04785
X04885
X0498
T06
X03345Y0289
Y0299
X03015Y02465
Y02365
X03345Y03155
Y03255
Y0342
Y0352
T07
X0302Y0275
Y0295
X03025Y03345
Y03545
M30
