M48
;Layer_Color=9474304
;FILE_FORMAT=2:3
INCH,LZ
;TYPE=PLATED
T1F00S00C0.028
T2F00S00C0.035
T3F00S00C0.036
T4F00S00C0.047
T5F00S00C0.051
%
T01
X0485Y0206
X0496
X05145
X05245
X05345Y02263
X05423Y02335
X05129Y02379
X05086Y02427
X05011Y02428
X0519Y0247
X05215Y02545
X05276Y02584
X05195Y0268
X05185Y0275
X05105Y02735
X05045Y0274
X0499Y0275
X04935Y0274
X0495Y02685
X0485Y02735
X0476Y02755
X0492Y02845
X0505Y0285
X0515Y02845
X0524Y02865
X05304Y02747
X05388Y02757
X05375Y03092
X05298Y03049
X05129Y03047
X04841Y03061
X04759Y0304
X0485Y0296
X04867Y02599
X04866Y02304
X04755Y02263
X04679Y02507
X04527Y02602
X04354Y02566
X0432Y0266
X0434Y02745
X0425Y02735
X04175Y02725
X04111Y02765
X0406Y02715
Y0266
X04057Y02585
X0407Y02455
X04156Y02427
X04274Y02427
X04318Y02467
X04425Y0237
Y0207
X0431Y0206
X0413Y0207
X0402Y0208
X04038Y02311
X0395Y023
X03823Y02171
X03708Y02216
X03678Y02555
X0389Y02755
X0396
X04005Y02855
X03976Y02972
X0402Y03081
X04084Y03092
X04277Y0306
X04466Y03032
X04486Y03109
X04435Y0291
X04544Y02856
X04488Y02772
X0432Y02855
X04225Y02865
X0461Y02958
X03823Y01955
X03614Y03223
X03467Y03185
X03501Y03315
X0363Y03545
X03845Y03505
X03944Y03523
X0402Y0353
X0406Y0347
X0413Y03465
X04105Y0341
X0402
X04195Y0343
X04275Y0348
X0437Y0347
X04415Y03515
X04487Y03465
X0462Y03488
X04635Y03365
X04325Y03395
X0431Y0355
X04318Y0317
X04274Y03127
X04156Y03127
X04843Y03177
X04935Y03142
X05085Y03125
X05209Y0319
X0521Y0326
Y0333
X05185Y034
X05129Y03448
X05105Y03505
X0518Y035
X05234Y03472
X0527Y0343
X05396Y03444
X0503Y03425
X04955Y03395
X049Y0335
X0489Y03265
X04841Y03496
X04745Y03531
X05004Y0355
T02
X04815Y0181
X04915
X05015
X05115
X05215
X05315
Y0191
X05215
X05115
X05015
X04915
X04815
X04615
Y0181
X04515
X04415
X04315
X04215
X04115
X04015
X03915
X04315Y0191
X04415
X04515
X04455Y0361
Y0371
X04355
X04255
X04155
X04055
X03955
X03855
X03755
X03655
X03555
X03755Y0361
X03855
X03955
X04055
X04155
X04255
X04355
X04615
Y0371
X04715
X04815
X04915
X05015
X05115
X05215
X05315
Y0361
X05215
X05115
X05015
X04915
X04815
X04715
T03
X04905Y0212
X05005
X05105
X052
Y02905
X05105
X05005
X04905
X0437Y0291
X04275
X04175
X04075
Y02125
X04175
X04275
X0437
T04
X03385Y0289
Y0299
Y03102
X02955Y02365
Y02265
X03385Y03203
Y03315
Y03415
T05
X03025Y02675
Y02875
X03015Y0334
Y0354
M30
