G04 Layer_Color=16711935*
%FSLAX42Y42*%
%MOMM*%
G71*
G01*
G75*
%ADD46C,1.70*%
%ADD47R,1.70X1.70*%
%ADD48R,2.10X2.10*%
%ADD49C,2.10*%
%ADD50C,1.60*%
%ADD51R,1.60X1.60*%
%ADD52C,2.00*%
%ADD53R,2.00X2.00*%
D46*
X10960Y4851D02*
D03*
X11214D02*
D03*
X11468D02*
D03*
X13246D02*
D03*
X12992D02*
D03*
X12738D02*
D03*
X12484D02*
D03*
X12230D02*
D03*
X11468Y4597D02*
D03*
X11214D02*
D03*
X10960D02*
D03*
X10706D02*
D03*
X10452D02*
D03*
X10198D02*
D03*
X9944D02*
D03*
X13246D02*
D03*
X12992D02*
D03*
X12738D02*
D03*
X12484D02*
D03*
X12230D02*
D03*
X11062Y9169D02*
D03*
X10808D02*
D03*
X10554D02*
D03*
X10300D02*
D03*
X10046D02*
D03*
X9792D02*
D03*
X9538D02*
D03*
X13246D02*
D03*
X12992D02*
D03*
X12738D02*
D03*
X12484D02*
D03*
X12230D02*
D03*
X11976D02*
D03*
X11722D02*
D03*
X10808Y9423D02*
D03*
X9030D02*
D03*
X9284D02*
D03*
X9538D02*
D03*
X9792D02*
D03*
X10046D02*
D03*
X10300D02*
D03*
X10554D02*
D03*
X11062D02*
D03*
X13246D02*
D03*
X12992D02*
D03*
X12738D02*
D03*
X12484D02*
D03*
X12230D02*
D03*
X11976D02*
D03*
X11722D02*
D03*
D47*
Y4851D02*
D03*
X13500D02*
D03*
X11722Y4597D02*
D03*
X13500D02*
D03*
X11316Y9169D02*
D03*
X13500D02*
D03*
X11316Y9423D02*
D03*
X13500D02*
D03*
D48*
X7671Y7493D02*
D03*
X7683Y9004D02*
D03*
D49*
X7671Y6985D02*
D03*
X7683Y8496D02*
D03*
D50*
X10376Y6668D02*
D03*
X9881D02*
D03*
X10135D02*
D03*
X12675D02*
D03*
X12179D02*
D03*
X12433D02*
D03*
X10350Y8598D02*
D03*
X9855D02*
D03*
X10109D02*
D03*
X12649D02*
D03*
X12154D02*
D03*
X12408D02*
D03*
D51*
X9627Y6668D02*
D03*
X11925D02*
D03*
X9601Y8598D02*
D03*
X11900D02*
D03*
D52*
X7658Y6261D02*
D03*
X8496Y8941D02*
D03*
Y8268D02*
D03*
Y7595D02*
D03*
D53*
X7658Y6007D02*
D03*
X8496Y8687D02*
D03*
Y8014D02*
D03*
Y7341D02*
D03*
M02*
