G04 Layer_Color=8388736*
%FSLAX25Y25*%
%MOIN*%
G70*
G01*
G75*
%ADD36R,0.04343X0.03556*%
%ADD37R,0.07099X0.13398*%
%ADD38R,0.04343X0.03950*%
%ADD39R,0.03950X0.04343*%
%ADD40R,0.03556X0.04343*%
%ADD41R,0.35446X0.38595*%
%ADD42R,0.17139X0.04934*%
%ADD43R,0.14186X0.14186*%
%ADD44R,0.01784X0.04737*%
%ADD45R,0.04737X0.01784*%
%ADD46C,0.06706*%
%ADD47R,0.06706X0.06706*%
%ADD48R,0.08280X0.08280*%
%ADD49C,0.08280*%
%ADD50C,0.06312*%
%ADD51R,0.06312X0.06312*%
%ADD52C,0.07887*%
%ADD53R,0.07887X0.07887*%
%ADD54C,0.05800*%
%ADD55C,0.03162*%
D36*
X358500Y203047D02*
D03*
Y208953D02*
D03*
X353000Y344594D02*
D03*
Y350500D02*
D03*
X488000Y287953D02*
D03*
Y282047D02*
D03*
X398500Y211953D02*
D03*
Y206047D02*
D03*
X489000Y211953D02*
D03*
Y206047D02*
D03*
X353000Y296953D02*
D03*
Y291047D02*
D03*
Y323453D02*
D03*
Y317547D02*
D03*
X397500Y287953D02*
D03*
Y282047D02*
D03*
D37*
X343000Y243000D02*
D03*
Y263000D02*
D03*
X526500Y292500D02*
D03*
Y312500D02*
D03*
X433000Y293000D02*
D03*
Y313000D02*
D03*
X526000Y215500D02*
D03*
Y235500D02*
D03*
X434000Y217500D02*
D03*
Y237500D02*
D03*
D38*
X478000Y287244D02*
D03*
Y292756D02*
D03*
X473000Y292756D02*
D03*
Y287244D02*
D03*
X467500Y296244D02*
D03*
Y301756D02*
D03*
X388500Y211244D02*
D03*
Y216756D02*
D03*
X383500Y216756D02*
D03*
Y211244D02*
D03*
X377844Y219310D02*
D03*
Y224822D02*
D03*
X479000Y211244D02*
D03*
Y216756D02*
D03*
X474000Y216756D02*
D03*
Y211244D02*
D03*
X468429Y219452D02*
D03*
Y224963D02*
D03*
X376926Y294955D02*
D03*
Y300467D02*
D03*
X382500Y292756D02*
D03*
Y287244D02*
D03*
X387500Y287244D02*
D03*
Y292756D02*
D03*
D39*
X456244Y314500D02*
D03*
X461756D02*
D03*
X503256Y297500D02*
D03*
X497744D02*
D03*
X372027Y236058D02*
D03*
X377539D02*
D03*
X413756Y221500D02*
D03*
X408244D02*
D03*
X456744Y235500D02*
D03*
X462256D02*
D03*
X504256Y221500D02*
D03*
X498744D02*
D03*
X412756Y297500D02*
D03*
X407244D02*
D03*
X364244Y312500D02*
D03*
X369756D02*
D03*
D40*
X495953Y292500D02*
D03*
X490047D02*
D03*
X468453Y307000D02*
D03*
X462547D02*
D03*
X465988Y321262D02*
D03*
X460083D02*
D03*
X491047Y322500D02*
D03*
X496953D02*
D03*
X406453Y216500D02*
D03*
X400547D02*
D03*
X378953Y231000D02*
D03*
X373047D02*
D03*
X376264Y245126D02*
D03*
X370359D02*
D03*
X401547Y246500D02*
D03*
X407453D02*
D03*
X496953Y216500D02*
D03*
X491047D02*
D03*
X469453Y231000D02*
D03*
X463547D02*
D03*
X467453Y245000D02*
D03*
X461547D02*
D03*
X492047Y246500D02*
D03*
X497953D02*
D03*
X400547Y322500D02*
D03*
X406453D02*
D03*
X375953Y321000D02*
D03*
X370047D02*
D03*
X376454Y305504D02*
D03*
X370548D02*
D03*
X405453Y292500D02*
D03*
X399547D02*
D03*
D41*
X305000Y207000D02*
D03*
D42*
X345158Y217000D02*
D03*
Y197000D02*
D03*
D43*
X393500Y231547D02*
D03*
X484000D02*
D03*
X392500Y307547D02*
D03*
X483000D02*
D03*
D44*
X386610Y241390D02*
D03*
X388579D02*
D03*
X390547D02*
D03*
X392516D02*
D03*
X394484D02*
D03*
X396453D02*
D03*
X398421D02*
D03*
X400390D02*
D03*
Y221705D02*
D03*
X398421D02*
D03*
X396453D02*
D03*
X394484D02*
D03*
X392516D02*
D03*
X390547D02*
D03*
X388579D02*
D03*
X386610D02*
D03*
X477110Y241390D02*
D03*
X479079D02*
D03*
X481047D02*
D03*
X483016D02*
D03*
X484984D02*
D03*
X486953D02*
D03*
X488921D02*
D03*
X490890D02*
D03*
Y221705D02*
D03*
X488921D02*
D03*
X486953D02*
D03*
X484984D02*
D03*
X483016D02*
D03*
X481047D02*
D03*
X479079D02*
D03*
X477110D02*
D03*
X385610Y317390D02*
D03*
X387579D02*
D03*
X389547D02*
D03*
X391516D02*
D03*
X393484D02*
D03*
X395453D02*
D03*
X397421D02*
D03*
X399390D02*
D03*
Y297705D02*
D03*
X397421D02*
D03*
X395453D02*
D03*
X393484D02*
D03*
X391516D02*
D03*
X389547D02*
D03*
X387579D02*
D03*
X385610D02*
D03*
X476110Y317390D02*
D03*
X478079D02*
D03*
X480047D02*
D03*
X482016D02*
D03*
X483984D02*
D03*
X485953D02*
D03*
X487921D02*
D03*
X489890D02*
D03*
Y297705D02*
D03*
X487921D02*
D03*
X485953D02*
D03*
X483984D02*
D03*
X482016D02*
D03*
X480047D02*
D03*
X478079D02*
D03*
X476110D02*
D03*
D45*
X403342Y238437D02*
D03*
Y236469D02*
D03*
Y234500D02*
D03*
Y232531D02*
D03*
Y230563D02*
D03*
Y228594D02*
D03*
Y226626D02*
D03*
Y224657D02*
D03*
X383658D02*
D03*
Y226626D02*
D03*
Y228594D02*
D03*
Y230563D02*
D03*
Y232531D02*
D03*
Y234500D02*
D03*
Y236469D02*
D03*
Y238437D02*
D03*
X493843D02*
D03*
Y236469D02*
D03*
Y234500D02*
D03*
Y232531D02*
D03*
Y230563D02*
D03*
Y228594D02*
D03*
Y226626D02*
D03*
Y224657D02*
D03*
X474157D02*
D03*
Y226626D02*
D03*
Y228594D02*
D03*
Y230563D02*
D03*
Y232531D02*
D03*
Y234500D02*
D03*
Y236469D02*
D03*
Y238437D02*
D03*
X402343Y314437D02*
D03*
Y312469D02*
D03*
Y310500D02*
D03*
Y308531D02*
D03*
Y306563D02*
D03*
Y304594D02*
D03*
Y302626D02*
D03*
Y300657D02*
D03*
X382658D02*
D03*
Y302626D02*
D03*
Y304594D02*
D03*
Y306563D02*
D03*
Y308531D02*
D03*
Y310500D02*
D03*
Y312469D02*
D03*
Y314437D02*
D03*
X492842D02*
D03*
Y312469D02*
D03*
Y310500D02*
D03*
Y308531D02*
D03*
Y306563D02*
D03*
Y304594D02*
D03*
Y302626D02*
D03*
Y300657D02*
D03*
X473158D02*
D03*
Y302626D02*
D03*
Y304594D02*
D03*
Y306563D02*
D03*
Y308531D02*
D03*
Y310500D02*
D03*
Y312469D02*
D03*
Y314437D02*
D03*
D46*
X431500Y191000D02*
D03*
X441500D02*
D03*
X451500D02*
D03*
X521500D02*
D03*
X511500D02*
D03*
X501500D02*
D03*
X491500D02*
D03*
X481500D02*
D03*
X451500Y181000D02*
D03*
X441500D02*
D03*
X431500D02*
D03*
X421500D02*
D03*
X411500D02*
D03*
X401500D02*
D03*
X391500D02*
D03*
X521500D02*
D03*
X511500D02*
D03*
X501500D02*
D03*
X491500D02*
D03*
X481500D02*
D03*
X435500Y361000D02*
D03*
X425500D02*
D03*
X415500D02*
D03*
X405500D02*
D03*
X395500D02*
D03*
X385500D02*
D03*
X375500D02*
D03*
X521500D02*
D03*
X511500D02*
D03*
X501500D02*
D03*
X491500D02*
D03*
X481500D02*
D03*
X471500D02*
D03*
X461500D02*
D03*
X425500Y371000D02*
D03*
X355500D02*
D03*
X365500D02*
D03*
X375500D02*
D03*
X385500D02*
D03*
X395500D02*
D03*
X405500D02*
D03*
X415500D02*
D03*
X435500D02*
D03*
X521500D02*
D03*
X511500D02*
D03*
X501500D02*
D03*
X491500D02*
D03*
X481500D02*
D03*
X471500D02*
D03*
X461500D02*
D03*
D47*
Y191000D02*
D03*
X531500D02*
D03*
X461500Y181000D02*
D03*
X531500D02*
D03*
X445500Y361000D02*
D03*
X531500D02*
D03*
X445500Y371000D02*
D03*
X531500D02*
D03*
D48*
X302000Y295000D02*
D03*
X302500Y354500D02*
D03*
D49*
X302000Y275000D02*
D03*
X302500Y334500D02*
D03*
D50*
X408500Y262500D02*
D03*
X389000D02*
D03*
X399000D02*
D03*
X499000D02*
D03*
X479500D02*
D03*
X489500D02*
D03*
X407500Y338500D02*
D03*
X388000D02*
D03*
X398000D02*
D03*
X498000D02*
D03*
X478500D02*
D03*
X488500D02*
D03*
D51*
X379000Y262500D02*
D03*
X469500D02*
D03*
X378000Y338500D02*
D03*
X468500D02*
D03*
D52*
X301500Y246500D02*
D03*
X334500Y352000D02*
D03*
Y325500D02*
D03*
Y299000D02*
D03*
D53*
X301500Y236500D02*
D03*
X334500Y342000D02*
D03*
Y315500D02*
D03*
Y289000D02*
D03*
D54*
X410500Y236500D02*
D03*
X498000Y310500D02*
D03*
X409139Y312361D02*
D03*
X429000Y334000D02*
D03*
D55*
X398000Y236047D02*
D03*
Y231547D02*
D03*
Y227047D02*
D03*
X393500D02*
D03*
X389000D02*
D03*
Y231547D02*
D03*
X393500Y236047D02*
D03*
Y231547D02*
D03*
X389000Y236047D02*
D03*
X488500D02*
D03*
Y231547D02*
D03*
Y227047D02*
D03*
X484000D02*
D03*
X479500D02*
D03*
Y231547D02*
D03*
X484000Y236047D02*
D03*
Y231547D02*
D03*
X479500Y236047D02*
D03*
X397000Y312047D02*
D03*
Y307547D02*
D03*
Y303047D02*
D03*
X392500D02*
D03*
X388000D02*
D03*
Y307547D02*
D03*
X392500Y312047D02*
D03*
Y307547D02*
D03*
X388000Y312047D02*
D03*
X487500D02*
D03*
Y307547D02*
D03*
Y303047D02*
D03*
X483000D02*
D03*
X478500D02*
D03*
Y307547D02*
D03*
X483000Y312047D02*
D03*
Y307547D02*
D03*
X478500Y312047D02*
D03*
M02*
