G04 Layer_Color=65535*
%FSLAX44Y44*%
%MOMM*%
G71*
G01*
G75*
%ADD19C,0.2540*%
%ADD21C,0.0254*%
%ADD22C,0.0127*%
%ADD42C,0.2500*%
%ADD43C,0.2000*%
%ADD44C,0.1270*%
D19*
X911860Y727710D02*
X896625D01*
Y735328D01*
X899164Y737867D01*
X904242D01*
X906782Y735328D01*
Y727710D01*
X911860Y742945D02*
Y748023D01*
Y745484D01*
X896625D01*
X899164Y742945D01*
Y755641D02*
X896625Y758180D01*
Y763259D01*
X899164Y765798D01*
X901703D01*
X904242Y763259D01*
X906782Y765798D01*
X909321D01*
X911860Y763259D01*
Y758180D01*
X909321Y755641D01*
X906782D01*
X904242Y758180D01*
X901703Y755641D01*
X899164D01*
X904242Y758180D02*
Y763259D01*
X911860Y785495D02*
X896625D01*
Y793112D01*
X899164Y795652D01*
X904242D01*
X906782Y793112D01*
Y785495D01*
X911860Y800730D02*
Y805808D01*
Y803269D01*
X896625D01*
X899164Y800730D01*
X896625Y813426D02*
Y823583D01*
X899164D01*
X909321Y813426D01*
X911860D01*
X910590Y838200D02*
X895355D01*
Y845817D01*
X897894Y848357D01*
X902972D01*
X905512Y845817D01*
Y838200D01*
X910590Y853435D02*
Y858513D01*
Y855974D01*
X895355D01*
X897894Y853435D01*
X895355Y876288D02*
X897894Y871209D01*
X902972Y866131D01*
X908051D01*
X910590Y868670D01*
Y873748D01*
X908051Y876288D01*
X905512D01*
X902972Y873748D01*
Y866131D01*
X803907Y581659D02*
Y591816D01*
X801368Y594355D01*
X796289D01*
X793750Y591816D01*
Y581659D01*
X796289Y579120D01*
X801368D01*
X798828Y584198D02*
X803907Y579120D01*
X801368D02*
X803907Y581659D01*
X808985Y579120D02*
X814063D01*
X811524D01*
Y594355D01*
X808985Y591816D01*
X726948Y618490D02*
Y633725D01*
X734566D01*
X737105Y631186D01*
Y626107D01*
X734566Y623568D01*
X726948D01*
X742183Y618490D02*
X747261D01*
X744722D01*
Y633725D01*
X742183Y631186D01*
X754879Y618490D02*
X759957D01*
X757418D01*
Y633725D01*
X754879Y631186D01*
X735076Y937514D02*
Y952749D01*
X742693D01*
X745233Y950210D01*
Y945132D01*
X742693Y942592D01*
X735076D01*
X750311Y937514D02*
X755389D01*
X752850D01*
Y952749D01*
X750311Y950210D01*
X763007D02*
X765546Y952749D01*
X770624D01*
X773164Y950210D01*
Y940053D01*
X770624Y937514D01*
X765546D01*
X763007Y940053D01*
Y950210D01*
X737616Y768604D02*
Y783839D01*
X745234D01*
X747773Y781300D01*
Y776221D01*
X745234Y773682D01*
X737616D01*
X752851Y771143D02*
X755390Y768604D01*
X760469D01*
X763008Y771143D01*
Y781300D01*
X760469Y783839D01*
X755390D01*
X752851Y781300D01*
Y778761D01*
X755390Y776221D01*
X763008D01*
X855469Y709926D02*
X852930Y712465D01*
X847851D01*
X845312Y709926D01*
Y699769D01*
X847851Y697230D01*
X852930D01*
X855469Y699769D01*
X870704Y697230D02*
X860547D01*
X870704Y707387D01*
Y709926D01*
X868165Y712465D01*
X863086D01*
X860547Y709926D01*
X885939Y712465D02*
X875782D01*
Y704847D01*
X880861Y707387D01*
X883400D01*
X885939Y704847D01*
Y699769D01*
X883400Y697230D01*
X878321D01*
X875782Y699769D01*
X1034415Y886328D02*
Y873632D01*
X1036954Y871093D01*
X1042032D01*
X1044572Y873632D01*
Y886328D01*
X1049650Y883789D02*
X1052189Y886328D01*
X1057268D01*
X1059807Y883789D01*
Y881250D01*
X1057268Y878710D01*
X1054728D01*
X1057268D01*
X1059807Y876171D01*
Y873632D01*
X1057268Y871093D01*
X1052189D01*
X1049650Y873632D01*
X1251585Y708648D02*
Y695952D01*
X1254124Y693413D01*
X1259202D01*
X1261742Y695952D01*
Y708648D01*
X1276977Y693413D02*
X1266820D01*
X1276977Y703570D01*
Y706109D01*
X1274438Y708648D01*
X1269359D01*
X1266820Y706109D01*
X1034415Y708648D02*
Y695952D01*
X1036954Y693413D01*
X1042032D01*
X1044572Y695952D01*
Y708648D01*
X1049650Y693413D02*
X1054728D01*
X1052189D01*
Y708648D01*
X1049650Y706109D01*
X1050290Y481330D02*
Y496565D01*
X1057907D01*
X1060447Y494026D01*
Y488947D01*
X1057907Y486408D01*
X1050290D01*
X1065525Y494026D02*
X1068064Y496565D01*
X1073143D01*
X1075682Y494026D01*
Y491487D01*
X1073143Y488947D01*
X1075682Y486408D01*
Y483869D01*
X1073143Y481330D01*
X1068064D01*
X1065525Y483869D01*
Y486408D01*
X1068064Y488947D01*
X1065525Y491487D01*
Y494026D01*
X1068064Y488947D02*
X1073143D01*
X1369060Y476250D02*
Y491485D01*
X1376678D01*
X1379217Y488946D01*
Y483867D01*
X1376678Y481328D01*
X1369060D01*
X1384295Y491485D02*
X1394452D01*
Y488946D01*
X1384295Y478789D01*
Y476250D01*
X949960Y454660D02*
Y469895D01*
X957578D01*
X960117Y467356D01*
Y462277D01*
X957578Y459738D01*
X949960D01*
X975352Y469895D02*
X970273Y467356D01*
X965195Y462277D01*
Y457199D01*
X967734Y454660D01*
X972813D01*
X975352Y457199D01*
Y459738D01*
X972813Y462277D01*
X965195D01*
X1370330Y449580D02*
Y464815D01*
X1377948D01*
X1380487Y462276D01*
Y457197D01*
X1377948Y454658D01*
X1370330D01*
X1395722Y464815D02*
X1385565D01*
Y457197D01*
X1390643Y459737D01*
X1393183D01*
X1395722Y457197D01*
Y452119D01*
X1393183Y449580D01*
X1388104D01*
X1385565Y452119D01*
X857250Y935990D02*
Y951225D01*
X864867D01*
X867407Y948686D01*
Y943607D01*
X864867Y941068D01*
X857250D01*
X880103Y935990D02*
Y951225D01*
X872485Y943607D01*
X882642D01*
X1369060Y908050D02*
Y923285D01*
X1376678D01*
X1379217Y920746D01*
Y915667D01*
X1376678Y913128D01*
X1369060D01*
X1384295Y920746D02*
X1386834Y923285D01*
X1391913D01*
X1394452Y920746D01*
Y918207D01*
X1391913Y915667D01*
X1389373D01*
X1391913D01*
X1394452Y913128D01*
Y910589D01*
X1391913Y908050D01*
X1386834D01*
X1384295Y910589D01*
X909320Y909320D02*
Y924555D01*
X916937D01*
X919477Y922016D01*
Y916937D01*
X916937Y914398D01*
X909320D01*
X934712Y909320D02*
X924555D01*
X934712Y919477D01*
Y922016D01*
X932173Y924555D01*
X927094D01*
X924555Y922016D01*
X1370330Y932180D02*
Y947415D01*
X1377948D01*
X1380487Y944876D01*
Y939798D01*
X1377948Y937258D01*
X1370330D01*
X1385565Y932180D02*
X1390643D01*
X1388104D01*
Y947415D01*
X1385565Y944876D01*
X1143000Y553720D02*
Y568955D01*
X1150618D01*
X1153157Y566416D01*
Y561338D01*
X1150618Y558798D01*
X1143000D01*
X1158235Y553720D02*
X1163313D01*
X1160774D01*
Y568955D01*
X1158235Y566416D01*
X1181088Y553720D02*
X1170931D01*
X1181088Y563877D01*
Y566416D01*
X1178549Y568955D01*
X1173470D01*
X1170931Y566416D01*
X1353820Y554990D02*
Y570225D01*
X1361438D01*
X1363977Y567686D01*
Y562607D01*
X1361438Y560068D01*
X1353820D01*
X1369055Y554990D02*
X1374133D01*
X1371594D01*
Y570225D01*
X1369055Y567686D01*
X1381751D02*
X1384290Y570225D01*
X1389368D01*
X1391908Y567686D01*
Y565147D01*
X1389368Y562607D01*
X1386829D01*
X1389368D01*
X1391908Y560068D01*
Y557529D01*
X1389368Y554990D01*
X1384290D01*
X1381751Y557529D01*
X1141730Y754380D02*
Y769615D01*
X1149348D01*
X1151887Y767076D01*
Y761998D01*
X1149348Y759458D01*
X1141730D01*
X1156965Y754380D02*
X1162043D01*
X1159504D01*
Y769615D01*
X1156965Y767076D01*
X1177279Y754380D02*
Y769615D01*
X1169661Y761998D01*
X1179818D01*
X1353516Y751840D02*
Y767075D01*
X1361134D01*
X1363673Y764536D01*
Y759457D01*
X1361134Y756918D01*
X1353516D01*
X1368751Y751840D02*
X1373830D01*
X1371290D01*
Y767075D01*
X1368751Y764536D01*
X1391604Y767075D02*
X1381447D01*
Y759457D01*
X1386526Y761997D01*
X1389065D01*
X1391604Y759457D01*
Y754379D01*
X1389065Y751840D01*
X1383986D01*
X1381447Y754379D01*
X1251585Y886328D02*
Y873632D01*
X1254124Y871093D01*
X1259202D01*
X1261742Y873632D01*
Y886328D01*
X1274438Y871093D02*
Y886328D01*
X1266820Y878710D01*
X1276977D01*
D21*
X833827Y723900D02*
X891540D01*
X833827Y769418D02*
X891540D01*
X833827Y723900D02*
Y769418D01*
X891540Y723900D02*
Y769418D01*
X833827Y777875D02*
X891540D01*
X833827Y823393D02*
X891540D01*
X833827Y777875D02*
Y823393D01*
X891540Y777875D02*
Y823393D01*
X833827Y831850D02*
X891540D01*
X833827Y877368D02*
X891540D01*
X833827Y831850D02*
Y877368D01*
X891540Y831850D02*
Y877368D01*
X911860Y657860D02*
Y676910D01*
Y608330D02*
Y640080D01*
X853440Y624840D02*
Y640080D01*
Y624840D02*
X869950Y608330D01*
X911860D01*
Y676910D02*
Y689610D01*
X853440Y657860D02*
Y671830D01*
X871220Y689610D02*
X911860D01*
X853440Y671830D02*
Y673100D01*
X869950Y689610D01*
X871220D01*
X724607Y565150D02*
X782320D01*
X724607Y610668D02*
X782320D01*
X724607Y565150D02*
Y610668D01*
X782320Y565150D02*
Y610668D01*
X735330Y723900D02*
X742950D01*
Y736600D01*
X735330D02*
X742950D01*
X736600Y673100D02*
X742950D01*
Y685800D01*
X735330D02*
X742950D01*
X768350Y760730D02*
X784860D01*
X810260D01*
X735330D02*
X768350D01*
X735330Y676910D02*
Y760730D01*
X810260Y678180D02*
Y760730D01*
Y648970D02*
Y678180D01*
X736600Y648970D02*
X810260D01*
X735323D02*
X736600D01*
X735323D02*
X735330Y648977D01*
Y676910D01*
X735323Y648970D02*
X735330Y648977D01*
Y673100D02*
X736600D01*
X732790Y892810D02*
X740410D01*
Y905510D01*
X732790D02*
X740410D01*
X734060Y842010D02*
X740410D01*
Y854710D01*
X732790D02*
X740410D01*
X765810Y929640D02*
X782320D01*
X807720D01*
X732790D02*
X765810D01*
X732790Y845820D02*
Y929640D01*
X807720Y847090D02*
Y929640D01*
Y817880D02*
Y847090D01*
X734060Y817880D02*
X807720D01*
X732783D02*
X734060D01*
X732783D02*
X732790Y817887D01*
Y845820D01*
X732783Y817880D02*
X732790Y817887D01*
Y842010D02*
X734060D01*
X1010920Y539750D02*
Y571500D01*
X1134110D01*
Y539750D02*
Y571500D01*
Y514350D02*
Y539750D01*
X1010920Y514350D02*
X1134110D01*
X1010920D02*
Y539750D01*
X1221740Y538480D02*
Y570230D01*
X1344930D01*
Y538480D02*
Y570230D01*
Y513080D02*
Y538480D01*
X1221740Y513080D02*
X1344930D01*
X1221740D02*
Y538480D01*
Y737870D02*
Y769620D01*
X1344930D01*
Y737870D02*
Y769620D01*
Y712470D02*
Y737870D01*
X1221740Y712470D02*
X1344930D01*
X1221740D02*
Y737870D01*
X1010920Y739140D02*
Y770890D01*
X1134110D01*
Y739140D02*
Y770890D01*
Y713740D02*
Y739140D01*
X1010920Y713740D02*
X1134110D01*
X1010920D02*
Y739140D01*
X1400573Y439183D02*
Y485204D01*
X1395793Y434403D02*
X1400573Y439183D01*
X1375774Y434403D02*
X1395793D01*
X1391472Y968188D02*
X1400573Y959087D01*
Y958613D02*
Y959087D01*
X1400810Y808990D02*
Y958613D01*
X1375774Y968188D02*
X1391472D01*
D22*
X715073Y434403D02*
Y968188D01*
X1375774D01*
X715073Y434403D02*
X1375774D01*
X1400810Y485204D02*
Y812863D01*
D42*
X1252740Y857600D02*
G03*
X1252740Y857600I-1250J0D01*
G01*
X1035570D02*
G03*
X1035570Y857600I-1250J0D01*
G01*
X1252740Y679920D02*
G03*
X1252740Y679920I-1250J0D01*
G01*
X1035570D02*
G03*
X1035570Y679920I-1250J0D01*
G01*
X943990Y485820D02*
G03*
X943990Y485820I-1250J0D01*
G01*
D43*
X1257990Y804600D02*
X1262490D01*
X1257990D02*
Y809100D01*
X1307990Y804600D02*
X1312490D01*
Y809100D01*
Y854600D02*
Y859100D01*
X1307990D02*
X1312490D01*
X1257990D02*
X1262490D01*
X1257990Y854600D02*
Y859100D01*
X1040820Y804600D02*
X1045320D01*
X1040820D02*
Y809100D01*
X1090820Y804600D02*
X1095320D01*
Y809100D01*
Y854600D02*
Y859100D01*
X1090820D02*
X1095320D01*
X1040820D02*
X1045320D01*
X1040820Y854600D02*
Y859100D01*
X1257990Y626920D02*
X1262490D01*
X1257990D02*
Y631420D01*
X1307990Y626920D02*
X1312490D01*
Y631420D01*
Y676920D02*
Y681420D01*
X1307990D02*
X1312490D01*
X1257990D02*
X1262490D01*
X1257990Y676920D02*
Y681420D01*
X1040820Y626920D02*
X1045320D01*
X1040820D02*
Y631420D01*
X1090820Y626920D02*
X1095320D01*
Y631420D01*
Y676920D02*
Y681420D01*
X1090820D02*
X1095320D01*
X1040820D02*
X1045320D01*
X1040820Y676920D02*
Y681420D01*
X923600Y851440D02*
Y855440D01*
X930600Y851440D02*
Y855440D01*
X923600Y799490D02*
Y803490D01*
X930600Y799490D02*
Y803490D01*
Y747300D02*
Y751300D01*
X923600Y747300D02*
Y751300D01*
X942880Y580700D02*
X946880D01*
X942880Y587700D02*
X946880D01*
X1184910Y472440D02*
Y497840D01*
X1083310Y472440D02*
X1184910D01*
X1083310Y497840D02*
X1184910D01*
X1083310Y472440D02*
Y497840D01*
X1210310Y472440D02*
Y497840D01*
X1362710Y472440D02*
Y497840D01*
X1210310Y472440D02*
X1362710D01*
X1210310Y497840D02*
X1362710D01*
X1351090Y798180D02*
X1355090D01*
X1351090Y805180D02*
X1355090D01*
X1351090Y812150D02*
X1355090D01*
X1351090Y819150D02*
X1355090D01*
X1351090Y826120D02*
X1355090D01*
X1351090Y833120D02*
X1355090D01*
X1351090Y840090D02*
X1355090D01*
X1351090Y847090D02*
X1355090D01*
X1351210Y854060D02*
X1355210D01*
X1351210Y861060D02*
X1355210D01*
X1124610Y798505D02*
X1128610D01*
X1124610Y805505D02*
X1128610D01*
X1124610Y814697D02*
X1128610D01*
X1124610Y821698D02*
X1128610D01*
X1124610Y830890D02*
X1128610D01*
X1124610Y837890D02*
X1128610D01*
X1124610Y847082D02*
X1128610D01*
X1124610Y854083D02*
X1128610D01*
X1124610Y863275D02*
X1128610D01*
X1124610Y870275D02*
X1128610D01*
X1348010Y616260D02*
X1352010D01*
X1348010Y623260D02*
X1352010D01*
X1348010Y639453D02*
X1352010D01*
X1348010Y632452D02*
X1352010D01*
X1348010Y655645D02*
X1352010D01*
X1348010Y648645D02*
X1352010D01*
X1348010Y671838D02*
X1352010D01*
X1348010Y664837D02*
X1352010D01*
X1348010Y688030D02*
X1352010D01*
X1348010Y681030D02*
X1352010D01*
X1129450Y620290D02*
X1133450D01*
X1129450Y613290D02*
X1133450D01*
X1129450Y636800D02*
X1133450D01*
X1129450Y629800D02*
X1133450D01*
X1129450Y653310D02*
X1133450D01*
X1129450Y646310D02*
X1133450D01*
X1129450Y662820D02*
X1133450D01*
X1129450Y669820D02*
X1133450D01*
X1129450Y686330D02*
X1133450D01*
X1129450Y679330D02*
X1133450D01*
X941070Y904240D02*
Y929640D01*
X1144270D01*
Y904240D02*
Y929640D01*
X941070Y904240D02*
X1144270D01*
X981710Y447040D02*
Y472440D01*
X1184910D01*
Y447040D02*
Y472440D01*
X981710Y447040D02*
X1184910D01*
X1210310D02*
Y472440D01*
X1362710Y447040D02*
Y472440D01*
X1210310Y447040D02*
X1362710D01*
X1210310Y472440D02*
X1362710D01*
X1159510Y904240D02*
Y929640D01*
X1362710D01*
Y904240D02*
Y929640D01*
X1159510Y904240D02*
X1362710D01*
X1159510Y929640D02*
Y955040D01*
X1362710D01*
Y929640D02*
Y955040D01*
X1159510Y929640D02*
X1362710D01*
X890270D02*
X1125220D01*
X1144270D01*
Y955040D01*
X890270D02*
X1144270D01*
X890270Y929640D02*
Y955040D01*
X888740Y573970D02*
X910240D01*
Y469970D02*
Y573970D01*
X888740Y469970D02*
X910240D01*
D44*
X725170Y454149D02*
Y461767D01*
X728979D01*
X730248Y460497D01*
Y457958D01*
X728979Y456688D01*
X725170D01*
X732787Y461767D02*
Y460497D01*
X735327Y457958D01*
X737866Y460497D01*
Y461767D01*
X735327Y457958D02*
Y454149D01*
X740405D02*
Y461767D01*
X745483Y454149D01*
Y461767D01*
X753101Y455419D02*
Y460497D01*
X751831Y461767D01*
X749292D01*
X748023Y460497D01*
Y455419D01*
X749292Y454149D01*
X751831D01*
X750562Y456688D02*
X753101Y454149D01*
X751831D02*
X753101Y455419D01*
X763258Y460497D02*
X764527Y461767D01*
X767066D01*
X768336Y460497D01*
Y459227D01*
X767066Y457958D01*
X765797D01*
X767066D01*
X768336Y456688D01*
Y455419D01*
X767066Y454149D01*
X764527D01*
X763258Y455419D01*
X770875Y461767D02*
Y454149D01*
X774684D01*
X775954Y455419D01*
Y460497D01*
X774684Y461767D01*
X770875D01*
X786110Y454149D02*
Y461767D01*
X789919D01*
X791189Y460497D01*
Y457958D01*
X789919Y456688D01*
X786110D01*
X793728Y459227D02*
Y454149D01*
Y456688D01*
X794997Y457958D01*
X796267Y459227D01*
X797537D01*
X801345Y454149D02*
X803885D01*
X802615D01*
Y459227D01*
X801345D01*
X807693Y454149D02*
Y459227D01*
X811502D01*
X812772Y457958D01*
Y454149D01*
X816580Y460497D02*
Y459227D01*
X815311D01*
X817850D01*
X816580D01*
Y455419D01*
X817850Y454149D01*
X825468D02*
X822928D01*
X821659Y455419D01*
Y457958D01*
X822928Y459227D01*
X825468D01*
X826737Y457958D01*
Y456688D01*
X821659D01*
X829276Y459227D02*
Y454149D01*
Y456688D01*
X830546Y457958D01*
X831815Y459227D01*
X833085D01*
X849590Y460497D02*
X848320Y461767D01*
X845781D01*
X844511Y460497D01*
Y459227D01*
X845781Y457958D01*
X848320D01*
X849590Y456688D01*
Y455419D01*
X848320Y454149D01*
X845781D01*
X844511Y455419D01*
X852129Y461767D02*
Y454149D01*
Y457958D01*
X853399Y459227D01*
X855938D01*
X857207Y457958D01*
Y454149D01*
X859746D02*
X862286D01*
X861016D01*
Y459227D01*
X859746D01*
X869903Y454149D02*
X867364D01*
X866094Y455419D01*
Y457958D01*
X867364Y459227D01*
X869903D01*
X871173Y457958D01*
Y456688D01*
X866094D01*
X873712Y454149D02*
X876251D01*
X874982D01*
Y461767D01*
X873712D01*
X885138D02*
Y454149D01*
X881329D01*
X880060Y455419D01*
Y457958D01*
X881329Y459227D01*
X885138D01*
X730248Y448308D02*
X728979Y449577D01*
X726440D01*
X725170Y448308D01*
Y447038D01*
X726440Y445769D01*
X728979D01*
X730248Y444499D01*
Y443230D01*
X728979Y441960D01*
X726440D01*
X725170Y443230D01*
X732787Y441960D02*
Y443230D01*
X734057D01*
Y441960D01*
X732787D01*
X739136D02*
Y447038D01*
X741675Y449577D01*
X744214Y447038D01*
Y441960D01*
Y445769D01*
X739136D01*
X748023Y441960D02*
X750562D01*
X751831Y443230D01*
Y445769D01*
X750562Y447038D01*
X748023D01*
X746753Y445769D01*
Y443230D01*
X748023Y441960D01*
X754371D02*
Y449577D01*
Y444499D02*
X758179Y447038D01*
X754371Y444499D02*
X758179Y441960D01*
X761988D02*
X764527D01*
X763258D01*
Y447038D01*
X761988D01*
X781032Y441960D02*
X775954D01*
X781032Y447038D01*
Y448308D01*
X779762Y449577D01*
X777223D01*
X775954Y448308D01*
X783571D02*
X784841Y449577D01*
X787380D01*
X788650Y448308D01*
Y443230D01*
X787380Y441960D01*
X784841D01*
X783571Y443230D01*
Y448308D01*
X791189Y441960D02*
X793728D01*
X792458D01*
Y449577D01*
X791189Y448308D01*
X797537D02*
X798806Y449577D01*
X801345D01*
X802615Y448308D01*
Y447038D01*
X801345Y445769D01*
X802615Y444499D01*
Y443230D01*
X801345Y441960D01*
X798806D01*
X797537Y443230D01*
Y444499D01*
X798806Y445769D01*
X797537Y447038D01*
Y448308D01*
X798806Y445769D02*
X801345D01*
X922394Y768096D02*
Y775714D01*
X926203D01*
X927472Y774444D01*
Y771905D01*
X926203Y770635D01*
X922394D01*
X924933D02*
X927472Y768096D01*
X935090D02*
X930012D01*
X935090Y773174D01*
Y774444D01*
X933820Y775714D01*
X931281D01*
X930012Y774444D01*
X941438Y768096D02*
Y775714D01*
X937629Y771905D01*
X942707D01*
X922274Y820286D02*
Y827904D01*
X926083D01*
X927352Y826634D01*
Y824095D01*
X926083Y822825D01*
X922274D01*
X924813D02*
X927352Y820286D01*
X934970D02*
X929892D01*
X934970Y825364D01*
Y826634D01*
X933700Y827904D01*
X931161D01*
X929892Y826634D01*
X937509D02*
X938779Y827904D01*
X941318D01*
X942587Y826634D01*
Y825364D01*
X941318Y824095D01*
X940048D01*
X941318D01*
X942587Y822825D01*
Y821556D01*
X941318Y820286D01*
X938779D01*
X937509Y821556D01*
X922274Y872236D02*
Y879854D01*
X926083D01*
X927352Y878584D01*
Y876045D01*
X926083Y874775D01*
X922274D01*
X924813D02*
X927352Y872236D01*
X934970D02*
X929892D01*
X934970Y877314D01*
Y878584D01*
X933700Y879854D01*
X931161D01*
X929892Y878584D01*
X942587Y872236D02*
X937509D01*
X942587Y877314D01*
Y878584D01*
X941318Y879854D01*
X938779D01*
X937509Y878584D01*
X933704Y596646D02*
Y604263D01*
X937513D01*
X938782Y602994D01*
Y600455D01*
X937513Y599185D01*
X933704D01*
X936243D02*
X938782Y596646D01*
X946400D02*
X941321D01*
X946400Y601724D01*
Y602994D01*
X945130Y604263D01*
X942591D01*
X941321Y602994D01*
X948939Y596646D02*
X951478D01*
X950209D01*
Y604263D01*
X948939Y602994D01*
X1369720Y797870D02*
Y805487D01*
X1373529D01*
X1374798Y804218D01*
Y801679D01*
X1373529Y800409D01*
X1369720D01*
X1372259D02*
X1374798Y797870D01*
X1382416D02*
X1377337D01*
X1382416Y802948D01*
Y804218D01*
X1381146Y805487D01*
X1378607D01*
X1377337Y804218D01*
X1384955D02*
X1386225Y805487D01*
X1388764D01*
X1390033Y804218D01*
Y799139D01*
X1388764Y797870D01*
X1386225D01*
X1384955Y799139D01*
Y804218D01*
X1369720Y811840D02*
Y819457D01*
X1373529D01*
X1374798Y818188D01*
Y815649D01*
X1373529Y814379D01*
X1369720D01*
X1372259D02*
X1374798Y811840D01*
X1377337D02*
X1379877D01*
X1378607D01*
Y819457D01*
X1377337Y818188D01*
X1383685Y813110D02*
X1384955Y811840D01*
X1387494D01*
X1388764Y813110D01*
Y818188D01*
X1387494Y819457D01*
X1384955D01*
X1383685Y818188D01*
Y816918D01*
X1384955Y815649D01*
X1388764D01*
X1369720Y827080D02*
Y834697D01*
X1373529D01*
X1374798Y833428D01*
Y830889D01*
X1373529Y829619D01*
X1369720D01*
X1372259D02*
X1374798Y827080D01*
X1377337D02*
X1379877D01*
X1378607D01*
Y834697D01*
X1377337Y833428D01*
X1383685D02*
X1384955Y834697D01*
X1387494D01*
X1388764Y833428D01*
Y832158D01*
X1387494Y830889D01*
X1388764Y829619D01*
Y828350D01*
X1387494Y827080D01*
X1384955D01*
X1383685Y828350D01*
Y829619D01*
X1384955Y830889D01*
X1383685Y832158D01*
Y833428D01*
X1384955Y830889D02*
X1387494D01*
X1369720Y841050D02*
Y848667D01*
X1373529D01*
X1374798Y847398D01*
Y844859D01*
X1373529Y843589D01*
X1369720D01*
X1372259D02*
X1374798Y841050D01*
X1377337D02*
X1379877D01*
X1378607D01*
Y848667D01*
X1377337Y847398D01*
X1383685Y848667D02*
X1388764D01*
Y847398D01*
X1383685Y842319D01*
Y841050D01*
X1369720Y853750D02*
Y861367D01*
X1373529D01*
X1374798Y860098D01*
Y857559D01*
X1373529Y856289D01*
X1369720D01*
X1372259D02*
X1374798Y853750D01*
X1377337D02*
X1379877D01*
X1378607D01*
Y861367D01*
X1377337Y860098D01*
X1388764Y861367D02*
X1386225Y860098D01*
X1383685Y857559D01*
Y855020D01*
X1384955Y853750D01*
X1387494D01*
X1388764Y855020D01*
Y856289D01*
X1387494Y857559D01*
X1383685D01*
X1143000Y798830D02*
Y806448D01*
X1146809D01*
X1148078Y805178D01*
Y802639D01*
X1146809Y801369D01*
X1143000D01*
X1145539D02*
X1148078Y798830D01*
X1150618D02*
X1153157D01*
X1151887D01*
Y806448D01*
X1150618Y805178D01*
X1162044Y806448D02*
X1156965D01*
Y802639D01*
X1159505Y803908D01*
X1160774D01*
X1162044Y802639D01*
Y800100D01*
X1160774Y798830D01*
X1158235D01*
X1156965Y800100D01*
X1143000Y815340D02*
Y822958D01*
X1146809D01*
X1148078Y821688D01*
Y819149D01*
X1146809Y817879D01*
X1143000D01*
X1145539D02*
X1148078Y815340D01*
X1150618D02*
X1153157D01*
X1151887D01*
Y822958D01*
X1150618Y821688D01*
X1160774Y815340D02*
Y822958D01*
X1156965Y819149D01*
X1162044D01*
X1143000Y831850D02*
Y839467D01*
X1146809D01*
X1148078Y838198D01*
Y835659D01*
X1146809Y834389D01*
X1143000D01*
X1145539D02*
X1148078Y831850D01*
X1150618D02*
X1153157D01*
X1151887D01*
Y839467D01*
X1150618Y838198D01*
X1156965D02*
X1158235Y839467D01*
X1160774D01*
X1162044Y838198D01*
Y836928D01*
X1160774Y835659D01*
X1159505D01*
X1160774D01*
X1162044Y834389D01*
Y833120D01*
X1160774Y831850D01*
X1158235D01*
X1156965Y833120D01*
X1143000Y847090D02*
Y854707D01*
X1146809D01*
X1148078Y853438D01*
Y850899D01*
X1146809Y849629D01*
X1143000D01*
X1145539D02*
X1148078Y847090D01*
X1150618D02*
X1153157D01*
X1151887D01*
Y854707D01*
X1150618Y853438D01*
X1162044Y847090D02*
X1156965D01*
X1162044Y852168D01*
Y853438D01*
X1160774Y854707D01*
X1158235D01*
X1156965Y853438D01*
X1143000Y863600D02*
Y871217D01*
X1146809D01*
X1148078Y869948D01*
Y867409D01*
X1146809Y866139D01*
X1143000D01*
X1145539D02*
X1148078Y863600D01*
X1150618D02*
X1153157D01*
X1151887D01*
Y871217D01*
X1150618Y869948D01*
X1156965Y863600D02*
X1159505D01*
X1158235D01*
Y871217D01*
X1156965Y869948D01*
X1367790Y617220D02*
Y624837D01*
X1371599D01*
X1372868Y623568D01*
Y621029D01*
X1371599Y619759D01*
X1367790D01*
X1370329D02*
X1372868Y617220D01*
X1375408D02*
X1377947D01*
X1376677D01*
Y624837D01*
X1375408Y623568D01*
X1381756D02*
X1383025Y624837D01*
X1385564D01*
X1386834Y623568D01*
Y618490D01*
X1385564Y617220D01*
X1383025D01*
X1381756Y618490D01*
Y623568D01*
X1367790Y632460D02*
Y640078D01*
X1371599D01*
X1372868Y638808D01*
Y636269D01*
X1371599Y634999D01*
X1367790D01*
X1370329D02*
X1372868Y632460D01*
X1375408Y633730D02*
X1376677Y632460D01*
X1379216D01*
X1380486Y633730D01*
Y638808D01*
X1379216Y640078D01*
X1376677D01*
X1375408Y638808D01*
Y637538D01*
X1376677Y636269D01*
X1380486D01*
X1367790Y648970D02*
Y656588D01*
X1371599D01*
X1372868Y655318D01*
Y652779D01*
X1371599Y651509D01*
X1367790D01*
X1370329D02*
X1372868Y648970D01*
X1375408Y655318D02*
X1376677Y656588D01*
X1379216D01*
X1380486Y655318D01*
Y654048D01*
X1379216Y652779D01*
X1380486Y651509D01*
Y650240D01*
X1379216Y648970D01*
X1376677D01*
X1375408Y650240D01*
Y651509D01*
X1376677Y652779D01*
X1375408Y654048D01*
Y655318D01*
X1376677Y652779D02*
X1379216D01*
X1369060Y664210D02*
Y671827D01*
X1372869D01*
X1374138Y670558D01*
Y668019D01*
X1372869Y666749D01*
X1369060D01*
X1371599D02*
X1374138Y664210D01*
X1376678Y671827D02*
X1381756D01*
Y670558D01*
X1376678Y665480D01*
Y664210D01*
X1370330Y680720D02*
Y688337D01*
X1374139D01*
X1375408Y687068D01*
Y684529D01*
X1374139Y683259D01*
X1370330D01*
X1372869D02*
X1375408Y680720D01*
X1383026Y688337D02*
X1380487Y687068D01*
X1377948Y684529D01*
Y681990D01*
X1379217Y680720D01*
X1381756D01*
X1383026Y681990D01*
Y683259D01*
X1381756Y684529D01*
X1377948D01*
X1148080Y612140D02*
Y619757D01*
X1151889D01*
X1153158Y618488D01*
Y615949D01*
X1151889Y614679D01*
X1148080D01*
X1150619D02*
X1153158Y612140D01*
X1160776Y619757D02*
X1155697D01*
Y615949D01*
X1158237Y617218D01*
X1159506D01*
X1160776Y615949D01*
Y613410D01*
X1159506Y612140D01*
X1156967D01*
X1155697Y613410D01*
X1148080Y629920D02*
Y637537D01*
X1151889D01*
X1153158Y636268D01*
Y633729D01*
X1151889Y632459D01*
X1148080D01*
X1150619D02*
X1153158Y629920D01*
X1159506D02*
Y637537D01*
X1155697Y633729D01*
X1160776D01*
X1148080Y646430D02*
Y654047D01*
X1151889D01*
X1153158Y652778D01*
Y650239D01*
X1151889Y648969D01*
X1148080D01*
X1150619D02*
X1153158Y646430D01*
X1155697Y652778D02*
X1156967Y654047D01*
X1159506D01*
X1160776Y652778D01*
Y651508D01*
X1159506Y650239D01*
X1158237D01*
X1159506D01*
X1160776Y648969D01*
Y647700D01*
X1159506Y646430D01*
X1156967D01*
X1155697Y647700D01*
X1148080Y661670D02*
Y669287D01*
X1151889D01*
X1153158Y668018D01*
Y665479D01*
X1151889Y664209D01*
X1148080D01*
X1150619D02*
X1153158Y661670D01*
X1160776D02*
X1155697D01*
X1160776Y666748D01*
Y668018D01*
X1159506Y669287D01*
X1156967D01*
X1155697Y668018D01*
X1149350Y679450D02*
Y687067D01*
X1153159D01*
X1154428Y685798D01*
Y683259D01*
X1153159Y681989D01*
X1149350D01*
X1151889D02*
X1154428Y679450D01*
X1156967D02*
X1159507D01*
X1158237D01*
Y687067D01*
X1156967Y685798D01*
X1181098Y801368D02*
X1179829Y802637D01*
X1177290D01*
X1176020Y801368D01*
Y796290D01*
X1177290Y795020D01*
X1179829D01*
X1181098Y796290D01*
X1188716Y795020D02*
X1183637D01*
X1188716Y800098D01*
Y801368D01*
X1187446Y802637D01*
X1184907D01*
X1183637Y801368D01*
X1195064Y795020D02*
Y802637D01*
X1191255Y798829D01*
X1196333D01*
X1179828Y817878D02*
X1178559Y819147D01*
X1176020D01*
X1174750Y817878D01*
Y812800D01*
X1176020Y811530D01*
X1178559D01*
X1179828Y812800D01*
X1187446Y811530D02*
X1182367D01*
X1187446Y816608D01*
Y817878D01*
X1186176Y819147D01*
X1183637D01*
X1182367Y817878D01*
X1189985D02*
X1191255Y819147D01*
X1193794D01*
X1195063Y817878D01*
Y816608D01*
X1193794Y815339D01*
X1192524D01*
X1193794D01*
X1195063Y814069D01*
Y812800D01*
X1193794Y811530D01*
X1191255D01*
X1189985Y812800D01*
X1179828Y834388D02*
X1178559Y835658D01*
X1176020D01*
X1174750Y834388D01*
Y829310D01*
X1176020Y828040D01*
X1178559D01*
X1179828Y829310D01*
X1187446Y828040D02*
X1182367D01*
X1187446Y833118D01*
Y834388D01*
X1186176Y835658D01*
X1183637D01*
X1182367Y834388D01*
X1195063Y828040D02*
X1189985D01*
X1195063Y833118D01*
Y834388D01*
X1193794Y835658D01*
X1191255D01*
X1189985Y834388D01*
X1181098Y849628D02*
X1179829Y850898D01*
X1177290D01*
X1176020Y849628D01*
Y844550D01*
X1177290Y843280D01*
X1179829D01*
X1181098Y844550D01*
X1188716Y843280D02*
X1183637D01*
X1188716Y848358D01*
Y849628D01*
X1187446Y850898D01*
X1184907D01*
X1183637Y849628D01*
X1191255Y843280D02*
X1193794D01*
X1192525D01*
Y850898D01*
X1191255Y849628D01*
X1179828Y866138D02*
X1178559Y867408D01*
X1176020D01*
X1174750Y866138D01*
Y861060D01*
X1176020Y859790D01*
X1178559D01*
X1179828Y861060D01*
X1187446Y859790D02*
X1182367D01*
X1187446Y864868D01*
Y866138D01*
X1186176Y867408D01*
X1183637D01*
X1182367Y866138D01*
X1189985D02*
X1191255Y867408D01*
X1193794D01*
X1195063Y866138D01*
Y861060D01*
X1193794Y859790D01*
X1191255D01*
X1189985Y861060D01*
Y866138D01*
X1181098Y881378D02*
X1179829Y882647D01*
X1177290D01*
X1176020Y881378D01*
Y876300D01*
X1177290Y875030D01*
X1179829D01*
X1181098Y876300D01*
X1183637Y875030D02*
X1186177D01*
X1184907D01*
Y882647D01*
X1183637Y881378D01*
X1189986Y876300D02*
X1191255Y875030D01*
X1193794D01*
X1195064Y876300D01*
Y881378D01*
X1193794Y882647D01*
X1191255D01*
X1189986Y881378D01*
Y880108D01*
X1191255Y878839D01*
X1195064D01*
X979198Y806448D02*
X977929Y807718D01*
X975390D01*
X974120Y806448D01*
Y801370D01*
X975390Y800100D01*
X977929D01*
X979198Y801370D01*
X981738Y800100D02*
X984277D01*
X983007D01*
Y807718D01*
X981738Y806448D01*
X988085D02*
X989355Y807718D01*
X991894D01*
X993164Y806448D01*
Y805178D01*
X991894Y803909D01*
X993164Y802639D01*
Y801370D01*
X991894Y800100D01*
X989355D01*
X988085Y801370D01*
Y802639D01*
X989355Y803909D01*
X988085Y805178D01*
Y806448D01*
X989355Y803909D02*
X991894D01*
X979168Y821688D02*
X977899Y822958D01*
X975360D01*
X974090Y821688D01*
Y816610D01*
X975360Y815340D01*
X977899D01*
X979168Y816610D01*
X981708Y815340D02*
X984247D01*
X982977D01*
Y822958D01*
X981708Y821688D01*
X988055Y822958D02*
X993134D01*
Y821688D01*
X988055Y816610D01*
Y815340D01*
X979818Y836928D02*
X978549Y838197D01*
X976010D01*
X974740Y836928D01*
Y831850D01*
X976010Y830580D01*
X978549D01*
X979818Y831850D01*
X982357Y830580D02*
X984897D01*
X983627D01*
Y838197D01*
X982357Y836928D01*
X993784Y838197D02*
X991245Y836928D01*
X988706Y834389D01*
Y831850D01*
X989975Y830580D01*
X992514D01*
X993784Y831850D01*
Y833119D01*
X992514Y834389D01*
X988706D01*
X979168Y852168D02*
X977899Y853438D01*
X975360D01*
X974090Y852168D01*
Y847090D01*
X975360Y845820D01*
X977899D01*
X979168Y847090D01*
X981708Y845820D02*
X984247D01*
X982977D01*
Y853438D01*
X981708Y852168D01*
X993134Y853438D02*
X988055D01*
Y849629D01*
X990595Y850898D01*
X991864D01*
X993134Y849629D01*
Y847090D01*
X991864Y845820D01*
X989325D01*
X988055Y847090D01*
X979198Y867408D02*
X977929Y868678D01*
X975390D01*
X974120Y867408D01*
Y862330D01*
X975390Y861060D01*
X977929D01*
X979198Y862330D01*
X981738Y861060D02*
X984277D01*
X983007D01*
Y868678D01*
X981738Y867408D01*
X991894Y861060D02*
Y868678D01*
X988085Y864869D01*
X993164D01*
X977898Y882648D02*
X976629Y883917D01*
X974090D01*
X972820Y882648D01*
Y877570D01*
X974090Y876300D01*
X976629D01*
X977898Y877570D01*
X980437Y876300D02*
X982977D01*
X981707D01*
Y883917D01*
X980437Y882648D01*
X986786D02*
X988055Y883917D01*
X990594D01*
X991864Y882648D01*
Y881378D01*
X990594Y880109D01*
X989325D01*
X990594D01*
X991864Y878839D01*
Y877570D01*
X990594Y876300D01*
X988055D01*
X986786Y877570D01*
X1182368Y609598D02*
X1181099Y610868D01*
X1178560D01*
X1177290Y609598D01*
Y604520D01*
X1178560Y603250D01*
X1181099D01*
X1182368Y604520D01*
X1184908Y603250D02*
X1187447D01*
X1186177D01*
Y610868D01*
X1184908Y609598D01*
X1196334Y603250D02*
X1191255D01*
X1196334Y608328D01*
Y609598D01*
X1195064Y610868D01*
X1192525D01*
X1191255Y609598D01*
X1184908Y624838D02*
X1183639Y626107D01*
X1181100D01*
X1179830Y624838D01*
Y619760D01*
X1181100Y618490D01*
X1183639D01*
X1184908Y619760D01*
X1187448Y618490D02*
X1189987D01*
X1188717D01*
Y626107D01*
X1187448Y624838D01*
X1193795Y618490D02*
X1196335D01*
X1195065D01*
Y626107D01*
X1193795Y624838D01*
X1183638Y640078D02*
X1182369Y641348D01*
X1179830D01*
X1178560Y640078D01*
Y635000D01*
X1179830Y633730D01*
X1182369D01*
X1183638Y635000D01*
X1186178Y633730D02*
X1188717D01*
X1187447D01*
Y641348D01*
X1186178Y640078D01*
X1192525D02*
X1193795Y641348D01*
X1196334D01*
X1197604Y640078D01*
Y635000D01*
X1196334Y633730D01*
X1193795D01*
X1192525Y635000D01*
Y640078D01*
X1188718Y655318D02*
X1187449Y656588D01*
X1184910D01*
X1183640Y655318D01*
Y650240D01*
X1184910Y648970D01*
X1187449D01*
X1188718Y650240D01*
X1191257D02*
X1192527Y648970D01*
X1195066D01*
X1196336Y650240D01*
Y655318D01*
X1195066Y656588D01*
X1192527D01*
X1191257Y655318D01*
Y654048D01*
X1192527Y652779D01*
X1196336D01*
X1187448Y670558D02*
X1186179Y671827D01*
X1183640D01*
X1182370Y670558D01*
Y665480D01*
X1183640Y664210D01*
X1186179D01*
X1187448Y665480D01*
X1189987Y670558D02*
X1191257Y671827D01*
X1193796D01*
X1195066Y670558D01*
Y669288D01*
X1193796Y668019D01*
X1195066Y666749D01*
Y665480D01*
X1193796Y664210D01*
X1191257D01*
X1189987Y665480D01*
Y666749D01*
X1191257Y668019D01*
X1189987Y669288D01*
Y670558D01*
X1191257Y668019D02*
X1193796D01*
X1188718Y685798D02*
X1187449Y687067D01*
X1184910D01*
X1183640Y685798D01*
Y680720D01*
X1184910Y679450D01*
X1187449D01*
X1188718Y680720D01*
X1191257Y687067D02*
X1196336D01*
Y685798D01*
X1191257Y680720D01*
Y679450D01*
X984899Y608328D02*
X983629Y609598D01*
X981090D01*
X979820Y608328D01*
Y603250D01*
X981090Y601980D01*
X983629D01*
X984899Y603250D01*
X992516Y609598D02*
X989977Y608328D01*
X987438Y605789D01*
Y603250D01*
X988707Y601980D01*
X991247D01*
X992516Y603250D01*
Y604519D01*
X991247Y605789D01*
X987438D01*
X984869Y622552D02*
X983599Y623821D01*
X981060D01*
X979790Y622552D01*
Y617473D01*
X981060Y616204D01*
X983599D01*
X984869Y617473D01*
X992486Y623821D02*
X987408D01*
Y620013D01*
X989947Y621282D01*
X991217D01*
X992486Y620013D01*
Y617473D01*
X991217Y616204D01*
X988677D01*
X987408Y617473D01*
X984899Y638046D02*
X983629Y639316D01*
X981090D01*
X979820Y638046D01*
Y632968D01*
X981090Y631698D01*
X983629D01*
X984899Y632968D01*
X991247Y631698D02*
Y639316D01*
X987438Y635507D01*
X992516D01*
X984869Y654810D02*
X983599Y656080D01*
X981060D01*
X979790Y654810D01*
Y649732D01*
X981060Y648462D01*
X983599D01*
X984869Y649732D01*
X987408Y654810D02*
X988677Y656080D01*
X991217D01*
X992486Y654810D01*
Y653540D01*
X991217Y652271D01*
X989947D01*
X991217D01*
X992486Y651001D01*
Y649732D01*
X991217Y648462D01*
X988677D01*
X987408Y649732D01*
X984899Y670304D02*
X983629Y671574D01*
X981090D01*
X979820Y670304D01*
Y665226D01*
X981090Y663956D01*
X983629D01*
X984899Y665226D01*
X992516Y663956D02*
X987438D01*
X992516Y669034D01*
Y670304D01*
X991247Y671574D01*
X988707D01*
X987438Y670304D01*
X986139Y685798D02*
X984869Y687067D01*
X982330D01*
X981060Y685798D01*
Y680720D01*
X982330Y679450D01*
X984869D01*
X986139Y680720D01*
X988678Y679450D02*
X991217D01*
X989947D01*
Y687067D01*
X988678Y685798D01*
X770890Y770889D02*
X775968D01*
X773429Y773428D02*
Y768350D01*
X778508Y767080D02*
X781047D01*
X779777D01*
Y774697D01*
X778508Y773428D01*
X789934Y767080D02*
X784855D01*
X789934Y772158D01*
Y773428D01*
X788664Y774697D01*
X786125D01*
X784855Y773428D01*
X792473Y774697D02*
Y769619D01*
X795012Y767080D01*
X797551Y769619D01*
Y774697D01*
M02*
