G04 Layer_Physical_Order=2*
G04 Layer_Color=16711680*
%FSLAX44Y44*%
%MOMM*%
G71*
G01*
G75*
%ADD20C,0.2540*%
%ADD21C,0.6096*%
%ADD22C,1.5000*%
%ADD23R,1.5000X1.5000*%
%ADD24R,1.9000X1.9000*%
%ADD25C,1.9000*%
%ADD26C,1.4000*%
%ADD27R,1.4000X1.4000*%
%ADD28C,1.8000*%
%ADD29R,1.8000X1.8000*%
%ADD30C,1.2700*%
%ADD31C,0.6000*%
D20*
X1264920Y787400D02*
Y788670D01*
Y789940D01*
X1083310Y447040D02*
X1203960D01*
X1070610Y459740D02*
X1083310Y447040D01*
X1310640Y928490D02*
X1311910Y929760D01*
Y955040D01*
X1313942Y957072D01*
X1354074D01*
X1236860Y928490D02*
X1310640D01*
X1057910Y793750D02*
Y794258D01*
X1056640Y795528D02*
X1057910Y794258D01*
X1036574Y778670D02*
X1059346D01*
X1179582Y898906D01*
X1019930Y928490D02*
X1125340D01*
X1017270Y925830D02*
X1019930Y928490D01*
X1017270Y908304D02*
Y925830D01*
X915670Y951230D02*
X920750Y956310D01*
X915670Y934720D02*
Y951230D01*
X849630Y868680D02*
X915670Y934720D01*
X920750Y956310D02*
X1092200D01*
X1106170Y942340D01*
X949960Y795020D02*
X951230D01*
X1076960Y712978D02*
X1145032Y781050D01*
X1076960Y674370D02*
Y712978D01*
X1067308Y618236D02*
Y764032D01*
X1211580Y908304D01*
X1275080Y622300D02*
X1276350D01*
X1056640Y795528D02*
X1148842Y887730D01*
X1155700Y781050D02*
Y822960D01*
Y742950D02*
Y781050D01*
X1145032D02*
X1155700D01*
Y742950D02*
X1162050Y736600D01*
X1059308Y472440D02*
X1337310D01*
X925830Y605918D02*
X1059308Y472440D01*
X925830Y605918D02*
Y606820D01*
X906540Y626110D02*
X925830Y606820D01*
X1060330Y459740D02*
X1070610D01*
X919360Y600710D02*
X1060330Y459740D01*
X765810Y600710D02*
X919360D01*
X920496Y500380D02*
X982154Y438722D01*
X1303592D01*
X1324610Y459740D01*
X1131570Y934720D02*
Y942340D01*
X1125340Y928490D02*
X1131570Y934720D01*
X972820Y863854D02*
X1017270Y908304D01*
X972820Y825246D02*
Y863854D01*
X1337310Y472440D02*
X1350010Y459740D01*
X765810Y626110D02*
X906540D01*
X1211580Y908304D02*
Y946912D01*
X1217168Y952500D01*
X1238250D01*
X1248410Y942340D01*
X1077976Y587502D02*
X1337310Y846836D01*
Y924680D01*
X1341120Y928490D01*
Y933450D01*
X1350010Y942340D01*
X1223010D02*
X1236860Y928490D01*
X1354074Y957072D02*
X1360170Y950976D01*
Y840994D02*
Y950976D01*
X1253998Y734822D02*
X1360170Y840994D01*
X1253998Y640588D02*
Y734822D01*
X1148842Y887730D02*
Y954786D01*
X1150366Y956310D01*
X1285240D01*
X1299210Y942340D01*
X1197610D02*
X1207770Y932180D01*
Y910336D02*
Y932180D01*
X1196340Y898906D02*
X1207770Y910336D01*
X1179582Y898906D02*
X1196340D01*
D21*
X1247140Y805180D02*
X1264920Y787400D01*
X928370Y817880D02*
X951230Y795020D01*
X1180284Y608330D02*
X1187160Y601453D01*
X1198362Y614680D02*
X1199059Y613983D01*
X1192530Y614680D02*
X1198362D01*
X1132840Y608330D02*
X1180284D01*
X1120140D02*
X1132840D01*
Y575310D02*
Y608330D01*
X1130300Y572770D02*
X1132840Y575310D01*
X1070610Y572770D02*
X1130300D01*
X1042670Y600710D02*
X1070610Y572770D01*
X1035050Y613410D02*
X1037590Y615950D01*
X1039213Y793397D02*
X1089660Y843844D01*
Y848360D01*
X985520Y822960D02*
Y859790D01*
X988060Y825500D02*
X990049D01*
X1004570Y824230D02*
X1007110D01*
X1010920Y828040D01*
X985520Y822960D02*
X988060Y825500D01*
X1215390Y822960D02*
Y859790D01*
Y822960D02*
X1216660Y824230D01*
X1210310Y805180D02*
X1247140D01*
X1197030Y791900D02*
X1210310Y805180D01*
X1186053Y791900D02*
X1197030D01*
X1189990Y807720D02*
X1192968Y804742D01*
X1145032Y827379D02*
X1159543Y841890D01*
X1145032Y818642D02*
Y827379D01*
X1159543Y841890D02*
X1169790D01*
X1101090Y774700D02*
X1145032Y818642D01*
X1101090Y770890D02*
Y774700D01*
X1265682Y617881D02*
Y664972D01*
Y617881D02*
X1267460Y616103D01*
X1265682Y664972D02*
X1267460Y666750D01*
Y615950D02*
Y616103D01*
X946912Y734060D02*
X1042670D01*
X922020Y758952D02*
X946912Y734060D01*
X960120Y807720D02*
X963098Y804742D01*
X928370Y817880D02*
Y869950D01*
X922020Y758952D02*
Y802640D01*
X1301750Y826770D02*
Y855980D01*
X1264920Y789940D02*
X1301750Y826770D01*
X1294130Y660400D02*
X1295400Y659130D01*
Y626110D02*
Y659130D01*
X1267460Y598170D02*
X1295400Y626110D01*
X1264920Y613410D02*
X1267460Y615950D01*
X1236980Y628650D02*
X1243330Y635000D01*
X1217930Y629920D02*
X1220470Y627380D01*
X914400Y660400D02*
X934720Y640080D01*
X1037590Y615950D02*
Y666750D01*
X934720Y609600D02*
Y640080D01*
X962660Y614680D02*
X965638Y611702D01*
X791210Y826770D02*
X849630D01*
X768350Y849630D02*
X791210Y826770D01*
X1217930Y629920D02*
Y666750D01*
X988060Y629920D02*
Y666750D01*
Y629920D02*
X990600Y627380D01*
X1032510Y806450D02*
X1035050Y808990D01*
Y859790D01*
X1010920Y828040D02*
Y859790D01*
X960120Y807720D02*
Y859790D01*
X1243330Y635000D02*
Y666750D01*
X1192530Y614680D02*
Y666750D01*
X1013460Y635000D02*
Y666750D01*
X1007110Y628650D02*
X1013460Y635000D01*
X962660Y614680D02*
Y666750D01*
X1264920Y808990D02*
Y859790D01*
X1234440Y821690D02*
X1240790Y828040D01*
Y859790D01*
X1189990Y807720D02*
Y859790D01*
X1121410Y459740D02*
X1146810D01*
D22*
X1096010Y485140D02*
D03*
X1121410D02*
D03*
X1146810D02*
D03*
X1324610D02*
D03*
X1299210D02*
D03*
X1273810D02*
D03*
X1248410D02*
D03*
X1223010D02*
D03*
X1146810Y459740D02*
D03*
X1121410D02*
D03*
X1096010D02*
D03*
X1070610D02*
D03*
X1045210D02*
D03*
X1019810D02*
D03*
X994410D02*
D03*
X1324610D02*
D03*
X1299210D02*
D03*
X1273810D02*
D03*
X1248410D02*
D03*
X1223010D02*
D03*
X1106170Y916940D02*
D03*
X1080770D02*
D03*
X1055370D02*
D03*
X1029970D02*
D03*
X1004570D02*
D03*
X979170D02*
D03*
X953770D02*
D03*
X1324610D02*
D03*
X1299210D02*
D03*
X1273810D02*
D03*
X1248410D02*
D03*
X1223010D02*
D03*
X1197610D02*
D03*
X1172210D02*
D03*
X1080770Y942340D02*
D03*
X902970D02*
D03*
X928370D02*
D03*
X953770D02*
D03*
X979170D02*
D03*
X1004570D02*
D03*
X1029970D02*
D03*
X1055370D02*
D03*
X1106170D02*
D03*
X1324610D02*
D03*
X1299210D02*
D03*
X1273810D02*
D03*
X1248410D02*
D03*
X1223010D02*
D03*
X1197610D02*
D03*
X1172210D02*
D03*
D23*
Y485140D02*
D03*
X1350010D02*
D03*
X1172210Y459740D02*
D03*
X1350010D02*
D03*
X1131570Y916940D02*
D03*
X1350010D02*
D03*
X1131570Y942340D02*
D03*
X1350010D02*
D03*
D24*
X767080Y749300D02*
D03*
X768350Y900430D02*
D03*
D25*
X767080Y698500D02*
D03*
X768350Y849630D02*
D03*
D26*
X1037590Y666750D02*
D03*
X988060D02*
D03*
X1013460D02*
D03*
X1267460D02*
D03*
X1217930D02*
D03*
X1243330D02*
D03*
X1035050Y859790D02*
D03*
X985520D02*
D03*
X1010920D02*
D03*
X1264920D02*
D03*
X1215390D02*
D03*
X1240790D02*
D03*
D27*
X962660Y666750D02*
D03*
X1192530D02*
D03*
X960120Y859790D02*
D03*
X1189990D02*
D03*
D28*
X765810Y626110D02*
D03*
X849630Y894080D02*
D03*
Y826770D02*
D03*
Y759460D02*
D03*
D29*
X765810Y600710D02*
D03*
X849630Y868680D02*
D03*
Y801370D02*
D03*
Y734060D02*
D03*
D30*
X1187160Y601453D02*
D03*
X1199059Y613983D02*
D03*
X1042670Y600710D02*
D03*
X1035050Y613410D02*
D03*
X1264920Y788670D02*
D03*
X1057910Y793750D02*
D03*
X1039213Y793397D02*
D03*
X1089660Y848360D02*
D03*
X1036574Y778670D02*
D03*
X949960Y795020D02*
D03*
X990049Y825500D02*
D03*
X1004570Y824230D02*
D03*
X1216660D02*
D03*
X1076960Y674370D02*
D03*
X1192968Y804742D02*
D03*
X1262380Y806450D02*
D03*
X1093470Y521970D02*
D03*
X1148080Y621030D02*
D03*
X989330Y510540D02*
D03*
X949960Y635650D02*
D03*
X1276350Y622300D02*
D03*
X1042670Y734060D02*
D03*
X1268730Y530860D02*
D03*
Y726440D02*
D03*
X1032510Y534670D02*
D03*
X963098Y804742D02*
D03*
X928370Y869950D02*
D03*
X922020Y802640D02*
D03*
X1101090Y770890D02*
D03*
X1169790Y841890D02*
D03*
X1155700Y822960D02*
D03*
X1186053Y791900D02*
D03*
X1301750Y855980D02*
D03*
X1120140Y608330D02*
D03*
X1294130Y660400D02*
D03*
X1236980Y628650D02*
D03*
X1220470Y627380D02*
D03*
X1267460Y598170D02*
D03*
X914400Y660400D02*
D03*
X934720Y609600D02*
D03*
X965638Y611702D02*
D03*
X1162050Y736600D02*
D03*
X972820Y825246D02*
D03*
X1067308Y618236D02*
D03*
X1077976Y587502D02*
D03*
X1253998Y640588D02*
D03*
X990600Y627380D02*
D03*
X1032510Y806450D02*
D03*
X1264920Y613410D02*
D03*
X1007110Y628650D02*
D03*
X1234440Y821690D02*
D03*
D31*
X920496Y500380D02*
D03*
X1010920Y599560D02*
D03*
Y588130D02*
D03*
Y576700D02*
D03*
X999490D02*
D03*
X988060D02*
D03*
Y588130D02*
D03*
X999490Y599560D02*
D03*
Y588130D02*
D03*
X988060Y599560D02*
D03*
X1240790D02*
D03*
Y588130D02*
D03*
Y576700D02*
D03*
X1229360D02*
D03*
X1217930D02*
D03*
Y588130D02*
D03*
X1229360Y599560D02*
D03*
Y588130D02*
D03*
X1217930Y599560D02*
D03*
X1008380Y792600D02*
D03*
Y781170D02*
D03*
Y769740D02*
D03*
X996950D02*
D03*
X985520D02*
D03*
Y781170D02*
D03*
X996950Y792600D02*
D03*
Y781170D02*
D03*
X985520Y792600D02*
D03*
X1238250D02*
D03*
Y781170D02*
D03*
Y769740D02*
D03*
X1226820D02*
D03*
X1215390D02*
D03*
Y781170D02*
D03*
X1226820Y792600D02*
D03*
Y781170D02*
D03*
X1215390Y792600D02*
D03*
X1203960Y447040D02*
D03*
M02*
