G04*
G04 #@! TF.GenerationSoftware,Altium Limited,Altium Designer,18.1.7 (191)*
G04*
G04 Layer_Physical_Order=2*
G04 Layer_Color=16711680*
%FSLAX44Y44*%
%MOMM*%
G71*
G01*
G75*
%ADD13C,0.2540*%
%ADD40C,0.6096*%
%ADD41C,3.6000*%
%ADD42R,3.6000X3.6000*%
%ADD43C,1.8000*%
%ADD44R,1.8000X1.8000*%
%ADD45R,1.9000X1.9000*%
%ADD46C,1.9000*%
%ADD47C,1.5240*%
%ADD48R,1.5240X1.5240*%
%ADD49R,1.5240X1.5240*%
%ADD50C,1.5000*%
%ADD51R,1.5000X1.5000*%
%ADD52R,1.8000X1.8000*%
%ADD53C,1.6900*%
%ADD54R,1.6900X1.6900*%
%ADD55C,4.7600*%
%ADD56C,1.4000*%
%ADD57R,1.4000X1.4000*%
%ADD58R,1.5000X1.5000*%
%ADD59C,1.2700*%
G36*
X1392972Y1105587D02*
X1396021Y1101871D01*
Y354353D01*
X1384155Y342488D01*
X1373659Y342488D01*
X794930Y342488D01*
X488083Y342844D01*
X475788Y355670D01*
Y1101066D01*
X488647Y1113028D01*
X1385531D01*
X1392972Y1105587D01*
D02*
G37*
%LPC*%
G36*
X1090678Y1078505D02*
Y1069816D01*
X1099367D01*
X1099189Y1071167D01*
X1098178Y1073609D01*
X1096568Y1075706D01*
X1094471Y1077316D01*
X1092029Y1078327D01*
X1090678Y1078505D01*
D02*
G37*
G36*
X1088138D02*
X1086787Y1078327D01*
X1084344Y1077316D01*
X1082247Y1075706D01*
X1080638Y1073609D01*
X1079626Y1071167D01*
X1079448Y1069816D01*
X1088138D01*
Y1078505D01*
D02*
G37*
G36*
X941523D02*
Y1069816D01*
X950212D01*
X950034Y1071167D01*
X949023Y1073609D01*
X947413Y1075706D01*
X945316Y1077316D01*
X942874Y1078327D01*
X941523Y1078505D01*
D02*
G37*
G36*
X938983D02*
X937632Y1078327D01*
X935190Y1077316D01*
X933092Y1075706D01*
X931483Y1073609D01*
X930471Y1071167D01*
X930294Y1069816D01*
X938983D01*
Y1078505D01*
D02*
G37*
G36*
X1369863Y1083573D02*
X1347815D01*
Y1061525D01*
X1369863D01*
Y1083573D01*
D02*
G37*
G36*
X1248303Y1083414D02*
X1226255D01*
Y1061366D01*
X1248303D01*
Y1083414D01*
D02*
G37*
G36*
X1186479Y1083509D02*
X1183601Y1083130D01*
X1180919Y1082019D01*
X1178616Y1080252D01*
X1176849Y1077950D01*
X1175739Y1075268D01*
X1175360Y1072390D01*
X1175739Y1069512D01*
X1176849Y1066830D01*
X1178616Y1064528D01*
X1180919Y1062760D01*
X1183601Y1061650D01*
X1186479Y1061271D01*
X1189357Y1061650D01*
X1192038Y1062760D01*
X1194341Y1064528D01*
X1196108Y1066830D01*
X1197219Y1069512D01*
X1197598Y1072390D01*
X1197219Y1075268D01*
X1196108Y1077950D01*
X1194341Y1080252D01*
X1192038Y1082019D01*
X1189357Y1083130D01*
X1186479Y1083509D01*
D02*
G37*
G36*
X1047632Y1077570D02*
X1029584D01*
Y1059522D01*
X1047632D01*
Y1077570D01*
D02*
G37*
G36*
X898477D02*
X880429D01*
Y1059522D01*
X898477D01*
Y1077570D01*
D02*
G37*
G36*
X914853Y1077648D02*
X912497Y1077337D01*
X910302Y1076428D01*
X908417Y1074982D01*
X906970Y1073097D01*
X906061Y1070901D01*
X905751Y1068546D01*
X906061Y1066190D01*
X906970Y1063995D01*
X908417Y1062110D01*
X910302Y1060663D01*
X912497Y1059754D01*
X914853Y1059444D01*
X917209Y1059754D01*
X919404Y1060663D01*
X921289Y1062110D01*
X922735Y1063995D01*
X923645Y1066190D01*
X923955Y1068546D01*
X923645Y1070901D01*
X922735Y1073097D01*
X921289Y1074982D01*
X919404Y1076428D01*
X917209Y1077337D01*
X914853Y1077648D01*
D02*
G37*
G36*
X950212Y1067276D02*
X941523D01*
Y1058586D01*
X942874Y1058764D01*
X945316Y1059776D01*
X947413Y1061385D01*
X949023Y1063483D01*
X950034Y1065925D01*
X950212Y1067276D01*
D02*
G37*
G36*
X938983D02*
X930294D01*
X930471Y1065925D01*
X931483Y1063483D01*
X933092Y1061385D01*
X935190Y1059776D01*
X937632Y1058764D01*
X938983Y1058586D01*
Y1067276D01*
D02*
G37*
G36*
X776718Y1075333D02*
X758430D01*
Y1057045D01*
X776718D01*
Y1075333D01*
D02*
G37*
G36*
X1308039Y1083668D02*
X1305161Y1083289D01*
X1302479Y1082178D01*
X1300176Y1080411D01*
X1298409Y1078108D01*
X1297298Y1075427D01*
X1296920Y1072549D01*
X1297198Y1070429D01*
X1274299Y1047530D01*
X1101705D01*
X1099059Y1050176D01*
X1098968Y1050634D01*
X1097631Y1052635D01*
X1093782Y1056484D01*
X1092226Y1057523D01*
X1092173Y1057857D01*
X1092361Y1058902D01*
X1094471Y1059776D01*
X1096568Y1061385D01*
X1098178Y1063483D01*
X1099189Y1065925D01*
X1099367Y1067276D01*
X1079448D01*
X1079626Y1065925D01*
X1080638Y1063483D01*
X1082247Y1061385D01*
X1084344Y1059776D01*
X1084866Y1059560D01*
X1084613Y1058290D01*
X1082984D01*
X1073065Y1068209D01*
X1073110Y1068546D01*
X1072800Y1070901D01*
X1071890Y1073097D01*
X1070444Y1074982D01*
X1068559Y1076428D01*
X1066364Y1077337D01*
X1064008Y1077648D01*
X1061652Y1077337D01*
X1059457Y1076428D01*
X1057572Y1074982D01*
X1056125Y1073097D01*
X1055216Y1070901D01*
X1054906Y1068546D01*
X1055216Y1066190D01*
X1056125Y1063995D01*
X1057572Y1062110D01*
X1059348Y1060747D01*
X1059648Y1060298D01*
X1059743Y1060203D01*
X1061743Y1058866D01*
X1064103Y1058397D01*
X1065215Y1058618D01*
X1072753Y1051080D01*
X1072267Y1049906D01*
X775418Y1049906D01*
X773752Y1049575D01*
X772358Y1048643D01*
X772186Y1048776D01*
X769961Y1049697D01*
X767574Y1050012D01*
X765187Y1049697D01*
X762963Y1048776D01*
X761053Y1047310D01*
X759587Y1045400D01*
X758665Y1043176D01*
X758351Y1040789D01*
X758665Y1038402D01*
X759587Y1036177D01*
X761053Y1034267D01*
X762963Y1032801D01*
X765187Y1031880D01*
X767574Y1031566D01*
X769961Y1031880D01*
X772186Y1032801D01*
X774096Y1034267D01*
X775561Y1036177D01*
X776483Y1038402D01*
X776795Y1040773D01*
X777221Y1041199D01*
X782485D01*
X782971Y1040026D01*
X767554Y1024609D01*
X765187Y1024297D01*
X762963Y1023376D01*
X761053Y1021910D01*
X759587Y1020000D01*
X758665Y1017776D01*
X758351Y1015389D01*
X758665Y1013002D01*
X759587Y1010777D01*
X761053Y1008867D01*
X762963Y1007401D01*
X765187Y1006480D01*
X767574Y1006166D01*
X769961Y1006480D01*
X772186Y1007401D01*
X774096Y1008867D01*
X775561Y1010777D01*
X776483Y1013002D01*
X776797Y1015389D01*
X776483Y1017776D01*
X775561Y1020000D01*
X775430Y1020171D01*
X791531Y1036271D01*
X952214D01*
X952726Y1035001D01*
X952019Y1033296D01*
X951749Y1031240D01*
X952019Y1029184D01*
X952813Y1027269D01*
X954075Y1025624D01*
X955720Y1024362D01*
X957635Y1023569D01*
X959691Y1023298D01*
X961746Y1023569D01*
X963662Y1024362D01*
X965306Y1025624D01*
X966275Y1026886D01*
X1056533D01*
X1068095Y1015324D01*
X1069508Y1014380D01*
X1071174Y1014049D01*
X1185102D01*
X1192026Y1007125D01*
X1191526Y1005829D01*
X1189317Y1005538D01*
X1186757Y1004478D01*
X1184558Y1002791D01*
X1182871Y1000592D01*
X1181811Y998032D01*
X1181449Y995285D01*
X1181811Y992538D01*
X1182871Y989978D01*
X1184558Y987779D01*
X1186757Y986092D01*
X1189317Y985032D01*
X1192064Y984670D01*
X1194811Y985032D01*
X1197372Y986092D01*
X1199570Y987779D01*
X1201257Y989978D01*
X1202317Y992538D01*
X1202608Y994747D01*
X1203904Y995247D01*
X1246775Y952375D01*
X1246367Y951173D01*
X1246054Y951132D01*
X1243859Y950222D01*
X1241974Y948776D01*
X1240528Y946891D01*
X1239618Y944696D01*
X1239308Y942340D01*
X1239618Y939984D01*
X1240528Y937789D01*
X1241974Y935904D01*
X1243859Y934458D01*
X1246054Y933548D01*
X1248410Y933238D01*
X1250766Y933548D01*
X1252961Y934458D01*
X1253211Y934650D01*
X1254350Y934088D01*
Y929037D01*
X1250963Y925650D01*
X1250766Y925732D01*
X1248410Y926042D01*
X1246054Y925732D01*
X1243859Y924822D01*
X1241974Y923376D01*
X1240528Y921491D01*
X1239618Y919296D01*
X1239308Y916940D01*
X1239618Y914584D01*
X1240528Y912389D01*
X1241974Y910504D01*
X1243859Y909058D01*
X1246054Y908148D01*
X1246324Y908113D01*
X1246732Y906910D01*
X1235876Y896054D01*
X1223292D01*
X1222365Y896766D01*
X1220450Y897559D01*
X1218394Y897830D01*
X1216339Y897559D01*
X1214423Y896766D01*
X1213528Y896078D01*
X1212258Y896705D01*
Y919712D01*
X1213351Y920165D01*
X1214219Y919297D01*
X1214218Y919296D01*
X1213908Y916940D01*
X1214218Y914584D01*
X1215128Y912389D01*
X1216574Y910504D01*
X1218459Y909058D01*
X1220654Y908148D01*
X1223010Y907838D01*
X1225366Y908148D01*
X1227561Y909058D01*
X1229446Y910504D01*
X1230892Y912389D01*
X1231802Y914584D01*
X1232112Y916940D01*
X1231802Y919296D01*
X1230892Y921491D01*
X1229446Y923376D01*
X1227561Y924822D01*
X1225366Y925732D01*
X1223010Y926042D01*
X1220654Y925732D01*
X1220457Y925650D01*
X1212258Y933849D01*
Y946604D01*
X1211926Y948270D01*
X1210983Y949682D01*
X1204952Y955713D01*
X1203540Y956656D01*
X1201874Y956988D01*
X1156540D01*
X1144581Y968946D01*
Y975538D01*
X1145428Y976249D01*
X1146789Y976150D01*
X1159279Y963660D01*
X1161279Y962324D01*
X1163639Y961854D01*
X1163639Y961854D01*
X1209351D01*
X1209485Y961680D01*
X1211342Y960255D01*
X1213504Y959359D01*
X1214555Y959221D01*
Y968021D01*
Y976820D01*
X1213504Y976682D01*
X1211342Y975786D01*
X1209485Y974361D01*
X1209351Y974187D01*
X1166193D01*
X1157316Y983065D01*
Y984761D01*
X1177188D01*
Y1005809D01*
X1156140D01*
Y999506D01*
X1154870Y998980D01*
X1150090Y1003760D01*
X1148090Y1005096D01*
X1145730Y1005566D01*
X1131936D01*
X1129577Y1005096D01*
X1127576Y1003760D01*
X1116642Y992826D01*
Y984105D01*
X1125363D01*
X1134491Y993233D01*
X1143176D01*
X1144258Y992151D01*
X1144174Y991275D01*
X1142918Y990516D01*
X1142283Y990779D01*
X1140227Y991050D01*
X1138172Y990779D01*
X1136256Y989986D01*
X1134612Y988723D01*
X1133349Y987079D01*
X1132556Y985163D01*
X1132285Y983108D01*
X1132556Y981052D01*
X1133349Y979137D01*
X1134612Y977492D01*
X1135874Y976523D01*
Y967143D01*
X1136205Y965477D01*
X1137149Y964064D01*
X1151658Y949556D01*
X1153070Y948612D01*
X1154736Y948280D01*
X1163958D01*
X1164520Y947141D01*
X1164328Y946891D01*
X1163418Y944696D01*
X1163108Y942340D01*
X1163418Y939984D01*
X1164328Y937789D01*
X1165774Y935904D01*
X1167659Y934458D01*
X1169854Y933548D01*
X1172210Y933238D01*
X1174566Y933548D01*
X1176761Y934458D01*
X1178646Y935904D01*
X1180092Y937789D01*
X1181002Y939984D01*
X1181312Y942340D01*
X1181002Y944696D01*
X1180092Y946891D01*
X1179900Y947141D01*
X1180462Y948280D01*
X1189358D01*
X1189920Y947141D01*
X1189728Y946891D01*
X1188818Y944696D01*
X1188508Y942340D01*
X1188818Y939984D01*
X1189728Y937789D01*
X1191174Y935904D01*
X1193059Y934458D01*
X1193256Y934376D01*
Y931498D01*
X1193588Y929832D01*
X1194531Y928419D01*
X1195975Y926975D01*
X1195567Y925773D01*
X1195254Y925732D01*
X1193059Y924822D01*
X1191174Y923376D01*
X1189728Y921491D01*
X1188818Y919296D01*
X1188508Y916940D01*
X1188818Y914584D01*
X1189728Y912389D01*
X1191174Y910504D01*
X1193059Y909058D01*
X1195254Y908148D01*
X1197610Y907838D01*
X1199966Y908148D01*
X1202161Y909058D01*
X1202411Y909250D01*
X1203550Y908688D01*
Y868399D01*
X1203245Y866866D01*
Y779272D01*
X1176456Y752483D01*
X1175286Y753108D01*
X1175620Y754790D01*
Y836839D01*
X1192169Y853388D01*
X1192613Y853330D01*
X1195000Y853644D01*
X1197225Y854565D01*
X1199135Y856031D01*
X1200600Y857941D01*
X1201522Y860165D01*
X1201836Y862553D01*
X1201522Y864940D01*
X1200600Y867164D01*
X1199135Y869074D01*
X1197225Y870540D01*
X1195000Y871461D01*
X1192613Y871775D01*
X1190226Y871461D01*
X1188002Y870540D01*
X1186092Y869074D01*
X1184626Y867164D01*
X1183705Y864940D01*
X1183390Y862553D01*
X1183449Y862109D01*
X1165094Y843754D01*
X1163757Y841753D01*
X1163287Y839393D01*
Y757344D01*
X1139330Y733387D01*
X1138172Y733235D01*
X1136256Y732441D01*
X1134612Y731179D01*
X1133349Y729534D01*
X1132556Y727619D01*
X1132285Y725563D01*
X1132556Y723508D01*
X1133349Y721592D01*
X1134612Y719948D01*
X1136256Y718685D01*
X1138172Y717892D01*
X1139849Y717671D01*
X1140436Y716463D01*
X1091580Y667606D01*
X1090503Y668325D01*
X1091359Y670392D01*
X1091541Y671775D01*
X1082730D01*
Y662964D01*
X1084113Y663146D01*
X1086180Y664002D01*
X1086899Y662925D01*
X1078382Y654408D01*
X1077438Y652996D01*
X1077107Y651330D01*
Y554138D01*
X1076849Y554032D01*
X1074939Y552566D01*
X1073473Y550656D01*
X1072552Y548432D01*
X1072238Y546045D01*
X1072552Y543657D01*
X1073473Y541433D01*
X1073711Y541123D01*
X1073149Y539984D01*
X1064372D01*
X1063810Y541123D01*
X1064048Y541433D01*
X1064969Y543657D01*
X1065283Y546045D01*
X1064969Y548432D01*
X1064048Y550656D01*
X1062582Y552566D01*
X1060672Y554032D01*
X1058447Y554953D01*
X1056060Y555267D01*
X1053673Y554953D01*
X1051449Y554032D01*
X1049539Y552566D01*
X1048073Y550656D01*
X1047152Y548432D01*
X1046838Y546045D01*
X1047152Y543657D01*
X1048073Y541433D01*
X1048311Y541123D01*
X1047749Y539984D01*
X1038972D01*
X1038410Y541123D01*
X1038648Y541433D01*
X1039569Y543657D01*
X1039883Y546045D01*
X1039569Y548432D01*
X1038648Y550656D01*
X1037182Y552566D01*
X1035272Y554032D01*
X1033047Y554953D01*
X1030660Y555267D01*
X1028273Y554953D01*
X1026049Y554032D01*
X1024139Y552566D01*
X1022673Y550656D01*
X1021752Y548432D01*
X1021438Y546045D01*
X1021752Y543657D01*
X1022673Y541433D01*
X1022911Y541123D01*
X1022349Y539984D01*
X1013572D01*
X1013010Y541123D01*
X1013248Y541433D01*
X1014169Y543657D01*
X1014483Y546045D01*
X1014169Y548432D01*
X1013248Y550656D01*
X1011782Y552566D01*
X1009872Y554032D01*
X1007647Y554953D01*
X1005260Y555267D01*
X1002873Y554953D01*
X1000649Y554032D01*
X998739Y552566D01*
X997273Y550656D01*
X996352Y548432D01*
X996038Y546045D01*
X996352Y543657D01*
X997273Y541433D01*
X997511Y541123D01*
X996949Y539984D01*
X988172D01*
X987610Y541123D01*
X987848Y541433D01*
X988769Y543657D01*
X989083Y546045D01*
X988769Y548432D01*
X987848Y550656D01*
X986382Y552566D01*
X984822Y553763D01*
X984665Y554974D01*
X984731Y555299D01*
X1036036Y606604D01*
X1037306Y606078D01*
X1037306Y605658D01*
Y588631D01*
X1055354D01*
Y606679D01*
X1038364D01*
X1037907Y606679D01*
X1037381Y607949D01*
X1043777Y614345D01*
X1043974Y614263D01*
X1046330Y613953D01*
X1048686Y614263D01*
X1050881Y615172D01*
X1052766Y616619D01*
X1054213Y618504D01*
X1055122Y620699D01*
X1055432Y623055D01*
X1055122Y625410D01*
X1054213Y627606D01*
X1052766Y629491D01*
X1050881Y630937D01*
X1048686Y631846D01*
X1046330Y632156D01*
X1043974Y631846D01*
X1041779Y630937D01*
X1039894Y629491D01*
X1038448Y627606D01*
X1037538Y625410D01*
X1037228Y623055D01*
X1037538Y620699D01*
X1037620Y620502D01*
X976782Y559663D01*
X975838Y558251D01*
X975507Y556585D01*
Y554138D01*
X975249Y554032D01*
X973339Y552566D01*
X971873Y550656D01*
X970952Y548432D01*
X970638Y546045D01*
X970952Y543657D01*
X971873Y541433D01*
X972111Y541123D01*
X971549Y539984D01*
X962772D01*
X962210Y541123D01*
X962448Y541433D01*
X963369Y543657D01*
X963683Y546045D01*
X963369Y548432D01*
X962448Y550656D01*
X960982Y552566D01*
X959072Y554032D01*
X956848Y554953D01*
X954461Y555267D01*
X952073Y554953D01*
X949849Y554032D01*
X947939Y552566D01*
X946473Y550656D01*
X945552Y548432D01*
X945238Y546045D01*
X945552Y543657D01*
X946473Y541433D01*
X946711Y541123D01*
X946149Y539984D01*
X937372D01*
X936810Y541123D01*
X937048Y541433D01*
X937969Y543657D01*
X938283Y546045D01*
X937969Y548432D01*
X937048Y550656D01*
X935582Y552566D01*
X933672Y554032D01*
X933243Y554209D01*
Y588631D01*
X948207D01*
Y599688D01*
X949477Y600367D01*
X949949Y600051D01*
X951615Y599720D01*
X983733D01*
Y588631D01*
X1001781D01*
Y606679D01*
X989890D01*
X989417Y607152D01*
X988004Y608096D01*
X986338Y608427D01*
X953831D01*
Y633349D01*
X953500Y635015D01*
X952556Y636427D01*
X946363Y642620D01*
Y666490D01*
X947633Y666921D01*
X947939Y666523D01*
X949849Y665057D01*
X952073Y664136D01*
X954461Y663822D01*
X956848Y664136D01*
X959072Y665057D01*
X960982Y666523D01*
X962448Y668433D01*
X963369Y670657D01*
X963683Y673045D01*
X963369Y675432D01*
X962448Y677656D01*
X960982Y679566D01*
X959072Y681032D01*
X956848Y681953D01*
X954461Y682267D01*
X952073Y681953D01*
X949849Y681032D01*
X947939Y679566D01*
X947633Y679168D01*
X946363Y679599D01*
Y718859D01*
X999832D01*
X1001498Y719191D01*
X1002910Y720134D01*
X1008339Y725563D01*
X1009283Y726976D01*
X1009358Y727352D01*
X1009872Y727565D01*
X1011782Y729031D01*
X1013248Y730941D01*
X1014169Y733166D01*
X1014483Y735553D01*
X1014169Y737940D01*
X1013248Y740164D01*
X1011782Y742074D01*
X1009872Y743540D01*
X1007647Y744461D01*
X1005260Y744775D01*
X1002873Y744461D01*
X1000649Y743540D01*
X998739Y742074D01*
X997273Y740164D01*
X996352Y737940D01*
X996038Y735553D01*
X996352Y733166D01*
X997273Y730941D01*
X998739Y729031D01*
X998772Y728529D01*
X997850Y727567D01*
X986449D01*
X986041Y728769D01*
X986382Y729031D01*
X987848Y730941D01*
X988769Y733166D01*
X989083Y735553D01*
X988769Y737940D01*
X988662Y738197D01*
X1014821Y764356D01*
X1015765Y765769D01*
X1016096Y767435D01*
Y787270D01*
X1026495Y797669D01*
X1046330D01*
X1047996Y798000D01*
X1049409Y798944D01*
X1050352Y800356D01*
X1050577Y801486D01*
X1050881Y801612D01*
X1052766Y803059D01*
X1054213Y804944D01*
X1055122Y807139D01*
X1055432Y809495D01*
X1055122Y811850D01*
X1054213Y814046D01*
X1052766Y815931D01*
X1050881Y817377D01*
X1048686Y818286D01*
X1046330Y818597D01*
X1043974Y818286D01*
X1041779Y817377D01*
X1039894Y815931D01*
X1038448Y814046D01*
X1037538Y811850D01*
X1037228Y809495D01*
X1037472Y807646D01*
X1036624Y806376D01*
X1024691D01*
X1023025Y806044D01*
X1021613Y805101D01*
X1008664Y792152D01*
X1007720Y790740D01*
X1007389Y789074D01*
Y769238D01*
X982505Y744354D01*
X982247Y744461D01*
X979861Y744775D01*
X977473Y744461D01*
X975249Y743540D01*
X973339Y742074D01*
X971873Y740164D01*
X970952Y737940D01*
X970638Y735553D01*
X970952Y733166D01*
X971873Y730941D01*
X973339Y729031D01*
X973680Y728769D01*
X973272Y727567D01*
X961049D01*
X960641Y728769D01*
X960982Y729031D01*
X962448Y730941D01*
X963369Y733166D01*
X963683Y735553D01*
X963369Y737940D01*
X962448Y740164D01*
X960982Y742074D01*
X959072Y743540D01*
X956848Y744461D01*
X954461Y744775D01*
X952073Y744461D01*
X949849Y743540D01*
X947939Y742074D01*
X946473Y740164D01*
X945552Y737940D01*
X945238Y735553D01*
X945552Y733166D01*
X946473Y730941D01*
X947939Y729031D01*
X948280Y728769D01*
X947872Y727567D01*
X935649D01*
X935241Y728769D01*
X935582Y729031D01*
X937048Y730941D01*
X937969Y733166D01*
X938283Y735553D01*
X937969Y737940D01*
X937048Y740164D01*
X935582Y742074D01*
X933672Y743540D01*
X933243Y743717D01*
Y775071D01*
X948207D01*
Y779741D01*
X983733D01*
Y775071D01*
X1001781D01*
Y793119D01*
X983733D01*
Y788448D01*
X948207D01*
Y793119D01*
X933243D01*
Y797397D01*
X936630Y800785D01*
X936828Y800703D01*
X939184Y800393D01*
X941539Y800703D01*
X943734Y801612D01*
X945620Y803059D01*
X947066Y804944D01*
X947975Y807139D01*
X948285Y809495D01*
X947975Y811850D01*
X947066Y814046D01*
X945620Y815931D01*
X943734Y817377D01*
X941539Y818286D01*
X939184Y818597D01*
X936828Y818286D01*
X934633Y817377D01*
X932747Y815931D01*
X931301Y814046D01*
X930392Y811850D01*
X930082Y809495D01*
X930392Y807139D01*
X930473Y806942D01*
X925811Y802279D01*
X924867Y800867D01*
X924536Y799201D01*
Y743576D01*
X924449Y743540D01*
X922539Y742074D01*
X921073Y740164D01*
X920152Y737940D01*
X919838Y735553D01*
X920152Y733166D01*
X921073Y730941D01*
X922539Y729031D01*
X922880Y728769D01*
X922472Y727567D01*
X912804D01*
Y744697D01*
X894517D01*
Y727567D01*
X833489D01*
X788936Y772120D01*
Y863620D01*
X789890Y864015D01*
X792088Y865702D01*
X793775Y867900D01*
X794835Y870461D01*
X795197Y873208D01*
X794835Y875955D01*
X793775Y878515D01*
X792088Y880714D01*
X789890Y882401D01*
X787329Y883461D01*
X784582Y883823D01*
X781835Y883461D01*
X779275Y882401D01*
X777076Y880714D01*
X775389Y878515D01*
X774329Y875955D01*
X773967Y873208D01*
X774329Y870461D01*
X775389Y867900D01*
X777076Y865702D01*
X779275Y864015D01*
X780228Y863620D01*
Y770317D01*
X780560Y768651D01*
X781504Y767238D01*
X828607Y720134D01*
X830020Y719191D01*
X831686Y718859D01*
X937656D01*
Y680508D01*
X936453Y680099D01*
X936307Y680291D01*
X934184Y681919D01*
X931713Y682943D01*
X930331Y683125D01*
Y673045D01*
Y662964D01*
X931713Y663146D01*
X934184Y664170D01*
X936307Y665798D01*
X936453Y665990D01*
X937656Y665581D01*
Y640816D01*
X937988Y639150D01*
X938931Y637738D01*
X944335Y632334D01*
X944287Y632043D01*
X942876Y631292D01*
X941539Y631846D01*
X939184Y632156D01*
X936828Y631846D01*
X934633Y630937D01*
X932747Y629491D01*
X931301Y627606D01*
X930392Y625410D01*
X930082Y623055D01*
X930392Y620699D01*
X930473Y620502D01*
X925811Y615839D01*
X924867Y614427D01*
X924536Y612761D01*
Y554068D01*
X924449Y554032D01*
X922539Y552566D01*
X921073Y550656D01*
X920152Y548432D01*
X919838Y546045D01*
X920152Y543657D01*
X921073Y541433D01*
X921311Y541123D01*
X920749Y539984D01*
X915878D01*
X912804Y543058D01*
Y555188D01*
X894517D01*
Y536900D01*
X906647D01*
X910996Y532552D01*
X912408Y531608D01*
X914074Y531277D01*
X1205293D01*
X1206959Y531608D01*
X1208372Y532552D01*
X1209315Y533964D01*
X1209647Y535630D01*
Y539841D01*
X1210917Y540272D01*
X1211491Y539523D01*
X1213402Y538057D01*
X1215626Y537136D01*
X1218013Y536822D01*
X1220400Y537136D01*
X1222625Y538057D01*
X1224535Y539523D01*
X1226000Y541433D01*
X1226922Y543657D01*
X1227236Y546045D01*
X1226922Y548432D01*
X1226000Y550656D01*
X1224535Y552566D01*
X1222625Y554032D01*
X1220400Y554953D01*
X1218013Y555267D01*
X1217366Y555182D01*
X1216412Y556020D01*
Y588631D01*
X1231376D01*
Y593301D01*
X1264681D01*
Y588631D01*
X1282729D01*
Y593301D01*
X1316034D01*
Y588631D01*
X1334082D01*
Y599888D01*
X1335352D01*
X1337018Y600219D01*
X1338431Y601163D01*
X1339375Y602575D01*
X1339706Y604241D01*
Y627318D01*
X1339375Y628985D01*
X1338431Y630397D01*
X1335400Y633428D01*
Y669040D01*
X1336670Y669293D01*
X1337026Y668433D01*
X1338492Y666523D01*
X1340402Y665057D01*
X1342626Y664136D01*
X1345013Y663822D01*
X1347400Y664136D01*
X1349625Y665057D01*
X1351535Y666523D01*
X1353000Y668433D01*
X1353922Y670657D01*
X1354236Y673045D01*
X1353922Y675432D01*
X1353000Y677656D01*
X1351535Y679566D01*
X1349625Y681032D01*
X1347400Y681953D01*
X1345013Y682267D01*
X1342626Y681953D01*
X1340402Y681032D01*
X1338492Y679566D01*
X1337026Y677656D01*
X1336670Y676796D01*
X1335400Y677048D01*
Y692725D01*
X1335068Y694391D01*
X1334124Y695804D01*
X1327347Y702580D01*
X1327555Y704158D01*
X1327284Y706213D01*
X1326491Y708129D01*
X1325229Y709774D01*
X1323584Y711036D01*
X1323328Y711142D01*
X1323080Y712388D01*
X1337678Y726985D01*
X1338150Y727692D01*
X1339751Y728064D01*
X1340402Y727565D01*
X1342626Y726644D01*
X1345013Y726330D01*
X1347400Y726644D01*
X1349625Y727565D01*
X1351535Y729031D01*
X1353000Y730941D01*
X1353922Y733166D01*
X1354236Y735553D01*
X1353922Y737940D01*
X1353000Y740164D01*
X1351535Y742074D01*
X1349625Y743540D01*
X1347400Y744461D01*
X1345013Y744775D01*
X1343770Y745893D01*
Y815442D01*
X1343439Y817108D01*
X1342495Y818520D01*
X1338953Y822063D01*
Y835608D01*
X1358506Y855161D01*
X1359449Y856573D01*
X1359781Y858239D01*
Y858353D01*
X1361051Y858606D01*
X1361538Y857429D01*
X1363167Y855306D01*
X1365289Y853678D01*
X1367761Y852654D01*
X1369143Y852472D01*
Y862552D01*
Y872633D01*
X1369064Y872623D01*
X1356010Y885676D01*
X1357390Y887475D01*
X1358286Y889637D01*
X1358424Y890688D01*
X1340825D01*
X1340963Y889637D01*
X1341214Y889032D01*
X1340137Y888313D01*
X1338953Y889498D01*
Y899726D01*
X1347143Y907916D01*
X1359034D01*
Y924101D01*
X1360229D01*
X1362589Y924571D01*
X1364590Y925908D01*
X1366442Y927760D01*
X1367779Y929761D01*
X1368248Y932121D01*
Y952360D01*
X1367779Y954720D01*
X1366442Y956721D01*
X1359741Y963422D01*
Y984761D01*
X1364098D01*
Y1005809D01*
X1343050D01*
Y984761D01*
X1347408D01*
Y966589D01*
X1346234Y966103D01*
X1278045Y1034292D01*
X1278414Y1035508D01*
X1279213Y1035667D01*
X1281214Y1037003D01*
X1305919Y1061709D01*
X1308039Y1061430D01*
X1310916Y1061808D01*
X1313598Y1062919D01*
X1315901Y1064686D01*
X1317668Y1066989D01*
X1318779Y1069671D01*
X1319158Y1072549D01*
X1318779Y1075427D01*
X1317668Y1078108D01*
X1315901Y1080411D01*
X1313598Y1082178D01*
X1310916Y1083289D01*
X1308039Y1083668D01*
D02*
G37*
G36*
X900450Y1006806D02*
Y996604D01*
X910652D01*
X910422Y998346D01*
X909260Y1001154D01*
X907410Y1003564D01*
X904999Y1005414D01*
X902192Y1006577D01*
X900450Y1006806D01*
D02*
G37*
G36*
X958192Y1006806D02*
Y996604D01*
X968395D01*
X968165Y998346D01*
X967002Y1001154D01*
X965153Y1003564D01*
X962742Y1005414D01*
X959935Y1006577D01*
X958192Y1006806D01*
D02*
G37*
G36*
X842707D02*
Y996604D01*
X852909D01*
X852680Y998346D01*
X851517Y1001154D01*
X849667Y1003564D01*
X847256Y1005414D01*
X844449Y1006577D01*
X842707Y1006806D01*
D02*
G37*
G36*
X955652D02*
X953910Y1006577D01*
X951103Y1005414D01*
X948692Y1003564D01*
X946842Y1001154D01*
X945679Y998346D01*
X945450Y996604D01*
X955652D01*
Y1006806D01*
D02*
G37*
G36*
X840167D02*
X838424Y1006577D01*
X835617Y1005414D01*
X833206Y1003564D01*
X831356Y1001154D01*
X830194Y998346D01*
X829964Y996604D01*
X840167D01*
Y1006806D01*
D02*
G37*
G36*
X897910D02*
X896167Y1006577D01*
X893360Y1005414D01*
X890949Y1003564D01*
X889099Y1001154D01*
X887936Y998346D01*
X887707Y996604D01*
X897910D01*
Y1006806D01*
D02*
G37*
G36*
X992846Y1005858D02*
X971798D01*
Y984810D01*
X992846D01*
Y1005858D01*
D02*
G37*
G36*
X935103D02*
X914055D01*
Y984810D01*
X935103D01*
Y1005858D01*
D02*
G37*
G36*
X877361D02*
X856313D01*
Y984810D01*
X877361D01*
Y1005858D01*
D02*
G37*
G36*
X1378974Y1005900D02*
X1376227Y1005538D01*
X1373667Y1004478D01*
X1371469Y1002791D01*
X1369782Y1000592D01*
X1368721Y998032D01*
X1368360Y995285D01*
X1368721Y992538D01*
X1369782Y989978D01*
X1371469Y987779D01*
X1373667Y986092D01*
X1376227Y985032D01*
X1378974Y984670D01*
X1381722Y985032D01*
X1384282Y986092D01*
X1386480Y987779D01*
X1388167Y989978D01*
X1389227Y992538D01*
X1389589Y995285D01*
X1389227Y998032D01*
X1388167Y1000592D01*
X1386480Y1002791D01*
X1384282Y1004478D01*
X1381722Y1005538D01*
X1378974Y1005900D01*
D02*
G37*
G36*
X1114102Y992794D02*
X1112751Y992617D01*
X1110309Y991605D01*
X1108212Y989996D01*
X1106602Y987898D01*
X1105591Y985456D01*
X1105413Y984105D01*
X1114102D01*
Y992794D01*
D02*
G37*
G36*
X910652Y994064D02*
X900450D01*
Y983862D01*
X902192Y984091D01*
X904999Y985254D01*
X907410Y987104D01*
X909260Y989514D01*
X910422Y992321D01*
X910652Y994064D01*
D02*
G37*
G36*
X968395D02*
X958192D01*
Y983861D01*
X959935Y984091D01*
X962742Y985254D01*
X965153Y987104D01*
X967002Y989514D01*
X968165Y992321D01*
X968395Y994064D01*
D02*
G37*
G36*
X852909D02*
X842707D01*
Y983861D01*
X844449Y984091D01*
X847256Y985254D01*
X849667Y987104D01*
X851517Y989514D01*
X852680Y992321D01*
X852909Y994064D01*
D02*
G37*
G36*
X955652D02*
X945450D01*
X945679Y992321D01*
X946842Y989514D01*
X948692Y987104D01*
X951103Y985254D01*
X953910Y984091D01*
X955652Y983861D01*
Y994064D01*
D02*
G37*
G36*
X840167D02*
X829964D01*
X830194Y992321D01*
X831356Y989514D01*
X833206Y987104D01*
X835617Y985254D01*
X838424Y984091D01*
X840167Y983861D01*
Y994064D01*
D02*
G37*
G36*
X897910D02*
X887707D01*
X887936Y992321D01*
X889099Y989514D01*
X890949Y987104D01*
X893360Y985254D01*
X896167Y984091D01*
X897910Y983861D01*
Y994064D01*
D02*
G37*
G36*
X767574Y999212D02*
X765187Y998897D01*
X762963Y997976D01*
X761053Y996510D01*
X759587Y994600D01*
X758665Y992376D01*
X758351Y989989D01*
X758665Y987602D01*
X759587Y985377D01*
X761053Y983467D01*
X762963Y982001D01*
X765187Y981080D01*
X767574Y980766D01*
X769961Y981080D01*
X772186Y982001D01*
X774096Y983467D01*
X775561Y985377D01*
X776483Y987602D01*
X776797Y989989D01*
X776483Y992376D01*
X775561Y994600D01*
X774096Y996510D01*
X772186Y997976D01*
X769961Y998897D01*
X767574Y999212D01*
D02*
G37*
G36*
X1073596Y991859D02*
X1055548D01*
Y973811D01*
X1073596D01*
Y991859D01*
D02*
G37*
G36*
X1089972Y991937D02*
X1087617Y991627D01*
X1085421Y990717D01*
X1083536Y989271D01*
X1082090Y987386D01*
X1081181Y985191D01*
X1080871Y982835D01*
X1081181Y980479D01*
X1082090Y978284D01*
X1083536Y976399D01*
X1085421Y974953D01*
X1087617Y974043D01*
X1089972Y973733D01*
X1092328Y974043D01*
X1094523Y974953D01*
X1096408Y976399D01*
X1097855Y978284D01*
X1098764Y980479D01*
X1099074Y982835D01*
X1098764Y985191D01*
X1097855Y987386D01*
X1096408Y989271D01*
X1094523Y990717D01*
X1092328Y991627D01*
X1089972Y991937D01*
D02*
G37*
G36*
X1125332Y981565D02*
X1116642D01*
Y972876D01*
X1117993Y973054D01*
X1120436Y974065D01*
X1122533Y975675D01*
X1124142Y977772D01*
X1125154Y980214D01*
X1125332Y981565D01*
D02*
G37*
G36*
X1114102D02*
X1105413D01*
X1105591Y980214D01*
X1106602Y977772D01*
X1108212Y975675D01*
X1110309Y974065D01*
X1112751Y973054D01*
X1114102Y972876D01*
Y981565D01*
D02*
G37*
G36*
X1217095Y976820D02*
Y969291D01*
X1224625D01*
X1224486Y970341D01*
X1223591Y972504D01*
X1222166Y974361D01*
X1220309Y975786D01*
X1218146Y976682D01*
X1217095Y976820D01*
D02*
G37*
G36*
X1224625Y966751D02*
X1217095D01*
Y959221D01*
X1218146Y959359D01*
X1220309Y960255D01*
X1222166Y961680D01*
X1223591Y963537D01*
X1224486Y965700D01*
X1224625Y966751D01*
D02*
G37*
G36*
X767574Y973812D02*
X765187Y973497D01*
X762963Y972576D01*
X761053Y971110D01*
X759587Y969200D01*
X758665Y966976D01*
X758351Y964589D01*
X758665Y962202D01*
X759587Y959977D01*
X761053Y958067D01*
X762963Y956601D01*
X765187Y955680D01*
X767574Y955366D01*
X769961Y955680D01*
X772186Y956601D01*
X774096Y958067D01*
X775561Y959977D01*
X776483Y962202D01*
X776797Y964589D01*
X776483Y966976D01*
X775561Y969200D01*
X774096Y971110D01*
X772186Y972576D01*
X769961Y973497D01*
X767574Y973812D01*
D02*
G37*
G36*
X768844Y949269D02*
Y940459D01*
X777655D01*
X777473Y941841D01*
X776449Y944313D01*
X774820Y946435D01*
X772698Y948063D01*
X770226Y949087D01*
X768844Y949269D01*
D02*
G37*
G36*
X766304D02*
X764922Y949087D01*
X762450Y948063D01*
X760328Y946435D01*
X758699Y944313D01*
X757676Y941841D01*
X757494Y940459D01*
X766304D01*
Y949269D01*
D02*
G37*
G36*
X1223010Y951442D02*
X1220654Y951132D01*
X1218459Y950222D01*
X1216574Y948776D01*
X1215128Y946891D01*
X1214218Y944696D01*
X1213908Y942340D01*
X1214218Y939984D01*
X1215128Y937789D01*
X1216574Y935904D01*
X1218459Y934458D01*
X1220654Y933548D01*
X1223010Y933238D01*
X1225366Y933548D01*
X1227561Y934458D01*
X1229446Y935904D01*
X1230892Y937789D01*
X1231802Y939984D01*
X1232112Y942340D01*
X1231802Y944696D01*
X1230892Y946891D01*
X1229446Y948776D01*
X1227561Y950222D01*
X1225366Y951132D01*
X1223010Y951442D01*
D02*
G37*
G36*
X1106170D02*
X1103814Y951132D01*
X1101619Y950222D01*
X1099734Y948776D01*
X1098288Y946891D01*
X1097378Y944696D01*
X1097068Y942340D01*
X1097378Y939984D01*
X1098288Y937789D01*
X1099734Y935904D01*
X1101619Y934458D01*
X1103814Y933548D01*
X1106170Y933238D01*
X1108526Y933548D01*
X1110721Y934458D01*
X1112606Y935904D01*
X1114052Y937789D01*
X1114962Y939984D01*
X1115272Y942340D01*
X1114962Y944696D01*
X1114052Y946891D01*
X1112606Y948776D01*
X1110721Y950222D01*
X1108526Y951132D01*
X1106170Y951442D01*
D02*
G37*
G36*
X1080770D02*
X1078414Y951132D01*
X1076219Y950222D01*
X1074334Y948776D01*
X1072888Y946891D01*
X1071978Y944696D01*
X1071668Y942340D01*
X1071978Y939984D01*
X1072888Y937789D01*
X1074334Y935904D01*
X1076219Y934458D01*
X1078414Y933548D01*
X1080770Y933238D01*
X1083126Y933548D01*
X1085321Y934458D01*
X1087206Y935904D01*
X1088652Y937789D01*
X1089562Y939984D01*
X1089872Y942340D01*
X1089562Y944696D01*
X1088652Y946891D01*
X1087206Y948776D01*
X1085321Y950222D01*
X1083126Y951132D01*
X1080770Y951442D01*
D02*
G37*
G36*
X1055370D02*
X1053014Y951132D01*
X1050819Y950222D01*
X1048934Y948776D01*
X1047488Y946891D01*
X1046578Y944696D01*
X1046268Y942340D01*
X1046578Y939984D01*
X1047488Y937789D01*
X1048934Y935904D01*
X1050819Y934458D01*
X1053014Y933548D01*
X1055370Y933238D01*
X1057726Y933548D01*
X1059921Y934458D01*
X1061806Y935904D01*
X1063252Y937789D01*
X1064162Y939984D01*
X1064472Y942340D01*
X1064162Y944696D01*
X1063252Y946891D01*
X1061806Y948776D01*
X1059921Y950222D01*
X1057726Y951132D01*
X1055370Y951442D01*
D02*
G37*
G36*
X1029970D02*
X1027614Y951132D01*
X1025419Y950222D01*
X1023534Y948776D01*
X1022088Y946891D01*
X1021178Y944696D01*
X1020868Y942340D01*
X1021178Y939984D01*
X1022088Y937789D01*
X1023534Y935904D01*
X1025419Y934458D01*
X1027614Y933548D01*
X1029970Y933238D01*
X1032326Y933548D01*
X1034521Y934458D01*
X1036406Y935904D01*
X1037852Y937789D01*
X1038762Y939984D01*
X1039072Y942340D01*
X1038762Y944696D01*
X1037852Y946891D01*
X1036406Y948776D01*
X1034521Y950222D01*
X1032326Y951132D01*
X1029970Y951442D01*
D02*
G37*
G36*
X1004570D02*
X1002214Y951132D01*
X1000019Y950222D01*
X998134Y948776D01*
X996688Y946891D01*
X995778Y944696D01*
X995468Y942340D01*
X995778Y939984D01*
X996688Y937789D01*
X998134Y935904D01*
X1000019Y934458D01*
X1002214Y933548D01*
X1004570Y933238D01*
X1006926Y933548D01*
X1009121Y934458D01*
X1011006Y935904D01*
X1012452Y937789D01*
X1013362Y939984D01*
X1013672Y942340D01*
X1013362Y944696D01*
X1012452Y946891D01*
X1011006Y948776D01*
X1009121Y950222D01*
X1006926Y951132D01*
X1004570Y951442D01*
D02*
G37*
G36*
X979170D02*
X976814Y951132D01*
X974619Y950222D01*
X972734Y948776D01*
X971288Y946891D01*
X970378Y944696D01*
X970068Y942340D01*
X970378Y939984D01*
X971288Y937789D01*
X972734Y935904D01*
X974619Y934458D01*
X976814Y933548D01*
X979170Y933238D01*
X981526Y933548D01*
X983721Y934458D01*
X985606Y935904D01*
X987052Y937789D01*
X987962Y939984D01*
X988272Y942340D01*
X987962Y944696D01*
X987052Y946891D01*
X985606Y948776D01*
X983721Y950222D01*
X981526Y951132D01*
X979170Y951442D01*
D02*
G37*
G36*
X953770D02*
X951414Y951132D01*
X949219Y950222D01*
X947334Y948776D01*
X945888Y946891D01*
X944978Y944696D01*
X944668Y942340D01*
X944978Y939984D01*
X945888Y937789D01*
X947334Y935904D01*
X949219Y934458D01*
X951414Y933548D01*
X953770Y933238D01*
X956126Y933548D01*
X958321Y934458D01*
X960206Y935904D01*
X961652Y937789D01*
X962562Y939984D01*
X962872Y942340D01*
X962562Y944696D01*
X961652Y946891D01*
X960206Y948776D01*
X958321Y950222D01*
X956126Y951132D01*
X953770Y951442D01*
D02*
G37*
G36*
X928370D02*
X926014Y951132D01*
X923819Y950222D01*
X921934Y948776D01*
X920488Y946891D01*
X919578Y944696D01*
X919268Y942340D01*
X919578Y939984D01*
X920488Y937789D01*
X921934Y935904D01*
X923819Y934458D01*
X926014Y933548D01*
X928370Y933238D01*
X930726Y933548D01*
X932921Y934458D01*
X934806Y935904D01*
X936252Y937789D01*
X937162Y939984D01*
X937472Y942340D01*
X937162Y944696D01*
X936252Y946891D01*
X934806Y948776D01*
X932921Y950222D01*
X930726Y951132D01*
X928370Y951442D01*
D02*
G37*
G36*
X902970D02*
X900614Y951132D01*
X898419Y950222D01*
X896534Y948776D01*
X895088Y946891D01*
X894178Y944696D01*
X893868Y942340D01*
X894178Y939984D01*
X895088Y937789D01*
X896534Y935904D01*
X898419Y934458D01*
X900614Y933548D01*
X902970Y933238D01*
X905326Y933548D01*
X907521Y934458D01*
X909406Y935904D01*
X910852Y937789D01*
X911762Y939984D01*
X912072Y942340D01*
X911762Y944696D01*
X910852Y946891D01*
X909406Y948776D01*
X907521Y950222D01*
X905326Y951132D01*
X902970Y951442D01*
D02*
G37*
G36*
X777655Y937919D02*
X768844D01*
Y929108D01*
X770226Y929290D01*
X772698Y930314D01*
X774820Y931943D01*
X776449Y934065D01*
X777473Y936536D01*
X777655Y937919D01*
D02*
G37*
G36*
X766304D02*
X757494D01*
X757676Y936536D01*
X758699Y934065D01*
X760328Y931943D01*
X762450Y930314D01*
X764922Y929290D01*
X766304Y929108D01*
Y937919D01*
D02*
G37*
G36*
X1172210Y926042D02*
X1169854Y925732D01*
X1167659Y924822D01*
X1165774Y923376D01*
X1164328Y921491D01*
X1163418Y919296D01*
X1163108Y916940D01*
X1163418Y914584D01*
X1164328Y912389D01*
X1165774Y910504D01*
X1167659Y909058D01*
X1169854Y908148D01*
X1172210Y907838D01*
X1174566Y908148D01*
X1176761Y909058D01*
X1178646Y910504D01*
X1180092Y912389D01*
X1181002Y914584D01*
X1181312Y916940D01*
X1181002Y919296D01*
X1180092Y921491D01*
X1178646Y923376D01*
X1176761Y924822D01*
X1174566Y925732D01*
X1172210Y926042D01*
D02*
G37*
G36*
X1106170D02*
X1103814Y925732D01*
X1101619Y924822D01*
X1099734Y923376D01*
X1098288Y921491D01*
X1097378Y919296D01*
X1097068Y916940D01*
X1097378Y914584D01*
X1098288Y912389D01*
X1099734Y910504D01*
X1101619Y909058D01*
X1103814Y908148D01*
X1106170Y907838D01*
X1108526Y908148D01*
X1110721Y909058D01*
X1112606Y910504D01*
X1114052Y912389D01*
X1114962Y914584D01*
X1115272Y916940D01*
X1114962Y919296D01*
X1114052Y921491D01*
X1112606Y923376D01*
X1110721Y924822D01*
X1108526Y925732D01*
X1106170Y926042D01*
D02*
G37*
G36*
X1080770D02*
X1078414Y925732D01*
X1076219Y924822D01*
X1074334Y923376D01*
X1072888Y921491D01*
X1071978Y919296D01*
X1071668Y916940D01*
X1071978Y914584D01*
X1072888Y912389D01*
X1074334Y910504D01*
X1076219Y909058D01*
X1078414Y908148D01*
X1080770Y907838D01*
X1083126Y908148D01*
X1085321Y909058D01*
X1087206Y910504D01*
X1088652Y912389D01*
X1089562Y914584D01*
X1089872Y916940D01*
X1089562Y919296D01*
X1088652Y921491D01*
X1087206Y923376D01*
X1085321Y924822D01*
X1083126Y925732D01*
X1080770Y926042D01*
D02*
G37*
G36*
X1055370D02*
X1053014Y925732D01*
X1050819Y924822D01*
X1048934Y923376D01*
X1047488Y921491D01*
X1046578Y919296D01*
X1046268Y916940D01*
X1046578Y914584D01*
X1047488Y912389D01*
X1048934Y910504D01*
X1050819Y909058D01*
X1053014Y908148D01*
X1055370Y907838D01*
X1057726Y908148D01*
X1059921Y909058D01*
X1061806Y910504D01*
X1063252Y912389D01*
X1064162Y914584D01*
X1064472Y916940D01*
X1064162Y919296D01*
X1063252Y921491D01*
X1061806Y923376D01*
X1059921Y924822D01*
X1057726Y925732D01*
X1055370Y926042D01*
D02*
G37*
G36*
X1029970D02*
X1027614Y925732D01*
X1025419Y924822D01*
X1023534Y923376D01*
X1022088Y921491D01*
X1021178Y919296D01*
X1020868Y916940D01*
X1021178Y914584D01*
X1022088Y912389D01*
X1023534Y910504D01*
X1025419Y909058D01*
X1027614Y908148D01*
X1029970Y907838D01*
X1032326Y908148D01*
X1034521Y909058D01*
X1036406Y910504D01*
X1037852Y912389D01*
X1038762Y914584D01*
X1039072Y916940D01*
X1038762Y919296D01*
X1037852Y921491D01*
X1036406Y923376D01*
X1034521Y924822D01*
X1032326Y925732D01*
X1029970Y926042D01*
D02*
G37*
G36*
X1004570D02*
X1002214Y925732D01*
X1000019Y924822D01*
X998134Y923376D01*
X996688Y921491D01*
X995778Y919296D01*
X995468Y916940D01*
X995778Y914584D01*
X996688Y912389D01*
X998134Y910504D01*
X1000019Y909058D01*
X1002214Y908148D01*
X1004570Y907838D01*
X1006926Y908148D01*
X1009121Y909058D01*
X1011006Y910504D01*
X1012452Y912389D01*
X1013362Y914584D01*
X1013672Y916940D01*
X1013362Y919296D01*
X1012452Y921491D01*
X1011006Y923376D01*
X1009121Y924822D01*
X1006926Y925732D01*
X1004570Y926042D01*
D02*
G37*
G36*
X979170D02*
X976814Y925732D01*
X974619Y924822D01*
X972734Y923376D01*
X971288Y921491D01*
X970378Y919296D01*
X970068Y916940D01*
X970378Y914584D01*
X971288Y912389D01*
X972734Y910504D01*
X974619Y909058D01*
X976814Y908148D01*
X979170Y907838D01*
X981526Y908148D01*
X983721Y909058D01*
X985606Y910504D01*
X987052Y912389D01*
X987962Y914584D01*
X988272Y916940D01*
X987962Y919296D01*
X987052Y921491D01*
X985606Y923376D01*
X983721Y924822D01*
X981526Y925732D01*
X979170Y926042D01*
D02*
G37*
G36*
X953770D02*
X951414Y925732D01*
X949219Y924822D01*
X947334Y923376D01*
X945888Y921491D01*
X944978Y919296D01*
X944668Y916940D01*
X944978Y914584D01*
X945888Y912389D01*
X947334Y910504D01*
X949219Y909058D01*
X951414Y908148D01*
X953770Y907838D01*
X956126Y908148D01*
X958321Y909058D01*
X960206Y910504D01*
X961652Y912389D01*
X962562Y914584D01*
X962872Y916940D01*
X962562Y919296D01*
X961652Y921491D01*
X960206Y923376D01*
X958321Y924822D01*
X956126Y925732D01*
X953770Y926042D01*
D02*
G37*
G36*
X1350895Y900757D02*
Y893228D01*
X1358424D01*
X1358286Y894279D01*
X1357390Y896441D01*
X1355965Y898298D01*
X1354108Y899723D01*
X1351945Y900619D01*
X1350895Y900757D01*
D02*
G37*
G36*
X1348355D02*
X1347304Y900619D01*
X1345141Y899723D01*
X1343284Y898298D01*
X1341859Y896441D01*
X1340963Y894279D01*
X1340825Y893228D01*
X1348355D01*
Y900757D01*
D02*
G37*
G36*
X719922Y884748D02*
X709652D01*
Y874478D01*
X719922D01*
Y884748D01*
D02*
G37*
G36*
X707112D02*
X696842D01*
Y874478D01*
X707112D01*
Y884748D01*
D02*
G37*
G36*
X1371683Y872633D02*
Y863822D01*
X1380494D01*
X1380312Y865205D01*
X1379288Y867676D01*
X1377659Y869799D01*
X1375537Y871427D01*
X1373065Y872451D01*
X1371683Y872633D01*
D02*
G37*
G36*
X1082730D02*
Y863822D01*
X1091541D01*
X1091359Y865205D01*
X1090335Y867676D01*
X1088707Y869799D01*
X1086584Y871427D01*
X1084113Y872451D01*
X1082730Y872633D01*
D02*
G37*
G36*
X930330D02*
Y863822D01*
X939141D01*
X938959Y865205D01*
X937935Y867676D01*
X936307Y869799D01*
X934184Y871427D01*
X931713Y872451D01*
X930330Y872633D01*
D02*
G37*
G36*
X1080190Y872633D02*
X1078808Y872451D01*
X1076337Y871427D01*
X1074214Y869799D01*
X1072586Y867676D01*
X1071562Y865205D01*
X1071380Y863822D01*
X1080190D01*
Y872633D01*
D02*
G37*
G36*
X927790D02*
X926408Y872451D01*
X923937Y871427D01*
X921814Y869799D01*
X920186Y867676D01*
X919162Y865205D01*
X918980Y863822D01*
X927790D01*
Y872633D01*
D02*
G37*
G36*
X759182Y883823D02*
X756435Y883461D01*
X753875Y882401D01*
X751676Y880714D01*
X749989Y878515D01*
X748929Y875955D01*
X748567Y873208D01*
X748929Y870461D01*
X749989Y867900D01*
X751676Y865702D01*
X753875Y864015D01*
X756435Y862955D01*
X759182Y862593D01*
X761929Y862955D01*
X764490Y864015D01*
X766688Y865702D01*
X768375Y867900D01*
X769435Y870461D01*
X769797Y873208D01*
X769435Y875955D01*
X768375Y878515D01*
X766688Y880714D01*
X764490Y882401D01*
X761929Y883461D01*
X759182Y883823D01*
D02*
G37*
G36*
X733782D02*
X731035Y883461D01*
X728475Y882401D01*
X726276Y880714D01*
X724589Y878515D01*
X723529Y875955D01*
X723167Y873208D01*
X723529Y870461D01*
X724589Y867900D01*
X726276Y865702D01*
X728475Y864015D01*
X731035Y862955D01*
X733782Y862593D01*
X736529Y862955D01*
X739090Y864015D01*
X741288Y865702D01*
X742975Y867900D01*
X744035Y870461D01*
X744397Y873208D01*
X744035Y875955D01*
X742975Y878515D01*
X741288Y880714D01*
X739090Y882401D01*
X736529Y883461D01*
X733782Y883823D01*
D02*
G37*
G36*
X719922Y871938D02*
X709652D01*
Y861668D01*
X719922D01*
Y871938D01*
D02*
G37*
G36*
X707112D02*
X696842D01*
Y861668D01*
X707112D01*
Y871938D01*
D02*
G37*
G36*
X1140594Y951364D02*
X1122546D01*
Y933316D01*
X1127216D01*
Y927234D01*
X1127274Y926946D01*
X1126468Y925964D01*
X1122546D01*
Y907916D01*
X1140594D01*
Y919051D01*
X1141767Y919537D01*
X1146559Y914745D01*
Y856023D01*
X1146229Y855861D01*
X1145289Y855517D01*
X1143344Y856323D01*
X1141118Y856616D01*
X1138893Y856323D01*
X1136820Y855464D01*
X1135039Y854097D01*
X1133673Y852317D01*
X1132814Y850243D01*
X1132521Y848018D01*
X1132814Y845793D01*
X1133673Y843719D01*
X1135039Y841939D01*
X1135571Y841531D01*
X1135219Y840199D01*
X1134068Y839970D01*
X1132656Y839027D01*
X1127716Y834087D01*
X1126772Y832674D01*
X1126441Y831008D01*
Y786690D01*
X1084105Y744354D01*
X1083848Y744461D01*
X1081460Y744775D01*
X1079073Y744461D01*
X1076849Y743540D01*
X1074939Y742074D01*
X1073473Y740164D01*
X1072552Y737940D01*
X1072238Y735553D01*
X1072552Y733166D01*
X1073473Y730941D01*
X1074939Y729031D01*
X1076849Y727565D01*
X1079073Y726644D01*
X1081460Y726330D01*
X1083848Y726644D01*
X1086072Y727565D01*
X1087982Y729031D01*
X1089448Y730941D01*
X1090369Y733166D01*
X1090683Y735553D01*
X1090369Y737940D01*
X1090262Y738197D01*
X1131421Y779356D01*
X1132595Y778870D01*
Y764564D01*
X1149642D01*
Y781612D01*
X1135269D01*
X1134591Y782882D01*
X1134817Y783221D01*
X1135148Y784887D01*
Y790889D01*
X1136287Y791451D01*
X1136820Y791042D01*
X1138893Y790183D01*
X1141118Y789890D01*
X1143344Y790183D01*
X1145417Y791042D01*
X1147198Y792409D01*
X1148564Y794189D01*
X1149423Y796263D01*
X1149716Y798488D01*
X1149423Y800713D01*
X1148564Y802787D01*
X1147198Y804567D01*
X1145417Y805934D01*
X1143344Y806793D01*
X1141118Y807085D01*
X1138893Y806793D01*
X1136820Y805934D01*
X1136287Y805525D01*
X1135148Y806087D01*
Y816289D01*
X1136287Y816851D01*
X1136820Y816442D01*
X1138893Y815583D01*
X1141118Y815290D01*
X1143344Y815583D01*
X1145417Y816442D01*
X1147198Y817809D01*
X1148564Y819589D01*
X1149423Y821663D01*
X1149716Y823888D01*
X1149423Y826113D01*
X1148564Y828187D01*
X1147198Y829967D01*
X1145672Y831138D01*
X1145535Y832106D01*
X1145614Y832627D01*
X1145978Y832870D01*
X1153991Y840883D01*
X1154935Y842295D01*
X1155266Y843961D01*
Y916549D01*
X1154935Y918215D01*
X1153991Y919627D01*
X1143306Y930312D01*
X1141893Y931256D01*
X1140227Y931588D01*
X1135924D01*
Y933316D01*
X1140594D01*
Y951364D01*
D02*
G37*
G36*
X1056060Y871775D02*
X1053673Y871461D01*
X1051449Y870540D01*
X1049539Y869074D01*
X1048073Y867164D01*
X1047152Y864940D01*
X1046838Y862553D01*
X1047152Y860165D01*
X1048073Y857941D01*
X1049539Y856031D01*
X1051449Y854565D01*
X1053673Y853644D01*
X1056060Y853330D01*
X1058447Y853644D01*
X1060672Y854565D01*
X1062582Y856031D01*
X1064048Y857941D01*
X1064969Y860165D01*
X1065283Y862553D01*
X1064969Y864940D01*
X1064048Y867164D01*
X1062582Y869074D01*
X1060672Y870540D01*
X1058447Y871461D01*
X1056060Y871775D01*
D02*
G37*
G36*
X1030660D02*
X1028273Y871461D01*
X1026049Y870540D01*
X1024139Y869074D01*
X1022673Y867164D01*
X1021752Y864940D01*
X1021438Y862553D01*
X1021752Y860165D01*
X1022673Y857941D01*
X1024139Y856031D01*
X1026049Y854565D01*
X1028273Y853644D01*
X1030660Y853330D01*
X1033047Y853644D01*
X1035272Y854565D01*
X1037182Y856031D01*
X1038648Y857941D01*
X1039569Y860165D01*
X1039883Y862553D01*
X1039569Y864940D01*
X1038648Y867164D01*
X1037182Y869074D01*
X1035272Y870540D01*
X1033047Y871461D01*
X1030660Y871775D01*
D02*
G37*
G36*
X1005260D02*
X1002873Y871461D01*
X1000649Y870540D01*
X998739Y869074D01*
X997273Y867164D01*
X996352Y864940D01*
X996038Y862553D01*
X996352Y860165D01*
X997273Y857941D01*
X998739Y856031D01*
X1000649Y854565D01*
X1002873Y853644D01*
X1005260Y853330D01*
X1007647Y853644D01*
X1009872Y854565D01*
X1011782Y856031D01*
X1013248Y857941D01*
X1014169Y860165D01*
X1014483Y862553D01*
X1014169Y864940D01*
X1013248Y867164D01*
X1011782Y869074D01*
X1009872Y870540D01*
X1007647Y871461D01*
X1005260Y871775D01*
D02*
G37*
G36*
X979861D02*
X977473Y871461D01*
X975249Y870540D01*
X973339Y869074D01*
X971873Y867164D01*
X970952Y864940D01*
X970638Y862553D01*
X970952Y860165D01*
X971873Y857941D01*
X973339Y856031D01*
X975249Y854565D01*
X977473Y853644D01*
X979861Y853330D01*
X982247Y853644D01*
X984472Y854565D01*
X986382Y856031D01*
X987848Y857941D01*
X988769Y860165D01*
X989083Y862553D01*
X988769Y864940D01*
X987848Y867164D01*
X986382Y869074D01*
X984472Y870540D01*
X982247Y871461D01*
X979861Y871775D01*
D02*
G37*
G36*
X954461D02*
X952073Y871461D01*
X949849Y870540D01*
X947939Y869074D01*
X946473Y867164D01*
X945552Y864940D01*
X945238Y862553D01*
X945552Y860165D01*
X946473Y857941D01*
X947939Y856031D01*
X949849Y854565D01*
X952073Y853644D01*
X954461Y853330D01*
X956848Y853644D01*
X959072Y854565D01*
X960982Y856031D01*
X962448Y857941D01*
X963369Y860165D01*
X963683Y862553D01*
X963369Y864940D01*
X962448Y867164D01*
X960982Y869074D01*
X959072Y870540D01*
X956848Y871461D01*
X954461Y871775D01*
D02*
G37*
G36*
X903661D02*
X901273Y871461D01*
X899049Y870540D01*
X897139Y869074D01*
X895673Y867164D01*
X894752Y864940D01*
X894438Y862553D01*
X894752Y860165D01*
X895673Y857941D01*
X897139Y856031D01*
X899049Y854565D01*
X901273Y853644D01*
X903661Y853330D01*
X906048Y853644D01*
X908272Y854565D01*
X910182Y856031D01*
X911648Y857941D01*
X912569Y860165D01*
X912883Y862553D01*
X912569Y864940D01*
X911648Y867164D01*
X910182Y869074D01*
X908272Y870540D01*
X906048Y871461D01*
X903661Y871775D01*
D02*
G37*
G36*
X1080190Y861283D02*
X1071380D01*
X1071562Y859900D01*
X1072586Y857429D01*
X1074214Y855306D01*
X1076337Y853678D01*
X1078808Y852654D01*
X1080190Y852472D01*
Y861283D01*
D02*
G37*
G36*
X927790D02*
X918980D01*
X919162Y859900D01*
X920186Y857429D01*
X921814Y855306D01*
X923937Y853678D01*
X926408Y852654D01*
X927790Y852472D01*
Y861283D01*
D02*
G37*
G36*
X1380494D02*
X1371683D01*
Y852472D01*
X1373065Y852654D01*
X1375537Y853678D01*
X1377659Y855306D01*
X1379288Y857429D01*
X1380312Y859900D01*
X1380494Y861283D01*
D02*
G37*
G36*
X1091541D02*
X1082730D01*
Y852472D01*
X1084113Y852654D01*
X1086584Y853678D01*
X1088707Y855306D01*
X1090335Y857429D01*
X1091359Y859900D01*
X1091541Y861283D01*
D02*
G37*
G36*
X939141D02*
X930330D01*
Y852472D01*
X931713Y852654D01*
X934184Y853678D01*
X936307Y855306D01*
X937935Y857429D01*
X938959Y859900D01*
X939141Y861283D01*
D02*
G37*
G36*
X642533Y903162D02*
X637569Y902673D01*
X632795Y901225D01*
X628396Y898874D01*
X624540Y895709D01*
X621375Y891853D01*
X619024Y887454D01*
X617576Y882680D01*
X617087Y877716D01*
X617576Y872751D01*
X619024Y867978D01*
X621375Y863578D01*
X624540Y859722D01*
X628396Y856558D01*
X632795Y854206D01*
X637569Y852758D01*
X642533Y852269D01*
X647498Y852758D01*
X652271Y854206D01*
X656671Y856558D01*
X660527Y859722D01*
X663691Y863578D01*
X666043Y867978D01*
X667491Y872751D01*
X667980Y877716D01*
X667491Y882680D01*
X666043Y887454D01*
X663691Y891853D01*
X660527Y895709D01*
X656671Y898874D01*
X652271Y901225D01*
X647498Y902673D01*
X642533Y903162D01*
D02*
G37*
G36*
X854864Y856969D02*
X852639Y856676D01*
X850565Y855817D01*
X848785Y854451D01*
X847418Y852670D01*
X846559Y850597D01*
X846266Y848371D01*
X846559Y846146D01*
X847418Y844073D01*
X848785Y842292D01*
X850565Y840926D01*
X852639Y840067D01*
X854864Y839774D01*
X857089Y840067D01*
X859163Y840926D01*
X860943Y842292D01*
X862310Y844073D01*
X863169Y846146D01*
X863462Y848371D01*
X863169Y850597D01*
X862310Y852670D01*
X860943Y854451D01*
X859163Y855817D01*
X857089Y856676D01*
X854864Y856969D01*
D02*
G37*
G36*
Y832839D02*
X852639Y832546D01*
X850565Y831687D01*
X848785Y830321D01*
X847418Y828540D01*
X846559Y826467D01*
X846266Y824241D01*
X846559Y822016D01*
X847418Y819943D01*
X848785Y818162D01*
X850565Y816796D01*
X852639Y815937D01*
X854864Y815644D01*
X857089Y815937D01*
X859163Y816796D01*
X860943Y818162D01*
X862310Y819943D01*
X863169Y822016D01*
X863462Y824241D01*
X863169Y826467D01*
X862310Y828540D01*
X860943Y830321D01*
X859163Y831687D01*
X857089Y832546D01*
X854864Y832839D01*
D02*
G37*
G36*
X658003Y819033D02*
Y809386D01*
X667651D01*
X667440Y810985D01*
X666333Y813658D01*
X664571Y815954D01*
X662276Y817716D01*
X659602Y818823D01*
X658003Y819033D01*
D02*
G37*
G36*
X655463Y819033D02*
X653864Y818823D01*
X651191Y817716D01*
X648895Y815954D01*
X647133Y813658D01*
X646026Y810985D01*
X645816Y809386D01*
X655463D01*
Y819033D01*
D02*
G37*
G36*
X992757Y818597D02*
X990401Y818286D01*
X988206Y817377D01*
X986321Y815931D01*
X984874Y814046D01*
X983965Y811850D01*
X983655Y809495D01*
X983965Y807139D01*
X984874Y804944D01*
X986321Y803059D01*
X988206Y801612D01*
X990401Y800703D01*
X992757Y800393D01*
X995113Y800703D01*
X997308Y801612D01*
X999193Y803059D01*
X1000639Y804944D01*
X1001549Y807139D01*
X1001859Y809495D01*
X1001549Y811850D01*
X1000639Y814046D01*
X999193Y815931D01*
X997308Y817377D01*
X995113Y818286D01*
X992757Y818597D01*
D02*
G37*
G36*
X667651Y806846D02*
X658003D01*
Y797198D01*
X659602Y797409D01*
X662276Y798516D01*
X664571Y800278D01*
X666333Y802573D01*
X667440Y805247D01*
X667651Y806846D01*
D02*
G37*
G36*
X655463D02*
X645816D01*
X646026Y805247D01*
X647133Y802573D01*
X648895Y800278D01*
X651191Y798516D01*
X653864Y797409D01*
X655463Y797198D01*
Y806846D01*
D02*
G37*
G36*
X854864Y807439D02*
X852639Y807146D01*
X850565Y806287D01*
X848785Y804921D01*
X847418Y803140D01*
X846559Y801067D01*
X846266Y798841D01*
X846559Y796616D01*
X847418Y794543D01*
X848785Y792762D01*
X850565Y791396D01*
X852639Y790537D01*
X854864Y790244D01*
X857089Y790537D01*
X859163Y791396D01*
X860943Y792762D01*
X862310Y794543D01*
X863169Y796616D01*
X863462Y798841D01*
X863169Y801067D01*
X862310Y803140D01*
X860943Y804921D01*
X859163Y806287D01*
X857089Y807146D01*
X854864Y807439D01*
D02*
G37*
G36*
X708412Y810902D02*
X705665Y810540D01*
X703105Y809480D01*
X700906Y807793D01*
X699220Y805594D01*
X698159Y803034D01*
X697797Y800287D01*
X698159Y797540D01*
X699220Y794980D01*
X700906Y792781D01*
X703105Y791094D01*
X705665Y790034D01*
X708412Y789672D01*
X711160Y790034D01*
X713719Y791094D01*
X715918Y792781D01*
X717605Y794980D01*
X718665Y797540D01*
X719027Y800287D01*
X718665Y803034D01*
X717605Y805594D01*
X715918Y807793D01*
X713719Y809480D01*
X711160Y810540D01*
X708412Y810902D01*
D02*
G37*
G36*
X628333Y804371D02*
X625729Y804028D01*
X623303Y803023D01*
X621220Y801424D01*
X619621Y799341D01*
X618616Y796915D01*
X618273Y794311D01*
X618616Y791707D01*
X619621Y789281D01*
X621220Y787197D01*
X623303Y785599D01*
X625729Y784594D01*
X628333Y784251D01*
X630937Y784594D01*
X633363Y785599D01*
X635447Y787197D01*
X637046Y789281D01*
X638050Y791707D01*
X638393Y794311D01*
X638050Y796915D01*
X637046Y799341D01*
X635447Y801424D01*
X633363Y803023D01*
X630937Y804028D01*
X628333Y804371D01*
D02*
G37*
G36*
X1055354Y793119D02*
X1037306D01*
Y775071D01*
X1055354D01*
Y793119D01*
D02*
G37*
G36*
X656733Y790566D02*
X654129Y790223D01*
X651703Y789218D01*
X649620Y787619D01*
X648021Y785536D01*
X647016Y783110D01*
X646673Y780506D01*
X647016Y777902D01*
X648021Y775476D01*
X649620Y773392D01*
X651703Y771794D01*
X654129Y770789D01*
X656733Y770446D01*
X659337Y770789D01*
X661763Y771794D01*
X663847Y773392D01*
X665445Y775476D01*
X666451Y777902D01*
X666793Y780506D01*
X666451Y783110D01*
X665445Y785536D01*
X663847Y787619D01*
X661763Y789218D01*
X659337Y790223D01*
X656733Y790566D01*
D02*
G37*
G36*
X863388Y781965D02*
X846340D01*
Y764917D01*
X863388D01*
Y781965D01*
D02*
G37*
G36*
X708412Y785502D02*
X705665Y785140D01*
X703105Y784080D01*
X700906Y782393D01*
X699220Y780194D01*
X698159Y777634D01*
X697797Y774887D01*
X698159Y772140D01*
X699220Y769580D01*
X700906Y767381D01*
X703105Y765694D01*
X705665Y764634D01*
X708412Y764272D01*
X711160Y764634D01*
X713719Y765694D01*
X715918Y767381D01*
X717605Y769580D01*
X718665Y772140D01*
X719027Y774887D01*
X718665Y777634D01*
X717605Y780194D01*
X715918Y782393D01*
X713719Y784080D01*
X711160Y785140D01*
X708412Y785502D01*
D02*
G37*
G36*
X628333Y776761D02*
X625729Y776418D01*
X623303Y775413D01*
X621220Y773814D01*
X619621Y771731D01*
X618616Y769305D01*
X618273Y766701D01*
X618616Y764097D01*
X619621Y761671D01*
X621220Y759587D01*
X623303Y757989D01*
X625729Y756984D01*
X628333Y756641D01*
X630937Y756984D01*
X633363Y757989D01*
X635447Y759587D01*
X637046Y761671D01*
X638050Y764097D01*
X638393Y766701D01*
X638050Y769305D01*
X637046Y771731D01*
X635447Y773814D01*
X633363Y775413D01*
X630937Y776418D01*
X628333Y776761D01*
D02*
G37*
G36*
X709682Y760959D02*
Y750757D01*
X719884D01*
X719655Y752499D01*
X718492Y755307D01*
X716643Y757717D01*
X714232Y759567D01*
X711425Y760730D01*
X709682Y760959D01*
D02*
G37*
G36*
X707142D02*
X705400Y760730D01*
X702592Y759567D01*
X700182Y757717D01*
X698332Y755307D01*
X697169Y752499D01*
X696940Y750757D01*
X707142D01*
Y760959D01*
D02*
G37*
G36*
X656733Y762956D02*
X654129Y762613D01*
X651703Y761608D01*
X649620Y760009D01*
X648021Y757926D01*
X647016Y755499D01*
X646673Y752896D01*
X647016Y750292D01*
X648021Y747866D01*
X649620Y745782D01*
X651703Y744184D01*
X654129Y743178D01*
X656733Y742836D01*
X659337Y743178D01*
X661763Y744184D01*
X663847Y745782D01*
X665445Y747866D01*
X666451Y750292D01*
X666793Y752896D01*
X666451Y755499D01*
X665445Y757926D01*
X663847Y760009D01*
X661763Y761608D01*
X659337Y762613D01*
X656733Y762956D01*
D02*
G37*
G36*
X775252Y760102D02*
X772505Y759740D01*
X769945Y758680D01*
X767747Y756993D01*
X766060Y754794D01*
X764999Y752234D01*
X764638Y749487D01*
X764999Y746740D01*
X766060Y744180D01*
X767747Y741981D01*
X769945Y740294D01*
X772505Y739234D01*
X775252Y738872D01*
X778000Y739234D01*
X780560Y740294D01*
X782758Y741981D01*
X784445Y744180D01*
X785505Y746740D01*
X785867Y749487D01*
X785505Y752234D01*
X784445Y754794D01*
X782758Y756993D01*
X780560Y758680D01*
X778000Y759740D01*
X775252Y760102D01*
D02*
G37*
G36*
X719884Y748217D02*
X709682D01*
Y738015D01*
X711425Y738244D01*
X714232Y739407D01*
X716643Y741256D01*
X718492Y743667D01*
X719655Y746474D01*
X719884Y748217D01*
D02*
G37*
G36*
X707142D02*
X696940D01*
X697169Y746474D01*
X698332Y743667D01*
X700182Y741256D01*
X702592Y739407D01*
X705400Y738244D01*
X707142Y738015D01*
Y748217D01*
D02*
G37*
G36*
X628333Y749151D02*
X625729Y748808D01*
X623303Y747803D01*
X621220Y746204D01*
X619621Y744121D01*
X618616Y741694D01*
X618273Y739091D01*
X618616Y736487D01*
X619621Y734061D01*
X621220Y731977D01*
X623303Y730378D01*
X625729Y729373D01*
X628333Y729031D01*
X630937Y729373D01*
X633363Y730378D01*
X635447Y731977D01*
X637046Y734061D01*
X638050Y736487D01*
X638393Y739091D01*
X638050Y741694D01*
X637046Y744121D01*
X635447Y746204D01*
X633363Y747803D01*
X630937Y748808D01*
X628333Y749151D01*
D02*
G37*
G36*
X1370413Y744775D02*
X1368026Y744461D01*
X1365802Y743540D01*
X1363891Y742074D01*
X1362426Y740164D01*
X1361505Y737940D01*
X1361190Y735553D01*
X1361505Y733166D01*
X1362426Y730941D01*
X1363891Y729031D01*
X1365802Y727565D01*
X1368026Y726644D01*
X1370413Y726330D01*
X1372800Y726644D01*
X1375025Y727565D01*
X1376935Y729031D01*
X1378400Y730941D01*
X1379322Y733166D01*
X1379636Y735553D01*
X1379322Y737940D01*
X1378400Y740164D01*
X1376935Y742074D01*
X1375025Y743540D01*
X1372800Y744461D01*
X1370413Y744775D01*
D02*
G37*
G36*
X1056060D02*
X1053673Y744461D01*
X1051449Y743540D01*
X1049539Y742074D01*
X1048073Y740164D01*
X1047152Y737940D01*
X1046838Y735553D01*
X1047152Y733166D01*
X1048073Y730941D01*
X1049539Y729031D01*
X1051449Y727565D01*
X1053673Y726644D01*
X1056060Y726330D01*
X1058447Y726644D01*
X1060672Y727565D01*
X1062582Y729031D01*
X1064048Y730941D01*
X1064969Y733166D01*
X1065283Y735553D01*
X1064969Y737940D01*
X1064048Y740164D01*
X1062582Y742074D01*
X1060672Y743540D01*
X1058447Y744461D01*
X1056060Y744775D01*
D02*
G37*
G36*
X1030660D02*
X1028273Y744461D01*
X1026049Y743540D01*
X1024139Y742074D01*
X1022673Y740164D01*
X1021752Y737940D01*
X1021438Y735553D01*
X1021752Y733166D01*
X1022673Y730941D01*
X1024139Y729031D01*
X1026049Y727565D01*
X1028273Y726644D01*
X1030660Y726330D01*
X1033047Y726644D01*
X1035272Y727565D01*
X1037182Y729031D01*
X1038648Y730941D01*
X1039569Y733166D01*
X1039883Y735553D01*
X1039569Y737940D01*
X1038648Y740164D01*
X1037182Y742074D01*
X1035272Y743540D01*
X1033047Y744461D01*
X1030660Y744775D01*
D02*
G37*
G36*
X656733Y735346D02*
X654129Y735003D01*
X651703Y733998D01*
X649620Y732399D01*
X648021Y730316D01*
X647016Y727889D01*
X646673Y725286D01*
X647016Y722682D01*
X648021Y720256D01*
X649620Y718172D01*
X651703Y716573D01*
X654129Y715568D01*
X656733Y715226D01*
X659337Y715568D01*
X661763Y716573D01*
X663847Y718172D01*
X665445Y720256D01*
X666451Y722682D01*
X666793Y725286D01*
X666451Y727889D01*
X665445Y730316D01*
X663847Y732399D01*
X661763Y733998D01*
X659337Y735003D01*
X656733Y735346D01*
D02*
G37*
G36*
X775252Y734702D02*
X772505Y734340D01*
X769945Y733280D01*
X767747Y731593D01*
X766060Y729394D01*
X764999Y726834D01*
X764638Y724087D01*
X764999Y721340D01*
X766060Y718780D01*
X767747Y716581D01*
X769945Y714894D01*
X772505Y713834D01*
X775252Y713472D01*
X778000Y713834D01*
X780560Y714894D01*
X782758Y716581D01*
X784445Y718780D01*
X785505Y721340D01*
X785867Y724087D01*
X785505Y726834D01*
X784445Y729394D01*
X782758Y731593D01*
X780560Y733280D01*
X778000Y734340D01*
X775252Y734702D01*
D02*
G37*
G36*
X708412D02*
X705665Y734340D01*
X703105Y733280D01*
X700906Y731593D01*
X699220Y729394D01*
X698159Y726834D01*
X697797Y724087D01*
X698159Y721340D01*
X699220Y718780D01*
X700906Y716581D01*
X703105Y714894D01*
X705665Y713834D01*
X708412Y713472D01*
X711160Y713834D01*
X713719Y714894D01*
X715918Y716581D01*
X717605Y718780D01*
X718665Y721340D01*
X719027Y724087D01*
X718665Y726834D01*
X717605Y729394D01*
X715918Y731593D01*
X713719Y733280D01*
X711160Y734340D01*
X708412Y734702D01*
D02*
G37*
G36*
X628333Y721541D02*
X625729Y721198D01*
X623303Y720193D01*
X621220Y718594D01*
X619621Y716511D01*
X618616Y714084D01*
X618273Y711481D01*
X618616Y708877D01*
X619621Y706451D01*
X621220Y704367D01*
X623303Y702768D01*
X625729Y701764D01*
X628333Y701421D01*
X630937Y701764D01*
X633363Y702768D01*
X635447Y704367D01*
X637046Y706451D01*
X638050Y708877D01*
X638393Y711481D01*
X638050Y714084D01*
X637046Y716511D01*
X635447Y718594D01*
X633363Y720193D01*
X630937Y721198D01*
X628333Y721541D01*
D02*
G37*
G36*
X775252Y709302D02*
X772505Y708940D01*
X769945Y707880D01*
X767747Y706193D01*
X766060Y703994D01*
X764999Y701434D01*
X764638Y698687D01*
X764999Y695940D01*
X766060Y693380D01*
X767747Y691181D01*
X769945Y689494D01*
X772505Y688434D01*
X775252Y688072D01*
X778000Y688434D01*
X780560Y689494D01*
X782758Y691181D01*
X784445Y693380D01*
X785505Y695940D01*
X785867Y698687D01*
X785505Y701434D01*
X784445Y703994D01*
X782758Y706193D01*
X780560Y707880D01*
X778000Y708940D01*
X775252Y709302D01*
D02*
G37*
G36*
X708412D02*
X705665Y708940D01*
X703105Y707880D01*
X700906Y706193D01*
X699220Y703994D01*
X698159Y701434D01*
X697797Y698687D01*
X698159Y695940D01*
X699220Y693380D01*
X700906Y691181D01*
X703105Y689494D01*
X705665Y688434D01*
X708412Y688072D01*
X711160Y688434D01*
X713719Y689494D01*
X715918Y691181D01*
X717605Y693380D01*
X718665Y695940D01*
X719027Y698687D01*
X718665Y701434D01*
X717605Y703994D01*
X715918Y706193D01*
X713719Y707880D01*
X711160Y708940D01*
X708412Y709302D01*
D02*
G37*
G36*
X656733Y707736D02*
X654129Y707393D01*
X651703Y706388D01*
X649620Y704789D01*
X648021Y702706D01*
X647016Y700279D01*
X646673Y697676D01*
X647016Y695072D01*
X648021Y692646D01*
X649620Y690562D01*
X651703Y688963D01*
X654129Y687959D01*
X656733Y687616D01*
X659337Y687959D01*
X661763Y688963D01*
X663847Y690562D01*
X665445Y692646D01*
X666451Y695072D01*
X666793Y697676D01*
X666451Y700279D01*
X665445Y702706D01*
X663847Y704789D01*
X661763Y706388D01*
X659337Y707393D01*
X656733Y707736D01*
D02*
G37*
G36*
X1371683Y683125D02*
Y674314D01*
X1380494D01*
X1380312Y675697D01*
X1379288Y678168D01*
X1377659Y680291D01*
X1375537Y681919D01*
X1373065Y682943D01*
X1371683Y683125D01*
D02*
G37*
G36*
X1082730D02*
Y674314D01*
X1091541D01*
X1091359Y675697D01*
X1090335Y678168D01*
X1088707Y680291D01*
X1086584Y681919D01*
X1084113Y682943D01*
X1082730Y683125D01*
D02*
G37*
G36*
X1369143D02*
X1367761Y682943D01*
X1365289Y681919D01*
X1363167Y680291D01*
X1361538Y678168D01*
X1360515Y675697D01*
X1360333Y674314D01*
X1369143D01*
Y683125D01*
D02*
G37*
G36*
X1080191D02*
X1078808Y682943D01*
X1076337Y681919D01*
X1074214Y680291D01*
X1072586Y678168D01*
X1071562Y675697D01*
X1071380Y674314D01*
X1080191D01*
Y683125D01*
D02*
G37*
G36*
X927791D02*
X926408Y682943D01*
X923937Y681919D01*
X921814Y680291D01*
X920186Y678168D01*
X919162Y675697D01*
X918980Y674314D01*
X927791D01*
Y683125D01*
D02*
G37*
G36*
X628333Y693931D02*
X625729Y693588D01*
X623303Y692583D01*
X621220Y690984D01*
X619621Y688901D01*
X618616Y686475D01*
X618273Y683871D01*
X618616Y681267D01*
X619621Y678841D01*
X621220Y676757D01*
X623303Y675158D01*
X625729Y674154D01*
X628333Y673811D01*
X630937Y674154D01*
X633363Y675158D01*
X635447Y676757D01*
X637046Y678841D01*
X638050Y681267D01*
X638393Y683871D01*
X638050Y686475D01*
X637046Y688901D01*
X635447Y690984D01*
X633363Y692583D01*
X630937Y693588D01*
X628333Y693931D01*
D02*
G37*
G36*
X1056060Y682267D02*
X1053673Y681953D01*
X1051449Y681032D01*
X1049539Y679566D01*
X1048073Y677656D01*
X1047152Y675432D01*
X1046838Y673045D01*
X1047152Y670657D01*
X1048073Y668433D01*
X1049539Y666523D01*
X1051449Y665057D01*
X1053673Y664136D01*
X1056060Y663822D01*
X1058447Y664136D01*
X1060672Y665057D01*
X1062582Y666523D01*
X1064048Y668433D01*
X1064969Y670657D01*
X1065283Y673045D01*
X1064969Y675432D01*
X1064048Y677656D01*
X1062582Y679566D01*
X1060672Y681032D01*
X1058447Y681953D01*
X1056060Y682267D01*
D02*
G37*
G36*
X1030660D02*
X1028273Y681953D01*
X1026049Y681032D01*
X1024139Y679566D01*
X1022673Y677656D01*
X1021752Y675432D01*
X1021438Y673045D01*
X1021752Y670657D01*
X1022673Y668433D01*
X1024139Y666523D01*
X1026049Y665057D01*
X1028273Y664136D01*
X1030660Y663822D01*
X1033047Y664136D01*
X1035272Y665057D01*
X1037182Y666523D01*
X1038648Y668433D01*
X1039569Y670657D01*
X1039883Y673045D01*
X1039569Y675432D01*
X1038648Y677656D01*
X1037182Y679566D01*
X1035272Y681032D01*
X1033047Y681953D01*
X1030660Y682267D01*
D02*
G37*
G36*
X1005260D02*
X1002873Y681953D01*
X1000649Y681032D01*
X998739Y679566D01*
X997273Y677656D01*
X996352Y675432D01*
X996038Y673045D01*
X996352Y670657D01*
X997273Y668433D01*
X998739Y666523D01*
X1000649Y665057D01*
X1002873Y664136D01*
X1005260Y663822D01*
X1007647Y664136D01*
X1009872Y665057D01*
X1011782Y666523D01*
X1013248Y668433D01*
X1014169Y670657D01*
X1014483Y673045D01*
X1014169Y675432D01*
X1013248Y677656D01*
X1011782Y679566D01*
X1009872Y681032D01*
X1007647Y681953D01*
X1005260Y682267D01*
D02*
G37*
G36*
X979861D02*
X977473Y681953D01*
X975249Y681032D01*
X973339Y679566D01*
X971873Y677656D01*
X970952Y675432D01*
X970638Y673045D01*
X970952Y670657D01*
X971873Y668433D01*
X973339Y666523D01*
X975249Y665057D01*
X977473Y664136D01*
X979861Y663822D01*
X982247Y664136D01*
X984472Y665057D01*
X986382Y666523D01*
X987848Y668433D01*
X988769Y670657D01*
X989083Y673045D01*
X988769Y675432D01*
X987848Y677656D01*
X986382Y679566D01*
X984472Y681032D01*
X982247Y681953D01*
X979861Y682267D01*
D02*
G37*
G36*
X903661D02*
X901273Y681953D01*
X899049Y681032D01*
X897139Y679566D01*
X895673Y677656D01*
X894752Y675432D01*
X894438Y673045D01*
X894752Y670657D01*
X895673Y668433D01*
X897139Y666523D01*
X899049Y665057D01*
X901273Y664136D01*
X903661Y663822D01*
X906048Y664136D01*
X908272Y665057D01*
X910182Y666523D01*
X911648Y668433D01*
X912569Y670657D01*
X912883Y673045D01*
X912569Y675432D01*
X911648Y677656D01*
X910182Y679566D01*
X908272Y681032D01*
X906048Y681953D01*
X903661Y682267D01*
D02*
G37*
G36*
X1380494Y671775D02*
X1371683D01*
Y662964D01*
X1373065Y663146D01*
X1375537Y664170D01*
X1377659Y665798D01*
X1379288Y667921D01*
X1380312Y670392D01*
X1380494Y671775D01*
D02*
G37*
G36*
X1369143D02*
X1360333D01*
X1360515Y670392D01*
X1361538Y667921D01*
X1363167Y665798D01*
X1365289Y664170D01*
X1367761Y663146D01*
X1369143Y662964D01*
Y671775D01*
D02*
G37*
G36*
X1080191D02*
X1071380D01*
X1071562Y670392D01*
X1072586Y667921D01*
X1074214Y665798D01*
X1076337Y664170D01*
X1078808Y663146D01*
X1080191Y662964D01*
Y671775D01*
D02*
G37*
G36*
X927791D02*
X918980D01*
X919162Y670392D01*
X920186Y667921D01*
X921814Y665798D01*
X923937Y664170D01*
X926408Y663146D01*
X927791Y662964D01*
Y671775D01*
D02*
G37*
G36*
X775252Y683902D02*
X772505Y683540D01*
X769945Y682480D01*
X767747Y680793D01*
X766060Y678594D01*
X764999Y676034D01*
X764638Y673287D01*
X764999Y670540D01*
X766060Y667980D01*
X767747Y665781D01*
X769945Y664094D01*
X772505Y663034D01*
X775252Y662672D01*
X778000Y663034D01*
X780560Y664094D01*
X782758Y665781D01*
X784445Y667980D01*
X785505Y670540D01*
X785867Y673287D01*
X785505Y676034D01*
X784445Y678594D01*
X782758Y680793D01*
X780560Y682480D01*
X778000Y683540D01*
X775252Y683902D01*
D02*
G37*
G36*
X708412D02*
X705665Y683540D01*
X703105Y682480D01*
X700906Y680793D01*
X699220Y678594D01*
X698159Y676034D01*
X697797Y673287D01*
X698159Y670540D01*
X699220Y667980D01*
X700906Y665781D01*
X703105Y664094D01*
X705665Y663034D01*
X708412Y662672D01*
X711160Y663034D01*
X713719Y664094D01*
X715918Y665781D01*
X717605Y667980D01*
X718665Y670540D01*
X719027Y673287D01*
X718665Y676034D01*
X717605Y678594D01*
X715918Y680793D01*
X713719Y682480D01*
X711160Y683540D01*
X708412Y683902D01*
D02*
G37*
G36*
X656733Y680126D02*
X654129Y679783D01*
X651703Y678778D01*
X649620Y677179D01*
X648021Y675096D01*
X647016Y672670D01*
X646673Y670066D01*
X647016Y667462D01*
X648021Y665036D01*
X649620Y662952D01*
X651703Y661354D01*
X654129Y660349D01*
X656733Y660006D01*
X659337Y660349D01*
X661763Y661354D01*
X663847Y662952D01*
X665445Y665036D01*
X666451Y667462D01*
X666793Y670066D01*
X666451Y672670D01*
X665445Y675096D01*
X663847Y677179D01*
X661763Y678778D01*
X659337Y679783D01*
X656733Y680126D01*
D02*
G37*
G36*
X854063Y667632D02*
X851838Y667339D01*
X849764Y666480D01*
X847984Y665114D01*
X846617Y663334D01*
X845758Y661260D01*
X845465Y659035D01*
X845758Y656809D01*
X846617Y654736D01*
X847984Y652955D01*
X849764Y651589D01*
X851838Y650730D01*
X854063Y650437D01*
X856288Y650730D01*
X858362Y651589D01*
X860142Y652955D01*
X861509Y654736D01*
X862368Y656809D01*
X862661Y659035D01*
X862368Y661260D01*
X861509Y663334D01*
X860142Y665114D01*
X858362Y666480D01*
X856288Y667339D01*
X854063Y667632D01*
D02*
G37*
G36*
X628333Y666321D02*
X625729Y665978D01*
X623303Y664973D01*
X621220Y663374D01*
X619621Y661291D01*
X618616Y658865D01*
X618273Y656261D01*
X618616Y653657D01*
X619621Y651231D01*
X621220Y649147D01*
X623303Y647549D01*
X625729Y646544D01*
X628333Y646201D01*
X630937Y646544D01*
X633363Y647549D01*
X635447Y649147D01*
X637046Y651231D01*
X638050Y653657D01*
X638393Y656261D01*
X638050Y658865D01*
X637046Y661291D01*
X635447Y663374D01*
X633363Y664973D01*
X630937Y665978D01*
X628333Y666321D01*
D02*
G37*
G36*
X775252Y658502D02*
X772505Y658140D01*
X769945Y657080D01*
X767747Y655393D01*
X766060Y653194D01*
X764999Y650634D01*
X764638Y647887D01*
X764999Y645140D01*
X766060Y642580D01*
X767747Y640381D01*
X769945Y638694D01*
X772505Y637634D01*
X775252Y637272D01*
X778000Y637634D01*
X780560Y638694D01*
X782758Y640381D01*
X784445Y642580D01*
X785505Y645140D01*
X785867Y647887D01*
X785505Y650634D01*
X784445Y653194D01*
X782758Y655393D01*
X780560Y657080D01*
X778000Y658140D01*
X775252Y658502D01*
D02*
G37*
G36*
X708412D02*
X705665Y658140D01*
X703105Y657080D01*
X700906Y655393D01*
X699220Y653194D01*
X698159Y650634D01*
X697797Y647887D01*
X698159Y645140D01*
X699220Y642580D01*
X700906Y640381D01*
X703105Y638694D01*
X705665Y637634D01*
X708412Y637272D01*
X711160Y637634D01*
X713719Y638694D01*
X715918Y640381D01*
X717605Y642580D01*
X718665Y645140D01*
X719027Y647887D01*
X718665Y650634D01*
X717605Y653194D01*
X715918Y655393D01*
X713719Y657080D01*
X711160Y658140D01*
X708412Y658502D01*
D02*
G37*
G36*
X656733Y652516D02*
X654129Y652173D01*
X651703Y651168D01*
X649620Y649569D01*
X648021Y647486D01*
X647016Y645060D01*
X646673Y642456D01*
X647016Y639852D01*
X648021Y637426D01*
X649620Y635342D01*
X651703Y633744D01*
X654129Y632738D01*
X656733Y632396D01*
X659337Y632738D01*
X661763Y633744D01*
X663847Y635342D01*
X665445Y637426D01*
X666451Y639852D01*
X666793Y642456D01*
X666451Y645060D01*
X665445Y647486D01*
X663847Y649569D01*
X661763Y651168D01*
X659337Y652173D01*
X656733Y652516D01*
D02*
G37*
G36*
X854063Y643502D02*
X851838Y643209D01*
X849764Y642350D01*
X847984Y640984D01*
X846617Y639203D01*
X845758Y637130D01*
X845465Y634905D01*
X845758Y632679D01*
X846617Y630606D01*
X847984Y628825D01*
X849764Y627459D01*
X851838Y626600D01*
X854063Y626307D01*
X856288Y626600D01*
X858362Y627459D01*
X860142Y628825D01*
X861509Y630606D01*
X862368Y632679D01*
X862661Y634905D01*
X862368Y637130D01*
X861509Y639203D01*
X860142Y640984D01*
X858362Y642350D01*
X856288Y643209D01*
X854063Y643502D01*
D02*
G37*
G36*
X628333Y638711D02*
X625729Y638368D01*
X623303Y637363D01*
X621220Y635764D01*
X619621Y633681D01*
X618616Y631255D01*
X618273Y628651D01*
X618616Y626047D01*
X619621Y623621D01*
X621220Y621537D01*
X623303Y619939D01*
X625729Y618933D01*
X628333Y618591D01*
X630937Y618933D01*
X633363Y619939D01*
X635447Y621537D01*
X637046Y623621D01*
X638050Y626047D01*
X638393Y628651D01*
X638050Y631255D01*
X637046Y633681D01*
X635447Y635764D01*
X633363Y637363D01*
X630937Y638368D01*
X628333Y638711D01*
D02*
G37*
G36*
X992757Y632156D02*
X990401Y631846D01*
X988206Y630937D01*
X986321Y629491D01*
X984874Y627606D01*
X983965Y625410D01*
X983655Y623055D01*
X983965Y620699D01*
X984874Y618504D01*
X986321Y616619D01*
X988206Y615172D01*
X990401Y614263D01*
X992757Y613953D01*
X995113Y614263D01*
X997308Y615172D01*
X999193Y616619D01*
X1000639Y618504D01*
X1001549Y620699D01*
X1001859Y623055D01*
X1001549Y625410D01*
X1000639Y627606D01*
X999193Y629491D01*
X997308Y630937D01*
X995113Y631846D01*
X992757Y632156D01*
D02*
G37*
G36*
X775252Y633102D02*
X772505Y632740D01*
X769945Y631680D01*
X767747Y629993D01*
X766060Y627794D01*
X764999Y625234D01*
X764638Y622487D01*
X764999Y619740D01*
X766060Y617180D01*
X767747Y614981D01*
X769945Y613294D01*
X772505Y612234D01*
X775252Y611872D01*
X778000Y612234D01*
X780560Y613294D01*
X782758Y614981D01*
X784445Y617180D01*
X785505Y619740D01*
X785867Y622487D01*
X785505Y625234D01*
X784445Y627794D01*
X782758Y629993D01*
X780560Y631680D01*
X778000Y632740D01*
X775252Y633102D01*
D02*
G37*
G36*
X708412D02*
X705665Y632740D01*
X703105Y631680D01*
X700906Y629993D01*
X699220Y627794D01*
X698159Y625234D01*
X697797Y622487D01*
X698159Y619740D01*
X699220Y617180D01*
X700906Y614981D01*
X703105Y613294D01*
X705665Y612234D01*
X708412Y611872D01*
X711160Y612234D01*
X713719Y613294D01*
X715918Y614981D01*
X717605Y617180D01*
X718665Y619740D01*
X719027Y622487D01*
X718665Y625234D01*
X717605Y627794D01*
X715918Y629993D01*
X713719Y631680D01*
X711160Y632740D01*
X708412Y633102D01*
D02*
G37*
G36*
X656733Y624906D02*
X654129Y624563D01*
X651703Y623558D01*
X649620Y621959D01*
X648021Y619876D01*
X647016Y617449D01*
X646673Y614846D01*
X647016Y612242D01*
X648021Y609816D01*
X649620Y607732D01*
X651703Y606133D01*
X654129Y605129D01*
X656733Y604786D01*
X659337Y605129D01*
X661763Y606133D01*
X663847Y607732D01*
X665445Y609816D01*
X666451Y612242D01*
X666793Y614846D01*
X666451Y617449D01*
X665445Y619876D01*
X663847Y621959D01*
X661763Y623558D01*
X659337Y624563D01*
X656733Y624906D01*
D02*
G37*
G36*
X854063Y618102D02*
X851838Y617809D01*
X849764Y616950D01*
X847984Y615584D01*
X846617Y613803D01*
X845758Y611730D01*
X845465Y609505D01*
X845758Y607280D01*
X846617Y605206D01*
X847984Y603425D01*
X849764Y602059D01*
X851838Y601200D01*
X854063Y600907D01*
X856288Y601200D01*
X858362Y602059D01*
X860142Y603425D01*
X861509Y605206D01*
X862368Y607280D01*
X862661Y609505D01*
X862368Y611730D01*
X861509Y613803D01*
X860142Y615584D01*
X858362Y616950D01*
X856288Y617809D01*
X854063Y618102D01*
D02*
G37*
G36*
X628333Y611101D02*
X625729Y610758D01*
X623303Y609753D01*
X621220Y608154D01*
X619621Y606071D01*
X618616Y603644D01*
X618273Y601041D01*
X618616Y598437D01*
X619621Y596011D01*
X621220Y593927D01*
X623303Y592328D01*
X625729Y591324D01*
X628333Y590981D01*
X630937Y591324D01*
X633363Y592328D01*
X635447Y593927D01*
X637046Y596011D01*
X638050Y598437D01*
X638393Y601041D01*
X638050Y603644D01*
X637046Y606071D01*
X635447Y608154D01*
X633363Y609753D01*
X630937Y610758D01*
X628333Y611101D01*
D02*
G37*
G36*
X775252Y607702D02*
X772505Y607340D01*
X769945Y606280D01*
X767747Y604593D01*
X766060Y602394D01*
X764999Y599834D01*
X764638Y597087D01*
X764999Y594340D01*
X766060Y591780D01*
X767747Y589581D01*
X769945Y587894D01*
X772505Y586834D01*
X775252Y586472D01*
X778000Y586834D01*
X780560Y587894D01*
X782758Y589581D01*
X784445Y591780D01*
X785505Y594340D01*
X785867Y597087D01*
X785505Y599834D01*
X784445Y602394D01*
X782758Y604593D01*
X780560Y606280D01*
X778000Y607340D01*
X775252Y607702D01*
D02*
G37*
G36*
X708412D02*
X705665Y607340D01*
X703105Y606280D01*
X700906Y604593D01*
X699220Y602394D01*
X698159Y599834D01*
X697797Y597087D01*
X698159Y594340D01*
X699220Y591780D01*
X700906Y589581D01*
X703105Y587894D01*
X705665Y586834D01*
X708412Y586472D01*
X711160Y586834D01*
X713719Y587894D01*
X715918Y589581D01*
X717605Y591780D01*
X718665Y594340D01*
X719027Y597087D01*
X718665Y599834D01*
X717605Y602394D01*
X715918Y604593D01*
X713719Y606280D01*
X711160Y607340D01*
X708412Y607702D01*
D02*
G37*
G36*
X656733Y597296D02*
X654129Y596953D01*
X651703Y595948D01*
X649620Y594349D01*
X648021Y592266D01*
X647016Y589840D01*
X646673Y587236D01*
X647016Y584632D01*
X648021Y582206D01*
X649620Y580122D01*
X651703Y578523D01*
X654129Y577519D01*
X656733Y577176D01*
X659337Y577519D01*
X661763Y578523D01*
X663847Y580122D01*
X665445Y582206D01*
X666451Y584632D01*
X666793Y587236D01*
X666451Y589840D01*
X665445Y592266D01*
X663847Y594349D01*
X661763Y595948D01*
X659337Y596953D01*
X656733Y597296D01*
D02*
G37*
G36*
X862587Y592629D02*
X845539D01*
Y575581D01*
X862587D01*
Y592629D01*
D02*
G37*
G36*
X628333Y583491D02*
X625729Y583148D01*
X623303Y582143D01*
X621220Y580544D01*
X619621Y578461D01*
X618616Y576035D01*
X618273Y573431D01*
X618616Y570827D01*
X619621Y568401D01*
X621220Y566317D01*
X623303Y564719D01*
X625729Y563714D01*
X628333Y563371D01*
X630937Y563714D01*
X633363Y564719D01*
X635447Y566317D01*
X637046Y568401D01*
X638050Y570827D01*
X638393Y573431D01*
X638050Y576035D01*
X637046Y578461D01*
X635447Y580544D01*
X633363Y582143D01*
X630937Y583148D01*
X628333Y583491D01*
D02*
G37*
G36*
X785776Y582211D02*
X764728D01*
Y561163D01*
X785776D01*
Y582211D01*
D02*
G37*
G36*
X718936D02*
X697888D01*
Y561163D01*
X718936D01*
Y582211D01*
D02*
G37*
G36*
X656733Y569686D02*
X654129Y569343D01*
X651703Y568338D01*
X649620Y566739D01*
X648021Y564656D01*
X647016Y562229D01*
X646673Y559626D01*
X647016Y557022D01*
X648021Y554596D01*
X649620Y552512D01*
X651703Y550914D01*
X654129Y549909D01*
X656733Y549566D01*
X659337Y549909D01*
X661763Y550914D01*
X663847Y552512D01*
X665445Y554596D01*
X666451Y557022D01*
X666793Y559626D01*
X666451Y562229D01*
X665445Y564656D01*
X663847Y566739D01*
X661763Y568338D01*
X659337Y569343D01*
X656733Y569686D01*
D02*
G37*
G36*
X1370413Y555267D02*
X1368026Y554953D01*
X1365802Y554032D01*
X1363891Y552566D01*
X1362426Y550656D01*
X1361505Y548432D01*
X1361190Y546045D01*
X1361505Y543657D01*
X1362426Y541433D01*
X1363891Y539523D01*
X1365802Y538057D01*
X1368026Y537136D01*
X1370413Y536822D01*
X1372800Y537136D01*
X1375025Y538057D01*
X1376935Y539523D01*
X1378400Y541433D01*
X1379322Y543657D01*
X1379636Y546045D01*
X1379322Y548432D01*
X1378400Y550656D01*
X1376935Y552566D01*
X1375025Y554032D01*
X1372800Y554953D01*
X1370413Y555267D01*
D02*
G37*
G36*
X1345013D02*
X1342626Y554953D01*
X1340402Y554032D01*
X1338492Y552566D01*
X1337026Y550656D01*
X1336104Y548432D01*
X1335790Y546045D01*
X1336104Y543657D01*
X1337026Y541433D01*
X1338492Y539523D01*
X1340402Y538057D01*
X1342626Y537136D01*
X1345013Y536822D01*
X1347400Y537136D01*
X1349625Y538057D01*
X1351535Y539523D01*
X1353000Y541433D01*
X1353922Y543657D01*
X1354236Y546045D01*
X1353922Y548432D01*
X1353000Y550656D01*
X1351535Y552566D01*
X1349625Y554032D01*
X1347400Y554953D01*
X1345013Y555267D01*
D02*
G37*
G36*
X1319613D02*
X1317226Y554953D01*
X1315002Y554032D01*
X1313091Y552566D01*
X1311626Y550656D01*
X1310704Y548432D01*
X1310390Y546045D01*
X1310704Y543657D01*
X1311626Y541433D01*
X1313091Y539523D01*
X1315002Y538057D01*
X1317226Y537136D01*
X1319613Y536822D01*
X1322000Y537136D01*
X1324225Y538057D01*
X1326135Y539523D01*
X1327600Y541433D01*
X1328522Y543657D01*
X1328836Y546045D01*
X1328522Y548432D01*
X1327600Y550656D01*
X1326135Y552566D01*
X1324225Y554032D01*
X1322000Y554953D01*
X1319613Y555267D01*
D02*
G37*
G36*
X1294213D02*
X1291826Y554953D01*
X1289602Y554032D01*
X1287691Y552566D01*
X1286226Y550656D01*
X1285305Y548432D01*
X1284990Y546045D01*
X1285305Y543657D01*
X1286226Y541433D01*
X1287691Y539523D01*
X1289602Y538057D01*
X1291826Y537136D01*
X1294213Y536822D01*
X1296600Y537136D01*
X1298825Y538057D01*
X1300735Y539523D01*
X1302200Y541433D01*
X1303122Y543657D01*
X1303436Y546045D01*
X1303122Y548432D01*
X1302200Y550656D01*
X1300735Y552566D01*
X1298825Y554032D01*
X1296600Y554953D01*
X1294213Y555267D01*
D02*
G37*
G36*
X1268813D02*
X1266426Y554953D01*
X1264202Y554032D01*
X1262291Y552566D01*
X1260826Y550656D01*
X1259904Y548432D01*
X1259590Y546045D01*
X1259904Y543657D01*
X1260826Y541433D01*
X1262291Y539523D01*
X1264202Y538057D01*
X1266426Y537136D01*
X1268813Y536822D01*
X1271200Y537136D01*
X1273425Y538057D01*
X1275335Y539523D01*
X1276800Y541433D01*
X1277722Y543657D01*
X1278036Y546045D01*
X1277722Y548432D01*
X1276800Y550656D01*
X1275335Y552566D01*
X1273425Y554032D01*
X1271200Y554953D01*
X1268813Y555267D01*
D02*
G37*
G36*
X1243413D02*
X1241026Y554953D01*
X1238802Y554032D01*
X1236891Y552566D01*
X1235426Y550656D01*
X1234504Y548432D01*
X1234190Y546045D01*
X1234504Y543657D01*
X1235426Y541433D01*
X1236891Y539523D01*
X1238802Y538057D01*
X1241026Y537136D01*
X1243413Y536822D01*
X1245800Y537136D01*
X1248025Y538057D01*
X1249935Y539523D01*
X1251400Y541433D01*
X1252322Y543657D01*
X1252636Y546045D01*
X1252322Y548432D01*
X1251400Y550656D01*
X1249935Y552566D01*
X1248025Y554032D01*
X1245800Y554953D01*
X1243413Y555267D01*
D02*
G37*
G36*
X628333Y555881D02*
X625729Y555538D01*
X623303Y554533D01*
X621220Y552934D01*
X619621Y550851D01*
X618616Y548424D01*
X618273Y545821D01*
X618616Y543217D01*
X619621Y540791D01*
X621220Y538707D01*
X623303Y537109D01*
X625729Y536104D01*
X628333Y535761D01*
X630937Y536104D01*
X633363Y537109D01*
X635447Y538707D01*
X637046Y540791D01*
X638050Y543217D01*
X638393Y545821D01*
X638050Y548424D01*
X637046Y550851D01*
X635447Y552934D01*
X633363Y554533D01*
X630937Y555538D01*
X628333Y555881D01*
D02*
G37*
G36*
X656733Y542076D02*
X654129Y541733D01*
X651703Y540728D01*
X649620Y539129D01*
X648021Y537046D01*
X647016Y534619D01*
X646673Y532016D01*
X647016Y529412D01*
X648021Y526986D01*
X649620Y524902D01*
X651703Y523304D01*
X654129Y522299D01*
X656733Y521956D01*
X659337Y522299D01*
X661763Y523304D01*
X663847Y524902D01*
X665445Y526986D01*
X666451Y529412D01*
X666793Y532016D01*
X666451Y534619D01*
X665445Y537046D01*
X663847Y539129D01*
X661763Y540728D01*
X659337Y541733D01*
X656733Y542076D01*
D02*
G37*
G36*
X686348Y516950D02*
Y509421D01*
X693878D01*
X693739Y510471D01*
X692844Y512634D01*
X691419Y514491D01*
X689562Y515916D01*
X687399Y516812D01*
X686348Y516950D01*
D02*
G37*
G36*
X683808D02*
X682757Y516812D01*
X680595Y515916D01*
X678738Y514491D01*
X677313Y512634D01*
X676417Y510471D01*
X676279Y509421D01*
X683808D01*
Y516950D01*
D02*
G37*
G36*
X628333Y528271D02*
X625729Y527928D01*
X623303Y526923D01*
X621220Y525324D01*
X619621Y523241D01*
X618616Y520815D01*
X618273Y518211D01*
X618616Y515607D01*
X619621Y513181D01*
X621220Y511097D01*
X623303Y509498D01*
X625729Y508493D01*
X628333Y508151D01*
X630937Y508493D01*
X633363Y509498D01*
X635447Y511097D01*
X637046Y513181D01*
X638050Y515607D01*
X638393Y518211D01*
X638050Y520815D01*
X637046Y523241D01*
X635447Y525324D01*
X633363Y526923D01*
X630937Y527928D01*
X628333Y528271D01*
D02*
G37*
G36*
X693878Y506881D02*
X686348D01*
Y499351D01*
X687399Y499490D01*
X689562Y500385D01*
X691419Y501810D01*
X692844Y503667D01*
X693739Y505830D01*
X693878Y506881D01*
D02*
G37*
G36*
X683808D02*
X676279D01*
X676417Y505830D01*
X677313Y503667D01*
X678738Y501810D01*
X680595Y500385D01*
X682757Y499490D01*
X683808Y499351D01*
Y506881D01*
D02*
G37*
G36*
X656733Y514466D02*
X654129Y514123D01*
X651703Y513118D01*
X649620Y511519D01*
X648021Y509436D01*
X647016Y507010D01*
X646673Y504406D01*
X647016Y501802D01*
X648021Y499376D01*
X649620Y497292D01*
X651703Y495694D01*
X654129Y494688D01*
X656733Y494346D01*
X659337Y494688D01*
X661763Y495694D01*
X663847Y497292D01*
X665445Y499376D01*
X666451Y501802D01*
X666793Y504406D01*
X666451Y507010D01*
X665445Y509436D01*
X663847Y511519D01*
X661763Y513118D01*
X659337Y514123D01*
X656733Y514466D01*
D02*
G37*
G36*
X628333Y500661D02*
X625729Y500318D01*
X623303Y499313D01*
X621220Y497714D01*
X619621Y495631D01*
X618616Y493204D01*
X618273Y490601D01*
X618616Y487997D01*
X619621Y485571D01*
X621220Y483487D01*
X623303Y481889D01*
X625729Y480883D01*
X628333Y480541D01*
X630937Y480883D01*
X633363Y481889D01*
X635447Y483487D01*
X637046Y485571D01*
X638050Y487997D01*
X638393Y490601D01*
X638050Y493204D01*
X637046Y495631D01*
X635447Y497714D01*
X633363Y499313D01*
X630937Y500318D01*
X628333Y500661D01*
D02*
G37*
G36*
X1359034Y494164D02*
X1340986D01*
Y476116D01*
X1359034D01*
Y494164D01*
D02*
G37*
G36*
X1181234D02*
X1163186D01*
Y476116D01*
X1181234D01*
Y494164D01*
D02*
G37*
G36*
X1324610Y494242D02*
X1322254Y493932D01*
X1320059Y493022D01*
X1318174Y491576D01*
X1316728Y489691D01*
X1315818Y487496D01*
X1315508Y485140D01*
X1315818Y482784D01*
X1316728Y480589D01*
X1318174Y478704D01*
X1320059Y477258D01*
X1322254Y476348D01*
X1324610Y476038D01*
X1326966Y476348D01*
X1329161Y477258D01*
X1331046Y478704D01*
X1332492Y480589D01*
X1333402Y482784D01*
X1333712Y485140D01*
X1333402Y487496D01*
X1332492Y489691D01*
X1331046Y491576D01*
X1329161Y493022D01*
X1326966Y493932D01*
X1324610Y494242D01*
D02*
G37*
G36*
X1299210D02*
X1296854Y493932D01*
X1294659Y493022D01*
X1292774Y491576D01*
X1291328Y489691D01*
X1290418Y487496D01*
X1290108Y485140D01*
X1290418Y482784D01*
X1291328Y480589D01*
X1292774Y478704D01*
X1294659Y477258D01*
X1296854Y476348D01*
X1299210Y476038D01*
X1301566Y476348D01*
X1303761Y477258D01*
X1305646Y478704D01*
X1307092Y480589D01*
X1308002Y482784D01*
X1308312Y485140D01*
X1308002Y487496D01*
X1307092Y489691D01*
X1305646Y491576D01*
X1303761Y493022D01*
X1301566Y493932D01*
X1299210Y494242D01*
D02*
G37*
G36*
X1273810D02*
X1271454Y493932D01*
X1269259Y493022D01*
X1267374Y491576D01*
X1265928Y489691D01*
X1265018Y487496D01*
X1264708Y485140D01*
X1265018Y482784D01*
X1265928Y480589D01*
X1267374Y478704D01*
X1269259Y477258D01*
X1271454Y476348D01*
X1273810Y476038D01*
X1276166Y476348D01*
X1278361Y477258D01*
X1280246Y478704D01*
X1281692Y480589D01*
X1282602Y482784D01*
X1282912Y485140D01*
X1282602Y487496D01*
X1281692Y489691D01*
X1280246Y491576D01*
X1278361Y493022D01*
X1276166Y493932D01*
X1273810Y494242D01*
D02*
G37*
G36*
X1248410D02*
X1246054Y493932D01*
X1243859Y493022D01*
X1241974Y491576D01*
X1240528Y489691D01*
X1239618Y487496D01*
X1239308Y485140D01*
X1239618Y482784D01*
X1240528Y480589D01*
X1241974Y478704D01*
X1243859Y477258D01*
X1246054Y476348D01*
X1248410Y476038D01*
X1250766Y476348D01*
X1252961Y477258D01*
X1254846Y478704D01*
X1256292Y480589D01*
X1257202Y482784D01*
X1257512Y485140D01*
X1257202Y487496D01*
X1256292Y489691D01*
X1254846Y491576D01*
X1252961Y493022D01*
X1250766Y493932D01*
X1248410Y494242D01*
D02*
G37*
G36*
X1223010D02*
X1220654Y493932D01*
X1218459Y493022D01*
X1216574Y491576D01*
X1215128Y489691D01*
X1214218Y487496D01*
X1213908Y485140D01*
X1214218Y482784D01*
X1215128Y480589D01*
X1216574Y478704D01*
X1218459Y477258D01*
X1220654Y476348D01*
X1223010Y476038D01*
X1225366Y476348D01*
X1227561Y477258D01*
X1229446Y478704D01*
X1230892Y480589D01*
X1231802Y482784D01*
X1232112Y485140D01*
X1231802Y487496D01*
X1230892Y489691D01*
X1229446Y491576D01*
X1227561Y493022D01*
X1225366Y493932D01*
X1223010Y494242D01*
D02*
G37*
G36*
X1146810D02*
X1144454Y493932D01*
X1142259Y493022D01*
X1140374Y491576D01*
X1138928Y489691D01*
X1138018Y487496D01*
X1137708Y485140D01*
X1138018Y482784D01*
X1138928Y480589D01*
X1140374Y478704D01*
X1142259Y477258D01*
X1144454Y476348D01*
X1146810Y476038D01*
X1149166Y476348D01*
X1151361Y477258D01*
X1153246Y478704D01*
X1154692Y480589D01*
X1155602Y482784D01*
X1155912Y485140D01*
X1155602Y487496D01*
X1154692Y489691D01*
X1153246Y491576D01*
X1151361Y493022D01*
X1149166Y493932D01*
X1146810Y494242D01*
D02*
G37*
G36*
X1121410D02*
X1119054Y493932D01*
X1116859Y493022D01*
X1114974Y491576D01*
X1113528Y489691D01*
X1112618Y487496D01*
X1112308Y485140D01*
X1112618Y482784D01*
X1113528Y480589D01*
X1114974Y478704D01*
X1116859Y477258D01*
X1119054Y476348D01*
X1121410Y476038D01*
X1123766Y476348D01*
X1125961Y477258D01*
X1127846Y478704D01*
X1129292Y480589D01*
X1130202Y482784D01*
X1130512Y485140D01*
X1130202Y487496D01*
X1129292Y489691D01*
X1127846Y491576D01*
X1125961Y493022D01*
X1123766Y493932D01*
X1121410Y494242D01*
D02*
G37*
G36*
X1096010D02*
X1093654Y493932D01*
X1091459Y493022D01*
X1089574Y491576D01*
X1088128Y489691D01*
X1087218Y487496D01*
X1086908Y485140D01*
X1087218Y482784D01*
X1088128Y480589D01*
X1089574Y478704D01*
X1091459Y477258D01*
X1093654Y476348D01*
X1096010Y476038D01*
X1098366Y476348D01*
X1100561Y477258D01*
X1102446Y478704D01*
X1103892Y480589D01*
X1104802Y482784D01*
X1105112Y485140D01*
X1104802Y487496D01*
X1103892Y489691D01*
X1102446Y491576D01*
X1100561Y493022D01*
X1098366Y493932D01*
X1096010Y494242D01*
D02*
G37*
G36*
X666707Y486770D02*
X646759D01*
Y466822D01*
X666707D01*
Y486770D01*
D02*
G37*
G36*
X1148080Y469699D02*
Y461010D01*
X1156769D01*
X1156592Y462361D01*
X1155580Y464803D01*
X1153971Y466901D01*
X1151873Y468510D01*
X1149431Y469522D01*
X1148080Y469699D01*
D02*
G37*
G36*
X1122680D02*
Y461010D01*
X1131369D01*
X1131192Y462361D01*
X1130180Y464803D01*
X1128571Y466901D01*
X1126473Y468510D01*
X1124031Y469522D01*
X1122680Y469699D01*
D02*
G37*
G36*
X1145540D02*
X1144189Y469522D01*
X1141747Y468510D01*
X1139649Y466901D01*
X1138040Y464803D01*
X1137028Y462361D01*
X1136851Y461010D01*
X1145540D01*
Y469699D01*
D02*
G37*
G36*
X1120140D02*
X1118789Y469522D01*
X1116347Y468510D01*
X1114249Y466901D01*
X1112640Y464803D01*
X1111628Y462361D01*
X1111451Y461010D01*
X1120140D01*
Y469699D01*
D02*
G37*
G36*
X1359034Y468764D02*
X1340986D01*
Y450716D01*
X1359034D01*
Y468764D01*
D02*
G37*
G36*
X1181234D02*
X1163186D01*
Y450716D01*
X1181234D01*
Y468764D01*
D02*
G37*
G36*
X1324610Y468842D02*
X1322254Y468532D01*
X1320059Y467622D01*
X1318174Y466176D01*
X1316728Y464291D01*
X1315818Y462096D01*
X1315508Y459740D01*
X1315818Y457384D01*
X1316728Y455189D01*
X1318174Y453304D01*
X1320059Y451858D01*
X1322254Y450948D01*
X1324610Y450638D01*
X1326966Y450948D01*
X1329161Y451858D01*
X1331046Y453304D01*
X1332492Y455189D01*
X1333402Y457384D01*
X1333712Y459740D01*
X1333402Y462096D01*
X1332492Y464291D01*
X1331046Y466176D01*
X1329161Y467622D01*
X1326966Y468532D01*
X1324610Y468842D01*
D02*
G37*
G36*
X1299210D02*
X1296854Y468532D01*
X1294659Y467622D01*
X1292774Y466176D01*
X1291328Y464291D01*
X1290418Y462096D01*
X1290108Y459740D01*
X1290418Y457384D01*
X1291328Y455189D01*
X1292774Y453304D01*
X1294659Y451858D01*
X1296854Y450948D01*
X1299210Y450638D01*
X1301566Y450948D01*
X1303761Y451858D01*
X1305646Y453304D01*
X1307092Y455189D01*
X1308002Y457384D01*
X1308312Y459740D01*
X1308002Y462096D01*
X1307092Y464291D01*
X1305646Y466176D01*
X1303761Y467622D01*
X1301566Y468532D01*
X1299210Y468842D01*
D02*
G37*
G36*
X1273810D02*
X1271454Y468532D01*
X1269259Y467622D01*
X1267374Y466176D01*
X1265928Y464291D01*
X1265018Y462096D01*
X1264708Y459740D01*
X1265018Y457384D01*
X1265928Y455189D01*
X1267374Y453304D01*
X1269259Y451858D01*
X1271454Y450948D01*
X1273810Y450638D01*
X1276166Y450948D01*
X1278361Y451858D01*
X1280246Y453304D01*
X1281692Y455189D01*
X1282602Y457384D01*
X1282912Y459740D01*
X1282602Y462096D01*
X1281692Y464291D01*
X1280246Y466176D01*
X1278361Y467622D01*
X1276166Y468532D01*
X1273810Y468842D01*
D02*
G37*
G36*
X1248410D02*
X1246054Y468532D01*
X1243859Y467622D01*
X1241974Y466176D01*
X1240528Y464291D01*
X1239618Y462096D01*
X1239308Y459740D01*
X1239618Y457384D01*
X1240528Y455189D01*
X1241974Y453304D01*
X1243859Y451858D01*
X1246054Y450948D01*
X1248410Y450638D01*
X1250766Y450948D01*
X1252961Y451858D01*
X1254846Y453304D01*
X1256292Y455189D01*
X1257202Y457384D01*
X1257512Y459740D01*
X1257202Y462096D01*
X1256292Y464291D01*
X1254846Y466176D01*
X1252961Y467622D01*
X1250766Y468532D01*
X1248410Y468842D01*
D02*
G37*
G36*
X1223010D02*
X1220654Y468532D01*
X1218459Y467622D01*
X1216574Y466176D01*
X1215128Y464291D01*
X1214218Y462096D01*
X1213908Y459740D01*
X1214218Y457384D01*
X1215128Y455189D01*
X1216574Y453304D01*
X1218459Y451858D01*
X1220654Y450948D01*
X1223010Y450638D01*
X1225366Y450948D01*
X1227561Y451858D01*
X1229446Y453304D01*
X1230892Y455189D01*
X1231802Y457384D01*
X1232112Y459740D01*
X1231802Y462096D01*
X1230892Y464291D01*
X1229446Y466176D01*
X1227561Y467622D01*
X1225366Y468532D01*
X1223010Y468842D01*
D02*
G37*
G36*
X1096010D02*
X1093654Y468532D01*
X1091459Y467622D01*
X1089574Y466176D01*
X1088128Y464291D01*
X1087218Y462096D01*
X1086908Y459740D01*
X1087218Y457384D01*
X1088128Y455189D01*
X1089574Y453304D01*
X1091459Y451858D01*
X1093654Y450948D01*
X1096010Y450638D01*
X1098366Y450948D01*
X1100561Y451858D01*
X1102446Y453304D01*
X1103892Y455189D01*
X1104802Y457384D01*
X1105112Y459740D01*
X1104802Y462096D01*
X1103892Y464291D01*
X1102446Y466176D01*
X1100561Y467622D01*
X1098366Y468532D01*
X1096010Y468842D01*
D02*
G37*
G36*
X1070610D02*
X1068254Y468532D01*
X1066059Y467622D01*
X1064174Y466176D01*
X1062728Y464291D01*
X1061818Y462096D01*
X1061508Y459740D01*
X1061818Y457384D01*
X1062728Y455189D01*
X1064174Y453304D01*
X1066059Y451858D01*
X1068254Y450948D01*
X1070610Y450638D01*
X1072966Y450948D01*
X1075161Y451858D01*
X1077046Y453304D01*
X1078492Y455189D01*
X1079402Y457384D01*
X1079712Y459740D01*
X1079402Y462096D01*
X1078492Y464291D01*
X1077046Y466176D01*
X1075161Y467622D01*
X1072966Y468532D01*
X1070610Y468842D01*
D02*
G37*
G36*
X1045210D02*
X1042854Y468532D01*
X1040659Y467622D01*
X1038774Y466176D01*
X1037328Y464291D01*
X1036418Y462096D01*
X1036108Y459740D01*
X1036418Y457384D01*
X1037328Y455189D01*
X1038774Y453304D01*
X1040659Y451858D01*
X1042854Y450948D01*
X1045210Y450638D01*
X1047566Y450948D01*
X1049761Y451858D01*
X1051646Y453304D01*
X1053092Y455189D01*
X1054002Y457384D01*
X1054312Y459740D01*
X1054002Y462096D01*
X1053092Y464291D01*
X1051646Y466176D01*
X1049761Y467622D01*
X1047566Y468532D01*
X1045210Y468842D01*
D02*
G37*
G36*
X1019810D02*
X1017454Y468532D01*
X1015259Y467622D01*
X1013374Y466176D01*
X1011928Y464291D01*
X1011018Y462096D01*
X1010708Y459740D01*
X1011018Y457384D01*
X1011928Y455189D01*
X1013374Y453304D01*
X1015259Y451858D01*
X1017454Y450948D01*
X1019810Y450638D01*
X1022166Y450948D01*
X1024361Y451858D01*
X1026246Y453304D01*
X1027692Y455189D01*
X1028602Y457384D01*
X1028912Y459740D01*
X1028602Y462096D01*
X1027692Y464291D01*
X1026246Y466176D01*
X1024361Y467622D01*
X1022166Y468532D01*
X1019810Y468842D01*
D02*
G37*
G36*
X994410D02*
X992054Y468532D01*
X989859Y467622D01*
X987974Y466176D01*
X986528Y464291D01*
X985618Y462096D01*
X985308Y459740D01*
X985618Y457384D01*
X986528Y455189D01*
X987974Y453304D01*
X989859Y451858D01*
X992054Y450948D01*
X994410Y450638D01*
X996766Y450948D01*
X998961Y451858D01*
X1000846Y453304D01*
X1002292Y455189D01*
X1003202Y457384D01*
X1003512Y459740D01*
X1003202Y462096D01*
X1002292Y464291D01*
X1000846Y466176D01*
X998961Y467622D01*
X996766Y468532D01*
X994410Y468842D01*
D02*
G37*
G36*
X1156769Y458470D02*
X1148080D01*
Y449781D01*
X1149431Y449958D01*
X1151873Y450970D01*
X1153971Y452579D01*
X1155580Y454677D01*
X1156592Y457119D01*
X1156769Y458470D01*
D02*
G37*
G36*
X1131369D02*
X1122680D01*
Y449781D01*
X1124031Y449958D01*
X1126473Y450970D01*
X1128571Y452579D01*
X1130180Y454677D01*
X1131192Y457119D01*
X1131369Y458470D01*
D02*
G37*
G36*
X1145540D02*
X1136851D01*
X1137028Y457119D01*
X1138040Y454677D01*
X1139649Y452579D01*
X1141747Y450970D01*
X1144189Y449958D01*
X1145540Y449781D01*
Y458470D01*
D02*
G37*
G36*
X1120140D02*
X1111451D01*
X1111628Y457119D01*
X1112640Y454677D01*
X1114249Y452579D01*
X1116347Y450970D01*
X1118789Y449958D01*
X1120140Y449781D01*
Y458470D01*
D02*
G37*
G36*
X883450Y439219D02*
Y419974D01*
X902694D01*
X902422Y422731D01*
X901248Y426603D01*
X899341Y430171D01*
X896774Y433298D01*
X893646Y435865D01*
X890078Y437773D01*
X886206Y438947D01*
X883450Y439219D01*
D02*
G37*
G36*
X880910D02*
X878153Y438947D01*
X874281Y437773D01*
X870713Y435865D01*
X867585Y433298D01*
X865019Y430171D01*
X863111Y426603D01*
X861937Y422731D01*
X861665Y419974D01*
X880910D01*
Y439219D01*
D02*
G37*
G36*
X791214Y438228D02*
X752166D01*
Y399180D01*
X791214D01*
Y438228D01*
D02*
G37*
G36*
X902694Y417434D02*
X883450D01*
Y398190D01*
X886206Y398461D01*
X890078Y399636D01*
X893646Y401543D01*
X896774Y404110D01*
X899341Y407238D01*
X901248Y410806D01*
X902422Y414678D01*
X902694Y417434D01*
D02*
G37*
G36*
X880910D02*
X861665D01*
X861937Y414678D01*
X863111Y410806D01*
X865019Y407238D01*
X867585Y404110D01*
X870713Y401543D01*
X874281Y399636D01*
X878153Y398461D01*
X880910Y398190D01*
Y417434D01*
D02*
G37*
G36*
X1304618Y404291D02*
X1283570D01*
Y383243D01*
X1304618D01*
Y404291D01*
D02*
G37*
G36*
X1268694Y404382D02*
X1265947Y404021D01*
X1263387Y402960D01*
X1261188Y401273D01*
X1259501Y399075D01*
X1258441Y396515D01*
X1258079Y393767D01*
X1258441Y391020D01*
X1259501Y388460D01*
X1261188Y386262D01*
X1263387Y384575D01*
X1265947Y383514D01*
X1268694Y383153D01*
X1271441Y383514D01*
X1274001Y384575D01*
X1276200Y386262D01*
X1277887Y388460D01*
X1278947Y391020D01*
X1279309Y393767D01*
X1278947Y396515D01*
X1277887Y399075D01*
X1276200Y401273D01*
X1274001Y402960D01*
X1271441Y404021D01*
X1268694Y404382D01*
D02*
G37*
G36*
X1367569Y403495D02*
X1346521D01*
Y382447D01*
X1367569D01*
Y403495D01*
D02*
G37*
G36*
X1331645Y403585D02*
X1328898Y403224D01*
X1326337Y402163D01*
X1324139Y400476D01*
X1322452Y398278D01*
X1321392Y395718D01*
X1321030Y392971D01*
X1321392Y390223D01*
X1322452Y387663D01*
X1324139Y385465D01*
X1326337Y383778D01*
X1328898Y382718D01*
X1331645Y382356D01*
X1334392Y382718D01*
X1336952Y383778D01*
X1339151Y385465D01*
X1340838Y387663D01*
X1341898Y390223D01*
X1342260Y392971D01*
X1341898Y395718D01*
X1340838Y398278D01*
X1339151Y400476D01*
X1336952Y402163D01*
X1334392Y403224D01*
X1331645Y403585D01*
D02*
G37*
G36*
X642533Y432642D02*
X637569Y432153D01*
X632795Y430705D01*
X628396Y428354D01*
X624540Y425189D01*
X621375Y421333D01*
X619024Y416934D01*
X617576Y412160D01*
X617087Y407196D01*
X617576Y402231D01*
X619024Y397458D01*
X621375Y393059D01*
X624540Y389202D01*
X628396Y386038D01*
X632795Y383686D01*
X637569Y382238D01*
X642533Y381749D01*
X647498Y382238D01*
X652271Y383686D01*
X656671Y386038D01*
X660527Y389202D01*
X663691Y393059D01*
X666043Y397458D01*
X667491Y402231D01*
X667980Y407196D01*
X667491Y412160D01*
X666043Y416934D01*
X663691Y421333D01*
X660527Y425189D01*
X656671Y428354D01*
X652271Y430705D01*
X647498Y432153D01*
X642533Y432642D01*
D02*
G37*
%LPD*%
G36*
X1091969Y1028379D02*
X1093382Y1027436D01*
X1095048Y1027104D01*
X1257988D01*
X1290885Y994207D01*
Y986620D01*
X1289615Y986368D01*
X1289194Y987386D01*
X1287747Y989271D01*
X1285862Y990717D01*
X1283667Y991627D01*
X1281311Y991937D01*
X1278956Y991627D01*
X1276760Y990717D01*
X1274875Y989271D01*
X1273429Y987386D01*
X1272520Y985191D01*
X1272209Y982835D01*
X1272520Y980479D01*
X1273429Y978284D01*
X1274875Y976399D01*
X1276760Y974953D01*
X1278956Y974043D01*
X1281311Y973733D01*
X1283667Y974043D01*
X1285862Y974953D01*
X1287747Y976399D01*
X1289194Y978284D01*
X1289615Y979303D01*
X1290885Y979050D01*
Y971711D01*
X1291217Y970045D01*
X1292161Y968632D01*
X1315900Y944893D01*
X1315818Y944696D01*
X1315508Y942340D01*
X1315818Y939984D01*
X1316728Y937789D01*
X1316893Y937573D01*
X1316331Y936434D01*
X1307489D01*
X1306927Y937573D01*
X1307092Y937789D01*
X1308002Y939984D01*
X1308312Y942340D01*
X1308002Y944696D01*
X1307092Y946891D01*
X1305646Y948776D01*
X1303761Y950222D01*
X1301566Y951132D01*
X1299210Y951442D01*
X1296854Y951132D01*
X1294659Y950222D01*
X1292774Y948776D01*
X1291328Y946891D01*
X1290418Y944696D01*
X1290108Y942340D01*
X1290418Y939984D01*
X1291328Y937789D01*
X1291493Y937573D01*
X1290931Y936434D01*
X1282089D01*
X1281527Y937573D01*
X1281692Y937789D01*
X1282602Y939984D01*
X1282912Y942340D01*
X1282602Y944696D01*
X1281692Y946891D01*
X1280246Y948776D01*
X1278361Y950222D01*
X1276166Y951132D01*
X1273810Y951442D01*
X1271454Y951132D01*
X1269259Y950222D01*
X1267374Y948776D01*
X1265928Y946891D01*
X1265018Y944696D01*
X1264708Y942340D01*
X1265018Y939984D01*
X1265928Y937789D01*
X1266681Y936808D01*
X1266415Y935103D01*
X1265705Y934628D01*
X1264231Y933154D01*
X1263058Y933640D01*
Y946604D01*
X1262726Y948270D01*
X1261783Y949682D01*
X1189984Y1021481D01*
X1188571Y1022425D01*
X1186905Y1022756D01*
X1072977D01*
X1061415Y1034318D01*
X1060393Y1035001D01*
X1060779Y1036271D01*
X1084078D01*
X1091969Y1028379D01*
D02*
G37*
G36*
X1307981Y972876D02*
X1309332Y973054D01*
X1311774Y974065D01*
X1313872Y975675D01*
X1315481Y977772D01*
X1316493Y980214D01*
X1316670Y981558D01*
X1318011Y982013D01*
X1345656Y954367D01*
Y951364D01*
X1340986D01*
Y936434D01*
X1332889D01*
X1332327Y937573D01*
X1332492Y937789D01*
X1333402Y939984D01*
X1333712Y942340D01*
X1333402Y944696D01*
X1332492Y946891D01*
X1331046Y948776D01*
X1329161Y950222D01*
X1326966Y951132D01*
X1324610Y951442D01*
X1322254Y951132D01*
X1322057Y951050D01*
X1300047Y973060D01*
X1300119Y973637D01*
X1301470Y974202D01*
X1301648Y974065D01*
X1304090Y973054D01*
X1305441Y972876D01*
Y982835D01*
X1307981D01*
Y972876D01*
D02*
G37*
G36*
X1317756Y922831D02*
X1316728Y921491D01*
X1315818Y919296D01*
X1315508Y916940D01*
X1315818Y914584D01*
X1316728Y912389D01*
X1318174Y910504D01*
X1320059Y909058D01*
X1322254Y908148D01*
X1324610Y907838D01*
X1324719Y907852D01*
X1325674Y907015D01*
Y903229D01*
X1324404Y902602D01*
X1323262Y903478D01*
X1321100Y904374D01*
X1320049Y904512D01*
Y895713D01*
Y886913D01*
X1321100Y887051D01*
X1323262Y887947D01*
X1324404Y888823D01*
X1325674Y888196D01*
Y877643D01*
X1326005Y875976D01*
X1326949Y874564D01*
X1328134Y873379D01*
Y872146D01*
X1326949Y870961D01*
X1326546Y870359D01*
X1324902Y870020D01*
X1324225Y870540D01*
X1322000Y871461D01*
X1319613Y871775D01*
X1317226Y871461D01*
X1315002Y870540D01*
X1313091Y869074D01*
X1311626Y867164D01*
X1310704Y864940D01*
X1310390Y862553D01*
X1310704Y860165D01*
X1311626Y857941D01*
X1313091Y856031D01*
X1315002Y854565D01*
X1317226Y853644D01*
X1319613Y853330D01*
X1322000Y853644D01*
X1324225Y854565D01*
X1324534Y854803D01*
X1325674Y854241D01*
Y819797D01*
X1325190Y818854D01*
X1324490Y818522D01*
X1322703Y818286D01*
X1320507Y817377D01*
X1318622Y815931D01*
X1317176Y814046D01*
X1316267Y811850D01*
X1315956Y809495D01*
X1316267Y807139D01*
X1317176Y804944D01*
X1318622Y803059D01*
X1320507Y801612D01*
X1322703Y800703D01*
X1325058Y800393D01*
X1327414Y800703D01*
X1329609Y801612D01*
X1329860Y801804D01*
X1330999Y801243D01*
Y793119D01*
X1316034D01*
Y788448D01*
X1282729D01*
Y793119D01*
X1264681D01*
Y788448D01*
X1231376D01*
Y793119D01*
X1216412D01*
Y801243D01*
X1217551Y801804D01*
X1217801Y801612D01*
X1219996Y800703D01*
X1222352Y800393D01*
X1224708Y800703D01*
X1226903Y801612D01*
X1228788Y803059D01*
X1230235Y804944D01*
X1231144Y807139D01*
X1231454Y809495D01*
X1231144Y811850D01*
X1230235Y814046D01*
X1228788Y815931D01*
X1226903Y817377D01*
X1224708Y818286D01*
X1222352Y818597D01*
X1219996Y818286D01*
X1217801Y817377D01*
X1217618Y817236D01*
X1216479Y817798D01*
Y839716D01*
X1216410Y840064D01*
X1231506Y855161D01*
X1232449Y856573D01*
X1232781Y858239D01*
Y869754D01*
X1247670Y884643D01*
X1248873Y884235D01*
X1248980Y883421D01*
X1249875Y881258D01*
X1251300Y879401D01*
X1253158Y877976D01*
X1255320Y877080D01*
X1256371Y876942D01*
Y885742D01*
X1257641D01*
Y887012D01*
X1267632D01*
X1267729Y887109D01*
X1316319D01*
X1316458Y887051D01*
X1317509Y886913D01*
Y895713D01*
Y904512D01*
X1316458Y904374D01*
X1314296Y903478D01*
X1312438Y902053D01*
X1311013Y900196D01*
X1310701Y899442D01*
X1265175D01*
X1264039Y899216D01*
X1263413Y900386D01*
X1271257Y908230D01*
X1271454Y908148D01*
X1273810Y907838D01*
X1276166Y908148D01*
X1278361Y909058D01*
X1280246Y910504D01*
X1281692Y912389D01*
X1282602Y914584D01*
X1282912Y916940D01*
X1282602Y919296D01*
X1281692Y921491D01*
X1280664Y922831D01*
X1281290Y924101D01*
X1291730D01*
X1292356Y922831D01*
X1291328Y921491D01*
X1290418Y919296D01*
X1290108Y916940D01*
X1290418Y914584D01*
X1291328Y912389D01*
X1292774Y910504D01*
X1294659Y909058D01*
X1296854Y908148D01*
X1299210Y907838D01*
X1301566Y908148D01*
X1303761Y909058D01*
X1305646Y910504D01*
X1307092Y912389D01*
X1308002Y914584D01*
X1308312Y916940D01*
X1308002Y919296D01*
X1307092Y921491D01*
X1306064Y922831D01*
X1306690Y924101D01*
X1317130D01*
X1317756Y922831D01*
D02*
G37*
G36*
X1233261Y882548D02*
X1225349Y874636D01*
X1224405Y873223D01*
X1224203Y872210D01*
X1223765Y871888D01*
X1222958Y871563D01*
X1222806Y871564D01*
X1220665Y872451D01*
X1219283Y872633D01*
Y862552D01*
X1216743D01*
Y872633D01*
X1215361Y872451D01*
X1213528Y871692D01*
X1212258Y872455D01*
Y883071D01*
X1213528Y883697D01*
X1214423Y883010D01*
X1216339Y882216D01*
X1218394Y881946D01*
X1220450Y882216D01*
X1222365Y883010D01*
X1223292Y883721D01*
X1232775D01*
X1233261Y882548D01*
D02*
G37*
G36*
X1316034Y775071D02*
X1330999D01*
Y748170D01*
X1327457Y744628D01*
X1326588Y743327D01*
X1326420Y743190D01*
X1325142Y742835D01*
X1324225Y743540D01*
X1322000Y744461D01*
X1319613Y744775D01*
X1317226Y744461D01*
X1315002Y743540D01*
X1313091Y742074D01*
X1311626Y740164D01*
X1310704Y737940D01*
X1310390Y735553D01*
X1310704Y733166D01*
X1311626Y730941D01*
X1313091Y729031D01*
X1315002Y727565D01*
X1317226Y726644D01*
X1317613Y726593D01*
X1318022Y725390D01*
X1314351Y721720D01*
X1301406D01*
X1299740Y721388D01*
X1298327Y720444D01*
X1269759Y691876D01*
X1234792D01*
X1233126Y691545D01*
X1231714Y690601D01*
X1227189Y686077D01*
X1226245Y684664D01*
X1225914Y682998D01*
Y681389D01*
X1224644Y680763D01*
X1223137Y681919D01*
X1220665Y682943D01*
X1219283Y683125D01*
Y673045D01*
X1218013D01*
Y671775D01*
X1207933D01*
X1208115Y670392D01*
X1209138Y667921D01*
X1210767Y665798D01*
X1212889Y664170D01*
X1215361Y663146D01*
X1215676Y663104D01*
X1216085Y661902D01*
X1189535Y635352D01*
X1188591Y633939D01*
X1188260Y632273D01*
Y555188D01*
X1183469D01*
Y539984D01*
X1089772D01*
X1089210Y541123D01*
X1089448Y541433D01*
X1090369Y543657D01*
X1090683Y546045D01*
X1090369Y548432D01*
X1089448Y550656D01*
X1087982Y552566D01*
X1086072Y554032D01*
X1085814Y554138D01*
Y649527D01*
X1206531Y770244D01*
X1207704Y769758D01*
Y756801D01*
X1195600Y744697D01*
X1183469D01*
Y726409D01*
X1201757D01*
Y738540D01*
X1215136Y751919D01*
X1216080Y753331D01*
X1216412Y754997D01*
Y775071D01*
X1231376D01*
Y779741D01*
X1264681D01*
Y775071D01*
X1276572D01*
X1289859Y761783D01*
Y743647D01*
X1289602Y743540D01*
X1287691Y742074D01*
X1286226Y740164D01*
X1285305Y737940D01*
X1284990Y735553D01*
X1285305Y733166D01*
X1286226Y730941D01*
X1287691Y729031D01*
X1289602Y727565D01*
X1291826Y726644D01*
X1294213Y726330D01*
X1296600Y726644D01*
X1298825Y727565D01*
X1300735Y729031D01*
X1302200Y730941D01*
X1303122Y733166D01*
X1303436Y735553D01*
X1303122Y737940D01*
X1302200Y740164D01*
X1300735Y742074D01*
X1298825Y743540D01*
X1298567Y743647D01*
Y763587D01*
X1298235Y765253D01*
X1297292Y766665D01*
X1285389Y778568D01*
X1285875Y779741D01*
X1316034D01*
Y775071D01*
D02*
G37*
G36*
X1311025Y706491D02*
X1311901Y705906D01*
X1311671Y704158D01*
X1311942Y702102D01*
X1312735Y700187D01*
X1313997Y698542D01*
X1315642Y697280D01*
X1317558Y696487D01*
X1319613Y696216D01*
X1321190Y696423D01*
X1326692Y690922D01*
Y680739D01*
X1325422Y680113D01*
X1324225Y681032D01*
X1322000Y681953D01*
X1319613Y682267D01*
X1317226Y681953D01*
X1315002Y681032D01*
X1313091Y679566D01*
X1311626Y677656D01*
X1310704Y675432D01*
X1310390Y673045D01*
X1310704Y670657D01*
X1311626Y668433D01*
X1313091Y666523D01*
X1315002Y665057D01*
X1317226Y664136D01*
X1319613Y663822D01*
X1322000Y664136D01*
X1324225Y665057D01*
X1325422Y665976D01*
X1326692Y665350D01*
Y632904D01*
X1325737Y632067D01*
X1325058Y632156D01*
X1322703Y631846D01*
X1320507Y630937D01*
X1318622Y629491D01*
X1317176Y627606D01*
X1316267Y625410D01*
X1315956Y623055D01*
X1316267Y620699D01*
X1317176Y618504D01*
X1318622Y616619D01*
X1320507Y615172D01*
X1322703Y614263D01*
X1325058Y613953D01*
X1327414Y614263D01*
X1329609Y615172D01*
X1329860Y615364D01*
X1330999Y614803D01*
Y608466D01*
X1329979Y608263D01*
X1328566Y607320D01*
X1327925Y606679D01*
X1316034D01*
Y602008D01*
X1282729D01*
Y606679D01*
X1264681D01*
Y602008D01*
X1231376D01*
Y606679D01*
X1216412D01*
Y614362D01*
X1218013D01*
X1219191Y614596D01*
X1219996Y614263D01*
X1222352Y613953D01*
X1224708Y614263D01*
X1226903Y615172D01*
X1228788Y616619D01*
X1230235Y618504D01*
X1231144Y620699D01*
X1231454Y623055D01*
X1231144Y625410D01*
X1230235Y627606D01*
X1228788Y629491D01*
X1226903Y630937D01*
X1224708Y631846D01*
X1222352Y632156D01*
X1219996Y631846D01*
X1217801Y630937D01*
X1215916Y629491D01*
X1214470Y627606D01*
X1213560Y625410D01*
X1213252Y623069D01*
X1212058D01*
X1210917Y622842D01*
X1209647Y623651D01*
Y633201D01*
X1221441Y644996D01*
X1245118D01*
X1246784Y645327D01*
X1248196Y646271D01*
X1258990Y657064D01*
X1259933Y658476D01*
X1260265Y660143D01*
Y667078D01*
X1261535Y667509D01*
X1262291Y666523D01*
X1264202Y665057D01*
X1266426Y664136D01*
X1268813Y663822D01*
X1271200Y664136D01*
X1273425Y665057D01*
X1275335Y666523D01*
X1276800Y668433D01*
X1277722Y670657D01*
X1278036Y673045D01*
X1277722Y675432D01*
X1276800Y677656D01*
X1276563Y677966D01*
X1277124Y679105D01*
X1281501D01*
X1283167Y679436D01*
X1284579Y680380D01*
X1310768Y706569D01*
X1311025Y706491D01*
D02*
G37*
G36*
X1235579Y668233D02*
X1236891Y666523D01*
X1238802Y665057D01*
X1241026Y664136D01*
X1243413Y663822D01*
X1245800Y664136D01*
X1248025Y665057D01*
X1249935Y666523D01*
X1250288Y666983D01*
X1251558Y666552D01*
Y661946D01*
X1243315Y653703D01*
X1221859D01*
X1221373Y654876D01*
X1233346Y666849D01*
X1234186Y668107D01*
X1234738Y668252D01*
X1235579Y668233D01*
D02*
G37*
G36*
X1200939Y632783D02*
Y555188D01*
X1196967D01*
Y630470D01*
X1199766Y633269D01*
X1200939Y632783D01*
D02*
G37*
%LPC*%
G36*
X1264935Y991859D02*
X1246887D01*
Y973811D01*
X1264935D01*
Y991859D01*
D02*
G37*
G36*
X1266440Y884472D02*
X1258911D01*
Y876942D01*
X1259962Y877080D01*
X1262124Y877976D01*
X1263981Y879401D01*
X1265406Y881258D01*
X1266302Y883421D01*
X1266440Y884472D01*
D02*
G37*
G36*
X1294213Y871775D02*
X1291826Y871461D01*
X1289602Y870540D01*
X1287691Y869074D01*
X1286226Y867164D01*
X1285305Y864940D01*
X1284990Y862553D01*
X1285305Y860165D01*
X1286226Y857941D01*
X1287691Y856031D01*
X1289602Y854565D01*
X1291826Y853644D01*
X1294213Y853330D01*
X1296600Y853644D01*
X1298825Y854565D01*
X1300735Y856031D01*
X1302200Y857941D01*
X1303122Y860165D01*
X1303436Y862553D01*
X1303122Y864940D01*
X1302200Y867164D01*
X1300735Y869074D01*
X1298825Y870540D01*
X1296600Y871461D01*
X1294213Y871775D01*
D02*
G37*
G36*
X1268813D02*
X1266426Y871461D01*
X1264202Y870540D01*
X1262291Y869074D01*
X1260826Y867164D01*
X1259904Y864940D01*
X1259590Y862553D01*
X1259904Y860165D01*
X1260826Y857941D01*
X1262291Y856031D01*
X1264202Y854565D01*
X1266426Y853644D01*
X1268813Y853330D01*
X1271200Y853644D01*
X1273425Y854565D01*
X1275335Y856031D01*
X1276800Y857941D01*
X1277722Y860165D01*
X1278036Y862553D01*
X1277722Y864940D01*
X1276800Y867164D01*
X1275335Y869074D01*
X1273425Y870540D01*
X1271200Y871461D01*
X1268813Y871775D01*
D02*
G37*
G36*
X1243413D02*
X1241026Y871461D01*
X1238802Y870540D01*
X1236891Y869074D01*
X1235426Y867164D01*
X1234504Y864940D01*
X1234190Y862553D01*
X1234504Y860165D01*
X1235426Y857941D01*
X1236891Y856031D01*
X1238802Y854565D01*
X1241026Y853644D01*
X1243413Y853330D01*
X1245800Y853644D01*
X1248025Y854565D01*
X1249935Y856031D01*
X1251400Y857941D01*
X1252322Y860165D01*
X1252636Y862553D01*
X1252322Y864940D01*
X1251400Y867164D01*
X1249935Y869074D01*
X1248025Y870540D01*
X1245800Y871461D01*
X1243413Y871775D01*
D02*
G37*
G36*
X1273705Y818597D02*
X1271349Y818286D01*
X1269154Y817377D01*
X1267269Y815931D01*
X1265823Y814046D01*
X1264913Y811850D01*
X1264603Y809495D01*
X1264913Y807139D01*
X1265823Y804944D01*
X1267269Y803059D01*
X1269154Y801612D01*
X1271349Y800703D01*
X1273705Y800393D01*
X1276061Y800703D01*
X1278256Y801612D01*
X1280141Y803059D01*
X1281588Y804944D01*
X1282497Y807139D01*
X1282807Y809495D01*
X1282497Y811850D01*
X1281588Y814046D01*
X1280141Y815931D01*
X1278256Y817377D01*
X1276061Y818286D01*
X1273705Y818597D01*
D02*
G37*
G36*
X1268813Y744775D02*
X1266426Y744461D01*
X1264202Y743540D01*
X1262291Y742074D01*
X1260826Y740164D01*
X1259904Y737940D01*
X1259590Y735553D01*
X1259904Y733166D01*
X1260826Y730941D01*
X1262291Y729031D01*
X1264202Y727565D01*
X1266426Y726644D01*
X1268813Y726330D01*
X1271200Y726644D01*
X1273425Y727565D01*
X1275335Y729031D01*
X1276800Y730941D01*
X1277722Y733166D01*
X1278036Y735553D01*
X1277722Y737940D01*
X1276800Y740164D01*
X1275335Y742074D01*
X1273425Y743540D01*
X1271200Y744461D01*
X1268813Y744775D01*
D02*
G37*
G36*
X1243413D02*
X1241026Y744461D01*
X1238802Y743540D01*
X1236891Y742074D01*
X1235426Y740164D01*
X1234504Y737940D01*
X1234190Y735553D01*
X1234504Y733166D01*
X1235426Y730941D01*
X1236891Y729031D01*
X1238802Y727565D01*
X1241026Y726644D01*
X1243413Y726330D01*
X1245800Y726644D01*
X1248025Y727565D01*
X1249935Y729031D01*
X1251400Y730941D01*
X1252322Y733166D01*
X1252636Y735553D01*
X1252322Y737940D01*
X1251400Y740164D01*
X1249935Y742074D01*
X1248025Y743540D01*
X1245800Y744461D01*
X1243413Y744775D01*
D02*
G37*
G36*
X1218013D02*
X1215626Y744461D01*
X1213402Y743540D01*
X1211491Y742074D01*
X1210026Y740164D01*
X1209105Y737940D01*
X1208790Y735553D01*
X1209105Y733166D01*
X1210026Y730941D01*
X1211491Y729031D01*
X1213402Y727565D01*
X1215626Y726644D01*
X1218013Y726330D01*
X1220400Y726644D01*
X1222625Y727565D01*
X1224535Y729031D01*
X1226000Y730941D01*
X1226922Y733166D01*
X1227236Y735553D01*
X1226922Y737940D01*
X1226000Y740164D01*
X1224535Y742074D01*
X1222625Y743540D01*
X1220400Y744461D01*
X1218013Y744775D01*
D02*
G37*
G36*
X1216743Y683125D02*
X1215361Y682943D01*
X1212889Y681919D01*
X1210767Y680291D01*
X1209138Y678168D01*
X1208115Y675697D01*
X1207933Y674314D01*
X1216743D01*
Y683125D01*
D02*
G37*
G36*
X1165774Y709523D02*
X1163718Y709252D01*
X1161803Y708459D01*
X1160158Y707197D01*
X1158896Y705552D01*
X1158103Y703636D01*
X1157832Y701581D01*
X1158103Y699525D01*
X1158896Y697610D01*
X1160158Y695965D01*
X1161803Y694703D01*
X1162538Y694398D01*
X1183449Y673488D01*
X1183390Y673045D01*
X1183705Y670657D01*
X1184626Y668433D01*
X1186092Y666523D01*
X1188002Y665057D01*
X1190226Y664136D01*
X1192613Y663822D01*
X1195000Y664136D01*
X1197225Y665057D01*
X1199135Y666523D01*
X1200600Y668433D01*
X1201522Y670657D01*
X1201836Y673045D01*
X1201522Y675432D01*
X1200600Y677656D01*
X1199135Y679566D01*
X1197225Y681032D01*
X1195000Y681953D01*
X1192613Y682267D01*
X1192169Y682209D01*
X1173609Y700769D01*
X1173716Y701581D01*
X1173445Y703636D01*
X1172652Y705552D01*
X1171390Y707197D01*
X1169745Y708459D01*
X1167830Y709252D01*
X1165774Y709523D01*
D02*
G37*
G36*
X1140589Y667632D02*
X1138363Y667339D01*
X1136290Y666480D01*
X1134509Y665114D01*
X1133143Y663334D01*
X1132284Y661260D01*
X1131991Y659035D01*
X1132284Y656809D01*
X1133143Y654736D01*
X1134509Y652955D01*
X1136290Y651589D01*
X1138363Y650730D01*
X1140589Y650437D01*
X1142814Y650730D01*
X1144887Y651589D01*
X1146668Y652955D01*
X1148034Y654736D01*
X1148893Y656809D01*
X1149186Y659035D01*
X1148893Y661260D01*
X1148034Y663334D01*
X1146668Y665114D01*
X1144887Y666480D01*
X1142814Y667339D01*
X1140589Y667632D01*
D02*
G37*
G36*
Y643502D02*
X1138363Y643209D01*
X1136290Y642350D01*
X1134509Y640984D01*
X1133143Y639203D01*
X1132284Y637130D01*
X1131991Y634905D01*
X1132284Y632679D01*
X1133143Y630606D01*
X1134509Y628825D01*
X1136290Y627459D01*
X1138363Y626600D01*
X1140589Y626307D01*
X1142814Y626600D01*
X1144887Y627459D01*
X1146668Y628825D01*
X1148034Y630606D01*
X1148893Y632679D01*
X1149186Y634905D01*
X1148893Y637130D01*
X1148034Y639203D01*
X1146668Y640984D01*
X1144887Y642350D01*
X1142814Y643209D01*
X1140589Y643502D01*
D02*
G37*
G36*
Y618102D02*
X1138363Y617809D01*
X1136290Y616950D01*
X1134509Y615584D01*
X1133143Y613803D01*
X1132284Y611730D01*
X1131991Y609505D01*
X1132284Y607280D01*
X1133143Y605206D01*
X1134509Y603425D01*
X1136290Y602059D01*
X1138363Y601200D01*
X1140589Y600907D01*
X1142814Y601200D01*
X1144887Y602059D01*
X1146668Y603425D01*
X1148034Y605206D01*
X1148893Y607280D01*
X1149186Y609505D01*
X1148893Y611730D01*
X1148034Y613803D01*
X1146668Y615584D01*
X1144887Y616950D01*
X1142814Y617809D01*
X1140589Y618102D01*
D02*
G37*
G36*
X1149112Y592629D02*
X1132065D01*
Y575581D01*
X1149112D01*
Y592629D01*
D02*
G37*
G36*
X1294213Y682267D02*
X1291826Y681953D01*
X1289602Y681032D01*
X1287691Y679566D01*
X1286226Y677656D01*
X1285305Y675432D01*
X1284990Y673045D01*
X1285305Y670657D01*
X1286226Y668433D01*
X1287691Y666523D01*
X1289602Y665057D01*
X1291826Y664136D01*
X1294213Y663822D01*
X1296600Y664136D01*
X1298825Y665057D01*
X1300735Y666523D01*
X1302200Y668433D01*
X1303122Y670657D01*
X1303436Y673045D01*
X1303122Y675432D01*
X1302200Y677656D01*
X1300735Y679566D01*
X1298825Y681032D01*
X1296600Y681953D01*
X1294213Y682267D01*
D02*
G37*
G36*
X1273705Y632156D02*
X1271349Y631846D01*
X1269154Y630937D01*
X1267269Y629491D01*
X1265823Y627606D01*
X1264913Y625410D01*
X1264603Y623055D01*
X1264913Y620699D01*
X1265823Y618504D01*
X1267269Y616619D01*
X1269154Y615172D01*
X1271349Y614263D01*
X1273705Y613953D01*
X1276061Y614263D01*
X1278256Y615172D01*
X1280141Y616619D01*
X1281588Y618504D01*
X1282497Y620699D01*
X1282807Y623055D01*
X1282497Y625410D01*
X1281588Y627606D01*
X1280141Y629491D01*
X1278256Y630937D01*
X1276061Y631846D01*
X1273705Y632156D01*
D02*
G37*
%LPD*%
D13*
X959691Y1031240D02*
X1058336D01*
X789727Y1040625D02*
X1085881D01*
X1058336Y1031240D02*
X1071174Y1018402D01*
X1142899Y835948D02*
X1150912Y843961D01*
X1135734Y835948D02*
X1142899D01*
X1130795Y831008D02*
X1135734Y835948D01*
X1130795Y784887D02*
Y831008D01*
X1081460Y735553D02*
X1130795Y784887D01*
X1140227Y927234D02*
X1150912Y916549D01*
Y843961D02*
Y916549D01*
X1186905Y1018402D02*
X1258704Y946604D01*
X1140227Y967143D02*
X1154736Y952634D01*
X1140227Y967143D02*
Y983108D01*
X1154736Y952634D02*
X1201874D01*
X1330027Y877643D02*
X1332487Y875182D01*
Y870342D02*
Y875182D01*
X1330027Y867882D02*
X1332487Y870342D01*
X1330027Y819084D02*
Y867882D01*
X1334599Y887694D02*
X1355427Y866866D01*
X1330027Y877643D02*
Y911523D01*
X1334599Y887694D02*
Y901529D01*
Y837411D02*
X1355427Y858239D01*
X1334599Y820259D02*
Y837411D01*
X1355427Y858239D02*
Y866866D01*
X950546Y605142D02*
X951615Y604073D01*
X949477Y606211D02*
X950546Y605142D01*
X939184Y597655D02*
X946671Y605142D01*
X950546D01*
X951615Y604073D02*
X986338D01*
X992757Y597655D01*
X1211663Y840178D02*
Y841475D01*
Y840178D02*
X1212125Y839716D01*
X1211663Y841475D02*
X1228427Y858239D01*
X1212125Y813826D02*
Y839716D01*
X1311344Y713302D02*
X1317837D01*
X1281501Y683458D02*
X1311344Y713302D01*
X1264500Y683458D02*
X1281501D01*
X1271563Y687523D02*
X1301406Y717366D01*
X1316154D01*
X1330535Y731747D01*
X1234792Y687523D02*
X1271563D01*
X1331046Y631625D02*
X1335352Y627318D01*
X1331046Y631625D02*
Y692725D01*
X1319613Y704158D02*
X1331046Y692725D01*
X1325058Y597655D02*
X1331645Y604241D01*
X1335352D01*
Y627318D01*
X1317837Y713302D02*
X1334599Y730064D01*
X1024691Y802022D02*
X1046330D01*
X1011743Y789074D02*
X1024691Y802022D01*
X1011743Y767435D02*
Y789074D01*
X979861Y735553D02*
X1011743Y767435D01*
X1205293Y635004D02*
X1219638Y649349D01*
X1205293Y535630D02*
Y635004D01*
X1212058Y552000D02*
Y618716D01*
Y552000D02*
X1218013Y546045D01*
X1255911Y674870D02*
X1264500Y683458D01*
X1255911Y660143D02*
Y674870D01*
X1245118Y649349D02*
X1255911Y660143D01*
X1230268Y669928D02*
Y682998D01*
X1192613Y632273D02*
X1230268Y669928D01*
Y682998D02*
X1234792Y687523D01*
X1324610Y916940D02*
X1330027Y911523D01*
X1248410Y916940D02*
X1258704Y927234D01*
X1270658Y1035522D02*
X1350010Y956170D01*
X1096731Y1035522D02*
X1270658D01*
X1350010Y942340D02*
Y956170D01*
X1259792Y1031458D02*
X1295239Y996010D01*
Y971711D02*
Y996010D01*
Y971711D02*
X1324610Y942340D01*
X767574Y1018472D02*
X789727Y1040625D01*
X767574Y1015389D02*
Y1018472D01*
X942010Y723213D02*
X999832D01*
X831686D02*
X942010D01*
Y640816D02*
Y723213D01*
Y640816D02*
X949477Y633349D01*
Y606211D02*
Y633349D01*
X784582Y770317D02*
Y873208D01*
Y770317D02*
X831686Y723213D01*
X928889Y735723D02*
Y799201D01*
Y735723D02*
X929061Y735553D01*
X928889Y799201D02*
X939184Y809495D01*
X999832Y723213D02*
X1005260Y728642D01*
Y735553D01*
X1071174Y1018402D02*
X1186905D01*
X1085881Y1040625D02*
X1095048Y1031458D01*
X1259792D01*
X1258704Y927234D02*
Y946604D01*
X1207904Y932046D02*
X1223010Y916940D01*
X1207904Y932046D02*
Y946604D01*
X1201874Y952634D02*
X1207904Y946604D01*
X769478Y1039613D02*
X775418Y1045553D01*
X1207599Y777469D02*
Y866866D01*
X1212058Y754997D02*
Y813759D01*
X1081460Y651330D02*
X1207599Y777469D01*
X1131570Y927234D02*
X1140227D01*
X1131570D02*
Y942340D01*
X1081460Y546045D02*
Y651330D01*
X1207599Y866866D02*
X1207904Y867171D01*
Y921204D01*
X1197610Y931498D02*
X1207904Y921204D01*
X1197610Y931498D02*
Y942340D01*
X1228427Y871557D02*
X1273810Y916940D01*
X903661Y546045D02*
X914074Y535630D01*
X1205293D01*
X1219638Y649349D02*
X1245118D01*
X1218013Y618716D02*
X1222352Y623055D01*
X1212058Y618716D02*
X1218013D01*
X1334599Y730064D02*
Y739866D01*
X1339416Y744683D01*
Y815442D01*
X1334599Y820259D02*
X1339416Y815442D01*
X1334599Y901529D02*
X1350010Y916940D01*
X1330535Y731747D02*
Y741550D01*
X1335352Y746367D01*
Y813759D01*
X1192613Y546045D02*
Y632273D01*
X1330027Y819084D02*
X1335352Y813759D01*
X1192613Y735553D02*
X1212058Y754997D01*
Y813759D02*
X1212125Y813826D01*
X1228427Y858239D02*
Y871557D01*
X1086700Y1045553D02*
X1096731Y1035522D01*
X775418Y1045553D02*
X1086700Y1045553D01*
X1273705Y784095D02*
X1294213Y763587D01*
Y735553D02*
Y763587D01*
X1273705Y784095D02*
X1325058D01*
X1222352D02*
X1273705D01*
X1046330Y802022D02*
Y809495D01*
X939184Y784095D02*
X992757D01*
X1273705Y597655D02*
X1325058D01*
X1222352D02*
X1273705D01*
X979861Y556585D02*
X1046330Y623055D01*
X979861Y546045D02*
Y556585D01*
X928889Y612761D02*
X939184Y623055D01*
X928889Y546215D02*
Y612761D01*
Y546215D02*
X929061Y546045D01*
D40*
X1093271Y1047244D02*
X1099151Y1041364D01*
X1093271Y1047244D02*
Y1048274D01*
X1089422Y1052123D02*
X1093271Y1048274D01*
X1080430Y1052123D02*
X1089422D01*
X1064008Y1068546D02*
X1080430Y1052123D01*
X1150961Y987820D02*
X1151149Y987632D01*
Y980510D02*
Y987632D01*
Y980510D02*
X1163639Y968021D01*
X1150961Y987820D02*
Y994168D01*
X1145730Y999399D02*
X1150961Y994168D01*
X1163639Y968021D02*
X1215825D01*
X1131936Y999399D02*
X1145730D01*
X1115372Y982835D02*
X1131936Y999399D01*
X1316342Y893275D02*
X1318779Y895713D01*
X1265175Y893275D02*
X1316342D01*
X1257641Y885742D02*
X1265175Y893275D01*
X1349625Y883341D02*
Y891958D01*
Y883341D02*
X1370413Y862553D01*
X1270066Y930268D02*
X1360229D01*
X1362082Y932121D02*
Y952360D01*
X1360229Y930268D02*
X1362082Y932121D01*
X1165774Y699884D02*
Y701581D01*
Y699884D02*
X1192613Y673045D01*
X1140227Y725563D02*
X1169454Y754790D01*
Y839393D01*
X1192613Y862553D01*
X1218394Y889888D02*
X1238430D01*
X1260482Y911940D01*
Y920684D01*
X1270066Y930268D01*
X1353574Y960868D02*
X1362082Y952360D01*
X1353574Y960868D02*
Y995285D01*
X1064008Y1064659D02*
X1064103Y1064564D01*
X1276854Y1041364D02*
X1308039Y1072549D01*
X1099151Y1041364D02*
X1276854D01*
D41*
X882180Y418704D02*
D03*
D42*
X771690D02*
D03*
D43*
X1378974Y995285D02*
D03*
X1192064D02*
D03*
X1268694Y393767D02*
D03*
X1331645Y392971D02*
D03*
X841437Y995334D02*
D03*
X899180D02*
D03*
X956922D02*
D03*
X708412Y800287D02*
D03*
Y774887D02*
D03*
Y749487D02*
D03*
Y724087D02*
D03*
Y698687D02*
D03*
Y673287D02*
D03*
Y647887D02*
D03*
Y622487D02*
D03*
Y597087D02*
D03*
X775252D02*
D03*
Y622487D02*
D03*
Y647887D02*
D03*
Y673287D02*
D03*
Y698687D02*
D03*
Y724087D02*
D03*
Y749487D02*
D03*
X733782Y873208D02*
D03*
X759182D02*
D03*
X784582D02*
D03*
D44*
X1353574Y995285D02*
D03*
X1166664D02*
D03*
X1294094Y393767D02*
D03*
X1357045Y392971D02*
D03*
X866837Y995334D02*
D03*
X924579D02*
D03*
X982322D02*
D03*
X708382Y873208D02*
D03*
D45*
X1358839Y1072549D02*
D03*
X1237279Y1072390D02*
D03*
D46*
X1308039Y1072549D02*
D03*
X1186479Y1072390D02*
D03*
D47*
X1243413Y735553D02*
D03*
X1218013D02*
D03*
X1294213D02*
D03*
X1268813D02*
D03*
X1319613D02*
D03*
X1345013D02*
D03*
X1370413D02*
D03*
Y862553D02*
D03*
X1345013D02*
D03*
X1319613D02*
D03*
X1268813D02*
D03*
X1294213D02*
D03*
X1218013D02*
D03*
X1192613D02*
D03*
X1243413D02*
D03*
X767574Y1040789D02*
D03*
Y1015389D02*
D03*
Y989989D02*
D03*
Y964589D02*
D03*
Y939189D02*
D03*
X954461Y862553D02*
D03*
X903661D02*
D03*
X929061D02*
D03*
X1005260D02*
D03*
X979861D02*
D03*
X1030660D02*
D03*
X1056060D02*
D03*
X1081460D02*
D03*
Y735553D02*
D03*
X1056060D02*
D03*
X1030660D02*
D03*
X979861D02*
D03*
X1005260D02*
D03*
X929061D02*
D03*
X954461D02*
D03*
X1243413Y673045D02*
D03*
X1192613D02*
D03*
X1218013D02*
D03*
X1294213D02*
D03*
X1268813D02*
D03*
X1319613D02*
D03*
X1345013D02*
D03*
X1370413D02*
D03*
Y546045D02*
D03*
X1345013D02*
D03*
X1319613D02*
D03*
X1268813D02*
D03*
X1294213D02*
D03*
X1218013D02*
D03*
X1243413D02*
D03*
X954461Y673045D02*
D03*
X903661D02*
D03*
X929061D02*
D03*
X1005260D02*
D03*
X979861D02*
D03*
X1030660D02*
D03*
X1056060D02*
D03*
X1081460D02*
D03*
Y546045D02*
D03*
X1056060D02*
D03*
X1030660D02*
D03*
X979861D02*
D03*
X1005260D02*
D03*
X929061D02*
D03*
X954461D02*
D03*
D48*
X1192613Y735553D02*
D03*
X903661D02*
D03*
X1192613Y546045D02*
D03*
X903661D02*
D03*
D49*
X767574Y1066189D02*
D03*
D50*
X1115372Y982835D02*
D03*
X1089972D02*
D03*
X1306711D02*
D03*
X1281311D02*
D03*
X1089408Y1068546D02*
D03*
X1064008D02*
D03*
X940253D02*
D03*
X914853D02*
D03*
X1172210Y942340D02*
D03*
X1197610D02*
D03*
X1223010D02*
D03*
X1248410D02*
D03*
X1273810D02*
D03*
X1299210D02*
D03*
X1324610D02*
D03*
X1080770D02*
D03*
X902970D02*
D03*
X928370D02*
D03*
X953770D02*
D03*
X979170D02*
D03*
X1004570D02*
D03*
X1029970D02*
D03*
X1055370D02*
D03*
X1106170D02*
D03*
X1172210Y916940D02*
D03*
X1197610D02*
D03*
X1223010D02*
D03*
X1248410D02*
D03*
X1273810D02*
D03*
X1299210D02*
D03*
X1324610D02*
D03*
X953770D02*
D03*
X979170D02*
D03*
X1004570D02*
D03*
X1029970D02*
D03*
X1055370D02*
D03*
X1080770D02*
D03*
X1106170D02*
D03*
X1223010Y459740D02*
D03*
X1248410D02*
D03*
X1273810D02*
D03*
X1299210D02*
D03*
X1324610D02*
D03*
X994410D02*
D03*
X1019810D02*
D03*
X1045210D02*
D03*
X1070610D02*
D03*
X1096010D02*
D03*
X1121410D02*
D03*
X1146810D02*
D03*
X1223010Y485140D02*
D03*
X1248410D02*
D03*
X1273810D02*
D03*
X1299210D02*
D03*
X1324610D02*
D03*
X1146810D02*
D03*
X1121410D02*
D03*
X1096010D02*
D03*
X1046330Y809495D02*
D03*
X1325058D02*
D03*
X992757D02*
D03*
X1273705D02*
D03*
X939184D02*
D03*
X1222352D02*
D03*
X1046330Y623055D02*
D03*
X1325058D02*
D03*
X992757D02*
D03*
X1273705D02*
D03*
X939184D02*
D03*
X1222352D02*
D03*
D51*
X1064572Y982835D02*
D03*
X1255911D02*
D03*
X1038608Y1068546D02*
D03*
X889453D02*
D03*
X1350010Y942340D02*
D03*
X1131570D02*
D03*
X1350010Y916940D02*
D03*
X1131570D02*
D03*
X1350010Y459740D02*
D03*
X1172210D02*
D03*
X1350010Y485140D02*
D03*
X1172210D02*
D03*
D52*
X708412Y571687D02*
D03*
X775252D02*
D03*
D53*
X656733Y808116D02*
D03*
X628333Y794311D02*
D03*
X656733Y780506D02*
D03*
X628333Y766701D02*
D03*
X656733Y752896D02*
D03*
X628333Y739091D02*
D03*
X656733Y725286D02*
D03*
X628333Y711481D02*
D03*
X656733Y697676D02*
D03*
X628333Y683871D02*
D03*
X656733Y670066D02*
D03*
X628333Y656261D02*
D03*
X656733Y642456D02*
D03*
X628333Y628651D02*
D03*
X656733Y614846D02*
D03*
X628333Y601041D02*
D03*
X656733Y587236D02*
D03*
X628333Y573431D02*
D03*
X656733Y559626D02*
D03*
X628333Y545821D02*
D03*
X656733Y532016D02*
D03*
X628333Y518211D02*
D03*
X656733Y504406D02*
D03*
X628333Y490601D02*
D03*
D54*
X656733Y476796D02*
D03*
D55*
X642533Y407196D02*
D03*
Y877716D02*
D03*
D56*
X854864Y848371D02*
D03*
Y798841D02*
D03*
Y824241D02*
D03*
X1140589Y659035D02*
D03*
Y609505D02*
D03*
Y634905D02*
D03*
X1141118Y823888D02*
D03*
Y798488D02*
D03*
Y848018D02*
D03*
X854063Y634905D02*
D03*
Y609505D02*
D03*
Y659035D02*
D03*
D57*
X854864Y773441D02*
D03*
X1140589Y584105D02*
D03*
X1141118Y773088D02*
D03*
X854063Y584105D02*
D03*
D58*
X1046330Y784095D02*
D03*
X1325058D02*
D03*
X992757D02*
D03*
X1273705D02*
D03*
X939184D02*
D03*
X1222352D02*
D03*
X1046330Y597655D02*
D03*
X1325058D02*
D03*
X992757D02*
D03*
X1273705D02*
D03*
X939184D02*
D03*
X1222352D02*
D03*
D59*
X959691Y1031240D02*
D03*
X1215825Y968021D02*
D03*
X1318779Y895713D02*
D03*
X1349625Y891958D02*
D03*
X1257641Y885742D02*
D03*
X1165774Y701581D02*
D03*
X1140227Y725563D02*
D03*
X685078Y508151D02*
D03*
X1140227Y983108D02*
D03*
X1218394Y889888D02*
D03*
X1319613Y704158D02*
D03*
M02*
