M48
;Layer_Color=9474304
;FILE_FORMAT=4:2
METRIC,LZ
;TYPE=PLATED
T1F00S00C0.30
T2F00S00C0.70
T3F00S00C0.90
T4F00S00C1.20
T5F00S00C1.30
%
T01
X012179Y005767
Y005881
Y005996
X012294
Y005881
Y005767
X012408
Y005881
Y005996
X012382Y007697
X012268
Y007812
Y007926
X012154
Y007812
Y007697
X012382Y007812
Y007926
X010084
X009969
X009855
Y007812
X009969
Y007697
X009855
X010084
Y007812
X010109Y005996
X009995
X009881
Y005881
X009995
Y005767
X009881
X010109
Y005881
T02
X01204Y00447
X012687Y005309
X012675Y005982
X012649Y006134
X012764Y006223
X01254Y006406
X01237Y006287
X012205Y006274
X011955Y006117
X012941Y006604
X012687Y007264
X012649Y007874
X011861Y007919
X011621Y007366
X011011Y007709
X010366Y007787
X010385Y007926
X010427Y007341
X010541Y006782
X01077Y006744
X010673Y006182
X01035Y006134
X010071Y006287
X009906Y006274
X009656Y006117
X009347Y006096
X0095Y006357
X009144Y006604
X009205Y005004
X009893Y005105
X010325Y005347
X010935Y00522
X01078Y005875
X011201Y006083
X011481Y00621
X011886Y005989
X011557Y00823
X011698Y008419
X010871Y008446
X010566Y007938
X010325Y008064
X010046Y008217
X009881Y008204
X009728Y008252
X009631Y008047
X009536Y007945
X00922Y008026
X009284Y0087
X01193Y008047
X012179Y008204
X012344Y008217
X012624Y008064
X013018Y00856
T03
X01223Y004597
X012484
X012738
X012992
X013246
X0135
Y004851
X013246
X012992
X012738
X012484
X01223
X012179Y006668
X012433
X012675
X011925
X010376
X010135
X009881
X009627
X009944Y004597
X010198
X010452
X010706
X01096
X011214
X011468
X011722
Y004851
X011468
X011214
X01096
X01035Y008598
X010109
X009855
X009601
X009538Y009169
Y009423
X009792
X010046
X0103
X010554
X010808
X011062
X011316
Y009169
X011062
X010808
X010554
X0103
X010046
X009792
X009284Y009423
X00903
X011722
Y009169
X0119Y008598
X012154
X012408
X012649
X012738Y009169
Y009423
X012484
X01223
X011976
Y009169
X01223
X012484
X012992
Y009423
X013246
X0135
Y009169
X013246
T04
X008496Y007341
Y007595
X007658Y006261
Y006007
X008496Y008014
Y008268
Y008687
Y008941
T05
X007671Y006985
Y007493
X007683Y008496
Y009004
M30
