M48
;Layer_Color=9474304
;FILE_FORMAT=4:4
METRIC,LZ
;TYPE=PLATED
T1F00S00C0.3000
T2F00S00C0.7000
T3F00S00C0.7112
T4F00S00C0.9000
T5F00S00C0.9050
T6F00S00C1.2000
T7F00S00C1.3000
%
T01
X0120396Y0044704
X0121793Y005767
Y0058813
Y0059956
X0122936
Y0058813
Y005767
X0124079
Y0058813
Y0059956
X0123825Y0076974
X0122682
Y0078117
Y007926
X0121539
Y0078117
Y0076974
X0123825Y0078117
Y007926
X0100838
X0099695
X0098552
Y0078117
X0099695
Y0076974
X0098552
X0100838
Y0078117
X0101092Y0059956
X0099949
X0098806
Y0058813
X0099949
Y005767
X0098806
X0101092
Y0058813
X00920496Y0050038
T02
X0126873Y0053086
X0126746Y0059817
X0126492Y0061341
X01275929Y0062611
X01253998Y00640588
X0123698Y0062865
X0122047Y0062738
X01199059Y00613983
X0129413Y006604
X0126873Y0072644
X0116205Y007366
X0110109Y0077089
X01059285Y00792205
X01036574Y0077867
X0104267Y0073406
X0107696Y0067437
X01067308Y00618236
X0103505Y0061341
X0100711Y0062865
X009906Y0062738
X00965638Y00611702
X00932321Y00609571
X0094996Y0063565
X009144Y006604
X0098933Y0051054
X0103251Y0053467
X0109347Y0052197
X01077976Y00587502
X0112014Y0060833
X0114808Y0062103
X0118716Y00601453
X01184162Y00795445
X011557Y0082296
X0116979Y0084189
X0103251Y0080645
X0100457Y0082423
X00990049Y008255
X0097282Y00825246
X0096393Y0080391
X0094996Y0079502
X0092202Y0080264
X0092837Y0086995
X0119507Y0080645
X0121666Y0082423
X0123444Y0082169
X01262957Y00804388
X0130175Y0085598
T03
X0126492Y0078867
X01039213Y00793397
X0104267Y0060071
X0108966Y0084836
T04
X0122301Y0045974
X0124841
X0127381
X0129921
X0132461
X0135001
Y0048514
X0132461
X0129921
X0127381
X0124841
X0122301
X0117221
Y0045974
X0114681
X0112141
X0109601
X0107061
X0104521
X0101981
X0099441
X0109601Y0048514
X0112141
X0114681
X0113157Y0091694
Y0094234
X0110617
X0108077
X0105537
X0102997
X0100457
X0097917
X0095377
X0092837
X0090297
X0095377Y0091694
X0097917
X0100457
X0102997
X0105537
X0108077
X0110617
X0117221
Y0094234
X0119761
X0122301
X0124841
X0127381
X0129921
X0132461
X0135001
Y0091694
X0132461
X0129921
X0127381
X0124841
X0122301
X0119761
T05
X0119253Y0066675
X0121793
X0124333
X0126746
X0103759
X0101346
X0098806
X0096266
X0096012Y0085979
X0098552
X0101092
X0103505
X0118999
X0121539
X0124079
X0126492
T06
X0084963Y0073406
Y0075946
X0076581Y0062611
Y0060071
X0084963Y0080137
Y0082677
Y0086868
Y0089408
T07
X0076708Y006985
Y007493
X0076835Y0084963
Y0090043
M30
