G04 Layer_Physical_Order=2*
G04 Layer_Color=16711680*
%FSLAX44Y44*%
%MOMM*%
G71*
G01*
G75*
%ADD20C,0.6096*%
%ADD21C,0.2540*%
%ADD22R,1.8000X1.8000*%
%ADD23C,1.8000*%
%ADD24C,1.4000*%
%ADD25R,1.4000X1.4000*%
%ADD26C,1.9000*%
%ADD27R,1.9000X1.9000*%
%ADD28C,1.5000*%
%ADD29R,1.5000X1.5000*%
%ADD30C,0.6000*%
%ADD31C,1.2700*%
G36*
X1404364Y970821D02*
Y432545D01*
X711955D01*
X710687Y433460D01*
X711927Y970963D01*
X1402451D01*
X1403336Y971848D01*
X1404364Y970821D01*
D02*
G37*
%LPC*%
G36*
X1149350Y629841D02*
Y622300D01*
X1156891D01*
X1156685Y623336D01*
X1156311Y624439D01*
X1155796Y625485D01*
X1155148Y626454D01*
X1154380Y627330D01*
X1153503Y628098D01*
X1152535Y628745D01*
X1151489Y629261D01*
X1150386Y629636D01*
X1149350Y629841D01*
D02*
G37*
G36*
X1146810D02*
X1145774Y629636D01*
X1144671Y629261D01*
X1143625Y628745D01*
X1142656Y628098D01*
X1141780Y627330D01*
X1141012Y626454D01*
X1140365Y625485D01*
X1139849Y624439D01*
X1139474Y623336D01*
X1139268Y622300D01*
X1146810D01*
Y629841D01*
D02*
G37*
G36*
X1284740Y624840D02*
X1277199D01*
Y617299D01*
X1278235Y617505D01*
X1279338Y617879D01*
X1280383Y618395D01*
X1281352Y619042D01*
X1282229Y619810D01*
X1282997Y620686D01*
X1283644Y621655D01*
X1284160Y622701D01*
X1284534Y623804D01*
X1284740Y624840D01*
D02*
G37*
G36*
X971184Y675274D02*
X954136D01*
Y658226D01*
X958066D01*
Y641792D01*
X957778Y641592D01*
X956796Y641339D01*
X956260Y641950D01*
X955384Y642718D01*
X954415Y643366D01*
X953369Y643881D01*
X952266Y644256D01*
X951230Y644462D01*
Y635650D01*
Y626839D01*
X952266Y627045D01*
X953369Y627419D01*
X954415Y627935D01*
X955384Y628582D01*
X956260Y629351D01*
X956796Y629962D01*
X957778Y629708D01*
X958066Y629509D01*
Y614680D01*
X958121Y614119D01*
X957837Y612937D01*
X957740Y611702D01*
X957837Y610466D01*
X958127Y609261D01*
X958601Y608116D01*
X959249Y607059D01*
X960053Y606117D01*
X960996Y605312D01*
X962053Y604664D01*
X963198Y604190D01*
X964403Y603900D01*
X965638Y603803D01*
X966874Y603900D01*
X968079Y604190D01*
X969224Y604664D01*
X970281Y605312D01*
X971223Y606117D01*
X972028Y607059D01*
X972676Y608116D01*
X973150Y609261D01*
X973439Y610466D01*
X973537Y611702D01*
X973439Y612937D01*
X973150Y614142D01*
X972676Y615287D01*
X972028Y616344D01*
X971223Y617287D01*
X970281Y618092D01*
X969224Y618739D01*
X968079Y619213D01*
X967254Y619412D01*
Y658226D01*
X971184D01*
Y675274D01*
D02*
G37*
G36*
X1013460Y675292D02*
X1012345Y675219D01*
X1011249Y675001D01*
X1010191Y674642D01*
X1009189Y674148D01*
X1008260Y673527D01*
X1007420Y672790D01*
X1006683Y671950D01*
X1006062Y671021D01*
X1005568Y670019D01*
X1005209Y668961D01*
X1004991Y667865D01*
X1004918Y666750D01*
X1004991Y665635D01*
X1005209Y664539D01*
X1005568Y663481D01*
X1006062Y662479D01*
X1006683Y661550D01*
X1007420Y660710D01*
X1008260Y659973D01*
X1008866Y659568D01*
Y637550D01*
X1008826Y637467D01*
X1007764Y636497D01*
X1007110Y636548D01*
X1005874Y636451D01*
X1004669Y636162D01*
X1003524Y635687D01*
X1002467Y635040D01*
X1001525Y634235D01*
X1000720Y633293D01*
X1000072Y632236D01*
X999598Y631091D01*
X999578Y631007D01*
X998580Y630481D01*
X997702Y630810D01*
X997637Y630966D01*
X996990Y632023D01*
X996185Y632965D01*
X995242Y633770D01*
X994186Y634417D01*
X993041Y634892D01*
X992654Y634985D01*
Y659568D01*
X993260Y659973D01*
X994100Y660710D01*
X994837Y661550D01*
X995458Y662479D01*
X995952Y663481D01*
X996311Y664539D01*
X996529Y665635D01*
X996602Y666750D01*
X996529Y667865D01*
X996311Y668961D01*
X995952Y670019D01*
X995458Y671021D01*
X994837Y671950D01*
X994100Y672790D01*
X993260Y673527D01*
X992331Y674148D01*
X991329Y674642D01*
X990271Y675001D01*
X989175Y675219D01*
X988060Y675292D01*
X986945Y675219D01*
X985849Y675001D01*
X984791Y674642D01*
X983789Y674148D01*
X982860Y673527D01*
X982020Y672790D01*
X981283Y671950D01*
X980662Y671021D01*
X980168Y670019D01*
X979809Y668961D01*
X979591Y667865D01*
X979518Y666750D01*
X979591Y665635D01*
X979809Y664539D01*
X980168Y663481D01*
X980662Y662479D01*
X981283Y661550D01*
X982020Y660710D01*
X982860Y659973D01*
X983466Y659568D01*
Y630732D01*
X983088Y629821D01*
X982799Y628616D01*
X982702Y627380D01*
X982799Y626144D01*
X983088Y624939D01*
X983562Y623794D01*
X984210Y622738D01*
X985015Y621795D01*
X985957Y620990D01*
X987014Y620342D01*
X988159Y619868D01*
X989364Y619579D01*
X990600Y619482D01*
X991836Y619579D01*
X993041Y619868D01*
X994186Y620342D01*
X995242Y620990D01*
X996185Y621795D01*
X996990Y622738D01*
X997637Y623794D01*
X998112Y624939D01*
X998132Y625023D01*
X999130Y625549D01*
X1000008Y625220D01*
X1000072Y625064D01*
X1000720Y624007D01*
X1001525Y623065D01*
X1002467Y622260D01*
X1003524Y621613D01*
X1004669Y621138D01*
X1005874Y620849D01*
X1007110Y620752D01*
X1008346Y620849D01*
X1009551Y621138D01*
X1010696Y621613D01*
X1011752Y622260D01*
X1012695Y623065D01*
X1013500Y624007D01*
X1014147Y625064D01*
X1014622Y626209D01*
X1014911Y627414D01*
X1015008Y628650D01*
X1014911Y629886D01*
X1014898Y629941D01*
X1016709Y631752D01*
X1017280Y632448D01*
X1017704Y633242D01*
X1017966Y634104D01*
X1018054Y635000D01*
Y659568D01*
X1018660Y659973D01*
X1019500Y660710D01*
X1020237Y661550D01*
X1020858Y662479D01*
X1021352Y663481D01*
X1021711Y664539D01*
X1021929Y665635D01*
X1022002Y666750D01*
X1021929Y667865D01*
X1021711Y668961D01*
X1021352Y670019D01*
X1020858Y671021D01*
X1020237Y671950D01*
X1019500Y672790D01*
X1018660Y673527D01*
X1017731Y674148D01*
X1016729Y674642D01*
X1015671Y675001D01*
X1014575Y675219D01*
X1013460Y675292D01*
D02*
G37*
G36*
X1277199Y634921D02*
Y627380D01*
X1284740D01*
X1284534Y628416D01*
X1284160Y629519D01*
X1283644Y630565D01*
X1282997Y631534D01*
X1282229Y632410D01*
X1281352Y633178D01*
X1280383Y633825D01*
X1279338Y634341D01*
X1278235Y634715D01*
X1277199Y634921D01*
D02*
G37*
G36*
X1009650Y604952D02*
X1009203Y604845D01*
X1008397Y604511D01*
X1007654Y604056D01*
X1006991Y603489D01*
X1006424Y602826D01*
X1005969Y602083D01*
X1005892Y601899D01*
X1004518D01*
X1004441Y602083D01*
X1003986Y602826D01*
X1003419Y603489D01*
X1002756Y604056D01*
X1002013Y604511D01*
X1001207Y604845D01*
X1000760Y604952D01*
Y599560D01*
X998220D01*
Y604952D01*
X997773Y604845D01*
X996967Y604511D01*
X996224Y604056D01*
X995561Y603489D01*
X994994Y602826D01*
X994539Y602083D01*
X994462Y601899D01*
X993088D01*
X993011Y602083D01*
X992556Y602826D01*
X991990Y603489D01*
X991326Y604056D01*
X990583Y604511D01*
X989777Y604845D01*
X989330Y604952D01*
Y599560D01*
X988060D01*
Y598290D01*
X982667D01*
X982775Y597843D01*
X983109Y597037D01*
X983564Y596293D01*
X984130Y595630D01*
X984794Y595064D01*
X985537Y594608D01*
X985721Y594532D01*
Y593158D01*
X985537Y593081D01*
X984794Y592626D01*
X984130Y592059D01*
X983564Y591396D01*
X983109Y590653D01*
X982775Y589847D01*
X982667Y589400D01*
X988060D01*
Y586860D01*
X982667D01*
X982775Y586413D01*
X983109Y585607D01*
X983564Y584864D01*
X984130Y584200D01*
X984794Y583634D01*
X985537Y583178D01*
X985721Y583102D01*
Y581728D01*
X985537Y581651D01*
X984794Y581196D01*
X984130Y580629D01*
X983564Y579966D01*
X983109Y579223D01*
X982775Y578417D01*
X982667Y577970D01*
X988060D01*
Y576700D01*
X989330D01*
Y571307D01*
X989777Y571415D01*
X990583Y571749D01*
X991326Y572204D01*
X991990Y572770D01*
X992556Y573433D01*
X993011Y574177D01*
X993088Y574361D01*
X994462D01*
X994539Y574177D01*
X994994Y573433D01*
X995561Y572770D01*
X996224Y572204D01*
X996967Y571749D01*
X997773Y571415D01*
X998220Y571307D01*
Y576700D01*
X1000760D01*
Y571307D01*
X1001207Y571415D01*
X1002013Y571749D01*
X1002756Y572204D01*
X1003419Y572770D01*
X1003986Y573433D01*
X1004441Y574177D01*
X1004518Y574361D01*
X1005892D01*
X1005969Y574177D01*
X1006424Y573433D01*
X1006991Y572770D01*
X1007654Y572204D01*
X1008397Y571749D01*
X1009203Y571415D01*
X1009650Y571307D01*
Y576700D01*
X1010920D01*
Y577970D01*
X1016312D01*
X1016205Y578417D01*
X1015871Y579223D01*
X1015416Y579966D01*
X1014849Y580629D01*
X1014186Y581196D01*
X1013443Y581651D01*
X1013259Y581728D01*
Y583102D01*
X1013443Y583178D01*
X1014186Y583634D01*
X1014849Y584200D01*
X1015416Y584864D01*
X1015871Y585607D01*
X1016205Y586413D01*
X1016312Y586860D01*
X1010920D01*
Y589400D01*
X1016312D01*
X1016205Y589847D01*
X1015871Y590653D01*
X1015416Y591396D01*
X1014849Y592059D01*
X1014186Y592626D01*
X1013443Y593081D01*
X1013259Y593158D01*
Y594532D01*
X1013443Y594608D01*
X1014186Y595064D01*
X1014849Y595630D01*
X1015416Y596293D01*
X1015871Y597037D01*
X1016205Y597843D01*
X1016312Y598290D01*
X1010920D01*
Y599560D01*
X1009650D01*
Y604952D01*
D02*
G37*
G36*
X1242060D02*
Y600830D01*
X1246182D01*
X1246075Y601277D01*
X1245741Y602083D01*
X1245286Y602826D01*
X1244719Y603489D01*
X1244056Y604056D01*
X1243313Y604511D01*
X1242507Y604845D01*
X1242060Y604952D01*
D02*
G37*
G36*
X1216660D02*
X1216213Y604845D01*
X1215407Y604511D01*
X1214664Y604056D01*
X1214000Y603489D01*
X1213434Y602826D01*
X1212979Y602083D01*
X1212645Y601277D01*
X1212538Y600830D01*
X1216660D01*
Y604952D01*
D02*
G37*
G36*
X914400Y668298D02*
X913164Y668201D01*
X911959Y667912D01*
X910814Y667438D01*
X909758Y666790D01*
X908815Y665985D01*
X908010Y665042D01*
X907363Y663986D01*
X906888Y662841D01*
X906599Y661636D01*
X906502Y660400D01*
X906599Y659164D01*
X906888Y657959D01*
X907363Y656814D01*
X908010Y655758D01*
X908815Y654815D01*
X909758Y654010D01*
X910814Y653363D01*
X911959Y652888D01*
X913164Y652599D01*
X914400Y652502D01*
X915636Y652599D01*
X915691Y652612D01*
X929493Y638810D01*
X929073Y638390D01*
X928502Y637694D01*
X928077Y636900D01*
X927816Y636038D01*
X927727Y635141D01*
Y615991D01*
X927679Y615961D01*
X926737Y615156D01*
X925932Y614214D01*
X925284Y613157D01*
X924810Y612012D01*
X924520Y610807D01*
X924518Y610772D01*
X923206Y610288D01*
X905391Y628103D01*
X904807Y628551D01*
X904128Y628832D01*
X903398Y628928D01*
X775967D01*
X775554Y630146D01*
X774944Y631383D01*
X774177Y632530D01*
X773268Y633568D01*
X772230Y634477D01*
X771083Y635244D01*
X769846Y635854D01*
X768540Y636297D01*
X767187Y636566D01*
X765810Y636657D01*
X764433Y636566D01*
X763080Y636297D01*
X761774Y635854D01*
X760537Y635244D01*
X759390Y634477D01*
X758353Y633568D01*
X757443Y632530D01*
X756676Y631383D01*
X756066Y630146D01*
X755623Y628840D01*
X755354Y627487D01*
X755263Y626110D01*
X755354Y624733D01*
X755623Y623380D01*
X756066Y622074D01*
X756676Y620837D01*
X757443Y619690D01*
X758353Y618652D01*
X759390Y617743D01*
X760537Y616976D01*
X761774Y616366D01*
X763080Y615923D01*
X764433Y615654D01*
X765810Y615563D01*
X767187Y615654D01*
X768540Y615923D01*
X769846Y616366D01*
X771083Y616976D01*
X772230Y617743D01*
X773268Y618652D01*
X774177Y619690D01*
X774944Y620837D01*
X775554Y622074D01*
X775967Y623292D01*
X902231D01*
X920453Y605069D01*
X920455Y605054D01*
X920655Y604572D01*
X920378Y604013D01*
X919833Y603466D01*
X919360Y603528D01*
X776334D01*
Y611234D01*
X755286D01*
Y590186D01*
X776334D01*
Y597892D01*
X918193D01*
X1046086Y469999D01*
X1045526Y468763D01*
X1045210Y468783D01*
X1044030Y468706D01*
X1042869Y468475D01*
X1041749Y468095D01*
X1040688Y467572D01*
X1039705Y466915D01*
X1038815Y466135D01*
X1038035Y465245D01*
X1037378Y464262D01*
X1036855Y463201D01*
X1036475Y462081D01*
X1036244Y460920D01*
X1036167Y459740D01*
X1036244Y458560D01*
X1036475Y457399D01*
X1036855Y456279D01*
X1037378Y455218D01*
X1038035Y454235D01*
X1038815Y453345D01*
X1039705Y452565D01*
X1040688Y451908D01*
X1041749Y451385D01*
X1042869Y451005D01*
X1044030Y450774D01*
X1045210Y450697D01*
X1046390Y450774D01*
X1047551Y451005D01*
X1048671Y451385D01*
X1049732Y451908D01*
X1050715Y452565D01*
X1051605Y453345D01*
X1052385Y454235D01*
X1053042Y455218D01*
X1053565Y456279D01*
X1053945Y457399D01*
X1054176Y458560D01*
X1054253Y459740D01*
X1054233Y460056D01*
X1055469Y460616D01*
X1058337Y457747D01*
X1058921Y457299D01*
X1059601Y457018D01*
X1060330Y456922D01*
X1062037D01*
X1062255Y456279D01*
X1062778Y455218D01*
X1063435Y454235D01*
X1064215Y453345D01*
X1065105Y452565D01*
X1066088Y451908D01*
X1067149Y451385D01*
X1068269Y451005D01*
X1069430Y450774D01*
X1070610Y450697D01*
X1071790Y450774D01*
X1072951Y451005D01*
X1074071Y451385D01*
X1074679Y451685D01*
X1081317Y445047D01*
X1081901Y444599D01*
X1082581Y444318D01*
X1083310Y444222D01*
X1200420D01*
X1200746Y443826D01*
X1201434Y443260D01*
X1202220Y442840D01*
X1202753Y442679D01*
X1202565Y441409D01*
X983453D01*
X924992Y499870D01*
X925042Y500380D01*
X924955Y501267D01*
X924696Y502120D01*
X924276Y502906D01*
X923710Y503594D01*
X923022Y504160D01*
X922236Y504580D01*
X921383Y504838D01*
X920496Y504926D01*
X919609Y504838D01*
X918756Y504580D01*
X917970Y504160D01*
X917282Y503594D01*
X916716Y502906D01*
X916296Y502120D01*
X916038Y501267D01*
X915950Y500380D01*
X916038Y499493D01*
X916296Y498640D01*
X916716Y497854D01*
X917282Y497166D01*
X917970Y496600D01*
X918756Y496180D01*
X919609Y495922D01*
X920496Y495834D01*
X921006Y495884D01*
X980293Y436598D01*
X980876Y436150D01*
X981556Y435868D01*
X982286Y435772D01*
X1303461D01*
X1304190Y435868D01*
X1304870Y436150D01*
X1305453Y436598D01*
X1320541Y451685D01*
X1321149Y451385D01*
X1322269Y451005D01*
X1323430Y450774D01*
X1324610Y450697D01*
X1325790Y450774D01*
X1326951Y451005D01*
X1328071Y451385D01*
X1329132Y451908D01*
X1330115Y452565D01*
X1331005Y453345D01*
X1331785Y454235D01*
X1332442Y455218D01*
X1332965Y456279D01*
X1333345Y457399D01*
X1333576Y458560D01*
X1333653Y459740D01*
X1333576Y460920D01*
X1333345Y462081D01*
X1332965Y463201D01*
X1332442Y464262D01*
X1331785Y465245D01*
X1331005Y466135D01*
X1330115Y466915D01*
X1329132Y467572D01*
X1328071Y468095D01*
X1327314Y468352D01*
X1327523Y469622D01*
X1336143D01*
X1340986Y464779D01*
Y450716D01*
X1359034D01*
Y468764D01*
X1344971D01*
X1339303Y474433D01*
X1338719Y474881D01*
X1338039Y475162D01*
X1337310Y475258D01*
X1327523D01*
X1327314Y476528D01*
X1328071Y476785D01*
X1329132Y477308D01*
X1330115Y477965D01*
X1331005Y478745D01*
X1331785Y479635D01*
X1332442Y480618D01*
X1332965Y481679D01*
X1333345Y482799D01*
X1333576Y483960D01*
X1333653Y485140D01*
X1333576Y486320D01*
X1333345Y487481D01*
X1332965Y488601D01*
X1332442Y489662D01*
X1331785Y490645D01*
X1331005Y491535D01*
X1330115Y492315D01*
X1329132Y492972D01*
X1328071Y493495D01*
X1326951Y493875D01*
X1325790Y494106D01*
X1324610Y494183D01*
X1323430Y494106D01*
X1322269Y493875D01*
X1321149Y493495D01*
X1320088Y492972D01*
X1319105Y492315D01*
X1318215Y491535D01*
X1317435Y490645D01*
X1316778Y489662D01*
X1316255Y488601D01*
X1315875Y487481D01*
X1315644Y486320D01*
X1315567Y485140D01*
X1315644Y483960D01*
X1315875Y482799D01*
X1316255Y481679D01*
X1316778Y480618D01*
X1317435Y479635D01*
X1318215Y478745D01*
X1319105Y477965D01*
X1320088Y477308D01*
X1321149Y476785D01*
X1321906Y476528D01*
X1321696Y475258D01*
X1302124D01*
X1301914Y476528D01*
X1302671Y476785D01*
X1303732Y477308D01*
X1304715Y477965D01*
X1305605Y478745D01*
X1306385Y479635D01*
X1307042Y480618D01*
X1307565Y481679D01*
X1307945Y482799D01*
X1308176Y483960D01*
X1308253Y485140D01*
X1308176Y486320D01*
X1307945Y487481D01*
X1307565Y488601D01*
X1307042Y489662D01*
X1306385Y490645D01*
X1305605Y491535D01*
X1304715Y492315D01*
X1303732Y492972D01*
X1302671Y493495D01*
X1301551Y493875D01*
X1300390Y494106D01*
X1299210Y494183D01*
X1298030Y494106D01*
X1296869Y493875D01*
X1295749Y493495D01*
X1294688Y492972D01*
X1293705Y492315D01*
X1292815Y491535D01*
X1292035Y490645D01*
X1291378Y489662D01*
X1290855Y488601D01*
X1290475Y487481D01*
X1290244Y486320D01*
X1290167Y485140D01*
X1290244Y483960D01*
X1290475Y482799D01*
X1290855Y481679D01*
X1291378Y480618D01*
X1292035Y479635D01*
X1292815Y478745D01*
X1293705Y477965D01*
X1294688Y477308D01*
X1295749Y476785D01*
X1296506Y476528D01*
X1296297Y475258D01*
X1276723D01*
X1276514Y476528D01*
X1277271Y476785D01*
X1278332Y477308D01*
X1279315Y477965D01*
X1280205Y478745D01*
X1280985Y479635D01*
X1281642Y480618D01*
X1282165Y481679D01*
X1282545Y482799D01*
X1282776Y483960D01*
X1282853Y485140D01*
X1282776Y486320D01*
X1282545Y487481D01*
X1282165Y488601D01*
X1281642Y489662D01*
X1280985Y490645D01*
X1280205Y491535D01*
X1279315Y492315D01*
X1278332Y492972D01*
X1277271Y493495D01*
X1276151Y493875D01*
X1274990Y494106D01*
X1273810Y494183D01*
X1272630Y494106D01*
X1271469Y493875D01*
X1270349Y493495D01*
X1269288Y492972D01*
X1268305Y492315D01*
X1267415Y491535D01*
X1266635Y490645D01*
X1265978Y489662D01*
X1265455Y488601D01*
X1265075Y487481D01*
X1264844Y486320D01*
X1264767Y485140D01*
X1264844Y483960D01*
X1265075Y482799D01*
X1265455Y481679D01*
X1265978Y480618D01*
X1266635Y479635D01*
X1267415Y478745D01*
X1268305Y477965D01*
X1269288Y477308D01*
X1270349Y476785D01*
X1271106Y476528D01*
X1270897Y475258D01*
X1251323D01*
X1251114Y476528D01*
X1251871Y476785D01*
X1252932Y477308D01*
X1253915Y477965D01*
X1254805Y478745D01*
X1255585Y479635D01*
X1256242Y480618D01*
X1256765Y481679D01*
X1257145Y482799D01*
X1257376Y483960D01*
X1257453Y485140D01*
X1257376Y486320D01*
X1257145Y487481D01*
X1256765Y488601D01*
X1256242Y489662D01*
X1255585Y490645D01*
X1254805Y491535D01*
X1253915Y492315D01*
X1252932Y492972D01*
X1251871Y493495D01*
X1250751Y493875D01*
X1249590Y494106D01*
X1248410Y494183D01*
X1247230Y494106D01*
X1246069Y493875D01*
X1244949Y493495D01*
X1243888Y492972D01*
X1242905Y492315D01*
X1242015Y491535D01*
X1241235Y490645D01*
X1240578Y489662D01*
X1240055Y488601D01*
X1239675Y487481D01*
X1239444Y486320D01*
X1239367Y485140D01*
X1239444Y483960D01*
X1239675Y482799D01*
X1240055Y481679D01*
X1240578Y480618D01*
X1241235Y479635D01*
X1242015Y478745D01*
X1242905Y477965D01*
X1243888Y477308D01*
X1244949Y476785D01*
X1245706Y476528D01*
X1245497Y475258D01*
X1225923D01*
X1225714Y476528D01*
X1226471Y476785D01*
X1227532Y477308D01*
X1228515Y477965D01*
X1229405Y478745D01*
X1230185Y479635D01*
X1230842Y480618D01*
X1231365Y481679D01*
X1231745Y482799D01*
X1231976Y483960D01*
X1232053Y485140D01*
X1231976Y486320D01*
X1231745Y487481D01*
X1231365Y488601D01*
X1230842Y489662D01*
X1230185Y490645D01*
X1229405Y491535D01*
X1228515Y492315D01*
X1227532Y492972D01*
X1226471Y493495D01*
X1225351Y493875D01*
X1224190Y494106D01*
X1223010Y494183D01*
X1221830Y494106D01*
X1220669Y493875D01*
X1219549Y493495D01*
X1218488Y492972D01*
X1217505Y492315D01*
X1216615Y491535D01*
X1215835Y490645D01*
X1215178Y489662D01*
X1214655Y488601D01*
X1214275Y487481D01*
X1214044Y486320D01*
X1213967Y485140D01*
X1214044Y483960D01*
X1214275Y482799D01*
X1214655Y481679D01*
X1215178Y480618D01*
X1215835Y479635D01*
X1216615Y478745D01*
X1217505Y477965D01*
X1218488Y477308D01*
X1219549Y476785D01*
X1220306Y476528D01*
X1220097Y475258D01*
X1182149D01*
X1181234Y476116D01*
X1181234Y476528D01*
Y494164D01*
X1163186D01*
Y476528D01*
X1163186Y476116D01*
X1162271Y475258D01*
X1149724D01*
X1149514Y476528D01*
X1150271Y476785D01*
X1151332Y477308D01*
X1152315Y477965D01*
X1153205Y478745D01*
X1153985Y479635D01*
X1154642Y480618D01*
X1155165Y481679D01*
X1155545Y482799D01*
X1155776Y483960D01*
X1155853Y485140D01*
X1155776Y486320D01*
X1155545Y487481D01*
X1155165Y488601D01*
X1154642Y489662D01*
X1153985Y490645D01*
X1153205Y491535D01*
X1152315Y492315D01*
X1151332Y492972D01*
X1150271Y493495D01*
X1149151Y493875D01*
X1147990Y494106D01*
X1146810Y494183D01*
X1145630Y494106D01*
X1144469Y493875D01*
X1143349Y493495D01*
X1142288Y492972D01*
X1141305Y492315D01*
X1140415Y491535D01*
X1139635Y490645D01*
X1138978Y489662D01*
X1138455Y488601D01*
X1138075Y487481D01*
X1137844Y486320D01*
X1137767Y485140D01*
X1137844Y483960D01*
X1138075Y482799D01*
X1138455Y481679D01*
X1138978Y480618D01*
X1139635Y479635D01*
X1140415Y478745D01*
X1141305Y477965D01*
X1142288Y477308D01*
X1143349Y476785D01*
X1144106Y476528D01*
X1143896Y475258D01*
X1124324D01*
X1124114Y476528D01*
X1124871Y476785D01*
X1125932Y477308D01*
X1126915Y477965D01*
X1127805Y478745D01*
X1128585Y479635D01*
X1129242Y480618D01*
X1129765Y481679D01*
X1130145Y482799D01*
X1130376Y483960D01*
X1130453Y485140D01*
X1130376Y486320D01*
X1130145Y487481D01*
X1129765Y488601D01*
X1129242Y489662D01*
X1128585Y490645D01*
X1127805Y491535D01*
X1126915Y492315D01*
X1125932Y492972D01*
X1124871Y493495D01*
X1123751Y493875D01*
X1122590Y494106D01*
X1121410Y494183D01*
X1120230Y494106D01*
X1119069Y493875D01*
X1117949Y493495D01*
X1116888Y492972D01*
X1115905Y492315D01*
X1115015Y491535D01*
X1114235Y490645D01*
X1113578Y489662D01*
X1113055Y488601D01*
X1112675Y487481D01*
X1112444Y486320D01*
X1112367Y485140D01*
X1112444Y483960D01*
X1112675Y482799D01*
X1113055Y481679D01*
X1113578Y480618D01*
X1114235Y479635D01*
X1115015Y478745D01*
X1115905Y477965D01*
X1116888Y477308D01*
X1117949Y476785D01*
X1118706Y476528D01*
X1118496Y475258D01*
X1098923D01*
X1098714Y476528D01*
X1099471Y476785D01*
X1100532Y477308D01*
X1101515Y477965D01*
X1102405Y478745D01*
X1103185Y479635D01*
X1103842Y480618D01*
X1104365Y481679D01*
X1104745Y482799D01*
X1104976Y483960D01*
X1105053Y485140D01*
X1104976Y486320D01*
X1104745Y487481D01*
X1104365Y488601D01*
X1103842Y489662D01*
X1103185Y490645D01*
X1102405Y491535D01*
X1101515Y492315D01*
X1100532Y492972D01*
X1099471Y493495D01*
X1098351Y493875D01*
X1097190Y494106D01*
X1096010Y494183D01*
X1094830Y494106D01*
X1093669Y493875D01*
X1092549Y493495D01*
X1091488Y492972D01*
X1090505Y492315D01*
X1089615Y491535D01*
X1088835Y490645D01*
X1088178Y489662D01*
X1087655Y488601D01*
X1087275Y487481D01*
X1087044Y486320D01*
X1086967Y485140D01*
X1087044Y483960D01*
X1087275Y482799D01*
X1087655Y481679D01*
X1088178Y480618D01*
X1088835Y479635D01*
X1089615Y478745D01*
X1090505Y477965D01*
X1091488Y477308D01*
X1092549Y476785D01*
X1093306Y476528D01*
X1093096Y475258D01*
X1057688D01*
X932531Y600415D01*
X933015Y601727D01*
X933557Y601770D01*
X934762Y602059D01*
X935907Y602534D01*
X936964Y603181D01*
X937906Y603986D01*
X938711Y604929D01*
X939359Y605985D01*
X939833Y607130D01*
X940123Y608335D01*
X940220Y609571D01*
X940123Y610807D01*
X939833Y612012D01*
X939359Y613157D01*
X938711Y614214D01*
X937906Y615156D01*
X936964Y615961D01*
X936916Y615991D01*
Y633239D01*
X939239Y635561D01*
X939810Y636258D01*
X939819Y636275D01*
X941068Y635918D01*
X941051Y635650D01*
X941127Y634487D01*
X941355Y633344D01*
X941729Y632241D01*
X942244Y631196D01*
X942892Y630227D01*
X943660Y629351D01*
X944537Y628582D01*
X945505Y627935D01*
X946551Y627419D01*
X947654Y627045D01*
X948690Y626839D01*
Y635650D01*
Y644462D01*
X947654Y644256D01*
X946551Y643881D01*
X945505Y643366D01*
X944537Y642718D01*
X943660Y641950D01*
X942892Y641074D01*
X942244Y640105D01*
X941818Y639240D01*
X941678Y639224D01*
X940496Y639706D01*
X940234Y640568D01*
X939810Y641362D01*
X939239Y642058D01*
X922188Y659109D01*
X922201Y659164D01*
X922298Y660400D01*
X922201Y661636D01*
X921912Y662841D01*
X921438Y663986D01*
X920790Y665042D01*
X919985Y665985D01*
X919043Y666790D01*
X917986Y667438D01*
X916841Y667912D01*
X915636Y668201D01*
X914400Y668298D01*
D02*
G37*
G36*
X1201054Y675274D02*
X1184006D01*
Y658226D01*
X1187936D01*
Y614680D01*
X1188024Y613784D01*
X1188286Y612922D01*
X1188710Y612128D01*
X1189281Y611432D01*
X1189978Y610860D01*
X1190772Y610436D01*
X1191634Y610174D01*
X1192192Y610119D01*
X1192669Y609340D01*
X1193474Y608397D01*
X1194417Y607593D01*
X1195474Y606945D01*
X1196619Y606471D01*
X1197824Y606181D01*
X1199059Y606084D01*
X1200295Y606181D01*
X1201500Y606471D01*
X1202645Y606945D01*
X1203702Y607593D01*
X1204644Y608397D01*
X1205449Y609340D01*
X1206097Y610397D01*
X1206571Y611542D01*
X1206861Y612747D01*
X1206958Y613983D01*
X1206861Y615218D01*
X1206571Y616423D01*
X1206097Y617568D01*
X1205449Y618625D01*
X1204644Y619567D01*
X1203702Y620372D01*
X1202645Y621020D01*
X1201500Y621494D01*
X1200295Y621784D01*
X1199059Y621881D01*
X1198394Y621828D01*
X1197124Y622744D01*
Y658226D01*
X1201054D01*
Y675274D01*
D02*
G37*
G36*
X1239520Y604952D02*
X1239073Y604845D01*
X1238267Y604511D01*
X1237524Y604056D01*
X1236861Y603489D01*
X1236294Y602826D01*
X1235839Y602083D01*
X1235762Y601899D01*
X1234388D01*
X1234311Y602083D01*
X1233856Y602826D01*
X1233289Y603489D01*
X1232626Y604056D01*
X1231883Y604511D01*
X1231077Y604845D01*
X1230630Y604952D01*
Y599560D01*
X1228090D01*
Y604952D01*
X1227643Y604845D01*
X1226837Y604511D01*
X1226094Y604056D01*
X1225431Y603489D01*
X1224864Y602826D01*
X1224409Y602083D01*
X1224332Y601899D01*
X1222958D01*
X1222881Y602083D01*
X1222426Y602826D01*
X1221860Y603489D01*
X1221196Y604056D01*
X1220453Y604511D01*
X1219647Y604845D01*
X1219200Y604952D01*
Y599560D01*
X1217930D01*
Y598290D01*
X1212538D01*
X1212645Y597843D01*
X1212979Y597037D01*
X1213434Y596293D01*
X1214000Y595630D01*
X1214664Y595064D01*
X1215407Y594608D01*
X1215591Y594532D01*
Y593158D01*
X1215407Y593081D01*
X1214664Y592626D01*
X1214000Y592059D01*
X1213434Y591396D01*
X1212979Y590653D01*
X1212645Y589847D01*
X1212538Y589400D01*
X1217930D01*
Y586860D01*
X1212538D01*
X1212645Y586413D01*
X1212979Y585607D01*
X1213434Y584864D01*
X1214000Y584200D01*
X1214664Y583634D01*
X1215407Y583178D01*
X1215591Y583102D01*
Y581728D01*
X1215407Y581651D01*
X1214664Y581196D01*
X1214000Y580629D01*
X1213434Y579966D01*
X1212979Y579223D01*
X1212645Y578417D01*
X1212538Y577970D01*
X1217930D01*
Y576700D01*
X1219200D01*
Y571307D01*
X1219647Y571415D01*
X1220453Y571749D01*
X1221196Y572204D01*
X1221860Y572770D01*
X1222426Y573433D01*
X1222881Y574177D01*
X1222958Y574361D01*
X1224332D01*
X1224409Y574177D01*
X1224864Y573433D01*
X1225431Y572770D01*
X1226094Y572204D01*
X1226837Y571749D01*
X1227643Y571415D01*
X1228090Y571307D01*
Y576700D01*
X1230630D01*
Y571307D01*
X1231077Y571415D01*
X1231883Y571749D01*
X1232626Y572204D01*
X1233289Y572770D01*
X1233856Y573433D01*
X1234311Y574177D01*
X1234388Y574361D01*
X1235762D01*
X1235839Y574177D01*
X1236294Y573433D01*
X1236861Y572770D01*
X1237524Y572204D01*
X1238267Y571749D01*
X1239073Y571415D01*
X1239520Y571307D01*
Y576700D01*
X1240790D01*
Y577970D01*
X1246182D01*
X1246075Y578417D01*
X1245741Y579223D01*
X1245286Y579966D01*
X1244719Y580629D01*
X1244056Y581196D01*
X1243313Y581651D01*
X1243129Y581728D01*
Y583102D01*
X1243313Y583178D01*
X1244056Y583634D01*
X1244719Y584200D01*
X1245286Y584864D01*
X1245741Y585607D01*
X1246075Y586413D01*
X1246182Y586860D01*
X1240790D01*
Y589400D01*
X1246182D01*
X1246075Y589847D01*
X1245741Y590653D01*
X1245286Y591396D01*
X1244719Y592059D01*
X1244056Y592626D01*
X1243313Y593081D01*
X1243129Y593158D01*
Y594532D01*
X1243313Y594608D01*
X1244056Y595064D01*
X1244719Y595630D01*
X1245286Y596293D01*
X1245741Y597037D01*
X1246075Y597843D01*
X1246182Y598290D01*
X1240790D01*
Y599560D01*
X1239520D01*
Y604952D01*
D02*
G37*
G36*
X1282673Y961695D02*
X1152933D01*
X1152203Y961599D01*
X1151524Y961317D01*
X1150940Y960869D01*
X1146849Y956779D01*
X1146401Y956195D01*
X1146120Y955515D01*
X1146024Y954786D01*
Y888897D01*
X1056843Y799716D01*
X1055699Y799242D01*
X1054642Y798595D01*
X1053700Y797790D01*
X1052895Y796847D01*
X1052247Y795790D01*
X1051773Y794645D01*
X1051483Y793440D01*
X1051386Y792205D01*
X1051483Y790969D01*
X1051773Y789764D01*
X1052247Y788619D01*
X1052895Y787562D01*
X1053700Y786620D01*
X1054642Y785815D01*
X1055699Y785167D01*
X1056844Y784693D01*
X1058049Y784404D01*
X1059207Y784313D01*
X1059356Y784121D01*
X1059760Y783070D01*
X1058178Y781488D01*
X1043930D01*
X1043612Y782256D01*
X1042964Y783313D01*
X1042159Y784255D01*
X1041752Y784602D01*
X1041719Y785033D01*
X1042015Y786034D01*
X1042799Y786359D01*
X1043856Y787007D01*
X1044798Y787812D01*
X1045603Y788754D01*
X1046251Y789811D01*
X1046725Y790956D01*
X1047014Y792161D01*
X1047112Y793397D01*
X1047014Y794632D01*
X1047001Y794688D01*
X1092908Y840595D01*
X1093480Y841291D01*
X1093619Y841551D01*
X1094303Y841970D01*
X1095245Y842775D01*
X1096050Y843717D01*
X1096697Y844774D01*
X1097172Y845919D01*
X1097461Y847124D01*
X1097558Y848360D01*
X1097461Y849596D01*
X1097172Y850801D01*
X1096697Y851946D01*
X1096050Y853002D01*
X1095245Y853945D01*
X1094303Y854750D01*
X1093246Y855397D01*
X1092101Y855872D01*
X1090896Y856161D01*
X1089660Y856258D01*
X1088424Y856161D01*
X1087219Y855872D01*
X1086074Y855397D01*
X1085017Y854750D01*
X1084075Y853945D01*
X1083270Y853002D01*
X1082623Y851946D01*
X1082148Y850801D01*
X1081859Y849596D01*
X1081762Y848360D01*
X1081859Y847124D01*
X1082148Y845919D01*
X1082623Y844774D01*
X1083182Y843862D01*
X1041153Y801834D01*
X1040471Y801941D01*
X1040208Y802204D01*
X1039735Y803316D01*
X1040022Y804009D01*
X1040311Y805214D01*
X1040408Y806450D01*
X1040311Y807686D01*
X1040022Y808891D01*
X1039644Y809802D01*
Y852608D01*
X1040250Y853013D01*
X1041090Y853750D01*
X1041827Y854590D01*
X1042448Y855519D01*
X1042942Y856521D01*
X1043301Y857579D01*
X1043519Y858675D01*
X1043592Y859790D01*
X1043519Y860905D01*
X1043301Y862001D01*
X1042942Y863059D01*
X1042448Y864061D01*
X1041827Y864990D01*
X1041090Y865830D01*
X1040250Y866567D01*
X1039321Y867188D01*
X1038319Y867682D01*
X1037261Y868041D01*
X1036165Y868259D01*
X1035050Y868332D01*
X1033935Y868259D01*
X1032839Y868041D01*
X1031781Y867682D01*
X1030779Y867188D01*
X1029850Y866567D01*
X1029010Y865830D01*
X1028273Y864990D01*
X1027652Y864061D01*
X1027158Y863059D01*
X1026799Y862001D01*
X1026581Y860905D01*
X1026508Y859790D01*
X1026581Y858675D01*
X1026799Y857579D01*
X1027158Y856521D01*
X1027652Y855519D01*
X1028273Y854590D01*
X1029010Y853750D01*
X1029850Y853013D01*
X1030456Y852608D01*
Y814055D01*
X1030069Y813962D01*
X1028924Y813487D01*
X1027868Y812840D01*
X1026925Y812035D01*
X1026120Y811093D01*
X1025472Y810036D01*
X1024998Y808891D01*
X1024709Y807686D01*
X1024612Y806450D01*
X1024709Y805214D01*
X1024998Y804009D01*
X1025472Y802864D01*
X1026120Y801807D01*
X1026925Y800865D01*
X1027868Y800060D01*
X1028924Y799413D01*
X1030069Y798938D01*
X1031274Y798649D01*
X1031687Y798616D01*
X1032364Y797289D01*
X1032176Y796982D01*
X1031702Y795837D01*
X1031412Y794632D01*
X1031315Y793397D01*
X1031412Y792161D01*
X1031702Y790956D01*
X1032176Y789811D01*
X1032823Y788754D01*
X1033628Y787812D01*
X1034035Y787464D01*
X1034068Y787034D01*
X1033773Y786032D01*
X1032988Y785707D01*
X1031932Y785060D01*
X1030989Y784255D01*
X1030184Y783313D01*
X1029537Y782256D01*
X1029062Y781111D01*
X1028773Y779906D01*
X1028676Y778670D01*
X1028773Y777434D01*
X1029062Y776229D01*
X1029537Y775084D01*
X1030184Y774027D01*
X1030989Y773085D01*
X1031932Y772280D01*
X1032988Y771633D01*
X1034133Y771158D01*
X1035338Y770869D01*
X1036574Y770772D01*
X1037810Y770869D01*
X1039015Y771158D01*
X1040160Y771633D01*
X1041217Y772280D01*
X1042159Y773085D01*
X1042964Y774027D01*
X1043612Y775084D01*
X1043930Y775852D01*
X1059346D01*
X1060075Y775948D01*
X1060755Y776229D01*
X1061338Y776677D01*
X1186492Y901831D01*
X1186940Y902415D01*
X1187222Y903095D01*
X1187318Y903824D01*
X1187318Y903824D01*
Y916576D01*
X1188588Y916617D01*
X1188644Y915760D01*
X1188875Y914599D01*
X1189255Y913479D01*
X1189778Y912418D01*
X1190435Y911435D01*
X1191215Y910545D01*
X1192105Y909765D01*
X1193088Y909108D01*
X1194149Y908585D01*
X1195269Y908205D01*
X1196430Y907974D01*
X1197610Y907897D01*
X1198790Y907974D01*
X1199951Y908205D01*
X1201071Y908585D01*
X1202132Y909108D01*
X1203115Y909765D01*
X1204005Y910545D01*
X1204785Y911435D01*
X1205442Y912418D01*
X1205965Y913479D01*
X1206345Y914599D01*
X1206576Y915760D01*
X1206653Y916940D01*
X1206576Y918120D01*
X1206345Y919281D01*
X1205965Y920401D01*
X1205442Y921462D01*
X1204785Y922445D01*
X1204005Y923335D01*
X1203115Y924115D01*
X1202132Y924772D01*
X1201071Y925295D01*
X1199951Y925675D01*
X1198790Y925906D01*
X1197610Y925983D01*
X1196430Y925906D01*
X1195269Y925675D01*
X1194149Y925295D01*
X1193088Y924772D01*
X1192105Y924115D01*
X1191215Y923335D01*
X1190435Y922445D01*
X1189778Y921462D01*
X1189255Y920401D01*
X1188875Y919281D01*
X1188644Y918120D01*
X1188588Y917263D01*
X1187318Y917304D01*
Y928062D01*
X1193541Y934285D01*
X1194149Y933985D01*
X1195269Y933605D01*
X1196430Y933374D01*
X1197610Y933297D01*
X1198790Y933374D01*
X1199951Y933605D01*
X1201071Y933985D01*
X1202132Y934508D01*
X1203115Y935165D01*
X1204005Y935945D01*
X1204785Y936835D01*
X1205442Y937818D01*
X1205965Y938879D01*
X1206345Y939999D01*
X1206576Y941160D01*
X1206653Y942340D01*
X1206576Y943520D01*
X1206345Y944681D01*
X1205965Y945801D01*
X1205442Y946862D01*
X1204785Y947845D01*
X1204005Y948735D01*
X1203115Y949515D01*
X1202132Y950172D01*
X1201071Y950695D01*
X1199951Y951075D01*
X1198790Y951306D01*
X1197610Y951383D01*
X1196430Y951306D01*
X1195269Y951075D01*
X1194149Y950695D01*
X1193088Y950172D01*
X1192105Y949515D01*
X1191215Y948735D01*
X1190435Y947845D01*
X1189778Y946862D01*
X1189255Y945801D01*
X1188875Y944681D01*
X1188644Y943520D01*
X1188567Y942340D01*
X1188644Y941160D01*
X1188875Y939999D01*
X1189255Y938879D01*
X1189555Y938271D01*
X1182507Y931222D01*
X1182059Y930639D01*
X1181778Y929959D01*
X1181682Y929230D01*
Y921008D01*
X1180412Y920712D01*
X1180042Y921462D01*
X1179385Y922445D01*
X1178605Y923335D01*
X1177715Y924115D01*
X1176732Y924772D01*
X1175671Y925295D01*
X1174551Y925675D01*
X1173390Y925906D01*
X1172210Y925983D01*
X1171030Y925906D01*
X1169869Y925675D01*
X1168749Y925295D01*
X1167688Y924772D01*
X1166705Y924115D01*
X1165815Y923335D01*
X1165035Y922445D01*
X1164378Y921462D01*
X1163855Y920401D01*
X1163475Y919281D01*
X1163244Y918120D01*
X1163167Y916940D01*
X1163244Y915760D01*
X1163475Y914599D01*
X1163855Y913479D01*
X1164378Y912418D01*
X1165035Y911435D01*
X1165815Y910545D01*
X1166705Y909765D01*
X1167688Y909108D01*
X1168749Y908585D01*
X1169869Y908205D01*
X1171030Y907974D01*
X1172210Y907897D01*
X1173390Y907974D01*
X1174551Y908205D01*
X1175671Y908585D01*
X1176732Y909108D01*
X1177715Y909765D01*
X1178605Y910545D01*
X1179385Y911435D01*
X1180042Y912418D01*
X1180412Y913168D01*
X1181682Y912872D01*
Y904991D01*
X1068419Y791729D01*
X1067368Y792133D01*
X1067177Y792283D01*
X1067086Y793440D01*
X1066796Y794645D01*
X1066322Y795790D01*
X1065674Y796847D01*
X1064870Y797790D01*
X1064769Y797876D01*
X1064681Y799584D01*
X1150835Y885737D01*
X1151283Y886321D01*
X1151564Y887001D01*
X1151660Y887730D01*
Y953619D01*
X1154100Y956059D01*
X1211967D01*
X1212453Y954885D01*
X1209123Y951555D01*
X1208675Y950972D01*
X1208394Y950292D01*
X1208298Y949563D01*
Y909007D01*
X1065315Y766025D01*
X1064867Y765441D01*
X1064586Y764761D01*
X1064490Y764032D01*
Y625592D01*
X1063722Y625274D01*
X1062665Y624626D01*
X1061723Y623821D01*
X1060918Y622878D01*
X1060270Y621822D01*
X1059796Y620677D01*
X1059507Y619472D01*
X1059410Y618236D01*
X1059507Y617000D01*
X1059796Y615795D01*
X1060270Y614650D01*
X1060918Y613593D01*
X1061723Y612651D01*
X1062665Y611846D01*
X1063722Y611199D01*
X1064867Y610724D01*
X1066072Y610435D01*
X1067308Y610338D01*
X1068544Y610435D01*
X1069749Y610724D01*
X1070894Y611199D01*
X1071951Y611846D01*
X1072893Y612651D01*
X1073698Y613593D01*
X1074345Y614650D01*
X1074820Y615795D01*
X1075109Y617000D01*
X1075206Y618236D01*
X1075109Y619472D01*
X1074820Y620677D01*
X1074345Y621822D01*
X1073698Y622878D01*
X1072893Y623821D01*
X1071951Y624626D01*
X1070894Y625274D01*
X1070126Y625592D01*
Y668292D01*
X1071310Y668759D01*
X1071396Y668767D01*
X1072318Y667980D01*
X1073374Y667333D01*
X1074519Y666858D01*
X1075724Y666569D01*
X1076960Y666472D01*
X1078196Y666569D01*
X1079401Y666858D01*
X1080546Y667333D01*
X1081602Y667980D01*
X1082545Y668785D01*
X1083350Y669727D01*
X1083997Y670784D01*
X1084472Y671929D01*
X1084761Y673134D01*
X1084858Y674370D01*
X1084761Y675606D01*
X1084472Y676811D01*
X1083997Y677956D01*
X1083350Y679013D01*
X1082545Y679955D01*
X1081602Y680760D01*
X1080546Y681407D01*
X1079778Y681725D01*
Y711811D01*
X1146199Y778232D01*
X1152882D01*
Y742950D01*
X1152978Y742221D01*
X1153259Y741541D01*
X1153707Y740957D01*
X1154856Y739808D01*
X1154538Y739041D01*
X1154249Y737836D01*
X1154152Y736600D01*
X1154249Y735364D01*
X1154538Y734159D01*
X1155013Y733014D01*
X1155660Y731957D01*
X1156465Y731015D01*
X1157408Y730210D01*
X1158464Y729563D01*
X1159609Y729088D01*
X1160814Y728799D01*
X1162050Y728702D01*
X1163286Y728799D01*
X1164491Y729088D01*
X1165636Y729563D01*
X1166693Y730210D01*
X1167635Y731015D01*
X1168440Y731957D01*
X1169088Y733014D01*
X1169562Y734159D01*
X1169851Y735364D01*
X1169948Y736600D01*
X1169851Y737836D01*
X1169562Y739041D01*
X1169088Y740186D01*
X1168440Y741243D01*
X1167635Y742185D01*
X1166693Y742990D01*
X1165636Y743637D01*
X1164491Y744112D01*
X1163286Y744401D01*
X1162050Y744498D01*
X1160814Y744401D01*
X1159788Y744155D01*
X1159301Y744373D01*
X1158518Y745034D01*
Y781050D01*
Y815604D01*
X1159286Y815922D01*
X1160342Y816570D01*
X1161285Y817375D01*
X1162090Y818317D01*
X1162738Y819374D01*
X1163212Y820519D01*
X1163501Y821724D01*
X1163598Y822960D01*
X1163501Y824196D01*
X1163212Y825401D01*
X1162738Y826546D01*
X1162090Y827602D01*
X1161285Y828545D01*
X1160342Y829350D01*
X1159286Y829997D01*
X1158141Y830472D01*
X1156936Y830761D01*
X1155700Y830858D01*
X1154464Y830761D01*
X1153259Y830472D01*
X1152114Y829997D01*
X1151058Y829350D01*
X1150115Y828545D01*
X1149310Y827602D01*
X1148662Y826546D01*
X1148188Y825401D01*
X1147899Y824196D01*
X1147802Y822960D01*
X1147899Y821724D01*
X1148188Y820519D01*
X1148662Y819374D01*
X1149310Y818317D01*
X1150115Y817375D01*
X1151058Y816570D01*
X1152114Y815922D01*
X1152882Y815604D01*
Y783868D01*
X1145032D01*
X1144303Y783772D01*
X1143623Y783491D01*
X1143039Y783043D01*
X1074967Y714971D01*
X1074519Y714387D01*
X1074238Y713707D01*
X1074142Y712978D01*
Y681725D01*
X1073374Y681407D01*
X1072318Y680760D01*
X1071396Y679973D01*
X1071310Y679981D01*
X1070126Y680448D01*
Y762865D01*
X1213108Y905847D01*
X1213556Y906431D01*
X1213838Y907110D01*
X1213934Y907840D01*
Y912070D01*
X1215113Y912400D01*
X1215204Y912380D01*
X1215835Y911435D01*
X1216615Y910545D01*
X1217505Y909765D01*
X1218488Y909108D01*
X1219549Y908585D01*
X1220669Y908205D01*
X1221830Y907974D01*
X1223010Y907897D01*
X1224190Y907974D01*
X1225351Y908205D01*
X1226471Y908585D01*
X1227532Y909108D01*
X1228515Y909765D01*
X1229405Y910545D01*
X1230185Y911435D01*
X1230842Y912418D01*
X1231365Y913479D01*
X1231745Y914599D01*
X1231976Y915760D01*
X1232053Y916940D01*
X1231976Y918120D01*
X1231745Y919281D01*
X1231365Y920401D01*
X1230842Y921462D01*
X1230185Y922445D01*
X1229405Y923335D01*
X1228515Y924115D01*
X1227532Y924772D01*
X1226471Y925295D01*
X1225351Y925675D01*
X1224190Y925906D01*
X1223010Y925983D01*
X1221830Y925906D01*
X1220669Y925675D01*
X1219549Y925295D01*
X1218488Y924772D01*
X1217505Y924115D01*
X1216615Y923335D01*
X1215835Y922445D01*
X1215204Y921500D01*
X1215113Y921480D01*
X1213934Y921810D01*
Y937470D01*
X1215113Y937800D01*
X1215204Y937780D01*
X1215835Y936835D01*
X1216615Y935945D01*
X1217505Y935165D01*
X1218488Y934508D01*
X1219549Y933985D01*
X1220669Y933605D01*
X1221830Y933374D01*
X1223010Y933297D01*
X1224190Y933374D01*
X1225351Y933605D01*
X1226471Y933985D01*
X1227079Y934285D01*
X1234867Y926497D01*
X1235451Y926049D01*
X1236131Y925768D01*
X1236860Y925672D01*
X1242949D01*
X1243335Y924402D01*
X1242905Y924115D01*
X1242015Y923335D01*
X1241235Y922445D01*
X1240578Y921462D01*
X1240055Y920401D01*
X1239675Y919281D01*
X1239444Y918120D01*
X1239367Y916940D01*
X1239444Y915760D01*
X1239675Y914599D01*
X1240055Y913479D01*
X1240578Y912418D01*
X1241235Y911435D01*
X1242015Y910545D01*
X1242905Y909765D01*
X1243888Y909108D01*
X1244949Y908585D01*
X1246069Y908205D01*
X1247230Y907974D01*
X1248410Y907897D01*
X1249590Y907974D01*
X1250751Y908205D01*
X1251871Y908585D01*
X1252932Y909108D01*
X1253915Y909765D01*
X1254805Y910545D01*
X1255585Y911435D01*
X1256242Y912418D01*
X1256765Y913479D01*
X1257145Y914599D01*
X1257376Y915760D01*
X1257453Y916940D01*
X1257376Y918120D01*
X1257145Y919281D01*
X1256765Y920401D01*
X1256242Y921462D01*
X1255585Y922445D01*
X1254805Y923335D01*
X1253915Y924115D01*
X1253485Y924402D01*
X1253871Y925672D01*
X1268349D01*
X1268735Y924402D01*
X1268305Y924115D01*
X1267415Y923335D01*
X1266635Y922445D01*
X1265978Y921462D01*
X1265455Y920401D01*
X1265075Y919281D01*
X1264844Y918120D01*
X1264767Y916940D01*
X1264844Y915760D01*
X1265075Y914599D01*
X1265455Y913479D01*
X1265978Y912418D01*
X1266635Y911435D01*
X1267415Y910545D01*
X1268305Y909765D01*
X1269288Y909108D01*
X1270349Y908585D01*
X1271469Y908205D01*
X1272630Y907974D01*
X1273810Y907897D01*
X1274990Y907974D01*
X1276151Y908205D01*
X1277271Y908585D01*
X1278332Y909108D01*
X1279315Y909765D01*
X1280205Y910545D01*
X1280985Y911435D01*
X1281642Y912418D01*
X1282165Y913479D01*
X1282545Y914599D01*
X1282776Y915760D01*
X1282853Y916940D01*
X1282776Y918120D01*
X1282545Y919281D01*
X1282165Y920401D01*
X1281642Y921462D01*
X1280985Y922445D01*
X1280205Y923335D01*
X1279315Y924115D01*
X1278885Y924402D01*
X1279271Y925672D01*
X1293749D01*
X1294135Y924402D01*
X1293705Y924115D01*
X1292815Y923335D01*
X1292035Y922445D01*
X1291378Y921462D01*
X1290855Y920401D01*
X1290475Y919281D01*
X1290244Y918120D01*
X1290167Y916940D01*
X1290244Y915760D01*
X1290475Y914599D01*
X1290855Y913479D01*
X1291378Y912418D01*
X1292035Y911435D01*
X1292815Y910545D01*
X1293705Y909765D01*
X1294688Y909108D01*
X1295749Y908585D01*
X1296869Y908205D01*
X1298030Y907974D01*
X1299210Y907897D01*
X1300390Y907974D01*
X1301551Y908205D01*
X1302671Y908585D01*
X1303732Y909108D01*
X1304715Y909765D01*
X1305605Y910545D01*
X1306385Y911435D01*
X1307042Y912418D01*
X1307565Y913479D01*
X1307945Y914599D01*
X1308176Y915760D01*
X1308253Y916940D01*
X1308176Y918120D01*
X1307945Y919281D01*
X1307565Y920401D01*
X1307042Y921462D01*
X1306385Y922445D01*
X1305605Y923335D01*
X1304715Y924115D01*
X1304285Y924402D01*
X1304671Y925672D01*
X1310640D01*
X1311369Y925768D01*
X1312049Y926049D01*
X1312633Y926497D01*
X1313903Y927767D01*
X1314351Y928351D01*
X1314632Y929031D01*
X1314728Y929760D01*
X1314728Y929760D01*
Y939426D01*
X1315998Y939636D01*
X1316255Y938879D01*
X1316778Y937818D01*
X1317435Y936835D01*
X1318215Y935945D01*
X1319105Y935165D01*
X1320088Y934508D01*
X1321149Y933985D01*
X1322269Y933605D01*
X1323430Y933374D01*
X1324610Y933297D01*
X1325790Y933374D01*
X1326951Y933605D01*
X1328071Y933985D01*
X1329132Y934508D01*
X1330115Y935165D01*
X1331005Y935945D01*
X1331785Y936835D01*
X1332442Y937818D01*
X1332965Y938879D01*
X1333345Y939999D01*
X1333576Y941160D01*
X1333653Y942340D01*
X1333576Y943520D01*
X1333345Y944681D01*
X1332965Y945801D01*
X1332442Y946862D01*
X1331785Y947845D01*
X1331005Y948735D01*
X1330115Y949515D01*
X1329132Y950172D01*
X1328071Y950695D01*
X1326951Y951075D01*
X1325790Y951306D01*
X1324610Y951383D01*
X1323430Y951306D01*
X1322269Y951075D01*
X1321149Y950695D01*
X1320088Y950172D01*
X1319105Y949515D01*
X1318215Y948735D01*
X1317435Y947845D01*
X1316778Y946862D01*
X1316255Y945801D01*
X1315998Y945044D01*
X1314728Y945254D01*
Y953873D01*
X1315109Y954254D01*
X1356509D01*
X1358129Y952634D01*
X1357603Y951364D01*
X1340986D01*
Y937301D01*
X1335317Y931633D01*
X1334869Y931049D01*
X1334588Y930369D01*
X1334492Y929640D01*
Y919854D01*
X1333222Y919644D01*
X1332965Y920401D01*
X1332442Y921462D01*
X1331785Y922445D01*
X1331005Y923335D01*
X1330115Y924115D01*
X1329132Y924772D01*
X1328071Y925295D01*
X1326951Y925675D01*
X1325790Y925906D01*
X1324610Y925983D01*
X1323430Y925906D01*
X1322269Y925675D01*
X1321149Y925295D01*
X1320088Y924772D01*
X1319105Y924115D01*
X1318215Y923335D01*
X1317435Y922445D01*
X1316778Y921462D01*
X1316255Y920401D01*
X1315875Y919281D01*
X1315644Y918120D01*
X1315567Y916940D01*
X1315644Y915760D01*
X1315875Y914599D01*
X1316255Y913479D01*
X1316778Y912418D01*
X1317435Y911435D01*
X1318215Y910545D01*
X1319105Y909765D01*
X1320088Y909108D01*
X1321149Y908585D01*
X1322269Y908205D01*
X1323430Y907974D01*
X1324610Y907897D01*
X1325790Y907974D01*
X1326951Y908205D01*
X1328071Y908585D01*
X1329132Y909108D01*
X1330115Y909765D01*
X1331005Y910545D01*
X1331785Y911435D01*
X1332442Y912418D01*
X1332965Y913479D01*
X1333222Y914236D01*
X1334492Y914026D01*
Y848003D01*
X1274001Y787513D01*
X1272772Y788079D01*
X1272818Y788670D01*
X1272721Y789906D01*
X1272462Y790985D01*
X1304998Y823521D01*
X1305570Y824218D01*
X1305994Y825012D01*
X1306256Y825874D01*
X1306344Y826770D01*
Y849560D01*
X1306393Y849590D01*
X1307335Y850395D01*
X1308140Y851338D01*
X1308788Y852394D01*
X1309262Y853539D01*
X1309551Y854744D01*
X1309648Y855980D01*
X1309551Y857216D01*
X1309262Y858421D01*
X1308788Y859566D01*
X1308140Y860622D01*
X1307335Y861565D01*
X1306393Y862370D01*
X1305336Y863018D01*
X1304191Y863492D01*
X1302986Y863781D01*
X1301750Y863878D01*
X1300514Y863781D01*
X1299309Y863492D01*
X1298164Y863018D01*
X1297108Y862370D01*
X1296165Y861565D01*
X1295360Y860622D01*
X1294713Y859566D01*
X1294238Y858421D01*
X1293949Y857216D01*
X1293852Y855980D01*
X1293949Y854744D01*
X1294238Y853539D01*
X1294713Y852394D01*
X1295360Y851338D01*
X1296165Y850395D01*
X1297108Y849590D01*
X1297156Y849560D01*
Y828673D01*
X1272066Y803583D01*
X1270837Y804150D01*
X1270856Y804388D01*
X1270758Y805624D01*
X1270469Y806829D01*
X1269995Y807974D01*
X1269494Y808790D01*
X1269514Y808990D01*
Y852608D01*
X1270120Y853013D01*
X1270960Y853750D01*
X1271697Y854590D01*
X1272318Y855519D01*
X1272812Y856521D01*
X1273171Y857579D01*
X1273389Y858675D01*
X1273462Y859790D01*
X1273389Y860905D01*
X1273171Y862001D01*
X1272812Y863059D01*
X1272318Y864061D01*
X1271697Y864990D01*
X1270960Y865830D01*
X1270120Y866567D01*
X1269191Y867188D01*
X1268189Y867682D01*
X1267131Y868041D01*
X1266035Y868259D01*
X1264920Y868332D01*
X1263805Y868259D01*
X1262709Y868041D01*
X1261651Y867682D01*
X1260649Y867188D01*
X1259720Y866567D01*
X1258880Y865830D01*
X1258143Y864990D01*
X1257522Y864061D01*
X1257028Y863059D01*
X1256669Y862001D01*
X1256451Y860905D01*
X1256378Y859790D01*
X1256451Y858675D01*
X1256669Y857579D01*
X1257028Y856521D01*
X1257522Y855519D01*
X1258143Y854590D01*
X1258880Y853750D01*
X1259720Y853013D01*
X1260326Y852608D01*
Y811821D01*
X1259371Y811425D01*
X1258315Y810778D01*
X1257372Y809973D01*
X1256567Y809031D01*
X1255920Y807974D01*
X1255445Y806829D01*
X1255156Y805624D01*
X1255144Y805469D01*
X1253832Y804985D01*
X1250388Y808428D01*
X1249692Y809000D01*
X1248898Y809424D01*
X1248036Y809686D01*
X1247140Y809774D01*
X1210310D01*
X1209414Y809686D01*
X1208552Y809424D01*
X1207758Y809000D01*
X1207061Y808428D01*
X1204171Y805538D01*
X1202941Y806104D01*
X1202968Y806450D01*
X1202871Y807686D01*
X1202582Y808891D01*
X1202107Y810036D01*
X1201460Y811093D01*
X1200655Y812035D01*
X1199713Y812840D01*
X1198656Y813487D01*
X1197511Y813962D01*
X1196306Y814251D01*
X1195070Y814348D01*
X1194584Y814798D01*
Y851266D01*
X1198514D01*
Y868314D01*
X1181466D01*
Y851266D01*
X1185396D01*
Y807720D01*
X1185484Y806824D01*
X1185746Y805962D01*
X1186170Y805168D01*
X1186741Y804472D01*
X1186703Y804239D01*
X1185397Y803246D01*
X1184162Y803344D01*
X1182926Y803246D01*
X1181721Y802957D01*
X1180576Y802483D01*
X1179519Y801835D01*
X1178577Y801030D01*
X1177772Y800088D01*
X1177124Y799031D01*
X1176650Y797886D01*
X1176360Y796681D01*
X1176263Y795445D01*
X1176360Y794210D01*
X1176650Y793005D01*
X1177124Y791860D01*
X1177772Y790803D01*
X1178577Y789860D01*
X1179519Y789055D01*
X1180576Y788408D01*
X1181721Y787934D01*
X1182926Y787644D01*
X1184162Y787547D01*
X1185397Y787644D01*
X1186602Y787934D01*
X1187747Y788408D01*
X1188804Y789055D01*
X1189746Y789860D01*
X1190551Y790803D01*
X1190581Y790851D01*
X1200838D01*
X1201213Y790888D01*
X1201734Y790939D01*
X1201734Y790939D01*
X1201734Y790939D01*
X1202010Y791023D01*
X1202596Y791201D01*
X1202596Y791201D01*
X1202596Y791201D01*
X1202824Y791323D01*
X1203390Y791625D01*
X1203390Y791625D01*
X1203390Y791625D01*
X1203614Y791808D01*
X1204086Y792196D01*
X1204086Y792197D01*
X1204087Y792197D01*
X1204295Y792451D01*
X1204658Y792893D01*
X1204658Y792893D01*
X1204658Y792893D01*
X1204816Y793189D01*
X1212213Y800586D01*
X1245237D01*
X1247876Y797947D01*
X1248215Y797312D01*
X1248787Y796616D01*
X1255185Y790218D01*
X1255881Y789646D01*
X1256517Y789306D01*
X1257031Y788792D01*
X1257022Y788670D01*
X1257119Y787434D01*
X1257408Y786229D01*
X1257883Y785084D01*
X1258530Y784027D01*
X1259335Y783085D01*
X1260277Y782280D01*
X1261334Y781633D01*
X1262479Y781158D01*
X1263684Y780869D01*
X1264920Y780772D01*
X1265511Y780818D01*
X1266077Y779589D01*
X1081184Y594696D01*
X1080417Y595014D01*
X1079212Y595303D01*
X1077976Y595400D01*
X1076740Y595303D01*
X1075535Y595014D01*
X1074390Y594539D01*
X1073334Y593892D01*
X1072391Y593087D01*
X1071586Y592145D01*
X1070938Y591088D01*
X1070464Y589943D01*
X1070175Y588738D01*
X1070078Y587502D01*
X1070175Y586266D01*
X1070464Y585061D01*
X1070938Y583916D01*
X1071586Y582859D01*
X1072391Y581917D01*
X1073334Y581112D01*
X1074390Y580465D01*
X1075535Y579990D01*
X1076740Y579701D01*
X1077976Y579604D01*
X1079212Y579701D01*
X1080417Y579990D01*
X1081562Y580465D01*
X1082618Y581112D01*
X1083561Y581917D01*
X1084366Y582859D01*
X1085014Y583916D01*
X1085488Y585061D01*
X1085777Y586266D01*
X1085874Y587502D01*
X1085777Y588738D01*
X1085488Y589943D01*
X1085170Y590710D01*
X1339303Y844843D01*
X1339303Y844843D01*
X1339751Y845427D01*
X1340032Y846107D01*
X1340128Y846836D01*
Y907001D01*
X1340986Y907916D01*
X1341398Y907916D01*
X1359034D01*
Y925964D01*
X1341398D01*
X1340986Y925964D01*
X1340128Y926879D01*
Y928473D01*
X1344971Y933316D01*
X1359034D01*
Y948721D01*
X1360304Y949400D01*
X1360596Y949205D01*
Y845405D01*
X1252005Y736815D01*
X1251557Y736231D01*
X1251276Y735551D01*
X1251180Y734822D01*
Y672631D01*
X1250732Y672346D01*
X1249910Y672175D01*
X1249370Y672790D01*
X1248530Y673527D01*
X1247601Y674148D01*
X1246599Y674642D01*
X1245541Y675001D01*
X1244445Y675219D01*
X1243330Y675292D01*
X1242215Y675219D01*
X1241119Y675001D01*
X1240061Y674642D01*
X1239059Y674148D01*
X1238130Y673527D01*
X1237290Y672790D01*
X1236553Y671950D01*
X1235932Y671021D01*
X1235438Y670019D01*
X1235079Y668961D01*
X1234861Y667865D01*
X1234788Y666750D01*
X1234861Y665635D01*
X1235012Y664877D01*
X1234675Y664467D01*
X1234250Y663673D01*
X1233989Y662811D01*
X1233901Y661915D01*
Y635897D01*
X1233394Y635687D01*
X1232337Y635040D01*
X1231395Y634235D01*
X1230590Y633293D01*
X1229942Y632236D01*
X1229468Y631091D01*
X1229448Y631007D01*
X1228450Y630481D01*
X1227572Y630810D01*
X1227507Y630966D01*
X1226860Y632023D01*
X1226055Y632965D01*
X1225113Y633770D01*
X1224056Y634417D01*
X1222911Y634892D01*
X1222524Y634985D01*
Y659568D01*
X1223130Y659973D01*
X1223970Y660710D01*
X1224707Y661550D01*
X1225328Y662479D01*
X1225822Y663481D01*
X1226181Y664539D01*
X1226399Y665635D01*
X1226472Y666750D01*
X1226399Y667865D01*
X1226181Y668961D01*
X1225822Y670019D01*
X1225328Y671021D01*
X1224707Y671950D01*
X1223970Y672790D01*
X1223130Y673527D01*
X1222201Y674148D01*
X1221199Y674642D01*
X1220141Y675001D01*
X1219045Y675219D01*
X1217930Y675292D01*
X1216815Y675219D01*
X1215719Y675001D01*
X1214661Y674642D01*
X1213659Y674148D01*
X1212730Y673527D01*
X1211890Y672790D01*
X1211153Y671950D01*
X1210532Y671021D01*
X1210038Y670019D01*
X1209679Y668961D01*
X1209461Y667865D01*
X1209388Y666750D01*
X1209461Y665635D01*
X1209679Y664539D01*
X1210038Y663481D01*
X1210532Y662479D01*
X1211153Y661550D01*
X1211890Y660710D01*
X1212730Y659973D01*
X1213336Y659568D01*
Y630732D01*
X1212958Y629821D01*
X1212669Y628616D01*
X1212572Y627380D01*
X1212669Y626144D01*
X1212958Y624939D01*
X1213432Y623794D01*
X1214080Y622738D01*
X1214885Y621795D01*
X1215827Y620990D01*
X1216884Y620342D01*
X1218029Y619868D01*
X1219234Y619579D01*
X1220470Y619482D01*
X1221706Y619579D01*
X1222911Y619868D01*
X1224056Y620342D01*
X1225113Y620990D01*
X1226055Y621795D01*
X1226860Y622738D01*
X1227507Y623794D01*
X1227982Y624939D01*
X1228002Y625023D01*
X1229000Y625549D01*
X1229878Y625220D01*
X1229942Y625064D01*
X1230590Y624007D01*
X1231395Y623065D01*
X1232337Y622260D01*
X1233394Y621613D01*
X1234539Y621138D01*
X1235744Y620849D01*
X1236980Y620752D01*
X1238216Y620849D01*
X1239421Y621138D01*
X1240566Y621613D01*
X1241622Y622260D01*
X1242565Y623065D01*
X1243370Y624007D01*
X1244017Y625064D01*
X1244492Y626209D01*
X1244781Y627414D01*
X1244878Y628650D01*
X1244781Y629886D01*
X1244492Y631091D01*
X1244017Y632236D01*
X1243370Y633293D01*
X1243089Y633621D01*
Y657982D01*
X1243330Y658208D01*
X1244445Y658281D01*
X1245541Y658499D01*
X1246599Y658858D01*
X1247601Y659352D01*
X1248530Y659973D01*
X1249370Y660710D01*
X1249910Y661325D01*
X1250732Y661153D01*
X1251180Y660869D01*
Y647943D01*
X1250412Y647626D01*
X1249355Y646978D01*
X1248413Y646173D01*
X1247608Y645230D01*
X1246961Y644174D01*
X1246486Y643029D01*
X1246197Y641824D01*
X1246100Y640588D01*
X1246197Y639352D01*
X1246486Y638147D01*
X1246961Y637002D01*
X1247608Y635946D01*
X1248413Y635003D01*
X1249355Y634198D01*
X1250412Y633550D01*
X1251557Y633076D01*
X1252762Y632787D01*
X1253998Y632690D01*
X1255234Y632787D01*
X1256439Y633076D01*
X1257584Y633550D01*
X1258641Y634198D01*
X1259143Y634627D01*
X1260413Y634047D01*
Y621586D01*
X1260501Y620690D01*
X1260694Y620055D01*
X1260277Y619800D01*
X1259335Y618995D01*
X1258530Y618052D01*
X1257883Y616996D01*
X1257408Y615851D01*
X1257119Y614646D01*
X1257022Y613410D01*
X1257119Y612174D01*
X1257408Y610969D01*
X1257883Y609824D01*
X1258530Y608768D01*
X1259335Y607825D01*
X1260277Y607020D01*
X1261334Y606372D01*
X1262479Y605898D01*
X1262545Y605882D01*
X1262786Y604714D01*
X1262773Y604522D01*
X1261875Y603755D01*
X1261070Y602812D01*
X1260423Y601756D01*
X1259948Y600611D01*
X1259659Y599406D01*
X1259562Y598170D01*
X1259659Y596934D01*
X1259948Y595729D01*
X1260423Y594584D01*
X1261070Y593527D01*
X1261875Y592585D01*
X1262818Y591780D01*
X1263874Y591133D01*
X1265019Y590658D01*
X1266224Y590369D01*
X1267460Y590272D01*
X1268696Y590369D01*
X1269901Y590658D01*
X1271046Y591133D01*
X1272103Y591780D01*
X1273045Y592585D01*
X1273850Y593527D01*
X1273880Y593576D01*
X1277578D01*
X1278474Y593664D01*
X1279336Y593926D01*
X1280130Y594350D01*
X1280826Y594921D01*
X1298649Y612744D01*
X1299220Y613440D01*
X1299644Y614234D01*
X1299906Y615096D01*
X1299994Y615992D01*
Y655142D01*
X1300520Y655758D01*
X1301167Y656814D01*
X1301642Y657959D01*
X1301931Y659164D01*
X1302028Y660400D01*
X1301931Y661636D01*
X1301642Y662841D01*
X1301167Y663986D01*
X1300520Y665042D01*
X1299715Y665985D01*
X1298772Y666790D01*
X1297716Y667438D01*
X1296571Y667912D01*
X1295366Y668201D01*
X1294130Y668298D01*
X1292894Y668201D01*
X1291689Y667912D01*
X1290544Y667438D01*
X1289487Y666790D01*
X1288545Y665985D01*
X1287740Y665042D01*
X1287092Y663986D01*
X1286618Y662841D01*
X1286329Y661636D01*
X1286232Y660400D01*
X1286329Y659164D01*
X1286618Y657959D01*
X1287092Y656814D01*
X1287740Y655758D01*
X1288545Y654815D01*
X1289487Y654010D01*
X1290544Y653363D01*
X1290806Y653254D01*
Y617895D01*
X1275675Y602764D01*
X1273880D01*
X1273850Y602812D01*
X1273045Y603755D01*
X1272103Y604560D01*
X1271046Y605207D01*
X1269901Y605682D01*
X1269835Y605698D01*
X1269594Y606866D01*
X1269607Y607058D01*
X1270505Y607825D01*
X1271310Y608768D01*
X1271957Y609824D01*
X1272432Y610969D01*
X1272721Y612174D01*
X1272818Y613410D01*
X1272721Y614646D01*
X1272432Y615851D01*
X1272077Y616706D01*
X1272606Y617439D01*
X1273007Y617714D01*
X1273623Y617505D01*
X1274659Y617299D01*
Y626110D01*
Y634921D01*
X1273623Y634715D01*
X1272520Y634341D01*
X1271474Y633825D01*
X1270871Y633422D01*
X1269836Y633841D01*
X1269601Y634074D01*
Y658485D01*
X1269671Y658499D01*
X1270729Y658858D01*
X1271731Y659352D01*
X1272660Y659973D01*
X1273500Y660710D01*
X1274237Y661550D01*
X1274858Y662479D01*
X1275352Y663481D01*
X1275711Y664539D01*
X1275929Y665635D01*
X1276002Y666750D01*
X1275929Y667865D01*
X1275711Y668961D01*
X1275352Y670019D01*
X1274858Y671021D01*
X1274237Y671950D01*
X1273500Y672790D01*
X1272660Y673527D01*
X1271731Y674148D01*
X1270729Y674642D01*
X1269671Y675001D01*
X1268575Y675219D01*
X1267460Y675292D01*
X1266345Y675219D01*
X1265249Y675001D01*
X1264191Y674642D01*
X1263189Y674148D01*
X1262260Y673527D01*
X1261420Y672790D01*
X1260683Y671950D01*
X1260062Y671021D01*
X1259568Y670019D01*
X1259209Y668961D01*
X1258991Y667865D01*
X1258918Y666750D01*
X1258991Y665635D01*
X1259209Y664539D01*
X1259568Y663481D01*
X1260062Y662479D01*
X1260413Y661954D01*
Y647129D01*
X1259143Y646549D01*
X1258641Y646978D01*
X1257584Y647626D01*
X1256816Y647943D01*
Y733655D01*
X1365406Y842245D01*
X1365407Y842245D01*
X1365854Y842829D01*
X1366136Y843509D01*
X1366232Y844238D01*
X1366232Y844238D01*
Y951335D01*
X1366136Y952064D01*
X1365854Y952744D01*
X1365407Y953327D01*
X1359669Y959065D01*
X1359086Y959513D01*
X1358406Y959794D01*
X1357677Y959890D01*
X1313942D01*
X1313213Y959794D01*
X1312533Y959513D01*
X1311949Y959065D01*
X1309917Y957033D01*
X1309469Y956449D01*
X1309188Y955769D01*
X1309092Y955040D01*
Y945254D01*
X1307822Y945044D01*
X1307565Y945801D01*
X1307042Y946862D01*
X1306385Y947845D01*
X1305605Y948735D01*
X1304715Y949515D01*
X1303732Y950172D01*
X1302671Y950695D01*
X1301551Y951075D01*
X1300390Y951306D01*
X1299210Y951383D01*
X1298030Y951306D01*
X1296869Y951075D01*
X1295749Y950695D01*
X1295141Y950395D01*
X1284666Y960869D01*
X1284082Y961317D01*
X1283403Y961599D01*
X1282673Y961695D01*
D02*
G37*
G36*
X1041400Y742871D02*
X1040364Y742665D01*
X1039261Y742291D01*
X1038215Y741776D01*
X1037246Y741128D01*
X1036370Y740360D01*
X1035602Y739483D01*
X1034955Y738515D01*
X1034439Y737469D01*
X1034064Y736366D01*
X1033858Y735330D01*
X1041400D01*
Y742871D01*
D02*
G37*
G36*
X1270000Y735251D02*
Y727710D01*
X1277542D01*
X1277336Y728746D01*
X1276961Y729849D01*
X1276445Y730895D01*
X1275798Y731863D01*
X1275030Y732740D01*
X1274154Y733508D01*
X1273185Y734156D01*
X1272139Y734671D01*
X1271036Y735045D01*
X1270000Y735251D01*
D02*
G37*
G36*
X1267460D02*
X1266424Y735045D01*
X1265321Y734671D01*
X1264275Y734156D01*
X1263307Y733508D01*
X1262430Y732740D01*
X1261662Y731863D01*
X1261014Y730895D01*
X1260499Y729849D01*
X1260125Y728746D01*
X1259919Y727710D01*
X1267460D01*
Y735251D01*
D02*
G37*
G36*
X848360Y758190D02*
X838148D01*
X838164Y757951D01*
X838459Y756467D01*
X838946Y755034D01*
X839615Y753678D01*
X840455Y752420D01*
X841452Y751283D01*
X842590Y750285D01*
X843848Y749445D01*
X845204Y748776D01*
X846637Y748289D01*
X848120Y747994D01*
X848360Y747979D01*
Y758190D01*
D02*
G37*
G36*
X778104Y760324D02*
X756056D01*
Y738276D01*
X778104D01*
Y760324D01*
D02*
G37*
G36*
X1043940Y742871D02*
Y735330D01*
X1051481D01*
X1051275Y736366D01*
X1050901Y737469D01*
X1050386Y738515D01*
X1049738Y739483D01*
X1048970Y740360D01*
X1048093Y741128D01*
X1047125Y741776D01*
X1046079Y742291D01*
X1044976Y742665D01*
X1043940Y742871D01*
D02*
G37*
G36*
X1277542Y725170D02*
X1270000D01*
Y717628D01*
X1271036Y717834D01*
X1272139Y718209D01*
X1273185Y718725D01*
X1274154Y719372D01*
X1275030Y720140D01*
X1275798Y721016D01*
X1276445Y721985D01*
X1276961Y723031D01*
X1277336Y724134D01*
X1277542Y725170D01*
D02*
G37*
G36*
X1267460D02*
X1259919D01*
X1260125Y724134D01*
X1260499Y723031D01*
X1261014Y721985D01*
X1261662Y721016D01*
X1262430Y720140D01*
X1263307Y719372D01*
X1264275Y718725D01*
X1265321Y718209D01*
X1266424Y717834D01*
X1267460Y717628D01*
Y725170D01*
D02*
G37*
G36*
X767080Y709548D02*
X765638Y709453D01*
X764221Y709171D01*
X762852Y708707D01*
X761556Y708067D01*
X760355Y707265D01*
X759268Y706312D01*
X758315Y705225D01*
X757513Y704024D01*
X756873Y702728D01*
X756409Y701359D01*
X756127Y699942D01*
X756032Y698500D01*
X756127Y697058D01*
X756409Y695641D01*
X756873Y694272D01*
X757513Y692976D01*
X758315Y691775D01*
X759268Y690688D01*
X760355Y689735D01*
X761556Y688932D01*
X762852Y688293D01*
X764221Y687829D01*
X765638Y687547D01*
X767080Y687452D01*
X768522Y687547D01*
X769939Y687829D01*
X771308Y688293D01*
X772604Y688932D01*
X773805Y689735D01*
X774892Y690688D01*
X775845Y691775D01*
X776647Y692976D01*
X777287Y694272D01*
X777751Y695641D01*
X778033Y697058D01*
X778128Y698500D01*
X778033Y699942D01*
X777751Y701359D01*
X777287Y702728D01*
X776647Y704024D01*
X775845Y705225D01*
X774892Y706312D01*
X773805Y707265D01*
X772604Y708067D01*
X771308Y708707D01*
X769939Y709171D01*
X768522Y709453D01*
X767080Y709548D01*
D02*
G37*
G36*
X1051481Y732790D02*
X1043940D01*
Y725248D01*
X1044976Y725454D01*
X1046079Y725829D01*
X1047125Y726345D01*
X1048093Y726992D01*
X1048970Y727760D01*
X1049738Y728636D01*
X1050386Y729605D01*
X1050901Y730651D01*
X1051275Y731754D01*
X1051481Y732790D01*
D02*
G37*
G36*
X1041400D02*
X1033858D01*
X1034064Y731754D01*
X1034439Y730651D01*
X1034955Y729605D01*
X1035602Y728636D01*
X1036370Y727760D01*
X1037246Y726992D01*
X1038215Y726345D01*
X1039261Y725829D01*
X1040364Y725454D01*
X1041400Y725248D01*
Y732790D01*
D02*
G37*
G36*
X860154Y744584D02*
X839106D01*
Y723536D01*
X860154D01*
Y744584D01*
D02*
G37*
G36*
X1012190Y604952D02*
Y600830D01*
X1016312D01*
X1016205Y601277D01*
X1015871Y602083D01*
X1015416Y602826D01*
X1014849Y603489D01*
X1014186Y604056D01*
X1013443Y604511D01*
X1012637Y604845D01*
X1012190Y604952D01*
D02*
G37*
G36*
X1102281Y520700D02*
X1094740D01*
Y513158D01*
X1095776Y513364D01*
X1096879Y513739D01*
X1097925Y514254D01*
X1098894Y514902D01*
X1099770Y515670D01*
X1100538Y516547D01*
X1101186Y517515D01*
X1101701Y518561D01*
X1102076Y519664D01*
X1102281Y520700D01*
D02*
G37*
G36*
X1092200D02*
X1084659D01*
X1084865Y519664D01*
X1085239Y518561D01*
X1085754Y517515D01*
X1086402Y516547D01*
X1087170Y515670D01*
X1088046Y514902D01*
X1089015Y514254D01*
X1090061Y513739D01*
X1091164Y513364D01*
X1092200Y513158D01*
Y520700D01*
D02*
G37*
G36*
X990600Y519352D02*
Y511810D01*
X998141D01*
X997935Y512846D01*
X997561Y513949D01*
X997046Y514995D01*
X996398Y515964D01*
X995630Y516840D01*
X994753Y517608D01*
X993785Y518256D01*
X992739Y518771D01*
X991636Y519146D01*
X990600Y519352D01*
D02*
G37*
G36*
X1092200Y530782D02*
X1091164Y530575D01*
X1090061Y530201D01*
X1089015Y529686D01*
X1088046Y529038D01*
X1087170Y528270D01*
X1086402Y527393D01*
X1085754Y526425D01*
X1085239Y525379D01*
X1084865Y524276D01*
X1084659Y523240D01*
X1092200D01*
Y530782D01*
D02*
G37*
G36*
X1277542Y529590D02*
X1270000D01*
Y522048D01*
X1271036Y522254D01*
X1272139Y522629D01*
X1273185Y523144D01*
X1274154Y523792D01*
X1275030Y524560D01*
X1275798Y525437D01*
X1276445Y526405D01*
X1276961Y527451D01*
X1277336Y528554D01*
X1277542Y529590D01*
D02*
G37*
G36*
X1267460D02*
X1259919D01*
X1260125Y528554D01*
X1260499Y527451D01*
X1261014Y526405D01*
X1261662Y525437D01*
X1262430Y524560D01*
X1263307Y523792D01*
X1264275Y523144D01*
X1265321Y522629D01*
X1266424Y522254D01*
X1267460Y522048D01*
Y529590D01*
D02*
G37*
G36*
X1359034Y494164D02*
X1340986D01*
Y476116D01*
X1359034D01*
Y494164D01*
D02*
G37*
G36*
X1019810Y468783D02*
X1018630Y468706D01*
X1017469Y468475D01*
X1016349Y468095D01*
X1015288Y467572D01*
X1014305Y466915D01*
X1013415Y466135D01*
X1012635Y465245D01*
X1011978Y464262D01*
X1011455Y463201D01*
X1011075Y462081D01*
X1010844Y460920D01*
X1010767Y459740D01*
X1010844Y458560D01*
X1011075Y457399D01*
X1011455Y456279D01*
X1011978Y455218D01*
X1012635Y454235D01*
X1013415Y453345D01*
X1014305Y452565D01*
X1015288Y451908D01*
X1016349Y451385D01*
X1017469Y451005D01*
X1018630Y450774D01*
X1019810Y450697D01*
X1020990Y450774D01*
X1022151Y451005D01*
X1023271Y451385D01*
X1024332Y451908D01*
X1025315Y452565D01*
X1026205Y453345D01*
X1026985Y454235D01*
X1027642Y455218D01*
X1028165Y456279D01*
X1028545Y457399D01*
X1028776Y458560D01*
X1028853Y459740D01*
X1028776Y460920D01*
X1028545Y462081D01*
X1028165Y463201D01*
X1027642Y464262D01*
X1026985Y465245D01*
X1026205Y466135D01*
X1025315Y466915D01*
X1024332Y467572D01*
X1023271Y468095D01*
X1022151Y468475D01*
X1020990Y468706D01*
X1019810Y468783D01*
D02*
G37*
G36*
X994410D02*
X993230Y468706D01*
X992069Y468475D01*
X990949Y468095D01*
X989888Y467572D01*
X988905Y466915D01*
X988015Y466135D01*
X987235Y465245D01*
X986578Y464262D01*
X986055Y463201D01*
X985675Y462081D01*
X985444Y460920D01*
X985367Y459740D01*
X985444Y458560D01*
X985675Y457399D01*
X986055Y456279D01*
X986578Y455218D01*
X987235Y454235D01*
X988015Y453345D01*
X988905Y452565D01*
X989888Y451908D01*
X990949Y451385D01*
X992069Y451005D01*
X993230Y450774D01*
X994410Y450697D01*
X995590Y450774D01*
X996751Y451005D01*
X997871Y451385D01*
X998932Y451908D01*
X999915Y452565D01*
X1000805Y453345D01*
X1001585Y454235D01*
X1002242Y455218D01*
X1002765Y456279D01*
X1003145Y457399D01*
X1003376Y458560D01*
X1003453Y459740D01*
X1003376Y460920D01*
X1003145Y462081D01*
X1002765Y463201D01*
X1002242Y464262D01*
X1001585Y465245D01*
X1000805Y466135D01*
X999915Y466915D01*
X998932Y467572D01*
X997871Y468095D01*
X996751Y468475D01*
X995590Y468706D01*
X994410Y468783D01*
D02*
G37*
G36*
X988060Y519352D02*
X987024Y519146D01*
X985921Y518771D01*
X984875Y518256D01*
X983906Y517608D01*
X983030Y516840D01*
X982262Y515964D01*
X981615Y514995D01*
X981099Y513949D01*
X980724Y512846D01*
X980518Y511810D01*
X988060D01*
Y519352D01*
D02*
G37*
G36*
X998141Y509270D02*
X990600D01*
Y501729D01*
X991636Y501935D01*
X992739Y502309D01*
X993785Y502825D01*
X994753Y503472D01*
X995630Y504240D01*
X996398Y505117D01*
X997046Y506085D01*
X997561Y507131D01*
X997935Y508234D01*
X998141Y509270D01*
D02*
G37*
G36*
X988060D02*
X980518D01*
X980724Y508234D01*
X981099Y507131D01*
X981615Y506085D01*
X982262Y505117D01*
X983030Y504240D01*
X983906Y503472D01*
X984875Y502825D01*
X985921Y502309D01*
X987024Y501935D01*
X988060Y501729D01*
Y509270D01*
D02*
G37*
G36*
X1094740Y530782D02*
Y523240D01*
X1102281D01*
X1102076Y524276D01*
X1101701Y525379D01*
X1101186Y526425D01*
X1100538Y527393D01*
X1099770Y528270D01*
X1098894Y529038D01*
X1097925Y529686D01*
X1096879Y530201D01*
X1095776Y530575D01*
X1094740Y530782D01*
D02*
G37*
G36*
X1216660Y575430D02*
X1212538D01*
X1212645Y574983D01*
X1212979Y574177D01*
X1213434Y573433D01*
X1214000Y572770D01*
X1214664Y572204D01*
X1215407Y571749D01*
X1216213Y571415D01*
X1216660Y571307D01*
Y575430D01*
D02*
G37*
G36*
X1016312D02*
X1012190D01*
Y571307D01*
X1012637Y571415D01*
X1013443Y571749D01*
X1014186Y572204D01*
X1014849Y572770D01*
X1015416Y573433D01*
X1015871Y574177D01*
X1016205Y574983D01*
X1016312Y575430D01*
D02*
G37*
G36*
X986790D02*
X982667D01*
X982775Y574983D01*
X983109Y574177D01*
X983564Y573433D01*
X984130Y572770D01*
X984794Y572204D01*
X985537Y571749D01*
X986343Y571415D01*
X986790Y571307D01*
Y575430D01*
D02*
G37*
G36*
Y604952D02*
X986343Y604845D01*
X985537Y604511D01*
X984794Y604056D01*
X984130Y603489D01*
X983564Y602826D01*
X983109Y602083D01*
X982775Y601277D01*
X982667Y600830D01*
X986790D01*
Y604952D01*
D02*
G37*
G36*
X1037590Y675292D02*
X1036475Y675219D01*
X1035379Y675001D01*
X1034321Y674642D01*
X1033319Y674148D01*
X1032390Y673527D01*
X1031550Y672790D01*
X1030813Y671950D01*
X1030192Y671021D01*
X1029698Y670019D01*
X1029339Y668961D01*
X1029121Y667865D01*
X1029048Y666750D01*
X1029121Y665635D01*
X1029339Y664539D01*
X1029698Y663481D01*
X1030192Y662479D01*
X1030813Y661550D01*
X1031550Y660710D01*
X1032390Y659973D01*
X1032996Y659568D01*
Y621015D01*
X1032609Y620922D01*
X1031464Y620448D01*
X1030407Y619800D01*
X1029465Y618995D01*
X1028660Y618052D01*
X1028012Y616996D01*
X1027538Y615851D01*
X1027249Y614646D01*
X1027152Y613410D01*
X1027249Y612174D01*
X1027538Y610969D01*
X1028012Y609824D01*
X1028660Y608768D01*
X1029465Y607825D01*
X1030407Y607020D01*
X1031464Y606372D01*
X1032609Y605898D01*
X1033814Y605609D01*
X1034895Y605524D01*
X1035233Y605130D01*
X1035632Y604296D01*
X1035158Y603151D01*
X1034869Y601946D01*
X1034772Y600710D01*
X1034869Y599474D01*
X1035158Y598269D01*
X1035632Y597124D01*
X1036280Y596068D01*
X1037085Y595125D01*
X1038027Y594320D01*
X1039084Y593672D01*
X1040229Y593198D01*
X1041434Y592909D01*
X1042670Y592812D01*
X1043906Y592909D01*
X1043961Y592922D01*
X1067362Y569521D01*
X1068058Y568950D01*
X1068852Y568526D01*
X1069714Y568264D01*
X1070610Y568176D01*
X1130300D01*
X1131196Y568264D01*
X1132058Y568526D01*
X1132852Y568950D01*
X1133549Y569521D01*
X1136088Y572062D01*
X1136660Y572758D01*
X1137084Y573552D01*
X1137346Y574414D01*
X1137434Y575310D01*
Y603736D01*
X1178381D01*
X1179372Y602744D01*
X1179359Y602689D01*
X1179262Y601453D01*
X1179359Y600218D01*
X1179648Y599013D01*
X1180123Y597868D01*
X1180770Y596811D01*
X1181575Y595868D01*
X1182517Y595064D01*
X1183574Y594416D01*
X1184719Y593942D01*
X1185925Y593652D01*
X1187160Y593555D01*
X1188396Y593652D01*
X1189601Y593942D01*
X1190746Y594416D01*
X1191803Y595064D01*
X1192745Y595868D01*
X1193550Y596811D01*
X1194198Y597868D01*
X1194672Y599013D01*
X1194961Y600218D01*
X1195058Y601453D01*
X1194961Y602689D01*
X1194672Y603894D01*
X1194198Y605039D01*
X1193550Y606096D01*
X1192745Y607038D01*
X1191803Y607843D01*
X1190746Y608491D01*
X1189601Y608965D01*
X1188396Y609254D01*
X1187160Y609352D01*
X1185925Y609254D01*
X1185869Y609241D01*
X1183532Y611578D01*
X1182836Y612150D01*
X1182042Y612574D01*
X1181180Y612836D01*
X1180284Y612924D01*
X1154221D01*
X1154022Y613212D01*
X1153768Y614194D01*
X1154380Y614730D01*
X1155148Y615606D01*
X1155796Y616575D01*
X1156311Y617621D01*
X1156685Y618724D01*
X1156891Y619760D01*
X1139268D01*
X1139474Y618724D01*
X1139849Y617621D01*
X1140365Y616575D01*
X1141012Y615606D01*
X1141780Y614730D01*
X1142392Y614194D01*
X1142138Y613212D01*
X1141939Y612924D01*
X1126560D01*
X1126530Y612972D01*
X1125725Y613915D01*
X1124782Y614720D01*
X1123726Y615368D01*
X1122581Y615842D01*
X1121376Y616131D01*
X1120140Y616228D01*
X1118904Y616131D01*
X1117699Y615842D01*
X1116554Y615368D01*
X1115498Y614720D01*
X1114555Y613915D01*
X1113750Y612972D01*
X1113102Y611916D01*
X1112628Y610771D01*
X1112339Y609566D01*
X1112242Y608330D01*
X1112339Y607094D01*
X1112628Y605889D01*
X1113102Y604744D01*
X1113750Y603688D01*
X1114555Y602745D01*
X1115498Y601940D01*
X1116554Y601292D01*
X1117699Y600818D01*
X1118904Y600529D01*
X1120140Y600432D01*
X1121376Y600529D01*
X1122581Y600818D01*
X1123726Y601292D01*
X1124782Y601940D01*
X1125725Y602745D01*
X1126530Y603688D01*
X1126560Y603736D01*
X1128246D01*
Y577364D01*
X1072513D01*
X1050458Y599419D01*
X1050471Y599474D01*
X1050568Y600710D01*
X1050471Y601946D01*
X1050182Y603151D01*
X1049707Y604296D01*
X1049060Y605353D01*
X1048255Y606295D01*
X1047312Y607100D01*
X1046256Y607747D01*
X1045111Y608222D01*
X1043906Y608511D01*
X1042824Y608596D01*
X1042487Y608990D01*
X1042087Y609824D01*
X1042562Y610969D01*
X1042851Y612174D01*
X1042948Y613410D01*
X1042851Y614646D01*
X1042562Y615851D01*
X1042184Y616763D01*
Y659568D01*
X1042790Y659973D01*
X1043630Y660710D01*
X1044367Y661550D01*
X1044988Y662479D01*
X1045482Y663481D01*
X1045841Y664539D01*
X1046059Y665635D01*
X1046132Y666750D01*
X1046059Y667865D01*
X1045841Y668961D01*
X1045482Y670019D01*
X1044988Y671021D01*
X1044367Y671950D01*
X1043630Y672790D01*
X1042790Y673527D01*
X1041861Y674148D01*
X1040859Y674642D01*
X1039801Y675001D01*
X1038705Y675219D01*
X1037590Y675292D01*
D02*
G37*
G36*
X1246182Y575430D02*
X1242060D01*
Y571307D01*
X1242507Y571415D01*
X1243313Y571749D01*
X1244056Y572204D01*
X1244719Y572770D01*
X1245286Y573433D01*
X1245741Y574177D01*
X1246075Y574983D01*
X1246182Y575430D01*
D02*
G37*
G36*
X1267460Y539672D02*
X1266424Y539465D01*
X1265321Y539091D01*
X1264275Y538576D01*
X1263307Y537928D01*
X1262430Y537160D01*
X1261662Y536283D01*
X1261014Y535315D01*
X1260499Y534269D01*
X1260125Y533166D01*
X1259919Y532130D01*
X1267460D01*
Y539672D01*
D02*
G37*
G36*
X1041321Y533400D02*
X1033780D01*
Y525858D01*
X1034816Y526064D01*
X1035919Y526439D01*
X1036965Y526954D01*
X1037934Y527602D01*
X1038810Y528370D01*
X1039578Y529246D01*
X1040226Y530215D01*
X1040741Y531261D01*
X1041115Y532364D01*
X1041321Y533400D01*
D02*
G37*
G36*
X1031240D02*
X1023699D01*
X1023904Y532364D01*
X1024279Y531261D01*
X1024794Y530215D01*
X1025442Y529246D01*
X1026210Y528370D01*
X1027086Y527602D01*
X1028055Y526954D01*
X1029101Y526439D01*
X1030204Y526064D01*
X1031240Y525858D01*
Y533400D01*
D02*
G37*
G36*
X1033780Y543481D02*
Y535940D01*
X1041321D01*
X1041115Y536976D01*
X1040741Y538079D01*
X1040226Y539125D01*
X1039578Y540093D01*
X1038810Y540970D01*
X1037934Y541738D01*
X1036965Y542385D01*
X1035919Y542901D01*
X1034816Y543275D01*
X1033780Y543481D01*
D02*
G37*
G36*
X1031240D02*
X1030204Y543275D01*
X1029101Y542901D01*
X1028055Y542385D01*
X1027086Y541738D01*
X1026210Y540970D01*
X1025442Y540093D01*
X1024794Y539125D01*
X1024279Y538079D01*
X1023904Y536976D01*
X1023699Y535940D01*
X1031240D01*
Y543481D01*
D02*
G37*
G36*
X1270000Y539672D02*
Y532130D01*
X1277542D01*
X1277336Y533166D01*
X1276961Y534269D01*
X1276445Y535315D01*
X1275798Y536283D01*
X1275030Y537160D01*
X1274154Y537928D01*
X1273185Y538576D01*
X1272139Y539091D01*
X1271036Y539465D01*
X1270000Y539672D01*
D02*
G37*
G36*
X769620Y861618D02*
Y850900D01*
X780338D01*
X780333Y850980D01*
X780107Y852313D01*
X779732Y853613D01*
X779215Y854862D01*
X778561Y856046D01*
X777778Y857149D01*
X776877Y858157D01*
X775869Y859058D01*
X774766Y859841D01*
X773582Y860495D01*
X772333Y861012D01*
X771033Y861387D01*
X769700Y861613D01*
X769620Y861618D01*
D02*
G37*
G36*
X767080D02*
X767000Y861613D01*
X765667Y861387D01*
X764367Y861012D01*
X763118Y860495D01*
X761934Y859841D01*
X760831Y859058D01*
X759823Y858157D01*
X758922Y857149D01*
X758139Y856046D01*
X757485Y854862D01*
X756968Y853613D01*
X756593Y852313D01*
X756367Y850980D01*
X756362Y850900D01*
X767080D01*
Y861618D01*
D02*
G37*
G36*
X1171060Y850702D02*
Y843160D01*
X1178601D01*
X1178395Y844196D01*
X1178021Y845300D01*
X1177505Y846345D01*
X1176858Y847314D01*
X1176089Y848190D01*
X1175213Y848958D01*
X1174244Y849606D01*
X1173199Y850121D01*
X1172096Y850496D01*
X1171060Y850702D01*
D02*
G37*
G36*
X779374Y911454D02*
X757326D01*
Y889406D01*
X779374D01*
Y911454D01*
D02*
G37*
G36*
X861112Y892810D02*
X850900D01*
Y882598D01*
X851140Y882614D01*
X852623Y882909D01*
X854056Y883396D01*
X855412Y884065D01*
X856670Y884905D01*
X857807Y885902D01*
X858805Y887040D01*
X859645Y888298D01*
X860314Y889654D01*
X860801Y891087D01*
X861096Y892570D01*
X861112Y892810D01*
D02*
G37*
G36*
X848360D02*
X838148D01*
X838164Y892570D01*
X838459Y891087D01*
X838946Y889654D01*
X839615Y888298D01*
X840455Y887040D01*
X841452Y885902D01*
X842590Y884905D01*
X843848Y884065D01*
X845204Y883396D01*
X846637Y882909D01*
X848120Y882614D01*
X848360Y882598D01*
Y892810D01*
D02*
G37*
G36*
X1168520Y850702D02*
X1167484Y850496D01*
X1166380Y850121D01*
X1165335Y849606D01*
X1164366Y848958D01*
X1163490Y848190D01*
X1162722Y847314D01*
X1162074Y846345D01*
X1161559Y845300D01*
X1161184Y844196D01*
X1160978Y843160D01*
X1168520D01*
Y850702D01*
D02*
G37*
G36*
Y840620D02*
X1160978D01*
X1161184Y839584D01*
X1161559Y838481D01*
X1162074Y837436D01*
X1162722Y836467D01*
X1163490Y835591D01*
X1164366Y834822D01*
X1165335Y834175D01*
X1166380Y833659D01*
X1167484Y833285D01*
X1168520Y833079D01*
Y840620D01*
D02*
G37*
G36*
X1240790Y868332D02*
X1239675Y868259D01*
X1238579Y868041D01*
X1237521Y867682D01*
X1236519Y867188D01*
X1235590Y866567D01*
X1234750Y865830D01*
X1234013Y864990D01*
X1233392Y864061D01*
X1232898Y863059D01*
X1232539Y862001D01*
X1232321Y860905D01*
X1232248Y859790D01*
X1232321Y858675D01*
X1232539Y857579D01*
X1232898Y856521D01*
X1233392Y855519D01*
X1234013Y854590D01*
X1234750Y853750D01*
X1235590Y853013D01*
X1236196Y852608D01*
Y830590D01*
X1236156Y830507D01*
X1235094Y829537D01*
X1234440Y829588D01*
X1233204Y829491D01*
X1231999Y829202D01*
X1230854Y828727D01*
X1229798Y828080D01*
X1228855Y827275D01*
X1228050Y826332D01*
X1227402Y825276D01*
X1226928Y824131D01*
X1226639Y822926D01*
X1226542Y821690D01*
X1226639Y820454D01*
X1226928Y819249D01*
X1227402Y818104D01*
X1228050Y817048D01*
X1228855Y816105D01*
X1229798Y815300D01*
X1230854Y814652D01*
X1231999Y814178D01*
X1233204Y813889D01*
X1234440Y813792D01*
X1235676Y813889D01*
X1236881Y814178D01*
X1238026Y814652D01*
X1239082Y815300D01*
X1240025Y816105D01*
X1240830Y817048D01*
X1241478Y818104D01*
X1241952Y819249D01*
X1242241Y820454D01*
X1242338Y821690D01*
X1242241Y822926D01*
X1242228Y822981D01*
X1244038Y824791D01*
X1244610Y825488D01*
X1245034Y826282D01*
X1245296Y827144D01*
X1245384Y828040D01*
Y852608D01*
X1245990Y853013D01*
X1246830Y853750D01*
X1247567Y854590D01*
X1248188Y855519D01*
X1248682Y856521D01*
X1249041Y857579D01*
X1249259Y858675D01*
X1249332Y859790D01*
X1249259Y860905D01*
X1249041Y862001D01*
X1248682Y863059D01*
X1248188Y864061D01*
X1247567Y864990D01*
X1246830Y865830D01*
X1245990Y866567D01*
X1245061Y867188D01*
X1244059Y867682D01*
X1243001Y868041D01*
X1241905Y868259D01*
X1240790Y868332D01*
D02*
G37*
G36*
X850900Y838251D02*
Y828040D01*
X861112D01*
X861096Y828279D01*
X860801Y829763D01*
X860314Y831196D01*
X859645Y832552D01*
X858805Y833810D01*
X857807Y834948D01*
X856670Y835945D01*
X855412Y836785D01*
X854056Y837454D01*
X852623Y837941D01*
X851140Y838236D01*
X850900Y838251D01*
D02*
G37*
G36*
X780338Y848360D02*
X769620D01*
Y837642D01*
X769700Y837647D01*
X771033Y837873D01*
X772333Y838248D01*
X773582Y838765D01*
X774766Y839419D01*
X775869Y840202D01*
X776877Y841103D01*
X777778Y842111D01*
X778561Y843214D01*
X779215Y844398D01*
X779732Y845647D01*
X780107Y846947D01*
X780333Y848280D01*
X780338Y848360D01*
D02*
G37*
G36*
X767080D02*
X756362D01*
X756367Y848280D01*
X756593Y846947D01*
X756968Y845647D01*
X757485Y844398D01*
X758139Y843214D01*
X758922Y842111D01*
X759823Y841103D01*
X760831Y840202D01*
X761934Y839419D01*
X763118Y838765D01*
X764367Y838248D01*
X765667Y837873D01*
X767000Y837647D01*
X767080Y837642D01*
Y848360D01*
D02*
G37*
G36*
X1178601Y840620D02*
X1171060D01*
Y833079D01*
X1172096Y833285D01*
X1173199Y833659D01*
X1174244Y834175D01*
X1175213Y834822D01*
X1176089Y835591D01*
X1176858Y836467D01*
X1177505Y837436D01*
X1178021Y838481D01*
X1178395Y839584D01*
X1178601Y840620D01*
D02*
G37*
G36*
X1055370Y951383D02*
X1054190Y951306D01*
X1053029Y951075D01*
X1051909Y950695D01*
X1050848Y950172D01*
X1049865Y949515D01*
X1048975Y948735D01*
X1048195Y947845D01*
X1047538Y946862D01*
X1047015Y945801D01*
X1046635Y944681D01*
X1046404Y943520D01*
X1046327Y942340D01*
X1046404Y941160D01*
X1046635Y939999D01*
X1047015Y938879D01*
X1047538Y937818D01*
X1048195Y936835D01*
X1048975Y935945D01*
X1049865Y935165D01*
X1050848Y934508D01*
X1051909Y933985D01*
X1053029Y933605D01*
X1054190Y933374D01*
X1055370Y933297D01*
X1056550Y933374D01*
X1057711Y933605D01*
X1058831Y933985D01*
X1059892Y934508D01*
X1060875Y935165D01*
X1061765Y935945D01*
X1062545Y936835D01*
X1063202Y937818D01*
X1063725Y938879D01*
X1064105Y939999D01*
X1064336Y941160D01*
X1064413Y942340D01*
X1064336Y943520D01*
X1064105Y944681D01*
X1063725Y945801D01*
X1063202Y946862D01*
X1062545Y947845D01*
X1061765Y948735D01*
X1060875Y949515D01*
X1059892Y950172D01*
X1058831Y950695D01*
X1057711Y951075D01*
X1056550Y951306D01*
X1055370Y951383D01*
D02*
G37*
G36*
X1029970D02*
X1028790Y951306D01*
X1027629Y951075D01*
X1026509Y950695D01*
X1025448Y950172D01*
X1024465Y949515D01*
X1023575Y948735D01*
X1022795Y947845D01*
X1022138Y946862D01*
X1021615Y945801D01*
X1021235Y944681D01*
X1021004Y943520D01*
X1020927Y942340D01*
X1021004Y941160D01*
X1021235Y939999D01*
X1021615Y938879D01*
X1022138Y937818D01*
X1022795Y936835D01*
X1023575Y935945D01*
X1024465Y935165D01*
X1025448Y934508D01*
X1026509Y933985D01*
X1027629Y933605D01*
X1028790Y933374D01*
X1029970Y933297D01*
X1031150Y933374D01*
X1032311Y933605D01*
X1033431Y933985D01*
X1034492Y934508D01*
X1035475Y935165D01*
X1036365Y935945D01*
X1037145Y936835D01*
X1037802Y937818D01*
X1038325Y938879D01*
X1038705Y939999D01*
X1038936Y941160D01*
X1039013Y942340D01*
X1038936Y943520D01*
X1038705Y944681D01*
X1038325Y945801D01*
X1037802Y946862D01*
X1037145Y947845D01*
X1036365Y948735D01*
X1035475Y949515D01*
X1034492Y950172D01*
X1033431Y950695D01*
X1032311Y951075D01*
X1031150Y951306D01*
X1029970Y951383D01*
D02*
G37*
G36*
X1004570D02*
X1003390Y951306D01*
X1002229Y951075D01*
X1001109Y950695D01*
X1000048Y950172D01*
X999065Y949515D01*
X998175Y948735D01*
X997395Y947845D01*
X996738Y946862D01*
X996215Y945801D01*
X995835Y944681D01*
X995604Y943520D01*
X995527Y942340D01*
X995604Y941160D01*
X995835Y939999D01*
X996215Y938879D01*
X996738Y937818D01*
X997395Y936835D01*
X998175Y935945D01*
X999065Y935165D01*
X1000048Y934508D01*
X1001109Y933985D01*
X1002229Y933605D01*
X1003390Y933374D01*
X1004570Y933297D01*
X1005750Y933374D01*
X1006911Y933605D01*
X1008031Y933985D01*
X1009092Y934508D01*
X1010075Y935165D01*
X1010965Y935945D01*
X1011745Y936835D01*
X1012402Y937818D01*
X1012925Y938879D01*
X1013305Y939999D01*
X1013536Y941160D01*
X1013613Y942340D01*
X1013536Y943520D01*
X1013305Y944681D01*
X1012925Y945801D01*
X1012402Y946862D01*
X1011745Y947845D01*
X1010965Y948735D01*
X1010075Y949515D01*
X1009092Y950172D01*
X1008031Y950695D01*
X1006911Y951075D01*
X1005750Y951306D01*
X1004570Y951383D01*
D02*
G37*
G36*
X1172210D02*
X1171030Y951306D01*
X1169869Y951075D01*
X1168749Y950695D01*
X1167688Y950172D01*
X1166705Y949515D01*
X1165815Y948735D01*
X1165035Y947845D01*
X1164378Y946862D01*
X1163855Y945801D01*
X1163475Y944681D01*
X1163244Y943520D01*
X1163167Y942340D01*
X1163244Y941160D01*
X1163475Y939999D01*
X1163855Y938879D01*
X1164378Y937818D01*
X1165035Y936835D01*
X1165815Y935945D01*
X1166705Y935165D01*
X1167688Y934508D01*
X1168749Y933985D01*
X1169869Y933605D01*
X1171030Y933374D01*
X1172210Y933297D01*
X1173390Y933374D01*
X1174551Y933605D01*
X1175671Y933985D01*
X1176732Y934508D01*
X1177715Y935165D01*
X1178605Y935945D01*
X1179385Y936835D01*
X1180042Y937818D01*
X1180565Y938879D01*
X1180945Y939999D01*
X1181176Y941160D01*
X1181253Y942340D01*
X1181176Y943520D01*
X1180945Y944681D01*
X1180565Y945801D01*
X1180042Y946862D01*
X1179385Y947845D01*
X1178605Y948735D01*
X1177715Y949515D01*
X1176732Y950172D01*
X1175671Y950695D01*
X1174551Y951075D01*
X1173390Y951306D01*
X1172210Y951383D01*
D02*
G37*
G36*
X1092200Y959128D02*
X920750D01*
X920021Y959032D01*
X919341Y958751D01*
X918757Y958303D01*
X913677Y953223D01*
X913229Y952639D01*
X912948Y951959D01*
X912852Y951230D01*
Y945254D01*
X911582Y945044D01*
X911325Y945801D01*
X910802Y946862D01*
X910145Y947845D01*
X909365Y948735D01*
X908475Y949515D01*
X907492Y950172D01*
X906431Y950695D01*
X905311Y951075D01*
X904150Y951306D01*
X902970Y951383D01*
X901790Y951306D01*
X900629Y951075D01*
X899509Y950695D01*
X898448Y950172D01*
X897465Y949515D01*
X896575Y948735D01*
X895795Y947845D01*
X895138Y946862D01*
X894615Y945801D01*
X894235Y944681D01*
X894004Y943520D01*
X893927Y942340D01*
X894004Y941160D01*
X894235Y939999D01*
X894615Y938879D01*
X895138Y937818D01*
X895795Y936835D01*
X896575Y935945D01*
X897465Y935165D01*
X898448Y934508D01*
X899509Y933985D01*
X900629Y933605D01*
X901790Y933374D01*
X902970Y933297D01*
X904150Y933374D01*
X905311Y933605D01*
X906431Y933985D01*
X907492Y934508D01*
X908475Y935165D01*
X909365Y935945D01*
X910145Y936835D01*
X910802Y937818D01*
X911325Y938879D01*
X911582Y939636D01*
X912852Y939426D01*
Y935887D01*
X856169Y879204D01*
X839106D01*
Y858156D01*
X860154D01*
Y875219D01*
X917663Y932727D01*
X918111Y933311D01*
X918392Y933991D01*
X918488Y934720D01*
Y939426D01*
X919758Y939636D01*
X920015Y938879D01*
X920538Y937818D01*
X921195Y936835D01*
X921975Y935945D01*
X922865Y935165D01*
X923848Y934508D01*
X924909Y933985D01*
X926029Y933605D01*
X927190Y933374D01*
X928370Y933297D01*
X929550Y933374D01*
X930711Y933605D01*
X931831Y933985D01*
X932892Y934508D01*
X933875Y935165D01*
X934765Y935945D01*
X935545Y936835D01*
X936202Y937818D01*
X936725Y938879D01*
X937105Y939999D01*
X937336Y941160D01*
X937413Y942340D01*
X937336Y943520D01*
X937105Y944681D01*
X936725Y945801D01*
X936202Y946862D01*
X935545Y947845D01*
X934765Y948735D01*
X933875Y949515D01*
X932892Y950172D01*
X931831Y950695D01*
X930711Y951075D01*
X929550Y951306D01*
X928370Y951383D01*
X927190Y951306D01*
X926029Y951075D01*
X924909Y950695D01*
X923848Y950172D01*
X922865Y949515D01*
X921975Y948735D01*
X921195Y947845D01*
X920538Y946862D01*
X920015Y945801D01*
X919758Y945044D01*
X918488Y945254D01*
Y950063D01*
X921917Y953492D01*
X1091033D01*
X1098115Y946409D01*
X1097815Y945801D01*
X1097435Y944681D01*
X1097204Y943520D01*
X1097127Y942340D01*
X1097204Y941160D01*
X1097435Y939999D01*
X1097815Y938879D01*
X1098338Y937818D01*
X1098995Y936835D01*
X1099775Y935945D01*
X1100665Y935165D01*
X1101648Y934508D01*
X1102709Y933985D01*
X1103829Y933605D01*
X1104990Y933374D01*
X1106170Y933297D01*
X1107350Y933374D01*
X1108511Y933605D01*
X1109631Y933985D01*
X1110692Y934508D01*
X1111675Y935165D01*
X1112565Y935945D01*
X1113345Y936835D01*
X1114002Y937818D01*
X1114525Y938879D01*
X1114905Y939999D01*
X1115136Y941160D01*
X1115213Y942340D01*
X1115136Y943520D01*
X1114905Y944681D01*
X1114525Y945801D01*
X1114002Y946862D01*
X1113345Y947845D01*
X1112565Y948735D01*
X1111675Y949515D01*
X1110692Y950172D01*
X1109631Y950695D01*
X1108511Y951075D01*
X1107350Y951306D01*
X1106170Y951383D01*
X1104990Y951306D01*
X1103829Y951075D01*
X1102709Y950695D01*
X1102101Y950395D01*
X1094193Y958303D01*
X1093609Y958751D01*
X1092929Y959032D01*
X1092200Y959128D01*
D02*
G37*
G36*
X1080770Y951383D02*
X1079590Y951306D01*
X1078429Y951075D01*
X1077309Y950695D01*
X1076248Y950172D01*
X1075265Y949515D01*
X1074375Y948735D01*
X1073595Y947845D01*
X1072938Y946862D01*
X1072415Y945801D01*
X1072035Y944681D01*
X1071804Y943520D01*
X1071727Y942340D01*
X1071804Y941160D01*
X1072035Y939999D01*
X1072415Y938879D01*
X1072938Y937818D01*
X1073595Y936835D01*
X1074375Y935945D01*
X1075265Y935165D01*
X1076248Y934508D01*
X1077309Y933985D01*
X1078429Y933605D01*
X1079590Y933374D01*
X1080770Y933297D01*
X1081950Y933374D01*
X1083111Y933605D01*
X1084231Y933985D01*
X1085292Y934508D01*
X1086275Y935165D01*
X1087165Y935945D01*
X1087945Y936835D01*
X1088602Y937818D01*
X1089125Y938879D01*
X1089505Y939999D01*
X1089736Y941160D01*
X1089813Y942340D01*
X1089736Y943520D01*
X1089505Y944681D01*
X1089125Y945801D01*
X1088602Y946862D01*
X1087945Y947845D01*
X1087165Y948735D01*
X1086275Y949515D01*
X1085292Y950172D01*
X1084231Y950695D01*
X1083111Y951075D01*
X1081950Y951306D01*
X1080770Y951383D01*
D02*
G37*
G36*
X979170D02*
X977990Y951306D01*
X976829Y951075D01*
X975709Y950695D01*
X974648Y950172D01*
X973665Y949515D01*
X972775Y948735D01*
X971995Y947845D01*
X971338Y946862D01*
X970815Y945801D01*
X970435Y944681D01*
X970204Y943520D01*
X970127Y942340D01*
X970204Y941160D01*
X970435Y939999D01*
X970815Y938879D01*
X971338Y937818D01*
X971995Y936835D01*
X972775Y935945D01*
X973665Y935165D01*
X974648Y934508D01*
X975709Y933985D01*
X976829Y933605D01*
X977990Y933374D01*
X979170Y933297D01*
X980350Y933374D01*
X981511Y933605D01*
X982631Y933985D01*
X983692Y934508D01*
X984675Y935165D01*
X985565Y935945D01*
X986345Y936835D01*
X987002Y937818D01*
X987525Y938879D01*
X987905Y939999D01*
X988136Y941160D01*
X988213Y942340D01*
X988136Y943520D01*
X987905Y944681D01*
X987525Y945801D01*
X987002Y946862D01*
X986345Y947845D01*
X985565Y948735D01*
X984675Y949515D01*
X983692Y950172D01*
X982631Y950695D01*
X981511Y951075D01*
X980350Y951306D01*
X979170Y951383D01*
D02*
G37*
G36*
X953770Y925983D02*
X952590Y925906D01*
X951429Y925675D01*
X950309Y925295D01*
X949248Y924772D01*
X948265Y924115D01*
X947375Y923335D01*
X946595Y922445D01*
X945938Y921462D01*
X945415Y920401D01*
X945035Y919281D01*
X944804Y918120D01*
X944727Y916940D01*
X944804Y915760D01*
X945035Y914599D01*
X945415Y913479D01*
X945938Y912418D01*
X946595Y911435D01*
X947375Y910545D01*
X948265Y909765D01*
X949248Y909108D01*
X950309Y908585D01*
X951429Y908205D01*
X952590Y907974D01*
X953770Y907897D01*
X954950Y907974D01*
X956111Y908205D01*
X957231Y908585D01*
X958292Y909108D01*
X959275Y909765D01*
X960165Y910545D01*
X960945Y911435D01*
X961602Y912418D01*
X962125Y913479D01*
X962505Y914599D01*
X962736Y915760D01*
X962813Y916940D01*
X962736Y918120D01*
X962505Y919281D01*
X962125Y920401D01*
X961602Y921462D01*
X960945Y922445D01*
X960165Y923335D01*
X959275Y924115D01*
X958292Y924772D01*
X957231Y925295D01*
X956111Y925675D01*
X954950Y925906D01*
X953770Y925983D01*
D02*
G37*
G36*
X850900Y905562D02*
Y895350D01*
X861112D01*
X861096Y895590D01*
X860801Y897073D01*
X860314Y898506D01*
X859645Y899862D01*
X858805Y901120D01*
X857807Y902258D01*
X856670Y903255D01*
X855412Y904095D01*
X854056Y904764D01*
X852623Y905251D01*
X851140Y905546D01*
X850900Y905562D01*
D02*
G37*
G36*
X848360D02*
X848120Y905546D01*
X846637Y905251D01*
X845204Y904764D01*
X843848Y904095D01*
X842590Y903255D01*
X841452Y902258D01*
X840455Y901120D01*
X839615Y899862D01*
X838946Y898506D01*
X838459Y897073D01*
X838164Y895590D01*
X838148Y895350D01*
X848360D01*
Y905562D01*
D02*
G37*
G36*
X953770Y951383D02*
X952590Y951306D01*
X951429Y951075D01*
X950309Y950695D01*
X949248Y950172D01*
X948265Y949515D01*
X947375Y948735D01*
X946595Y947845D01*
X945938Y946862D01*
X945415Y945801D01*
X945035Y944681D01*
X944804Y943520D01*
X944727Y942340D01*
X944804Y941160D01*
X945035Y939999D01*
X945415Y938879D01*
X945938Y937818D01*
X946595Y936835D01*
X947375Y935945D01*
X948265Y935165D01*
X949248Y934508D01*
X950309Y933985D01*
X951429Y933605D01*
X952590Y933374D01*
X953770Y933297D01*
X954950Y933374D01*
X956111Y933605D01*
X957231Y933985D01*
X958292Y934508D01*
X959275Y935165D01*
X960165Y935945D01*
X960945Y936835D01*
X961602Y937818D01*
X962125Y938879D01*
X962505Y939999D01*
X962736Y941160D01*
X962813Y942340D01*
X962736Y943520D01*
X962505Y944681D01*
X962125Y945801D01*
X961602Y946862D01*
X960945Y947845D01*
X960165Y948735D01*
X959275Y949515D01*
X958292Y950172D01*
X957231Y950695D01*
X956111Y951075D01*
X954950Y951306D01*
X953770Y951383D01*
D02*
G37*
G36*
X1140594Y951364D02*
X1122546D01*
Y933316D01*
X1124521D01*
X1125007Y932143D01*
X1124173Y931308D01*
X1019930D01*
X1019201Y931212D01*
X1018521Y930930D01*
X1017937Y930483D01*
X1017937Y930482D01*
X1015277Y927823D01*
X1014829Y927239D01*
X1014548Y926559D01*
X1014452Y925830D01*
Y919854D01*
X1013182Y919644D01*
X1012925Y920401D01*
X1012402Y921462D01*
X1011745Y922445D01*
X1010965Y923335D01*
X1010075Y924115D01*
X1009092Y924772D01*
X1008031Y925295D01*
X1006911Y925675D01*
X1005750Y925906D01*
X1004570Y925983D01*
X1003390Y925906D01*
X1002229Y925675D01*
X1001109Y925295D01*
X1000048Y924772D01*
X999065Y924115D01*
X998175Y923335D01*
X997395Y922445D01*
X996738Y921462D01*
X996215Y920401D01*
X995835Y919281D01*
X995604Y918120D01*
X995527Y916940D01*
X995604Y915760D01*
X995835Y914599D01*
X996215Y913479D01*
X996738Y912418D01*
X997395Y911435D01*
X998175Y910545D01*
X999065Y909765D01*
X1000048Y909108D01*
X1001109Y908585D01*
X1002229Y908205D01*
X1003390Y907974D01*
X1004570Y907897D01*
X1005750Y907974D01*
X1006911Y908205D01*
X1008031Y908585D01*
X1009092Y909108D01*
X1010075Y909765D01*
X1010965Y910545D01*
X1011745Y911435D01*
X1012402Y912418D01*
X1012925Y913479D01*
X1013182Y914236D01*
X1014452Y914026D01*
Y909471D01*
X970827Y865847D01*
X970379Y865263D01*
X970098Y864583D01*
X970002Y863854D01*
Y832601D01*
X969234Y832283D01*
X968177Y831636D01*
X967235Y830831D01*
X966430Y829889D01*
X965984Y829161D01*
X964714Y829519D01*
Y851266D01*
X968644D01*
Y868314D01*
X951596D01*
Y851266D01*
X955526D01*
Y807720D01*
X955614Y806824D01*
X955876Y805962D01*
X956186Y805382D01*
X956129Y805146D01*
X956032Y803910D01*
X956129Y802674D01*
X956418Y801469D01*
X955323Y800795D01*
X954603Y801410D01*
X953546Y802057D01*
X952401Y802532D01*
X951196Y802821D01*
X949960Y802918D01*
X949838Y802909D01*
X932964Y819783D01*
Y863530D01*
X933012Y863560D01*
X933955Y864365D01*
X934760Y865307D01*
X935407Y866364D01*
X935882Y867509D01*
X936171Y868714D01*
X936268Y869950D01*
X936171Y871186D01*
X935882Y872391D01*
X935407Y873536D01*
X934760Y874593D01*
X933955Y875535D01*
X933012Y876340D01*
X931956Y876988D01*
X930811Y877462D01*
X929606Y877751D01*
X928370Y877848D01*
X927134Y877751D01*
X925929Y877462D01*
X924784Y876988D01*
X923727Y876340D01*
X922785Y875535D01*
X921980Y874593D01*
X921332Y873536D01*
X920858Y872391D01*
X920569Y871186D01*
X920472Y869950D01*
X920569Y868714D01*
X920858Y867509D01*
X921332Y866364D01*
X921980Y865307D01*
X922785Y864365D01*
X923727Y863560D01*
X923776Y863530D01*
Y817880D01*
X923864Y816984D01*
X924126Y816122D01*
X924550Y815328D01*
X925122Y814632D01*
X942418Y797335D01*
X942159Y796256D01*
X942062Y795020D01*
X942159Y793784D01*
X942448Y792579D01*
X942923Y791434D01*
X943570Y790378D01*
X944375Y789435D01*
X945318Y788630D01*
X946374Y787982D01*
X947519Y787508D01*
X948724Y787219D01*
X949960Y787122D01*
X951196Y787219D01*
X952401Y787508D01*
X953546Y787982D01*
X954603Y788630D01*
X955545Y789435D01*
X956350Y790378D01*
X956998Y791434D01*
X957472Y792579D01*
X957761Y793784D01*
X957858Y795020D01*
X957761Y796256D01*
X957472Y797461D01*
X958567Y798136D01*
X959287Y797520D01*
X960344Y796872D01*
X961489Y796398D01*
X962694Y796109D01*
X963930Y796012D01*
X965166Y796109D01*
X966371Y796398D01*
X967516Y796872D01*
X968572Y797520D01*
X969515Y798325D01*
X970320Y799268D01*
X970967Y800324D01*
X971442Y801469D01*
X971731Y802674D01*
X971828Y803910D01*
X971731Y805146D01*
X971442Y806351D01*
X970967Y807496D01*
X970320Y808552D01*
X969515Y809495D01*
X968572Y810300D01*
X967516Y810947D01*
X966371Y811422D01*
X965166Y811711D01*
X964714Y811747D01*
Y820973D01*
X965984Y821331D01*
X966430Y820603D01*
X967235Y819661D01*
X968177Y818856D01*
X969234Y818208D01*
X970379Y817734D01*
X971584Y817445D01*
X972820Y817348D01*
X974056Y817445D01*
X975261Y817734D01*
X976406Y818208D01*
X977462Y818856D01*
X978405Y819661D01*
X979210Y820603D01*
X979825Y821608D01*
X980011Y821645D01*
X981177Y821527D01*
X981276Y821202D01*
X981700Y820408D01*
X982271Y819712D01*
X982968Y819140D01*
X983762Y818716D01*
X984624Y818454D01*
X985520Y818366D01*
X986416Y818454D01*
X986457Y818466D01*
X986463Y818463D01*
X987608Y817988D01*
X988814Y817699D01*
X990049Y817602D01*
X991285Y817699D01*
X992490Y817988D01*
X993635Y818463D01*
X994692Y819110D01*
X995634Y819915D01*
X996190Y820566D01*
X997116Y820620D01*
X997665Y820428D01*
X998180Y819587D01*
X998985Y818645D01*
X999928Y817840D01*
X1000984Y817193D01*
X1002129Y816718D01*
X1003334Y816429D01*
X1004570Y816332D01*
X1005806Y816429D01*
X1007011Y816718D01*
X1008156Y817193D01*
X1009212Y817840D01*
X1010155Y818645D01*
X1010960Y819587D01*
X1011608Y820644D01*
X1012082Y821789D01*
X1012371Y822994D01*
X1014168Y824791D01*
X1014740Y825488D01*
X1015164Y826282D01*
X1015426Y827144D01*
X1015514Y828040D01*
Y852608D01*
X1016120Y853013D01*
X1016960Y853750D01*
X1017697Y854590D01*
X1018318Y855519D01*
X1018812Y856521D01*
X1019171Y857579D01*
X1019389Y858675D01*
X1019462Y859790D01*
X1019389Y860905D01*
X1019171Y862001D01*
X1018812Y863059D01*
X1018318Y864061D01*
X1017697Y864990D01*
X1016960Y865830D01*
X1016120Y866567D01*
X1015191Y867188D01*
X1014189Y867682D01*
X1013131Y868041D01*
X1012035Y868259D01*
X1010920Y868332D01*
X1009805Y868259D01*
X1008709Y868041D01*
X1007651Y867682D01*
X1006649Y867188D01*
X1005720Y866567D01*
X1004880Y865830D01*
X1004143Y864990D01*
X1003522Y864061D01*
X1003028Y863059D01*
X1002669Y862001D01*
X1002451Y860905D01*
X1002378Y859790D01*
X1002451Y858675D01*
X1002669Y857579D01*
X1003028Y856521D01*
X1003522Y855519D01*
X1004143Y854590D01*
X1004880Y853750D01*
X1005720Y853013D01*
X1006326Y852608D01*
Y833083D01*
X1005056Y832090D01*
X1004570Y832128D01*
X1003334Y832031D01*
X1002129Y831742D01*
X1000984Y831267D01*
X999928Y830620D01*
X998985Y829815D01*
X998429Y829164D01*
X997503Y829110D01*
X996954Y829302D01*
X996439Y830143D01*
X995634Y831085D01*
X994692Y831890D01*
X993635Y832538D01*
X992490Y833012D01*
X991285Y833301D01*
X990114Y833393D01*
Y852608D01*
X990720Y853013D01*
X991560Y853750D01*
X992297Y854590D01*
X992918Y855519D01*
X993412Y856521D01*
X993771Y857579D01*
X993989Y858675D01*
X994062Y859790D01*
X993989Y860905D01*
X993771Y862001D01*
X993412Y863059D01*
X992918Y864061D01*
X992297Y864990D01*
X991560Y865830D01*
X990720Y866567D01*
X989791Y867188D01*
X988789Y867682D01*
X987731Y868041D01*
X986635Y868259D01*
X985520Y868332D01*
X984405Y868259D01*
X983309Y868041D01*
X982521Y867774D01*
X981788Y868837D01*
X1019263Y906311D01*
X1019711Y906895D01*
X1019992Y907575D01*
X1020088Y908304D01*
Y914026D01*
X1021358Y914236D01*
X1021615Y913479D01*
X1022138Y912418D01*
X1022795Y911435D01*
X1023575Y910545D01*
X1024465Y909765D01*
X1025448Y909108D01*
X1026509Y908585D01*
X1027629Y908205D01*
X1028790Y907974D01*
X1029970Y907897D01*
X1031150Y907974D01*
X1032311Y908205D01*
X1033431Y908585D01*
X1034492Y909108D01*
X1035475Y909765D01*
X1036365Y910545D01*
X1037145Y911435D01*
X1037802Y912418D01*
X1038325Y913479D01*
X1038705Y914599D01*
X1038936Y915760D01*
X1039013Y916940D01*
X1038936Y918120D01*
X1038705Y919281D01*
X1038325Y920401D01*
X1037802Y921462D01*
X1037145Y922445D01*
X1036365Y923335D01*
X1035475Y924115D01*
X1035045Y924402D01*
X1035431Y925672D01*
X1049909D01*
X1050295Y924402D01*
X1049865Y924115D01*
X1048975Y923335D01*
X1048195Y922445D01*
X1047538Y921462D01*
X1047015Y920401D01*
X1046635Y919281D01*
X1046404Y918120D01*
X1046327Y916940D01*
X1046404Y915760D01*
X1046635Y914599D01*
X1047015Y913479D01*
X1047538Y912418D01*
X1048195Y911435D01*
X1048975Y910545D01*
X1049865Y909765D01*
X1050848Y909108D01*
X1051909Y908585D01*
X1053029Y908205D01*
X1054190Y907974D01*
X1055370Y907897D01*
X1056550Y907974D01*
X1057711Y908205D01*
X1058831Y908585D01*
X1059892Y909108D01*
X1060875Y909765D01*
X1061765Y910545D01*
X1062545Y911435D01*
X1063202Y912418D01*
X1063725Y913479D01*
X1064105Y914599D01*
X1064336Y915760D01*
X1064413Y916940D01*
X1064336Y918120D01*
X1064105Y919281D01*
X1063725Y920401D01*
X1063202Y921462D01*
X1062545Y922445D01*
X1061765Y923335D01*
X1060875Y924115D01*
X1060445Y924402D01*
X1060831Y925672D01*
X1075309D01*
X1075695Y924402D01*
X1075265Y924115D01*
X1074375Y923335D01*
X1073595Y922445D01*
X1072938Y921462D01*
X1072415Y920401D01*
X1072035Y919281D01*
X1071804Y918120D01*
X1071727Y916940D01*
X1071804Y915760D01*
X1072035Y914599D01*
X1072415Y913479D01*
X1072938Y912418D01*
X1073595Y911435D01*
X1074375Y910545D01*
X1075265Y909765D01*
X1076248Y909108D01*
X1077309Y908585D01*
X1078429Y908205D01*
X1079590Y907974D01*
X1080770Y907897D01*
X1081950Y907974D01*
X1083111Y908205D01*
X1084231Y908585D01*
X1085292Y909108D01*
X1086275Y909765D01*
X1087165Y910545D01*
X1087945Y911435D01*
X1088602Y912418D01*
X1089125Y913479D01*
X1089505Y914599D01*
X1089736Y915760D01*
X1089813Y916940D01*
X1089736Y918120D01*
X1089505Y919281D01*
X1089125Y920401D01*
X1088602Y921462D01*
X1087945Y922445D01*
X1087165Y923335D01*
X1086275Y924115D01*
X1085845Y924402D01*
X1086231Y925672D01*
X1100709D01*
X1101095Y924402D01*
X1100665Y924115D01*
X1099775Y923335D01*
X1098995Y922445D01*
X1098338Y921462D01*
X1097815Y920401D01*
X1097435Y919281D01*
X1097204Y918120D01*
X1097127Y916940D01*
X1097204Y915760D01*
X1097435Y914599D01*
X1097815Y913479D01*
X1098338Y912418D01*
X1098995Y911435D01*
X1099775Y910545D01*
X1100665Y909765D01*
X1101648Y909108D01*
X1102709Y908585D01*
X1103829Y908205D01*
X1104990Y907974D01*
X1106170Y907897D01*
X1107350Y907974D01*
X1108511Y908205D01*
X1109631Y908585D01*
X1110692Y909108D01*
X1111675Y909765D01*
X1112565Y910545D01*
X1113345Y911435D01*
X1114002Y912418D01*
X1114525Y913479D01*
X1114905Y914599D01*
X1115136Y915760D01*
X1115213Y916940D01*
X1115136Y918120D01*
X1114905Y919281D01*
X1114525Y920401D01*
X1114002Y921462D01*
X1113345Y922445D01*
X1112565Y923335D01*
X1111675Y924115D01*
X1111245Y924402D01*
X1111631Y925672D01*
X1122546D01*
Y907916D01*
X1140594D01*
Y925964D01*
X1128596D01*
X1128069Y927234D01*
X1133563Y932727D01*
X1134011Y933311D01*
X1134013Y933316D01*
X1140594D01*
Y951364D01*
D02*
G37*
G36*
X979170Y925983D02*
X977990Y925906D01*
X976829Y925675D01*
X975709Y925295D01*
X974648Y924772D01*
X973665Y924115D01*
X972775Y923335D01*
X971995Y922445D01*
X971338Y921462D01*
X970815Y920401D01*
X970435Y919281D01*
X970204Y918120D01*
X970127Y916940D01*
X970204Y915760D01*
X970435Y914599D01*
X970815Y913479D01*
X971338Y912418D01*
X971995Y911435D01*
X972775Y910545D01*
X973665Y909765D01*
X974648Y909108D01*
X975709Y908585D01*
X976829Y908205D01*
X977990Y907974D01*
X979170Y907897D01*
X980350Y907974D01*
X981511Y908205D01*
X982631Y908585D01*
X983692Y909108D01*
X984675Y909765D01*
X985565Y910545D01*
X986345Y911435D01*
X987002Y912418D01*
X987525Y913479D01*
X987905Y914599D01*
X988136Y915760D01*
X988213Y916940D01*
X988136Y918120D01*
X987905Y919281D01*
X987525Y920401D01*
X987002Y921462D01*
X986345Y922445D01*
X985565Y923335D01*
X984675Y924115D01*
X983692Y924772D01*
X982631Y925295D01*
X981511Y925675D01*
X980350Y925906D01*
X979170Y925983D01*
D02*
G37*
G36*
X1099820Y779702D02*
X1098784Y779495D01*
X1097681Y779121D01*
X1096635Y778605D01*
X1095667Y777958D01*
X1094790Y777190D01*
X1094022Y776313D01*
X1093374Y775345D01*
X1092859Y774299D01*
X1092485Y773196D01*
X1092279Y772160D01*
X1099820D01*
Y779702D01*
D02*
G37*
G36*
X1243643Y768470D02*
X1239520D01*
Y764347D01*
X1239967Y764455D01*
X1240773Y764789D01*
X1241516Y765244D01*
X1242179Y765810D01*
X1242746Y766473D01*
X1243201Y767217D01*
X1243535Y768023D01*
X1243643Y768470D01*
D02*
G37*
G36*
X1214120D02*
X1209997D01*
X1210105Y768023D01*
X1210439Y767217D01*
X1210894Y766473D01*
X1211460Y765810D01*
X1212124Y765244D01*
X1212867Y764789D01*
X1213673Y764455D01*
X1214120Y764347D01*
Y768470D01*
D02*
G37*
G36*
X920750Y801370D02*
X913208D01*
X913415Y800334D01*
X913789Y799231D01*
X914305Y798185D01*
X914952Y797216D01*
X915720Y796340D01*
X916597Y795572D01*
X917565Y794924D01*
X918611Y794409D01*
X919714Y794035D01*
X920750Y793829D01*
Y801370D01*
D02*
G37*
G36*
X860154Y811894D02*
X839106D01*
Y790846D01*
X860154D01*
Y811894D01*
D02*
G37*
G36*
X1102360Y779702D02*
Y772160D01*
X1109902D01*
X1109696Y773196D01*
X1109321Y774299D01*
X1108805Y775345D01*
X1108158Y776313D01*
X1107390Y777190D01*
X1106514Y777958D01*
X1105545Y778605D01*
X1104499Y779121D01*
X1103396Y779495D01*
X1102360Y779702D01*
D02*
G37*
G36*
X1013773Y768470D02*
X1009650D01*
Y764347D01*
X1010097Y764455D01*
X1010903Y764789D01*
X1011646Y765244D01*
X1012309Y765810D01*
X1012876Y766473D01*
X1013331Y767217D01*
X1013665Y768023D01*
X1013773Y768470D01*
D02*
G37*
G36*
X850900Y770941D02*
Y760730D01*
X861112D01*
X861096Y760969D01*
X860801Y762453D01*
X860314Y763886D01*
X859645Y765242D01*
X858805Y766500D01*
X857807Y767637D01*
X856670Y768635D01*
X855412Y769475D01*
X854056Y770144D01*
X852623Y770631D01*
X851140Y770926D01*
X850900Y770941D01*
D02*
G37*
G36*
X848360D02*
X848120Y770926D01*
X846637Y770631D01*
X845204Y770144D01*
X843848Y769475D01*
X842590Y768635D01*
X841452Y767637D01*
X840455Y766500D01*
X839615Y765242D01*
X838946Y763886D01*
X838459Y762453D01*
X838164Y760969D01*
X838148Y760730D01*
X848360D01*
Y770941D01*
D02*
G37*
G36*
X861112Y758190D02*
X850900D01*
Y747979D01*
X851140Y747994D01*
X852623Y748289D01*
X854056Y748776D01*
X855412Y749445D01*
X856670Y750285D01*
X857807Y751283D01*
X858805Y752420D01*
X859645Y753678D01*
X860314Y755034D01*
X860801Y756467D01*
X861096Y757951D01*
X861112Y758190D01*
D02*
G37*
G36*
X984250Y768470D02*
X980127D01*
X980235Y768023D01*
X980569Y767217D01*
X981024Y766473D01*
X981590Y765810D01*
X982254Y765244D01*
X982997Y764789D01*
X983803Y764455D01*
X984250Y764347D01*
Y768470D01*
D02*
G37*
G36*
X1109902Y769620D02*
X1102360D01*
Y762078D01*
X1103396Y762284D01*
X1104499Y762659D01*
X1105545Y763175D01*
X1106514Y763822D01*
X1107390Y764590D01*
X1108158Y765467D01*
X1108805Y766435D01*
X1109321Y767481D01*
X1109696Y768584D01*
X1109902Y769620D01*
D02*
G37*
G36*
X1099820D02*
X1092279D01*
X1092485Y768584D01*
X1092859Y767481D01*
X1093374Y766435D01*
X1094022Y765467D01*
X1094790Y764590D01*
X1095667Y763822D01*
X1096635Y763175D01*
X1097681Y762659D01*
X1098784Y762284D01*
X1099820Y762078D01*
Y769620D01*
D02*
G37*
G36*
X848360Y825500D02*
X838148D01*
X838164Y825260D01*
X838459Y823777D01*
X838946Y822344D01*
X839615Y820988D01*
X840455Y819730D01*
X841452Y818593D01*
X842590Y817595D01*
X843848Y816755D01*
X845204Y816086D01*
X846637Y815599D01*
X848120Y815304D01*
X848360Y815288D01*
Y825500D01*
D02*
G37*
G36*
X923290Y811451D02*
Y803910D01*
X930832D01*
X930626Y804946D01*
X930251Y806049D01*
X929735Y807095D01*
X929088Y808064D01*
X928320Y808940D01*
X927443Y809708D01*
X926475Y810356D01*
X925429Y810871D01*
X924326Y811245D01*
X923290Y811451D01*
D02*
G37*
G36*
X920750D02*
X919714Y811245D01*
X918611Y810871D01*
X917565Y810356D01*
X916597Y809708D01*
X915720Y808940D01*
X914952Y808064D01*
X914305Y807095D01*
X913789Y806049D01*
X913415Y804946D01*
X913208Y803910D01*
X920750D01*
Y811451D01*
D02*
G37*
G36*
X848360Y838251D02*
X848120Y838236D01*
X846637Y837941D01*
X845204Y837454D01*
X843848Y836785D01*
X842590Y835945D01*
X841452Y834948D01*
X840455Y833810D01*
X839615Y832552D01*
X838946Y831196D01*
X838459Y829763D01*
X838164Y828279D01*
X838148Y828040D01*
X848360D01*
Y838251D01*
D02*
G37*
G36*
X1215390Y868332D02*
X1214275Y868259D01*
X1213179Y868041D01*
X1212121Y867682D01*
X1211119Y867188D01*
X1210190Y866567D01*
X1209350Y865830D01*
X1208613Y864990D01*
X1207992Y864061D01*
X1207498Y863059D01*
X1207139Y862001D01*
X1206921Y860905D01*
X1206848Y859790D01*
X1206921Y858675D01*
X1207139Y857579D01*
X1207498Y856521D01*
X1207992Y855519D01*
X1208613Y854590D01*
X1209350Y853750D01*
X1210190Y853013D01*
X1210796Y852608D01*
Y829488D01*
X1210270Y828873D01*
X1209622Y827816D01*
X1209148Y826671D01*
X1208859Y825466D01*
X1208762Y824230D01*
X1208859Y822994D01*
X1209148Y821789D01*
X1209622Y820644D01*
X1210270Y819587D01*
X1211075Y818645D01*
X1212018Y817840D01*
X1213074Y817193D01*
X1214219Y816718D01*
X1215424Y816429D01*
X1216660Y816332D01*
X1217896Y816429D01*
X1219101Y816718D01*
X1220246Y817193D01*
X1221302Y817840D01*
X1222245Y818645D01*
X1223050Y819587D01*
X1223698Y820644D01*
X1224172Y821789D01*
X1224461Y822994D01*
X1224558Y824230D01*
X1224461Y825466D01*
X1224172Y826671D01*
X1223698Y827816D01*
X1223050Y828873D01*
X1222245Y829815D01*
X1221302Y830620D01*
X1220246Y831267D01*
X1219984Y831376D01*
Y852608D01*
X1220590Y853013D01*
X1221430Y853750D01*
X1222167Y854590D01*
X1222788Y855519D01*
X1223282Y856521D01*
X1223641Y857579D01*
X1223859Y858675D01*
X1223932Y859790D01*
X1223859Y860905D01*
X1223641Y862001D01*
X1223282Y863059D01*
X1222788Y864061D01*
X1222167Y864990D01*
X1221430Y865830D01*
X1220590Y866567D01*
X1219661Y867188D01*
X1218659Y867682D01*
X1217601Y868041D01*
X1216505Y868259D01*
X1215390Y868332D01*
D02*
G37*
G36*
X861112Y825500D02*
X850900D01*
Y815288D01*
X851140Y815304D01*
X852623Y815599D01*
X854056Y816086D01*
X855412Y816755D01*
X856670Y817595D01*
X857807Y818593D01*
X858805Y819730D01*
X859645Y820988D01*
X860314Y822344D01*
X860801Y823777D01*
X861096Y825260D01*
X861112Y825500D01*
D02*
G37*
G36*
X1236980Y797992D02*
X1236533Y797885D01*
X1235727Y797551D01*
X1234984Y797096D01*
X1234321Y796529D01*
X1233754Y795866D01*
X1233299Y795123D01*
X1233222Y794939D01*
X1231848D01*
X1231771Y795123D01*
X1231316Y795866D01*
X1230750Y796529D01*
X1230086Y797096D01*
X1229343Y797551D01*
X1228537Y797885D01*
X1228090Y797992D01*
Y792600D01*
X1225550D01*
Y797992D01*
X1225103Y797885D01*
X1224297Y797551D01*
X1223554Y797096D01*
X1222890Y796529D01*
X1222324Y795866D01*
X1221869Y795123D01*
X1221792Y794939D01*
X1220418D01*
X1220341Y795123D01*
X1219886Y795866D01*
X1219320Y796529D01*
X1218656Y797096D01*
X1217913Y797551D01*
X1217107Y797885D01*
X1216660Y797992D01*
Y792600D01*
X1215390D01*
Y791330D01*
X1209997D01*
X1210105Y790883D01*
X1210439Y790077D01*
X1210894Y789333D01*
X1211460Y788670D01*
X1212124Y788104D01*
X1212867Y787648D01*
X1213051Y787572D01*
Y786198D01*
X1212867Y786121D01*
X1212124Y785666D01*
X1211460Y785099D01*
X1210894Y784436D01*
X1210439Y783693D01*
X1210105Y782887D01*
X1209997Y782440D01*
X1215390D01*
Y779900D01*
X1209997D01*
X1210105Y779453D01*
X1210439Y778647D01*
X1210894Y777904D01*
X1211460Y777240D01*
X1212124Y776674D01*
X1212867Y776218D01*
X1213051Y776142D01*
Y774768D01*
X1212867Y774691D01*
X1212124Y774236D01*
X1211460Y773669D01*
X1210894Y773006D01*
X1210439Y772263D01*
X1210105Y771457D01*
X1209997Y771010D01*
X1215390D01*
Y769740D01*
X1216660D01*
Y764347D01*
X1217107Y764455D01*
X1217913Y764789D01*
X1218656Y765244D01*
X1219320Y765810D01*
X1219886Y766473D01*
X1220341Y767217D01*
X1220418Y767401D01*
X1221792D01*
X1221869Y767217D01*
X1222324Y766473D01*
X1222890Y765810D01*
X1223554Y765244D01*
X1224297Y764789D01*
X1225103Y764455D01*
X1225550Y764347D01*
Y769740D01*
X1228090D01*
Y764347D01*
X1228537Y764455D01*
X1229343Y764789D01*
X1230086Y765244D01*
X1230750Y765810D01*
X1231316Y766473D01*
X1231771Y767217D01*
X1231848Y767401D01*
X1233222D01*
X1233299Y767217D01*
X1233754Y766473D01*
X1234321Y765810D01*
X1234984Y765244D01*
X1235727Y764789D01*
X1236533Y764455D01*
X1236980Y764347D01*
Y769740D01*
X1238250D01*
Y771010D01*
X1243643D01*
X1243535Y771457D01*
X1243201Y772263D01*
X1242746Y773006D01*
X1242179Y773669D01*
X1241516Y774236D01*
X1240773Y774691D01*
X1240589Y774768D01*
Y776142D01*
X1240773Y776218D01*
X1241516Y776674D01*
X1242179Y777240D01*
X1242746Y777904D01*
X1243201Y778647D01*
X1243535Y779453D01*
X1243643Y779900D01*
X1238250D01*
Y782440D01*
X1243643D01*
X1243535Y782887D01*
X1243201Y783693D01*
X1242746Y784436D01*
X1242179Y785099D01*
X1241516Y785666D01*
X1240773Y786121D01*
X1240589Y786198D01*
Y787572D01*
X1240773Y787648D01*
X1241516Y788104D01*
X1242179Y788670D01*
X1242746Y789333D01*
X1243201Y790077D01*
X1243535Y790883D01*
X1243643Y791330D01*
X1238250D01*
Y792600D01*
X1236980D01*
Y797992D01*
D02*
G37*
G36*
X930832Y801370D02*
X923290D01*
Y793829D01*
X924326Y794035D01*
X925429Y794409D01*
X926475Y794924D01*
X927443Y795572D01*
X928320Y796340D01*
X929088Y797216D01*
X929735Y798185D01*
X930251Y799231D01*
X930626Y800334D01*
X930832Y801370D01*
D02*
G37*
G36*
X1009650Y797992D02*
Y793870D01*
X1013773D01*
X1013665Y794317D01*
X1013331Y795123D01*
X1012876Y795866D01*
X1012309Y796529D01*
X1011646Y797096D01*
X1010903Y797551D01*
X1010097Y797885D01*
X1009650Y797992D01*
D02*
G37*
G36*
X984250D02*
X983803Y797885D01*
X982997Y797551D01*
X982254Y797096D01*
X981590Y796529D01*
X981024Y795866D01*
X980569Y795123D01*
X980235Y794317D01*
X980127Y793870D01*
X984250D01*
Y797992D01*
D02*
G37*
G36*
X1007110D02*
X1006663Y797885D01*
X1005857Y797551D01*
X1005114Y797096D01*
X1004451Y796529D01*
X1003884Y795866D01*
X1003429Y795123D01*
X1003352Y794939D01*
X1001978D01*
X1001901Y795123D01*
X1001446Y795866D01*
X1000880Y796529D01*
X1000216Y797096D01*
X999473Y797551D01*
X998667Y797885D01*
X998220Y797992D01*
Y792600D01*
X995680D01*
Y797992D01*
X995233Y797885D01*
X994427Y797551D01*
X993684Y797096D01*
X993020Y796529D01*
X992454Y795866D01*
X991999Y795123D01*
X991922Y794939D01*
X990548D01*
X990471Y795123D01*
X990016Y795866D01*
X989449Y796529D01*
X988786Y797096D01*
X988043Y797551D01*
X987237Y797885D01*
X986790Y797992D01*
Y792600D01*
X985520D01*
Y791330D01*
X980127D01*
X980235Y790883D01*
X980569Y790077D01*
X981024Y789333D01*
X981590Y788670D01*
X982254Y788104D01*
X982997Y787648D01*
X983181Y787572D01*
Y786198D01*
X982997Y786121D01*
X982254Y785666D01*
X981590Y785099D01*
X981024Y784436D01*
X980569Y783693D01*
X980235Y782887D01*
X980127Y782440D01*
X985520D01*
Y779900D01*
X980127D01*
X980235Y779453D01*
X980569Y778647D01*
X981024Y777904D01*
X981590Y777240D01*
X982254Y776674D01*
X982997Y776218D01*
X983181Y776142D01*
Y774768D01*
X982997Y774691D01*
X982254Y774236D01*
X981590Y773669D01*
X981024Y773006D01*
X980569Y772263D01*
X980235Y771457D01*
X980127Y771010D01*
X985520D01*
Y769740D01*
X986790D01*
Y764347D01*
X987237Y764455D01*
X988043Y764789D01*
X988786Y765244D01*
X989449Y765810D01*
X990016Y766473D01*
X990471Y767217D01*
X990548Y767401D01*
X991922D01*
X991999Y767217D01*
X992454Y766473D01*
X993020Y765810D01*
X993684Y765244D01*
X994427Y764789D01*
X995233Y764455D01*
X995680Y764347D01*
Y769740D01*
X998220D01*
Y764347D01*
X998667Y764455D01*
X999473Y764789D01*
X1000216Y765244D01*
X1000880Y765810D01*
X1001446Y766473D01*
X1001901Y767217D01*
X1001978Y767401D01*
X1003352D01*
X1003429Y767217D01*
X1003884Y766473D01*
X1004451Y765810D01*
X1005114Y765244D01*
X1005857Y764789D01*
X1006663Y764455D01*
X1007110Y764347D01*
Y769740D01*
X1008380D01*
Y771010D01*
X1013773D01*
X1013665Y771457D01*
X1013331Y772263D01*
X1012876Y773006D01*
X1012309Y773669D01*
X1011646Y774236D01*
X1010903Y774691D01*
X1010719Y774768D01*
Y776142D01*
X1010903Y776218D01*
X1011646Y776674D01*
X1012309Y777240D01*
X1012876Y777904D01*
X1013331Y778647D01*
X1013665Y779453D01*
X1013773Y779900D01*
X1008380D01*
Y782440D01*
X1013773D01*
X1013665Y782887D01*
X1013331Y783693D01*
X1012876Y784436D01*
X1012309Y785099D01*
X1011646Y785666D01*
X1010903Y786121D01*
X1010719Y786198D01*
Y787572D01*
X1010903Y787648D01*
X1011646Y788104D01*
X1012309Y788670D01*
X1012876Y789333D01*
X1013331Y790077D01*
X1013665Y790883D01*
X1013773Y791330D01*
X1008380D01*
Y792600D01*
X1007110D01*
Y797992D01*
D02*
G37*
G36*
X1239520D02*
Y793870D01*
X1243643D01*
X1243535Y794317D01*
X1243201Y795123D01*
X1242746Y795866D01*
X1242179Y796529D01*
X1241516Y797096D01*
X1240773Y797551D01*
X1239967Y797885D01*
X1239520Y797992D01*
D02*
G37*
G36*
X1214120D02*
X1213673Y797885D01*
X1212867Y797551D01*
X1212124Y797096D01*
X1211460Y796529D01*
X1210894Y795866D01*
X1210439Y795123D01*
X1210105Y794317D01*
X1209997Y793870D01*
X1214120D01*
Y797992D01*
D02*
G37*
%LPD*%
G36*
X1140896Y469391D02*
X1140685Y467722D01*
X1139695Y466855D01*
X1138828Y465865D01*
X1138096Y464771D01*
X1137514Y463590D01*
X1137091Y462344D01*
X1136835Y461053D01*
X1136832Y461010D01*
X1146810D01*
Y458470D01*
X1136832D01*
X1136835Y458427D01*
X1137091Y457136D01*
X1137514Y455890D01*
X1138096Y454709D01*
X1138828Y453615D01*
X1139695Y452625D01*
X1140685Y451758D01*
X1140896Y450089D01*
X1140706Y449858D01*
X1127514D01*
X1127324Y450089D01*
X1127535Y451758D01*
X1128525Y452625D01*
X1129392Y453615D01*
X1130124Y454709D01*
X1130706Y455890D01*
X1131129Y457136D01*
X1131385Y458427D01*
X1131388Y458470D01*
X1121410D01*
X1111432D01*
X1111435Y458427D01*
X1111691Y457136D01*
X1112114Y455890D01*
X1112697Y454709D01*
X1113428Y453615D01*
X1114295Y452625D01*
X1115285Y451758D01*
X1115496Y450089D01*
X1115306Y449858D01*
X1098923D01*
X1098714Y451128D01*
X1099471Y451385D01*
X1100532Y451908D01*
X1101515Y452565D01*
X1102405Y453345D01*
X1103185Y454235D01*
X1103842Y455218D01*
X1104365Y456279D01*
X1104745Y457399D01*
X1104976Y458560D01*
X1105053Y459740D01*
X1104976Y460920D01*
X1104745Y462081D01*
X1104365Y463201D01*
X1103842Y464262D01*
X1103185Y465245D01*
X1102405Y466135D01*
X1101515Y466915D01*
X1100532Y467572D01*
X1099471Y468095D01*
X1098714Y468352D01*
X1098923Y469622D01*
X1115306D01*
X1115496Y469391D01*
X1115285Y467722D01*
X1114295Y466855D01*
X1113428Y465865D01*
X1112697Y464771D01*
X1112114Y463590D01*
X1111691Y462344D01*
X1111435Y461053D01*
X1111432Y461010D01*
X1121410D01*
X1131388D01*
X1131385Y461053D01*
X1131129Y462344D01*
X1130706Y463590D01*
X1130124Y464771D01*
X1129392Y465865D01*
X1128525Y466855D01*
X1127535Y467722D01*
X1127324Y469391D01*
X1127514Y469622D01*
X1140706D01*
X1140896Y469391D01*
D02*
G37*
D20*
X1189990Y807720D02*
Y859790D01*
X1240790Y828040D02*
Y859790D01*
X1234440Y821690D02*
X1240790Y828040D01*
X1264920Y808990D02*
Y859790D01*
X962660Y614680D02*
Y666750D01*
X1007110Y628650D02*
X1013460Y635000D01*
Y666750D01*
X1192530Y614680D02*
Y666750D01*
X960120Y807720D02*
Y859790D01*
X1010920Y828040D02*
Y859790D01*
X1035050Y808990D02*
Y859790D01*
X1032510Y806450D02*
X1035050Y808990D01*
X988060Y629920D02*
X990600Y627380D01*
X988060Y629920D02*
Y666750D01*
X1217930Y629920D02*
Y666750D01*
X962660Y614680D02*
X965638Y611702D01*
X1037590Y615950D02*
Y666750D01*
X1217930Y629920D02*
X1220470Y627380D01*
X1294130Y660400D02*
X1295400Y659130D01*
X1264920Y789940D02*
X1301750Y826770D01*
Y855980D01*
X928370Y817880D02*
Y869950D01*
X1210310Y805180D02*
X1247140D01*
X1215390Y822960D02*
X1216660Y824230D01*
X1215390Y822960D02*
Y859790D01*
X985520Y822960D02*
X988060Y825500D01*
X1007110Y824230D02*
X1010920Y828040D01*
X1004570Y824230D02*
X1007110D01*
X988060Y825500D02*
X990049D01*
X985520Y822960D02*
Y859790D01*
X1089660Y843844D02*
Y848360D01*
X1039213Y793397D02*
X1089660Y843844D01*
X1035050Y613410D02*
X1037590Y615950D01*
X1042670Y600710D02*
X1070610Y572770D01*
X1130300D01*
X1132840Y575310D01*
Y608330D01*
X1120140D02*
X1132840D01*
X1180284D01*
X1192530Y614680D02*
X1198362D01*
X1199059Y613983D01*
X1180284Y608330D02*
X1187160Y601453D01*
X1236980Y628650D02*
X1238495Y630165D01*
Y661915D01*
X1243330Y666750D01*
X1267460Y598170D02*
X1277578D01*
X1295400Y615992D01*
Y659130D01*
X960120Y807720D02*
X963930Y803910D01*
X914400Y660400D02*
X935990Y638810D01*
X932321Y635141D02*
X935990Y638810D01*
X932321Y609571D02*
Y635141D01*
X1189990Y807720D02*
X1191260Y806450D01*
X1195070D01*
X1184162Y795445D02*
X1200838D01*
X1200707Y795577D02*
X1200838Y795445D01*
X1200707Y795577D02*
X1210310Y805180D01*
X1264920Y613410D02*
X1265428Y613918D01*
Y621165D01*
X1265007Y621586D02*
X1265428Y621165D01*
X1265007Y621586D02*
Y664297D01*
X1267460Y666750D01*
X1247140Y805180D02*
X1252035Y800285D01*
Y799864D02*
Y800285D01*
Y799864D02*
X1258433Y793466D01*
X1258854D01*
X928370Y817880D02*
X951230Y795020D01*
X1258854Y793466D02*
X1264920Y787400D01*
D21*
X1148842Y887730D02*
Y954786D01*
X1253998Y640588D02*
Y734822D01*
X1223010Y942340D02*
X1236860Y928490D01*
X1077976Y587502D02*
X1337310Y846836D01*
Y472440D02*
X1350010Y459740D01*
X972820Y825246D02*
Y863854D01*
X1017270Y908304D01*
X1125340Y928490D02*
X1131570Y934720D01*
Y942340D01*
X765810Y600710D02*
X919360D01*
X1060330Y459740D01*
X1070610D01*
X1155700Y742950D02*
X1162050Y736600D01*
X1145032Y781050D02*
X1155700D01*
Y742950D02*
Y781050D01*
Y822960D01*
X1056640Y795528D02*
X1148842Y887730D01*
X1067308Y618236D02*
Y764032D01*
X1076960Y674370D02*
Y712978D01*
X1145032Y781050D01*
X949960Y795020D02*
X951230D01*
X1092200Y956310D02*
X1106170Y942340D01*
X920750Y956310D02*
X1092200D01*
X849630Y868680D02*
X915670Y934720D01*
Y951230D01*
X920750Y956310D01*
X1017270Y908304D02*
Y925830D01*
X1019930Y928490D01*
X1125340D01*
X1036574Y778670D02*
X1059346D01*
X1236860Y928490D02*
X1310640D01*
X1311910Y955040D02*
X1313942Y957072D01*
X1311910Y929760D02*
Y955040D01*
X1310640Y928490D02*
X1311910Y929760D01*
X1070610Y459740D02*
X1083310Y447040D01*
X1203960D01*
X1264920Y788670D02*
Y789940D01*
Y787400D02*
Y788670D01*
X920496Y500380D02*
X982286Y438591D01*
X1303461D01*
X1324610Y459740D01*
X765810Y626110D02*
X903398D01*
X923177Y606331D01*
Y605784D02*
Y606331D01*
Y605784D02*
X1056521Y472440D01*
X1337310D01*
X1148842Y954786D02*
X1152933Y958877D01*
X1282673D01*
X1299210Y942340D01*
X1236041Y954709D02*
X1248410Y942340D01*
X1184500Y903824D02*
Y929230D01*
X1197610Y942340D01*
X1059346Y778670D02*
X1184500Y903824D01*
X1067308Y764032D02*
X1211116Y907840D01*
Y949563D01*
X1216262Y954709D01*
X1236041D01*
X1253998Y734822D02*
X1363414Y844238D01*
Y951335D01*
X1313942Y957072D02*
X1357677D01*
X1363414Y951335D01*
X1337310Y846836D02*
Y929640D01*
X1350010Y942340D01*
X1059285Y792205D02*
Y792884D01*
X1056640Y795528D02*
X1059285Y792884D01*
D22*
X849630Y734060D02*
D03*
Y801370D02*
D03*
Y868680D02*
D03*
X765810Y600710D02*
D03*
D23*
X849630Y759460D02*
D03*
Y826770D02*
D03*
Y894080D02*
D03*
X765810Y626110D02*
D03*
D24*
X1240790Y859790D02*
D03*
X1215390D02*
D03*
X1264920D02*
D03*
X1010920D02*
D03*
X985520D02*
D03*
X1035050D02*
D03*
X1243330Y666750D02*
D03*
X1217930D02*
D03*
X1267460D02*
D03*
X1013460D02*
D03*
X988060D02*
D03*
X1037590D02*
D03*
D25*
X1189990Y859790D02*
D03*
X960120D02*
D03*
X1192530Y666750D02*
D03*
X962660D02*
D03*
D26*
X768350Y849630D02*
D03*
X767080Y698500D02*
D03*
D27*
X768350Y900430D02*
D03*
X767080Y749300D02*
D03*
D28*
X1172210Y942340D02*
D03*
X1197610D02*
D03*
X1223010D02*
D03*
X1248410D02*
D03*
X1273810D02*
D03*
X1299210D02*
D03*
X1324610D02*
D03*
X1106170D02*
D03*
X1055370D02*
D03*
X1029970D02*
D03*
X1004570D02*
D03*
X979170D02*
D03*
X953770D02*
D03*
X928370D02*
D03*
X902970D02*
D03*
X1080770D02*
D03*
X1172210Y916940D02*
D03*
X1197610D02*
D03*
X1223010D02*
D03*
X1248410D02*
D03*
X1273810D02*
D03*
X1299210D02*
D03*
X1324610D02*
D03*
X953770D02*
D03*
X979170D02*
D03*
X1004570D02*
D03*
X1029970D02*
D03*
X1055370D02*
D03*
X1080770D02*
D03*
X1106170D02*
D03*
X1223010Y459740D02*
D03*
X1248410D02*
D03*
X1273810D02*
D03*
X1299210D02*
D03*
X1324610D02*
D03*
X994410D02*
D03*
X1019810D02*
D03*
X1045210D02*
D03*
X1070610D02*
D03*
X1096010D02*
D03*
X1121410D02*
D03*
X1146810D02*
D03*
X1223010Y485140D02*
D03*
X1248410D02*
D03*
X1273810D02*
D03*
X1299210D02*
D03*
X1324610D02*
D03*
X1146810D02*
D03*
X1121410D02*
D03*
X1096010D02*
D03*
D29*
X1350010Y942340D02*
D03*
X1131570D02*
D03*
X1350010Y916940D02*
D03*
X1131570D02*
D03*
X1350010Y459740D02*
D03*
X1172210D02*
D03*
X1350010Y485140D02*
D03*
X1172210D02*
D03*
D30*
X1203960Y447040D02*
D03*
X1215390Y792600D02*
D03*
X1226820Y781170D02*
D03*
Y792600D02*
D03*
X1215390Y781170D02*
D03*
Y769740D02*
D03*
X1226820D02*
D03*
X1238250D02*
D03*
Y781170D02*
D03*
Y792600D02*
D03*
X985520D02*
D03*
X996950Y781170D02*
D03*
Y792600D02*
D03*
X985520Y781170D02*
D03*
Y769740D02*
D03*
X996950D02*
D03*
X1008380D02*
D03*
Y781170D02*
D03*
Y792600D02*
D03*
X1217930Y599560D02*
D03*
X1229360Y588130D02*
D03*
Y599560D02*
D03*
X1217930Y588130D02*
D03*
Y576700D02*
D03*
X1229360D02*
D03*
X1240790D02*
D03*
Y588130D02*
D03*
Y599560D02*
D03*
X988060D02*
D03*
X999490Y588130D02*
D03*
Y599560D02*
D03*
X988060Y588130D02*
D03*
Y576700D02*
D03*
X999490D02*
D03*
X1010920D02*
D03*
Y588130D02*
D03*
Y599560D02*
D03*
X920496Y500380D02*
D03*
D31*
X1234440Y821690D02*
D03*
X1007110Y628650D02*
D03*
X1264920Y613410D02*
D03*
X1032510Y806450D02*
D03*
X990600Y627380D02*
D03*
X1253998Y640588D02*
D03*
X1077976Y587502D02*
D03*
X1067308Y618236D02*
D03*
X972820Y825246D02*
D03*
X1162050Y736600D02*
D03*
X965638Y611702D02*
D03*
X914400Y660400D02*
D03*
X1267460Y598170D02*
D03*
X1220470Y627380D02*
D03*
X1236980Y628650D02*
D03*
X1294130Y660400D02*
D03*
X1120140Y608330D02*
D03*
X1301750Y855980D02*
D03*
X1155700Y822960D02*
D03*
X1169790Y841890D02*
D03*
X1101090Y770890D02*
D03*
X922020Y802640D02*
D03*
X928370Y869950D02*
D03*
X1032510Y534670D02*
D03*
X1268730Y726440D02*
D03*
Y530860D02*
D03*
X1042670Y734060D02*
D03*
X949960Y635650D02*
D03*
X989330Y510540D02*
D03*
X1148080Y621030D02*
D03*
X1093470Y521970D02*
D03*
X1076960Y674370D02*
D03*
X1216660Y824230D02*
D03*
X1004570D02*
D03*
X990049Y825500D02*
D03*
X949960Y795020D02*
D03*
X1036574Y778670D02*
D03*
X1089660Y848360D02*
D03*
X1039213Y793397D02*
D03*
X1264920Y788670D02*
D03*
X1035050Y613410D02*
D03*
X1042670Y600710D02*
D03*
X1199059Y613983D02*
D03*
X1187160Y601453D02*
D03*
X963930Y803910D02*
D03*
X932321Y609571D02*
D03*
X1184162Y795445D02*
D03*
X1195070Y806450D02*
D03*
X1059285Y792205D02*
D03*
X1275929Y626110D02*
D03*
X1262957Y804388D02*
D03*
M02*
