G04 Layer_Physical_Order=3*
G04 Layer_Color=32768*
%FSLAX44Y44*%
%MOMM*%
G71*
G01*
G75*
%ADD21C,0.0127*%
%ADD22C,0.0254*%
%ADD32C,1.0160*%
%ADD33C,1.9210*%
G04:AMPARAMS|DCode=34|XSize=2.824mm|YSize=2.824mm|CornerRadius=0mm|HoleSize=0mm|Usage=FLASHONLY|Rotation=0.000|XOffset=0mm|YOffset=0mm|HoleType=Round|Shape=Relief|Width=0.254mm|Gap=0.254mm|Entries=4|*
%AMTHD34*
7,0,0,2.8240,2.3160,0.2540,45*
%
%ADD34THD34*%
%ADD35C,2.3160*%
%ADD36C,1.9160*%
G04:AMPARAMS|DCode=37|XSize=2.424mm|YSize=2.424mm|CornerRadius=0mm|HoleSize=0mm|Usage=FLASHONLY|Rotation=0.000|XOffset=0mm|YOffset=0mm|HoleType=Round|Shape=Relief|Width=0.254mm|Gap=0.254mm|Entries=4|*
%AMTHD37*
7,0,0,2.4240,1.9160,0.2540,45*
%
%ADD37THD37*%
%ADD38C,2.2160*%
G04:AMPARAMS|DCode=39|XSize=2.724mm|YSize=2.724mm|CornerRadius=0mm|HoleSize=0mm|Usage=FLASHONLY|Rotation=0.000|XOffset=0mm|YOffset=0mm|HoleType=Round|Shape=Relief|Width=0.254mm|Gap=0.254mm|Entries=4|*
%AMTHD39*
7,0,0,2.7240,2.2160,0.2540,45*
%
%ADD39THD39*%
G04:AMPARAMS|DCode=40|XSize=2.2352mm|YSize=2.2352mm|CornerRadius=0mm|HoleSize=0mm|Usage=FLASHONLY|Rotation=0.000|XOffset=0mm|YOffset=0mm|HoleType=Round|Shape=Relief|Width=0.254mm|Gap=0.254mm|Entries=4|*
%AMTHD40*
7,0,0,2.2352,1.7272,0.2540,45*
%
%ADD40THD40*%
%ADD41C,1.7272*%
D21*
X1400810Y485204D02*
Y812863D01*
X715073Y434403D02*
X1375774D01*
X715073Y968188D02*
X1375774D01*
X715073Y434403D02*
Y968188D01*
D22*
X1375774D02*
X1391472D01*
X1400810Y808990D02*
Y958613D01*
X1400573D02*
Y959087D01*
X1391472Y968188D02*
X1400573Y959087D01*
X1375774Y434403D02*
X1395793D01*
X1400573Y439183D01*
Y485204D01*
D32*
X715073Y968255D02*
G03*
X715006Y968188I0J-67D01*
G01*
X1375774Y968319D02*
G03*
X1375662Y968255I0J-131D01*
G01*
X1391564Y968281D02*
G03*
X1391472Y968319I-93J-93D01*
G01*
X1400704Y959087D02*
G03*
X1400666Y959179I-131J0D01*
G01*
X1400641Y808878D02*
G03*
X1400704Y808990I-67J112D01*
G01*
Y485204D02*
G03*
X1400641Y485316I-131J0D01*
G01*
X1400666Y439091D02*
G03*
X1400704Y439183I-93J93D01*
G01*
X1395793Y434273D02*
G03*
X1395886Y434311I0J131D01*
G01*
X1375662Y434336D02*
G03*
X1375774Y434273I112J67D01*
G01*
X715006Y434403D02*
G03*
X715073Y434336I67J0D01*
G01*
X1375662D01*
X1375774Y434273D02*
X1395793D01*
X1395886Y434311D02*
X1400666Y439091D01*
X1400704Y439183D02*
Y485204D01*
X1400641Y485316D02*
Y808878D01*
X1400704Y808990D02*
Y959087D01*
X1391564Y968281D02*
X1400666Y959179D01*
X1375774Y968319D02*
X1391472D01*
X715073Y968255D02*
X1375662D01*
X715006Y434403D02*
Y968188D01*
D33*
X1296670Y538480D02*
D03*
X1271270D02*
D03*
X1245870D02*
D03*
X1320800D02*
D03*
X1085850Y539750D02*
D03*
X1060450D02*
D03*
X1035050D02*
D03*
X1109980D02*
D03*
X1296670Y737870D02*
D03*
X1271270D02*
D03*
X1245870D02*
D03*
X1320800D02*
D03*
X1085850Y739140D02*
D03*
X1060450D02*
D03*
X1035050D02*
D03*
X1109980D02*
D03*
D34*
X765810Y848360D02*
D03*
D35*
Y899160D02*
D03*
X768350Y679450D02*
D03*
Y730250D02*
D03*
D36*
X1131570Y942340D02*
D03*
X1106170D02*
D03*
X1055370D02*
D03*
X1029970D02*
D03*
X1004570D02*
D03*
X979170D02*
D03*
X953770D02*
D03*
X928370D02*
D03*
X902970D02*
D03*
X1080770D02*
D03*
X1172210D02*
D03*
X1197610D02*
D03*
X1223010D02*
D03*
X1248410D02*
D03*
X1273810D02*
D03*
X1299210D02*
D03*
X1324610D02*
D03*
X1350010D02*
D03*
X1172210Y916940D02*
D03*
X1197610D02*
D03*
X1223010D02*
D03*
X1248410D02*
D03*
X1273810D02*
D03*
X1299210D02*
D03*
X1324610D02*
D03*
X1350010D02*
D03*
X1223010Y459740D02*
D03*
X1248410D02*
D03*
X1273810D02*
D03*
X1299210D02*
D03*
X1324610D02*
D03*
X1350010D02*
D03*
X994410D02*
D03*
X1019810D02*
D03*
X1045210D02*
D03*
X1070610D02*
D03*
X1096010D02*
D03*
X1172210D02*
D03*
X953770Y916940D02*
D03*
X979170D02*
D03*
X1004570D02*
D03*
X1029970D02*
D03*
X1055370D02*
D03*
X1080770D02*
D03*
X1106170D02*
D03*
X1131570D02*
D03*
X1223010Y485140D02*
D03*
X1248410D02*
D03*
X1273810D02*
D03*
X1299210D02*
D03*
X1324610D02*
D03*
X1350010D02*
D03*
X1172210D02*
D03*
X1146810D02*
D03*
X1121410D02*
D03*
X1096010D02*
D03*
D37*
X1121410Y459740D02*
D03*
X1146810D02*
D03*
D38*
X750570Y575310D02*
D03*
Y600710D02*
D03*
X859790Y842010D02*
D03*
Y788035D02*
D03*
Y734060D02*
D03*
D39*
Y867410D02*
D03*
Y813435D02*
D03*
Y759460D02*
D03*
D40*
X1005840Y699770D02*
D03*
X1003300Y584200D02*
D03*
X1315720Y889000D02*
D03*
X1370482Y874879D02*
D03*
X1302740Y773910D02*
D03*
X1021080Y896620D02*
D03*
X1139818Y880030D02*
D03*
X1085570Y794230D02*
D03*
X1139952Y704213D02*
D03*
X1347216Y697785D02*
D03*
X1302740Y604357D02*
D03*
X1209040Y699770D02*
D03*
X1085570Y616549D02*
D03*
X1229502Y888031D02*
D03*
Y777447D02*
D03*
X1134364Y770128D02*
D03*
X934211Y648970D02*
D03*
X971111Y551434D02*
D03*
X941832Y562817D02*
D03*
X1368552Y700278D02*
D03*
X1020968Y782527D02*
D03*
X1236076Y585169D02*
D03*
X1154176Y725424D02*
D03*
D41*
X1338580Y871220D02*
D03*
X1323340Y828040D02*
D03*
Y845820D02*
D03*
X1316990Y863600D02*
D03*
X1345590Y774446D02*
D03*
X1323112Y810260D02*
D03*
X1302740Y875792D02*
D03*
X1329436Y881888D02*
D03*
X1296670Y890270D02*
D03*
X1277620Y869950D02*
D03*
X1291590Y793750D02*
D03*
X1271016Y901700D02*
D03*
X1098550Y862330D02*
D03*
X1085850Y883920D02*
D03*
X1049020Y880110D02*
D03*
X1031240Y881380D02*
D03*
X1109980D02*
D03*
X1094740Y901700D02*
D03*
X1065530Y871220D02*
D03*
X1121410Y892810D02*
D03*
X1096772Y805180D02*
D03*
X1042670Y866140D02*
D03*
X1021080D02*
D03*
X1001776Y894842D02*
D03*
X976630Y890270D02*
D03*
X1177290Y854710D02*
D03*
X1242060Y829310D02*
D03*
X1244600Y850900D02*
D03*
X1030450Y656683D02*
D03*
X1031240Y675640D02*
D03*
Y689610D02*
D03*
X1044194Y702310D02*
D03*
X988060Y699770D02*
D03*
X1060450Y692150D02*
D03*
X1079500Y694690D02*
D03*
X1097280Y725170D02*
D03*
X1102360Y697230D02*
D03*
X1097280Y675640D02*
D03*
X1105916Y651764D02*
D03*
X1096772Y626618D02*
D03*
X1123950Y601980D02*
D03*
X1055624Y616458D02*
D03*
X1316990Y698500D02*
D03*
X1340046Y656217D02*
D03*
X1318260Y627380D02*
D03*
X1324610Y646430D02*
D03*
X1296670Y694690D02*
D03*
X1281430Y695960D02*
D03*
X1291844Y616458D02*
D03*
X1272740Y616712D02*
D03*
X1319530Y680720D02*
D03*
X1249680Y722630D02*
D03*
X1257300Y681990D02*
D03*
X1267460Y698500D02*
D03*
X1253490Y695960D02*
D03*
X1236218Y660146D02*
D03*
X1332230Y523240D02*
D03*
X1306830D02*
D03*
X1259840D02*
D03*
X1231900Y694690D02*
D03*
Y523240D02*
D03*
X1123950Y525780D02*
D03*
X1188466Y636778D02*
D03*
X1094740Y523240D02*
D03*
X1033780Y623570D02*
D03*
X1049020Y525780D02*
D03*
X1021080Y528320D02*
D03*
X1330960Y727710D02*
D03*
X1308100Y722630D02*
D03*
X1282700Y723900D02*
D03*
X1258570Y862330D02*
D03*
X1231900Y751840D02*
D03*
X1230122Y806958D02*
D03*
X1253564Y798068D02*
D03*
X1208659Y772287D02*
D03*
X1055624Y794258D02*
D03*
X1086395Y777203D02*
D03*
X1173480Y885952D02*
D03*
X1126490Y739140D02*
D03*
X1073150Y727710D02*
D03*
X1017270Y725170D02*
D03*
X971111Y496570D02*
D03*
X889374Y842010D02*
D03*
X880745Y808990D02*
D03*
X1149858Y660908D02*
D03*
X1377442Y593090D02*
D03*
X1207740Y574802D02*
D03*
X1357510D02*
D03*
X1025652Y586994D02*
D03*
X1170940Y751332D02*
D03*
X1037336Y785368D02*
D03*
X1139571Y789559D02*
D03*
X1009904Y754888D02*
D03*
X1205230Y896921D02*
D03*
X1365250Y785368D02*
D03*
X922140Y900550D02*
D03*
X917956Y818642D02*
D03*
M02*
