G04 Layer_Physical_Order=2*
G04 Layer_Color=16711680*
%FSLAX42Y42*%
%MOMM*%
G71*
G01*
G75*
%ADD20C,0.25*%
%ADD21C,0.61*%
%ADD22C,1.50*%
%ADD23R,1.50X1.50*%
%ADD24R,1.90X1.90*%
%ADD25C,1.90*%
%ADD26C,1.40*%
%ADD27R,1.40X1.40*%
%ADD28C,1.80*%
%ADD29R,1.80X1.80*%
%ADD30C,1.27*%
%ADD31C,0.60*%
G36*
X14034Y4331D02*
X14021Y4318D01*
X14008Y4331D01*
X7125D01*
X7112Y9707D01*
X7121Y9715D01*
X14034D01*
Y4331D01*
D02*
G37*
%LPC*%
G36*
X12421Y6050D02*
Y6008D01*
X12462D01*
X12460Y6017D01*
X12448Y6036D01*
X12430Y6048D01*
X12421Y6050D01*
D02*
G37*
G36*
X10096D02*
X10088Y6048D01*
X10069Y6036D01*
X10059Y6020D01*
X10056Y6020D01*
X10048D01*
X10045Y6020D01*
X10035Y6036D01*
X10017Y6048D01*
X10008Y6050D01*
Y5996D01*
X9982D01*
Y6050D01*
X9973Y6048D01*
X9955Y6036D01*
X9945Y6020D01*
X9942Y6020D01*
X9934D01*
X9931Y6020D01*
X9921Y6036D01*
X9902Y6048D01*
X9893Y6050D01*
Y5996D01*
X9881D01*
Y5983D01*
X9827D01*
X9828Y5974D01*
X9841Y5956D01*
X9856Y5946D01*
X9857Y5942D01*
Y5934D01*
X9856Y5931D01*
X9841Y5921D01*
X9828Y5903D01*
X9827Y5894D01*
X9881D01*
Y5869D01*
X9827D01*
X9828Y5860D01*
X9841Y5841D01*
X9856Y5831D01*
X9857Y5828D01*
Y5820D01*
X9856Y5817D01*
X9841Y5807D01*
X9828Y5789D01*
X9827Y5780D01*
X9881D01*
Y5767D01*
X9893D01*
Y5713D01*
X9902Y5715D01*
X9921Y5727D01*
X9931Y5742D01*
X9934Y5743D01*
X9942D01*
X9945Y5742D01*
X9955Y5727D01*
X9973Y5715D01*
X9982Y5713D01*
Y5767D01*
X10008D01*
Y5713D01*
X10017Y5715D01*
X10035Y5727D01*
X10045Y5742D01*
X10048Y5743D01*
X10056D01*
X10059Y5742D01*
X10069Y5727D01*
X10088Y5715D01*
X10096Y5713D01*
Y5767D01*
X10109D01*
Y5780D01*
X10163D01*
X10161Y5789D01*
X10149Y5807D01*
X10134Y5817D01*
X10133Y5820D01*
Y5828D01*
X10134Y5831D01*
X10149Y5841D01*
X10161Y5860D01*
X10163Y5869D01*
X10109D01*
Y5894D01*
X10163D01*
X10161Y5903D01*
X10149Y5921D01*
X10134Y5931D01*
X10133Y5934D01*
Y5942D01*
X10134Y5946D01*
X10149Y5956D01*
X10161Y5974D01*
X10163Y5983D01*
X10109D01*
Y5996D01*
X10096D01*
Y6050D01*
D02*
G37*
G36*
X10122D02*
Y6008D01*
X10163D01*
X10161Y6017D01*
X10149Y6036D01*
X10131Y6048D01*
X10122Y6050D01*
D02*
G37*
G36*
X12167D02*
X12158Y6048D01*
X12139Y6036D01*
X12127Y6017D01*
X12125Y6008D01*
X12167D01*
Y6050D01*
D02*
G37*
G36*
X12008Y6750D02*
X11843D01*
Y6585D01*
X11881D01*
Y6147D01*
X11882Y6141D01*
X11881Y6137D01*
X11878Y6117D01*
X11881Y6097D01*
X11885Y6088D01*
X11878Y6073D01*
X11876Y6073D01*
X11834Y6114D01*
X11820Y6124D01*
X11803Y6127D01*
X11540D01*
X11535Y6140D01*
X11544Y6147D01*
X11558Y6165D01*
X11567Y6187D01*
X11569Y6198D01*
X11393D01*
X11394Y6187D01*
X11403Y6165D01*
X11417Y6147D01*
X11426Y6140D01*
X11422Y6127D01*
X11264D01*
X11256Y6138D01*
X11240Y6150D01*
X11221Y6158D01*
X11201Y6160D01*
X11182Y6158D01*
X11163Y6150D01*
X11147Y6138D01*
X11135Y6122D01*
X11127Y6103D01*
X11125Y6083D01*
X11127Y6063D01*
X11135Y6045D01*
X11147Y6029D01*
X11163Y6017D01*
X11182Y6009D01*
X11201Y6006D01*
X11221Y6009D01*
X11240Y6017D01*
X11256Y6029D01*
X11264Y6039D01*
X11785D01*
X11813Y6011D01*
X11812Y6008D01*
X11809Y5989D01*
X11812Y5969D01*
X11819Y5950D01*
X11832Y5934D01*
X11848Y5922D01*
X11866Y5914D01*
X11886Y5912D01*
X11906Y5914D01*
X11924Y5922D01*
X11940Y5934D01*
X11952Y5950D01*
X11960Y5969D01*
X11963Y5989D01*
X11960Y6008D01*
X11952Y6027D01*
X11951Y6029D01*
X11958Y6041D01*
X11975Y6043D01*
X11994Y6050D01*
X12009Y6063D01*
X12022Y6079D01*
X12029Y6097D01*
X12032Y6117D01*
X12029Y6137D01*
X12022Y6155D01*
X12009Y6171D01*
X11994Y6184D01*
X11975Y6191D01*
X11969Y6192D01*
Y6585D01*
X12008D01*
Y6750D01*
D02*
G37*
G36*
X9144Y6681D02*
X9124Y6678D01*
X9106Y6671D01*
X9090Y6658D01*
X9077Y6642D01*
X9070Y6624D01*
X9067Y6604D01*
X9070Y6584D01*
X9077Y6566D01*
X9090Y6550D01*
X9106Y6537D01*
X9124Y6530D01*
X9144Y6527D01*
X9157Y6529D01*
X9303Y6383D01*
Y6158D01*
X9293Y6150D01*
X9281Y6134D01*
X9273Y6116D01*
X9272Y6109D01*
X9259Y6104D01*
X9084Y6279D01*
X9075Y6285D01*
X9065Y6287D01*
X7758D01*
X7758Y6288D01*
X7748Y6313D01*
X7731Y6334D01*
X7710Y6351D01*
X7685Y6361D01*
X7658Y6365D01*
X7631Y6361D01*
X7606Y6351D01*
X7585Y6334D01*
X7568Y6313D01*
X7558Y6288D01*
X7555Y6261D01*
X7558Y6234D01*
X7568Y6209D01*
X7585Y6188D01*
X7606Y6171D01*
X7631Y6161D01*
X7658Y6158D01*
X7685Y6161D01*
X7710Y6171D01*
X7731Y6188D01*
X7748Y6209D01*
X7758Y6234D01*
X7758Y6235D01*
X9055D01*
X9233Y6057D01*
X9234Y6049D01*
X9240Y6041D01*
X10575Y4706D01*
X10583Y4700D01*
X10593Y4699D01*
X11163D01*
X11165Y4686D01*
X11163Y4685D01*
X11142Y4669D01*
X11126Y4648D01*
X11116Y4624D01*
X11115Y4610D01*
X11214D01*
X11314D01*
X11312Y4624D01*
X11302Y4648D01*
X11286Y4669D01*
X11265Y4685D01*
X11263Y4686D01*
X11266Y4699D01*
X11417D01*
X11419Y4686D01*
X11417Y4685D01*
X11396Y4669D01*
X11380Y4648D01*
X11370Y4624D01*
X11369Y4610D01*
X11468D01*
X11568D01*
X11566Y4624D01*
X11556Y4648D01*
X11540Y4669D01*
X11519Y4685D01*
X11517Y4686D01*
X11520Y4699D01*
X13362D01*
X13412Y4648D01*
Y4510D01*
X13588D01*
Y4685D01*
X13449D01*
X13391Y4743D01*
X13383Y4748D01*
X13373Y4750D01*
X10604D01*
X9347Y6007D01*
X9352Y6020D01*
X9367Y6022D01*
X9386Y6029D01*
X9402Y6042D01*
X9414Y6058D01*
X9421Y6076D01*
X9424Y6096D01*
X9421Y6116D01*
X9414Y6134D01*
X9402Y6150D01*
X9391Y6158D01*
Y6401D01*
X9388Y6418D01*
X9378Y6432D01*
X9219Y6591D01*
X9221Y6604D01*
X9218Y6624D01*
X9211Y6642D01*
X9198Y6658D01*
X9182Y6671D01*
X9164Y6678D01*
X9144Y6681D01*
D02*
G37*
G36*
X12395Y6050D02*
X12386Y6048D01*
X12368Y6036D01*
X12358Y6020D01*
X12355Y6020D01*
X12347D01*
X12344Y6020D01*
X12334Y6036D01*
X12315Y6048D01*
X12306Y6050D01*
Y5996D01*
X12281D01*
Y6050D01*
X12272Y6048D01*
X12254Y6036D01*
X12244Y6020D01*
X12240Y6020D01*
X12232D01*
X12229Y6020D01*
X12219Y6036D01*
X12201Y6048D01*
X12192Y6050D01*
Y5996D01*
X12179D01*
Y5983D01*
X12125D01*
X12127Y5974D01*
X12139Y5956D01*
X12155Y5946D01*
X12155Y5942D01*
Y5934D01*
X12155Y5931D01*
X12139Y5921D01*
X12127Y5903D01*
X12125Y5894D01*
X12179D01*
Y5869D01*
X12125D01*
X12127Y5860D01*
X12139Y5841D01*
X12155Y5831D01*
X12155Y5828D01*
Y5820D01*
X12155Y5817D01*
X12139Y5807D01*
X12127Y5789D01*
X12125Y5780D01*
X12179D01*
Y5767D01*
X12192D01*
Y5713D01*
X12201Y5715D01*
X12219Y5727D01*
X12229Y5742D01*
X12232Y5743D01*
X12240D01*
X12244Y5742D01*
X12254Y5727D01*
X12272Y5715D01*
X12281Y5713D01*
Y5767D01*
X12306D01*
Y5713D01*
X12315Y5715D01*
X12334Y5727D01*
X12344Y5742D01*
X12347Y5743D01*
X12355D01*
X12358Y5742D01*
X12368Y5727D01*
X12386Y5715D01*
X12395Y5713D01*
Y5767D01*
X12408D01*
Y5780D01*
X12462D01*
X12460Y5789D01*
X12448Y5807D01*
X12433Y5817D01*
X12432Y5820D01*
Y5828D01*
X12433Y5831D01*
X12448Y5841D01*
X12460Y5860D01*
X12462Y5869D01*
X12408D01*
Y5894D01*
X12462D01*
X12460Y5903D01*
X12448Y5921D01*
X12433Y5931D01*
X12432Y5934D01*
Y5942D01*
X12433Y5946D01*
X12448Y5956D01*
X12460Y5974D01*
X12462Y5983D01*
X12408D01*
Y5996D01*
X12395D01*
Y6050D01*
D02*
G37*
G36*
X10376Y6751D02*
X10354Y6748D01*
X10334Y6740D01*
X10317Y6726D01*
X10304Y6709D01*
X10295Y6689D01*
X10292Y6668D01*
X10295Y6646D01*
X10304Y6626D01*
X10317Y6609D01*
X10332Y6597D01*
Y6209D01*
X10331Y6208D01*
X10312Y6201D01*
X10296Y6188D01*
X10284Y6173D01*
X10276Y6154D01*
X10274Y6134D01*
X10276Y6114D01*
X10284Y6096D01*
X10296Y6080D01*
X10312Y6068D01*
X10331Y6060D01*
X10350Y6057D01*
X10370Y6060D01*
X10389Y6068D01*
X10405Y6080D01*
X10417Y6096D01*
X10425Y6114D01*
X10427Y6134D01*
X10425Y6154D01*
X10420Y6166D01*
Y6597D01*
X10435Y6609D01*
X10448Y6626D01*
X10456Y6646D01*
X10459Y6668D01*
X10456Y6689D01*
X10448Y6709D01*
X10435Y6726D01*
X10418Y6740D01*
X10397Y6748D01*
X10376Y6751D01*
D02*
G37*
G36*
X10338Y5435D02*
Y5359D01*
X10413D01*
X10412Y5370D01*
X10403Y5392D01*
X10389Y5410D01*
X10370Y5424D01*
X10348Y5433D01*
X10338Y5435D01*
D02*
G37*
G36*
X9868Y5754D02*
X9827D01*
X9828Y5745D01*
X9841Y5727D01*
X9859Y5715D01*
X9868Y5713D01*
Y5754D01*
D02*
G37*
G36*
X12700Y5397D02*
Y5321D01*
X12775D01*
X12774Y5332D01*
X12765Y5353D01*
X12751Y5372D01*
X12732Y5386D01*
X12711Y5395D01*
X12700Y5397D01*
D02*
G37*
G36*
X10312Y5435D02*
X10302Y5433D01*
X10280Y5424D01*
X10262Y5410D01*
X10247Y5392D01*
X10238Y5370D01*
X10237Y5359D01*
X10312D01*
Y5435D01*
D02*
G37*
G36*
X12462Y5754D02*
X12421D01*
Y5713D01*
X12430Y5715D01*
X12448Y5727D01*
X12460Y5745D01*
X12462Y5754D01*
D02*
G37*
G36*
X9868Y6050D02*
X9859Y6048D01*
X9841Y6036D01*
X9828Y6017D01*
X9827Y6008D01*
X9868D01*
Y6050D01*
D02*
G37*
G36*
X10163Y5754D02*
X10122D01*
Y5713D01*
X10131Y5715D01*
X10149Y5727D01*
X10161Y5745D01*
X10163Y5754D01*
D02*
G37*
G36*
X12167D02*
X12125D01*
X12127Y5745D01*
X12139Y5727D01*
X12158Y5715D01*
X12167Y5713D01*
Y5754D01*
D02*
G37*
G36*
X12775Y7252D02*
X12700D01*
Y7176D01*
X12711Y7178D01*
X12732Y7187D01*
X12751Y7201D01*
X12765Y7220D01*
X12774Y7241D01*
X12775Y7252D01*
D02*
G37*
G36*
X8599Y7443D02*
X8394D01*
Y7238D01*
X8599D01*
Y7443D01*
D02*
G37*
G36*
X7671Y7094D02*
X7643Y7090D01*
X7616Y7079D01*
X7594Y7062D01*
X7577Y7039D01*
X7566Y7013D01*
X7562Y6985D01*
X7566Y6957D01*
X7577Y6931D01*
X7594Y6908D01*
X7616Y6891D01*
X7643Y6880D01*
X7671Y6876D01*
X7699Y6880D01*
X7725Y6891D01*
X7748Y6908D01*
X7765Y6931D01*
X7776Y6957D01*
X7779Y6985D01*
X7776Y7013D01*
X7765Y7039D01*
X7748Y7062D01*
X7725Y7079D01*
X7699Y7090D01*
X7671Y7094D01*
D02*
G37*
G36*
X12675Y7252D02*
X12599D01*
X12601Y7241D01*
X12610Y7220D01*
X12624Y7201D01*
X12642Y7187D01*
X12664Y7178D01*
X12675Y7176D01*
Y7252D01*
D02*
G37*
G36*
Y7352D02*
X12664Y7351D01*
X12642Y7342D01*
X12624Y7328D01*
X12610Y7309D01*
X12601Y7288D01*
X12599Y7277D01*
X12675D01*
Y7352D01*
D02*
G37*
G36*
X12700D02*
Y7277D01*
X12775D01*
X12774Y7288D01*
X12765Y7309D01*
X12751Y7328D01*
X12732Y7342D01*
X12711Y7351D01*
X12700Y7352D01*
D02*
G37*
G36*
X10414Y7328D02*
X10339D01*
X10340Y7317D01*
X10349Y7296D01*
X10363Y7277D01*
X10382Y7263D01*
X10403Y7254D01*
X10414Y7253D01*
Y7328D01*
D02*
G37*
G36*
X10515D02*
X10439D01*
Y7253D01*
X10450Y7254D01*
X10472Y7263D01*
X10490Y7277D01*
X10504Y7296D01*
X10513Y7317D01*
X10515Y7328D01*
D02*
G37*
G36*
X11468Y6298D02*
X11458Y6297D01*
X11436Y6288D01*
X11417Y6274D01*
X11403Y6255D01*
X11394Y6234D01*
X11393Y6223D01*
X11468D01*
Y6298D01*
D02*
G37*
G36*
X11493D02*
Y6223D01*
X11569D01*
X11567Y6234D01*
X11558Y6255D01*
X11544Y6274D01*
X11526Y6288D01*
X11504Y6297D01*
X11493Y6298D01*
D02*
G37*
G36*
X9881Y6751D02*
X9859Y6748D01*
X9839Y6740D01*
X9822Y6726D01*
X9808Y6709D01*
X9800Y6689D01*
X9797Y6668D01*
X9800Y6646D01*
X9808Y6626D01*
X9822Y6609D01*
X9837Y6597D01*
Y6305D01*
X9832Y6294D01*
X9829Y6274D01*
X9832Y6254D01*
X9839Y6235D01*
X9852Y6219D01*
X9868Y6207D01*
X9886Y6200D01*
X9906Y6197D01*
X9926Y6200D01*
X9944Y6207D01*
X9960Y6219D01*
X9973Y6235D01*
X9980Y6254D01*
X9983Y6274D01*
X9980Y6294D01*
X9973Y6312D01*
X9960Y6328D01*
X9944Y6340D01*
X9926Y6348D01*
X9925Y6348D01*
Y6597D01*
X9940Y6609D01*
X9953Y6626D01*
X9961Y6646D01*
X9964Y6668D01*
X9961Y6689D01*
X9953Y6709D01*
X9940Y6726D01*
X9922Y6740D01*
X9902Y6748D01*
X9881Y6751D01*
D02*
G37*
G36*
X12179D02*
X12158Y6748D01*
X12138Y6740D01*
X12120Y6726D01*
X12107Y6709D01*
X12099Y6689D01*
X12096Y6668D01*
X12099Y6646D01*
X12107Y6626D01*
X12120Y6609D01*
X12135Y6597D01*
Y6305D01*
X12130Y6294D01*
X12128Y6274D01*
X12130Y6254D01*
X12138Y6235D01*
X12150Y6219D01*
X12166Y6207D01*
X12185Y6200D01*
X12205Y6197D01*
X12225Y6200D01*
X12243Y6207D01*
X12259Y6219D01*
X12271Y6235D01*
X12279Y6254D01*
X12282Y6274D01*
X12279Y6294D01*
X12271Y6312D01*
X12259Y6328D01*
X12243Y6340D01*
X12225Y6348D01*
X12223Y6348D01*
Y6597D01*
X12238Y6609D01*
X12252Y6626D01*
X12260Y6646D01*
X12263Y6668D01*
X12260Y6689D01*
X12252Y6709D01*
X12238Y6726D01*
X12221Y6740D01*
X12201Y6748D01*
X12179Y6751D01*
D02*
G37*
G36*
X9487Y6444D02*
X9476Y6443D01*
X9455Y6434D01*
X9436Y6420D01*
X9422Y6401D01*
X9413Y6380D01*
X9412Y6369D01*
X9487D01*
Y6444D01*
D02*
G37*
G36*
X9709Y6750D02*
X9544D01*
Y6585D01*
X9583D01*
Y6415D01*
X9570Y6411D01*
X9563Y6420D01*
X9544Y6434D01*
X9523Y6443D01*
X9512Y6444D01*
Y6357D01*
Y6269D01*
X9523Y6270D01*
X9544Y6279D01*
X9563Y6293D01*
X9570Y6302D01*
X9583Y6298D01*
Y6147D01*
X9584Y6141D01*
X9582Y6137D01*
X9580Y6117D01*
X9582Y6097D01*
X9590Y6079D01*
X9602Y6063D01*
X9618Y6050D01*
X9636Y6043D01*
X9656Y6040D01*
X9676Y6043D01*
X9695Y6050D01*
X9711Y6063D01*
X9723Y6079D01*
X9731Y6097D01*
X9733Y6117D01*
X9731Y6137D01*
X9723Y6155D01*
X9711Y6171D01*
X9695Y6184D01*
X9676Y6191D01*
X9671Y6192D01*
Y6585D01*
X9709D01*
Y6750D01*
D02*
G37*
G36*
X9487Y6344D02*
X9412D01*
X9413Y6333D01*
X9422Y6312D01*
X9436Y6293D01*
X9455Y6279D01*
X9476Y6270D01*
X9487Y6269D01*
Y6344D01*
D02*
G37*
G36*
X10135Y6751D02*
X10113Y6748D01*
X10093Y6740D01*
X10076Y6726D01*
X10062Y6709D01*
X10054Y6689D01*
X10051Y6668D01*
X10054Y6646D01*
X10062Y6626D01*
X10076Y6609D01*
X10091Y6597D01*
Y6371D01*
X10080Y6362D01*
X10071Y6363D01*
X10051Y6361D01*
X10033Y6353D01*
X10017Y6341D01*
X10005Y6325D01*
X9997Y6306D01*
X9994Y6287D01*
X9997Y6267D01*
X10005Y6248D01*
X10017Y6232D01*
X10033Y6220D01*
X10051Y6212D01*
X10071Y6210D01*
X10091Y6212D01*
X10110Y6220D01*
X10125Y6232D01*
X10138Y6248D01*
X10145Y6267D01*
X10148Y6287D01*
X10146Y6299D01*
X10166Y6319D01*
X10175Y6333D01*
X10179Y6350D01*
Y6597D01*
X10194Y6609D01*
X10207Y6626D01*
X10215Y6646D01*
X10218Y6668D01*
X10215Y6689D01*
X10207Y6709D01*
X10194Y6726D01*
X10176Y6740D01*
X10156Y6748D01*
X10135Y6751D01*
D02*
G37*
G36*
X12675Y5397D02*
X12664Y5395D01*
X12642Y5386D01*
X12624Y5372D01*
X12610Y5353D01*
X12601Y5332D01*
X12599Y5321D01*
X12675D01*
Y5397D01*
D02*
G37*
G36*
X10960Y4940D02*
X10937Y4937D01*
X10916Y4928D01*
X10898Y4914D01*
X10883Y4896D01*
X10875Y4874D01*
X10872Y4851D01*
X10875Y4829D01*
X10883Y4807D01*
X10898Y4789D01*
X10916Y4775D01*
X10937Y4766D01*
X10960Y4763D01*
X10983Y4766D01*
X11004Y4775D01*
X11023Y4789D01*
X11037Y4807D01*
X11046Y4829D01*
X11049Y4851D01*
X11046Y4874D01*
X11037Y4896D01*
X11023Y4914D01*
X11004Y4928D01*
X10983Y4937D01*
X10960Y4940D01*
D02*
G37*
G36*
X11214D02*
X11191Y4937D01*
X11170Y4928D01*
X11152Y4914D01*
X11137Y4896D01*
X11129Y4874D01*
X11126Y4851D01*
X11129Y4829D01*
X11137Y4807D01*
X11152Y4789D01*
X11170Y4775D01*
X11191Y4766D01*
X11214Y4763D01*
X11237Y4766D01*
X11258Y4775D01*
X11277Y4789D01*
X11291Y4807D01*
X11300Y4829D01*
X11303Y4851D01*
X11300Y4874D01*
X11291Y4896D01*
X11277Y4914D01*
X11258Y4928D01*
X11237Y4937D01*
X11214Y4940D01*
D02*
G37*
G36*
X11810Y4685D02*
X11634D01*
Y4510D01*
X11810D01*
Y4685D01*
D02*
G37*
G36*
X7761Y6110D02*
X7555D01*
Y5904D01*
X7761D01*
Y5981D01*
X9183D01*
X10467Y4697D01*
X10461Y4685D01*
X10452Y4686D01*
X10429Y4683D01*
X10408Y4674D01*
X10390Y4660D01*
X10375Y4642D01*
X10367Y4620D01*
X10364Y4597D01*
X10367Y4575D01*
X10375Y4553D01*
X10390Y4535D01*
X10408Y4521D01*
X10429Y4512D01*
X10452Y4509D01*
X10475Y4512D01*
X10496Y4521D01*
X10515Y4535D01*
X10529Y4553D01*
X10538Y4575D01*
X10541Y4597D01*
X10539Y4607D01*
X10551Y4613D01*
X10585Y4579D01*
X10593Y4573D01*
X10603Y4572D01*
X10622D01*
X10629Y4553D01*
X10644Y4535D01*
X10662Y4521D01*
X10683Y4512D01*
X10706Y4509D01*
X10729Y4512D01*
X10747Y4520D01*
X10815Y4452D01*
X10823Y4446D01*
X10833Y4445D01*
X12006D01*
X12009Y4440D01*
X12023Y4430D01*
X12040Y4427D01*
X12056Y4430D01*
X12070Y4440D01*
X12080Y4454D01*
X12083Y4470D01*
X12080Y4487D01*
X12070Y4501D01*
X12056Y4511D01*
X12040Y4514D01*
X12023Y4511D01*
X12009Y4501D01*
X12006Y4496D01*
X11520D01*
X11517Y4509D01*
X11519Y4510D01*
X11540Y4526D01*
X11556Y4547D01*
X11566Y4571D01*
X11568Y4585D01*
X11468D01*
X11369D01*
X11370Y4571D01*
X11380Y4547D01*
X11396Y4526D01*
X11417Y4510D01*
X11419Y4509D01*
X11417Y4496D01*
X11266D01*
X11263Y4509D01*
X11265Y4510D01*
X11286Y4526D01*
X11302Y4547D01*
X11312Y4571D01*
X11314Y4585D01*
X11214D01*
X11115D01*
X11116Y4571D01*
X11126Y4547D01*
X11142Y4526D01*
X11163Y4510D01*
X11165Y4509D01*
X11163Y4496D01*
X10844D01*
X10784Y4556D01*
X10792Y4575D01*
X10795Y4597D01*
X10792Y4620D01*
X10783Y4642D01*
X10769Y4660D01*
X10750Y4674D01*
X10729Y4683D01*
X10706Y4686D01*
X10683Y4683D01*
X10662Y4674D01*
X10644Y4660D01*
X10629Y4642D01*
X10624Y4629D01*
X10610Y4627D01*
X9212Y6025D01*
X9204Y6031D01*
X9194Y6033D01*
X7761D01*
Y6110D01*
D02*
G37*
G36*
X12484Y4940D02*
X12461Y4937D01*
X12440Y4928D01*
X12422Y4914D01*
X12407Y4896D01*
X12399Y4874D01*
X12396Y4851D01*
X12399Y4829D01*
X12407Y4807D01*
X12422Y4789D01*
X12440Y4775D01*
X12461Y4766D01*
X12484Y4763D01*
X12507Y4766D01*
X12528Y4775D01*
X12547Y4789D01*
X12561Y4807D01*
X12570Y4829D01*
X12573Y4851D01*
X12570Y4874D01*
X12561Y4896D01*
X12547Y4914D01*
X12528Y4928D01*
X12507Y4937D01*
X12484Y4940D01*
D02*
G37*
G36*
X12738D02*
X12715Y4937D01*
X12694Y4928D01*
X12676Y4914D01*
X12661Y4896D01*
X12653Y4874D01*
X12650Y4851D01*
X12653Y4829D01*
X12661Y4807D01*
X12676Y4789D01*
X12694Y4775D01*
X12715Y4766D01*
X12738Y4763D01*
X12761Y4766D01*
X12782Y4775D01*
X12801Y4789D01*
X12815Y4807D01*
X12824Y4829D01*
X12827Y4851D01*
X12824Y4874D01*
X12815Y4896D01*
X12801Y4914D01*
X12782Y4928D01*
X12761Y4937D01*
X12738Y4940D01*
D02*
G37*
G36*
X11468D02*
X11445Y4937D01*
X11424Y4928D01*
X11406Y4914D01*
X11391Y4896D01*
X11383Y4874D01*
X11380Y4851D01*
X11383Y4829D01*
X11391Y4807D01*
X11406Y4789D01*
X11424Y4775D01*
X11445Y4766D01*
X11468Y4763D01*
X11491Y4766D01*
X11512Y4775D01*
X11531Y4789D01*
X11545Y4807D01*
X11554Y4829D01*
X11557Y4851D01*
X11554Y4874D01*
X11545Y4896D01*
X11531Y4914D01*
X11512Y4928D01*
X11491Y4937D01*
X11468Y4940D01*
D02*
G37*
G36*
X12230D02*
X12207Y4937D01*
X12186Y4928D01*
X12168Y4914D01*
X12153Y4896D01*
X12145Y4874D01*
X12142Y4851D01*
X12145Y4829D01*
X12153Y4807D01*
X12168Y4789D01*
X12186Y4775D01*
X12207Y4766D01*
X12230Y4763D01*
X12253Y4766D01*
X12274Y4775D01*
X12293Y4789D01*
X12307Y4807D01*
X12316Y4829D01*
X12319Y4851D01*
X12316Y4874D01*
X12307Y4896D01*
X12293Y4914D01*
X12274Y4928D01*
X12253Y4937D01*
X12230Y4940D01*
D02*
G37*
G36*
X10960Y4686D02*
X10937Y4683D01*
X10916Y4674D01*
X10898Y4660D01*
X10883Y4642D01*
X10875Y4620D01*
X10872Y4597D01*
X10875Y4575D01*
X10883Y4553D01*
X10898Y4535D01*
X10916Y4521D01*
X10937Y4512D01*
X10960Y4509D01*
X10983Y4512D01*
X11004Y4521D01*
X11023Y4535D01*
X11037Y4553D01*
X11046Y4575D01*
X11049Y4597D01*
X11046Y4620D01*
X11037Y4642D01*
X11023Y4660D01*
X11004Y4674D01*
X10983Y4683D01*
X10960Y4686D01*
D02*
G37*
G36*
X12230D02*
X12207Y4683D01*
X12186Y4674D01*
X12168Y4660D01*
X12153Y4642D01*
X12145Y4620D01*
X12142Y4597D01*
X12145Y4575D01*
X12153Y4553D01*
X12168Y4535D01*
X12186Y4521D01*
X12207Y4512D01*
X12230Y4509D01*
X12253Y4512D01*
X12274Y4521D01*
X12293Y4535D01*
X12307Y4553D01*
X12316Y4575D01*
X12319Y4597D01*
X12316Y4620D01*
X12307Y4642D01*
X12293Y4660D01*
X12274Y4674D01*
X12253Y4683D01*
X12230Y4686D01*
D02*
G37*
G36*
X9944D02*
X9921Y4683D01*
X9900Y4674D01*
X9882Y4660D01*
X9867Y4642D01*
X9859Y4620D01*
X9856Y4597D01*
X9859Y4575D01*
X9867Y4553D01*
X9882Y4535D01*
X9900Y4521D01*
X9921Y4512D01*
X9944Y4509D01*
X9967Y4512D01*
X9988Y4521D01*
X10007Y4535D01*
X10021Y4553D01*
X10030Y4575D01*
X10033Y4597D01*
X10030Y4620D01*
X10021Y4642D01*
X10007Y4660D01*
X9988Y4674D01*
X9967Y4683D01*
X9944Y4686D01*
D02*
G37*
G36*
X10198D02*
X10175Y4683D01*
X10154Y4674D01*
X10136Y4660D01*
X10121Y4642D01*
X10113Y4620D01*
X10110Y4597D01*
X10113Y4575D01*
X10121Y4553D01*
X10136Y4535D01*
X10154Y4521D01*
X10175Y4512D01*
X10198Y4509D01*
X10221Y4512D01*
X10242Y4521D01*
X10261Y4535D01*
X10275Y4553D01*
X10284Y4575D01*
X10287Y4597D01*
X10284Y4620D01*
X10275Y4642D01*
X10261Y4660D01*
X10242Y4674D01*
X10221Y4683D01*
X10198Y4686D01*
D02*
G37*
G36*
X12992D02*
X12969Y4683D01*
X12948Y4674D01*
X12930Y4660D01*
X12915Y4642D01*
X12907Y4620D01*
X12904Y4597D01*
X12907Y4575D01*
X12915Y4553D01*
X12930Y4535D01*
X12948Y4521D01*
X12969Y4512D01*
X12992Y4509D01*
X13015Y4512D01*
X13036Y4521D01*
X13055Y4535D01*
X13069Y4553D01*
X13078Y4575D01*
X13081Y4597D01*
X13078Y4620D01*
X13069Y4642D01*
X13055Y4660D01*
X13036Y4674D01*
X13015Y4683D01*
X12992Y4686D01*
D02*
G37*
G36*
X9205Y5047D02*
X9188Y5044D01*
X9174Y5035D01*
X9165Y5020D01*
X9161Y5004D01*
X9165Y4987D01*
X9174Y4973D01*
X9188Y4964D01*
X9205Y4960D01*
X9211Y4961D01*
X9803Y4369D01*
X9812Y4363D01*
X9822Y4361D01*
X13036D01*
X13046Y4363D01*
X13054Y4369D01*
X13205Y4520D01*
X13223Y4512D01*
X13246Y4509D01*
X13269Y4512D01*
X13290Y4521D01*
X13309Y4535D01*
X13323Y4553D01*
X13332Y4575D01*
X13335Y4597D01*
X13332Y4620D01*
X13323Y4642D01*
X13309Y4660D01*
X13290Y4674D01*
X13269Y4683D01*
X13246Y4686D01*
X13223Y4683D01*
X13202Y4674D01*
X13184Y4660D01*
X13169Y4642D01*
X13161Y4620D01*
X13158Y4597D01*
X13161Y4575D01*
X13168Y4556D01*
X13025Y4413D01*
X9832D01*
X9247Y4998D01*
X9248Y5004D01*
X9245Y5020D01*
X9236Y5035D01*
X9222Y5044D01*
X9205Y5047D01*
D02*
G37*
G36*
X12484Y4686D02*
X12461Y4683D01*
X12440Y4674D01*
X12422Y4660D01*
X12407Y4642D01*
X12399Y4620D01*
X12396Y4597D01*
X12399Y4575D01*
X12407Y4553D01*
X12422Y4535D01*
X12440Y4521D01*
X12461Y4512D01*
X12484Y4509D01*
X12507Y4512D01*
X12528Y4521D01*
X12547Y4535D01*
X12561Y4553D01*
X12570Y4575D01*
X12573Y4597D01*
X12570Y4620D01*
X12561Y4642D01*
X12547Y4660D01*
X12528Y4674D01*
X12507Y4683D01*
X12484Y4686D01*
D02*
G37*
G36*
X12738D02*
X12715Y4683D01*
X12694Y4674D01*
X12676Y4660D01*
X12661Y4642D01*
X12653Y4620D01*
X12650Y4597D01*
X12653Y4575D01*
X12661Y4553D01*
X12676Y4535D01*
X12694Y4521D01*
X12715Y4512D01*
X12738Y4509D01*
X12761Y4512D01*
X12782Y4521D01*
X12801Y4535D01*
X12815Y4553D01*
X12824Y4575D01*
X12827Y4597D01*
X12824Y4620D01*
X12815Y4642D01*
X12801Y4660D01*
X12782Y4674D01*
X12761Y4683D01*
X12738Y4686D01*
D02*
G37*
G36*
X12675Y5296D02*
X12599D01*
X12601Y5285D01*
X12610Y5264D01*
X12624Y5245D01*
X12642Y5231D01*
X12664Y5222D01*
X12675Y5221D01*
Y5296D01*
D02*
G37*
G36*
X12775D02*
X12700D01*
Y5221D01*
X12711Y5222D01*
X12732Y5231D01*
X12751Y5245D01*
X12765Y5264D01*
X12774Y5285D01*
X12775Y5296D01*
D02*
G37*
G36*
X10922Y5207D02*
X10847D01*
X10848Y5196D01*
X10857Y5175D01*
X10871Y5156D01*
X10890Y5142D01*
X10911Y5133D01*
X10922Y5132D01*
Y5207D01*
D02*
G37*
G36*
X11023D02*
X10947D01*
Y5132D01*
X10958Y5133D01*
X10980Y5142D01*
X10998Y5156D01*
X11012Y5175D01*
X11021Y5196D01*
X11023Y5207D01*
D02*
G37*
G36*
X10312Y5334D02*
X10237D01*
X10238Y5323D01*
X10247Y5302D01*
X10262Y5283D01*
X10280Y5269D01*
X10302Y5260D01*
X10312Y5259D01*
Y5334D01*
D02*
G37*
G36*
X10413D02*
X10338D01*
Y5259D01*
X10348Y5260D01*
X10370Y5269D01*
X10389Y5283D01*
X10403Y5302D01*
X10412Y5323D01*
X10413Y5334D01*
D02*
G37*
G36*
X10922Y5308D02*
X10911Y5306D01*
X10890Y5297D01*
X10871Y5283D01*
X10857Y5265D01*
X10848Y5243D01*
X10847Y5232D01*
X10922D01*
Y5308D01*
D02*
G37*
G36*
X10947D02*
Y5232D01*
X11023D01*
X11021Y5243D01*
X11012Y5265D01*
X10998Y5283D01*
X10980Y5297D01*
X10958Y5306D01*
X10947Y5308D01*
D02*
G37*
G36*
X11810Y4939D02*
X11634D01*
Y4764D01*
X11810D01*
Y4939D01*
D02*
G37*
G36*
X13588D02*
X13412D01*
Y4764D01*
X13588D01*
Y4939D01*
D02*
G37*
G36*
X12992Y4940D02*
X12969Y4937D01*
X12948Y4928D01*
X12930Y4914D01*
X12915Y4896D01*
X12907Y4874D01*
X12904Y4851D01*
X12907Y4829D01*
X12915Y4807D01*
X12930Y4789D01*
X12948Y4775D01*
X12969Y4766D01*
X12992Y4763D01*
X13015Y4766D01*
X13036Y4775D01*
X13055Y4789D01*
X13069Y4807D01*
X13078Y4829D01*
X13081Y4851D01*
X13078Y4874D01*
X13069Y4896D01*
X13055Y4914D01*
X13036Y4928D01*
X13015Y4937D01*
X12992Y4940D01*
D02*
G37*
G36*
X13246D02*
X13223Y4937D01*
X13202Y4928D01*
X13184Y4914D01*
X13169Y4896D01*
X13161Y4874D01*
X13158Y4851D01*
X13161Y4829D01*
X13169Y4807D01*
X13184Y4789D01*
X13202Y4775D01*
X13223Y4766D01*
X13246Y4763D01*
X13269Y4766D01*
X13290Y4775D01*
X13309Y4789D01*
X13323Y4807D01*
X13332Y4829D01*
X13335Y4851D01*
X13332Y4874D01*
X13323Y4896D01*
X13309Y4914D01*
X13290Y4928D01*
X13269Y4937D01*
X13246Y4940D01*
D02*
G37*
G36*
X9881Y5193D02*
X9870Y5192D01*
X9848Y5183D01*
X9830Y5169D01*
X9816Y5150D01*
X9807Y5129D01*
X9805Y5118D01*
X9881D01*
Y5193D01*
D02*
G37*
G36*
X9906D02*
Y5118D01*
X9981D01*
X9980Y5129D01*
X9971Y5150D01*
X9957Y5169D01*
X9938Y5183D01*
X9917Y5192D01*
X9906Y5193D01*
D02*
G37*
G36*
X9881Y5093D02*
X9805D01*
X9807Y5082D01*
X9816Y5061D01*
X9830Y5042D01*
X9848Y5028D01*
X9870Y5019D01*
X9881Y5017D01*
Y5093D01*
D02*
G37*
G36*
X9981D02*
X9906D01*
Y5017D01*
X9917Y5019D01*
X9938Y5028D01*
X9957Y5042D01*
X9971Y5061D01*
X9980Y5082D01*
X9981Y5093D01*
D02*
G37*
G36*
X8611Y8928D02*
X8509D01*
Y8826D01*
X8526Y8828D01*
X8554Y8840D01*
X8579Y8858D01*
X8597Y8883D01*
X8609Y8911D01*
X8611Y8928D01*
D02*
G37*
G36*
X8484D02*
X8382D01*
X8384Y8911D01*
X8395Y8883D01*
X8414Y8858D01*
X8438Y8840D01*
X8466Y8828D01*
X8484Y8826D01*
Y8928D01*
D02*
G37*
G36*
X7696Y8616D02*
Y8509D01*
X7803D01*
X7801Y8528D01*
X7789Y8557D01*
X7769Y8582D01*
X7744Y8601D01*
X7715Y8614D01*
X7696Y8616D01*
D02*
G37*
G36*
X7791Y9112D02*
X7576D01*
Y8897D01*
X7791D01*
Y9112D01*
D02*
G37*
G36*
X9538Y9258D02*
X9515Y9255D01*
X9493Y9246D01*
X9475Y9232D01*
X9461Y9214D01*
X9452Y9192D01*
X9449Y9169D01*
X9452Y9147D01*
X9461Y9125D01*
X9475Y9107D01*
X9493Y9093D01*
X9515Y9084D01*
X9538Y9081D01*
X9561Y9084D01*
X9582Y9093D01*
X9600Y9107D01*
X9614Y9125D01*
X9623Y9147D01*
X9626Y9169D01*
X9623Y9192D01*
X9614Y9214D01*
X9600Y9232D01*
X9582Y9246D01*
X9561Y9255D01*
X9538Y9258D01*
D02*
G37*
G36*
X8509Y9056D02*
Y8954D01*
X8611D01*
X8609Y8971D01*
X8597Y8999D01*
X8579Y9023D01*
X8554Y9042D01*
X8526Y9053D01*
X8509Y9056D01*
D02*
G37*
G36*
X8484D02*
X8466Y9053D01*
X8438Y9042D01*
X8414Y9023D01*
X8395Y8999D01*
X8384Y8971D01*
X8382Y8954D01*
X8484D01*
Y9056D01*
D02*
G37*
G36*
X7671Y8616D02*
X7652Y8614D01*
X7623Y8601D01*
X7598Y8582D01*
X7578Y8557D01*
X7566Y8528D01*
X7564Y8509D01*
X7671D01*
Y8616D01*
D02*
G37*
G36*
X11786Y8406D02*
X11711D01*
Y8331D01*
X11721Y8332D01*
X11743Y8341D01*
X11761Y8355D01*
X11776Y8374D01*
X11785Y8396D01*
X11786Y8406D01*
D02*
G37*
G36*
X11685D02*
X11610D01*
X11611Y8396D01*
X11620Y8374D01*
X11634Y8355D01*
X11653Y8341D01*
X11675Y8332D01*
X11685Y8331D01*
Y8406D01*
D02*
G37*
G36*
X12408Y8681D02*
X12386Y8678D01*
X12366Y8670D01*
X12349Y8657D01*
X12336Y8640D01*
X12327Y8619D01*
X12324Y8598D01*
X12327Y8576D01*
X12336Y8556D01*
X12349Y8539D01*
X12364Y8527D01*
Y8302D01*
X12354Y8293D01*
X12344Y8294D01*
X12325Y8291D01*
X12306Y8283D01*
X12290Y8271D01*
X12278Y8255D01*
X12270Y8237D01*
X12268Y8217D01*
X12270Y8197D01*
X12278Y8178D01*
X12290Y8163D01*
X12306Y8150D01*
X12325Y8143D01*
X12344Y8140D01*
X12364Y8143D01*
X12383Y8150D01*
X12399Y8163D01*
X12411Y8178D01*
X12419Y8197D01*
X12421Y8217D01*
X12420Y8230D01*
X12439Y8249D01*
X12449Y8264D01*
X12452Y8280D01*
Y8527D01*
X12467Y8539D01*
X12480Y8556D01*
X12488Y8576D01*
X12491Y8598D01*
X12488Y8619D01*
X12480Y8640D01*
X12467Y8657D01*
X12450Y8670D01*
X12429Y8678D01*
X12408Y8681D01*
D02*
G37*
G36*
X7671Y8484D02*
X7564D01*
X7566Y8465D01*
X7578Y8436D01*
X7598Y8410D01*
X7623Y8391D01*
X7652Y8379D01*
X7671Y8377D01*
Y8484D01*
D02*
G37*
G36*
X11711Y8507D02*
Y8432D01*
X11786D01*
X11785Y8442D01*
X11776Y8464D01*
X11761Y8482D01*
X11743Y8497D01*
X11721Y8506D01*
X11711Y8507D01*
D02*
G37*
G36*
X11685D02*
X11675Y8506D01*
X11653Y8497D01*
X11634Y8482D01*
X11620Y8464D01*
X11611Y8442D01*
X11610Y8432D01*
X11685D01*
Y8507D01*
D02*
G37*
G36*
X7803Y8484D02*
X7696D01*
Y8377D01*
X7715Y8379D01*
X7744Y8391D01*
X7769Y8410D01*
X7789Y8436D01*
X7801Y8465D01*
X7803Y8484D01*
D02*
G37*
G36*
X9792Y9258D02*
X9769Y9255D01*
X9747Y9246D01*
X9729Y9232D01*
X9715Y9214D01*
X9706Y9192D01*
X9703Y9169D01*
X9706Y9147D01*
X9715Y9125D01*
X9729Y9107D01*
X9747Y9093D01*
X9769Y9084D01*
X9792Y9081D01*
X9815Y9084D01*
X9836Y9093D01*
X9854Y9107D01*
X9868Y9125D01*
X9877Y9147D01*
X9880Y9169D01*
X9877Y9192D01*
X9868Y9214D01*
X9854Y9232D01*
X9836Y9246D01*
X9815Y9255D01*
X9792Y9258D01*
D02*
G37*
G36*
X10808Y9512D02*
X10785Y9509D01*
X10763Y9500D01*
X10745Y9486D01*
X10731Y9468D01*
X10722Y9446D01*
X10719Y9423D01*
X10722Y9401D01*
X10731Y9379D01*
X10745Y9361D01*
X10763Y9347D01*
X10785Y9338D01*
X10808Y9335D01*
X10831Y9338D01*
X10852Y9347D01*
X10870Y9361D01*
X10884Y9379D01*
X10893Y9401D01*
X10896Y9423D01*
X10893Y9446D01*
X10884Y9468D01*
X10870Y9486D01*
X10852Y9500D01*
X10831Y9509D01*
X10808Y9512D01*
D02*
G37*
G36*
X10554D02*
X10531Y9509D01*
X10509Y9500D01*
X10491Y9486D01*
X10477Y9468D01*
X10468Y9446D01*
X10465Y9423D01*
X10468Y9401D01*
X10477Y9379D01*
X10491Y9361D01*
X10509Y9347D01*
X10531Y9338D01*
X10554Y9335D01*
X10577Y9338D01*
X10598Y9347D01*
X10616Y9361D01*
X10630Y9379D01*
X10639Y9401D01*
X10642Y9423D01*
X10639Y9446D01*
X10630Y9468D01*
X10616Y9486D01*
X10598Y9500D01*
X10577Y9509D01*
X10554Y9512D01*
D02*
G37*
G36*
X10300D02*
X10277Y9509D01*
X10255Y9500D01*
X10237Y9486D01*
X10223Y9468D01*
X10214Y9446D01*
X10211Y9423D01*
X10214Y9401D01*
X10223Y9379D01*
X10237Y9361D01*
X10255Y9347D01*
X10277Y9338D01*
X10300Y9335D01*
X10323Y9338D01*
X10344Y9347D01*
X10362Y9361D01*
X10376Y9379D01*
X10385Y9401D01*
X10388Y9423D01*
X10385Y9446D01*
X10376Y9468D01*
X10362Y9486D01*
X10344Y9500D01*
X10323Y9509D01*
X10300Y9512D01*
D02*
G37*
G36*
X10922Y9589D02*
X9207D01*
X9198Y9587D01*
X9189Y9581D01*
X9138Y9531D01*
X9133Y9522D01*
X9131Y9512D01*
Y9358D01*
X8562Y8789D01*
X8394D01*
Y8584D01*
X8599D01*
Y8753D01*
X9175Y9329D01*
X9181Y9337D01*
X9183Y9347D01*
Y9502D01*
X9218Y9537D01*
X10911D01*
X10984Y9465D01*
X10976Y9446D01*
X10973Y9423D01*
X10976Y9401D01*
X10985Y9379D01*
X10999Y9361D01*
X11017Y9347D01*
X11039Y9338D01*
X11062Y9335D01*
X11085Y9338D01*
X11106Y9347D01*
X11124Y9361D01*
X11138Y9379D01*
X11147Y9401D01*
X11150Y9423D01*
X11147Y9446D01*
X11138Y9468D01*
X11124Y9486D01*
X11106Y9500D01*
X11085Y9509D01*
X11062Y9512D01*
X11039Y9509D01*
X11020Y9501D01*
X10940Y9581D01*
X10932Y9587D01*
X10922Y9589D01*
D02*
G37*
G36*
X13246Y9512D02*
X13223Y9509D01*
X13202Y9500D01*
X13184Y9486D01*
X13169Y9468D01*
X13161Y9446D01*
X13158Y9423D01*
X13161Y9401D01*
X13169Y9379D01*
X13184Y9361D01*
X13202Y9347D01*
X13223Y9338D01*
X13246Y9335D01*
X13269Y9338D01*
X13290Y9347D01*
X13309Y9361D01*
X13323Y9379D01*
X13332Y9401D01*
X13335Y9423D01*
X13332Y9446D01*
X13323Y9468D01*
X13309Y9486D01*
X13290Y9500D01*
X13269Y9509D01*
X13246Y9512D01*
D02*
G37*
G36*
X13541Y9597D02*
X13139D01*
X13130Y9595D01*
X13121Y9589D01*
X13101Y9569D01*
X13095Y9560D01*
X13093Y9550D01*
Y9311D01*
X12379D01*
X12308Y9382D01*
X12316Y9401D01*
X12319Y9423D01*
X12316Y9446D01*
X12307Y9468D01*
X12293Y9486D01*
X12291Y9487D01*
X12295Y9499D01*
X12372D01*
X12406Y9465D01*
X12399Y9446D01*
X12396Y9423D01*
X12399Y9401D01*
X12407Y9379D01*
X12422Y9361D01*
X12440Y9347D01*
X12461Y9338D01*
X12484Y9335D01*
X12507Y9338D01*
X12528Y9347D01*
X12547Y9361D01*
X12561Y9379D01*
X12570Y9401D01*
X12573Y9423D01*
X12570Y9446D01*
X12561Y9468D01*
X12547Y9486D01*
X12528Y9500D01*
X12507Y9509D01*
X12484Y9512D01*
X12461Y9509D01*
X12443Y9501D01*
X12419Y9525D01*
X12424Y9537D01*
X12842D01*
X12914Y9465D01*
X12907Y9446D01*
X12904Y9423D01*
X12907Y9401D01*
X12915Y9379D01*
X12930Y9361D01*
X12948Y9347D01*
X12969Y9338D01*
X12992Y9335D01*
X13015Y9338D01*
X13036Y9347D01*
X13055Y9361D01*
X13069Y9379D01*
X13078Y9401D01*
X13081Y9423D01*
X13078Y9446D01*
X13069Y9468D01*
X13055Y9486D01*
X13036Y9500D01*
X13015Y9509D01*
X12992Y9512D01*
X12969Y9509D01*
X12951Y9501D01*
X12871Y9581D01*
X12862Y9587D01*
X12852Y9589D01*
X11504D01*
X11494Y9587D01*
X11485Y9581D01*
X11470Y9566D01*
X11464Y9558D01*
X11463Y9548D01*
Y8888D01*
X10588Y8013D01*
X10579Y8014D01*
X10559Y8012D01*
X10544Y8005D01*
X10537Y8016D01*
X10928Y8407D01*
X10934Y8417D01*
X10935Y8417D01*
X10951Y8429D01*
X10963Y8445D01*
X10971Y8464D01*
X10973Y8484D01*
X10971Y8503D01*
X10963Y8522D01*
X10951Y8538D01*
X10935Y8550D01*
X10916Y8558D01*
X10897Y8560D01*
X10877Y8558D01*
X10858Y8550D01*
X10842Y8538D01*
X10830Y8522D01*
X10822Y8503D01*
X10820Y8484D01*
X10822Y8464D01*
X10830Y8445D01*
X10835Y8439D01*
X10407Y8011D01*
X10395Y8013D01*
X10390Y8024D01*
X10392Y8026D01*
X10399Y8045D01*
X10402Y8064D01*
X10399Y8084D01*
X10395Y8096D01*
Y8527D01*
X10409Y8539D01*
X10423Y8556D01*
X10431Y8576D01*
X10434Y8598D01*
X10431Y8619D01*
X10423Y8640D01*
X10409Y8657D01*
X10392Y8670D01*
X10372Y8678D01*
X10350Y8681D01*
X10329Y8678D01*
X10309Y8670D01*
X10292Y8657D01*
X10278Y8640D01*
X10270Y8619D01*
X10267Y8598D01*
X10270Y8576D01*
X10278Y8556D01*
X10292Y8539D01*
X10306Y8527D01*
Y8139D01*
X10305Y8139D01*
X10287Y8131D01*
X10271Y8119D01*
X10259Y8103D01*
X10251Y8084D01*
X10248Y8064D01*
X10251Y8045D01*
X10259Y8026D01*
X10271Y8010D01*
X10287Y7998D01*
X10305Y7990D01*
X10322Y7988D01*
X10327Y7980D01*
X10328Y7975D01*
X10326Y7972D01*
X10318Y7954D01*
X10315Y7934D01*
X10318Y7914D01*
X10326Y7896D01*
X10338Y7880D01*
X10345Y7874D01*
X10346Y7869D01*
X10343Y7860D01*
X10327Y7853D01*
X10311Y7841D01*
X10299Y7825D01*
X10292Y7807D01*
X10289Y7787D01*
X10292Y7767D01*
X10299Y7748D01*
X10311Y7732D01*
X10327Y7720D01*
X10346Y7712D01*
X10366Y7710D01*
X10386Y7712D01*
X10404Y7720D01*
X10420Y7732D01*
X10432Y7748D01*
X10437Y7761D01*
X10593D01*
X10603Y7763D01*
X10612Y7768D01*
X11807Y8963D01*
X11943D01*
X11948Y8951D01*
X10655Y7659D01*
X10649Y7650D01*
X10647Y7640D01*
Y6254D01*
X10635Y6249D01*
X10619Y6237D01*
X10607Y6221D01*
X10599Y6202D01*
X10596Y6182D01*
X10599Y6162D01*
X10607Y6144D01*
X10619Y6128D01*
X10635Y6116D01*
X10653Y6108D01*
X10673Y6106D01*
X10693Y6108D01*
X10712Y6116D01*
X10727Y6128D01*
X10740Y6144D01*
X10747Y6162D01*
X10750Y6182D01*
X10747Y6202D01*
X10740Y6221D01*
X10727Y6237D01*
X10712Y6249D01*
X10699Y6254D01*
Y6690D01*
X10712Y6694D01*
X10715Y6689D01*
X10731Y6677D01*
X10750Y6669D01*
X10770Y6667D01*
X10789Y6669D01*
X10808Y6677D01*
X10824Y6689D01*
X10836Y6705D01*
X10844Y6724D01*
X10846Y6744D01*
X10844Y6764D01*
X10836Y6782D01*
X10824Y6798D01*
X10808Y6810D01*
X10795Y6815D01*
Y7119D01*
X11461Y7785D01*
X11531D01*
Y7429D01*
X11533Y7420D01*
X11539Y7411D01*
X11551Y7398D01*
X11546Y7386D01*
X11544Y7366D01*
X11546Y7346D01*
X11554Y7328D01*
X11566Y7312D01*
X11582Y7299D01*
X11601Y7292D01*
X11621Y7289D01*
X11640Y7292D01*
X11659Y7299D01*
X11675Y7312D01*
X11687Y7328D01*
X11695Y7346D01*
X11697Y7366D01*
X11695Y7386D01*
X11687Y7404D01*
X11675Y7420D01*
X11659Y7433D01*
X11640Y7440D01*
X11621Y7443D01*
X11601Y7440D01*
X11595Y7438D01*
X11583Y7446D01*
Y7811D01*
Y8158D01*
X11595Y8163D01*
X11611Y8175D01*
X11624Y8191D01*
X11631Y8210D01*
X11634Y8230D01*
X11631Y8249D01*
X11624Y8268D01*
X11611Y8284D01*
X11595Y8296D01*
X11577Y8304D01*
X11557Y8306D01*
X11537Y8304D01*
X11519Y8296D01*
X11503Y8284D01*
X11490Y8268D01*
X11483Y8249D01*
X11480Y8230D01*
X11483Y8210D01*
X11490Y8191D01*
X11503Y8175D01*
X11519Y8163D01*
X11531Y8158D01*
Y7836D01*
X11450D01*
X11440Y7834D01*
X11432Y7829D01*
X10751Y7148D01*
X10746Y7140D01*
X10744Y7130D01*
Y6815D01*
X10731Y6810D01*
X10715Y6798D01*
X10712Y6793D01*
X10699Y6798D01*
Y7630D01*
X12134Y9065D01*
X12140Y9073D01*
X12142Y9083D01*
Y9120D01*
X12150Y9124D01*
X12154Y9124D01*
X12168Y9107D01*
X12186Y9093D01*
X12207Y9084D01*
X12230Y9081D01*
X12253Y9084D01*
X12274Y9093D01*
X12293Y9107D01*
X12307Y9125D01*
X12316Y9147D01*
X12319Y9169D01*
X12316Y9192D01*
X12307Y9214D01*
X12293Y9232D01*
X12274Y9246D01*
X12253Y9255D01*
X12230Y9258D01*
X12207Y9255D01*
X12186Y9246D01*
X12168Y9232D01*
X12154Y9215D01*
X12150Y9215D01*
X12142Y9218D01*
Y9374D01*
X12150Y9378D01*
X12154Y9378D01*
X12168Y9361D01*
X12186Y9347D01*
X12207Y9338D01*
X12230Y9335D01*
X12253Y9338D01*
X12271Y9346D01*
X12350Y9267D01*
X12359Y9261D01*
X12369Y9259D01*
X12438D01*
X12441Y9246D01*
X12440Y9246D01*
X12422Y9232D01*
X12407Y9214D01*
X12399Y9192D01*
X12396Y9169D01*
X12399Y9147D01*
X12407Y9125D01*
X12422Y9107D01*
X12440Y9093D01*
X12461Y9084D01*
X12484Y9081D01*
X12507Y9084D01*
X12528Y9093D01*
X12547Y9107D01*
X12561Y9125D01*
X12570Y9147D01*
X12573Y9169D01*
X12570Y9192D01*
X12561Y9214D01*
X12547Y9232D01*
X12528Y9246D01*
X12528Y9246D01*
X12530Y9259D01*
X12692D01*
X12695Y9246D01*
X12694Y9246D01*
X12676Y9232D01*
X12661Y9214D01*
X12653Y9192D01*
X12650Y9169D01*
X12653Y9147D01*
X12661Y9125D01*
X12676Y9107D01*
X12694Y9093D01*
X12715Y9084D01*
X12738Y9081D01*
X12761Y9084D01*
X12782Y9093D01*
X12801Y9107D01*
X12815Y9125D01*
X12824Y9147D01*
X12827Y9169D01*
X12824Y9192D01*
X12815Y9214D01*
X12801Y9232D01*
X12782Y9246D01*
X12782Y9246D01*
X12784Y9259D01*
X12946D01*
X12949Y9246D01*
X12948Y9246D01*
X12930Y9232D01*
X12915Y9214D01*
X12907Y9192D01*
X12904Y9169D01*
X12907Y9147D01*
X12915Y9125D01*
X12930Y9107D01*
X12948Y9093D01*
X12969Y9084D01*
X12992Y9081D01*
X13015Y9084D01*
X13036Y9093D01*
X13055Y9107D01*
X13069Y9125D01*
X13078Y9147D01*
X13081Y9169D01*
X13078Y9192D01*
X13069Y9214D01*
X13055Y9232D01*
X13036Y9246D01*
X13036Y9246D01*
X13038Y9259D01*
X13106D01*
X13116Y9261D01*
X13125Y9267D01*
X13137Y9279D01*
X13143Y9288D01*
X13145Y9298D01*
Y9540D01*
X13150Y9545D01*
X13530D01*
X13552Y9523D01*
X13547Y9511D01*
X13412D01*
Y9372D01*
X13393Y9353D01*
X13387Y9344D01*
X13385Y9335D01*
Y9296D01*
X13355Y9265D01*
X13349Y9257D01*
X13347Y9247D01*
Y8479D01*
X10812Y5944D01*
X10800Y5949D01*
X10780Y5952D01*
X10760Y5949D01*
X10741Y5942D01*
X10725Y5929D01*
X10713Y5913D01*
X10706Y5895D01*
X10703Y5875D01*
X10706Y5855D01*
X10713Y5837D01*
X10725Y5821D01*
X10741Y5808D01*
X10760Y5801D01*
X10780Y5798D01*
X10800Y5801D01*
X10818Y5808D01*
X10834Y5821D01*
X10846Y5837D01*
X10854Y5855D01*
X10857Y5875D01*
X10854Y5895D01*
X10849Y5907D01*
X13391Y8450D01*
X13397Y8458D01*
X13399Y8468D01*
Y9225D01*
X13400Y9225D01*
X13412Y9218D01*
Y9082D01*
X13576D01*
Y8421D01*
X12522Y7367D01*
X12516Y7358D01*
X12514Y7348D01*
Y6719D01*
X12501Y6715D01*
X12492Y6726D01*
X12475Y6740D01*
X12455Y6748D01*
X12433Y6751D01*
X12412Y6748D01*
X12392Y6740D01*
X12374Y6726D01*
X12361Y6709D01*
X12353Y6689D01*
X12350Y6668D01*
X12353Y6646D01*
X12361Y6626D01*
X12374Y6609D01*
X12389Y6597D01*
Y6371D01*
X12379Y6362D01*
X12370Y6363D01*
X12350Y6361D01*
X12331Y6353D01*
X12315Y6341D01*
X12303Y6325D01*
X12296Y6306D01*
X12293Y6287D01*
X12296Y6267D01*
X12303Y6248D01*
X12315Y6232D01*
X12331Y6220D01*
X12350Y6212D01*
X12370Y6210D01*
X12390Y6212D01*
X12408Y6220D01*
X12424Y6232D01*
X12436Y6248D01*
X12444Y6267D01*
X12447Y6287D01*
X12445Y6299D01*
X12464Y6319D01*
X12474Y6333D01*
X12476Y6344D01*
X12478Y6345D01*
X12490Y6348D01*
X12502Y6339D01*
X12520Y6332D01*
X12540Y6329D01*
X12560Y6332D01*
X12578Y6339D01*
X12594Y6352D01*
X12600Y6359D01*
X12613Y6355D01*
Y6201D01*
X12611Y6201D01*
X12595Y6188D01*
X12583Y6173D01*
X12575Y6154D01*
X12572Y6134D01*
X12575Y6114D01*
X12583Y6096D01*
X12595Y6080D01*
X12611Y6068D01*
X12629Y6060D01*
X12631Y6060D01*
X12633Y6055D01*
X12634Y6046D01*
X12620Y6036D01*
X12608Y6020D01*
X12600Y6002D01*
X12598Y5982D01*
X12600Y5962D01*
X12608Y5943D01*
X12620Y5927D01*
X12636Y5915D01*
X12655Y5907D01*
X12675Y5905D01*
X12694Y5907D01*
X12713Y5915D01*
X12729Y5927D01*
X12741Y5943D01*
X12749Y5962D01*
X12751Y5982D01*
X12750Y5995D01*
X12985Y6230D01*
X12995Y6244D01*
X12998Y6261D01*
Y6553D01*
X13008Y6566D01*
X13016Y6584D01*
X13018Y6604D01*
X13016Y6624D01*
X13008Y6642D01*
X12996Y6658D01*
X12980Y6671D01*
X12961Y6678D01*
X12941Y6681D01*
X12921Y6678D01*
X12903Y6671D01*
X12887Y6658D01*
X12875Y6642D01*
X12867Y6624D01*
X12864Y6604D01*
X12867Y6584D01*
X12875Y6566D01*
X12887Y6550D01*
X12903Y6537D01*
X12910Y6534D01*
Y6279D01*
X12865Y6234D01*
X12851Y6238D01*
X12850Y6246D01*
X12841Y6268D01*
X12827Y6286D01*
X12808Y6301D01*
X12787Y6310D01*
X12776Y6311D01*
Y6223D01*
X12751D01*
Y6311D01*
X12740Y6310D01*
X12719Y6301D01*
X12712Y6296D01*
X12701Y6301D01*
Y6589D01*
X12716Y6595D01*
X12734Y6609D01*
X12747Y6626D01*
X12755Y6646D01*
X12758Y6668D01*
X12755Y6689D01*
X12747Y6709D01*
X12734Y6726D01*
X12716Y6740D01*
X12696Y6748D01*
X12675Y6751D01*
X12653Y6748D01*
X12633Y6740D01*
X12616Y6726D01*
X12602Y6709D01*
X12594Y6689D01*
X12591Y6668D01*
X12594Y6646D01*
X12602Y6626D01*
X12613Y6612D01*
Y6457D01*
X12600Y6453D01*
X12594Y6460D01*
X12578Y6472D01*
X12566Y6478D01*
Y7337D01*
X13620Y8392D01*
X13626Y8400D01*
X13628Y8410D01*
Y9510D01*
X13626Y9520D01*
X13620Y9528D01*
X13559Y9589D01*
X13551Y9595D01*
X13541Y9597D01*
D02*
G37*
G36*
X12738Y9512D02*
X12715Y9509D01*
X12694Y9500D01*
X12676Y9486D01*
X12661Y9468D01*
X12653Y9446D01*
X12650Y9423D01*
X12653Y9401D01*
X12661Y9379D01*
X12676Y9361D01*
X12694Y9347D01*
X12715Y9338D01*
X12738Y9335D01*
X12761Y9338D01*
X12782Y9347D01*
X12801Y9361D01*
X12815Y9379D01*
X12824Y9401D01*
X12827Y9423D01*
X12824Y9446D01*
X12815Y9468D01*
X12801Y9486D01*
X12782Y9500D01*
X12761Y9509D01*
X12738Y9512D01*
D02*
G37*
G36*
X10046D02*
X10023Y9509D01*
X10001Y9500D01*
X9983Y9486D01*
X9969Y9468D01*
X9960Y9446D01*
X9957Y9423D01*
X9960Y9401D01*
X9969Y9379D01*
X9983Y9361D01*
X10001Y9347D01*
X10023Y9338D01*
X10046Y9335D01*
X10069Y9338D01*
X10090Y9347D01*
X10108Y9361D01*
X10122Y9379D01*
X10131Y9401D01*
X10134Y9423D01*
X10131Y9446D01*
X10122Y9468D01*
X10108Y9486D01*
X10090Y9500D01*
X10069Y9509D01*
X10046Y9512D01*
D02*
G37*
G36*
X11403Y9511D02*
X11228D01*
Y9336D01*
X11251D01*
X11256Y9324D01*
X11243Y9311D01*
X10199D01*
X10189Y9309D01*
X10181Y9303D01*
X10154Y9277D01*
X10149Y9268D01*
X10147Y9258D01*
Y9094D01*
X9710Y8657D01*
X9704Y8648D01*
X9702Y8639D01*
Y8324D01*
X9690Y8319D01*
X9674Y8307D01*
X9662Y8291D01*
X9658Y8282D01*
X9645Y8284D01*
Y8515D01*
X9684D01*
Y8681D01*
X9518D01*
Y8515D01*
X9557D01*
Y8077D01*
X9558Y8071D01*
X9557Y8067D01*
X9554Y8047D01*
X9557Y8028D01*
X9563Y8013D01*
X9560Y8011D01*
X9552Y8006D01*
X9538Y8017D01*
X9519Y8024D01*
X9500Y8027D01*
X9498Y8027D01*
X9328Y8197D01*
Y8637D01*
X9338Y8645D01*
X9350Y8661D01*
X9358Y8680D01*
X9361Y8700D01*
X9358Y8719D01*
X9350Y8738D01*
X9338Y8754D01*
X9322Y8766D01*
X9304Y8774D01*
X9284Y8776D01*
X9264Y8774D01*
X9245Y8766D01*
X9229Y8754D01*
X9217Y8738D01*
X9209Y8719D01*
X9207Y8700D01*
X9209Y8680D01*
X9217Y8661D01*
X9229Y8645D01*
X9240Y8637D01*
Y8179D01*
X9243Y8162D01*
X9253Y8148D01*
X9427Y7973D01*
X9425Y7970D01*
X9423Y7950D01*
X9425Y7930D01*
X9433Y7912D01*
X9445Y7896D01*
X9461Y7884D01*
X9480Y7876D01*
X9500Y7873D01*
X9519Y7876D01*
X9538Y7884D01*
X9554Y7896D01*
X9566Y7912D01*
X9574Y7930D01*
X9576Y7950D01*
X9574Y7970D01*
X9568Y7985D01*
X9570Y7987D01*
X9579Y7991D01*
X9593Y7981D01*
X9611Y7973D01*
X9631Y7971D01*
X9651Y7973D01*
X9669Y7981D01*
X9685Y7993D01*
X9698Y8009D01*
X9705Y8028D01*
X9708Y8047D01*
X9705Y8067D01*
X9698Y8086D01*
X9685Y8102D01*
X9669Y8114D01*
X9651Y8122D01*
X9645Y8122D01*
Y8220D01*
X9658Y8223D01*
X9662Y8214D01*
X9674Y8198D01*
X9690Y8186D01*
X9708Y8178D01*
X9728Y8176D01*
X9748Y8178D01*
X9767Y8186D01*
X9783Y8198D01*
X9795Y8214D01*
X9799Y8225D01*
X9812Y8223D01*
X9815Y8213D01*
X9824Y8198D01*
X9838Y8189D01*
X9855Y8186D01*
X9865Y8187D01*
X9881Y8181D01*
X9900Y8178D01*
X9920Y8181D01*
X9939Y8188D01*
X9955Y8201D01*
X9963Y8211D01*
X9977Y8209D01*
X9979Y8204D01*
X9991Y8188D01*
X10007Y8176D01*
X10026Y8168D01*
X10046Y8165D01*
X10066Y8168D01*
X10084Y8176D01*
X10100Y8188D01*
X10112Y8204D01*
X10120Y8222D01*
X10121Y8230D01*
X10140Y8249D01*
X10150Y8264D01*
X10153Y8280D01*
Y8527D01*
X10168Y8539D01*
X10181Y8556D01*
X10190Y8576D01*
X10193Y8598D01*
X10190Y8619D01*
X10181Y8640D01*
X10168Y8657D01*
X10151Y8670D01*
X10131Y8678D01*
X10109Y8681D01*
X10088Y8678D01*
X10067Y8670D01*
X10050Y8657D01*
X10037Y8640D01*
X10029Y8619D01*
X10026Y8598D01*
X10029Y8576D01*
X10037Y8556D01*
X10050Y8539D01*
X10065Y8527D01*
Y8326D01*
X10056Y8318D01*
X10046Y8319D01*
X10026Y8317D01*
X10007Y8309D01*
X9991Y8297D01*
X9984Y8287D01*
X9969Y8289D01*
X9967Y8293D01*
X9955Y8309D01*
X9939Y8322D01*
X9920Y8329D01*
X9900Y8332D01*
X9899Y8333D01*
Y8527D01*
X9914Y8539D01*
X9927Y8556D01*
X9936Y8576D01*
X9939Y8598D01*
X9936Y8619D01*
X9927Y8640D01*
X9914Y8657D01*
X9897Y8670D01*
X9877Y8678D01*
X9855Y8681D01*
X9834Y8678D01*
X9813Y8670D01*
X9807Y8680D01*
X10191Y9065D01*
X10197Y9073D01*
X10199Y9083D01*
Y9248D01*
X10210Y9259D01*
X10254D01*
X10256Y9246D01*
X10255Y9246D01*
X10237Y9232D01*
X10223Y9214D01*
X10214Y9192D01*
X10211Y9169D01*
X10214Y9147D01*
X10223Y9125D01*
X10237Y9107D01*
X10255Y9093D01*
X10277Y9084D01*
X10300Y9081D01*
X10323Y9084D01*
X10344Y9093D01*
X10362Y9107D01*
X10376Y9125D01*
X10385Y9147D01*
X10388Y9169D01*
X10385Y9192D01*
X10376Y9214D01*
X10362Y9232D01*
X10344Y9246D01*
X10343Y9246D01*
X10346Y9259D01*
X10508D01*
X10510Y9246D01*
X10509Y9246D01*
X10491Y9232D01*
X10477Y9214D01*
X10468Y9192D01*
X10465Y9169D01*
X10468Y9147D01*
X10477Y9125D01*
X10491Y9107D01*
X10509Y9093D01*
X10531Y9084D01*
X10554Y9081D01*
X10577Y9084D01*
X10598Y9093D01*
X10616Y9107D01*
X10630Y9125D01*
X10639Y9147D01*
X10642Y9169D01*
X10639Y9192D01*
X10630Y9214D01*
X10616Y9232D01*
X10598Y9246D01*
X10597Y9246D01*
X10600Y9259D01*
X10762D01*
X10764Y9246D01*
X10763Y9246D01*
X10745Y9232D01*
X10731Y9214D01*
X10722Y9192D01*
X10719Y9169D01*
X10722Y9147D01*
X10731Y9125D01*
X10745Y9107D01*
X10763Y9093D01*
X10785Y9084D01*
X10808Y9081D01*
X10831Y9084D01*
X10852Y9093D01*
X10870Y9107D01*
X10884Y9125D01*
X10893Y9147D01*
X10896Y9169D01*
X10893Y9192D01*
X10884Y9214D01*
X10870Y9232D01*
X10852Y9246D01*
X10851Y9246D01*
X10854Y9259D01*
X11016D01*
X11018Y9246D01*
X11017Y9246D01*
X10999Y9232D01*
X10985Y9214D01*
X10976Y9192D01*
X10973Y9169D01*
X10976Y9147D01*
X10985Y9125D01*
X10999Y9107D01*
X11017Y9093D01*
X11039Y9084D01*
X11062Y9081D01*
X11085Y9084D01*
X11106Y9093D01*
X11124Y9107D01*
X11138Y9125D01*
X11147Y9147D01*
X11150Y9169D01*
X11147Y9192D01*
X11138Y9214D01*
X11124Y9232D01*
X11106Y9246D01*
X11105Y9246D01*
X11108Y9259D01*
X11216D01*
X11228Y9257D01*
X11228Y9246D01*
Y9082D01*
X11403D01*
Y9257D01*
X11279D01*
X11279Y9257D01*
X11275Y9270D01*
X11334Y9329D01*
X11339Y9336D01*
X11403D01*
Y9511D01*
D02*
G37*
G36*
X13246Y9258D02*
X13223Y9255D01*
X13202Y9246D01*
X13184Y9232D01*
X13169Y9214D01*
X13161Y9192D01*
X13158Y9169D01*
X13161Y9147D01*
X13169Y9125D01*
X13184Y9107D01*
X13202Y9093D01*
X13223Y9084D01*
X13246Y9081D01*
X13269Y9084D01*
X13290Y9093D01*
X13309Y9107D01*
X13323Y9125D01*
X13332Y9147D01*
X13335Y9169D01*
X13332Y9192D01*
X13323Y9214D01*
X13309Y9232D01*
X13290Y9246D01*
X13269Y9255D01*
X13246Y9258D01*
D02*
G37*
G36*
X10046D02*
X10023Y9255D01*
X10001Y9246D01*
X9983Y9232D01*
X9969Y9214D01*
X9960Y9192D01*
X9957Y9169D01*
X9960Y9147D01*
X9969Y9125D01*
X9983Y9107D01*
X10001Y9093D01*
X10023Y9084D01*
X10046Y9081D01*
X10069Y9084D01*
X10090Y9093D01*
X10108Y9107D01*
X10122Y9125D01*
X10131Y9147D01*
X10134Y9169D01*
X10131Y9192D01*
X10122Y9214D01*
X10108Y9232D01*
X10090Y9246D01*
X10069Y9255D01*
X10046Y9258D01*
D02*
G37*
G36*
X9030Y9512D02*
X9007Y9509D01*
X8985Y9500D01*
X8967Y9486D01*
X8953Y9468D01*
X8944Y9446D01*
X8941Y9423D01*
X8944Y9401D01*
X8953Y9379D01*
X8967Y9361D01*
X8985Y9347D01*
X9007Y9338D01*
X9030Y9335D01*
X9053Y9338D01*
X9074Y9347D01*
X9092Y9361D01*
X9106Y9379D01*
X9115Y9401D01*
X9118Y9423D01*
X9115Y9446D01*
X9106Y9468D01*
X9092Y9486D01*
X9074Y9500D01*
X9053Y9509D01*
X9030Y9512D01*
D02*
G37*
G36*
X9792D02*
X9769Y9509D01*
X9747Y9500D01*
X9729Y9486D01*
X9715Y9468D01*
X9706Y9446D01*
X9703Y9423D01*
X9706Y9401D01*
X9715Y9379D01*
X9729Y9361D01*
X9747Y9347D01*
X9769Y9338D01*
X9792Y9335D01*
X9815Y9338D01*
X9836Y9347D01*
X9854Y9361D01*
X9868Y9379D01*
X9877Y9401D01*
X9880Y9423D01*
X9877Y9446D01*
X9868Y9468D01*
X9854Y9486D01*
X9836Y9500D01*
X9815Y9509D01*
X9792Y9512D01*
D02*
G37*
G36*
X9538D02*
X9515Y9509D01*
X9493Y9500D01*
X9475Y9486D01*
X9461Y9468D01*
X9452Y9446D01*
X9449Y9423D01*
X9452Y9401D01*
X9461Y9379D01*
X9475Y9361D01*
X9493Y9347D01*
X9515Y9338D01*
X9538Y9335D01*
X9561Y9338D01*
X9582Y9347D01*
X9600Y9361D01*
X9614Y9379D01*
X9623Y9401D01*
X9626Y9423D01*
X9623Y9446D01*
X9614Y9468D01*
X9600Y9486D01*
X9582Y9500D01*
X9561Y9509D01*
X9538Y9512D01*
D02*
G37*
G36*
X9284D02*
X9261Y9509D01*
X9239Y9500D01*
X9221Y9486D01*
X9207Y9468D01*
X9198Y9446D01*
X9195Y9423D01*
X9198Y9401D01*
X9207Y9379D01*
X9221Y9361D01*
X9239Y9347D01*
X9261Y9338D01*
X9284Y9335D01*
X9307Y9338D01*
X9328Y9347D01*
X9346Y9361D01*
X9360Y9379D01*
X9369Y9401D01*
X9372Y9423D01*
X9369Y9446D01*
X9360Y9468D01*
X9346Y9486D01*
X9328Y9500D01*
X9307Y9509D01*
X9284Y9512D01*
D02*
G37*
G36*
X8509Y8382D02*
Y8280D01*
X8611D01*
X8609Y8298D01*
X8597Y8326D01*
X8579Y8350D01*
X8554Y8369D01*
X8526Y8380D01*
X8509Y8382D01*
D02*
G37*
G36*
X10138Y7685D02*
X10096D01*
Y7643D01*
X10105Y7645D01*
X10124Y7657D01*
X10136Y7676D01*
X10138Y7685D01*
D02*
G37*
G36*
X9843D02*
X9801D01*
X9803Y7676D01*
X9815Y7657D01*
X9834Y7645D01*
X9843Y7643D01*
Y7685D01*
D02*
G37*
G36*
X11099Y7696D02*
X11024D01*
Y7621D01*
X11034Y7622D01*
X11056Y7631D01*
X11074Y7645D01*
X11089Y7664D01*
X11098Y7686D01*
X11099Y7696D01*
D02*
G37*
G36*
X12141Y7685D02*
X12100D01*
X12102Y7676D01*
X12114Y7657D01*
X12132Y7645D01*
X12141Y7643D01*
Y7685D01*
D02*
G37*
G36*
X11024Y7797D02*
Y7722D01*
X11099D01*
X11098Y7732D01*
X11089Y7754D01*
X11074Y7772D01*
X11056Y7787D01*
X11034Y7796D01*
X11024Y7797D01*
D02*
G37*
G36*
X10998D02*
X10988Y7796D01*
X10966Y7787D01*
X10947Y7772D01*
X10933Y7754D01*
X10924Y7732D01*
X10923Y7722D01*
X10998D01*
Y7797D01*
D02*
G37*
G36*
X12436Y7685D02*
X12395D01*
Y7643D01*
X12404Y7645D01*
X12422Y7657D01*
X12435Y7676D01*
X12436Y7685D01*
D02*
G37*
G36*
X10998Y7696D02*
X10923D01*
X10924Y7686D01*
X10933Y7664D01*
X10947Y7645D01*
X10966Y7631D01*
X10988Y7622D01*
X10998Y7621D01*
Y7696D01*
D02*
G37*
G36*
X7779Y7601D02*
X7563D01*
Y7385D01*
X7779D01*
Y7601D01*
D02*
G37*
G36*
X10439Y7429D02*
Y7353D01*
X10515D01*
X10513Y7364D01*
X10504Y7385D01*
X10490Y7404D01*
X10472Y7418D01*
X10450Y7427D01*
X10439Y7429D01*
D02*
G37*
G36*
X10414D02*
X10403Y7427D01*
X10382Y7418D01*
X10363Y7404D01*
X10349Y7385D01*
X10340Y7364D01*
X10339Y7353D01*
X10414D01*
Y7429D01*
D02*
G37*
G36*
X8484Y7582D02*
X8382D01*
X8384Y7564D01*
X8395Y7536D01*
X8414Y7512D01*
X8438Y7494D01*
X8466Y7482D01*
X8484Y7480D01*
Y7582D01*
D02*
G37*
G36*
X8509Y7709D02*
Y7607D01*
X8611D01*
X8609Y7625D01*
X8597Y7653D01*
X8579Y7677D01*
X8554Y7695D01*
X8526Y7707D01*
X8509Y7709D01*
D02*
G37*
G36*
X8484D02*
X8466Y7707D01*
X8438Y7695D01*
X8414Y7677D01*
X8395Y7653D01*
X8384Y7625D01*
X8382Y7607D01*
X8484D01*
Y7709D01*
D02*
G37*
G36*
X8611Y7582D02*
X8509D01*
Y7480D01*
X8526Y7482D01*
X8554Y7494D01*
X8579Y7512D01*
X8597Y7536D01*
X8609Y7564D01*
X8611Y7582D01*
D02*
G37*
G36*
X8599Y8116D02*
X8394D01*
Y7911D01*
X8599D01*
Y8116D01*
D02*
G37*
G36*
X9233Y8114D02*
Y8039D01*
X9308D01*
X9307Y8050D01*
X9298Y8071D01*
X9284Y8090D01*
X9265Y8104D01*
X9243Y8113D01*
X9233Y8114D01*
D02*
G37*
G36*
X12649Y8681D02*
X12628Y8678D01*
X12607Y8670D01*
X12590Y8657D01*
X12577Y8640D01*
X12569Y8619D01*
X12566Y8598D01*
X12569Y8576D01*
X12577Y8556D01*
X12590Y8539D01*
X12605Y8527D01*
Y8139D01*
X12604Y8139D01*
X12585Y8131D01*
X12569Y8119D01*
X12557Y8103D01*
X12550Y8084D01*
X12547Y8064D01*
X12548Y8055D01*
X12536Y8049D01*
X12503Y8083D01*
X12488Y8092D01*
X12471Y8096D01*
X12103D01*
X12086Y8092D01*
X12072Y8083D01*
X12017Y8028D01*
X12005Y8034D01*
X12007Y8047D01*
X12004Y8067D01*
X11996Y8086D01*
X11984Y8102D01*
X11968Y8114D01*
X11950Y8122D01*
X11944Y8122D01*
Y8515D01*
X11983D01*
Y8681D01*
X11817D01*
Y8515D01*
X11856D01*
Y8077D01*
X11857Y8071D01*
X11855Y8067D01*
X11853Y8047D01*
X11855Y8028D01*
X11863Y8009D01*
X11865Y8007D01*
X11857Y7995D01*
X11841Y7993D01*
X11822Y7986D01*
X11806Y7973D01*
X11794Y7957D01*
X11786Y7939D01*
X11784Y7919D01*
X11786Y7899D01*
X11794Y7881D01*
X11806Y7865D01*
X11822Y7852D01*
X11841Y7845D01*
X11861Y7842D01*
X11880Y7845D01*
X11899Y7852D01*
X11915Y7865D01*
X11923Y7875D01*
X11970D01*
X11987Y7878D01*
X12001Y7888D01*
X12121Y8008D01*
X12453D01*
X12618Y7843D01*
X12632Y7833D01*
X12649Y7830D01*
X12666Y7833D01*
X12680Y7843D01*
X12690Y7857D01*
X12693Y7874D01*
X12692Y7880D01*
X13049Y8237D01*
X13058Y8251D01*
X13062Y8268D01*
Y8498D01*
X13072Y8505D01*
X13084Y8521D01*
X13092Y8540D01*
X13094Y8560D01*
X13092Y8580D01*
X13084Y8598D01*
X13072Y8614D01*
X13056Y8626D01*
X13037Y8634D01*
X13018Y8637D01*
X12998Y8634D01*
X12979Y8626D01*
X12963Y8614D01*
X12951Y8598D01*
X12943Y8580D01*
X12941Y8560D01*
X12943Y8540D01*
X12951Y8521D01*
X12963Y8505D01*
X12973Y8498D01*
Y8286D01*
X12636Y7949D01*
X12609Y7977D01*
X12615Y7989D01*
X12624Y7988D01*
X12644Y7990D01*
X12662Y7998D01*
X12678Y8010D01*
X12690Y8026D01*
X12698Y8045D01*
X12701Y8064D01*
X12698Y8084D01*
X12693Y8096D01*
Y8527D01*
X12708Y8539D01*
X12721Y8556D01*
X12730Y8576D01*
X12733Y8598D01*
X12730Y8619D01*
X12721Y8640D01*
X12708Y8657D01*
X12691Y8670D01*
X12671Y8678D01*
X12649Y8681D01*
D02*
G37*
G36*
X12370Y7980D02*
X12361Y7978D01*
X12343Y7966D01*
X12332Y7951D01*
X12329Y7950D01*
X12321D01*
X12318Y7951D01*
X12308Y7966D01*
X12290Y7978D01*
X12281Y7980D01*
Y7926D01*
X12256D01*
Y7980D01*
X12247Y7978D01*
X12228Y7966D01*
X12218Y7951D01*
X12215Y7950D01*
X12207D01*
X12204Y7951D01*
X12194Y7966D01*
X12176Y7978D01*
X12167Y7980D01*
Y7926D01*
X12154D01*
Y7913D01*
X12100D01*
X12102Y7904D01*
X12114Y7886D01*
X12129Y7876D01*
X12130Y7873D01*
Y7865D01*
X12129Y7862D01*
X12114Y7852D01*
X12102Y7833D01*
X12100Y7824D01*
X12154D01*
Y7799D01*
X12100D01*
X12102Y7790D01*
X12114Y7772D01*
X12129Y7762D01*
X12130Y7759D01*
Y7751D01*
X12129Y7747D01*
X12114Y7737D01*
X12102Y7719D01*
X12100Y7710D01*
X12154D01*
Y7697D01*
X12167D01*
Y7643D01*
X12176Y7645D01*
X12194Y7657D01*
X12204Y7673D01*
X12207Y7673D01*
X12215D01*
X12218Y7673D01*
X12228Y7657D01*
X12247Y7645D01*
X12256Y7643D01*
Y7697D01*
X12281D01*
Y7643D01*
X12290Y7645D01*
X12308Y7657D01*
X12318Y7673D01*
X12321Y7673D01*
X12329D01*
X12332Y7673D01*
X12343Y7657D01*
X12361Y7645D01*
X12370Y7643D01*
Y7697D01*
X12382D01*
Y7710D01*
X12436D01*
X12435Y7719D01*
X12422Y7737D01*
X12407Y7747D01*
X12406Y7751D01*
Y7759D01*
X12407Y7762D01*
X12422Y7772D01*
X12435Y7790D01*
X12436Y7799D01*
X12382D01*
Y7824D01*
X12436D01*
X12435Y7833D01*
X12422Y7852D01*
X12407Y7862D01*
X12406Y7865D01*
Y7873D01*
X12407Y7876D01*
X12422Y7886D01*
X12435Y7904D01*
X12436Y7913D01*
X12382D01*
Y7926D01*
X12370D01*
Y7980D01*
D02*
G37*
G36*
X9207Y8114D02*
X9197Y8113D01*
X9175Y8104D01*
X9157Y8090D01*
X9143Y8071D01*
X9134Y8050D01*
X9132Y8039D01*
X9207D01*
Y8114D01*
D02*
G37*
G36*
X12154Y8681D02*
X12132Y8678D01*
X12112Y8670D01*
X12095Y8657D01*
X12082Y8640D01*
X12073Y8619D01*
X12070Y8598D01*
X12073Y8576D01*
X12082Y8556D01*
X12095Y8539D01*
X12110Y8527D01*
Y8294D01*
X12100Y8281D01*
X12092Y8262D01*
X12090Y8242D01*
X12092Y8222D01*
X12100Y8204D01*
X12112Y8188D01*
X12128Y8176D01*
X12147Y8168D01*
X12167Y8165D01*
X12186Y8168D01*
X12205Y8176D01*
X12221Y8188D01*
X12233Y8204D01*
X12241Y8222D01*
X12243Y8242D01*
X12241Y8262D01*
X12233Y8281D01*
X12221Y8297D01*
X12205Y8309D01*
X12198Y8312D01*
Y8527D01*
X12213Y8539D01*
X12226Y8556D01*
X12234Y8576D01*
X12237Y8598D01*
X12234Y8619D01*
X12226Y8640D01*
X12213Y8657D01*
X12196Y8670D01*
X12175Y8678D01*
X12154Y8681D01*
D02*
G37*
G36*
X8484Y8382D02*
X8466Y8380D01*
X8438Y8369D01*
X8414Y8350D01*
X8395Y8326D01*
X8384Y8298D01*
X8382Y8280D01*
X8484D01*
Y8382D01*
D02*
G37*
G36*
Y8255D02*
X8382D01*
X8384Y8238D01*
X8395Y8210D01*
X8414Y8185D01*
X8438Y8167D01*
X8466Y8155D01*
X8484Y8153D01*
Y8255D01*
D02*
G37*
G36*
X8611D02*
X8509D01*
Y8153D01*
X8526Y8155D01*
X8554Y8167D01*
X8579Y8185D01*
X8597Y8210D01*
X8609Y8238D01*
X8611Y8255D01*
D02*
G37*
G36*
X9843Y7980D02*
X9834Y7978D01*
X9815Y7966D01*
X9803Y7948D01*
X9801Y7939D01*
X9843D01*
Y7980D01*
D02*
G37*
G36*
X9308Y8014D02*
X9233D01*
Y7938D01*
X9243Y7940D01*
X9265Y7949D01*
X9284Y7963D01*
X9298Y7982D01*
X9307Y8003D01*
X9308Y8014D01*
D02*
G37*
G36*
X9207D02*
X9132D01*
X9134Y8003D01*
X9143Y7982D01*
X9157Y7963D01*
X9175Y7949D01*
X9197Y7940D01*
X9207Y7938D01*
Y8014D01*
D02*
G37*
G36*
X10096Y7980D02*
Y7939D01*
X10138D01*
X10136Y7948D01*
X10124Y7966D01*
X10105Y7978D01*
X10096Y7980D01*
D02*
G37*
G36*
X12395D02*
Y7939D01*
X12436D01*
X12435Y7948D01*
X12422Y7966D01*
X12404Y7978D01*
X12395Y7980D01*
D02*
G37*
G36*
X10071D02*
X10062Y7978D01*
X10044Y7966D01*
X10034Y7951D01*
X10031Y7950D01*
X10023D01*
X10020Y7951D01*
X10009Y7966D01*
X9991Y7978D01*
X9982Y7980D01*
Y7926D01*
X9957D01*
Y7980D01*
X9948Y7978D01*
X9930Y7966D01*
X9919Y7951D01*
X9916Y7950D01*
X9908D01*
X9905Y7951D01*
X9895Y7966D01*
X9877Y7978D01*
X9868Y7980D01*
Y7926D01*
X9855D01*
Y7913D01*
X9801D01*
X9803Y7904D01*
X9815Y7886D01*
X9830Y7876D01*
X9831Y7873D01*
Y7865D01*
X9830Y7862D01*
X9815Y7852D01*
X9803Y7833D01*
X9801Y7824D01*
X9855D01*
Y7799D01*
X9801D01*
X9803Y7790D01*
X9815Y7772D01*
X9830Y7762D01*
X9831Y7759D01*
Y7751D01*
X9830Y7747D01*
X9815Y7737D01*
X9803Y7719D01*
X9801Y7710D01*
X9855D01*
Y7697D01*
X9868D01*
Y7643D01*
X9877Y7645D01*
X9895Y7657D01*
X9905Y7673D01*
X9908Y7673D01*
X9916D01*
X9919Y7673D01*
X9930Y7657D01*
X9948Y7645D01*
X9957Y7643D01*
Y7697D01*
X9982D01*
Y7643D01*
X9991Y7645D01*
X10009Y7657D01*
X10020Y7673D01*
X10023Y7673D01*
X10031D01*
X10034Y7673D01*
X10044Y7657D01*
X10062Y7645D01*
X10071Y7643D01*
Y7697D01*
X10084D01*
Y7710D01*
X10138D01*
X10136Y7719D01*
X10124Y7737D01*
X10109Y7747D01*
X10108Y7751D01*
Y7759D01*
X10109Y7762D01*
X10124Y7772D01*
X10136Y7790D01*
X10138Y7799D01*
X10084D01*
Y7824D01*
X10138D01*
X10136Y7833D01*
X10124Y7852D01*
X10109Y7862D01*
X10108Y7865D01*
Y7873D01*
X10109Y7876D01*
X10124Y7886D01*
X10136Y7904D01*
X10138Y7913D01*
X10084D01*
Y7926D01*
X10071D01*
Y7980D01*
D02*
G37*
G36*
X12141D02*
X12132Y7978D01*
X12114Y7966D01*
X12102Y7948D01*
X12100Y7939D01*
X12141D01*
Y7980D01*
D02*
G37*
%LPD*%
G36*
X12136Y9525D02*
X12097Y9487D01*
X12092Y9479D01*
X12090Y9469D01*
Y9363D01*
X12078Y9358D01*
X12054Y9382D01*
X12062Y9401D01*
X12065Y9423D01*
X12062Y9446D01*
X12053Y9468D01*
X12039Y9486D01*
X12020Y9500D01*
X11999Y9509D01*
X11976Y9512D01*
X11953Y9509D01*
X11932Y9500D01*
X11914Y9486D01*
X11899Y9468D01*
X11891Y9446D01*
X11888Y9423D01*
X11891Y9401D01*
X11899Y9379D01*
X11914Y9361D01*
X11932Y9347D01*
X11953Y9338D01*
X11976Y9335D01*
X11999Y9338D01*
X12017Y9346D01*
X12052Y9311D01*
Y9235D01*
X12040Y9230D01*
X12039Y9232D01*
X12020Y9246D01*
X11999Y9255D01*
X11976Y9258D01*
X11953Y9255D01*
X11932Y9246D01*
X11914Y9232D01*
X11899Y9214D01*
X11891Y9192D01*
X11888Y9169D01*
X11891Y9147D01*
X11899Y9125D01*
X11914Y9107D01*
X11932Y9093D01*
X11953Y9084D01*
X11976Y9081D01*
X11999Y9084D01*
X12007Y9087D01*
X12014Y9077D01*
X11953Y9015D01*
X11796D01*
X11786Y9013D01*
X11778Y9007D01*
X10583Y7813D01*
X10437D01*
X10432Y7825D01*
X10420Y7841D01*
X10412Y7847D01*
X10412Y7852D01*
X10415Y7861D01*
X10431Y7867D01*
X10446Y7880D01*
X10459Y7896D01*
X10466Y7914D01*
X10469Y7934D01*
X10467Y7947D01*
X10501Y7980D01*
X10511Y7973D01*
X10505Y7957D01*
X10502Y7938D01*
X10505Y7918D01*
X10513Y7899D01*
X10525Y7883D01*
X10541Y7871D01*
X10559Y7863D01*
X10579Y7861D01*
X10599Y7863D01*
X10618Y7871D01*
X10633Y7883D01*
X10646Y7899D01*
X10653Y7918D01*
X10656Y7938D01*
X10653Y7957D01*
X10646Y7976D01*
X10636Y7988D01*
X11507Y8859D01*
X11512Y8867D01*
X11514Y8877D01*
Y9537D01*
X11514Y9537D01*
X12131D01*
X12136Y9525D01*
D02*
G37*
%LPC*%
G36*
X11722Y9512D02*
X11699Y9509D01*
X11678Y9500D01*
X11660Y9486D01*
X11645Y9468D01*
X11637Y9446D01*
X11634Y9423D01*
X11637Y9401D01*
X11645Y9379D01*
X11660Y9361D01*
X11678Y9347D01*
X11699Y9338D01*
X11722Y9335D01*
X11745Y9338D01*
X11766Y9347D01*
X11785Y9361D01*
X11799Y9379D01*
X11808Y9401D01*
X11811Y9423D01*
X11808Y9446D01*
X11799Y9468D01*
X11785Y9486D01*
X11766Y9500D01*
X11745Y9509D01*
X11722Y9512D01*
D02*
G37*
G36*
Y9258D02*
X11699Y9255D01*
X11678Y9246D01*
X11660Y9232D01*
X11645Y9214D01*
X11637Y9192D01*
X11634Y9169D01*
X11637Y9147D01*
X11645Y9125D01*
X11660Y9107D01*
X11678Y9093D01*
X11699Y9084D01*
X11722Y9081D01*
X11745Y9084D01*
X11766Y9093D01*
X11785Y9107D01*
X11799Y9125D01*
X11808Y9147D01*
X11811Y9169D01*
X11808Y9192D01*
X11799Y9214D01*
X11785Y9232D01*
X11766Y9246D01*
X11745Y9255D01*
X11722Y9258D01*
D02*
G37*
%LPD*%
D20*
X10833Y4470D02*
X12040D01*
X10706Y4597D02*
X10833Y4470D01*
X13106Y9285D02*
X13119Y9298D01*
Y9550D01*
X13139Y9571D01*
X13541D01*
X12369Y9285D02*
X13106D01*
X10579Y7938D02*
Y7943D01*
X10566Y7955D02*
X10579Y7943D01*
X10366Y7787D02*
X10593D01*
X11796Y8989D01*
X10199Y9285D02*
X11253D01*
X10173Y9258D02*
X10199Y9285D01*
X10173Y9083D02*
Y9258D01*
X9157Y9512D02*
X9207Y9563D01*
X9157Y9347D02*
Y9512D01*
X8496Y8687D02*
X9157Y9347D01*
X9207Y9563D02*
X10922D01*
X11062Y9423D01*
X9500Y7950D02*
X9512D01*
X10770Y7130D02*
X11450Y7811D01*
X10770Y6744D02*
Y7130D01*
X10673Y6182D02*
Y7640D01*
X12116Y9083D01*
X11886Y5989D02*
X11892Y5994D01*
X12408Y5601D02*
Y5664D01*
X12751Y6223D02*
X12764D01*
X10566Y7955D02*
X11488Y8877D01*
X11557Y7811D02*
Y8230D01*
Y7429D02*
Y7811D01*
X11450D02*
X11557D01*
Y7429D02*
X11621Y7366D01*
X12649Y7874D02*
Y7899D01*
X10593Y4724D02*
X13373D01*
X9258Y6059D02*
X10593Y4724D01*
X9258Y6059D02*
Y6068D01*
X9065Y6261D02*
X9258Y6068D01*
X10603Y4597D02*
X10706D01*
X9194Y6007D02*
X10603Y4597D01*
X7658Y6007D02*
X9194D01*
X9205Y5004D02*
X9822Y4387D01*
X13036D01*
X13246Y4597D01*
X11316Y9347D02*
Y9423D01*
X11253Y9285D02*
X11316Y9347D01*
X9728Y8639D02*
X10173Y9083D01*
X9728Y8252D02*
Y8639D01*
X13373Y4724D02*
X13500Y4597D01*
X7658Y6261D02*
X9065D01*
X12116Y9083D02*
Y9469D01*
X12172Y9525D01*
X12382D01*
X12484Y9423D01*
X10780Y5875D02*
X13373Y8468D01*
Y9247D01*
X13411Y9285D01*
Y9335D01*
X13500Y9423D01*
X12230D02*
X12369Y9285D01*
X13541Y9571D02*
X13602Y9510D01*
Y8410D02*
Y9510D01*
X12540Y7348D02*
X13602Y8410D01*
X12540Y6406D02*
Y7348D01*
X11488Y8877D02*
Y9548D01*
X11504Y9563D01*
X12852D01*
X12992Y9423D01*
X11976D02*
X12078Y9322D01*
Y9103D02*
Y9322D01*
X11963Y8989D02*
X12078Y9103D01*
X11796Y8989D02*
X11963D01*
D21*
X11803Y6083D02*
X11892Y5994D01*
X9284Y8179D02*
X9512Y7950D01*
X10392Y7934D02*
X10897Y8438D01*
Y8484D01*
X9855Y8230D02*
Y8598D01*
X9881Y8255D02*
X9900D01*
X10046Y8242D02*
X10071D01*
X10109Y8280D01*
X9855Y8230D02*
X9881Y8255D01*
X12154Y8230D02*
Y8598D01*
Y8230D02*
X12167Y8242D01*
X12471Y8052D02*
X12649Y7874D01*
X12103Y8052D02*
X12471D01*
X11970Y7919D02*
X12103Y8052D01*
X11861Y7919D02*
X11970D01*
X11900Y8077D02*
X11930Y8047D01*
X11450Y8274D02*
X11595Y8419D01*
X11450Y8186D02*
Y8274D01*
X11595Y8419D02*
X11698D01*
X11011Y7747D02*
X11450Y8186D01*
X11011Y7709D02*
Y7747D01*
X12657Y6179D02*
Y6650D01*
Y6179D02*
X12675Y6161D01*
X12657Y6650D02*
X12675Y6668D01*
Y6160D02*
Y6161D01*
X9469Y7341D02*
X10427D01*
X9220Y7590D02*
X9469Y7341D01*
X9601Y8077D02*
X9631Y8047D01*
X9284Y8179D02*
Y8700D01*
X9220Y7590D02*
Y8026D01*
X13018Y8268D02*
Y8560D01*
X12649Y7899D02*
X13018Y8268D01*
X11201Y6083D02*
X11803D01*
X11925Y6147D02*
X11955Y6117D01*
X12941Y6604D02*
X12954Y6591D01*
Y6261D02*
Y6591D01*
X12675Y5982D02*
X12954Y6261D01*
X12649Y6134D02*
X12675Y6160D01*
X12370Y6287D02*
X12433Y6350D01*
X12179Y6299D02*
X12205Y6274D01*
X9144Y6604D02*
X9347Y6401D01*
X10376Y6160D02*
Y6668D01*
X9347Y6096D02*
Y6401D01*
X9627Y6147D02*
X9656Y6117D01*
X7912Y8268D02*
X8496D01*
X7683Y8496D02*
X7912Y8268D01*
X12179Y6299D02*
Y6668D01*
X9881Y6299D02*
Y6668D01*
Y6299D02*
X9906Y6274D01*
X10325Y8064D02*
X10350Y8090D01*
Y8598D01*
X10109Y8280D02*
Y8598D01*
X9601Y8077D02*
Y8598D01*
X12433Y6350D02*
Y6668D01*
X11925Y6147D02*
Y6668D01*
X10350Y6134D02*
X10376Y6160D01*
X10135Y6350D02*
Y6668D01*
X10071Y6287D02*
X10135Y6350D01*
X9627Y6147D02*
Y6668D01*
X12649Y8090D02*
Y8598D01*
X12344Y8217D02*
X12408Y8280D01*
Y8598D01*
X11900Y8077D02*
Y8598D01*
X11214Y4597D02*
X11468D01*
D22*
X10960Y4851D02*
D03*
X11214D02*
D03*
X11468D02*
D03*
X13246D02*
D03*
X12992D02*
D03*
X12738D02*
D03*
X12484D02*
D03*
X12230D02*
D03*
X11468Y4597D02*
D03*
X11214D02*
D03*
X10960D02*
D03*
X10706D02*
D03*
X10452D02*
D03*
X10198D02*
D03*
X9944D02*
D03*
X13246D02*
D03*
X12992D02*
D03*
X12738D02*
D03*
X12484D02*
D03*
X12230D02*
D03*
X11062Y9169D02*
D03*
X10808D02*
D03*
X10554D02*
D03*
X10300D02*
D03*
X10046D02*
D03*
X9792D02*
D03*
X9538D02*
D03*
X13246D02*
D03*
X12992D02*
D03*
X12738D02*
D03*
X12484D02*
D03*
X12230D02*
D03*
X11976D02*
D03*
X11722D02*
D03*
X10808Y9423D02*
D03*
X9030D02*
D03*
X9284D02*
D03*
X9538D02*
D03*
X9792D02*
D03*
X10046D02*
D03*
X10300D02*
D03*
X10554D02*
D03*
X11062D02*
D03*
X13246D02*
D03*
X12992D02*
D03*
X12738D02*
D03*
X12484D02*
D03*
X12230D02*
D03*
X11976D02*
D03*
X11722D02*
D03*
D23*
Y4851D02*
D03*
X13500D02*
D03*
X11722Y4597D02*
D03*
X13500D02*
D03*
X11316Y9169D02*
D03*
X13500D02*
D03*
X11316Y9423D02*
D03*
X13500D02*
D03*
D24*
X7671Y7493D02*
D03*
X7683Y9004D02*
D03*
D25*
X7671Y6985D02*
D03*
X7683Y8496D02*
D03*
D26*
X10376Y6668D02*
D03*
X9881D02*
D03*
X10135D02*
D03*
X12675D02*
D03*
X12179D02*
D03*
X12433D02*
D03*
X10350Y8598D02*
D03*
X9855D02*
D03*
X10109D02*
D03*
X12649D02*
D03*
X12154D02*
D03*
X12408D02*
D03*
D27*
X9627Y6668D02*
D03*
X11925D02*
D03*
X9601Y8598D02*
D03*
X11900D02*
D03*
D28*
X7658Y6261D02*
D03*
X8496Y8941D02*
D03*
Y8268D02*
D03*
Y7595D02*
D03*
D29*
X7658Y6007D02*
D03*
X8496Y8687D02*
D03*
Y8014D02*
D03*
Y7341D02*
D03*
D30*
X10579Y7938D02*
D03*
X10392Y7934D02*
D03*
X10897Y8484D02*
D03*
X10366Y7787D02*
D03*
X9500Y7950D02*
D03*
X9900Y8255D02*
D03*
X10046Y8242D02*
D03*
X12167D02*
D03*
X10770Y6744D02*
D03*
X11886Y5989D02*
D03*
X11930Y8047D02*
D03*
X12624Y8064D02*
D03*
X10935Y5220D02*
D03*
X11481Y6210D02*
D03*
X9893Y5105D02*
D03*
X9500Y6357D02*
D03*
X12764Y6223D02*
D03*
X10427Y7341D02*
D03*
X12687Y5309D02*
D03*
Y7264D02*
D03*
X10325Y5347D02*
D03*
X9631Y8047D02*
D03*
X9284Y8700D02*
D03*
X9220Y8026D02*
D03*
X11011Y7709D02*
D03*
X11698Y8419D02*
D03*
X11557Y8230D02*
D03*
X11861Y7919D02*
D03*
X13018Y8560D02*
D03*
X11201Y6083D02*
D03*
X11955Y6117D02*
D03*
X12941Y6604D02*
D03*
X12370Y6287D02*
D03*
X12205Y6274D02*
D03*
X12675Y5982D02*
D03*
X9144Y6604D02*
D03*
X9347Y6096D02*
D03*
X9656Y6117D02*
D03*
X11621Y7366D02*
D03*
X9728Y8252D02*
D03*
X10673Y6182D02*
D03*
X10780Y5875D02*
D03*
X12540Y6406D02*
D03*
X9906Y6274D02*
D03*
X10325Y8064D02*
D03*
X12649Y6134D02*
D03*
X10350D02*
D03*
X10071Y6287D02*
D03*
X12344Y8217D02*
D03*
D31*
X9205Y5004D02*
D03*
X10109Y5996D02*
D03*
Y5881D02*
D03*
Y5767D02*
D03*
X9995D02*
D03*
X9881D02*
D03*
Y5881D02*
D03*
X9995Y5996D02*
D03*
Y5881D02*
D03*
X9881Y5996D02*
D03*
X12408D02*
D03*
Y5881D02*
D03*
Y5767D02*
D03*
X12294D02*
D03*
X12179D02*
D03*
Y5881D02*
D03*
X12294Y5996D02*
D03*
Y5881D02*
D03*
X12179Y5996D02*
D03*
X10084Y7926D02*
D03*
Y7812D02*
D03*
Y7697D02*
D03*
X9969D02*
D03*
X9855D02*
D03*
Y7812D02*
D03*
X9969Y7926D02*
D03*
Y7812D02*
D03*
X9855Y7926D02*
D03*
X12382D02*
D03*
Y7812D02*
D03*
Y7697D02*
D03*
X12268D02*
D03*
X12154D02*
D03*
Y7812D02*
D03*
X12268Y7926D02*
D03*
Y7812D02*
D03*
X12154Y7926D02*
D03*
X12040Y4470D02*
D03*
M02*
