G04 Layer_Physical_Order=1*
G04 Layer_Color=255*
%FSLAX42Y42*%
%MOMM*%
G71*
G01*
G75*
%ADD10R,1.00X0.25*%
%ADD11R,0.25X1.00*%
%ADD12R,3.40X3.40*%
%ADD13R,0.90X0.80*%
%ADD14R,0.80X0.90*%
%ADD15R,4.15X1.05*%
%ADD16R,8.80X9.60*%
%ADD17R,0.70X0.90*%
%ADD18R,0.90X0.70*%
%ADD19R,1.60X3.20*%
%ADD20C,0.61*%
%ADD21C,0.25*%
%ADD22R,1.80X1.80*%
%ADD23C,1.80*%
%ADD24C,1.40*%
%ADD25R,1.40X1.40*%
%ADD26C,1.90*%
%ADD27R,1.90X1.90*%
%ADD28C,1.50*%
%ADD29R,1.50X1.50*%
%ADD30C,0.70*%
%ADD31C,0.60*%
%ADD32C,1.27*%
G36*
X14022Y9704D02*
X14021Y9703D01*
Y4343D01*
X7137D01*
X7125Y9707D01*
X7134Y9715D01*
X14017D01*
X14022Y9704D01*
D02*
G37*
%LPC*%
G36*
X9093Y5368D02*
X9036D01*
Y5320D01*
X9093D01*
Y5368D01*
D02*
G37*
G36*
X10549Y7544D02*
X10497D01*
Y7486D01*
X10549D01*
Y7544D01*
D02*
G37*
G36*
X13466Y5461D02*
X13373D01*
Y5288D01*
X13466D01*
Y5461D01*
D02*
G37*
G36*
X13348D02*
X13255D01*
Y5288D01*
X13348D01*
Y5461D01*
D02*
G37*
G36*
X10549Y7627D02*
X10497D01*
Y7569D01*
X10549D01*
Y7627D01*
D02*
G37*
G36*
X9176Y5368D02*
X9119D01*
Y5320D01*
X9176D01*
Y5368D01*
D02*
G37*
G36*
X10414Y7429D02*
X10403Y7427D01*
X10382Y7418D01*
X10372Y7410D01*
X10359Y7417D01*
Y7417D01*
X10311D01*
Y7359D01*
X10330D01*
X10335Y7353D01*
X10414D01*
Y7429D01*
D02*
G37*
G36*
X8484Y7582D02*
X8382D01*
X8384Y7564D01*
X8395Y7536D01*
X8414Y7512D01*
X8438Y7494D01*
X8466Y7482D01*
X8484Y7480D01*
Y7582D01*
D02*
G37*
G36*
X10471Y7544D02*
X10419D01*
Y7486D01*
X10471D01*
Y7544D01*
D02*
G37*
G36*
X8611Y7582D02*
X8509D01*
Y7480D01*
X8526Y7482D01*
X8554Y7494D01*
X8579Y7512D01*
X8597Y7536D01*
X8609Y7564D01*
X8611Y7582D01*
D02*
G37*
G36*
X8484Y7709D02*
X8466Y7707D01*
X8438Y7695D01*
X8414Y7677D01*
X8395Y7653D01*
X8384Y7625D01*
X8382Y7607D01*
X8484D01*
Y7709D01*
D02*
G37*
G36*
Y8255D02*
X8382D01*
X8384Y8238D01*
X8395Y8210D01*
X8414Y8185D01*
X8438Y8167D01*
X8466Y8155D01*
X8484Y8153D01*
Y8255D01*
D02*
G37*
G36*
X9164Y5205D02*
X9048D01*
Y5110D01*
X8999Y5060D01*
X8987Y5065D01*
Y5069D01*
X8547D01*
Y4939D01*
X8987D01*
Y4978D01*
X9165D01*
X9171Y4969D01*
X9186Y4959D01*
X9205Y4955D01*
X9224Y4959D01*
X9239Y4969D01*
X9250Y4985D01*
X9254Y5004D01*
X9250Y5022D01*
X9239Y5038D01*
X9224Y5049D01*
X9205Y5052D01*
X9186Y5049D01*
X9171Y5038D01*
X9165Y5030D01*
X9058D01*
X9053Y5041D01*
X9114Y5102D01*
X9119Y5110D01*
X9164D01*
Y5205D01*
D02*
G37*
G36*
X7671Y7094D02*
X7643Y7090D01*
X7616Y7079D01*
X7594Y7062D01*
X7577Y7039D01*
X7566Y7013D01*
X7562Y6985D01*
X7566Y6957D01*
X7577Y6931D01*
X7594Y6908D01*
X7616Y6891D01*
X7627Y6887D01*
Y6691D01*
X7386Y6450D01*
X7376Y6435D01*
X7373Y6419D01*
Y5751D01*
X7294D01*
Y4765D01*
X8200D01*
Y5751D01*
X7461D01*
Y6400D01*
X7702Y6641D01*
X7711Y6656D01*
X7715Y6673D01*
X7715Y6673D01*
Y6887D01*
X7725Y6891D01*
X7748Y6908D01*
X7765Y6931D01*
X7776Y6957D01*
X7779Y6985D01*
X7776Y7013D01*
X7765Y7039D01*
X7748Y7062D01*
X7725Y7079D01*
X7699Y7090D01*
X7671Y7094D01*
D02*
G37*
G36*
X11810Y4939D02*
X11634D01*
Y4764D01*
X11810D01*
Y4939D01*
D02*
G37*
G36*
X13588D02*
X13412D01*
Y4764D01*
X13588D01*
Y4939D01*
D02*
G37*
G36*
X9176Y5295D02*
X9119D01*
Y5247D01*
X9176D01*
Y5295D01*
D02*
G37*
G36*
X8509Y7709D02*
Y7607D01*
X8611D01*
X8609Y7625D01*
X8597Y7653D01*
X8579Y7677D01*
X8554Y7695D01*
X8526Y7707D01*
X8509Y7709D01*
D02*
G37*
G36*
X9093Y5295D02*
X9036D01*
Y5247D01*
X9093D01*
Y5295D01*
D02*
G37*
G36*
X12675Y5296D02*
X12599D01*
X12601Y5285D01*
X12610Y5264D01*
X12624Y5245D01*
X12642Y5231D01*
X12664Y5222D01*
X12675Y5221D01*
Y5296D01*
D02*
G37*
G36*
X12775D02*
X12700D01*
Y5221D01*
X12711Y5222D01*
X12732Y5231D01*
X12751Y5245D01*
X12765Y5264D01*
X12774Y5285D01*
X12775Y5296D01*
D02*
G37*
G36*
X12874Y5613D02*
X12821D01*
Y5556D01*
X12874D01*
Y5613D01*
D02*
G37*
G36*
X7761Y6110D02*
X7555D01*
Y5904D01*
X7761D01*
Y6110D01*
D02*
G37*
G36*
X12795Y5613D02*
X12743D01*
Y5556D01*
X12795D01*
Y5613D01*
D02*
G37*
G36*
X8754Y5590D02*
X8534D01*
Y5524D01*
X8754D01*
Y5590D01*
D02*
G37*
G36*
X9000D02*
X8780D01*
Y5524D01*
X9000D01*
Y5590D01*
D02*
G37*
G36*
X8818Y6358D02*
X8725D01*
Y6185D01*
X8818D01*
Y6358D01*
D02*
G37*
G36*
X8700D02*
X8607D01*
Y6185D01*
X8700D01*
Y6358D01*
D02*
G37*
G36*
X7658Y6365D02*
X7631Y6361D01*
X7606Y6351D01*
X7585Y6334D01*
X7568Y6313D01*
X7558Y6288D01*
X7555Y6261D01*
X7558Y6234D01*
X7568Y6209D01*
X7585Y6188D01*
X7606Y6171D01*
X7631Y6161D01*
X7658Y6158D01*
X7685Y6161D01*
X7710Y6171D01*
X7731Y6188D01*
X7748Y6209D01*
X7758Y6234D01*
X7762Y6261D01*
X7758Y6288D01*
X7748Y6313D01*
X7731Y6334D01*
X7710Y6351D01*
X7685Y6361D01*
X7658Y6365D01*
D02*
G37*
G36*
X8700Y6160D02*
X8607D01*
Y5987D01*
X8700D01*
Y6160D01*
D02*
G37*
G36*
X8818D02*
X8725D01*
Y5987D01*
X8818D01*
Y6160D01*
D02*
G37*
G36*
X13466Y5659D02*
X13373D01*
Y5486D01*
X13466D01*
Y5659D01*
D02*
G37*
G36*
X12683Y5486D02*
X12635D01*
Y5429D01*
X12683D01*
Y5486D01*
D02*
G37*
G36*
X8754Y5499D02*
X8534D01*
Y5434D01*
X8754D01*
Y5499D01*
D02*
G37*
G36*
X12700Y5397D02*
Y5321D01*
X12775D01*
X12774Y5332D01*
X12765Y5353D01*
X12751Y5372D01*
X12732Y5386D01*
X12711Y5395D01*
X12700Y5397D01*
D02*
G37*
G36*
X12675D02*
X12664Y5395D01*
X12642Y5386D01*
X12624Y5372D01*
X12610Y5353D01*
X12601Y5332D01*
X12599Y5321D01*
X12675D01*
Y5397D01*
D02*
G37*
G36*
X10439Y7429D02*
Y7353D01*
X10515D01*
X10513Y7364D01*
X10504Y7385D01*
X10490Y7404D01*
X10472Y7418D01*
X10450Y7427D01*
X10439Y7429D01*
D02*
G37*
G36*
X9000Y5499D02*
X8780D01*
Y5434D01*
X9000D01*
Y5499D01*
D02*
G37*
G36*
X13348Y5659D02*
X13255D01*
Y5486D01*
X13348D01*
Y5659D01*
D02*
G37*
G36*
X10414Y7328D02*
X10339D01*
X10340Y7317D01*
X10349Y7296D01*
X10363Y7277D01*
X10382Y7263D01*
X10403Y7254D01*
X10414Y7253D01*
Y7328D01*
D02*
G37*
G36*
X10986Y7429D02*
X10893D01*
Y7257D01*
X10986D01*
Y7429D01*
D02*
G37*
G36*
X10515Y7328D02*
X10439D01*
Y7253D01*
X10450Y7254D01*
X10472Y7263D01*
X10490Y7277D01*
X10504Y7296D01*
X10513Y7317D01*
X10515Y7328D01*
D02*
G37*
G36*
X13246Y4940D02*
X13223Y4937D01*
X13202Y4928D01*
X13184Y4914D01*
X13169Y4896D01*
X13161Y4874D01*
X13158Y4851D01*
X13161Y4829D01*
X13169Y4807D01*
X13184Y4789D01*
X13202Y4775D01*
X13223Y4766D01*
X13246Y4763D01*
X13269Y4766D01*
X13290Y4775D01*
X13309Y4789D01*
X13323Y4807D01*
X13332Y4829D01*
X13335Y4851D01*
X13332Y4874D01*
X13323Y4896D01*
X13309Y4914D01*
X13290Y4928D01*
X13269Y4937D01*
X13246Y4940D01*
D02*
G37*
G36*
Y9258D02*
X13223Y9255D01*
X13202Y9246D01*
X13184Y9232D01*
X13169Y9214D01*
X13161Y9192D01*
X13158Y9169D01*
X13161Y9147D01*
X13169Y9125D01*
X13184Y9107D01*
X13202Y9093D01*
X13223Y9084D01*
X13246Y9081D01*
X13269Y9084D01*
X13290Y9093D01*
X13309Y9107D01*
X13323Y9125D01*
X13332Y9147D01*
X13335Y9169D01*
X13332Y9192D01*
X13323Y9214D01*
X13309Y9232D01*
X13290Y9246D01*
X13269Y9255D01*
X13246Y9258D01*
D02*
G37*
G36*
Y4686D02*
X13223Y4683D01*
X13202Y4674D01*
X13184Y4660D01*
X13169Y4642D01*
X13161Y4620D01*
X13158Y4597D01*
X13161Y4575D01*
X13169Y4553D01*
X13184Y4535D01*
X13202Y4521D01*
X13223Y4512D01*
X13246Y4509D01*
X13269Y4512D01*
X13290Y4521D01*
X13309Y4535D01*
X13323Y4553D01*
X13332Y4575D01*
X13335Y4597D01*
X13332Y4620D01*
X13323Y4642D01*
X13309Y4660D01*
X13290Y4674D01*
X13269Y4683D01*
X13246Y4686D01*
D02*
G37*
G36*
X13588Y9257D02*
X13412D01*
Y9082D01*
X13588D01*
Y9257D01*
D02*
G37*
G36*
X9284Y9512D02*
X9261Y9509D01*
X9239Y9500D01*
X9221Y9486D01*
X9207Y9468D01*
X9198Y9446D01*
X9195Y9423D01*
X9198Y9401D01*
X9207Y9379D01*
X9221Y9361D01*
X9239Y9347D01*
X9261Y9338D01*
X9284Y9335D01*
X9307Y9338D01*
X9328Y9347D01*
X9346Y9361D01*
X9360Y9379D01*
X9369Y9401D01*
X9372Y9423D01*
X9369Y9446D01*
X9360Y9468D01*
X9346Y9486D01*
X9328Y9500D01*
X9307Y9509D01*
X9284Y9512D01*
D02*
G37*
G36*
X9030D02*
X9007Y9509D01*
X8985Y9500D01*
X8967Y9486D01*
X8953Y9468D01*
X8944Y9446D01*
X8941Y9423D01*
X8944Y9401D01*
X8953Y9379D01*
X8967Y9361D01*
X8985Y9347D01*
X9007Y9338D01*
X9030Y9335D01*
X9053Y9338D01*
X9074Y9347D01*
X9092Y9361D01*
X9106Y9379D01*
X9115Y9401D01*
X9118Y9423D01*
X9115Y9446D01*
X9106Y9468D01*
X9092Y9486D01*
X9074Y9500D01*
X9053Y9509D01*
X9030Y9512D01*
D02*
G37*
G36*
X10808Y9258D02*
X10785Y9255D01*
X10763Y9246D01*
X10745Y9232D01*
X10731Y9214D01*
X10722Y9192D01*
X10719Y9169D01*
X10722Y9147D01*
X10731Y9125D01*
X10745Y9107D01*
X10763Y9093D01*
X10785Y9084D01*
X10808Y9081D01*
X10831Y9084D01*
X10852Y9093D01*
X10870Y9107D01*
X10884Y9125D01*
X10893Y9147D01*
X10896Y9169D01*
X10893Y9192D01*
X10884Y9214D01*
X10870Y9232D01*
X10852Y9246D01*
X10831Y9255D01*
X10808Y9258D01*
D02*
G37*
G36*
X10554D02*
X10531Y9255D01*
X10509Y9246D01*
X10491Y9232D01*
X10477Y9214D01*
X10468Y9192D01*
X10465Y9169D01*
X10468Y9147D01*
X10477Y9125D01*
X10491Y9107D01*
X10509Y9093D01*
X10531Y9084D01*
X10554Y9081D01*
X10577Y9084D01*
X10598Y9093D01*
X10616Y9107D01*
X10630Y9125D01*
X10639Y9147D01*
X10642Y9169D01*
X10639Y9192D01*
X10630Y9214D01*
X10616Y9232D01*
X10598Y9246D01*
X10577Y9255D01*
X10554Y9258D01*
D02*
G37*
G36*
X11227Y4697D02*
Y4610D01*
X11314D01*
X11312Y4624D01*
X11302Y4648D01*
X11286Y4669D01*
X11265Y4685D01*
X11240Y4695D01*
X11227Y4697D01*
D02*
G37*
G36*
X13588Y4685D02*
X13412D01*
Y4510D01*
X13588D01*
Y4685D01*
D02*
G37*
G36*
X11455Y4697D02*
X11442Y4695D01*
X11417Y4685D01*
X11396Y4669D01*
X11380Y4648D01*
X11370Y4624D01*
X11369Y4610D01*
X11455D01*
Y4697D01*
D02*
G37*
G36*
X9538Y9512D02*
X9515Y9509D01*
X9493Y9500D01*
X9475Y9486D01*
X9461Y9468D01*
X9452Y9446D01*
X9449Y9423D01*
X9452Y9401D01*
X9461Y9379D01*
X9475Y9361D01*
X9493Y9347D01*
X9515Y9338D01*
X9538Y9335D01*
X9561Y9338D01*
X9582Y9347D01*
X9600Y9361D01*
X9614Y9379D01*
X9623Y9401D01*
X9626Y9423D01*
X9623Y9446D01*
X9614Y9468D01*
X9600Y9486D01*
X9582Y9500D01*
X9561Y9509D01*
X9538Y9512D01*
D02*
G37*
G36*
X12484Y4686D02*
X12461Y4683D01*
X12440Y4674D01*
X12422Y4660D01*
X12407Y4642D01*
X12399Y4620D01*
X12396Y4597D01*
X12399Y4575D01*
X12407Y4553D01*
X12422Y4535D01*
X12440Y4521D01*
X12461Y4512D01*
X12484Y4509D01*
X12507Y4512D01*
X12528Y4521D01*
X12547Y4535D01*
X12561Y4553D01*
X12570Y4575D01*
X12573Y4597D01*
X12570Y4620D01*
X12561Y4642D01*
X12547Y4660D01*
X12528Y4674D01*
X12507Y4683D01*
X12484Y4686D01*
D02*
G37*
G36*
X12738D02*
X12715Y4683D01*
X12694Y4674D01*
X12676Y4660D01*
X12661Y4642D01*
X12653Y4620D01*
X12650Y4597D01*
X12653Y4575D01*
X12661Y4553D01*
X12676Y4535D01*
X12694Y4521D01*
X12715Y4512D01*
X12738Y4509D01*
X12761Y4512D01*
X12782Y4521D01*
X12801Y4535D01*
X12815Y4553D01*
X12824Y4575D01*
X12827Y4597D01*
X12824Y4620D01*
X12815Y4642D01*
X12801Y4660D01*
X12782Y4674D01*
X12761Y4683D01*
X12738Y4686D01*
D02*
G37*
G36*
X12230D02*
X12207Y4683D01*
X12186Y4674D01*
X12168Y4660D01*
X12153Y4642D01*
X12145Y4620D01*
X12142Y4597D01*
X12145Y4575D01*
X12153Y4553D01*
X12168Y4535D01*
X12186Y4521D01*
X12207Y4512D01*
X12230Y4509D01*
X12253Y4512D01*
X12274Y4521D01*
X12293Y4535D01*
X12307Y4553D01*
X12316Y4575D01*
X12319Y4597D01*
X12316Y4620D01*
X12307Y4642D01*
X12293Y4660D01*
X12274Y4674D01*
X12253Y4683D01*
X12230Y4686D01*
D02*
G37*
G36*
X12765Y9624D02*
X11251D01*
X11234Y9620D01*
X11220Y9611D01*
X11150Y9541D01*
X11140Y9527D01*
X11137Y9510D01*
Y9489D01*
X11125Y9485D01*
X11124Y9486D01*
X11106Y9500D01*
X11085Y9509D01*
X11062Y9512D01*
X11039Y9509D01*
X11017Y9500D01*
X10999Y9486D01*
X10985Y9468D01*
X10976Y9446D01*
X10973Y9423D01*
X10976Y9401D01*
X10985Y9379D01*
X10999Y9361D01*
X11017Y9347D01*
X11039Y9338D01*
X11062Y9335D01*
X11085Y9338D01*
X11106Y9347D01*
X11124Y9361D01*
X11125Y9362D01*
X11137Y9358D01*
Y9235D01*
X11125Y9231D01*
X11124Y9232D01*
X11106Y9246D01*
X11085Y9255D01*
X11062Y9258D01*
X11039Y9255D01*
X11017Y9246D01*
X10999Y9232D01*
X10985Y9214D01*
X10976Y9192D01*
X10973Y9169D01*
X10976Y9147D01*
X10985Y9125D01*
X10999Y9107D01*
X11017Y9093D01*
X11039Y9084D01*
X11062Y9081D01*
X11085Y9084D01*
X11106Y9093D01*
X11124Y9107D01*
X11125Y9108D01*
X11137Y9104D01*
Y9068D01*
X10967Y8898D01*
X10958Y8884D01*
X10954Y8867D01*
Y8794D01*
X9335D01*
X9318Y8791D01*
X9303Y8781D01*
X9297Y8775D01*
X9284Y8776D01*
X9264Y8774D01*
X9245Y8766D01*
X9229Y8754D01*
X9217Y8738D01*
X9209Y8719D01*
X9207Y8700D01*
X9209Y8680D01*
X9217Y8661D01*
X9229Y8645D01*
X9245Y8633D01*
X9264Y8625D01*
X9284Y8623D01*
X9304Y8625D01*
X9322Y8633D01*
X9338Y8645D01*
X9350Y8661D01*
X9358Y8680D01*
X9361Y8700D01*
X9366Y8706D01*
X10954D01*
Y8502D01*
X10922D01*
X10910Y8512D01*
X10891Y8520D01*
X10871Y8522D01*
X10851Y8520D01*
X10833Y8512D01*
X10817Y8500D01*
X10805Y8484D01*
X10797Y8465D01*
X10794Y8446D01*
X10797Y8426D01*
X10805Y8407D01*
X10817Y8391D01*
X10833Y8379D01*
X10851Y8371D01*
X10871Y8369D01*
X10891Y8371D01*
X10910Y8379D01*
X10926Y8391D01*
X10938Y8407D01*
X10941Y8414D01*
X10954D01*
Y8123D01*
X10906D01*
Y7778D01*
X10935D01*
X10942Y7765D01*
X10933Y7754D01*
X10924Y7732D01*
X10923Y7722D01*
X11011D01*
Y7696D01*
X10923D01*
X10924Y7686D01*
X10933Y7664D01*
X10947Y7645D01*
X10954Y7640D01*
X10950Y7628D01*
X10893D01*
Y7455D01*
X10998D01*
Y7442D01*
X11011D01*
Y7257D01*
X11099D01*
Y7029D01*
X10865D01*
X10853Y7042D01*
X10838Y7051D01*
X10821Y7054D01*
X10733D01*
X10716Y7051D01*
X10702Y7042D01*
X10689Y7029D01*
X9820D01*
X9760Y7090D01*
Y7230D01*
X9772Y7231D01*
Y7231D01*
X9830D01*
Y7296D01*
X9855D01*
Y7231D01*
X9913D01*
Y7295D01*
X9926Y7299D01*
X9926Y7298D01*
X10039Y7185D01*
Y7116D01*
X10154D01*
Y7212D01*
X10085D01*
X10044Y7254D01*
X10049Y7266D01*
X10154D01*
Y7288D01*
X10169D01*
X10179Y7290D01*
X10187Y7296D01*
X10229Y7338D01*
X10235Y7346D01*
X10235Y7348D01*
X10238Y7359D01*
X10286D01*
Y7429D01*
X10299D01*
Y7442D01*
X10359D01*
Y7499D01*
X10397D01*
Y7611D01*
X10410D01*
X10419Y7604D01*
Y7569D01*
X10471D01*
Y7627D01*
X10454D01*
X10449Y7639D01*
X10585Y7774D01*
X10590Y7783D01*
X10592Y7793D01*
Y7866D01*
X10605Y7871D01*
X10621Y7883D01*
X10633Y7899D01*
X10641Y7918D01*
X10643Y7938D01*
X10641Y7957D01*
X10633Y7976D01*
X10621Y7992D01*
X10605Y8004D01*
X10586Y8012D01*
X10566Y8014D01*
X10547Y8012D01*
X10528Y8004D01*
X10512Y7992D01*
X10499Y7996D01*
Y8203D01*
X10497Y8213D01*
X10492Y8221D01*
X10275Y8438D01*
X10266Y8444D01*
X10257Y8446D01*
X9360D01*
X9350Y8444D01*
X9342Y8438D01*
X9113Y8210D01*
X9107Y8201D01*
X9105Y8192D01*
Y7874D01*
X9107Y7864D01*
X9113Y7856D01*
X9189Y7779D01*
X9198Y7774D01*
X9207Y7772D01*
X9377D01*
Y7727D01*
X9424D01*
Y7712D01*
X9281Y7568D01*
X9045D01*
X9040Y7580D01*
X9056Y7595D01*
X9061Y7604D01*
X9063Y7614D01*
Y8145D01*
X9061Y8154D01*
X9056Y8163D01*
X9024Y8195D01*
Y8263D01*
X8992D01*
Y8705D01*
X9024D01*
Y8800D01*
X8908D01*
Y8705D01*
X8940D01*
Y8263D01*
X8908D01*
Y8168D01*
X8977D01*
X9011Y8134D01*
Y8113D01*
X8908D01*
Y8092D01*
X8757D01*
X8747Y8090D01*
X8738Y8084D01*
X8694Y8040D01*
X8599D01*
Y8080D01*
X8652Y8133D01*
X8657Y8141D01*
X8659Y8151D01*
Y8737D01*
X8738Y8816D01*
X10582D01*
X10592Y8818D01*
X10600Y8823D01*
X10699Y8922D01*
X10705Y8931D01*
X10707Y8941D01*
Y9286D01*
X10766Y9346D01*
X10785Y9338D01*
X10808Y9335D01*
X10831Y9338D01*
X10852Y9347D01*
X10870Y9361D01*
X10884Y9379D01*
X10893Y9401D01*
X10896Y9423D01*
X10893Y9446D01*
X10884Y9468D01*
X10870Y9486D01*
X10852Y9500D01*
X10831Y9509D01*
X10808Y9512D01*
X10785Y9509D01*
X10763Y9500D01*
X10745Y9486D01*
X10731Y9468D01*
X10722Y9446D01*
X10719Y9423D01*
X10722Y9401D01*
X10730Y9382D01*
X10662Y9315D01*
X10657Y9306D01*
X10655Y9296D01*
Y8952D01*
X10571Y8868D01*
X9024D01*
Y8950D01*
X8908D01*
Y8929D01*
X8712D01*
X8702Y8927D01*
X8694Y8921D01*
X8562Y8789D01*
X8394D01*
Y8584D01*
X8599D01*
X8608Y8575D01*
Y8332D01*
X8595Y8329D01*
X8579Y8350D01*
X8554Y8369D01*
X8526Y8380D01*
X8509Y8382D01*
Y8268D01*
Y8153D01*
X8526Y8155D01*
X8554Y8167D01*
X8579Y8185D01*
X8595Y8207D01*
X8608Y8203D01*
Y8162D01*
X8562Y8116D01*
X8394D01*
Y7911D01*
X8599D01*
Y7988D01*
X8705D01*
X8714Y7990D01*
X8723Y7995D01*
X8767Y8040D01*
X8908D01*
Y8018D01*
X9011D01*
Y7624D01*
X8977Y7590D01*
X8908D01*
Y7495D01*
X9024D01*
Y7517D01*
X9066D01*
X9240Y7343D01*
Y6313D01*
X9210Y6283D01*
X9198Y6288D01*
Y6421D01*
X9195Y6438D01*
X9185Y6452D01*
X9120Y6518D01*
X9131Y6529D01*
X9144Y6527D01*
X9164Y6530D01*
X9182Y6537D01*
X9198Y6550D01*
X9211Y6566D01*
X9218Y6584D01*
X9221Y6604D01*
X9218Y6624D01*
X9211Y6642D01*
X9198Y6658D01*
X9182Y6671D01*
X9164Y6678D01*
X9144Y6681D01*
X9124Y6678D01*
X9106Y6671D01*
X9090Y6658D01*
X9077Y6642D01*
X9070Y6624D01*
X9067Y6604D01*
X9069Y6591D01*
X9050Y6572D01*
X8868D01*
X8805Y6635D01*
Y6853D01*
X8756D01*
Y6883D01*
X8753Y6900D01*
X8751Y6902D01*
X8753Y6905D01*
X8756Y6921D01*
X8753Y6938D01*
X8743Y6953D01*
X8654Y7042D01*
X8640Y7051D01*
X8623Y7054D01*
X8009D01*
X7715Y7349D01*
Y7385D01*
X7779D01*
Y7601D01*
X7625D01*
X7578Y7648D01*
Y8416D01*
X7590Y8420D01*
X7598Y8410D01*
X7623Y8391D01*
X7652Y8379D01*
X7671Y8377D01*
Y8496D01*
Y8616D01*
X7652Y8614D01*
X7623Y8601D01*
X7598Y8582D01*
X7590Y8573D01*
X7578Y8577D01*
Y8836D01*
X7638Y8897D01*
X7791D01*
Y9112D01*
X7576D01*
Y8959D01*
X7503Y8886D01*
X7493Y8871D01*
X7490Y8854D01*
Y7630D01*
X7493Y7613D01*
X7503Y7599D01*
X7563Y7538D01*
Y7385D01*
X7627D01*
Y7330D01*
X7630Y7314D01*
X7640Y7299D01*
X7960Y6979D01*
X7974Y6970D01*
X7991Y6966D01*
X8605D01*
X8671Y6900D01*
X8668Y6883D01*
Y6853D01*
X8619D01*
Y6507D01*
X8805D01*
X8805Y6507D01*
Y6507D01*
X8814Y6501D01*
X8818Y6497D01*
X8833Y6487D01*
X8849Y6484D01*
X9029D01*
X9110Y6403D01*
Y6288D01*
X9057Y6234D01*
X9047Y6220D01*
X9044Y6203D01*
Y5540D01*
X9047Y5523D01*
X9057Y5509D01*
X9231Y5334D01*
X9245Y5325D01*
X9262Y5322D01*
X9683D01*
Y5313D01*
X9697D01*
Y4572D01*
X9700Y4555D01*
X9710Y4541D01*
X9804Y4447D01*
X9818Y4437D01*
X9835Y4434D01*
X11877D01*
X11894Y4437D01*
X11908Y4447D01*
X11944Y4482D01*
X11953Y4497D01*
X11957Y4514D01*
Y5220D01*
X12049Y5313D01*
X12096D01*
Y5300D01*
X12154D01*
Y5366D01*
Y5431D01*
X12096D01*
Y5418D01*
X11982D01*
Y5370D01*
X11881Y5270D01*
X11872Y5255D01*
X11869Y5239D01*
Y4532D01*
X11859Y4522D01*
X11810D01*
Y4685D01*
X11634D01*
Y4522D01*
X11553D01*
X11547Y4535D01*
X11556Y4547D01*
X11566Y4571D01*
X11568Y4585D01*
X11468D01*
X11369D01*
X11370Y4571D01*
X11380Y4547D01*
X11390Y4535D01*
X11383Y4522D01*
X11299D01*
X11293Y4535D01*
X11302Y4547D01*
X11312Y4571D01*
X11314Y4585D01*
X11214D01*
Y4597D01*
X11201D01*
Y4697D01*
X11188Y4695D01*
X11163Y4685D01*
X11144Y4670D01*
X11132Y4673D01*
X11131Y4673D01*
Y4795D01*
X11144Y4799D01*
X11152Y4789D01*
X11170Y4775D01*
X11191Y4766D01*
X11214Y4763D01*
X11237Y4766D01*
X11258Y4775D01*
X11277Y4789D01*
X11291Y4807D01*
X11300Y4829D01*
X11303Y4851D01*
X11300Y4874D01*
X11291Y4896D01*
X11277Y4914D01*
X11258Y4928D01*
X11237Y4937D01*
X11214Y4940D01*
X11191Y4937D01*
X11170Y4928D01*
X11152Y4914D01*
X11144Y4904D01*
X11131Y4908D01*
Y5097D01*
X11200Y5166D01*
X11209Y5180D01*
X11212Y5197D01*
Y5880D01*
X11209Y5897D01*
X11200Y5911D01*
X11116Y5994D01*
Y6039D01*
X11139D01*
X11147Y6029D01*
X11163Y6017D01*
X11182Y6009D01*
X11201Y6006D01*
X11221Y6009D01*
X11240Y6017D01*
X11256Y6029D01*
X11268Y6045D01*
X11276Y6063D01*
X11278Y6083D01*
X11276Y6103D01*
X11268Y6122D01*
X11256Y6138D01*
X11240Y6150D01*
X11221Y6158D01*
X11201Y6160D01*
X11182Y6158D01*
X11163Y6150D01*
X11147Y6138D01*
X11139Y6127D01*
X11116D01*
Y6205D01*
X11068D01*
Y6819D01*
X11174Y6926D01*
X11184Y6940D01*
X11187Y6957D01*
Y6998D01*
Y7798D01*
X11184Y7815D01*
X11174Y7829D01*
X11091Y7912D01*
Y8123D01*
X11042D01*
Y8458D01*
Y8750D01*
Y8849D01*
X11212Y9019D01*
X11222Y9033D01*
X11225Y9050D01*
Y9070D01*
X11228Y9082D01*
X11238Y9082D01*
X11403D01*
Y9257D01*
X11228Y9257D01*
X11225Y9269D01*
Y9324D01*
X11228Y9336D01*
X11367D01*
X11442Y9260D01*
Y7954D01*
X11399Y7911D01*
X11348Y7860D01*
X11343Y7851D01*
X11341Y7841D01*
Y6058D01*
X11343Y6048D01*
X11348Y6040D01*
X11610Y5778D01*
X11618Y5772D01*
X11628Y5770D01*
X11841D01*
X11842Y5769D01*
Y5682D01*
X11924D01*
X11930Y5669D01*
X11927Y5665D01*
X11900D01*
X11890Y5663D01*
X11882Y5657D01*
X11876Y5649D01*
X11876Y5647D01*
X11842D01*
Y5542D01*
X11958D01*
Y5615D01*
X12023Y5680D01*
X12044D01*
X12047Y5681D01*
X12093D01*
Y5635D01*
X12093Y5631D01*
Y5595D01*
X12056Y5558D01*
X11982D01*
Y5453D01*
X12096D01*
X12097Y5453D01*
Y5453D01*
X12109Y5453D01*
Y5453D01*
X12224D01*
Y5558D01*
X12230Y5569D01*
X12243D01*
Y5441D01*
X12237Y5431D01*
X12179D01*
Y5366D01*
Y5300D01*
X12237D01*
Y5364D01*
X12250Y5368D01*
X12250Y5367D01*
X12363Y5255D01*
Y5186D01*
X12385D01*
Y5139D01*
X12339Y5093D01*
X12333Y5085D01*
X12331Y5075D01*
Y4552D01*
X12275Y4496D01*
X12080D01*
X12074Y4505D01*
X12058Y4515D01*
X12040Y4519D01*
X12021Y4515D01*
X12005Y4505D01*
X11995Y4489D01*
X11991Y4470D01*
X11995Y4452D01*
X12005Y4436D01*
X12021Y4425D01*
X12040Y4422D01*
X12058Y4425D01*
X12074Y4436D01*
X12080Y4445D01*
X12286D01*
X12296Y4446D01*
X12304Y4452D01*
X12375Y4523D01*
X12381Y4532D01*
X12383Y4542D01*
Y5064D01*
X12429Y5110D01*
X12434Y5118D01*
X12436Y5128D01*
Y5186D01*
X12478D01*
Y5281D01*
X12410D01*
X12368Y5323D01*
X12373Y5336D01*
X12478D01*
Y5358D01*
X12486Y5360D01*
X12495Y5365D01*
X12552Y5423D01*
X12562Y5429D01*
X12610D01*
Y5499D01*
X12623D01*
Y5512D01*
X12683D01*
Y5568D01*
X12721D01*
Y5680D01*
X12743D01*
Y5639D01*
X12808D01*
X12874D01*
Y5680D01*
X13517D01*
X13527Y5682D01*
X13535Y5688D01*
X13620Y5773D01*
X13626Y5781D01*
X13628Y5791D01*
Y8534D01*
X13626Y8544D01*
X13620Y8553D01*
X13399Y8774D01*
Y9296D01*
X13397Y9306D01*
X13391Y9315D01*
X13324Y9382D01*
X13332Y9401D01*
X13335Y9423D01*
X13332Y9446D01*
X13323Y9468D01*
X13309Y9486D01*
X13290Y9500D01*
X13269Y9509D01*
X13246Y9512D01*
X13223Y9509D01*
X13202Y9500D01*
X13184Y9486D01*
X13169Y9468D01*
X13161Y9446D01*
X13158Y9423D01*
X13161Y9401D01*
X13169Y9379D01*
X13184Y9361D01*
X13202Y9347D01*
X13223Y9338D01*
X13246Y9335D01*
X13269Y9338D01*
X13287Y9346D01*
X13347Y9286D01*
Y8763D01*
X13349Y8753D01*
X13355Y8745D01*
X13576Y8524D01*
Y5802D01*
X13506Y5732D01*
X12659D01*
X12654Y5745D01*
X12909Y6000D01*
X12914Y6008D01*
X12916Y6018D01*
Y6337D01*
X12914Y6347D01*
X12909Y6356D01*
X12749Y6515D01*
X12741Y6521D01*
X12731Y6523D01*
X11840D01*
X11799Y6564D01*
Y7180D01*
X11945Y7326D01*
X11957Y7321D01*
Y7243D01*
X11970D01*
Y6800D01*
X11974Y6783D01*
X11983Y6768D01*
X11989Y6763D01*
X11983Y6750D01*
X11843D01*
Y6585D01*
X12008D01*
Y6732D01*
X12021Y6740D01*
X12032Y6738D01*
X12116D01*
X12119Y6725D01*
X12107Y6709D01*
X12099Y6689D01*
X12096Y6668D01*
X12099Y6646D01*
X12107Y6626D01*
X12120Y6609D01*
X12138Y6595D01*
X12158Y6587D01*
X12179Y6584D01*
X12201Y6587D01*
X12221Y6595D01*
X12238Y6609D01*
X12252Y6626D01*
X12260Y6646D01*
X12263Y6668D01*
X12260Y6689D01*
X12252Y6709D01*
X12239Y6725D01*
X12242Y6738D01*
X12370D01*
X12373Y6725D01*
X12361Y6709D01*
X12353Y6689D01*
X12350Y6668D01*
X12353Y6646D01*
X12361Y6626D01*
X12374Y6609D01*
X12392Y6595D01*
X12412Y6587D01*
X12433Y6584D01*
X12455Y6587D01*
X12475Y6595D01*
X12492Y6609D01*
X12506Y6626D01*
X12514Y6646D01*
X12517Y6668D01*
X12514Y6689D01*
X12506Y6709D01*
X12493Y6725D01*
X12496Y6738D01*
X12612D01*
X12615Y6725D01*
X12602Y6709D01*
X12594Y6689D01*
X12591Y6668D01*
X12594Y6646D01*
X12602Y6626D01*
X12616Y6609D01*
X12633Y6595D01*
X12653Y6587D01*
X12675Y6584D01*
X12696Y6587D01*
X12716Y6595D01*
X12734Y6609D01*
X12747Y6626D01*
X12755Y6646D01*
X12758Y6668D01*
X12755Y6689D01*
X12747Y6709D01*
X12735Y6725D01*
X12737Y6738D01*
X12897D01*
Y6666D01*
X12887Y6658D01*
X12875Y6642D01*
X12867Y6624D01*
X12864Y6604D01*
X12867Y6584D01*
X12875Y6566D01*
X12887Y6550D01*
X12903Y6537D01*
X12921Y6530D01*
X12941Y6527D01*
X12961Y6530D01*
X12980Y6537D01*
X12996Y6550D01*
X13008Y6566D01*
X13016Y6584D01*
X13018Y6604D01*
X13016Y6624D01*
X13008Y6642D01*
X12996Y6658D01*
X12985Y6666D01*
Y6738D01*
X13162D01*
X13179Y6741D01*
X13193Y6751D01*
X13462Y7019D01*
X13474Y7015D01*
Y6983D01*
X13329Y6838D01*
X13320Y6824D01*
X13316Y6807D01*
Y6154D01*
X13268D01*
Y5809D01*
X13453D01*
Y6154D01*
X13404D01*
Y6789D01*
X13549Y6934D01*
X13559Y6948D01*
X13562Y6965D01*
Y7137D01*
Y7785D01*
X13559Y7802D01*
X13549Y7816D01*
X13466Y7899D01*
Y8110D01*
X13417D01*
Y8557D01*
X13417Y8557D01*
X13414Y8574D01*
X13404Y8588D01*
X13280Y8713D01*
X13265Y8722D01*
X13249Y8726D01*
X12975D01*
X12904Y8796D01*
Y9120D01*
X12911Y9123D01*
X12917Y9124D01*
X12930Y9107D01*
X12948Y9093D01*
X12969Y9084D01*
X12992Y9081D01*
X13015Y9084D01*
X13036Y9093D01*
X13055Y9107D01*
X13069Y9125D01*
X13078Y9147D01*
X13081Y9169D01*
X13078Y9192D01*
X13069Y9214D01*
X13055Y9232D01*
X13036Y9246D01*
X13015Y9255D01*
X12992Y9258D01*
X12969Y9255D01*
X12948Y9246D01*
X12930Y9232D01*
X12917Y9215D01*
X12911Y9216D01*
X12904Y9219D01*
Y9374D01*
X12911Y9377D01*
X12917Y9378D01*
X12930Y9361D01*
X12948Y9347D01*
X12969Y9338D01*
X12992Y9335D01*
X13015Y9338D01*
X13036Y9347D01*
X13055Y9361D01*
X13069Y9379D01*
X13078Y9401D01*
X13081Y9423D01*
X13078Y9446D01*
X13069Y9468D01*
X13055Y9486D01*
X13036Y9500D01*
X13015Y9509D01*
X12992Y9512D01*
X12969Y9509D01*
X12948Y9500D01*
X12930Y9486D01*
X12917Y9469D01*
X12911Y9470D01*
X12904Y9473D01*
Y9484D01*
X12901Y9501D01*
X12891Y9515D01*
X12796Y9611D01*
X12782Y9620D01*
X12765Y9624D01*
D02*
G37*
G36*
X13588Y9511D02*
X13412D01*
Y9336D01*
X13588D01*
Y9511D01*
D02*
G37*
G36*
X10046Y9512D02*
X10023Y9509D01*
X10001Y9500D01*
X9983Y9486D01*
X9969Y9468D01*
X9960Y9446D01*
X9957Y9423D01*
X9960Y9401D01*
X9969Y9379D01*
X9983Y9361D01*
X10001Y9347D01*
X10023Y9338D01*
X10046Y9335D01*
X10069Y9338D01*
X10090Y9347D01*
X10108Y9361D01*
X10122Y9379D01*
X10131Y9401D01*
X10134Y9423D01*
X10131Y9446D01*
X10122Y9468D01*
X10108Y9486D01*
X10090Y9500D01*
X10069Y9509D01*
X10046Y9512D01*
D02*
G37*
G36*
X9792D02*
X9769Y9509D01*
X9747Y9500D01*
X9729Y9486D01*
X9715Y9468D01*
X9706Y9446D01*
X9703Y9423D01*
X9706Y9401D01*
X9715Y9379D01*
X9729Y9361D01*
X9747Y9347D01*
X9769Y9338D01*
X9792Y9335D01*
X9815Y9338D01*
X9836Y9347D01*
X9854Y9361D01*
X9868Y9379D01*
X9877Y9401D01*
X9880Y9423D01*
X9877Y9446D01*
X9868Y9468D01*
X9854Y9486D01*
X9836Y9500D01*
X9815Y9509D01*
X9792Y9512D01*
D02*
G37*
G36*
X10300D02*
X10277Y9509D01*
X10255Y9500D01*
X10237Y9486D01*
X10223Y9468D01*
X10214Y9446D01*
X10211Y9423D01*
X10214Y9401D01*
X10223Y9379D01*
X10237Y9361D01*
X10255Y9347D01*
X10277Y9338D01*
X10300Y9335D01*
X10323Y9338D01*
X10344Y9347D01*
X10362Y9361D01*
X10376Y9379D01*
X10385Y9401D01*
X10388Y9423D01*
X10385Y9446D01*
X10376Y9468D01*
X10362Y9486D01*
X10344Y9500D01*
X10323Y9509D01*
X10300Y9512D01*
D02*
G37*
G36*
X12992Y4686D02*
X12969Y4683D01*
X12948Y4674D01*
X12930Y4660D01*
X12915Y4642D01*
X12907Y4620D01*
X12904Y4597D01*
X12907Y4575D01*
X12915Y4553D01*
X12930Y4535D01*
X12948Y4521D01*
X12969Y4512D01*
X12992Y4509D01*
X13015Y4512D01*
X13036Y4521D01*
X13055Y4535D01*
X13069Y4553D01*
X13078Y4575D01*
X13081Y4597D01*
X13078Y4620D01*
X13069Y4642D01*
X13055Y4660D01*
X13036Y4674D01*
X13015Y4683D01*
X12992Y4686D01*
D02*
G37*
G36*
X10554Y9512D02*
X10531Y9509D01*
X10509Y9500D01*
X10491Y9486D01*
X10477Y9468D01*
X10468Y9446D01*
X10465Y9423D01*
X10468Y9401D01*
X10476Y9382D01*
X10416Y9322D01*
X8468D01*
X8458Y9320D01*
X8450Y9315D01*
X8224Y9089D01*
X8218Y9080D01*
X8216Y9070D01*
Y7595D01*
X8218Y7585D01*
X8224Y7576D01*
X8394Y7407D01*
Y7238D01*
X8599D01*
Y7315D01*
X8705D01*
X8714Y7317D01*
X8723Y7322D01*
X8767Y7367D01*
X8908D01*
Y7345D01*
X9024D01*
Y7440D01*
X8908D01*
Y7418D01*
X8757D01*
X8747Y7417D01*
X8738Y7411D01*
X8694Y7366D01*
X8599D01*
Y7443D01*
X8430D01*
X8268Y7605D01*
Y9060D01*
X8479Y9271D01*
X10427D01*
X10437Y9272D01*
X10445Y9278D01*
X10512Y9346D01*
X10531Y9338D01*
X10554Y9335D01*
X10577Y9338D01*
X10598Y9347D01*
X10616Y9361D01*
X10630Y9379D01*
X10639Y9401D01*
X10642Y9423D01*
X10639Y9446D01*
X10630Y9468D01*
X10616Y9486D01*
X10598Y9500D01*
X10577Y9509D01*
X10554Y9512D01*
D02*
G37*
G36*
X10300Y9258D02*
X10277Y9255D01*
X10255Y9246D01*
X10237Y9232D01*
X10223Y9214D01*
X10214Y9192D01*
X10211Y9169D01*
X10214Y9147D01*
X10223Y9125D01*
X10237Y9107D01*
X10255Y9093D01*
X10277Y9084D01*
X10300Y9081D01*
X10323Y9084D01*
X10344Y9093D01*
X10362Y9107D01*
X10376Y9125D01*
X10385Y9147D01*
X10388Y9169D01*
X10385Y9192D01*
X10376Y9214D01*
X10362Y9232D01*
X10344Y9246D01*
X10323Y9255D01*
X10300Y9258D01*
D02*
G37*
G36*
X10109Y8681D02*
X10088Y8678D01*
X10067Y8670D01*
X10050Y8657D01*
X10037Y8640D01*
X10029Y8619D01*
X10026Y8598D01*
X10029Y8576D01*
X10037Y8556D01*
X10050Y8539D01*
X10067Y8526D01*
X10088Y8517D01*
X10109Y8514D01*
X10131Y8517D01*
X10151Y8526D01*
X10168Y8539D01*
X10181Y8556D01*
X10190Y8576D01*
X10193Y8598D01*
X10190Y8619D01*
X10181Y8640D01*
X10168Y8657D01*
X10151Y8670D01*
X10131Y8678D01*
X10109Y8681D01*
D02*
G37*
G36*
X9855D02*
X9834Y8678D01*
X9813Y8670D01*
X9796Y8657D01*
X9783Y8640D01*
X9775Y8619D01*
X9772Y8598D01*
X9775Y8576D01*
X9783Y8556D01*
X9796Y8539D01*
X9813Y8526D01*
X9834Y8517D01*
X9855Y8514D01*
X9877Y8517D01*
X9897Y8526D01*
X9914Y8539D01*
X9927Y8556D01*
X9936Y8576D01*
X9939Y8598D01*
X9936Y8619D01*
X9927Y8640D01*
X9914Y8657D01*
X9897Y8670D01*
X9877Y8678D01*
X9855Y8681D01*
D02*
G37*
G36*
X10350D02*
X10329Y8678D01*
X10309Y8670D01*
X10292Y8657D01*
X10278Y8640D01*
X10270Y8619D01*
X10267Y8598D01*
X10270Y8576D01*
X10278Y8556D01*
X10292Y8539D01*
X10309Y8526D01*
X10329Y8517D01*
X10350Y8514D01*
X10372Y8517D01*
X10392Y8526D01*
X10409Y8539D01*
X10423Y8556D01*
X10431Y8576D01*
X10434Y8598D01*
X10431Y8619D01*
X10423Y8640D01*
X10409Y8657D01*
X10392Y8670D01*
X10372Y8678D01*
X10350Y8681D01*
D02*
G37*
G36*
X9684Y8681D02*
X9518D01*
Y8515D01*
X9684D01*
Y8681D01*
D02*
G37*
G36*
X12230Y4940D02*
X12207Y4937D01*
X12186Y4928D01*
X12168Y4914D01*
X12153Y4896D01*
X12145Y4874D01*
X12142Y4851D01*
X12145Y4829D01*
X12153Y4807D01*
X12168Y4789D01*
X12186Y4775D01*
X12207Y4766D01*
X12230Y4763D01*
X12253Y4766D01*
X12274Y4775D01*
X12293Y4789D01*
X12307Y4807D01*
X12316Y4829D01*
X12319Y4851D01*
X12316Y4874D01*
X12307Y4896D01*
X12293Y4914D01*
X12274Y4928D01*
X12253Y4937D01*
X12230Y4940D01*
D02*
G37*
G36*
X7696Y8616D02*
Y8509D01*
X7803D01*
X7801Y8528D01*
X7789Y8557D01*
X7769Y8582D01*
X7744Y8601D01*
X7715Y8614D01*
X7696Y8616D01*
D02*
G37*
G36*
X12992Y4940D02*
X12969Y4937D01*
X12948Y4928D01*
X12930Y4914D01*
X12915Y4896D01*
X12907Y4874D01*
X12904Y4851D01*
X12907Y4829D01*
X12915Y4807D01*
X12930Y4789D01*
X12948Y4775D01*
X12969Y4766D01*
X12992Y4763D01*
X13015Y4766D01*
X13036Y4775D01*
X13055Y4789D01*
X13069Y4807D01*
X13078Y4829D01*
X13081Y4851D01*
X13078Y4874D01*
X13069Y4896D01*
X13055Y4914D01*
X13036Y4928D01*
X13015Y4937D01*
X12992Y4940D01*
D02*
G37*
G36*
X8484Y8382D02*
X8466Y8380D01*
X8438Y8369D01*
X8414Y8350D01*
X8395Y8326D01*
X8384Y8298D01*
X8382Y8280D01*
X8484D01*
Y8382D01*
D02*
G37*
G36*
X12738Y4940D02*
X12715Y4937D01*
X12694Y4928D01*
X12676Y4914D01*
X12661Y4896D01*
X12653Y4874D01*
X12650Y4851D01*
X12653Y4829D01*
X12661Y4807D01*
X12676Y4789D01*
X12694Y4775D01*
X12715Y4766D01*
X12738Y4763D01*
X12761Y4766D01*
X12782Y4775D01*
X12801Y4789D01*
X12815Y4807D01*
X12824Y4829D01*
X12827Y4851D01*
X12824Y4874D01*
X12815Y4896D01*
X12801Y4914D01*
X12782Y4928D01*
X12761Y4937D01*
X12738Y4940D01*
D02*
G37*
G36*
X12484D02*
X12461Y4937D01*
X12440Y4928D01*
X12422Y4914D01*
X12407Y4896D01*
X12399Y4874D01*
X12396Y4851D01*
X12399Y4829D01*
X12407Y4807D01*
X12422Y4789D01*
X12440Y4775D01*
X12461Y4766D01*
X12484Y4763D01*
X12507Y4766D01*
X12528Y4775D01*
X12547Y4789D01*
X12561Y4807D01*
X12570Y4829D01*
X12573Y4851D01*
X12570Y4874D01*
X12561Y4896D01*
X12547Y4914D01*
X12528Y4928D01*
X12507Y4937D01*
X12484Y4940D01*
D02*
G37*
G36*
X7803Y8484D02*
X7696D01*
Y8377D01*
X7715Y8379D01*
X7744Y8391D01*
X7769Y8410D01*
X7789Y8436D01*
X7801Y8465D01*
X7803Y8484D01*
D02*
G37*
G36*
X8509Y9056D02*
Y8954D01*
X8611D01*
X8609Y8971D01*
X8597Y8999D01*
X8579Y9023D01*
X8554Y9042D01*
X8526Y9053D01*
X8509Y9056D01*
D02*
G37*
G36*
X8484D02*
X8466Y9053D01*
X8438Y9042D01*
X8414Y9023D01*
X8395Y8999D01*
X8384Y8971D01*
X8382Y8954D01*
X8484D01*
Y9056D01*
D02*
G37*
G36*
X8611Y8928D02*
X8509D01*
Y8826D01*
X8526Y8828D01*
X8554Y8840D01*
X8579Y8858D01*
X8597Y8883D01*
X8609Y8911D01*
X8611Y8928D01*
D02*
G37*
G36*
X10046Y9258D02*
X10023Y9255D01*
X10001Y9246D01*
X9983Y9232D01*
X9969Y9214D01*
X9960Y9192D01*
X9957Y9169D01*
X9960Y9147D01*
X9969Y9125D01*
X9983Y9107D01*
X10001Y9093D01*
X10023Y9084D01*
X10046Y9081D01*
X10069Y9084D01*
X10090Y9093D01*
X10108Y9107D01*
X10122Y9125D01*
X10131Y9147D01*
X10134Y9169D01*
X10131Y9192D01*
X10122Y9214D01*
X10108Y9232D01*
X10090Y9246D01*
X10069Y9255D01*
X10046Y9258D01*
D02*
G37*
G36*
X9792D02*
X9769Y9255D01*
X9747Y9246D01*
X9729Y9232D01*
X9715Y9214D01*
X9706Y9192D01*
X9703Y9169D01*
X9706Y9147D01*
X9715Y9125D01*
X9729Y9107D01*
X9747Y9093D01*
X9769Y9084D01*
X9792Y9081D01*
X9815Y9084D01*
X9836Y9093D01*
X9854Y9107D01*
X9868Y9125D01*
X9877Y9147D01*
X9880Y9169D01*
X9877Y9192D01*
X9868Y9214D01*
X9854Y9232D01*
X9836Y9246D01*
X9815Y9255D01*
X9792Y9258D01*
D02*
G37*
G36*
X9538D02*
X9515Y9255D01*
X9493Y9246D01*
X9475Y9232D01*
X9461Y9214D01*
X9452Y9192D01*
X9449Y9169D01*
X9452Y9147D01*
X9461Y9125D01*
X9475Y9107D01*
X9493Y9093D01*
X9515Y9084D01*
X9538Y9081D01*
X9561Y9084D01*
X9582Y9093D01*
X9600Y9107D01*
X9614Y9125D01*
X9623Y9147D01*
X9626Y9169D01*
X9623Y9192D01*
X9614Y9214D01*
X9600Y9232D01*
X9582Y9246D01*
X9561Y9255D01*
X9538Y9258D01*
D02*
G37*
G36*
X11481Y4697D02*
Y4610D01*
X11568D01*
X11566Y4624D01*
X11556Y4648D01*
X11540Y4669D01*
X11519Y4685D01*
X11494Y4695D01*
X11481Y4697D01*
D02*
G37*
G36*
X8484Y8928D02*
X8382D01*
X8384Y8911D01*
X8395Y8883D01*
X8414Y8858D01*
X8438Y8840D01*
X8466Y8828D01*
X8484Y8826D01*
Y8928D01*
D02*
G37*
G36*
X11468Y4940D02*
X11445Y4937D01*
X11424Y4928D01*
X11406Y4914D01*
X11391Y4896D01*
X11383Y4874D01*
X11380Y4851D01*
X11383Y4829D01*
X11391Y4807D01*
X11406Y4789D01*
X11424Y4775D01*
X11445Y4766D01*
X11468Y4763D01*
X11491Y4766D01*
X11512Y4775D01*
X11531Y4789D01*
X11545Y4807D01*
X11554Y4829D01*
X11557Y4851D01*
X11554Y4874D01*
X11545Y4896D01*
X11531Y4914D01*
X11512Y4928D01*
X11491Y4937D01*
X11468Y4940D01*
D02*
G37*
%LPD*%
G36*
X9593Y7297D02*
Y6909D01*
X9595Y6899D01*
X9601Y6890D01*
X9608Y6883D01*
X9617Y6877D01*
X9627Y6875D01*
X10544D01*
X10547Y6871D01*
X10542Y6861D01*
X10540Y6859D01*
X10521Y6856D01*
X10503Y6848D01*
X10487Y6836D01*
X10474Y6820D01*
X10467Y6802D01*
X10464Y6782D01*
X10467Y6762D01*
X10474Y6743D01*
X10487Y6727D01*
X10497Y6720D01*
Y6178D01*
X10438Y6119D01*
X10426Y6125D01*
X10427Y6134D01*
X10425Y6154D01*
X10417Y6173D01*
X10412Y6179D01*
X10410Y6191D01*
X10410Y6191D01*
X10410Y6191D01*
Y6248D01*
X10349D01*
X10289D01*
Y6191D01*
X10289Y6191D01*
X10289D01*
X10288Y6178D01*
X10284Y6173D01*
X10276Y6154D01*
X10276Y6153D01*
X10270Y6152D01*
X10256Y6142D01*
X10246Y6128D01*
X10243Y6111D01*
X10246Y6094D01*
X10247Y6093D01*
X10242Y6081D01*
X10195D01*
Y6128D01*
X10196Y6131D01*
Y6203D01*
X10247D01*
Y6319D01*
X10152D01*
X10152Y6319D01*
Y6319D01*
X10140Y6320D01*
X10138Y6325D01*
X10125Y6341D01*
X10110Y6353D01*
X10091Y6361D01*
X10071Y6363D01*
X10051Y6361D01*
X10033Y6353D01*
X10017Y6341D01*
X10005Y6325D01*
X9997Y6306D01*
X9994Y6287D01*
X9997Y6267D01*
X10005Y6248D01*
X10017Y6232D01*
X10027Y6224D01*
Y6211D01*
X10026Y6205D01*
X10026Y6204D01*
X10018Y6194D01*
X9974D01*
X9964Y6205D01*
X9964Y6205D01*
X9962Y6213D01*
X9961Y6220D01*
X9973Y6235D01*
X9980Y6254D01*
X9983Y6274D01*
X9980Y6294D01*
X9973Y6312D01*
X9960Y6328D01*
X9944Y6340D01*
X9926Y6348D01*
X9906Y6351D01*
X9886Y6348D01*
X9868Y6340D01*
X9852Y6328D01*
X9839Y6312D01*
X9832Y6294D01*
X9829Y6274D01*
X9832Y6254D01*
X9839Y6235D01*
X9852Y6219D01*
X9864Y6210D01*
X9864Y6208D01*
X9857Y6197D01*
X9854Y6197D01*
X9845Y6200D01*
X9844Y6208D01*
X9838Y6216D01*
X9813Y6241D01*
X9804Y6247D01*
X9794Y6249D01*
X9622D01*
Y6281D01*
X9567D01*
X9564Y6289D01*
X9563Y6293D01*
X9577Y6312D01*
X9586Y6333D01*
X9588Y6344D01*
X9412D01*
X9413Y6333D01*
X9422Y6312D01*
X9427Y6305D01*
X9422Y6293D01*
X9390D01*
Y7111D01*
X9581Y7302D01*
X9593Y7297D01*
D02*
G37*
G36*
X9261Y5913D02*
X9269Y5907D01*
X9272Y5906D01*
X9400Y5778D01*
X9408Y5772D01*
X9418Y5770D01*
X9538D01*
X9543Y5766D01*
Y5682D01*
X9635D01*
X9640Y5670D01*
X9617Y5647D01*
X9543D01*
Y5542D01*
X9659D01*
Y5615D01*
X9724Y5680D01*
X9745D01*
X9748Y5681D01*
X9795D01*
Y5635D01*
X9794Y5631D01*
Y5595D01*
X9757Y5558D01*
X9683D01*
Y5464D01*
X9327D01*
X9170Y5622D01*
Y5987D01*
X9182Y5991D01*
X9261Y5913D01*
D02*
G37*
G36*
X10733Y5935D02*
X10725Y5929D01*
X10713Y5913D01*
X10706Y5895D01*
X10703Y5875D01*
X10706Y5855D01*
X10711Y5843D01*
X10600Y5732D01*
X10361D01*
X10355Y5745D01*
X10559Y5948D01*
X10729D01*
X10733Y5935D01*
D02*
G37*
G36*
X10845Y5817D02*
Y5756D01*
X10688Y5599D01*
X10682Y5590D01*
X10680Y5580D01*
Y5010D01*
X10668Y5006D01*
X10422Y5252D01*
X10414Y5258D01*
X10404Y5259D01*
X10378D01*
X10374Y5272D01*
X10389Y5283D01*
X10403Y5302D01*
X10412Y5323D01*
X10413Y5334D01*
X10325D01*
Y5359D01*
X10413D01*
X10412Y5370D01*
X10403Y5392D01*
X10389Y5410D01*
X10381Y5416D01*
X10384Y5429D01*
X10384D01*
Y5486D01*
X10324D01*
Y5512D01*
X10384D01*
Y5568D01*
X10422D01*
Y5680D01*
X10444D01*
Y5639D01*
X10509D01*
Y5626D01*
D01*
Y5639D01*
X10575D01*
Y5680D01*
X10611D01*
X10621Y5682D01*
X10629Y5688D01*
X10747Y5806D01*
X10760Y5801D01*
X10780Y5798D01*
X10800Y5801D01*
X10818Y5808D01*
X10833Y5820D01*
X10845Y5817D01*
D02*
G37*
G36*
X10604Y6712D02*
Y6601D01*
X10606Y6592D01*
X10612Y6583D01*
X10845Y6349D01*
Y5992D01*
X10834Y5987D01*
X10829Y5992D01*
X10820Y5998D01*
X10810Y6000D01*
X10548D01*
X10545Y5999D01*
X10538Y6011D01*
X10641Y6113D01*
X10653Y6108D01*
X10673Y6106D01*
X10693Y6108D01*
X10712Y6116D01*
X10727Y6128D01*
X10740Y6144D01*
X10747Y6162D01*
X10750Y6182D01*
X10747Y6202D01*
X10740Y6221D01*
X10727Y6237D01*
X10712Y6249D01*
X10693Y6257D01*
X10673Y6259D01*
X10653Y6257D01*
X10635Y6249D01*
X10619Y6237D01*
X10607Y6221D01*
X10599Y6202D01*
X10598Y6194D01*
X10585Y6195D01*
Y6714D01*
X10591Y6718D01*
X10604Y6712D01*
D02*
G37*
G36*
X9952Y5367D02*
X10064Y5255D01*
Y5186D01*
X10180D01*
Y5208D01*
X10393D01*
X10680Y4921D01*
Y4682D01*
X10662Y4674D01*
X10644Y4660D01*
X10629Y4642D01*
X10621Y4620D01*
X10618Y4597D01*
X10621Y4575D01*
X10629Y4553D01*
X10644Y4535D01*
X10645Y4534D01*
X10640Y4522D01*
X10518D01*
X10514Y4534D01*
X10515Y4535D01*
X10529Y4553D01*
X10538Y4575D01*
X10541Y4597D01*
X10538Y4620D01*
X10529Y4642D01*
X10515Y4660D01*
X10496Y4674D01*
X10475Y4683D01*
X10452Y4686D01*
X10429Y4683D01*
X10408Y4674D01*
X10390Y4660D01*
X10375Y4642D01*
X10367Y4620D01*
X10364Y4597D01*
X10367Y4575D01*
X10375Y4553D01*
X10390Y4535D01*
X10391Y4534D01*
X10386Y4522D01*
X10264D01*
X10260Y4534D01*
X10261Y4535D01*
X10275Y4553D01*
X10284Y4575D01*
X10287Y4597D01*
X10284Y4620D01*
X10275Y4642D01*
X10261Y4660D01*
X10242Y4674D01*
X10221Y4683D01*
X10198Y4686D01*
X10175Y4683D01*
X10154Y4674D01*
X10136Y4660D01*
X10121Y4642D01*
X10113Y4620D01*
X10110Y4597D01*
X10113Y4575D01*
X10121Y4553D01*
X10136Y4535D01*
X10137Y4534D01*
X10132Y4522D01*
X10010D01*
X10006Y4534D01*
X10007Y4535D01*
X10021Y4553D01*
X10030Y4575D01*
X10033Y4597D01*
X10030Y4620D01*
X10021Y4642D01*
X10007Y4660D01*
X9988Y4674D01*
X9967Y4683D01*
X9944Y4686D01*
X9921Y4683D01*
X9900Y4674D01*
X9882Y4660D01*
X9867Y4642D01*
X9859Y4620D01*
X9856Y4597D01*
X9859Y4575D01*
X9867Y4553D01*
X9882Y4535D01*
X9883Y4534D01*
X9878Y4522D01*
X9853D01*
X9785Y4590D01*
Y5300D01*
X9797Y5300D01*
Y5300D01*
X9855D01*
Y5366D01*
X9881D01*
Y5300D01*
X9938D01*
Y5364D01*
X9951Y5368D01*
X9952Y5367D01*
D02*
G37*
G36*
X9658Y7305D02*
Y7243D01*
X9671D01*
Y7071D01*
X9675Y7055D01*
X9684Y7040D01*
X9771Y6954D01*
X9785Y6944D01*
X9802Y6941D01*
X9802Y6941D01*
X10708D01*
X10724Y6944D01*
X10739Y6954D01*
X10751Y6966D01*
X10803D01*
X10816Y6954D01*
X10830Y6944D01*
X10847Y6941D01*
X11048D01*
X11053Y6929D01*
X10992Y6869D01*
X10983Y6855D01*
X10980Y6838D01*
Y6205D01*
X10931D01*
Y5860D01*
X11116D01*
X11124Y5850D01*
Y5710D01*
X11036D01*
Y5524D01*
Y5339D01*
X11124D01*
Y5215D01*
X11056Y5147D01*
X11046Y5132D01*
X11043Y5116D01*
Y4908D01*
X11030Y4904D01*
X11023Y4914D01*
X11004Y4928D01*
X10983Y4937D01*
X10960Y4940D01*
X10937Y4937D01*
X10916Y4928D01*
X10898Y4914D01*
X10883Y4896D01*
X10875Y4874D01*
X10872Y4851D01*
X10875Y4829D01*
X10883Y4807D01*
X10898Y4789D01*
X10916Y4775D01*
X10937Y4766D01*
X10960Y4763D01*
X10983Y4766D01*
X11004Y4775D01*
X11023Y4789D01*
X11030Y4799D01*
X11043Y4795D01*
Y4654D01*
X11030Y4650D01*
X11023Y4660D01*
X11004Y4674D01*
X10983Y4683D01*
X10960Y4686D01*
X10937Y4683D01*
X10916Y4674D01*
X10898Y4660D01*
X10883Y4642D01*
X10875Y4620D01*
X10872Y4597D01*
X10875Y4575D01*
X10883Y4553D01*
X10898Y4535D01*
X10899Y4534D01*
X10894Y4522D01*
X10772D01*
X10768Y4534D01*
X10769Y4535D01*
X10783Y4553D01*
X10792Y4575D01*
X10795Y4597D01*
X10792Y4620D01*
X10783Y4642D01*
X10769Y4660D01*
X10750Y4674D01*
X10732Y4682D01*
Y4931D01*
Y5570D01*
X10890Y5727D01*
X10895Y5736D01*
X10897Y5745D01*
Y5913D01*
Y6360D01*
X10895Y6370D01*
X10890Y6378D01*
X10656Y6612D01*
Y6718D01*
X10698D01*
X10703Y6705D01*
X10715Y6689D01*
X10731Y6677D01*
X10750Y6669D01*
X10770Y6667D01*
X10789Y6669D01*
X10808Y6677D01*
X10824Y6689D01*
X10836Y6705D01*
X10844Y6724D01*
X10846Y6744D01*
X10844Y6764D01*
X10836Y6782D01*
X10824Y6798D01*
X10808Y6810D01*
X10789Y6818D01*
X10770Y6821D01*
X10750Y6818D01*
X10731Y6810D01*
X10715Y6798D01*
X10703Y6782D01*
X10698Y6770D01*
X10656D01*
Y6831D01*
X10654Y6841D01*
X10648Y6850D01*
X10578Y6919D01*
X10570Y6925D01*
X10560Y6927D01*
X9645D01*
Y7311D01*
X9645Y7312D01*
X9658Y7305D01*
D02*
G37*
G36*
X9475Y7679D02*
X9479Y7676D01*
Y7346D01*
X9308Y7175D01*
X9305Y7170D01*
X9292Y7174D01*
Y7353D01*
X9290Y7363D01*
X9284Y7372D01*
X9151Y7505D01*
X9156Y7517D01*
X9291D01*
X9301Y7519D01*
X9310Y7524D01*
X9466Y7681D01*
X9475Y7679D01*
D02*
G37*
G36*
X11823Y9360D02*
X11825Y9350D01*
X11831Y9342D01*
X11894Y9278D01*
X11903Y9272D01*
X11913Y9271D01*
X12331D01*
Y9081D01*
X12333Y9071D01*
X12339Y9062D01*
X12677Y8724D01*
X12685Y8719D01*
X12695Y8717D01*
X12725D01*
Y8656D01*
X12712Y8652D01*
X12708Y8657D01*
X12691Y8670D01*
X12671Y8678D01*
X12649Y8681D01*
X12628Y8678D01*
X12607Y8670D01*
X12590Y8657D01*
X12577Y8640D01*
X12569Y8619D01*
X12566Y8598D01*
X12569Y8576D01*
X12577Y8556D01*
X12567Y8549D01*
X12548Y8568D01*
Y8781D01*
X12546Y8791D01*
X12541Y8799D01*
X12454Y8885D01*
X12446Y8891D01*
X12436Y8893D01*
X12040D01*
X11875Y9058D01*
Y9246D01*
X11873Y9256D01*
X11867Y9264D01*
X11783Y9348D01*
X11784Y9361D01*
X11785Y9361D01*
X11799Y9379D01*
X11808Y9401D01*
X11811Y9423D01*
X11808Y9446D01*
X11799Y9468D01*
X11785Y9485D01*
X11786Y9490D01*
X11789Y9498D01*
X11823D01*
Y9360D01*
D02*
G37*
G36*
X11627Y9524D02*
X11589Y9486D01*
X11584Y9478D01*
X11582Y9468D01*
Y8314D01*
X11569Y8305D01*
X11557Y8306D01*
X11537Y8304D01*
X11519Y8296D01*
X11507Y8287D01*
X11494Y8292D01*
Y9258D01*
X11495Y9259D01*
X11497Y9268D01*
X11495Y9278D01*
X11489Y9287D01*
X11403Y9372D01*
Y9511D01*
X11261D01*
X11256Y9523D01*
X11269Y9536D01*
X11622D01*
X11627Y9524D01*
D02*
G37*
G36*
X9769Y7565D02*
X9769Y7562D01*
Y7526D01*
X9732Y7489D01*
X9658D01*
Y7389D01*
X9606D01*
X9596Y7387D01*
X9588Y7382D01*
X9543Y7337D01*
X9531Y7342D01*
Y7472D01*
X9633D01*
Y7546D01*
X9699Y7611D01*
X9719D01*
X9723Y7611D01*
X9769D01*
Y7565D01*
D02*
G37*
G36*
X11520Y7900D02*
X11528Y7894D01*
X11538Y7892D01*
X11618D01*
X11701Y7809D01*
Y7740D01*
X11759D01*
X11763Y7728D01*
X11668Y7633D01*
X11596D01*
X11571Y7658D01*
Y7810D01*
X11569Y7820D01*
X11563Y7828D01*
X11483Y7909D01*
X11484Y7913D01*
X11492Y7921D01*
X11498Y7922D01*
X11520Y7900D01*
D02*
G37*
G36*
X10366Y8274D02*
X10362Y8262D01*
X10337D01*
Y8192D01*
X10324D01*
Y8179D01*
X10264D01*
Y8121D01*
X10264Y8121D01*
X10264D01*
X10263Y8109D01*
X10259Y8103D01*
X10251Y8084D01*
X10248Y8064D01*
X10250Y8052D01*
X10230Y8032D01*
X10221Y8018D01*
X10220Y8012D01*
X10170D01*
Y8058D01*
X10170Y8062D01*
Y8134D01*
X10222D01*
Y8249D01*
X10126D01*
X10126Y8249D01*
Y8249D01*
X10114Y8251D01*
X10112Y8255D01*
X10100Y8271D01*
X10084Y8283D01*
X10066Y8291D01*
X10046Y8294D01*
X10026Y8291D01*
X10007Y8283D01*
X9991Y8271D01*
X9979Y8255D01*
X9971Y8237D01*
X9969Y8217D01*
X9971Y8197D01*
X9979Y8178D01*
X9991Y8163D01*
X10002Y8155D01*
Y8141D01*
X10000Y8135D01*
X10001Y8134D01*
X9993Y8124D01*
X9949D01*
X9939Y8135D01*
X9939Y8135D01*
X9937Y8144D01*
X9935Y8151D01*
X9947Y8166D01*
X9955Y8184D01*
X9957Y8204D01*
X9955Y8224D01*
X9947Y8243D01*
X9935Y8259D01*
X9919Y8271D01*
X9900Y8278D01*
X9881Y8281D01*
X9861Y8278D01*
X9842Y8271D01*
X9826Y8259D01*
X9817Y8247D01*
X9805Y8252D01*
X9805Y8252D01*
X9802Y8272D01*
X9795Y8291D01*
X9783Y8307D01*
X9767Y8319D01*
X9748Y8327D01*
X9728Y8329D01*
X9708Y8327D01*
X9690Y8319D01*
X9674Y8307D01*
X9662Y8291D01*
X9656Y8278D01*
X9530D01*
X9520Y8276D01*
X9512Y8271D01*
X9470Y8229D01*
X9460Y8224D01*
Y8224D01*
X9460Y8224D01*
X9412D01*
Y8153D01*
X9399D01*
Y8141D01*
X9339D01*
Y8083D01*
X9392D01*
X9396Y8071D01*
X9359Y8034D01*
X9341D01*
X9331Y8032D01*
X9323Y8026D01*
X9322Y8025D01*
X9320Y8026D01*
X9309Y8031D01*
X9307Y8050D01*
X9298Y8071D01*
X9284Y8090D01*
X9265Y8104D01*
X9243Y8113D01*
X9233Y8114D01*
Y8026D01*
X9207D01*
Y8114D01*
X9197Y8113D01*
X9175Y8104D01*
X9169Y8099D01*
X9157Y8104D01*
Y8181D01*
X9371Y8394D01*
X10246D01*
X10366Y8274D01*
D02*
G37*
G36*
X11519Y7799D02*
Y7647D01*
X11521Y7637D01*
X11527Y7629D01*
X11567Y7589D01*
X11575Y7583D01*
X11585Y7581D01*
X11679D01*
X11689Y7583D01*
X11697Y7589D01*
X11805Y7697D01*
X11817Y7692D01*
Y7612D01*
X11909D01*
X11913Y7600D01*
X11891Y7577D01*
X11817D01*
Y7472D01*
X11932D01*
Y7546D01*
X11997Y7611D01*
X12018D01*
X12022Y7611D01*
X12068D01*
Y7565D01*
X12067Y7562D01*
Y7526D01*
X12030Y7489D01*
X11957D01*
Y7392D01*
X11692D01*
X11687Y7404D01*
X11675Y7420D01*
X11659Y7433D01*
X11640Y7440D01*
X11621Y7443D01*
X11601Y7440D01*
X11582Y7433D01*
X11566Y7420D01*
X11554Y7404D01*
X11546Y7386D01*
X11544Y7366D01*
X11546Y7346D01*
X11554Y7328D01*
X11566Y7312D01*
X11582Y7299D01*
X11601Y7292D01*
X11621Y7289D01*
X11640Y7292D01*
X11659Y7299D01*
X11675Y7312D01*
X11687Y7328D01*
X11692Y7340D01*
X11869D01*
X11874Y7328D01*
X11755Y7209D01*
X11749Y7201D01*
X11747Y7191D01*
Y6553D01*
X11749Y6543D01*
X11755Y6535D01*
X11811Y6478D01*
X11819Y6473D01*
X11829Y6471D01*
X11876D01*
X11881Y6459D01*
X11795Y6373D01*
X11789Y6364D01*
X11787Y6354D01*
Y6305D01*
X11784Y6293D01*
X11774Y6293D01*
X11736D01*
Y6223D01*
Y6153D01*
X11770D01*
X11775Y6140D01*
X11713Y6078D01*
X11691D01*
X11681Y6076D01*
X11672Y6070D01*
X11654Y6052D01*
X11614D01*
Y5982D01*
X11601D01*
Y5969D01*
X11536D01*
Y5942D01*
X11524Y5937D01*
X11392Y6069D01*
Y6160D01*
X11394Y6161D01*
X11405Y6163D01*
X11417Y6147D01*
X11436Y6133D01*
X11458Y6124D01*
X11468Y6122D01*
Y6210D01*
Y6298D01*
X11458Y6297D01*
X11436Y6288D01*
X11417Y6274D01*
X11405Y6258D01*
X11394Y6260D01*
X11392Y6261D01*
Y7831D01*
X11428Y7866D01*
X11452D01*
X11519Y7799D01*
D02*
G37*
G36*
X12829Y8747D02*
X12925Y8651D01*
X12940Y8641D01*
X12957Y8638D01*
X12973D01*
Y8622D01*
X12963Y8614D01*
X12951Y8598D01*
X12943Y8580D01*
X12941Y8560D01*
X12943Y8540D01*
X12951Y8521D01*
X12963Y8505D01*
X12979Y8493D01*
X12998Y8486D01*
X13018Y8483D01*
X13037Y8486D01*
X13056Y8493D01*
X13072Y8505D01*
X13084Y8521D01*
X13092Y8540D01*
X13094Y8560D01*
X13092Y8580D01*
X13084Y8598D01*
X13072Y8614D01*
X13062Y8622D01*
Y8638D01*
X13230D01*
X13329Y8539D01*
Y8110D01*
X13280D01*
Y7765D01*
X13466D01*
X13474Y7755D01*
Y7615D01*
X13386D01*
Y7429D01*
Y7244D01*
X13474D01*
Y7156D01*
X13144Y6826D01*
X12058D01*
Y7230D01*
X12071Y7231D01*
Y7231D01*
X12129D01*
Y7296D01*
X12154D01*
Y7231D01*
X12212D01*
Y7288D01*
X12224Y7292D01*
X12224Y7292D01*
X12296Y7221D01*
X12304Y7215D01*
X12308Y7214D01*
X12338Y7185D01*
Y7116D01*
X12453D01*
Y7212D01*
X12421D01*
Y7219D01*
X12419Y7229D01*
X12414Y7237D01*
X12397Y7254D01*
X12402Y7266D01*
X12453D01*
Y7288D01*
X12468D01*
X12478Y7290D01*
X12486Y7296D01*
X12528Y7338D01*
X12533Y7346D01*
X12534Y7348D01*
X12537Y7359D01*
X12585D01*
Y7429D01*
X12597D01*
Y7442D01*
X12658D01*
Y7499D01*
X12695D01*
Y7606D01*
X12706Y7610D01*
X12717Y7604D01*
Y7569D01*
X12770D01*
Y7627D01*
X12738D01*
X12733Y7639D01*
X12833Y7738D01*
X12838Y7746D01*
X12840Y7756D01*
Y7942D01*
X12838Y7952D01*
X12833Y7961D01*
X12811Y7983D01*
X12813Y7986D01*
X12815Y7996D01*
Y8745D01*
X12827Y8749D01*
X12829Y8747D01*
D02*
G37*
G36*
X11660Y9361D02*
X11678Y9347D01*
X11699Y9338D01*
X11722Y9335D01*
X11723Y9335D01*
X11823Y9235D01*
Y9047D01*
X11825Y9038D01*
X11831Y9029D01*
X12011Y8849D01*
X12020Y8843D01*
X12029Y8841D01*
X12425D01*
X12496Y8770D01*
Y8634D01*
X12484Y8631D01*
X12480Y8640D01*
X12467Y8657D01*
X12450Y8670D01*
X12429Y8678D01*
X12408Y8681D01*
X12386Y8678D01*
X12366Y8670D01*
X12349Y8657D01*
X12336Y8640D01*
X12327Y8619D01*
X12324Y8598D01*
X12327Y8576D01*
X12336Y8556D01*
X12349Y8539D01*
X12366Y8526D01*
X12386Y8517D01*
X12408Y8514D01*
X12429Y8517D01*
X12450Y8526D01*
X12467Y8539D01*
X12480Y8556D01*
X12484Y8565D01*
X12496Y8562D01*
Y8557D01*
X12498Y8547D01*
X12504Y8539D01*
X12687Y8356D01*
Y8273D01*
X12683Y8262D01*
X12635D01*
Y8192D01*
X12623D01*
Y8179D01*
X12562D01*
Y8121D01*
X12562Y8121D01*
X12562D01*
X12562Y8109D01*
X12557Y8103D01*
X12550Y8084D01*
X12547Y8064D01*
X12549Y8052D01*
X12529Y8032D01*
X12520Y8018D01*
X12518Y8012D01*
X12468D01*
Y8058D01*
X12469Y8062D01*
Y8134D01*
X12520D01*
Y8249D01*
X12425D01*
X12425Y8249D01*
Y8249D01*
X12413Y8251D01*
X12411Y8255D01*
X12399Y8271D01*
X12383Y8283D01*
X12364Y8291D01*
X12344Y8294D01*
X12325Y8291D01*
X12306Y8283D01*
X12290Y8271D01*
X12278Y8255D01*
X12270Y8237D01*
X12268Y8217D01*
X12270Y8197D01*
X12278Y8178D01*
X12290Y8163D01*
X12300Y8155D01*
Y8141D01*
X12299Y8135D01*
X12299Y8134D01*
X12291Y8124D01*
X12248D01*
X12237Y8135D01*
X12237Y8135D01*
X12236Y8144D01*
X12234Y8151D01*
X12246Y8166D01*
X12254Y8184D01*
X12256Y8204D01*
X12254Y8224D01*
X12246Y8243D01*
X12234Y8259D01*
X12218Y8271D01*
X12199Y8278D01*
X12179Y8281D01*
X12159Y8278D01*
X12141Y8271D01*
X12125Y8259D01*
X12113Y8243D01*
X12105Y8224D01*
X12102Y8204D01*
X12105Y8184D01*
X12113Y8166D01*
X12114Y8164D01*
X12105Y8155D01*
X12088Y8172D01*
X12080Y8177D01*
X12070Y8179D01*
X11896D01*
Y8211D01*
X11800D01*
Y8096D01*
X11856D01*
X11862Y8083D01*
X11855Y8067D01*
X11853Y8047D01*
X11855Y8028D01*
X11863Y8009D01*
X11863Y8009D01*
X11858Y7997D01*
X11846Y7996D01*
X11822Y8019D01*
X11808Y8029D01*
X11791Y8032D01*
X11781D01*
Y8046D01*
X11676D01*
Y7931D01*
X11772D01*
X11784Y7919D01*
X11784Y7919D01*
X11786Y7899D01*
X11794Y7881D01*
X11806Y7865D01*
X11822Y7852D01*
X11841Y7845D01*
X11851Y7843D01*
Y7824D01*
X11847D01*
X11837Y7822D01*
X11828Y7816D01*
X11823Y7808D01*
X11821Y7798D01*
Y7786D01*
X11808Y7773D01*
X11796Y7778D01*
Y7856D01*
X11728D01*
X11654Y7929D01*
Y7976D01*
X11589D01*
Y7988D01*
X11576D01*
Y8059D01*
X11532D01*
Y8145D01*
X11545Y8154D01*
X11557Y8153D01*
X11577Y8155D01*
X11595Y8163D01*
X11611Y8175D01*
X11624Y8191D01*
X11625Y8194D01*
X11637Y8192D01*
Y8166D01*
X11685D01*
Y8224D01*
X11646D01*
X11636Y8229D01*
X11633Y8235D01*
X11631Y8249D01*
X11626Y8262D01*
X11626Y8262D01*
X11632Y8270D01*
X11634Y8280D01*
Y8340D01*
X11646Y8346D01*
X11653Y8341D01*
X11675Y8332D01*
X11685Y8331D01*
Y8419D01*
Y8507D01*
X11675Y8506D01*
X11653Y8497D01*
X11646Y8491D01*
X11634Y8498D01*
Y9120D01*
X11642Y9124D01*
X11646Y9124D01*
X11660Y9107D01*
X11678Y9093D01*
X11699Y9084D01*
X11722Y9081D01*
X11745Y9084D01*
X11766Y9093D01*
X11785Y9107D01*
X11799Y9125D01*
X11808Y9147D01*
X11811Y9169D01*
X11808Y9192D01*
X11799Y9214D01*
X11785Y9232D01*
X11766Y9246D01*
X11745Y9255D01*
X11722Y9258D01*
X11699Y9255D01*
X11678Y9246D01*
X11660Y9232D01*
X11646Y9215D01*
X11642Y9215D01*
X11634Y9218D01*
Y9374D01*
X11642Y9378D01*
X11646Y9378D01*
X11660Y9361D01*
D02*
G37*
G36*
X12816Y9360D02*
Y9233D01*
X12803Y9229D01*
X12801Y9232D01*
X12782Y9246D01*
X12761Y9255D01*
X12738Y9258D01*
X12715Y9255D01*
X12694Y9246D01*
X12676Y9232D01*
X12661Y9214D01*
X12653Y9192D01*
X12650Y9169D01*
X12653Y9147D01*
X12661Y9125D01*
X12676Y9107D01*
X12694Y9093D01*
X12715Y9084D01*
X12738Y9081D01*
X12761Y9084D01*
X12782Y9093D01*
X12801Y9107D01*
X12803Y9110D01*
X12816Y9106D01*
Y8917D01*
X12803Y8912D01*
X12637Y9079D01*
Y9286D01*
X12697Y9346D01*
X12715Y9338D01*
X12738Y9335D01*
X12761Y9338D01*
X12782Y9347D01*
X12801Y9361D01*
X12803Y9364D01*
X12816Y9360D01*
D02*
G37*
G36*
X12484Y6458D02*
X12473Y6444D01*
X12466Y6426D01*
X12463Y6406D01*
X12466Y6386D01*
X12473Y6367D01*
X12486Y6352D01*
X12502Y6339D01*
X12520Y6332D01*
X12521Y6331D01*
X12520Y6319D01*
X12450D01*
X12450Y6319D01*
Y6319D01*
X12438Y6320D01*
X12436Y6325D01*
X12424Y6341D01*
X12408Y6353D01*
X12390Y6361D01*
X12370Y6363D01*
X12350Y6361D01*
X12331Y6353D01*
X12315Y6341D01*
X12303Y6325D01*
X12296Y6306D01*
X12293Y6287D01*
X12296Y6267D01*
X12303Y6248D01*
X12315Y6232D01*
X12326Y6224D01*
Y6211D01*
X12325Y6205D01*
X12325Y6204D01*
X12317Y6194D01*
X12273D01*
X12263Y6205D01*
X12263Y6205D01*
X12261Y6213D01*
X12260Y6220D01*
X12271Y6235D01*
X12279Y6254D01*
X12282Y6274D01*
X12279Y6294D01*
X12271Y6312D01*
X12259Y6328D01*
X12243Y6340D01*
X12225Y6348D01*
X12205Y6351D01*
X12185Y6348D01*
X12166Y6340D01*
X12150Y6328D01*
X12138Y6312D01*
X12130Y6294D01*
X12128Y6274D01*
X12130Y6254D01*
X12138Y6235D01*
X12150Y6219D01*
X12162Y6210D01*
X12163Y6208D01*
X12155Y6197D01*
X12153Y6197D01*
X12144Y6200D01*
X12143Y6208D01*
X12137Y6216D01*
X12112Y6241D01*
X12103Y6247D01*
X12093Y6249D01*
X11921D01*
Y6281D01*
X11839D01*
Y6344D01*
X11966Y6471D01*
X12481D01*
X12484Y6458D01*
D02*
G37*
G36*
X12760Y9522D02*
X12754Y9510D01*
X12738Y9512D01*
X12715Y9509D01*
X12694Y9500D01*
X12676Y9486D01*
X12661Y9468D01*
X12653Y9446D01*
X12650Y9423D01*
X12653Y9401D01*
X12660Y9382D01*
X12593Y9315D01*
X12587Y9306D01*
X12585Y9296D01*
Y9068D01*
X12587Y9058D01*
X12593Y9049D01*
X12763Y8879D01*
Y8779D01*
X12751Y8769D01*
X12706D01*
X12383Y9091D01*
Y9296D01*
X12381Y9306D01*
X12375Y9315D01*
X12367Y9320D01*
X12357Y9322D01*
X11923D01*
X11875Y9371D01*
Y9524D01*
X11886Y9536D01*
X12746D01*
X12760Y9522D01*
D02*
G37*
%LPC*%
G36*
X9881Y6751D02*
X9859Y6748D01*
X9839Y6740D01*
X9822Y6726D01*
X9808Y6709D01*
X9800Y6689D01*
X9797Y6668D01*
X9800Y6646D01*
X9808Y6626D01*
X9822Y6609D01*
X9839Y6595D01*
X9859Y6587D01*
X9881Y6584D01*
X9902Y6587D01*
X9922Y6595D01*
X9940Y6609D01*
X9953Y6626D01*
X9961Y6646D01*
X9964Y6668D01*
X9961Y6689D01*
X9953Y6709D01*
X9940Y6726D01*
X9922Y6740D01*
X9902Y6748D01*
X9881Y6751D01*
D02*
G37*
G36*
X9512Y6444D02*
Y6369D01*
X9588D01*
X9586Y6380D01*
X9577Y6401D01*
X9563Y6420D01*
X9544Y6434D01*
X9523Y6443D01*
X9512Y6444D01*
D02*
G37*
G36*
X9487D02*
X9476Y6443D01*
X9455Y6434D01*
X9436Y6420D01*
X9422Y6401D01*
X9413Y6380D01*
X9412Y6369D01*
X9487D01*
Y6444D01*
D02*
G37*
G36*
X10135Y6751D02*
X10113Y6748D01*
X10093Y6740D01*
X10076Y6726D01*
X10062Y6709D01*
X10054Y6689D01*
X10051Y6668D01*
X10054Y6646D01*
X10062Y6626D01*
X10076Y6609D01*
X10093Y6595D01*
X10113Y6587D01*
X10135Y6584D01*
X10156Y6587D01*
X10176Y6595D01*
X10194Y6609D01*
X10207Y6626D01*
X10215Y6646D01*
X10218Y6668D01*
X10215Y6689D01*
X10207Y6709D01*
X10194Y6726D01*
X10176Y6740D01*
X10156Y6748D01*
X10135Y6751D01*
D02*
G37*
G36*
X10376D02*
X10354Y6748D01*
X10334Y6740D01*
X10317Y6726D01*
X10304Y6709D01*
X10295Y6689D01*
X10292Y6668D01*
X10295Y6646D01*
X10304Y6626D01*
X10317Y6609D01*
X10334Y6595D01*
X10354Y6587D01*
X10376Y6584D01*
X10397Y6587D01*
X10418Y6595D01*
X10435Y6609D01*
X10448Y6626D01*
X10456Y6646D01*
X10459Y6668D01*
X10456Y6689D01*
X10448Y6709D01*
X10435Y6726D01*
X10418Y6740D01*
X10397Y6748D01*
X10376Y6751D01*
D02*
G37*
G36*
X10410Y6331D02*
X10362D01*
Y6274D01*
X10410D01*
Y6331D01*
D02*
G37*
G36*
X10337D02*
X10289D01*
Y6274D01*
X10337D01*
Y6331D01*
D02*
G37*
G36*
X9709Y6750D02*
X9544D01*
Y6585D01*
X9709D01*
Y6750D01*
D02*
G37*
G36*
X10497Y5613D02*
X10444D01*
Y5556D01*
X10497D01*
Y5613D01*
D02*
G37*
G36*
X10575D02*
X10522D01*
Y5556D01*
X10575D01*
Y5613D01*
D02*
G37*
G36*
X9881Y5193D02*
X9870Y5192D01*
X9848Y5183D01*
X9830Y5169D01*
X9816Y5150D01*
X9807Y5129D01*
X9805Y5118D01*
X9881D01*
Y5193D01*
D02*
G37*
G36*
X9981Y5093D02*
X9906D01*
Y5017D01*
X9917Y5019D01*
X9938Y5028D01*
X9957Y5042D01*
X9971Y5061D01*
X9980Y5082D01*
X9981Y5093D01*
D02*
G37*
G36*
X9906Y5193D02*
Y5118D01*
X9981D01*
X9980Y5129D01*
X9971Y5150D01*
X9957Y5169D01*
X9938Y5183D01*
X9917Y5192D01*
X9906Y5193D01*
D02*
G37*
G36*
X9881Y5093D02*
X9805D01*
X9807Y5082D01*
X9816Y5061D01*
X9830Y5042D01*
X9848Y5028D01*
X9870Y5019D01*
X9881Y5017D01*
Y5093D01*
D02*
G37*
G36*
X11023Y5207D02*
X10947D01*
Y5132D01*
X10958Y5133D01*
X10980Y5142D01*
X10998Y5156D01*
X11012Y5175D01*
X11021Y5196D01*
X11023Y5207D01*
D02*
G37*
G36*
X10922D02*
X10847D01*
X10848Y5196D01*
X10857Y5175D01*
X10871Y5156D01*
X10890Y5142D01*
X10911Y5133D01*
X10922Y5132D01*
Y5207D01*
D02*
G37*
G36*
Y5308D02*
X10911Y5306D01*
X10890Y5297D01*
X10871Y5283D01*
X10857Y5265D01*
X10848Y5243D01*
X10847Y5232D01*
X10922D01*
Y5308D01*
D02*
G37*
G36*
X11011Y5512D02*
X10918D01*
Y5339D01*
X11011D01*
Y5512D01*
D02*
G37*
G36*
X10947Y5308D02*
Y5232D01*
X11023D01*
X11021Y5243D01*
X11012Y5265D01*
X10998Y5283D01*
X10980Y5297D01*
X10958Y5306D01*
X10947Y5308D01*
D02*
G37*
G36*
X11011Y5710D02*
X10918D01*
Y5537D01*
X11011D01*
Y5710D01*
D02*
G37*
G36*
X11976Y9258D02*
X11953Y9255D01*
X11932Y9246D01*
X11914Y9232D01*
X11899Y9214D01*
X11891Y9192D01*
X11888Y9169D01*
X11891Y9147D01*
X11899Y9125D01*
X11914Y9107D01*
X11932Y9093D01*
X11953Y9084D01*
X11976Y9081D01*
X11999Y9084D01*
X12020Y9093D01*
X12039Y9107D01*
X12053Y9125D01*
X12062Y9147D01*
X12065Y9169D01*
X12062Y9192D01*
X12053Y9214D01*
X12039Y9232D01*
X12020Y9246D01*
X11999Y9255D01*
X11976Y9258D01*
D02*
G37*
G36*
X12230D02*
X12207Y9255D01*
X12186Y9246D01*
X12168Y9232D01*
X12153Y9214D01*
X12145Y9192D01*
X12142Y9169D01*
X12145Y9147D01*
X12153Y9125D01*
X12168Y9107D01*
X12186Y9093D01*
X12207Y9084D01*
X12230Y9081D01*
X12253Y9084D01*
X12274Y9093D01*
X12293Y9107D01*
X12307Y9125D01*
X12316Y9147D01*
X12319Y9169D01*
X12316Y9192D01*
X12307Y9214D01*
X12293Y9232D01*
X12274Y9246D01*
X12253Y9255D01*
X12230Y9258D01*
D02*
G37*
G36*
X9386Y8224D02*
X9339D01*
Y8166D01*
X9386D01*
Y8224D01*
D02*
G37*
G36*
X10311Y8262D02*
X10264D01*
Y8204D01*
X10311D01*
Y8262D01*
D02*
G37*
G36*
X11569Y6198D02*
X11493D01*
Y6122D01*
X11504Y6124D01*
X11526Y6133D01*
X11544Y6147D01*
X11558Y6165D01*
X11567Y6187D01*
X11569Y6198D01*
D02*
G37*
G36*
X11711Y6210D02*
X11663D01*
Y6153D01*
X11711D01*
Y6210D01*
D02*
G37*
G36*
X11493Y6298D02*
Y6223D01*
X11569D01*
X11567Y6234D01*
X11558Y6255D01*
X11544Y6274D01*
X11526Y6288D01*
X11504Y6297D01*
X11493Y6298D01*
D02*
G37*
G36*
X11711Y6293D02*
X11663D01*
Y6236D01*
X11711D01*
Y6293D01*
D02*
G37*
G36*
X11589Y6052D02*
X11536D01*
Y5994D01*
X11589D01*
Y6052D01*
D02*
G37*
G36*
X12770Y7544D02*
X12717D01*
Y7486D01*
X12770D01*
Y7544D01*
D02*
G37*
G36*
X13360Y7615D02*
X13268D01*
Y7442D01*
X13360D01*
Y7615D01*
D02*
G37*
G36*
X12848Y7544D02*
X12795D01*
Y7486D01*
X12848D01*
Y7544D01*
D02*
G37*
G36*
Y7627D02*
X12795D01*
Y7569D01*
X12848D01*
Y7627D01*
D02*
G37*
G36*
X12675Y7252D02*
X12599D01*
X12601Y7241D01*
X12610Y7220D01*
X12624Y7201D01*
X12642Y7187D01*
X12664Y7178D01*
X12675Y7176D01*
Y7252D01*
D02*
G37*
G36*
X12775D02*
X12700D01*
Y7176D01*
X12711Y7178D01*
X12732Y7187D01*
X12751Y7201D01*
X12765Y7220D01*
X12774Y7241D01*
X12775Y7252D01*
D02*
G37*
G36*
X12700Y7352D02*
Y7277D01*
X12775D01*
X12774Y7288D01*
X12765Y7309D01*
X12751Y7328D01*
X12732Y7342D01*
X12711Y7351D01*
X12700Y7352D01*
D02*
G37*
G36*
X12658Y7417D02*
X12610D01*
Y7359D01*
X12646D01*
X12647Y7359D01*
X12650Y7359D01*
X12653Y7348D01*
Y7348D01*
Y7348D01*
X12642Y7342D01*
X12642Y7342D01*
X12624Y7328D01*
X12610Y7309D01*
X12601Y7288D01*
X12599Y7277D01*
X12675D01*
Y7353D01*
X12664Y7354D01*
X12658Y7362D01*
X12658Y7362D01*
X12658Y7369D01*
Y7417D01*
D02*
G37*
G36*
X13360D02*
X13268D01*
Y7244D01*
X13360D01*
Y7417D01*
D02*
G37*
G36*
X11758Y8141D02*
X11711D01*
Y8083D01*
X11758D01*
Y8141D01*
D02*
G37*
G36*
X11685D02*
X11637D01*
Y8083D01*
X11685D01*
Y8141D01*
D02*
G37*
G36*
X11711Y8507D02*
Y8432D01*
X11786D01*
X11785Y8442D01*
X11776Y8464D01*
X11761Y8482D01*
X11743Y8497D01*
X11721Y8506D01*
X11711Y8507D01*
D02*
G37*
G36*
X11786Y8406D02*
X11711D01*
Y8331D01*
X11721Y8332D01*
X11743Y8341D01*
X11761Y8355D01*
X11776Y8374D01*
X11785Y8396D01*
X11786Y8406D01*
D02*
G37*
G36*
X12610Y8262D02*
X12562D01*
Y8204D01*
X12610D01*
Y8262D01*
D02*
G37*
G36*
X11983Y8681D02*
X11817D01*
Y8515D01*
X11983D01*
Y8681D01*
D02*
G37*
G36*
X12154Y8681D02*
X12132Y8678D01*
X12112Y8670D01*
X12095Y8657D01*
X12082Y8640D01*
X12073Y8619D01*
X12070Y8598D01*
X12073Y8576D01*
X12082Y8556D01*
X12095Y8539D01*
X12112Y8526D01*
X12132Y8517D01*
X12154Y8514D01*
X12175Y8517D01*
X12196Y8526D01*
X12213Y8539D01*
X12226Y8556D01*
X12234Y8576D01*
X12237Y8598D01*
X12234Y8619D01*
X12226Y8640D01*
X12213Y8657D01*
X12196Y8670D01*
X12175Y8678D01*
X12154Y8681D01*
D02*
G37*
G36*
X11758Y8224D02*
X11711D01*
Y8166D01*
X11758D01*
Y8224D01*
D02*
G37*
G36*
X11654Y8059D02*
X11601D01*
Y8001D01*
X11654D01*
Y8059D01*
D02*
G37*
G36*
X12230Y9512D02*
X12207Y9509D01*
X12186Y9500D01*
X12168Y9486D01*
X12153Y9468D01*
X12145Y9446D01*
X12142Y9423D01*
X12145Y9401D01*
X12153Y9379D01*
X12168Y9361D01*
X12186Y9347D01*
X12207Y9338D01*
X12230Y9335D01*
X12253Y9338D01*
X12274Y9347D01*
X12293Y9361D01*
X12307Y9379D01*
X12316Y9401D01*
X12319Y9423D01*
X12316Y9446D01*
X12307Y9468D01*
X12293Y9486D01*
X12274Y9500D01*
X12253Y9509D01*
X12230Y9512D01*
D02*
G37*
G36*
X11976D02*
X11953Y9509D01*
X11932Y9500D01*
X11914Y9486D01*
X11899Y9468D01*
X11891Y9446D01*
X11888Y9423D01*
X11891Y9401D01*
X11899Y9379D01*
X11914Y9361D01*
X11932Y9347D01*
X11953Y9338D01*
X11976Y9335D01*
X11999Y9338D01*
X12020Y9347D01*
X12039Y9361D01*
X12053Y9379D01*
X12062Y9401D01*
X12065Y9423D01*
X12062Y9446D01*
X12053Y9468D01*
X12039Y9486D01*
X12020Y9500D01*
X11999Y9509D01*
X11976Y9512D01*
D02*
G37*
G36*
X12484D02*
X12461Y9509D01*
X12440Y9500D01*
X12422Y9486D01*
X12407Y9468D01*
X12399Y9446D01*
X12396Y9423D01*
X12399Y9401D01*
X12407Y9379D01*
X12422Y9361D01*
X12440Y9347D01*
X12461Y9338D01*
X12484Y9335D01*
X12507Y9338D01*
X12528Y9347D01*
X12547Y9361D01*
X12561Y9379D01*
X12570Y9401D01*
X12573Y9423D01*
X12570Y9446D01*
X12561Y9468D01*
X12547Y9486D01*
X12528Y9500D01*
X12507Y9509D01*
X12484Y9512D01*
D02*
G37*
G36*
Y9258D02*
X12461Y9255D01*
X12440Y9246D01*
X12422Y9232D01*
X12407Y9214D01*
X12399Y9192D01*
X12396Y9169D01*
X12399Y9147D01*
X12407Y9125D01*
X12422Y9107D01*
X12440Y9093D01*
X12461Y9084D01*
X12484Y9081D01*
X12507Y9084D01*
X12528Y9093D01*
X12547Y9107D01*
X12561Y9125D01*
X12570Y9147D01*
X12573Y9169D01*
X12570Y9192D01*
X12561Y9214D01*
X12547Y9232D01*
X12528Y9246D01*
X12507Y9255D01*
X12484Y9258D01*
D02*
G37*
%LPD*%
D10*
X12018Y7987D02*
D03*
Y7937D02*
D03*
Y7887D02*
D03*
Y7837D02*
D03*
Y7787D02*
D03*
Y7737D02*
D03*
Y7687D02*
D03*
Y7637D02*
D03*
X12518D02*
D03*
Y7687D02*
D03*
Y7737D02*
D03*
Y7787D02*
D03*
Y7837D02*
D03*
Y7887D02*
D03*
Y7937D02*
D03*
Y7987D02*
D03*
X9719D02*
D03*
Y7937D02*
D03*
Y7887D02*
D03*
Y7837D02*
D03*
Y7787D02*
D03*
Y7737D02*
D03*
Y7687D02*
D03*
Y7637D02*
D03*
X10219D02*
D03*
Y7687D02*
D03*
Y7737D02*
D03*
Y7787D02*
D03*
Y7837D02*
D03*
Y7887D02*
D03*
Y7937D02*
D03*
Y7987D02*
D03*
X12044Y6056D02*
D03*
Y6006D02*
D03*
Y5956D02*
D03*
Y5906D02*
D03*
Y5856D02*
D03*
Y5806D02*
D03*
Y5756D02*
D03*
Y5706D02*
D03*
X12544D02*
D03*
Y5756D02*
D03*
Y5806D02*
D03*
Y5856D02*
D03*
Y5906D02*
D03*
Y5956D02*
D03*
Y6006D02*
D03*
Y6056D02*
D03*
X9745D02*
D03*
Y6006D02*
D03*
Y5956D02*
D03*
Y5906D02*
D03*
Y5856D02*
D03*
Y5806D02*
D03*
Y5756D02*
D03*
Y5706D02*
D03*
X10245D02*
D03*
Y5756D02*
D03*
Y5806D02*
D03*
Y5856D02*
D03*
Y5906D02*
D03*
Y5956D02*
D03*
Y6006D02*
D03*
Y6056D02*
D03*
D11*
X12093Y7562D02*
D03*
X12143D02*
D03*
X12193D02*
D03*
X12243D02*
D03*
X12293D02*
D03*
X12343D02*
D03*
X12393D02*
D03*
X12443D02*
D03*
Y8062D02*
D03*
X12393D02*
D03*
X12343D02*
D03*
X12293D02*
D03*
X12243D02*
D03*
X12193D02*
D03*
X12143D02*
D03*
X12093D02*
D03*
X9794Y7562D02*
D03*
X9844D02*
D03*
X9894D02*
D03*
X9944D02*
D03*
X9994D02*
D03*
X10044D02*
D03*
X10094D02*
D03*
X10144D02*
D03*
Y8062D02*
D03*
X10094D02*
D03*
X10044D02*
D03*
X9994D02*
D03*
X9944D02*
D03*
X9894D02*
D03*
X9844D02*
D03*
X9794D02*
D03*
X12119Y5631D02*
D03*
X12169D02*
D03*
X12219D02*
D03*
X12269D02*
D03*
X12319D02*
D03*
X12369D02*
D03*
X12419D02*
D03*
X12469D02*
D03*
Y6131D02*
D03*
X12419D02*
D03*
X12369D02*
D03*
X12319D02*
D03*
X12269D02*
D03*
X12219D02*
D03*
X12169D02*
D03*
X12119D02*
D03*
X9820Y5631D02*
D03*
X9870D02*
D03*
X9920D02*
D03*
X9970D02*
D03*
X10020D02*
D03*
X10070D02*
D03*
X10120D02*
D03*
X10170D02*
D03*
Y6131D02*
D03*
X10120D02*
D03*
X10070D02*
D03*
X10020D02*
D03*
X9970D02*
D03*
X9920D02*
D03*
X9870D02*
D03*
X9820D02*
D03*
D12*
X12268Y7812D02*
D03*
X9969D02*
D03*
X12294Y5881D02*
D03*
X9995D02*
D03*
D13*
X9843Y7436D02*
D03*
Y7296D02*
D03*
X9715Y7296D02*
D03*
Y7436D02*
D03*
X9576Y7665D02*
D03*
Y7525D02*
D03*
X11900Y5734D02*
D03*
Y5594D02*
D03*
X12040Y5366D02*
D03*
Y5506D02*
D03*
X12167Y5506D02*
D03*
Y5366D02*
D03*
X9601Y5734D02*
D03*
Y5594D02*
D03*
X9741Y5366D02*
D03*
Y5506D02*
D03*
X9868Y5506D02*
D03*
Y5366D02*
D03*
X11875Y7665D02*
D03*
Y7525D02*
D03*
X12014Y7296D02*
D03*
Y7436D02*
D03*
X12141Y7436D02*
D03*
Y7296D02*
D03*
D14*
X9392Y7938D02*
D03*
X9252D02*
D03*
X10344Y7557D02*
D03*
X10484D02*
D03*
X12668Y5626D02*
D03*
X12808D02*
D03*
X11741Y5982D02*
D03*
X11601D02*
D03*
X10369Y5626D02*
D03*
X10509D02*
D03*
X9620Y5994D02*
D03*
X9480D02*
D03*
X12643Y7557D02*
D03*
X12783D02*
D03*
X11729Y7988D02*
D03*
X11589D02*
D03*
D15*
X8767Y5004D02*
D03*
Y5512D02*
D03*
D16*
X7747Y5258D02*
D03*
D17*
X10148Y7429D02*
D03*
X10299D02*
D03*
X9425Y7785D02*
D03*
X9575D02*
D03*
X9399Y8153D02*
D03*
X9549D02*
D03*
X10324Y8192D02*
D03*
X10174D02*
D03*
X12648Y6261D02*
D03*
X12498D02*
D03*
X11723Y6223D02*
D03*
X11873D02*
D03*
X11774Y5867D02*
D03*
X11924D02*
D03*
X12473Y5499D02*
D03*
X12623D02*
D03*
X10349Y6261D02*
D03*
X10199D02*
D03*
X9425Y6223D02*
D03*
X9575D02*
D03*
X9475Y5867D02*
D03*
X9625D02*
D03*
X10174Y5499D02*
D03*
X10324D02*
D03*
X12623Y8192D02*
D03*
X12473D02*
D03*
X11698Y8153D02*
D03*
X11848D02*
D03*
X11749Y7798D02*
D03*
X11899D02*
D03*
X12447Y7429D02*
D03*
X12597D02*
D03*
D18*
X10096Y7164D02*
D03*
Y7314D02*
D03*
X8966Y8066D02*
D03*
Y8216D02*
D03*
Y7393D02*
D03*
Y7543D02*
D03*
X12421Y5234D02*
D03*
Y5384D02*
D03*
X10122Y5234D02*
D03*
Y5384D02*
D03*
X12395Y7164D02*
D03*
Y7314D02*
D03*
X8966Y8903D02*
D03*
Y8753D02*
D03*
X9106Y5307D02*
D03*
Y5157D02*
D03*
D19*
X11024Y6033D02*
D03*
Y5524D02*
D03*
X13360Y5982D02*
D03*
Y5474D02*
D03*
X10998Y7950D02*
D03*
Y7442D02*
D03*
X13373Y7938D02*
D03*
Y7429D02*
D03*
X8712Y6680D02*
D03*
Y6172D02*
D03*
D20*
X11024Y6083D02*
X11201D01*
X9392Y7912D02*
X9503D01*
X12783Y7557D02*
X13373D01*
X12597Y7153D02*
Y7429D01*
X10484Y7557D02*
X10998D01*
X12808Y5626D02*
X13360D01*
X8712Y5512D02*
Y6172D01*
X8623Y7010D02*
X8712Y6921D01*
X7991Y7010D02*
X8623D01*
X7671Y7330D02*
X7991Y7010D01*
X8344Y8115D02*
X8496Y8268D01*
X8344Y7747D02*
Y8115D01*
Y7747D02*
X8496Y7595D01*
X8344Y8788D02*
X8496Y8941D01*
X8344Y8420D02*
Y8788D01*
Y8420D02*
X8496Y8268D01*
X7417Y5258D02*
Y6419D01*
X11877Y4478D02*
X11913Y4514D01*
X11013Y4478D02*
X11877D01*
X11913Y5239D02*
X12040Y5366D01*
X11913Y4514D02*
Y5239D01*
X9335Y8750D02*
X10998D01*
X9284Y8700D02*
X9335Y8750D01*
X11087Y5116D02*
X11168Y5197D01*
X11087Y4552D02*
Y5116D01*
X11013Y4478D02*
X11087Y4552D01*
X9500Y6357D02*
X9554Y6411D01*
X9425Y6282D02*
X9500Y6357D01*
X13373Y7938D02*
Y8557D01*
Y7930D02*
Y7938D01*
X8712Y6680D02*
Y6883D01*
Y6665D02*
Y6680D01*
X9881Y8149D02*
X9895Y8135D01*
X10045D02*
X10046Y8136D01*
X10262Y8001D02*
X10325Y8064D01*
X12343Y8135D02*
X12344Y8136D01*
X12179Y8149D02*
X12193Y8135D01*
X12586Y6071D02*
X12649Y6134D01*
X12205Y6219D02*
X12219Y6205D01*
X9906Y6219D02*
X9920Y6205D01*
X7671Y6673D02*
Y6985D01*
X13360Y5474D02*
Y5626D01*
X7671Y7330D02*
Y7493D01*
X13360Y5982D02*
Y6807D01*
X13518Y6965D01*
X8712Y6665D02*
X8849Y6528D01*
X9047D01*
X9154Y6421D01*
X9262Y5366D02*
X9741D01*
X11024Y6838D02*
X11143Y6957D01*
X10998Y7943D02*
X11143Y7798D01*
X12141Y7214D02*
Y7296D01*
Y7214D02*
X12273Y7082D01*
X12526D01*
X12597Y7153D01*
X12014Y6800D02*
Y7296D01*
Y6800D02*
X12032Y6782D01*
X13162D02*
X13518Y7137D01*
X9741Y4572D02*
X9835Y4478D01*
X9741Y4572D02*
Y5366D01*
X11168Y5197D02*
Y5880D01*
X11024Y6025D02*
X11168Y5880D01*
X11723Y6130D02*
Y6223D01*
X9425D02*
Y6282D01*
X9554Y6411D02*
X10319D01*
X10349Y6380D01*
Y6261D02*
Y6380D01*
X9715Y7071D02*
Y7296D01*
X10998Y7442D02*
Y7557D01*
X9843Y7153D02*
Y7296D01*
Y7153D02*
X9926Y7069D01*
X10215D01*
X10299Y7153D01*
X13249Y8682D02*
X13373Y8557D01*
X12860Y8778D02*
X12957Y8682D01*
X12860Y8778D02*
Y9484D01*
X12765Y9580D02*
X12860Y9484D01*
X11251Y9580D02*
X12765D01*
X11181Y9510D02*
X11251Y9580D01*
X11181Y9050D02*
Y9510D01*
X10998Y8867D02*
X11181Y9050D01*
X12344Y8136D02*
Y8217D01*
X10070Y6205D02*
X10071Y6206D01*
Y6287D01*
X10287Y6111D02*
X10328D01*
X10350Y6134D01*
X10046Y8136D02*
Y8217D01*
X12179Y8149D02*
X12193Y8135D01*
X8712Y5512D02*
X8767D01*
X9906Y6219D02*
X9920Y6205D01*
X12205Y6219D02*
X12219Y6205D01*
X9881Y8149D02*
X9895Y8135D01*
X8901Y5307D02*
X9106D01*
X8767Y5442D02*
X8901Y5307D01*
X8767Y5442D02*
Y5512D01*
X7534Y8854D02*
X7683Y9004D01*
X7534Y7630D02*
Y8854D01*
Y7630D02*
X7671Y7493D01*
X9881Y8149D02*
Y8149D01*
Y8204D01*
X12205Y6219D02*
Y6219D01*
X10287Y6071D02*
X10328Y6111D01*
X9906Y6219D02*
Y6219D01*
Y6274D01*
X10299Y7153D02*
Y7381D01*
Y7429D01*
X12560Y8001D02*
X12624Y8064D01*
X12179Y8149D02*
Y8149D01*
X9835Y4478D02*
X11013D01*
X13518Y6965D02*
Y7137D01*
X7417Y6419D02*
X7671Y6673D01*
X13373Y7930D02*
X13518Y7785D01*
Y7137D02*
Y7785D01*
X13373Y7429D02*
Y7557D01*
X9656Y6117D02*
X9703Y6071D01*
X9620Y5994D02*
Y6002D01*
X9527Y6096D02*
X9620Y6002D01*
X9088Y6203D02*
X9154Y6269D01*
Y6421D01*
X9088Y5540D02*
Y6203D01*
Y5540D02*
X9262Y5366D01*
X9347Y6096D02*
X9527D01*
X9068Y6528D02*
X9144Y6604D01*
X9047Y6528D02*
X9068D01*
X10541Y6160D02*
Y6782D01*
X10338Y5956D02*
X10541Y6160D01*
X10733Y7010D02*
X10821D01*
X10847Y6985D01*
X11130D01*
X11143Y6998D01*
Y6957D02*
Y6998D01*
Y7798D01*
X9715Y7071D02*
X9802Y6985D01*
X10708D01*
X10733Y7010D01*
X10318Y5956D02*
X10338D01*
X10318Y5956D02*
X10318Y5956D01*
X12205Y6219D02*
Y6274D01*
X12369Y6205D02*
X12370Y6206D01*
Y6287D01*
X12941Y6604D02*
Y6782D01*
X12032D02*
X12941D01*
X13162D01*
X11955Y6117D02*
X12001Y6071D01*
X11024Y6025D02*
Y6033D01*
Y6083D01*
Y6838D01*
X11741Y5982D02*
X11879D01*
X11938Y5989D02*
X11970Y5956D01*
X11925Y5989D02*
X11938D01*
X13018Y8560D02*
Y8669D01*
X13005Y8682D02*
X13018Y8669D01*
X12957Y8682D02*
X13005D01*
X13249D01*
X11729Y7988D02*
X11791D01*
X11861Y7919D01*
X11912D01*
X11945Y7887D01*
X11589Y7988D02*
Y8044D01*
X11698Y8153D01*
Y8419D01*
X11011Y7569D02*
Y7709D01*
X10998Y7557D02*
X11011Y7569D01*
X10871Y8446D02*
X10884Y8458D01*
X10998D01*
Y7943D02*
Y7950D01*
Y8458D01*
X10300Y7887D02*
X10339Y7926D01*
X10293Y7887D02*
X10300D01*
X10339Y7926D02*
X10365D01*
X10998Y8458D02*
Y8750D01*
Y8867D01*
X9631Y8047D02*
X9677Y8001D01*
X9540Y7941D02*
X9592D01*
X9646Y7887D01*
X9503Y7912D02*
X9536Y7945D01*
X9540Y7941D01*
X9220Y8026D02*
X9252Y7995D01*
X10299Y7381D02*
X10339Y7341D01*
X10427D01*
X12761Y6223D02*
X12764D01*
X12723Y6261D02*
X12761Y6223D01*
X12648Y6261D02*
X12723D01*
X12604Y7874D02*
X12649D01*
X12592Y7887D02*
X12604Y7874D01*
X11930Y8047D02*
X11976Y8001D01*
X12179Y8149D02*
Y8204D01*
X11879Y5982D02*
X11886Y5989D01*
X11668Y6108D02*
X11701D01*
X11723Y6130D01*
X11601Y6042D02*
X11668Y6108D01*
X11601Y5982D02*
Y6042D01*
D21*
X12343Y7737D02*
X12518D01*
X12018D02*
X12193D01*
X10466Y7486D02*
Y7557D01*
X12369Y5806D02*
X12544D01*
X12044D02*
X12219D01*
X10045Y7737D02*
X10220D01*
X9719D02*
X9894D01*
X10070Y5806D02*
X10245D01*
X9745D02*
X9920D01*
X9404Y6165D02*
X9465D01*
X9384Y6185D02*
X9404Y6165D01*
X12410Y5128D02*
Y5234D01*
X9207Y7798D02*
X9450D01*
Y7701D02*
Y7798D01*
X9428Y5878D02*
X9475D01*
X8242Y9070D02*
X8468Y9296D01*
X8242Y7595D02*
Y9070D01*
Y7595D02*
X8496Y7341D01*
X11829Y6497D02*
X11955D01*
X11773Y6553D02*
X11829Y6497D01*
X11773Y6553D02*
Y7191D01*
X11948Y7366D01*
X12436Y8867D02*
X12522Y8781D01*
Y8557D02*
Y8781D01*
Y8557D02*
X12713Y8367D01*
X10257Y8420D02*
X10473Y8203D01*
X9360Y8420D02*
X10257D01*
X9131Y8192D02*
X9360Y8420D01*
X12286Y4470D02*
X12357Y4542D01*
X12040Y4470D02*
X12286D01*
X12357Y4542D02*
Y5075D01*
X12410Y5128D01*
X9560Y7787D02*
X9611D01*
X9625Y5865D02*
X9627Y5866D01*
X9571Y5865D02*
X9625D01*
X11417Y7892D02*
X11468Y7943D01*
Y9266D01*
X11471Y9268D01*
X11463Y7892D02*
X11545Y7810D01*
X11417Y7892D02*
X11463D01*
X13246Y9423D02*
X13373Y9296D01*
Y8763D02*
Y9296D01*
Y8763D02*
X13602Y8534D01*
X11913Y9296D02*
X12357D01*
X11849Y9360D02*
X11913Y9296D01*
X11849Y9360D02*
Y9524D01*
X11722Y9373D02*
X11849Y9246D01*
X11722Y9373D02*
Y9423D01*
X11849Y9047D02*
Y9246D01*
Y9047D02*
X12029Y8867D01*
X12695Y8743D02*
X12751D01*
X12357Y9081D02*
X12695Y8743D01*
X12789Y7996D02*
Y8890D01*
X12611Y9068D02*
X12789Y8890D01*
X12611Y9068D02*
Y9296D01*
X12738Y9423D01*
X12357Y9081D02*
Y9296D01*
X12636Y7557D02*
X12649Y7544D01*
X10363Y5626D02*
X10376Y5613D01*
X12073Y5506D02*
Y5539D01*
X10338Y7557D02*
X10350Y7544D01*
X11900Y5639D02*
X11944D01*
X9774Y5506D02*
Y5539D01*
X12662Y5626D02*
X12675Y5613D01*
X9096Y5121D02*
Y5157D01*
X10145Y7523D02*
X10185D01*
X9611Y7787D02*
X9719D01*
X9598Y7687D02*
X9719D01*
X9576Y7665D02*
X9598Y7687D01*
X9715Y7436D02*
X9794Y7515D01*
X9994Y7499D02*
X10071Y7423D01*
Y7328D02*
Y7423D01*
X10094Y7562D02*
X10145D01*
X10045Y7503D02*
X10061Y7486D01*
X10092D01*
X9549Y8153D02*
X9754D01*
X10324D02*
Y8192D01*
X10409Y7540D02*
X10426Y7557D01*
X10409Y7501D02*
Y7540D01*
X10395Y7486D02*
X10409Y7501D01*
X9576Y7525D02*
X9688Y7637D01*
X12193Y7562D02*
X12243D01*
X11875Y7525D02*
X11987Y7637D01*
X12693Y7486D02*
X12708Y7501D01*
Y7540D02*
X12724Y7557D01*
X12783D01*
X12052Y8153D02*
X12090Y8115D01*
X12360Y7486D02*
X12390D01*
X12343Y7503D02*
X12360Y7486D01*
X12393Y7562D02*
X12443D01*
X12370Y7328D02*
Y7423D01*
X12293Y7499D02*
X12370Y7423D01*
X12014Y7436D02*
X12093Y7515D01*
X11875Y7665D02*
X11897Y7687D01*
X12018D01*
X11910Y7787D02*
X12018D01*
X12219Y5631D02*
X12269D01*
X12623Y5499D02*
X12679Y5556D01*
X12719D02*
X12733Y5571D01*
Y5610D01*
X12750Y5626D02*
X12808D01*
X12078Y6223D02*
X12116Y6185D01*
X12386Y5556D02*
X12416D01*
X12369Y5573D02*
X12386Y5556D01*
X12419Y5631D02*
X12469D01*
X12395Y5397D02*
Y5492D01*
X12319Y5569D02*
X12395Y5492D01*
X11900Y5734D02*
X11922Y5756D01*
X12044D01*
X11935Y5856D02*
X12044D01*
X9970Y5386D02*
X10122Y5234D01*
X9920Y5631D02*
X9970D01*
X9601Y5594D02*
X9713Y5706D01*
X10324Y5499D02*
X10381Y5556D01*
X10420D01*
X10435Y5571D01*
Y5610D02*
X10451Y5626D01*
X10509D01*
X9779Y6223D02*
X9817Y6185D01*
X9575Y6223D02*
X9779D01*
X10087Y5556D02*
X10117D01*
X10070Y5573D02*
X10087Y5556D01*
X10120Y5631D02*
X10170D01*
X10096Y5397D02*
Y5492D01*
X10020Y5569D02*
X10096Y5492D01*
X9601Y5734D02*
X9623Y5756D01*
X9745D01*
X9637Y5856D02*
X9745D01*
X12443Y8162D02*
X12473Y8192D01*
X12443Y8062D02*
Y8162D01*
X10145D02*
X10174Y8192D01*
X10145Y8062D02*
Y8162D01*
X12469Y6232D02*
X12498Y6261D01*
X12469Y6131D02*
Y6232D01*
X10170D02*
X10199Y6261D01*
X10170Y6131D02*
Y6232D01*
X11987Y7637D02*
X12018D01*
X12093Y7515D02*
Y7562D01*
X12143Y7438D02*
Y7562D01*
X12141Y7436D02*
X12143Y7438D01*
X9688Y7637D02*
X9719D01*
X9794Y7515D02*
Y7562D01*
X9845Y7438D02*
Y7562D01*
X9843Y7436D02*
X9845Y7438D01*
X12169Y5508D02*
Y5631D01*
X12167Y5506D02*
X12169Y5508D01*
X9713Y5706D02*
X9745D01*
X9870Y5508D02*
Y5631D01*
X9868Y5506D02*
X9870Y5508D01*
X10435Y5571D02*
Y5610D01*
X12708Y7501D02*
Y7540D01*
X12654Y7486D02*
X12693D01*
X12597Y7429D02*
X12654Y7486D01*
X12733Y5610D02*
X12750Y5626D01*
X12679Y5556D02*
X12719D01*
X9659Y5956D02*
X9745D01*
X9620Y5994D02*
X9659Y5956D01*
X9894Y7562D02*
X9945D01*
Y7316D02*
X10096Y7164D01*
X12269Y5386D02*
X12421Y5234D01*
X12269Y5386D02*
Y5631D01*
X8496Y7341D02*
X8705D01*
X8757Y7393D01*
X8966D01*
X8496Y8014D02*
X8705D01*
X8757Y8066D01*
X8966D01*
X12443Y7562D02*
X12540D01*
X12545Y7557D01*
X10145Y7562D02*
X10241D01*
X10246Y7557D01*
X12469Y5631D02*
X12565D01*
X12571Y5626D01*
X10170Y5631D02*
X10267D01*
X10272Y5626D01*
X8966Y8216D02*
Y8753D01*
Y7543D02*
X9037Y7614D01*
Y8145D01*
X8966Y8216D02*
X9037Y8145D01*
X10005Y7314D02*
X10096D01*
X9994Y7325D02*
X10005Y7314D01*
X10093Y7454D02*
X10124D01*
X10045Y7503D02*
Y7562D01*
X10030Y5384D02*
X10122D01*
X10020Y5394D02*
X10030Y5384D01*
X10119Y5524D02*
X10149D01*
X10070Y5573D02*
Y5631D01*
X12304Y7314D02*
X12395D01*
X12293Y7325D02*
X12304Y7314D01*
X12392Y7454D02*
X12422D01*
X12343Y7503D02*
Y7562D01*
X12329Y5384D02*
X12421D01*
X12319Y5394D02*
X12329Y5384D01*
X12418Y5524D02*
X12448D01*
X12369Y5573D02*
Y5631D01*
X8979Y5004D02*
X9096Y5121D01*
Y5157D02*
X9106D01*
X8496Y8687D02*
X8712Y8903D01*
X8966D01*
X10404Y5234D02*
X10706Y4931D01*
X10122Y5234D02*
X10404D01*
X12012Y5706D02*
X12044D01*
X11944Y5639D02*
X12012Y5706D01*
X10122Y5384D02*
X10215D01*
X10211Y5593D02*
X10236Y5568D01*
X10170Y5593D02*
Y5631D01*
X10096Y7314D02*
X10169D01*
X10211Y7356D01*
Y7498D01*
X10185Y7523D02*
X10211Y7498D01*
X10145Y7523D02*
Y7562D01*
X12395Y7314D02*
X12468D01*
X12510Y7356D01*
Y7498D01*
X12484Y7523D02*
X12510Y7498D01*
X12443Y7523D02*
Y7562D01*
X12421Y5384D02*
X12476D01*
X12535Y5442D01*
Y5568D01*
X12510Y5593D02*
X12535Y5568D01*
X12469Y5593D02*
Y5631D01*
X9820Y5585D02*
Y5631D01*
X9774Y5539D02*
X9820Y5585D01*
X9741Y5506D02*
X9774D01*
X12119Y5585D02*
Y5631D01*
X12073Y5539D02*
X12119Y5585D01*
X12040Y5506D02*
X12073D01*
X12518Y7637D02*
X12695D01*
X9794Y6223D02*
X9820Y6198D01*
Y6131D02*
Y6198D01*
X11948Y7366D02*
X12212D01*
X12243Y7336D01*
Y7310D02*
Y7336D01*
Y7310D02*
X12314Y7239D01*
X12375D02*
X12395Y7219D01*
Y7164D02*
Y7219D01*
X10299Y7429D02*
X10355Y7486D01*
X10548Y5974D02*
X10810D01*
X10871Y5913D01*
X10706Y5580D02*
X10871Y5745D01*
X9945Y7392D02*
Y7562D01*
X9916Y7363D02*
X9945Y7392D01*
X9647Y7363D02*
X9916D01*
X9619Y7336D02*
X9647Y7363D01*
X9619Y6909D02*
Y7336D01*
X10220Y7787D02*
X10366D01*
X11316Y9423D02*
X11471Y9268D01*
X11545Y7647D02*
Y7810D01*
Y7647D02*
X11585Y7607D01*
X11679D01*
X11847Y7775D01*
Y7798D01*
X11899D01*
X12029Y8867D02*
X12436D01*
X12093Y8062D02*
Y8130D01*
X12070Y8153D02*
X12093Y8130D01*
X9794Y8062D02*
Y8113D01*
X8496Y8014D02*
X8633Y8151D01*
Y8748D01*
X8727Y8842D01*
X10582D01*
X10681Y8941D01*
Y9296D01*
X10808Y9423D01*
X8468Y9296D02*
X10427D01*
X10554Y9423D01*
X9922Y5438D02*
X9970Y5486D01*
X9317Y5438D02*
X9922D01*
X9077Y7543D02*
X9266Y7353D01*
X10220Y7637D02*
X10410D01*
X9291Y7543D02*
X9450Y7701D01*
X11924Y5867D02*
X11935Y5856D01*
X11899Y7798D02*
X11910Y7787D01*
X9600Y7798D02*
X9611Y7787D01*
X10611Y5706D02*
X10780Y5875D01*
X10245Y5706D02*
X10611D01*
X9530Y8252D02*
X9728D01*
X9625Y5865D02*
Y5867D01*
X9627Y5866D01*
X9538Y5832D02*
X9571Y5865D01*
X9538Y5796D02*
Y5832D01*
X9418Y5796D02*
X9538D01*
X9326Y7157D02*
X9505Y7336D01*
Y7732D01*
X9560Y7787D01*
X11367Y6058D02*
X11628Y5796D01*
X11367Y6058D02*
Y7841D01*
X11417Y7892D01*
X10220Y7687D02*
X10404D01*
X12410Y5234D02*
X12421D01*
X9364Y7121D02*
X9606Y7363D01*
X9475Y5867D02*
Y5878D01*
X11664Y9524D02*
X11849D01*
X12213Y7366D02*
X12243Y7396D01*
X11813Y6354D02*
X11955Y6497D01*
X11774Y5867D02*
Y5895D01*
X12052Y8153D02*
X12070D01*
X12360Y7486D02*
X12392Y7454D01*
X12390Y7486D02*
X12422Y7454D01*
X12447Y7429D01*
X9754Y8153D02*
X9794Y8113D01*
X10061Y7486D02*
X10093Y7454D01*
X10092Y7486D02*
X10124Y7454D01*
X10148Y7429D01*
X12386Y5556D02*
X12418Y5524D01*
X12416Y5556D02*
X12448Y5524D01*
X12473Y5499D01*
X9779Y6223D02*
X9794D01*
X10087Y5556D02*
X10119Y5524D01*
X10117Y5556D02*
X10149Y5524D01*
X10174Y5499D01*
X12293Y7325D02*
Y7499D01*
Y7562D01*
X12443Y7523D02*
X12484D01*
X12545Y7557D02*
X12636D01*
X12643D01*
X12540Y7562D02*
X12631D01*
X12636Y7557D01*
X9994Y7325D02*
Y7499D01*
Y7562D01*
X10246Y7557D02*
X10338D01*
X10344D01*
X10241Y7562D02*
X10333D01*
X10338Y7557D01*
X12319Y5394D02*
Y5569D01*
Y5631D01*
X12469Y5593D02*
X12510D01*
X12571Y5626D02*
X12662D01*
X12668D01*
X12565Y5631D02*
X12657D01*
X12662Y5626D01*
X12040Y5506D02*
X12073Y5539D01*
X10020Y5394D02*
Y5569D01*
Y5631D01*
X10170Y5593D02*
X10211D01*
X10272Y5626D02*
X10363D01*
X10369D01*
X10267Y5631D02*
X10358D01*
X10363Y5626D01*
X9741Y5506D02*
X9774Y5539D01*
X10355Y7486D02*
X10395D01*
X10466D01*
X10426Y7557D02*
X10466D01*
X10484D01*
X9625Y5865D02*
X9628Y5865D01*
X9745Y5856D01*
X9627Y5866D02*
X9628Y5865D01*
X9637Y5856D01*
X8767Y5004D02*
X8979D01*
X9205D01*
X9970Y5386D02*
Y5486D01*
Y5631D01*
X10706Y4597D02*
Y4931D01*
Y5580D01*
X10871Y5745D02*
Y5913D01*
Y6360D01*
X8966Y7543D02*
X9077D01*
X9291D01*
X9606Y7363D02*
X9647D01*
X9945Y7316D02*
Y7392D01*
X12314Y7239D02*
X12320D01*
X12375D01*
X12243Y7316D02*
Y7396D01*
X12320Y7239D02*
X12395Y7164D01*
X12243Y7316D02*
X12320Y7239D01*
X11621Y7366D02*
X11948D01*
X12212D02*
X12213D01*
X12243Y7396D02*
Y7562D01*
X7417Y5258D02*
X7747D01*
X8712Y6883D02*
Y6921D01*
X12544Y5706D02*
X13517D01*
X13602Y5791D01*
Y8534D01*
X9894Y7737D02*
X9969Y7812D01*
X10045Y7737D01*
X12294Y5881D02*
X12369Y5806D01*
X12219D02*
X12294Y5881D01*
X9995D02*
X10070Y5806D01*
X9920D02*
X9995Y5881D01*
X9480Y5994D02*
Y6016D01*
X9457Y6040D02*
X9480Y6016D01*
X9417Y6040D02*
X9457D01*
X9384Y6007D02*
X9417Y6040D01*
X9310Y6007D02*
X9384D01*
X9258Y6059D02*
X9310Y6007D01*
X9258Y6059D02*
Y6133D01*
X9310Y6185D01*
X9384D01*
X9220Y6043D02*
X9295Y5969D01*
X9220Y6043D02*
Y6149D01*
X9182Y6028D02*
X9279Y5931D01*
X9182Y6028D02*
Y6164D01*
X9266Y6302D02*
Y7353D01*
X9144Y6180D02*
X9266Y6302D01*
X9144Y5611D02*
Y6180D01*
X9326Y6308D02*
Y7157D01*
X9279Y5931D02*
X9284D01*
X9182Y6164D02*
X9326Y6308D01*
X9364Y6293D02*
Y7121D01*
X9295Y5969D02*
X9337D01*
X9220Y6149D02*
X9364Y6293D01*
X9465Y6165D02*
X9472Y6173D01*
Y6175D01*
X9425Y6223D02*
X9472Y6175D01*
X9337Y5969D02*
X9428Y5878D01*
X9284Y5931D02*
X9418Y5796D01*
X9144Y5611D02*
X9317Y5438D01*
X10245Y5756D02*
X10330D01*
X10245Y5856D02*
X10347D01*
X10330Y5756D02*
X10548Y5974D01*
X10347Y5856D02*
X10673Y6182D01*
X9619Y6909D02*
X9627Y6901D01*
X10560D01*
X10630Y6831D01*
X12544Y5956D02*
X12636D01*
X12544Y5856D02*
X12675D01*
X12544Y5756D02*
X12629D01*
X12636Y5956D02*
X12662Y5982D01*
X12675D01*
X12078Y6223D02*
X12093D01*
X12119Y6198D01*
Y6131D02*
Y6198D01*
X11873Y6223D02*
X12078D01*
X11628Y5796D02*
X11841D01*
X11844Y5800D01*
X11924D01*
Y5867D01*
X11900Y5594D02*
X11944Y5639D01*
X11900Y5594D02*
Y5639D01*
X12686Y7785D02*
X12738Y7837D01*
Y7911D01*
X12776Y7821D02*
Y7927D01*
X12708Y7941D02*
X12738Y7911D01*
X12746Y7957D02*
X12776Y7927D01*
X12784Y7973D02*
X12814Y7942D01*
Y7756D02*
Y7942D01*
X12642Y7687D02*
X12776Y7821D01*
X12518Y7787D02*
X12520Y7785D01*
X12686D01*
X12518Y7687D02*
X12642D01*
X12695Y7637D02*
X12814Y7756D01*
X12636Y7887D02*
X12649Y7874D01*
X11608Y9468D02*
X11664Y9524D01*
X11608Y8280D02*
Y9468D01*
X11557Y8230D02*
X11608Y8280D01*
X11629Y7918D02*
X11749Y7798D01*
X11538Y7918D02*
X11629D01*
X11506Y7950D02*
X11538Y7918D01*
X11506Y7950D02*
Y8179D01*
X11557Y8230D01*
X10566Y7793D02*
Y7938D01*
X10473Y7756D02*
Y8203D01*
X10404Y7687D02*
X10473Y7756D01*
X10410Y7637D02*
X10566Y7793D01*
X10365Y7926D02*
X10385D01*
X9131Y7874D02*
Y8192D01*
Y7874D02*
X9207Y7798D01*
X9460Y8182D02*
X9530Y8252D01*
X9460Y8098D02*
Y8182D01*
X9370Y8008D02*
X9460Y8098D01*
X9341Y8008D02*
X9370D01*
X9326Y7993D02*
X9341Y8008D01*
X9326Y7866D02*
Y7993D01*
Y7866D02*
X9336Y7856D01*
X9555D01*
X9576Y7836D01*
X10215Y5384D02*
X10236Y5405D01*
Y5568D01*
X12629Y5756D02*
X12890Y6018D01*
X12540Y6406D02*
X12657D01*
X12675Y5856D02*
X12852Y6034D01*
X12800Y6312D02*
X12852Y6260D01*
X12751Y6312D02*
X12800D01*
X12657Y6406D02*
X12751Y6312D01*
X12852Y6034D02*
Y6260D01*
X11955Y6497D02*
X12731D01*
X12890Y6337D01*
Y6018D02*
Y6337D01*
X12708Y7941D02*
Y8023D01*
X12713Y8028D01*
X12746Y7957D02*
Y8007D01*
X12751Y8012D01*
X12784Y7973D02*
Y7991D01*
X12789Y7996D01*
X12751Y8012D02*
Y8743D01*
X12713Y8028D02*
Y8367D01*
X11848Y8153D02*
X12052D01*
X12193Y7737D02*
X12268Y7812D01*
X12343Y7737D01*
X11886Y5989D02*
X11925D01*
X11813Y6141D02*
Y6354D01*
X11724Y6052D02*
X11813Y6141D01*
X11691Y6052D02*
X11724D01*
X11667Y6029D02*
X11691Y6052D01*
X11667Y5922D02*
Y6029D01*
Y5922D02*
X11691Y5898D01*
X11743D01*
X11774Y5867D01*
X10630Y6601D02*
X10871Y6360D01*
X10630Y6601D02*
Y6756D01*
Y6831D01*
Y6756D02*
X10643Y6744D01*
X10770D01*
D22*
X8496Y7341D02*
D03*
Y8014D02*
D03*
Y8687D02*
D03*
X7658Y6007D02*
D03*
D23*
X8496Y7595D02*
D03*
Y8268D02*
D03*
Y8941D02*
D03*
X7658Y6261D02*
D03*
D24*
X12408Y8598D02*
D03*
X12154D02*
D03*
X12649D02*
D03*
X10109D02*
D03*
X9855D02*
D03*
X10350D02*
D03*
X12433Y6668D02*
D03*
X12179D02*
D03*
X12675D02*
D03*
X10135D02*
D03*
X9881D02*
D03*
X10376D02*
D03*
D25*
X11900Y8598D02*
D03*
X9601D02*
D03*
X11925Y6668D02*
D03*
X9627D02*
D03*
D26*
X7683Y8496D02*
D03*
X7671Y6985D02*
D03*
D27*
X7683Y9004D02*
D03*
X7671Y7493D02*
D03*
D28*
X11722Y9423D02*
D03*
X11976D02*
D03*
X12230D02*
D03*
X12484D02*
D03*
X12738D02*
D03*
X12992D02*
D03*
X13246D02*
D03*
X11062D02*
D03*
X10554D02*
D03*
X10300D02*
D03*
X10046D02*
D03*
X9792D02*
D03*
X9538D02*
D03*
X9284D02*
D03*
X9030D02*
D03*
X10808D02*
D03*
X11722Y9169D02*
D03*
X11976D02*
D03*
X12230D02*
D03*
X12484D02*
D03*
X12738D02*
D03*
X12992D02*
D03*
X13246D02*
D03*
X9538D02*
D03*
X9792D02*
D03*
X10046D02*
D03*
X10300D02*
D03*
X10554D02*
D03*
X10808D02*
D03*
X11062D02*
D03*
X12230Y4597D02*
D03*
X12484D02*
D03*
X12738D02*
D03*
X12992D02*
D03*
X13246D02*
D03*
X9944D02*
D03*
X10198D02*
D03*
X10452D02*
D03*
X10706D02*
D03*
X10960D02*
D03*
X11214D02*
D03*
X11468D02*
D03*
X12230Y4851D02*
D03*
X12484D02*
D03*
X12738D02*
D03*
X12992D02*
D03*
X13246D02*
D03*
X11468D02*
D03*
X11214D02*
D03*
X10960D02*
D03*
D29*
X13500Y9423D02*
D03*
X11316D02*
D03*
X13500Y9169D02*
D03*
X11316D02*
D03*
X13500Y4597D02*
D03*
X11722D02*
D03*
X13500Y4851D02*
D03*
X11722D02*
D03*
D30*
X12040Y4470D02*
D03*
X9205Y5004D02*
D03*
D31*
X12154Y7926D02*
D03*
X12268Y7812D02*
D03*
Y7926D02*
D03*
X12154Y7812D02*
D03*
Y7697D02*
D03*
X12268D02*
D03*
X12382D02*
D03*
Y7812D02*
D03*
Y7926D02*
D03*
X9855D02*
D03*
X9969Y7812D02*
D03*
Y7926D02*
D03*
X9855Y7812D02*
D03*
Y7697D02*
D03*
X9969D02*
D03*
X10084D02*
D03*
Y7812D02*
D03*
Y7926D02*
D03*
X12179Y5996D02*
D03*
X12294Y5881D02*
D03*
Y5996D02*
D03*
X12179Y5881D02*
D03*
Y5767D02*
D03*
X12294D02*
D03*
X12408D02*
D03*
Y5881D02*
D03*
Y5996D02*
D03*
X9881D02*
D03*
X9995Y5881D02*
D03*
Y5996D02*
D03*
X9881Y5881D02*
D03*
Y5767D02*
D03*
X9995D02*
D03*
X10109D02*
D03*
Y5881D02*
D03*
Y5996D02*
D03*
D32*
X10366Y7787D02*
D03*
X12344Y8217D02*
D03*
X10071Y6287D02*
D03*
X10350Y6134D02*
D03*
X12649D02*
D03*
X10046Y8217D02*
D03*
X10325Y8064D02*
D03*
X9906Y6274D02*
D03*
X9881Y8204D02*
D03*
X12540Y6406D02*
D03*
X10780Y5875D02*
D03*
X10673Y6182D02*
D03*
X9728Y8252D02*
D03*
X11621Y7366D02*
D03*
X9656Y6117D02*
D03*
X9347Y6096D02*
D03*
X9144Y6604D02*
D03*
X10541Y6782D02*
D03*
X12675Y5982D02*
D03*
X12205Y6274D02*
D03*
X12370Y6287D02*
D03*
X12941Y6604D02*
D03*
X11955Y6117D02*
D03*
X11201Y6083D02*
D03*
X12649Y7874D02*
D03*
X13018Y8560D02*
D03*
X11861Y7919D02*
D03*
X11557Y8230D02*
D03*
X11698Y8419D02*
D03*
X11011Y7709D02*
D03*
X10385Y7926D02*
D03*
X10566Y7938D02*
D03*
X10871Y8446D02*
D03*
X9220Y8026D02*
D03*
X9284Y8700D02*
D03*
X9631Y8047D02*
D03*
X9536Y7945D02*
D03*
X10325Y5347D02*
D03*
X12687Y7264D02*
D03*
Y5309D02*
D03*
X10427Y7341D02*
D03*
X12764Y6223D02*
D03*
X9500Y6357D02*
D03*
X9893Y5105D02*
D03*
X11481Y6210D02*
D03*
X10935Y5220D02*
D03*
X12624Y8064D02*
D03*
X11930Y8047D02*
D03*
X12179Y8204D02*
D03*
X11886Y5989D02*
D03*
X10770Y6744D02*
D03*
M02*
