G04 Layer_Physical_Order=1*
G04 Layer_Color=255*
%FSLAX44Y44*%
%MOMM*%
G71*
G01*
G75*
%ADD10R,1.0000X0.2500*%
%ADD11R,0.2500X1.0000*%
%ADD12R,3.4000X3.4000*%
%ADD13R,0.9000X0.8000*%
%ADD14R,0.8000X0.9000*%
%ADD15R,4.1500X1.0500*%
%ADD16R,8.8000X9.6000*%
%ADD17R,0.7000X0.9000*%
%ADD18R,0.9000X0.7000*%
%ADD19R,1.6000X3.2000*%
%ADD20C,0.6096*%
%ADD21C,0.2540*%
%ADD22R,1.8000X1.8000*%
%ADD23C,1.8000*%
%ADD24C,1.4000*%
%ADD25R,1.4000X1.4000*%
%ADD26C,1.9000*%
%ADD27R,1.9000X1.9000*%
%ADD28C,1.5000*%
%ADD29R,1.5000X1.5000*%
%ADD30C,0.6000*%
%ADD31C,1.2700*%
G36*
X1402177Y970377D02*
X1402080Y970280D01*
Y434340D01*
X713740D01*
X712472Y970651D01*
X713369Y971550D01*
X1401691D01*
X1402177Y970377D01*
D02*
G37*
%LPC*%
G36*
X1277542Y529590D02*
X1270000D01*
Y522048D01*
X1271036Y522254D01*
X1272139Y522629D01*
X1273185Y523144D01*
X1274154Y523792D01*
X1275030Y524560D01*
X1275798Y525437D01*
X1276445Y526405D01*
X1276961Y527451D01*
X1277336Y528554D01*
X1277542Y529590D01*
D02*
G37*
G36*
X909320Y529470D02*
X903550D01*
Y524700D01*
X909320D01*
Y529470D01*
D02*
G37*
G36*
X1041400Y732790D02*
X1033858D01*
X1034064Y731754D01*
X1034439Y730651D01*
X1034955Y729605D01*
X1035602Y728636D01*
X1036370Y727760D01*
X1037246Y726992D01*
X1038215Y726345D01*
X1039261Y725829D01*
X1040364Y725454D01*
X1041400Y725248D01*
Y732790D01*
D02*
G37*
G36*
X1267460Y529590D02*
X1259919D01*
X1260125Y528554D01*
X1260499Y527451D01*
X1261014Y526405D01*
X1261662Y525437D01*
X1262430Y524560D01*
X1263307Y523792D01*
X1264275Y523144D01*
X1265321Y522629D01*
X1266424Y522254D01*
X1267460Y522048D01*
Y529590D01*
D02*
G37*
G36*
X1346580Y546100D02*
X1337310D01*
Y528830D01*
X1346580D01*
Y546100D01*
D02*
G37*
G36*
X909320Y536780D02*
X903550D01*
Y532010D01*
X909320D01*
Y536780D01*
D02*
G37*
G36*
X917630Y529470D02*
X911860D01*
Y524700D01*
X917630D01*
Y529470D01*
D02*
G37*
G36*
X1334770Y546100D02*
X1325500D01*
Y528830D01*
X1334770D01*
Y546100D01*
D02*
G37*
G36*
X1051481Y732790D02*
X1043940D01*
Y725248D01*
X1044976Y725454D01*
X1046079Y725829D01*
X1047125Y726345D01*
X1048093Y726992D01*
X1048970Y727760D01*
X1049738Y728636D01*
X1050386Y729605D01*
X1050901Y730651D01*
X1051275Y731754D01*
X1051481Y732790D01*
D02*
G37*
G36*
X848360Y758190D02*
X838148D01*
X838164Y757951D01*
X838459Y756467D01*
X838946Y755034D01*
X839615Y753678D01*
X840455Y752420D01*
X841452Y751283D01*
X842590Y750285D01*
X843848Y749445D01*
X845204Y748776D01*
X846637Y748289D01*
X848120Y747994D01*
X848360Y747979D01*
Y758190D01*
D02*
G37*
G36*
X1041400Y742871D02*
X1040364Y742665D01*
X1039261Y742291D01*
X1038215Y741776D01*
X1037246Y741128D01*
X1037160Y741052D01*
X1035890Y741628D01*
Y741680D01*
X1031120D01*
Y735910D01*
X1032868D01*
X1033293Y735330D01*
X1041400D01*
Y742871D01*
D02*
G37*
G36*
X1047130Y754380D02*
X1041860D01*
Y748610D01*
X1047130D01*
Y754380D01*
D02*
G37*
G36*
X861112Y758190D02*
X850900D01*
Y747979D01*
X851140Y747994D01*
X852623Y748289D01*
X854056Y748776D01*
X855412Y749445D01*
X856670Y750285D01*
X857807Y751283D01*
X858805Y752420D01*
X859645Y753678D01*
X860314Y755034D01*
X860801Y756467D01*
X861096Y757951D01*
X861112Y758190D01*
D02*
G37*
G36*
X1098550Y742950D02*
X1089280D01*
Y725680D01*
X1098550D01*
Y742950D01*
D02*
G37*
G36*
X1054940Y754380D02*
X1049670D01*
Y748610D01*
X1054940D01*
Y754380D01*
D02*
G37*
G36*
X1043940Y742871D02*
Y735330D01*
X1051481D01*
X1051275Y736366D01*
X1050901Y737469D01*
X1050386Y738515D01*
X1049738Y739483D01*
X1048970Y740360D01*
X1048093Y741128D01*
X1047125Y741776D01*
X1046079Y742291D01*
X1044976Y742665D01*
X1043940Y742871D01*
D02*
G37*
G36*
X916614Y520764D02*
X904566D01*
Y511041D01*
X900148Y506623D01*
X898974Y507109D01*
Y507154D01*
X854426D01*
Y493606D01*
X898974D01*
Y497562D01*
X916956D01*
X917282Y497166D01*
X917970Y496600D01*
X918756Y496180D01*
X919609Y495922D01*
X920496Y495834D01*
X921383Y495922D01*
X922236Y496180D01*
X923022Y496600D01*
X923710Y497166D01*
X924276Y497854D01*
X924696Y498640D01*
X924955Y499493D01*
X925042Y500380D01*
X924955Y501267D01*
X924696Y502120D01*
X924276Y502906D01*
X923710Y503594D01*
X923022Y504160D01*
X922236Y504580D01*
X921383Y504838D01*
X920496Y504926D01*
X919609Y504838D01*
X918756Y504580D01*
X917970Y504160D01*
X917282Y503594D01*
X916956Y503198D01*
X906353D01*
X905867Y504371D01*
X911567Y510071D01*
X912015Y510655D01*
X912040Y510716D01*
X916614D01*
Y520764D01*
D02*
G37*
G36*
X917630Y536780D02*
X911860D01*
Y532010D01*
X917630D01*
Y536780D01*
D02*
G37*
G36*
X875430Y549910D02*
X853410D01*
Y543390D01*
X875430D01*
Y549910D01*
D02*
G37*
G36*
X899990D02*
X877970D01*
Y543390D01*
X899990D01*
Y549910D01*
D02*
G37*
G36*
X1287350Y561340D02*
X1282080D01*
Y555570D01*
X1287350D01*
Y561340D01*
D02*
G37*
G36*
X1279540D02*
X1274270D01*
Y555570D01*
X1279540D01*
Y561340D01*
D02*
G37*
G36*
X875430Y558970D02*
X853410D01*
Y552450D01*
X875430D01*
Y558970D01*
D02*
G37*
G36*
X1346580Y565910D02*
X1337310D01*
Y548640D01*
X1346580D01*
Y565910D01*
D02*
G37*
G36*
X1334770D02*
X1325500D01*
Y548640D01*
X1334770D01*
Y565910D01*
D02*
G37*
G36*
X899990Y558970D02*
X877970D01*
Y552450D01*
X899990D01*
Y558970D01*
D02*
G37*
G36*
X776334Y611234D02*
X755286D01*
Y590186D01*
X776334D01*
Y611234D01*
D02*
G37*
G36*
X869950Y635760D02*
X860680D01*
Y618490D01*
X869950D01*
Y635760D01*
D02*
G37*
G36*
X765810Y636657D02*
X764433Y636566D01*
X763080Y636297D01*
X761774Y635854D01*
X760537Y635244D01*
X759390Y634477D01*
X758353Y633568D01*
X757443Y632530D01*
X756676Y631383D01*
X756066Y630146D01*
X755623Y628840D01*
X755354Y627487D01*
X755263Y626110D01*
X755354Y624733D01*
X755623Y623380D01*
X756066Y622074D01*
X756676Y620837D01*
X757443Y619690D01*
X758353Y618652D01*
X759390Y617743D01*
X760537Y616976D01*
X761774Y616366D01*
X763080Y615923D01*
X764433Y615654D01*
X765810Y615563D01*
X767187Y615654D01*
X768540Y615923D01*
X769846Y616366D01*
X771083Y616976D01*
X772230Y617743D01*
X773268Y618652D01*
X774177Y619690D01*
X774944Y620837D01*
X775554Y622074D01*
X775997Y623380D01*
X776266Y624733D01*
X776357Y626110D01*
X776266Y627487D01*
X775997Y628840D01*
X775554Y630146D01*
X774944Y631383D01*
X774177Y632530D01*
X773268Y633568D01*
X772230Y634477D01*
X771083Y635244D01*
X769846Y635854D01*
X768540Y636297D01*
X767187Y636566D01*
X765810Y636657D01*
D02*
G37*
G36*
X1267460Y539672D02*
X1266424Y539465D01*
X1265321Y539091D01*
X1264275Y538576D01*
X1263307Y537928D01*
X1262430Y537160D01*
X1261662Y536283D01*
X1261014Y535315D01*
X1260499Y534269D01*
X1260125Y533166D01*
X1259919Y532130D01*
X1267460D01*
Y539672D01*
D02*
G37*
G36*
X881760Y635760D02*
X872490D01*
Y618490D01*
X881760D01*
Y635760D01*
D02*
G37*
G36*
Y615950D02*
X872490D01*
Y598680D01*
X881760D01*
Y615950D01*
D02*
G37*
G36*
X869950D02*
X860680D01*
Y598680D01*
X869950D01*
Y615950D01*
D02*
G37*
G36*
X1270000Y539672D02*
Y532130D01*
X1277542D01*
X1277336Y533166D01*
X1276961Y534269D01*
X1276445Y535315D01*
X1275798Y536283D01*
X1275030Y537160D01*
X1274154Y537928D01*
X1273185Y538576D01*
X1272139Y539091D01*
X1271036Y539465D01*
X1270000Y539672D01*
D02*
G37*
G36*
X1268300Y548640D02*
X1263530D01*
Y542870D01*
X1268300D01*
Y548640D01*
D02*
G37*
G36*
X780338Y848360D02*
X769620D01*
Y837642D01*
X769700Y837647D01*
X771033Y837873D01*
X772333Y838248D01*
X773582Y838765D01*
X774766Y839419D01*
X775869Y840202D01*
X776877Y841103D01*
X777778Y842111D01*
X778561Y843214D01*
X779215Y844398D01*
X779732Y845647D01*
X780107Y846947D01*
X780333Y848280D01*
X780338Y848360D01*
D02*
G37*
G36*
X1324610Y468783D02*
X1323430Y468706D01*
X1322269Y468475D01*
X1321149Y468095D01*
X1320088Y467572D01*
X1319105Y466915D01*
X1318215Y466135D01*
X1317435Y465245D01*
X1316778Y464262D01*
X1316255Y463201D01*
X1315875Y462081D01*
X1315644Y460920D01*
X1315567Y459740D01*
X1315644Y458560D01*
X1315875Y457399D01*
X1316255Y456279D01*
X1316778Y455218D01*
X1317435Y454235D01*
X1318215Y453345D01*
X1319105Y452565D01*
X1320088Y451908D01*
X1321149Y451385D01*
X1322269Y451005D01*
X1323430Y450774D01*
X1324610Y450697D01*
X1325790Y450774D01*
X1326951Y451005D01*
X1328071Y451385D01*
X1329132Y451908D01*
X1330115Y452565D01*
X1331005Y453345D01*
X1331785Y454235D01*
X1332442Y455218D01*
X1332965Y456279D01*
X1333345Y457399D01*
X1333576Y458560D01*
X1333653Y459740D01*
X1333576Y460920D01*
X1333345Y462081D01*
X1332965Y463201D01*
X1332442Y464262D01*
X1331785Y465245D01*
X1331005Y466135D01*
X1330115Y466915D01*
X1329132Y467572D01*
X1328071Y468095D01*
X1326951Y468475D01*
X1325790Y468706D01*
X1324610Y468783D01*
D02*
G37*
G36*
X1299210D02*
X1298030Y468706D01*
X1296869Y468475D01*
X1295749Y468095D01*
X1294688Y467572D01*
X1293705Y466915D01*
X1292815Y466135D01*
X1292035Y465245D01*
X1291378Y464262D01*
X1290855Y463201D01*
X1290475Y462081D01*
X1290244Y460920D01*
X1290167Y459740D01*
X1290244Y458560D01*
X1290475Y457399D01*
X1290855Y456279D01*
X1291378Y455218D01*
X1292035Y454235D01*
X1292815Y453345D01*
X1293705Y452565D01*
X1294688Y451908D01*
X1295749Y451385D01*
X1296869Y451005D01*
X1298030Y450774D01*
X1299210Y450697D01*
X1300390Y450774D01*
X1301551Y451005D01*
X1302671Y451385D01*
X1303732Y451908D01*
X1304715Y452565D01*
X1305605Y453345D01*
X1306385Y454235D01*
X1307042Y455218D01*
X1307565Y456279D01*
X1307945Y457399D01*
X1308176Y458560D01*
X1308253Y459740D01*
X1308176Y460920D01*
X1307945Y462081D01*
X1307565Y463201D01*
X1307042Y464262D01*
X1306385Y465245D01*
X1305605Y466135D01*
X1304715Y466915D01*
X1303732Y467572D01*
X1302671Y468095D01*
X1301551Y468475D01*
X1300390Y468706D01*
X1299210Y468783D01*
D02*
G37*
G36*
X769620Y861618D02*
Y850900D01*
X780338D01*
X780333Y850980D01*
X780107Y852313D01*
X779732Y853613D01*
X779215Y854862D01*
X778561Y856046D01*
X777778Y857149D01*
X776877Y858157D01*
X775869Y859058D01*
X774766Y859841D01*
X773582Y860495D01*
X772333Y861012D01*
X771033Y861387D01*
X769700Y861613D01*
X769620Y861618D01*
D02*
G37*
G36*
X1273810Y468783D02*
X1272630Y468706D01*
X1271469Y468475D01*
X1270349Y468095D01*
X1269288Y467572D01*
X1268305Y466915D01*
X1267415Y466135D01*
X1266635Y465245D01*
X1265978Y464262D01*
X1265455Y463201D01*
X1265075Y462081D01*
X1264844Y460920D01*
X1264767Y459740D01*
X1264844Y458560D01*
X1265075Y457399D01*
X1265455Y456279D01*
X1265978Y455218D01*
X1266635Y454235D01*
X1267415Y453345D01*
X1268305Y452565D01*
X1269288Y451908D01*
X1270349Y451385D01*
X1271469Y451005D01*
X1272630Y450774D01*
X1273810Y450697D01*
X1274990Y450774D01*
X1276151Y451005D01*
X1277271Y451385D01*
X1278332Y451908D01*
X1279315Y452565D01*
X1280205Y453345D01*
X1280985Y454235D01*
X1281642Y455218D01*
X1282165Y456279D01*
X1282545Y457399D01*
X1282776Y458560D01*
X1282853Y459740D01*
X1282776Y460920D01*
X1282545Y462081D01*
X1282165Y463201D01*
X1281642Y464262D01*
X1280985Y465245D01*
X1280205Y466135D01*
X1279315Y466915D01*
X1278332Y467572D01*
X1277271Y468095D01*
X1276151Y468475D01*
X1274990Y468706D01*
X1273810Y468783D01*
D02*
G37*
G36*
X1122680Y469718D02*
Y461010D01*
X1131388D01*
X1131385Y461053D01*
X1131129Y462344D01*
X1130706Y463590D01*
X1130124Y464771D01*
X1129392Y465865D01*
X1128525Y466855D01*
X1127535Y467722D01*
X1126441Y468453D01*
X1125260Y469036D01*
X1124014Y469459D01*
X1122723Y469715D01*
X1122680Y469718D01*
D02*
G37*
G36*
X1148080D02*
Y461010D01*
X1156788D01*
X1156785Y461053D01*
X1156529Y462344D01*
X1156106Y463590D01*
X1155524Y464771D01*
X1154792Y465865D01*
X1153925Y466855D01*
X1152935Y467722D01*
X1151841Y468453D01*
X1150660Y469036D01*
X1149414Y469459D01*
X1148123Y469715D01*
X1148080Y469718D01*
D02*
G37*
G36*
X1145540D02*
X1145497Y469715D01*
X1144206Y469459D01*
X1142960Y469036D01*
X1141779Y468453D01*
X1140685Y467722D01*
X1139695Y466855D01*
X1138828Y465865D01*
X1138096Y464771D01*
X1137514Y463590D01*
X1137091Y462344D01*
X1136835Y461053D01*
X1136832Y461010D01*
X1145540D01*
Y469718D01*
D02*
G37*
G36*
X1359034Y468764D02*
X1340986D01*
Y450716D01*
X1359034D01*
Y468764D01*
D02*
G37*
G36*
X848360Y838251D02*
X848120Y838236D01*
X846637Y837941D01*
X845204Y837454D01*
X843848Y836785D01*
X842590Y835945D01*
X841452Y834948D01*
X840455Y833810D01*
X839615Y832552D01*
X838946Y831196D01*
X838459Y829763D01*
X838164Y828279D01*
X838148Y828040D01*
X848360D01*
Y838251D01*
D02*
G37*
G36*
X985520Y868332D02*
X984405Y868259D01*
X983309Y868041D01*
X982251Y867682D01*
X981249Y867188D01*
X980320Y866567D01*
X979480Y865830D01*
X978743Y864990D01*
X978122Y864061D01*
X977628Y863059D01*
X977269Y862001D01*
X977051Y860905D01*
X976978Y859790D01*
X977051Y858675D01*
X977269Y857579D01*
X977628Y856521D01*
X978122Y855519D01*
X978743Y854590D01*
X979480Y853750D01*
X980320Y853013D01*
X981249Y852392D01*
X982251Y851898D01*
X983309Y851539D01*
X984405Y851321D01*
X985520Y851248D01*
X986635Y851321D01*
X987731Y851539D01*
X988789Y851898D01*
X989791Y852392D01*
X990720Y853013D01*
X991560Y853750D01*
X992297Y854590D01*
X992918Y855519D01*
X993412Y856521D01*
X993771Y857579D01*
X993989Y858675D01*
X994062Y859790D01*
X993989Y860905D01*
X993771Y862001D01*
X993412Y863059D01*
X992918Y864061D01*
X992297Y864990D01*
X991560Y865830D01*
X990720Y866567D01*
X989791Y867188D01*
X988789Y867682D01*
X987731Y868041D01*
X986635Y868259D01*
X985520Y868332D01*
D02*
G37*
G36*
X850900Y905562D02*
Y895350D01*
X861112D01*
X861096Y895590D01*
X860801Y897073D01*
X860314Y898506D01*
X859645Y899862D01*
X858805Y901120D01*
X857807Y902258D01*
X856670Y903255D01*
X855412Y904095D01*
X854056Y904764D01*
X852623Y905251D01*
X851140Y905546D01*
X850900Y905562D01*
D02*
G37*
G36*
X848360D02*
X848120Y905546D01*
X846637Y905251D01*
X845204Y904764D01*
X843848Y904095D01*
X842590Y903255D01*
X841452Y902258D01*
X840455Y901120D01*
X839615Y899862D01*
X838946Y898506D01*
X838459Y897073D01*
X838164Y895590D01*
X838148Y895350D01*
X848360D01*
Y905562D01*
D02*
G37*
G36*
X1055370Y951383D02*
X1054190Y951306D01*
X1053029Y951075D01*
X1051909Y950695D01*
X1050848Y950172D01*
X1049865Y949515D01*
X1048975Y948735D01*
X1048195Y947845D01*
X1047538Y946862D01*
X1047015Y945801D01*
X1046635Y944681D01*
X1046404Y943520D01*
X1046327Y942340D01*
X1046404Y941160D01*
X1046635Y939999D01*
X1047015Y938879D01*
X1047315Y938271D01*
X1041503Y932458D01*
X1032884D01*
X1032674Y933728D01*
X1033431Y933985D01*
X1034492Y934508D01*
X1035475Y935165D01*
X1036365Y935945D01*
X1037145Y936835D01*
X1037802Y937818D01*
X1038325Y938879D01*
X1038705Y939999D01*
X1038936Y941160D01*
X1039013Y942340D01*
X1038936Y943520D01*
X1038705Y944681D01*
X1038325Y945801D01*
X1037802Y946862D01*
X1037145Y947845D01*
X1036365Y948735D01*
X1035475Y949515D01*
X1034492Y950172D01*
X1033431Y950695D01*
X1032311Y951075D01*
X1031150Y951306D01*
X1029970Y951383D01*
X1028790Y951306D01*
X1027629Y951075D01*
X1026509Y950695D01*
X1025448Y950172D01*
X1024465Y949515D01*
X1023575Y948735D01*
X1022795Y947845D01*
X1022138Y946862D01*
X1021615Y945801D01*
X1021235Y944681D01*
X1021004Y943520D01*
X1020927Y942340D01*
X1021004Y941160D01*
X1021235Y939999D01*
X1021615Y938879D01*
X1022138Y937818D01*
X1022795Y936835D01*
X1023575Y935945D01*
X1024465Y935165D01*
X1025448Y934508D01*
X1026509Y933985D01*
X1027266Y933728D01*
X1027057Y932458D01*
X1007484D01*
X1007274Y933728D01*
X1008031Y933985D01*
X1009092Y934508D01*
X1010075Y935165D01*
X1010965Y935945D01*
X1011745Y936835D01*
X1012402Y937818D01*
X1012925Y938879D01*
X1013305Y939999D01*
X1013536Y941160D01*
X1013613Y942340D01*
X1013536Y943520D01*
X1013305Y944681D01*
X1012925Y945801D01*
X1012402Y946862D01*
X1011745Y947845D01*
X1010965Y948735D01*
X1010075Y949515D01*
X1009092Y950172D01*
X1008031Y950695D01*
X1006911Y951075D01*
X1005750Y951306D01*
X1004570Y951383D01*
X1003390Y951306D01*
X1002229Y951075D01*
X1001109Y950695D01*
X1000048Y950172D01*
X999065Y949515D01*
X998175Y948735D01*
X997395Y947845D01*
X996738Y946862D01*
X996215Y945801D01*
X995835Y944681D01*
X995604Y943520D01*
X995527Y942340D01*
X995604Y941160D01*
X995835Y939999D01*
X996215Y938879D01*
X996738Y937818D01*
X997395Y936835D01*
X998175Y935945D01*
X999065Y935165D01*
X1000048Y934508D01*
X1001109Y933985D01*
X1001866Y933728D01*
X1001656Y932458D01*
X982084D01*
X981874Y933728D01*
X982631Y933985D01*
X983692Y934508D01*
X984675Y935165D01*
X985565Y935945D01*
X986345Y936835D01*
X987002Y937818D01*
X987525Y938879D01*
X987905Y939999D01*
X988136Y941160D01*
X988213Y942340D01*
X988136Y943520D01*
X987905Y944681D01*
X987525Y945801D01*
X987002Y946862D01*
X986345Y947845D01*
X985565Y948735D01*
X984675Y949515D01*
X983692Y950172D01*
X982631Y950695D01*
X981511Y951075D01*
X980350Y951306D01*
X979170Y951383D01*
X977990Y951306D01*
X976829Y951075D01*
X975709Y950695D01*
X974648Y950172D01*
X973665Y949515D01*
X972775Y948735D01*
X971995Y947845D01*
X971338Y946862D01*
X970815Y945801D01*
X970435Y944681D01*
X970204Y943520D01*
X970127Y942340D01*
X970204Y941160D01*
X970435Y939999D01*
X970815Y938879D01*
X971338Y937818D01*
X971995Y936835D01*
X972775Y935945D01*
X973665Y935165D01*
X974648Y934508D01*
X975709Y933985D01*
X976466Y933728D01*
X976256Y932458D01*
X956684D01*
X956474Y933728D01*
X957231Y933985D01*
X958292Y934508D01*
X959275Y935165D01*
X960165Y935945D01*
X960945Y936835D01*
X961602Y937818D01*
X962125Y938879D01*
X962505Y939999D01*
X962736Y941160D01*
X962813Y942340D01*
X962736Y943520D01*
X962505Y944681D01*
X962125Y945801D01*
X961602Y946862D01*
X960945Y947845D01*
X960165Y948735D01*
X959275Y949515D01*
X958292Y950172D01*
X957231Y950695D01*
X956111Y951075D01*
X954950Y951306D01*
X953770Y951383D01*
X952590Y951306D01*
X951429Y951075D01*
X950309Y950695D01*
X949248Y950172D01*
X948265Y949515D01*
X947375Y948735D01*
X946595Y947845D01*
X945938Y946862D01*
X945415Y945801D01*
X945035Y944681D01*
X944804Y943520D01*
X944727Y942340D01*
X944804Y941160D01*
X945035Y939999D01*
X945415Y938879D01*
X945938Y937818D01*
X946595Y936835D01*
X947375Y935945D01*
X948265Y935165D01*
X949248Y934508D01*
X950309Y933985D01*
X951066Y933728D01*
X950856Y932458D01*
X931283D01*
X931074Y933728D01*
X931831Y933985D01*
X932892Y934508D01*
X933875Y935165D01*
X934765Y935945D01*
X935545Y936835D01*
X936202Y937818D01*
X936725Y938879D01*
X937105Y939999D01*
X937336Y941160D01*
X937413Y942340D01*
X937336Y943520D01*
X937105Y944681D01*
X936725Y945801D01*
X936202Y946862D01*
X935545Y947845D01*
X934765Y948735D01*
X933875Y949515D01*
X932892Y950172D01*
X931831Y950695D01*
X930711Y951075D01*
X929550Y951306D01*
X928370Y951383D01*
X927190Y951306D01*
X926029Y951075D01*
X924909Y950695D01*
X923848Y950172D01*
X922865Y949515D01*
X921975Y948735D01*
X921195Y947845D01*
X920538Y946862D01*
X920015Y945801D01*
X919635Y944681D01*
X919404Y943520D01*
X919327Y942340D01*
X919404Y941160D01*
X919635Y939999D01*
X920015Y938879D01*
X920538Y937818D01*
X921195Y936835D01*
X921975Y935945D01*
X922865Y935165D01*
X923848Y934508D01*
X924909Y933985D01*
X925666Y933728D01*
X925456Y932458D01*
X905883D01*
X905674Y933728D01*
X906431Y933985D01*
X907492Y934508D01*
X908475Y935165D01*
X909365Y935945D01*
X910145Y936835D01*
X910802Y937818D01*
X911325Y938879D01*
X911705Y939999D01*
X911936Y941160D01*
X912013Y942340D01*
X911936Y943520D01*
X911705Y944681D01*
X911325Y945801D01*
X910802Y946862D01*
X910145Y947845D01*
X909365Y948735D01*
X908475Y949515D01*
X907492Y950172D01*
X906431Y950695D01*
X905311Y951075D01*
X904150Y951306D01*
X902970Y951383D01*
X901790Y951306D01*
X900629Y951075D01*
X899509Y950695D01*
X898448Y950172D01*
X897465Y949515D01*
X896575Y948735D01*
X895795Y947845D01*
X895138Y946862D01*
X894615Y945801D01*
X894235Y944681D01*
X894004Y943520D01*
X893927Y942340D01*
X894004Y941160D01*
X894235Y939999D01*
X894615Y938879D01*
X895138Y937818D01*
X895795Y936835D01*
X896575Y935945D01*
X897465Y935165D01*
X898448Y934508D01*
X899509Y933985D01*
X900266Y933728D01*
X900057Y932458D01*
X846836D01*
X846107Y932362D01*
X845427Y932081D01*
X844843Y931633D01*
X822237Y909027D01*
X821789Y908443D01*
X821508Y907763D01*
X821412Y907034D01*
Y759460D01*
X821508Y758731D01*
X821789Y758051D01*
X822237Y757467D01*
X839106Y740599D01*
Y723536D01*
X860154D01*
Y731242D01*
X870458D01*
X871187Y731338D01*
X871867Y731619D01*
X872451Y732067D01*
X876825Y736442D01*
X890596D01*
Y734236D01*
X902644D01*
Y744284D01*
X890596D01*
Y742078D01*
X875658D01*
X874929Y741982D01*
X874249Y741700D01*
X873665Y741253D01*
X869291Y736878D01*
X860154D01*
Y744584D01*
X843091D01*
X827048Y760627D01*
Y905867D01*
X848003Y926822D01*
X950856D01*
X951066Y925552D01*
X950309Y925295D01*
X949248Y924772D01*
X948265Y924115D01*
X947375Y923335D01*
X946595Y922445D01*
X945938Y921462D01*
X945415Y920401D01*
X945035Y919281D01*
X944804Y918120D01*
X944727Y916940D01*
X944804Y915760D01*
X945035Y914599D01*
X945415Y913479D01*
X945938Y912418D01*
X946595Y911435D01*
X947375Y910545D01*
X948265Y909765D01*
X949248Y909108D01*
X950309Y908585D01*
X951429Y908205D01*
X952590Y907974D01*
X953770Y907897D01*
X954950Y907974D01*
X956111Y908205D01*
X957231Y908585D01*
X958292Y909108D01*
X959275Y909765D01*
X960165Y910545D01*
X960945Y911435D01*
X961602Y912418D01*
X962125Y913479D01*
X962505Y914599D01*
X962736Y915760D01*
X962813Y916940D01*
X962736Y918120D01*
X962505Y919281D01*
X962125Y920401D01*
X961602Y921462D01*
X960945Y922445D01*
X960165Y923335D01*
X959275Y924115D01*
X958292Y924772D01*
X957231Y925295D01*
X956474Y925552D01*
X956684Y926822D01*
X976256D01*
X976466Y925552D01*
X975709Y925295D01*
X974648Y924772D01*
X973665Y924115D01*
X972775Y923335D01*
X971995Y922445D01*
X971338Y921462D01*
X970815Y920401D01*
X970435Y919281D01*
X970204Y918120D01*
X970127Y916940D01*
X970204Y915760D01*
X970435Y914599D01*
X970815Y913479D01*
X971338Y912418D01*
X971995Y911435D01*
X972775Y910545D01*
X973665Y909765D01*
X974648Y909108D01*
X975709Y908585D01*
X976829Y908205D01*
X977990Y907974D01*
X979170Y907897D01*
X980350Y907974D01*
X981511Y908205D01*
X982631Y908585D01*
X983692Y909108D01*
X984675Y909765D01*
X985565Y910545D01*
X986345Y911435D01*
X987002Y912418D01*
X987525Y913479D01*
X987905Y914599D01*
X988136Y915760D01*
X988213Y916940D01*
X988136Y918120D01*
X987905Y919281D01*
X987525Y920401D01*
X987002Y921462D01*
X986345Y922445D01*
X985565Y923335D01*
X984675Y924115D01*
X983692Y924772D01*
X982631Y925295D01*
X981874Y925552D01*
X982084Y926822D01*
X1001656D01*
X1001866Y925552D01*
X1001109Y925295D01*
X1000048Y924772D01*
X999065Y924115D01*
X998175Y923335D01*
X997395Y922445D01*
X996738Y921462D01*
X996215Y920401D01*
X995835Y919281D01*
X995604Y918120D01*
X995527Y916940D01*
X995604Y915760D01*
X995835Y914599D01*
X996215Y913479D01*
X996738Y912418D01*
X997395Y911435D01*
X998175Y910545D01*
X999065Y909765D01*
X1000048Y909108D01*
X1001109Y908585D01*
X1002229Y908205D01*
X1003390Y907974D01*
X1004570Y907897D01*
X1005750Y907974D01*
X1006911Y908205D01*
X1008031Y908585D01*
X1009092Y909108D01*
X1010075Y909765D01*
X1010965Y910545D01*
X1011745Y911435D01*
X1012402Y912418D01*
X1012925Y913479D01*
X1013305Y914599D01*
X1013536Y915760D01*
X1013613Y916940D01*
X1013536Y918120D01*
X1013305Y919281D01*
X1012925Y920401D01*
X1012402Y921462D01*
X1011745Y922445D01*
X1010965Y923335D01*
X1010075Y924115D01*
X1009092Y924772D01*
X1008031Y925295D01*
X1007274Y925552D01*
X1007484Y926822D01*
X1027057D01*
X1027266Y925552D01*
X1026509Y925295D01*
X1025448Y924772D01*
X1024465Y924115D01*
X1023575Y923335D01*
X1022795Y922445D01*
X1022138Y921462D01*
X1021615Y920401D01*
X1021235Y919281D01*
X1021004Y918120D01*
X1020927Y916940D01*
X1021004Y915760D01*
X1021235Y914599D01*
X1021615Y913479D01*
X1022138Y912418D01*
X1022795Y911435D01*
X1023575Y910545D01*
X1024465Y909765D01*
X1025448Y909108D01*
X1026509Y908585D01*
X1027629Y908205D01*
X1028790Y907974D01*
X1029970Y907897D01*
X1031150Y907974D01*
X1032311Y908205D01*
X1033431Y908585D01*
X1034492Y909108D01*
X1035475Y909765D01*
X1036365Y910545D01*
X1037145Y911435D01*
X1037802Y912418D01*
X1038325Y913479D01*
X1038705Y914599D01*
X1038936Y915760D01*
X1039013Y916940D01*
X1038936Y918120D01*
X1038705Y919281D01*
X1038325Y920401D01*
X1037802Y921462D01*
X1037145Y922445D01*
X1036365Y923335D01*
X1035475Y924115D01*
X1034492Y924772D01*
X1033431Y925295D01*
X1032674Y925552D01*
X1032884Y926822D01*
X1042670D01*
X1043399Y926918D01*
X1044079Y927199D01*
X1044663Y927647D01*
X1051301Y934285D01*
X1051909Y933985D01*
X1053029Y933605D01*
X1054190Y933374D01*
X1055370Y933297D01*
X1056550Y933374D01*
X1057711Y933605D01*
X1058831Y933985D01*
X1059892Y934508D01*
X1060875Y935165D01*
X1061765Y935945D01*
X1062545Y936835D01*
X1063202Y937818D01*
X1063725Y938879D01*
X1064105Y939999D01*
X1064336Y941160D01*
X1064413Y942340D01*
X1064336Y943520D01*
X1064105Y944681D01*
X1063725Y945801D01*
X1063202Y946862D01*
X1062545Y947845D01*
X1061765Y948735D01*
X1060875Y949515D01*
X1059892Y950172D01*
X1058831Y950695D01*
X1057711Y951075D01*
X1056550Y951306D01*
X1055370Y951383D01*
D02*
G37*
G36*
X1273422Y965610D02*
X1128148D01*
X1127252Y965522D01*
X1126390Y965261D01*
X1125596Y964836D01*
X1124900Y964265D01*
X1115729Y955094D01*
X1115157Y954398D01*
X1114733Y953603D01*
X1114471Y952741D01*
X1114383Y951845D01*
Y948562D01*
X1114091Y948361D01*
X1113113Y948109D01*
X1112565Y948735D01*
X1111675Y949515D01*
X1110692Y950172D01*
X1109631Y950695D01*
X1108511Y951075D01*
X1107350Y951306D01*
X1106170Y951383D01*
X1104990Y951306D01*
X1103829Y951075D01*
X1102709Y950695D01*
X1101648Y950172D01*
X1100665Y949515D01*
X1099775Y948735D01*
X1098995Y947845D01*
X1098338Y946862D01*
X1097815Y945801D01*
X1097435Y944681D01*
X1097204Y943520D01*
X1097127Y942340D01*
X1097204Y941160D01*
X1097435Y939999D01*
X1097815Y938879D01*
X1098338Y937818D01*
X1098995Y936835D01*
X1099775Y935945D01*
X1100665Y935165D01*
X1101648Y934508D01*
X1102709Y933985D01*
X1103829Y933605D01*
X1104990Y933374D01*
X1106170Y933297D01*
X1107350Y933374D01*
X1108511Y933605D01*
X1109631Y933985D01*
X1110692Y934508D01*
X1111675Y935165D01*
X1112565Y935945D01*
X1113113Y936571D01*
X1114091Y936319D01*
X1114383Y936117D01*
Y923163D01*
X1114091Y922961D01*
X1113113Y922709D01*
X1112565Y923335D01*
X1111675Y924115D01*
X1110692Y924772D01*
X1109631Y925295D01*
X1108511Y925675D01*
X1107350Y925906D01*
X1106170Y925983D01*
X1104990Y925906D01*
X1103829Y925675D01*
X1102709Y925295D01*
X1101648Y924772D01*
X1100665Y924115D01*
X1099775Y923335D01*
X1098995Y922445D01*
X1098338Y921462D01*
X1097815Y920401D01*
X1097435Y919281D01*
X1097204Y918120D01*
X1097127Y916940D01*
X1097204Y915760D01*
X1097435Y914599D01*
X1097815Y913479D01*
X1098338Y912418D01*
X1098995Y911435D01*
X1099775Y910545D01*
X1100665Y909765D01*
X1101648Y909108D01*
X1102709Y908585D01*
X1103829Y908205D01*
X1104990Y907974D01*
X1106170Y907897D01*
X1107350Y907974D01*
X1108511Y908205D01*
X1109631Y908585D01*
X1110692Y909108D01*
X1111675Y909765D01*
X1112565Y910545D01*
X1113113Y911171D01*
X1114091Y910919D01*
X1114383Y910717D01*
Y907774D01*
X1096572Y889962D01*
X1096000Y889266D01*
X1095576Y888472D01*
X1095314Y887610D01*
X1095226Y886714D01*
Y879624D01*
X933450D01*
X932554Y879536D01*
X931692Y879274D01*
X930898Y878850D01*
X930201Y878279D01*
X929661Y877738D01*
X929606Y877751D01*
X928370Y877848D01*
X927134Y877751D01*
X925929Y877462D01*
X924784Y876988D01*
X923727Y876340D01*
X922785Y875535D01*
X921980Y874593D01*
X921332Y873536D01*
X920858Y872391D01*
X920569Y871186D01*
X920472Y869950D01*
X920569Y868714D01*
X920858Y867509D01*
X921332Y866364D01*
X921980Y865307D01*
X922785Y864365D01*
X923727Y863560D01*
X924784Y862913D01*
X925929Y862438D01*
X927134Y862149D01*
X928370Y862052D01*
X929606Y862149D01*
X930811Y862438D01*
X931956Y862913D01*
X933012Y863560D01*
X933955Y864365D01*
X934760Y865307D01*
X935407Y866364D01*
X935882Y867509D01*
X936171Y868714D01*
X936268Y869950D01*
X936718Y870436D01*
X1095226D01*
Y860423D01*
X1090951Y856148D01*
X1090896Y856161D01*
X1089660Y856258D01*
X1088424Y856161D01*
X1087219Y855872D01*
X1086074Y855397D01*
X1085017Y854750D01*
X1084075Y853945D01*
X1083270Y853002D01*
X1082623Y851946D01*
X1082148Y850801D01*
X1081859Y849596D01*
X1081762Y848360D01*
X1081859Y847124D01*
X1082148Y845919D01*
X1082623Y844774D01*
X1083270Y843717D01*
X1084075Y842775D01*
X1085017Y841970D01*
X1086074Y841322D01*
X1087219Y840848D01*
X1088424Y840559D01*
X1089660Y840462D01*
X1090896Y840559D01*
X1092101Y840848D01*
X1093246Y841322D01*
X1093956Y841758D01*
X1095226Y841245D01*
Y812544D01*
X1090296D01*
Y777496D01*
X1093370D01*
X1093891Y776551D01*
X1093963Y776226D01*
X1093374Y775345D01*
X1092859Y774299D01*
X1092485Y773196D01*
X1092279Y772160D01*
X1101090D01*
Y769620D01*
X1092279D01*
X1092485Y768584D01*
X1092859Y767481D01*
X1093374Y766435D01*
X1094022Y765467D01*
X1094790Y764590D01*
X1095429Y764030D01*
X1095235Y763165D01*
X1094970Y762760D01*
X1089280D01*
Y745490D01*
X1099820D01*
Y744220D01*
X1101090D01*
Y725680D01*
X1109704D01*
Y703094D01*
X1086584D01*
X1085389Y704288D01*
X1084693Y704860D01*
X1083899Y705284D01*
X1083037Y705546D01*
X1082141Y705634D01*
X1073303D01*
X1072407Y705546D01*
X1071545Y705284D01*
X1070751Y704860D01*
X1070055Y704288D01*
X1068860Y703094D01*
X982089D01*
X976144Y709039D01*
Y722568D01*
X977210Y723060D01*
X982980D01*
Y729600D01*
X985520D01*
Y723060D01*
X991290D01*
Y729042D01*
X992148Y729457D01*
X992560Y729504D01*
X1003626Y718438D01*
Y711376D01*
X1015674D01*
Y721424D01*
X1008611D01*
X1004833Y725203D01*
X1005319Y726376D01*
X1015674D01*
Y728582D01*
X1016896D01*
X1017626Y728678D01*
X1018305Y728960D01*
X1018889Y729407D01*
X1025172Y735690D01*
X1025340Y735910D01*
X1028580D01*
Y742950D01*
X1029850D01*
Y744220D01*
X1035890D01*
Y749626D01*
X1039924D01*
Y760852D01*
X1041860D01*
Y756920D01*
X1048400D01*
X1054940D01*
Y762690D01*
X1049536D01*
X1049050Y763863D01*
X1061277Y776091D01*
X1061277Y776091D01*
X1061725Y776675D01*
X1062007Y777354D01*
X1062103Y778084D01*
Y784849D01*
X1062870Y785167D01*
X1063927Y785815D01*
X1064870Y786620D01*
X1065674Y787562D01*
X1066322Y788619D01*
X1066796Y789764D01*
X1067086Y790969D01*
X1067183Y792205D01*
X1067086Y793440D01*
X1066796Y794645D01*
X1066322Y795790D01*
X1065674Y796847D01*
X1064870Y797790D01*
X1063927Y798595D01*
X1062870Y799242D01*
X1061725Y799717D01*
X1060520Y800006D01*
X1059285Y800103D01*
X1058049Y800006D01*
X1056844Y799717D01*
X1055699Y799242D01*
X1054642Y798595D01*
X1054137Y798163D01*
X1052867Y798740D01*
Y817613D01*
X1052771Y818343D01*
X1052489Y819022D01*
X1052041Y819606D01*
X1027645Y844003D01*
X1027061Y844451D01*
X1026381Y844732D01*
X1025652Y844828D01*
X935990D01*
X935261Y844732D01*
X934581Y844451D01*
X933997Y844003D01*
X933997Y844003D01*
X909191Y819196D01*
X908743Y818613D01*
X908461Y817933D01*
X908365Y817204D01*
Y815561D01*
X908345Y815544D01*
X907095Y815080D01*
X902644Y819531D01*
Y826594D01*
X899438D01*
Y870246D01*
X902644D01*
Y880294D01*
X903556Y881158D01*
X1057966D01*
X1058695Y881254D01*
X1059375Y881535D01*
X1059959Y881983D01*
X1070063Y892087D01*
X1070063Y892087D01*
X1070511Y892671D01*
X1070792Y893351D01*
X1070888Y894080D01*
Y914026D01*
X1072158Y914236D01*
X1072415Y913479D01*
X1072938Y912418D01*
X1073595Y911435D01*
X1074375Y910545D01*
X1075265Y909765D01*
X1076248Y909108D01*
X1077309Y908585D01*
X1078429Y908205D01*
X1079590Y907974D01*
X1080770Y907897D01*
X1081950Y907974D01*
X1083111Y908205D01*
X1084231Y908585D01*
X1085292Y909108D01*
X1086275Y909765D01*
X1087165Y910545D01*
X1087945Y911435D01*
X1088602Y912418D01*
X1089125Y913479D01*
X1089505Y914599D01*
X1089736Y915760D01*
X1089813Y916940D01*
X1089736Y918120D01*
X1089505Y919281D01*
X1089125Y920401D01*
X1088602Y921462D01*
X1087945Y922445D01*
X1087165Y923335D01*
X1086275Y924115D01*
X1085292Y924772D01*
X1084231Y925295D01*
X1083111Y925675D01*
X1081950Y925906D01*
X1080770Y925983D01*
X1079590Y925906D01*
X1078429Y925675D01*
X1077309Y925295D01*
X1076248Y924772D01*
X1075265Y924115D01*
X1074375Y923335D01*
X1073595Y922445D01*
X1072938Y921462D01*
X1072415Y920401D01*
X1072158Y919644D01*
X1070888Y919854D01*
Y928473D01*
X1076701Y934285D01*
X1077309Y933985D01*
X1078429Y933605D01*
X1079590Y933374D01*
X1080770Y933297D01*
X1081950Y933374D01*
X1083111Y933605D01*
X1084231Y933985D01*
X1085292Y934508D01*
X1086275Y935165D01*
X1087165Y935945D01*
X1087945Y936835D01*
X1088602Y937818D01*
X1089125Y938879D01*
X1089505Y939999D01*
X1089736Y941160D01*
X1089813Y942340D01*
X1089736Y943520D01*
X1089505Y944681D01*
X1089125Y945801D01*
X1088602Y946862D01*
X1087945Y947845D01*
X1087165Y948735D01*
X1086275Y949515D01*
X1085292Y950172D01*
X1084231Y950695D01*
X1083111Y951075D01*
X1081950Y951306D01*
X1080770Y951383D01*
X1079590Y951306D01*
X1078429Y951075D01*
X1077309Y950695D01*
X1076248Y950172D01*
X1075265Y949515D01*
X1074375Y948735D01*
X1073595Y947845D01*
X1072938Y946862D01*
X1072415Y945801D01*
X1072035Y944681D01*
X1071804Y943520D01*
X1071727Y942340D01*
X1071804Y941160D01*
X1072035Y939999D01*
X1072415Y938879D01*
X1072715Y938271D01*
X1066077Y931633D01*
X1065629Y931049D01*
X1065348Y930369D01*
X1065252Y929640D01*
Y919854D01*
X1063982Y919644D01*
X1063725Y920401D01*
X1063202Y921462D01*
X1062545Y922445D01*
X1061765Y923335D01*
X1060875Y924115D01*
X1059892Y924772D01*
X1058831Y925295D01*
X1057711Y925675D01*
X1056550Y925906D01*
X1055370Y925983D01*
X1054190Y925906D01*
X1053029Y925675D01*
X1051909Y925295D01*
X1050848Y924772D01*
X1049865Y924115D01*
X1048975Y923335D01*
X1048195Y922445D01*
X1047538Y921462D01*
X1047015Y920401D01*
X1046635Y919281D01*
X1046404Y918120D01*
X1046327Y916940D01*
X1046404Y915760D01*
X1046635Y914599D01*
X1047015Y913479D01*
X1047538Y912418D01*
X1048195Y911435D01*
X1048975Y910545D01*
X1049865Y909765D01*
X1050848Y909108D01*
X1051909Y908585D01*
X1053029Y908205D01*
X1054190Y907974D01*
X1055370Y907897D01*
X1056550Y907974D01*
X1057711Y908205D01*
X1058831Y908585D01*
X1059892Y909108D01*
X1060875Y909765D01*
X1061765Y910545D01*
X1062545Y911435D01*
X1063202Y912418D01*
X1063725Y913479D01*
X1063982Y914236D01*
X1065252Y914026D01*
Y895247D01*
X1056799Y886794D01*
X902644D01*
Y895294D01*
X890596D01*
Y893088D01*
X871220D01*
X871220Y893088D01*
X870491Y892992D01*
X869811Y892711D01*
X869227Y892263D01*
X869227Y892263D01*
X856169Y879204D01*
X839106D01*
Y858156D01*
X860154D01*
X860528Y857041D01*
Y833518D01*
X859258Y833132D01*
X858805Y833810D01*
X857807Y834948D01*
X856670Y835945D01*
X855412Y836785D01*
X854056Y837454D01*
X852623Y837941D01*
X851140Y838236D01*
X850900Y838251D01*
Y826770D01*
Y815288D01*
X851140Y815304D01*
X852623Y815599D01*
X854056Y816086D01*
X855412Y816755D01*
X856670Y817595D01*
X857807Y818593D01*
X858805Y819730D01*
X859258Y820408D01*
X860528Y820023D01*
Y816253D01*
X856169Y811894D01*
X839106D01*
Y790846D01*
X860154D01*
Y798552D01*
X870458D01*
X871187Y798648D01*
X871867Y798929D01*
X872451Y799377D01*
X876825Y803752D01*
X890596D01*
Y801546D01*
X902618D01*
Y764243D01*
X897659Y759284D01*
X890596D01*
Y749236D01*
X902644D01*
Y751442D01*
X906495D01*
X923774Y734163D01*
Y657249D01*
X922275Y655751D01*
X921271Y656542D01*
X921438Y656814D01*
X921912Y657959D01*
X922201Y659164D01*
X922298Y660400D01*
X922201Y661636D01*
X921912Y662841D01*
X921438Y663986D01*
X920790Y665042D01*
X919985Y665985D01*
X919043Y666790D01*
X917986Y667438D01*
X916841Y667912D01*
X915636Y668201D01*
X914400Y668298D01*
X913164Y668201D01*
X911959Y667912D01*
X910814Y667438D01*
X909758Y666790D01*
X908815Y665985D01*
X908010Y665042D01*
X907363Y663986D01*
X906888Y662841D01*
X906599Y661636D01*
X906502Y660400D01*
X906599Y659164D01*
X906612Y659109D01*
X904877Y657374D01*
X886839D01*
X880744Y663469D01*
Y685544D01*
X875814D01*
Y688340D01*
X875726Y689236D01*
X875464Y690098D01*
X875386Y690245D01*
X875464Y690392D01*
X875726Y691254D01*
X875814Y692150D01*
X875726Y693046D01*
X875464Y693908D01*
X875040Y694702D01*
X874469Y695398D01*
X865579Y704288D01*
X864882Y704860D01*
X864088Y705284D01*
X863226Y705546D01*
X862330Y705634D01*
X800987D01*
X771674Y734947D01*
Y738276D01*
X778104D01*
Y760324D01*
X762553D01*
X757958Y764919D01*
Y841313D01*
X759228Y841769D01*
X759823Y841103D01*
X760831Y840202D01*
X761934Y839419D01*
X763118Y838765D01*
X764367Y838248D01*
X765667Y837873D01*
X767000Y837647D01*
X767080Y837642D01*
Y849630D01*
Y861618D01*
X767000Y861613D01*
X765667Y861387D01*
X764367Y861012D01*
X763118Y860495D01*
X761934Y859841D01*
X760831Y859058D01*
X759823Y858157D01*
X759228Y857491D01*
X757958Y857947D01*
Y883541D01*
X763823Y889406D01*
X779374D01*
Y911454D01*
X757326D01*
Y895903D01*
X750116Y888692D01*
X749544Y887996D01*
X749120Y887202D01*
X748858Y886340D01*
X748770Y885444D01*
Y763016D01*
X748858Y762120D01*
X749120Y761258D01*
X749544Y760464D01*
X750116Y759768D01*
X756056Y753827D01*
Y738276D01*
X762486D01*
Y733044D01*
X762574Y732148D01*
X762836Y731286D01*
X763260Y730492D01*
X763831Y729796D01*
X795835Y697792D01*
X796532Y697220D01*
X797326Y696796D01*
X798188Y696534D01*
X799084Y696446D01*
X860427D01*
X866929Y689944D01*
X866714Y689236D01*
X866626Y688340D01*
Y685544D01*
X861696D01*
Y650496D01*
X880723D01*
X881687Y649531D01*
X882384Y648960D01*
X883178Y648536D01*
X884040Y648274D01*
X884936Y648186D01*
X891963D01*
X892304Y647786D01*
X892646Y646916D01*
X892376Y646410D01*
X892114Y645548D01*
X892026Y644652D01*
Y570963D01*
X892114Y570067D01*
X892376Y569205D01*
X892800Y568411D01*
X893372Y567715D01*
X927775Y533311D01*
X928471Y532740D01*
X929266Y532315D01*
X930127Y532054D01*
X931024Y531966D01*
X968066D01*
Y531036D01*
X969496D01*
Y457200D01*
X969584Y456304D01*
X969846Y455442D01*
X970270Y454648D01*
X970842Y453951D01*
X982668Y442124D01*
X983365Y441553D01*
X984159Y441129D01*
X985021Y440867D01*
X985917Y440779D01*
X1096370D01*
X1096655Y440626D01*
X1097517Y440365D01*
X1098413Y440277D01*
X1184773D01*
X1185669Y440365D01*
X1186531Y440626D01*
X1187325Y441051D01*
X1188021Y441622D01*
X1194509Y448110D01*
X1195080Y448806D01*
X1195504Y449600D01*
X1195766Y450462D01*
X1195854Y451358D01*
Y521957D01*
X1204933Y531036D01*
X1209620D01*
Y530020D01*
X1215390D01*
Y536560D01*
Y543100D01*
X1209620D01*
Y542084D01*
X1197936D01*
Y537033D01*
X1188011Y527108D01*
X1187440Y526412D01*
X1187016Y525618D01*
X1186754Y524756D01*
X1186666Y523860D01*
Y453261D01*
X1182870Y449465D01*
X1181280D01*
X1181234Y450716D01*
X1181234Y450735D01*
Y468764D01*
X1163186D01*
Y450735D01*
X1163186Y450716D01*
X1163140Y449465D01*
X1151546D01*
X1151250Y450735D01*
X1151841Y451026D01*
X1152935Y451758D01*
X1153925Y452625D01*
X1154792Y453615D01*
X1155524Y454709D01*
X1156106Y455890D01*
X1156529Y457136D01*
X1156785Y458427D01*
X1156788Y458470D01*
X1146810D01*
X1136832D01*
X1136835Y458427D01*
X1137091Y457136D01*
X1137514Y455890D01*
X1138096Y454709D01*
X1138828Y453615D01*
X1139695Y452625D01*
X1140685Y451758D01*
X1141779Y451026D01*
X1142370Y450735D01*
X1142074Y449465D01*
X1126146D01*
X1125850Y450735D01*
X1126441Y451026D01*
X1127535Y451758D01*
X1128525Y452625D01*
X1129392Y453615D01*
X1130124Y454709D01*
X1130706Y455890D01*
X1131129Y457136D01*
X1131385Y458427D01*
X1131388Y458470D01*
X1121410D01*
Y459740D01*
X1120140D01*
Y469718D01*
X1120097Y469715D01*
X1118806Y469459D01*
X1117560Y469036D01*
X1116379Y468453D01*
X1115285Y467722D01*
X1114574Y467099D01*
X1113617Y467399D01*
X1113304Y467650D01*
Y478770D01*
X1114574Y479249D01*
X1115015Y478745D01*
X1115905Y477965D01*
X1116888Y477308D01*
X1117949Y476785D01*
X1119069Y476405D01*
X1120230Y476174D01*
X1121410Y476097D01*
X1122590Y476174D01*
X1123751Y476405D01*
X1124871Y476785D01*
X1125932Y477308D01*
X1126915Y477965D01*
X1127805Y478745D01*
X1128585Y479635D01*
X1129242Y480618D01*
X1129765Y481679D01*
X1130145Y482799D01*
X1130376Y483960D01*
X1130453Y485140D01*
X1130376Y486320D01*
X1130145Y487481D01*
X1129765Y488601D01*
X1129242Y489662D01*
X1128585Y490645D01*
X1127805Y491535D01*
X1126915Y492315D01*
X1125932Y492972D01*
X1124871Y493495D01*
X1123751Y493875D01*
X1122590Y494106D01*
X1121410Y494183D01*
X1120230Y494106D01*
X1119069Y493875D01*
X1117949Y493495D01*
X1116888Y492972D01*
X1115905Y492315D01*
X1115015Y491535D01*
X1114574Y491031D01*
X1113304Y491510D01*
Y509653D01*
X1120087Y516436D01*
X1120658Y517132D01*
X1121082Y517926D01*
X1121344Y518788D01*
X1121432Y519684D01*
Y588010D01*
X1121344Y588906D01*
X1121082Y589768D01*
X1120658Y590562D01*
X1120087Y591259D01*
X1111884Y599461D01*
Y603736D01*
X1113720D01*
X1113750Y603688D01*
X1114555Y602745D01*
X1115498Y601940D01*
X1116554Y601292D01*
X1117699Y600818D01*
X1118904Y600529D01*
X1120140Y600432D01*
X1121376Y600529D01*
X1122581Y600818D01*
X1123726Y601292D01*
X1124782Y601940D01*
X1125725Y602745D01*
X1126530Y603688D01*
X1127178Y604744D01*
X1127652Y605889D01*
X1127941Y607094D01*
X1128038Y608330D01*
X1127941Y609566D01*
X1127652Y610771D01*
X1127178Y611916D01*
X1126530Y612972D01*
X1125725Y613915D01*
X1124782Y614720D01*
X1123726Y615368D01*
X1122581Y615842D01*
X1121376Y616131D01*
X1120140Y616228D01*
X1118904Y616131D01*
X1117699Y615842D01*
X1116554Y615368D01*
X1115498Y614720D01*
X1114555Y613915D01*
X1113750Y612972D01*
X1113720Y612924D01*
X1111884D01*
Y620774D01*
X1106954D01*
Y681865D01*
X1117546Y692458D01*
X1118118Y693154D01*
X1118542Y693948D01*
X1118804Y694810D01*
X1118892Y695706D01*
Y699770D01*
Y779780D01*
X1118804Y780676D01*
X1118542Y781538D01*
X1118118Y782332D01*
X1117546Y783028D01*
X1109344Y791231D01*
Y812544D01*
X1104414D01*
Y858520D01*
X1104352Y859155D01*
X1104414Y859790D01*
Y875030D01*
Y884811D01*
X1122226Y902623D01*
X1122797Y903319D01*
X1123222Y904113D01*
X1123483Y904975D01*
X1123571Y905871D01*
Y907916D01*
X1140594D01*
X1141209Y906901D01*
Y792684D01*
X1134657Y786132D01*
X1134209Y785549D01*
X1133928Y784869D01*
X1133832Y784140D01*
Y605790D01*
X1133928Y605061D01*
X1134209Y604381D01*
X1134657Y603797D01*
X1162516Y575939D01*
X1162516Y575939D01*
X1163100Y575491D01*
X1163779Y575209D01*
X1164509Y575113D01*
X1164509Y575113D01*
X1183602D01*
X1183786Y574952D01*
Y565883D01*
X1193969D01*
X1194454Y564710D01*
X1192676Y562931D01*
X1183786D01*
Y551883D01*
X1195834D01*
Y558119D01*
X1205571Y567856D01*
X1209086D01*
Y563466D01*
X1209042Y563130D01*
Y559627D01*
X1205499Y556084D01*
X1197936D01*
Y545036D01*
X1209366D01*
X1209984Y545036D01*
Y545036D01*
X1210636Y545036D01*
Y545036D01*
X1222684D01*
Y554688D01*
X1223954Y555394D01*
X1224042Y555339D01*
Y544229D01*
X1223700Y543100D01*
X1217930D01*
Y536560D01*
Y530020D01*
X1223700D01*
Y536002D01*
X1224558Y536417D01*
X1224970Y536465D01*
X1236036Y525398D01*
Y518336D01*
X1238226D01*
Y513993D01*
X1233717Y509485D01*
X1233269Y508901D01*
X1232988Y508221D01*
X1232892Y507492D01*
Y488054D01*
X1231622Y487844D01*
X1231365Y488601D01*
X1230842Y489662D01*
X1230185Y490645D01*
X1229405Y491535D01*
X1228515Y492315D01*
X1227532Y492972D01*
X1226471Y493495D01*
X1225351Y493875D01*
X1224190Y494106D01*
X1223010Y494183D01*
X1221830Y494106D01*
X1220669Y493875D01*
X1219549Y493495D01*
X1218488Y492972D01*
X1217505Y492315D01*
X1216615Y491535D01*
X1215835Y490645D01*
X1215178Y489662D01*
X1214655Y488601D01*
X1214275Y487481D01*
X1214044Y486320D01*
X1213967Y485140D01*
X1214044Y483960D01*
X1214275Y482799D01*
X1214655Y481679D01*
X1215178Y480618D01*
X1215835Y479635D01*
X1216615Y478745D01*
X1217505Y477965D01*
X1218488Y477308D01*
X1219549Y476785D01*
X1220669Y476405D01*
X1221830Y476174D01*
X1223010Y476097D01*
X1224190Y476174D01*
X1225351Y476405D01*
X1226471Y476785D01*
X1227532Y477308D01*
X1228515Y477965D01*
X1229405Y478745D01*
X1230185Y479635D01*
X1230842Y480618D01*
X1231365Y481679D01*
X1231622Y482436D01*
X1232892Y482226D01*
Y462654D01*
X1231622Y462444D01*
X1231365Y463201D01*
X1230842Y464262D01*
X1230185Y465245D01*
X1229405Y466135D01*
X1228515Y466915D01*
X1227532Y467572D01*
X1226471Y468095D01*
X1225351Y468475D01*
X1224190Y468706D01*
X1223010Y468783D01*
X1221830Y468706D01*
X1220669Y468475D01*
X1219549Y468095D01*
X1218488Y467572D01*
X1217505Y466915D01*
X1216615Y466135D01*
X1215835Y465245D01*
X1215178Y464262D01*
X1214655Y463201D01*
X1214275Y462081D01*
X1214044Y460920D01*
X1213967Y459740D01*
X1214044Y458560D01*
X1214275Y457399D01*
X1214655Y456279D01*
X1215178Y455218D01*
X1215835Y454235D01*
X1216615Y453345D01*
X1217505Y452565D01*
X1218488Y451908D01*
X1219549Y451385D01*
X1220306Y451128D01*
X1220097Y449858D01*
X1207500D01*
X1207174Y450254D01*
X1206486Y450820D01*
X1205700Y451240D01*
X1204847Y451498D01*
X1203960Y451586D01*
X1203073Y451498D01*
X1202220Y451240D01*
X1201434Y450820D01*
X1200746Y450254D01*
X1200180Y449566D01*
X1199760Y448780D01*
X1199501Y447927D01*
X1199414Y447040D01*
X1199501Y446153D01*
X1199760Y445300D01*
X1200180Y444514D01*
X1200746Y443826D01*
X1201434Y443260D01*
X1202220Y442840D01*
X1203073Y442581D01*
X1203960Y442494D01*
X1204847Y442581D01*
X1205700Y442840D01*
X1206486Y443260D01*
X1207174Y443826D01*
X1207500Y444222D01*
X1228598D01*
X1229327Y444318D01*
X1230007Y444599D01*
X1230591Y445047D01*
X1237703Y452159D01*
X1238151Y452743D01*
X1238432Y453423D01*
X1238528Y454152D01*
Y456827D01*
X1239798Y457036D01*
X1240055Y456279D01*
X1240578Y455218D01*
X1241235Y454235D01*
X1242015Y453345D01*
X1242905Y452565D01*
X1243888Y451908D01*
X1244949Y451385D01*
X1246069Y451005D01*
X1247230Y450774D01*
X1248410Y450697D01*
X1249590Y450774D01*
X1250751Y451005D01*
X1251871Y451385D01*
X1252932Y451908D01*
X1253915Y452565D01*
X1254805Y453345D01*
X1255585Y454235D01*
X1256242Y455218D01*
X1256765Y456279D01*
X1257145Y457399D01*
X1257376Y458560D01*
X1257453Y459740D01*
X1257376Y460920D01*
X1257145Y462081D01*
X1256765Y463201D01*
X1256242Y464262D01*
X1255585Y465245D01*
X1254805Y466135D01*
X1253915Y466915D01*
X1252932Y467572D01*
X1251871Y468095D01*
X1250751Y468475D01*
X1249590Y468706D01*
X1248410Y468783D01*
X1247230Y468706D01*
X1246069Y468475D01*
X1244949Y468095D01*
X1243888Y467572D01*
X1242905Y466915D01*
X1242015Y466135D01*
X1241235Y465245D01*
X1240578Y464262D01*
X1240055Y463201D01*
X1239798Y462444D01*
X1238528Y462654D01*
Y482226D01*
X1239798Y482436D01*
X1240055Y481679D01*
X1240578Y480618D01*
X1241235Y479635D01*
X1242015Y478745D01*
X1242905Y477965D01*
X1243888Y477308D01*
X1244949Y476785D01*
X1246069Y476405D01*
X1247230Y476174D01*
X1248410Y476097D01*
X1249590Y476174D01*
X1250751Y476405D01*
X1251871Y476785D01*
X1252932Y477308D01*
X1253915Y477965D01*
X1254805Y478745D01*
X1255585Y479635D01*
X1256242Y480618D01*
X1256765Y481679D01*
X1257145Y482799D01*
X1257376Y483960D01*
X1257453Y485140D01*
X1257376Y486320D01*
X1257145Y487481D01*
X1256765Y488601D01*
X1256242Y489662D01*
X1255585Y490645D01*
X1254805Y491535D01*
X1253915Y492315D01*
X1252932Y492972D01*
X1251871Y493495D01*
X1250751Y493875D01*
X1249590Y494106D01*
X1248410Y494183D01*
X1247230Y494106D01*
X1246069Y493875D01*
X1244949Y493495D01*
X1243888Y492972D01*
X1242905Y492315D01*
X1242015Y491535D01*
X1241235Y490645D01*
X1240578Y489662D01*
X1240055Y488601D01*
X1239798Y487844D01*
X1238528Y488054D01*
Y506325D01*
X1243037Y510833D01*
X1243485Y511417D01*
X1243766Y512097D01*
X1243862Y512826D01*
Y518336D01*
X1248084D01*
Y528384D01*
X1241021D01*
X1237243Y532163D01*
X1237729Y533336D01*
X1248084D01*
Y535542D01*
X1250389D01*
X1251118Y535638D01*
X1251798Y535920D01*
X1252382Y536367D01*
X1256972Y540957D01*
X1257420Y541541D01*
X1257701Y542221D01*
X1257786Y542870D01*
X1260990D01*
Y549910D01*
X1262260D01*
Y551180D01*
X1268300D01*
Y556586D01*
X1272334D01*
Y567812D01*
X1274270D01*
Y563880D01*
X1280810D01*
X1287350D01*
Y567812D01*
X1351680D01*
X1352409Y567908D01*
X1353089Y568189D01*
X1353672Y568637D01*
X1362163Y577127D01*
X1362611Y577711D01*
X1362892Y578391D01*
X1362988Y579120D01*
Y853440D01*
X1362892Y854169D01*
X1362611Y854849D01*
X1362163Y855433D01*
X1340128Y877467D01*
Y907001D01*
X1340986Y907916D01*
X1341398Y907916D01*
X1359034D01*
Y925964D01*
X1341398D01*
X1340986Y925964D01*
X1340128Y926879D01*
Y929640D01*
X1340032Y930369D01*
X1339751Y931049D01*
X1339303Y931633D01*
X1332665Y938271D01*
X1332965Y938879D01*
X1333345Y939999D01*
X1333576Y941160D01*
X1333653Y942340D01*
X1333576Y943520D01*
X1333345Y944681D01*
X1332965Y945801D01*
X1332442Y946862D01*
X1331785Y947845D01*
X1331005Y948735D01*
X1330115Y949515D01*
X1329132Y950172D01*
X1328071Y950695D01*
X1326951Y951075D01*
X1325790Y951306D01*
X1324610Y951383D01*
X1323430Y951306D01*
X1322269Y951075D01*
X1321149Y950695D01*
X1320088Y950172D01*
X1319105Y949515D01*
X1318215Y948735D01*
X1317435Y947845D01*
X1316778Y946862D01*
X1316255Y945801D01*
X1315875Y944681D01*
X1315644Y943520D01*
X1315567Y942340D01*
X1315644Y941160D01*
X1315875Y939999D01*
X1316255Y938879D01*
X1316778Y937818D01*
X1317435Y936835D01*
X1318215Y935945D01*
X1319105Y935165D01*
X1320088Y934508D01*
X1321149Y933985D01*
X1322269Y933605D01*
X1323430Y933374D01*
X1324610Y933297D01*
X1325790Y933374D01*
X1326951Y933605D01*
X1328071Y933985D01*
X1328679Y934285D01*
X1334492Y928473D01*
Y919854D01*
X1333222Y919644D01*
X1332965Y920401D01*
X1332442Y921462D01*
X1331785Y922445D01*
X1331005Y923335D01*
X1330115Y924115D01*
X1329132Y924772D01*
X1328071Y925295D01*
X1326951Y925675D01*
X1325790Y925906D01*
X1324610Y925983D01*
X1323430Y925906D01*
X1322269Y925675D01*
X1321149Y925295D01*
X1320088Y924772D01*
X1319105Y924115D01*
X1318215Y923335D01*
X1317435Y922445D01*
X1316778Y921462D01*
X1316255Y920401D01*
X1315875Y919281D01*
X1315644Y918120D01*
X1315567Y916940D01*
X1315644Y915760D01*
X1315875Y914599D01*
X1316255Y913479D01*
X1316778Y912418D01*
X1317435Y911435D01*
X1318215Y910545D01*
X1319105Y909765D01*
X1320088Y909108D01*
X1321149Y908585D01*
X1322269Y908205D01*
X1323430Y907974D01*
X1324610Y907897D01*
X1325790Y907974D01*
X1326951Y908205D01*
X1328071Y908585D01*
X1329132Y909108D01*
X1330115Y909765D01*
X1331005Y910545D01*
X1331785Y911435D01*
X1332442Y912418D01*
X1332965Y913479D01*
X1333222Y914236D01*
X1334492Y914026D01*
Y876300D01*
X1334588Y875571D01*
X1334869Y874891D01*
X1335317Y874307D01*
X1357352Y852273D01*
Y780293D01*
X1356082Y780105D01*
X1356032Y780268D01*
X1355608Y781062D01*
X1355036Y781758D01*
X1346834Y789961D01*
Y811274D01*
X1341904D01*
Y855726D01*
X1341816Y856622D01*
X1341554Y857484D01*
X1341130Y858278D01*
X1340558Y858975D01*
X1328112Y871421D01*
X1327416Y871992D01*
X1326622Y872416D01*
X1325760Y872678D01*
X1324864Y872766D01*
X1305074D01*
Y891077D01*
X1304986Y891973D01*
X1304724Y892835D01*
X1304300Y893630D01*
X1303728Y894326D01*
X1290596Y907458D01*
Y911303D01*
X1291866Y911688D01*
X1292035Y911435D01*
X1292815Y910545D01*
X1293705Y909765D01*
X1294688Y909108D01*
X1295749Y908585D01*
X1296869Y908205D01*
X1298030Y907974D01*
X1299210Y907897D01*
X1300390Y907974D01*
X1301551Y908205D01*
X1302671Y908585D01*
X1303732Y909108D01*
X1304715Y909765D01*
X1305605Y910545D01*
X1306385Y911435D01*
X1307042Y912418D01*
X1307565Y913479D01*
X1307945Y914599D01*
X1308176Y915760D01*
X1308253Y916940D01*
X1308176Y918120D01*
X1307945Y919281D01*
X1307565Y920401D01*
X1307042Y921462D01*
X1306385Y922445D01*
X1305605Y923335D01*
X1304715Y924115D01*
X1303732Y924772D01*
X1302671Y925295D01*
X1301551Y925675D01*
X1300390Y925906D01*
X1299210Y925983D01*
X1298030Y925906D01*
X1296869Y925675D01*
X1295749Y925295D01*
X1294688Y924772D01*
X1293705Y924115D01*
X1292815Y923335D01*
X1292035Y922445D01*
X1291866Y922192D01*
X1290596Y922577D01*
Y936703D01*
X1291866Y937088D01*
X1292035Y936835D01*
X1292815Y935945D01*
X1293705Y935165D01*
X1294688Y934508D01*
X1295749Y933985D01*
X1296869Y933605D01*
X1298030Y933374D01*
X1299210Y933297D01*
X1300390Y933374D01*
X1301551Y933605D01*
X1302671Y933985D01*
X1303732Y934508D01*
X1304715Y935165D01*
X1305605Y935945D01*
X1306385Y936835D01*
X1307042Y937818D01*
X1307565Y938879D01*
X1307945Y939999D01*
X1308176Y941160D01*
X1308253Y942340D01*
X1308176Y943520D01*
X1307945Y944681D01*
X1307565Y945801D01*
X1307042Y946862D01*
X1306385Y947845D01*
X1305605Y948735D01*
X1304715Y949515D01*
X1303732Y950172D01*
X1302671Y950695D01*
X1301551Y951075D01*
X1300390Y951306D01*
X1299210Y951383D01*
X1298030Y951306D01*
X1296869Y951075D01*
X1295749Y950695D01*
X1294688Y950172D01*
X1293705Y949515D01*
X1292815Y948735D01*
X1292035Y947845D01*
X1291866Y947592D01*
X1290596Y947977D01*
Y948436D01*
X1290508Y949332D01*
X1290246Y950194D01*
X1289822Y950988D01*
X1289250Y951684D01*
X1276670Y964265D01*
X1275974Y964836D01*
X1275180Y965261D01*
X1274318Y965522D01*
X1273422Y965610D01*
D02*
G37*
G36*
X1359034Y951364D02*
X1340986D01*
Y933316D01*
X1359034D01*
Y951364D01*
D02*
G37*
G36*
X1035050Y868332D02*
X1033935Y868259D01*
X1032839Y868041D01*
X1031781Y867682D01*
X1030779Y867188D01*
X1029850Y866567D01*
X1029010Y865830D01*
X1028273Y864990D01*
X1027652Y864061D01*
X1027158Y863059D01*
X1026799Y862001D01*
X1026581Y860905D01*
X1026508Y859790D01*
X1026581Y858675D01*
X1026799Y857579D01*
X1027158Y856521D01*
X1027652Y855519D01*
X1028273Y854590D01*
X1029010Y853750D01*
X1029850Y853013D01*
X1030779Y852392D01*
X1031781Y851898D01*
X1032839Y851539D01*
X1033935Y851321D01*
X1035050Y851248D01*
X1036165Y851321D01*
X1037261Y851539D01*
X1038319Y851898D01*
X1039321Y852392D01*
X1040250Y853013D01*
X1041090Y853750D01*
X1041827Y854590D01*
X1042448Y855519D01*
X1042942Y856521D01*
X1043301Y857579D01*
X1043519Y858675D01*
X1043592Y859790D01*
X1043519Y860905D01*
X1043301Y862001D01*
X1042942Y863059D01*
X1042448Y864061D01*
X1041827Y864990D01*
X1041090Y865830D01*
X1040250Y866567D01*
X1039321Y867188D01*
X1038319Y867682D01*
X1037261Y868041D01*
X1036165Y868259D01*
X1035050Y868332D01*
D02*
G37*
G36*
X1010920D02*
X1009805Y868259D01*
X1008709Y868041D01*
X1007651Y867682D01*
X1006649Y867188D01*
X1005720Y866567D01*
X1004880Y865830D01*
X1004143Y864990D01*
X1003522Y864061D01*
X1003028Y863059D01*
X1002669Y862001D01*
X1002451Y860905D01*
X1002378Y859790D01*
X1002451Y858675D01*
X1002669Y857579D01*
X1003028Y856521D01*
X1003522Y855519D01*
X1004143Y854590D01*
X1004880Y853750D01*
X1005720Y853013D01*
X1006649Y852392D01*
X1007651Y851898D01*
X1008709Y851539D01*
X1009805Y851321D01*
X1010920Y851248D01*
X1012035Y851321D01*
X1013131Y851539D01*
X1014189Y851898D01*
X1015191Y852392D01*
X1016120Y853013D01*
X1016960Y853750D01*
X1017697Y854590D01*
X1018318Y855519D01*
X1018812Y856521D01*
X1019171Y857579D01*
X1019389Y858675D01*
X1019462Y859790D01*
X1019389Y860905D01*
X1019171Y862001D01*
X1018812Y863059D01*
X1018318Y864061D01*
X1017697Y864990D01*
X1016960Y865830D01*
X1016120Y866567D01*
X1015191Y867188D01*
X1014189Y867682D01*
X1013131Y868041D01*
X1012035Y868259D01*
X1010920Y868332D01*
D02*
G37*
G36*
X968644Y868314D02*
X951596D01*
Y851266D01*
X968644D01*
Y868314D01*
D02*
G37*
G36*
X861112Y892810D02*
X850900D01*
Y882598D01*
X851140Y882614D01*
X852623Y882909D01*
X854056Y883396D01*
X855412Y884065D01*
X856670Y884905D01*
X857807Y885902D01*
X858805Y887040D01*
X859645Y888298D01*
X860314Y889654D01*
X860801Y891087D01*
X861096Y892570D01*
X861112Y892810D01*
D02*
G37*
G36*
X848360D02*
X838148D01*
X838164Y892570D01*
X838459Y891087D01*
X838946Y889654D01*
X839615Y888298D01*
X840455Y887040D01*
X841452Y885902D01*
X842590Y884905D01*
X843848Y884065D01*
X845204Y883396D01*
X846637Y882909D01*
X848120Y882614D01*
X848360Y882598D01*
Y892810D01*
D02*
G37*
G36*
X1324610Y494183D02*
X1323430Y494106D01*
X1322269Y493875D01*
X1321149Y493495D01*
X1320088Y492972D01*
X1319105Y492315D01*
X1318215Y491535D01*
X1317435Y490645D01*
X1316778Y489662D01*
X1316255Y488601D01*
X1315875Y487481D01*
X1315644Y486320D01*
X1315567Y485140D01*
X1315644Y483960D01*
X1315875Y482799D01*
X1316255Y481679D01*
X1316778Y480618D01*
X1317435Y479635D01*
X1318215Y478745D01*
X1319105Y477965D01*
X1320088Y477308D01*
X1321149Y476785D01*
X1322269Y476405D01*
X1323430Y476174D01*
X1324610Y476097D01*
X1325790Y476174D01*
X1326951Y476405D01*
X1328071Y476785D01*
X1329132Y477308D01*
X1330115Y477965D01*
X1331005Y478745D01*
X1331785Y479635D01*
X1332442Y480618D01*
X1332965Y481679D01*
X1333345Y482799D01*
X1333576Y483960D01*
X1333653Y485140D01*
X1333576Y486320D01*
X1333345Y487481D01*
X1332965Y488601D01*
X1332442Y489662D01*
X1331785Y490645D01*
X1331005Y491535D01*
X1330115Y492315D01*
X1329132Y492972D01*
X1328071Y493495D01*
X1326951Y493875D01*
X1325790Y494106D01*
X1324610Y494183D01*
D02*
G37*
G36*
X848360Y770941D02*
X848120Y770926D01*
X846637Y770631D01*
X845204Y770144D01*
X843848Y769475D01*
X842590Y768635D01*
X841452Y767637D01*
X840455Y766500D01*
X839615Y765242D01*
X838946Y763886D01*
X838459Y762453D01*
X838164Y760969D01*
X838148Y760730D01*
X848360D01*
Y770941D01*
D02*
G37*
G36*
X1359034Y494164D02*
X1340986D01*
Y476116D01*
X1359034D01*
Y494164D01*
D02*
G37*
G36*
X1299210Y494183D02*
X1298030Y494106D01*
X1296869Y493875D01*
X1295749Y493495D01*
X1294688Y492972D01*
X1293705Y492315D01*
X1292815Y491535D01*
X1292035Y490645D01*
X1291378Y489662D01*
X1290855Y488601D01*
X1290475Y487481D01*
X1290244Y486320D01*
X1290167Y485140D01*
X1290244Y483960D01*
X1290475Y482799D01*
X1290855Y481679D01*
X1291378Y480618D01*
X1292035Y479635D01*
X1292815Y478745D01*
X1293705Y477965D01*
X1294688Y477308D01*
X1295749Y476785D01*
X1296869Y476405D01*
X1298030Y476174D01*
X1299210Y476097D01*
X1300390Y476174D01*
X1301551Y476405D01*
X1302671Y476785D01*
X1303732Y477308D01*
X1304715Y477965D01*
X1305605Y478745D01*
X1306385Y479635D01*
X1307042Y480618D01*
X1307565Y481679D01*
X1307945Y482799D01*
X1308176Y483960D01*
X1308253Y485140D01*
X1308176Y486320D01*
X1307945Y487481D01*
X1307565Y488601D01*
X1307042Y489662D01*
X1306385Y490645D01*
X1305605Y491535D01*
X1304715Y492315D01*
X1303732Y492972D01*
X1302671Y493495D01*
X1301551Y493875D01*
X1300390Y494106D01*
X1299210Y494183D01*
D02*
G37*
G36*
X848360Y825500D02*
X838148D01*
X838164Y825260D01*
X838459Y823777D01*
X838946Y822344D01*
X839615Y820988D01*
X840455Y819730D01*
X841452Y818593D01*
X842590Y817595D01*
X843848Y816755D01*
X845204Y816086D01*
X846637Y815599D01*
X848120Y815304D01*
X848360Y815288D01*
Y825500D01*
D02*
G37*
G36*
X767080Y709548D02*
X765638Y709453D01*
X764221Y709171D01*
X762852Y708707D01*
X761556Y708067D01*
X760355Y707265D01*
X759268Y706312D01*
X758315Y705225D01*
X757513Y704024D01*
X756873Y702728D01*
X756409Y701359D01*
X756127Y699942D01*
X756032Y698500D01*
X756127Y697058D01*
X756409Y695641D01*
X756873Y694272D01*
X757513Y692976D01*
X758315Y691775D01*
X759268Y690688D01*
X760355Y689735D01*
X761556Y688932D01*
X762486Y688474D01*
Y669161D01*
X738431Y645107D01*
X737860Y644410D01*
X737436Y643616D01*
X737174Y642754D01*
X737086Y641858D01*
Y575304D01*
X729176D01*
Y476256D01*
X820224D01*
Y575304D01*
X746274D01*
Y639955D01*
X770329Y664009D01*
X770900Y664706D01*
X771324Y665500D01*
X771586Y666362D01*
X771674Y667258D01*
Y688474D01*
X772604Y688932D01*
X773805Y689735D01*
X774892Y690688D01*
X775845Y691775D01*
X776647Y692976D01*
X777287Y694272D01*
X777751Y695641D01*
X778033Y697058D01*
X778128Y698500D01*
X778033Y699942D01*
X777751Y701359D01*
X777287Y702728D01*
X776647Y704024D01*
X775845Y705225D01*
X774892Y706312D01*
X773805Y707265D01*
X772604Y708067D01*
X771308Y708707D01*
X769939Y709171D01*
X768522Y709453D01*
X767080Y709548D01*
D02*
G37*
G36*
X850900Y770941D02*
Y760730D01*
X861112D01*
X861096Y760969D01*
X860801Y762453D01*
X860314Y763886D01*
X859645Y765242D01*
X858805Y766500D01*
X857807Y767637D01*
X856670Y768635D01*
X855412Y769475D01*
X854056Y770144D01*
X852623Y770631D01*
X851140Y770926D01*
X850900Y770941D01*
D02*
G37*
G36*
X1146810Y494183D02*
X1145630Y494106D01*
X1144469Y493875D01*
X1143349Y493495D01*
X1142288Y492972D01*
X1141305Y492315D01*
X1140415Y491535D01*
X1139635Y490645D01*
X1138978Y489662D01*
X1138455Y488601D01*
X1138075Y487481D01*
X1137844Y486320D01*
X1137767Y485140D01*
X1137844Y483960D01*
X1138075Y482799D01*
X1138455Y481679D01*
X1138978Y480618D01*
X1139635Y479635D01*
X1140415Y478745D01*
X1141305Y477965D01*
X1142288Y477308D01*
X1143349Y476785D01*
X1144469Y476405D01*
X1145630Y476174D01*
X1146810Y476097D01*
X1147990Y476174D01*
X1149151Y476405D01*
X1150271Y476785D01*
X1151332Y477308D01*
X1152315Y477965D01*
X1153205Y478745D01*
X1153985Y479635D01*
X1154642Y480618D01*
X1155165Y481679D01*
X1155545Y482799D01*
X1155776Y483960D01*
X1155853Y485140D01*
X1155776Y486320D01*
X1155545Y487481D01*
X1155165Y488601D01*
X1154642Y489662D01*
X1153985Y490645D01*
X1153205Y491535D01*
X1152315Y492315D01*
X1151332Y492972D01*
X1150271Y493495D01*
X1149151Y493875D01*
X1147990Y494106D01*
X1146810Y494183D01*
D02*
G37*
G36*
X1181234Y494164D02*
X1163186D01*
Y476116D01*
X1181234D01*
Y494164D01*
D02*
G37*
G36*
X1273810Y494183D02*
X1272630Y494106D01*
X1271469Y493875D01*
X1270349Y493495D01*
X1269288Y492972D01*
X1268305Y492315D01*
X1267415Y491535D01*
X1266635Y490645D01*
X1265978Y489662D01*
X1265455Y488601D01*
X1265075Y487481D01*
X1264844Y486320D01*
X1264767Y485140D01*
X1264844Y483960D01*
X1265075Y482799D01*
X1265455Y481679D01*
X1265978Y480618D01*
X1266635Y479635D01*
X1267415Y478745D01*
X1268305Y477965D01*
X1269288Y477308D01*
X1270349Y476785D01*
X1271469Y476405D01*
X1272630Y476174D01*
X1273810Y476097D01*
X1274990Y476174D01*
X1276151Y476405D01*
X1277271Y476785D01*
X1278332Y477308D01*
X1279315Y477965D01*
X1280205Y478745D01*
X1280985Y479635D01*
X1281642Y480618D01*
X1282165Y481679D01*
X1282545Y482799D01*
X1282776Y483960D01*
X1282853Y485140D01*
X1282776Y486320D01*
X1282545Y487481D01*
X1282165Y488601D01*
X1281642Y489662D01*
X1280985Y490645D01*
X1280205Y491535D01*
X1279315Y492315D01*
X1278332Y492972D01*
X1277271Y493495D01*
X1276151Y493875D01*
X1274990Y494106D01*
X1273810Y494183D01*
D02*
G37*
%LPD*%
G36*
X1036313Y827363D02*
X1035827Y826190D01*
X1033660D01*
Y820420D01*
X1038430D01*
Y823587D01*
X1039603Y824073D01*
X1047231Y816446D01*
Y797814D01*
X1045960Y797456D01*
X1045603Y798039D01*
X1044798Y798982D01*
X1043856Y799787D01*
X1042799Y800434D01*
X1041654Y800909D01*
X1040449Y801198D01*
X1040036Y801230D01*
X1039360Y802558D01*
X1039548Y802864D01*
X1040022Y804009D01*
X1040311Y805214D01*
X1040408Y806450D01*
X1040311Y807686D01*
X1040022Y808891D01*
X1039548Y810036D01*
X1038928Y811046D01*
X1038430Y812110D01*
Y817880D01*
X1032390D01*
X1026350D01*
Y812110D01*
X1026350Y812110D01*
X1026043Y810967D01*
X1025472Y810036D01*
X1024998Y808891D01*
X1024795Y808046D01*
X1022583Y805833D01*
X1021862Y805614D01*
X1021068Y805190D01*
X1020371Y804619D01*
X1019800Y803922D01*
X1019376Y803128D01*
X1019114Y802266D01*
X1019033Y801444D01*
X1017224D01*
Y805834D01*
X1017268Y806170D01*
Y813126D01*
X1022414D01*
Y825174D01*
X1012394D01*
X1012371Y825466D01*
X1012082Y826671D01*
X1011608Y827816D01*
X1010960Y828873D01*
X1010155Y829815D01*
X1009212Y830620D01*
X1008156Y831267D01*
X1007011Y831742D01*
X1005806Y832031D01*
X1004570Y832128D01*
X1003334Y832031D01*
X1002129Y831742D01*
X1000984Y831267D01*
X999928Y830620D01*
X998985Y829815D01*
X998429Y829164D01*
X997503Y829110D01*
X996954Y829302D01*
X996439Y830143D01*
X995634Y831085D01*
X994692Y831890D01*
X993635Y832538D01*
X992490Y833012D01*
X991285Y833301D01*
X990049Y833398D01*
X988814Y833301D01*
X987608Y833012D01*
X986463Y832538D01*
X985407Y831890D01*
X984464Y831085D01*
X983659Y830143D01*
X983012Y829086D01*
X982537Y827941D01*
X982248Y826736D01*
X982151Y825500D01*
X982248Y824264D01*
X982537Y823059D01*
X983012Y821914D01*
X983659Y820857D01*
X984464Y819915D01*
X984856Y819581D01*
Y815220D01*
X984944Y814324D01*
X985053Y813964D01*
X984318Y812694D01*
X981864D01*
X981443Y813243D01*
X977353Y817333D01*
X977410Y818824D01*
X977462Y818856D01*
X978405Y819661D01*
X979210Y820603D01*
X979857Y821660D01*
X980332Y822805D01*
X980621Y824010D01*
X980718Y825246D01*
X980621Y826482D01*
X980332Y827687D01*
X979857Y828832D01*
X979210Y829889D01*
X978405Y830831D01*
X977462Y831636D01*
X976406Y832283D01*
X975261Y832758D01*
X974056Y833047D01*
X972820Y833144D01*
X971584Y833047D01*
X970379Y832758D01*
X969234Y832283D01*
X968177Y831636D01*
X967235Y830831D01*
X966430Y829889D01*
X965782Y828832D01*
X965464Y828064D01*
X952875D01*
X952145Y827968D01*
X951466Y827687D01*
X950882Y827239D01*
X946830Y823186D01*
X945960Y822380D01*
Y822380D01*
X945960Y822380D01*
X941190D01*
Y815340D01*
X939920D01*
Y814070D01*
X933880D01*
Y808300D01*
X938000D01*
X938670Y807030D01*
X938463Y806728D01*
X932078D01*
X931348Y806632D01*
X930668Y806351D01*
X930071Y806827D01*
X929673Y807188D01*
X929088Y808064D01*
X928320Y808940D01*
X927443Y809708D01*
X926475Y810356D01*
X925429Y810871D01*
X924326Y811245D01*
X923290Y811451D01*
Y802640D01*
X920750D01*
Y811451D01*
X919714Y811245D01*
X918611Y810871D01*
X917565Y810356D01*
X916597Y809708D01*
X915720Y808940D01*
X915272Y808428D01*
X914002Y808906D01*
Y816036D01*
X937157Y839192D01*
X1024485D01*
X1036313Y827363D01*
D02*
G37*
G36*
X1084302Y580880D02*
Y575715D01*
X1068617Y560031D01*
X1068169Y559447D01*
X1067888Y558767D01*
X1067792Y558038D01*
Y501597D01*
X1066619Y501111D01*
X1042377Y525353D01*
X1041793Y525800D01*
X1041113Y526082D01*
X1040384Y526178D01*
X1038088D01*
X1037703Y527448D01*
X1037934Y527602D01*
X1038810Y528370D01*
X1039578Y529246D01*
X1040226Y530215D01*
X1040741Y531261D01*
X1041115Y532364D01*
X1041321Y533400D01*
X1032510D01*
Y535940D01*
X1041321D01*
X1041115Y536976D01*
X1040741Y538079D01*
X1040226Y539125D01*
X1039578Y540093D01*
X1038810Y540970D01*
X1038091Y541600D01*
X1038104Y541709D01*
X1038430Y542870D01*
X1038430Y542870D01*
X1038430Y542870D01*
Y548640D01*
X1032390D01*
Y551180D01*
X1038430D01*
Y556586D01*
X1042464D01*
Y567812D01*
X1044400D01*
Y563880D01*
X1050940D01*
X1057480D01*
Y567812D01*
X1061104D01*
X1061833Y567908D01*
X1062513Y568189D01*
X1063096Y568637D01*
X1074768Y580308D01*
X1075535Y579990D01*
X1076740Y579701D01*
X1077976Y579604D01*
X1079212Y579701D01*
X1080417Y579990D01*
X1081562Y580465D01*
X1082618Y581112D01*
X1083032Y581465D01*
X1084302Y580880D01*
D02*
G37*
G36*
X1151694Y779801D02*
Y764712D01*
X1151790Y763983D01*
X1152071Y763303D01*
X1152519Y762719D01*
X1156501Y758737D01*
X1157085Y758289D01*
X1157765Y758008D01*
X1158494Y757912D01*
X1167892D01*
X1168621Y758008D01*
X1169301Y758289D01*
X1169885Y758737D01*
X1180253Y769105D01*
X1181426Y768619D01*
Y760936D01*
X1190281D01*
X1190767Y759763D01*
X1188989Y757984D01*
X1181426D01*
Y746936D01*
X1193474D01*
Y754499D01*
X1199827Y760852D01*
X1201820D01*
X1202156Y760896D01*
X1206546D01*
Y756506D01*
X1206502Y756170D01*
Y752667D01*
X1202959Y749124D01*
X1195396D01*
Y739418D01*
X1169406D01*
X1169088Y740186D01*
X1168440Y741243D01*
X1167635Y742185D01*
X1166693Y742990D01*
X1165636Y743637D01*
X1164491Y744112D01*
X1163286Y744401D01*
X1162050Y744498D01*
X1160814Y744401D01*
X1159609Y744112D01*
X1158464Y743637D01*
X1157408Y742990D01*
X1156465Y742185D01*
X1155660Y741243D01*
X1155013Y740186D01*
X1154538Y739041D01*
X1154249Y737836D01*
X1154152Y736600D01*
X1154249Y735364D01*
X1154538Y734159D01*
X1155013Y733014D01*
X1155660Y731957D01*
X1156465Y731015D01*
X1157408Y730210D01*
X1158464Y729563D01*
X1159609Y729088D01*
X1160814Y728799D01*
X1162050Y728702D01*
X1163286Y728799D01*
X1164491Y729088D01*
X1165636Y729563D01*
X1166693Y730210D01*
X1167635Y731015D01*
X1168440Y731957D01*
X1169088Y733014D01*
X1169406Y733782D01*
X1186353D01*
X1186839Y732609D01*
X1175297Y721067D01*
X1174849Y720483D01*
X1174568Y719803D01*
X1174472Y719074D01*
Y655320D01*
X1174568Y654591D01*
X1174849Y653911D01*
X1175297Y653327D01*
X1178473Y650152D01*
X1179056Y649704D01*
X1179736Y649423D01*
X1180465Y649327D01*
X1189528D01*
X1190014Y648153D01*
X1177643Y635782D01*
X1177195Y635199D01*
X1176914Y634519D01*
X1176817Y633790D01*
Y629340D01*
X1173600D01*
Y622300D01*
Y615260D01*
X1176817D01*
Y613614D01*
X1173463Y610259D01*
X1168383D01*
X1167654Y610163D01*
X1166974Y609881D01*
X1166390Y609433D01*
X1165137Y608180D01*
X1164689Y607597D01*
X1164408Y606917D01*
X1164312Y606188D01*
Y605210D01*
X1161400D01*
Y598170D01*
X1160130D01*
Y596900D01*
X1153590D01*
Y594495D01*
X1152416Y594009D01*
X1139468Y606957D01*
Y615631D01*
X1140738Y616016D01*
X1141012Y615606D01*
X1141780Y614730D01*
X1142656Y613962D01*
X1143625Y613315D01*
X1144671Y612799D01*
X1145774Y612425D01*
X1146810Y612219D01*
Y621030D01*
Y629841D01*
X1145774Y629636D01*
X1144671Y629261D01*
X1143625Y628745D01*
X1142656Y628098D01*
X1141780Y627330D01*
X1141012Y626454D01*
X1140738Y626044D01*
X1139468Y626429D01*
Y782972D01*
X1142897Y786402D01*
X1145093D01*
X1151694Y779801D01*
D02*
G37*
G36*
X988060Y530020D02*
X993830D01*
Y536002D01*
X994688Y536417D01*
X995100Y536465D01*
X1006166Y525398D01*
Y518336D01*
X1018214D01*
Y520542D01*
X1039217D01*
X1067792Y491967D01*
Y468313D01*
X1067149Y468095D01*
X1066088Y467572D01*
X1065105Y466915D01*
X1064215Y466135D01*
X1063435Y465245D01*
X1062778Y464262D01*
X1062255Y463201D01*
X1061875Y462081D01*
X1061644Y460920D01*
X1061567Y459740D01*
X1061644Y458560D01*
X1061875Y457399D01*
X1062255Y456279D01*
X1062778Y455218D01*
X1063435Y454235D01*
X1064215Y453345D01*
X1065105Y452565D01*
X1066088Y451908D01*
X1067149Y451385D01*
X1067585Y451237D01*
X1067375Y449967D01*
X1048445D01*
X1048235Y451237D01*
X1048671Y451385D01*
X1049732Y451908D01*
X1050715Y452565D01*
X1051605Y453345D01*
X1052385Y454235D01*
X1053042Y455218D01*
X1053565Y456279D01*
X1053945Y457399D01*
X1054176Y458560D01*
X1054253Y459740D01*
X1054176Y460920D01*
X1053945Y462081D01*
X1053565Y463201D01*
X1053042Y464262D01*
X1052385Y465245D01*
X1051605Y466135D01*
X1050715Y466915D01*
X1049732Y467572D01*
X1048671Y468095D01*
X1047551Y468475D01*
X1046390Y468706D01*
X1045210Y468783D01*
X1044030Y468706D01*
X1042869Y468475D01*
X1041749Y468095D01*
X1040688Y467572D01*
X1039705Y466915D01*
X1038815Y466135D01*
X1038035Y465245D01*
X1037378Y464262D01*
X1036855Y463201D01*
X1036475Y462081D01*
X1036244Y460920D01*
X1036167Y459740D01*
X1036244Y458560D01*
X1036475Y457399D01*
X1036855Y456279D01*
X1037378Y455218D01*
X1038035Y454235D01*
X1038815Y453345D01*
X1039705Y452565D01*
X1040688Y451908D01*
X1041749Y451385D01*
X1042185Y451237D01*
X1041975Y449967D01*
X1023045D01*
X1022835Y451237D01*
X1023271Y451385D01*
X1024332Y451908D01*
X1025315Y452565D01*
X1026205Y453345D01*
X1026985Y454235D01*
X1027642Y455218D01*
X1028165Y456279D01*
X1028545Y457399D01*
X1028776Y458560D01*
X1028853Y459740D01*
X1028776Y460920D01*
X1028545Y462081D01*
X1028165Y463201D01*
X1027642Y464262D01*
X1026985Y465245D01*
X1026205Y466135D01*
X1025315Y466915D01*
X1024332Y467572D01*
X1023271Y468095D01*
X1022151Y468475D01*
X1020990Y468706D01*
X1019810Y468783D01*
X1018630Y468706D01*
X1017469Y468475D01*
X1016349Y468095D01*
X1015288Y467572D01*
X1014305Y466915D01*
X1013415Y466135D01*
X1012635Y465245D01*
X1011978Y464262D01*
X1011455Y463201D01*
X1011075Y462081D01*
X1010844Y460920D01*
X1010767Y459740D01*
X1010844Y458560D01*
X1011075Y457399D01*
X1011455Y456279D01*
X1011978Y455218D01*
X1012635Y454235D01*
X1013415Y453345D01*
X1014305Y452565D01*
X1015288Y451908D01*
X1016349Y451385D01*
X1016785Y451237D01*
X1016575Y449967D01*
X997645D01*
X997435Y451237D01*
X997871Y451385D01*
X998932Y451908D01*
X999915Y452565D01*
X1000805Y453345D01*
X1001585Y454235D01*
X1002242Y455218D01*
X1002765Y456279D01*
X1003145Y457399D01*
X1003376Y458560D01*
X1003453Y459740D01*
X1003376Y460920D01*
X1003145Y462081D01*
X1002765Y463201D01*
X1002242Y464262D01*
X1001585Y465245D01*
X1000805Y466135D01*
X999915Y466915D01*
X998932Y467572D01*
X997871Y468095D01*
X996751Y468475D01*
X995590Y468706D01*
X994410Y468783D01*
X993230Y468706D01*
X992069Y468475D01*
X990949Y468095D01*
X989888Y467572D01*
X988905Y466915D01*
X988015Y466135D01*
X987235Y465245D01*
X986578Y464262D01*
X986055Y463201D01*
X985675Y462081D01*
X985444Y460920D01*
X985367Y459740D01*
X985444Y458560D01*
X985675Y457399D01*
X986055Y456279D01*
X986578Y455218D01*
X987235Y454235D01*
X988015Y453345D01*
X988905Y452565D01*
X989888Y451908D01*
X990949Y451385D01*
X991385Y451237D01*
X991175Y449967D01*
X987820D01*
X978684Y459103D01*
Y529528D01*
X979750Y530020D01*
X985520D01*
Y536560D01*
X988060D01*
Y530020D01*
D02*
G37*
G36*
X959080Y729153D02*
Y690880D01*
X959176Y690151D01*
X959457Y689471D01*
X959905Y688887D01*
X960667Y688125D01*
X961251Y687677D01*
X961931Y687396D01*
X962660Y687300D01*
X1054837D01*
X1060172Y681965D01*
Y675640D01*
Y660146D01*
X1060268Y659417D01*
X1060549Y658737D01*
X1060997Y658153D01*
X1084302Y634849D01*
Y600226D01*
X1069848D01*
X1069848Y600226D01*
X1069119Y600130D01*
X1068439Y599849D01*
X1067855Y599401D01*
X1052915Y584461D01*
X1052242Y584713D01*
X1051770Y585111D01*
X1051838Y585630D01*
Y589383D01*
X1057363Y594907D01*
X1057811Y595491D01*
X1058092Y596171D01*
X1058188Y596900D01*
Y605131D01*
X1064100Y611042D01*
X1064867Y610724D01*
X1066072Y610435D01*
X1067308Y610338D01*
X1068544Y610435D01*
X1069749Y610724D01*
X1070894Y611199D01*
X1071951Y611846D01*
X1072893Y612651D01*
X1073698Y613593D01*
X1074345Y614650D01*
X1074820Y615795D01*
X1075109Y617000D01*
X1075206Y618236D01*
X1075109Y619472D01*
X1074820Y620677D01*
X1074345Y621822D01*
X1073698Y622878D01*
X1072893Y623821D01*
X1071951Y624626D01*
X1070894Y625274D01*
X1069749Y625748D01*
X1068544Y626037D01*
X1067308Y626134D01*
X1066072Y626037D01*
X1064867Y625748D01*
X1063722Y625274D01*
X1062665Y624626D01*
X1061723Y623821D01*
X1060918Y622878D01*
X1060270Y621822D01*
X1059796Y620677D01*
X1059507Y619472D01*
X1059410Y618236D01*
X1059507Y617000D01*
X1059796Y615795D01*
X1060114Y615028D01*
X1053377Y608291D01*
X1052929Y607707D01*
X1052648Y607027D01*
X1052552Y606298D01*
Y598067D01*
X1050545Y596061D01*
X1049541Y596852D01*
X1049707Y597124D01*
X1050182Y598269D01*
X1050471Y599474D01*
X1050568Y600710D01*
X1050471Y601946D01*
X1050182Y603151D01*
X1049707Y604296D01*
X1049060Y605353D01*
X1048255Y606295D01*
X1047312Y607100D01*
X1046256Y607747D01*
X1045111Y608222D01*
X1043906Y608511D01*
X1042824Y608596D01*
X1042487Y608990D01*
X1042087Y609824D01*
X1042562Y610969D01*
X1042851Y612174D01*
X1042948Y613410D01*
X1042851Y614646D01*
X1042562Y615851D01*
X1042087Y616996D01*
X1041468Y618006D01*
X1040970Y619070D01*
Y624840D01*
X1034930D01*
X1028890D01*
Y619070D01*
X1028890Y619070D01*
X1028583Y617927D01*
X1028012Y616996D01*
X1027538Y615851D01*
X1027460Y615526D01*
X1026942Y615368D01*
X1026148Y614944D01*
X1025452Y614372D01*
X1024880Y613676D01*
X1024456Y612882D01*
X1024194Y612020D01*
X1024106Y611124D01*
X1024194Y610228D01*
X1024367Y609659D01*
X1023906Y608754D01*
X1023591Y608404D01*
X1019764D01*
Y612794D01*
X1019808Y613130D01*
Y620086D01*
X1024954D01*
Y632134D01*
X1014906D01*
X1013867Y632693D01*
X1013500Y633293D01*
X1012695Y634235D01*
X1011752Y635040D01*
X1010696Y635687D01*
X1009551Y636162D01*
X1008346Y636451D01*
X1007110Y636548D01*
X1005874Y636451D01*
X1004669Y636162D01*
X1003524Y635687D01*
X1002467Y635040D01*
X1001525Y634235D01*
X1000720Y633293D01*
X1000072Y632236D01*
X999598Y631091D01*
X999578Y631007D01*
X998580Y630481D01*
X997702Y630810D01*
X997637Y630966D01*
X996990Y632023D01*
X996185Y632965D01*
X995242Y633770D01*
X994186Y634417D01*
X993041Y634892D01*
X991836Y635181D01*
X990600Y635278D01*
X989364Y635181D01*
X988159Y634892D01*
X987014Y634417D01*
X985957Y633770D01*
X985015Y632965D01*
X984210Y632023D01*
X983562Y630966D01*
X983088Y629821D01*
X982799Y628616D01*
X982702Y627380D01*
X982799Y626144D01*
X983088Y624939D01*
X983439Y624092D01*
X982362Y623373D01*
X981443Y624293D01*
X980859Y624741D01*
X980179Y625022D01*
X979450Y625118D01*
X960735D01*
Y628644D01*
X957329D01*
X956754Y629914D01*
X957028Y630227D01*
X957675Y631196D01*
X958191Y632241D01*
X958566Y633344D01*
X958772Y634380D01*
X941149D01*
X941355Y633344D01*
X941729Y632241D01*
X942244Y631196D01*
X942422Y630930D01*
X941981Y630104D01*
Y622620D01*
X940711D01*
Y621350D01*
X934671D01*
Y618130D01*
X933904Y617526D01*
X933401Y617384D01*
X932321Y617469D01*
X931086Y617372D01*
X929881Y617083D01*
X928736Y616609D01*
X927679Y615961D01*
X926737Y615156D01*
X925932Y614214D01*
X925284Y613157D01*
X924810Y612012D01*
X924520Y610807D01*
X924423Y609571D01*
X924520Y608335D01*
X924810Y607130D01*
X925284Y605985D01*
X925932Y604929D01*
X926737Y603986D01*
X927679Y603181D01*
X928736Y602534D01*
X929881Y602059D01*
X931086Y601770D01*
X932321Y601673D01*
X933557Y601770D01*
X934762Y602059D01*
X935907Y602534D01*
X936964Y603181D01*
X937140Y603331D01*
X938410Y602746D01*
Y600859D01*
X944950D01*
Y598319D01*
X938410D01*
Y592549D01*
X942516D01*
Y590574D01*
X925981D01*
X922298Y594257D01*
Y627483D01*
X938412Y643597D01*
X938860Y644180D01*
X939141Y644860D01*
X939237Y645589D01*
Y710970D01*
X957907Y729639D01*
X959080Y729153D01*
D02*
G37*
G36*
X1265455Y913479D02*
X1265978Y912418D01*
X1266635Y911435D01*
X1267415Y910545D01*
X1268305Y909765D01*
X1269288Y909108D01*
X1270349Y908585D01*
X1271469Y908205D01*
X1272630Y907974D01*
X1273810Y907897D01*
X1274990Y907974D01*
X1276151Y908205D01*
X1277271Y908585D01*
X1278332Y909108D01*
X1279315Y909765D01*
X1280138Y910487D01*
X1280401Y910455D01*
X1281408Y909991D01*
Y905555D01*
X1281496Y904659D01*
X1281758Y903797D01*
X1282182Y903003D01*
X1282753Y902307D01*
X1295886Y889174D01*
Y868172D01*
Y861238D01*
X1295360Y860622D01*
X1294713Y859566D01*
X1294238Y858421D01*
X1293949Y857216D01*
X1293852Y855980D01*
X1293949Y854744D01*
X1294238Y853539D01*
X1294713Y852394D01*
X1295360Y851338D01*
X1296165Y850395D01*
X1297108Y849590D01*
X1298164Y848942D01*
X1299309Y848468D01*
X1300514Y848179D01*
X1301750Y848082D01*
X1302986Y848179D01*
X1304191Y848468D01*
X1305336Y848942D01*
X1306393Y849590D01*
X1307335Y850395D01*
X1308140Y851338D01*
X1308788Y852394D01*
X1309262Y853539D01*
X1309551Y854744D01*
X1309648Y855980D01*
X1309551Y857216D01*
X1309262Y858421D01*
X1308788Y859566D01*
X1308140Y860622D01*
X1307335Y861565D01*
X1306465Y862308D01*
X1306467Y862564D01*
X1306852Y863578D01*
X1322961D01*
X1332716Y853823D01*
Y811274D01*
X1327786D01*
Y776226D01*
X1346834D01*
X1347194Y775105D01*
Y761490D01*
X1338580D01*
Y742950D01*
Y724410D01*
X1347194D01*
Y698371D01*
X1336013Y687190D01*
X1335623Y687509D01*
X1334829Y687934D01*
X1333967Y688195D01*
X1333071Y688284D01*
X1207054D01*
X1206014Y689324D01*
Y722568D01*
X1207080Y723060D01*
X1212850D01*
Y729600D01*
X1215390D01*
Y723060D01*
X1221160D01*
Y728402D01*
X1221862Y728786D01*
X1222430Y728877D01*
X1233496Y717811D01*
Y711376D01*
X1245544D01*
Y721424D01*
X1237853D01*
X1234171Y725106D01*
X1234697Y726376D01*
X1245544D01*
Y728582D01*
X1246766D01*
X1247495Y728678D01*
X1248175Y728960D01*
X1248759Y729407D01*
X1255053Y735701D01*
X1255053Y735701D01*
X1255213Y735910D01*
X1258450D01*
Y742950D01*
X1259720D01*
Y744220D01*
X1265760D01*
Y749626D01*
X1269794D01*
Y760053D01*
X1270557Y760498D01*
X1271730Y759732D01*
Y756920D01*
X1277000D01*
Y762690D01*
X1274157D01*
X1273671Y763863D01*
X1284185Y774377D01*
X1284633Y774961D01*
X1284914Y775640D01*
X1285010Y776370D01*
Y837249D01*
X1284914Y837978D01*
X1284633Y838658D01*
X1284248Y839159D01*
Y886474D01*
X1284152Y887204D01*
X1283871Y887883D01*
X1283423Y888467D01*
X1280897Y890993D01*
X1280897Y890993D01*
X1280836Y891040D01*
X1263928Y907947D01*
Y914026D01*
X1265198Y914236D01*
X1265455Y913479D01*
D02*
G37*
G36*
X1081432Y695251D02*
X1082128Y694680D01*
X1082923Y694256D01*
X1083784Y693994D01*
X1084681Y693906D01*
X1104342D01*
X1104827Y692732D01*
X1099111Y687017D01*
X1098540Y686320D01*
X1098116Y685526D01*
X1097854Y684664D01*
X1097766Y683768D01*
Y620774D01*
X1092836D01*
Y585726D01*
X1111884D01*
X1112244Y584605D01*
Y570990D01*
X1103630D01*
Y552450D01*
Y533910D01*
X1112244D01*
Y521587D01*
X1105462Y514804D01*
X1104890Y514108D01*
X1104466Y513314D01*
X1104204Y512452D01*
X1104116Y511556D01*
Y491510D01*
X1102846Y491031D01*
X1102405Y491535D01*
X1101515Y492315D01*
X1100532Y492972D01*
X1099471Y493495D01*
X1098351Y493875D01*
X1097190Y494106D01*
X1096010Y494183D01*
X1094830Y494106D01*
X1093669Y493875D01*
X1092549Y493495D01*
X1091488Y492972D01*
X1090505Y492315D01*
X1089615Y491535D01*
X1088835Y490645D01*
X1088178Y489662D01*
X1087655Y488601D01*
X1087275Y487481D01*
X1087044Y486320D01*
X1086967Y485140D01*
X1087044Y483960D01*
X1087275Y482799D01*
X1087655Y481679D01*
X1088178Y480618D01*
X1088835Y479635D01*
X1089615Y478745D01*
X1090505Y477965D01*
X1091488Y477308D01*
X1092549Y476785D01*
X1093669Y476405D01*
X1094830Y476174D01*
X1096010Y476097D01*
X1097190Y476174D01*
X1098351Y476405D01*
X1099471Y476785D01*
X1100532Y477308D01*
X1101515Y477965D01*
X1102405Y478745D01*
X1102846Y479249D01*
X1104116Y478770D01*
Y466110D01*
X1102846Y465631D01*
X1102405Y466135D01*
X1101515Y466915D01*
X1100532Y467572D01*
X1099471Y468095D01*
X1098351Y468475D01*
X1097190Y468706D01*
X1096010Y468783D01*
X1094830Y468706D01*
X1093669Y468475D01*
X1092549Y468095D01*
X1091488Y467572D01*
X1090505Y466915D01*
X1089615Y466135D01*
X1088835Y465245D01*
X1088178Y464262D01*
X1087655Y463201D01*
X1087275Y462081D01*
X1087044Y460920D01*
X1086967Y459740D01*
X1087044Y458560D01*
X1087275Y457399D01*
X1087655Y456279D01*
X1088178Y455218D01*
X1088835Y454235D01*
X1089615Y453345D01*
X1090505Y452565D01*
X1091488Y451908D01*
X1092549Y451385D01*
X1092985Y451237D01*
X1092775Y449967D01*
X1073845D01*
X1073635Y451237D01*
X1074071Y451385D01*
X1075132Y451908D01*
X1076115Y452565D01*
X1077005Y453345D01*
X1077785Y454235D01*
X1078442Y455218D01*
X1078965Y456279D01*
X1079345Y457399D01*
X1079576Y458560D01*
X1079653Y459740D01*
X1079576Y460920D01*
X1079345Y462081D01*
X1078965Y463201D01*
X1078442Y464262D01*
X1077785Y465245D01*
X1077005Y466135D01*
X1076115Y466915D01*
X1075132Y467572D01*
X1074071Y468095D01*
X1073428Y468313D01*
Y493134D01*
Y556871D01*
X1089113Y572555D01*
X1089561Y573139D01*
X1089842Y573819D01*
X1089938Y574548D01*
Y597408D01*
Y636016D01*
X1089842Y636745D01*
X1089561Y637425D01*
X1089113Y638009D01*
X1065808Y661313D01*
Y671552D01*
X1069604D01*
X1069922Y670784D01*
X1070570Y669727D01*
X1071375Y668785D01*
X1072318Y667980D01*
X1073374Y667333D01*
X1074519Y666858D01*
X1075724Y666569D01*
X1076960Y666472D01*
X1078196Y666569D01*
X1079401Y666858D01*
X1080546Y667333D01*
X1081602Y667980D01*
X1082545Y668785D01*
X1083350Y669727D01*
X1083997Y670784D01*
X1084472Y671929D01*
X1084761Y673134D01*
X1084858Y674370D01*
X1084761Y675606D01*
X1084472Y676811D01*
X1083997Y677956D01*
X1083350Y679013D01*
X1082545Y679955D01*
X1081602Y680760D01*
X1080546Y681407D01*
X1079401Y681882D01*
X1078196Y682171D01*
X1076960Y682268D01*
X1075724Y682171D01*
X1074519Y681882D01*
X1073374Y681407D01*
X1072318Y680760D01*
X1071375Y679955D01*
X1070570Y679013D01*
X1069922Y677956D01*
X1069604Y677188D01*
X1065808D01*
Y683132D01*
X1065712Y683862D01*
X1065431Y684541D01*
X1064983Y685125D01*
X1064983Y685125D01*
X1057997Y692111D01*
X1057413Y692559D01*
X1057214Y692641D01*
X1057479Y693906D01*
X1070763D01*
X1071659Y693994D01*
X1072521Y694256D01*
X1073316Y694680D01*
X1074012Y695251D01*
X1075206Y696446D01*
X1080238D01*
X1081432Y695251D01*
D02*
G37*
G36*
X1167024Y949728D02*
X1166705Y949515D01*
X1165815Y948735D01*
X1165035Y947845D01*
X1164378Y946862D01*
X1163855Y945801D01*
X1163475Y944681D01*
X1163244Y943520D01*
X1163167Y942340D01*
X1163244Y941160D01*
X1163475Y939999D01*
X1163855Y938879D01*
X1164378Y937818D01*
X1165035Y936835D01*
X1165815Y935945D01*
X1166705Y935165D01*
X1167688Y934508D01*
X1168749Y933985D01*
X1169869Y933605D01*
X1171030Y933374D01*
X1172186Y933298D01*
X1182092Y923393D01*
Y919854D01*
X1180822Y919644D01*
X1180565Y920401D01*
X1180042Y921462D01*
X1179385Y922445D01*
X1178605Y923335D01*
X1177715Y924115D01*
X1176732Y924772D01*
X1175671Y925295D01*
X1174551Y925675D01*
X1173390Y925906D01*
X1172210Y925983D01*
X1171030Y925906D01*
X1169869Y925675D01*
X1168749Y925295D01*
X1167688Y924772D01*
X1166705Y924115D01*
X1165815Y923335D01*
X1165035Y922445D01*
X1164378Y921462D01*
X1163855Y920401D01*
X1163475Y919281D01*
X1163244Y918120D01*
X1163167Y916940D01*
X1163244Y915760D01*
X1163475Y914599D01*
X1163855Y913479D01*
X1164378Y912418D01*
X1165035Y911435D01*
X1165815Y910545D01*
X1166705Y909765D01*
X1167688Y909108D01*
X1168749Y908585D01*
X1169869Y908205D01*
X1171030Y907974D01*
X1172210Y907897D01*
X1173390Y907974D01*
X1174551Y908205D01*
X1175671Y908585D01*
X1176732Y909108D01*
X1177715Y909765D01*
X1178605Y910545D01*
X1179385Y911435D01*
X1180042Y912418D01*
X1180565Y913479D01*
X1180822Y914236D01*
X1182092Y914026D01*
Y904748D01*
X1182188Y904019D01*
X1182469Y903339D01*
X1182917Y902755D01*
X1201652Y884021D01*
X1202235Y883573D01*
X1202915Y883291D01*
X1203644Y883195D01*
X1243117D01*
X1249402Y876911D01*
Y864723D01*
X1248275Y864125D01*
X1248132Y864145D01*
X1247567Y864990D01*
X1246830Y865830D01*
X1245990Y866567D01*
X1245061Y867188D01*
X1244059Y867682D01*
X1243001Y868041D01*
X1241905Y868259D01*
X1240790Y868332D01*
X1239675Y868259D01*
X1238579Y868041D01*
X1237521Y867682D01*
X1236519Y867188D01*
X1235590Y866567D01*
X1234750Y865830D01*
X1234013Y864990D01*
X1233392Y864061D01*
X1232898Y863059D01*
X1232539Y862001D01*
X1232321Y860905D01*
X1232248Y859790D01*
X1232321Y858675D01*
X1232539Y857579D01*
X1232898Y856521D01*
X1233392Y855519D01*
X1234013Y854590D01*
X1234750Y853750D01*
X1235590Y853013D01*
X1236519Y852392D01*
X1237521Y851898D01*
X1238579Y851539D01*
X1239675Y851321D01*
X1240790Y851248D01*
X1241905Y851321D01*
X1243001Y851539D01*
X1244059Y851898D01*
X1245061Y852392D01*
X1245990Y853013D01*
X1246830Y853750D01*
X1247567Y854590D01*
X1248155Y855469D01*
X1248310Y855492D01*
X1249466Y855239D01*
X1249498Y854997D01*
X1249779Y854317D01*
X1250227Y853733D01*
X1271246Y832715D01*
Y808272D01*
X1269995Y807974D01*
X1269347Y809031D01*
X1268542Y809973D01*
X1267600Y810778D01*
X1267498Y810840D01*
X1267857Y812110D01*
X1268300D01*
Y817880D01*
X1262260D01*
X1256220D01*
Y812110D01*
X1258058D01*
X1258416Y810840D01*
X1258315Y810778D01*
X1257372Y809973D01*
X1256567Y809031D01*
X1255920Y807974D01*
X1255485Y806923D01*
X1254760D01*
X1253864Y806835D01*
X1253002Y806573D01*
X1252208Y806149D01*
X1251512Y805577D01*
X1250940Y804881D01*
X1250516Y804087D01*
X1250254Y803225D01*
X1250166Y802329D01*
X1249364Y801444D01*
X1247094D01*
Y805834D01*
X1247138Y806170D01*
Y813126D01*
X1252284D01*
Y825174D01*
X1242236D01*
X1241197Y825733D01*
X1240830Y826332D01*
X1240025Y827275D01*
X1239082Y828080D01*
X1238026Y828727D01*
X1236881Y829202D01*
X1235676Y829491D01*
X1234440Y829588D01*
X1233204Y829491D01*
X1231999Y829202D01*
X1230854Y828727D01*
X1229798Y828080D01*
X1228855Y827275D01*
X1228050Y826332D01*
X1227402Y825276D01*
X1226928Y824131D01*
X1226639Y822926D01*
X1226542Y821690D01*
X1226639Y820454D01*
X1226928Y819249D01*
X1227402Y818104D01*
X1228050Y817048D01*
X1228855Y816105D01*
X1229798Y815300D01*
X1229853Y815266D01*
X1229934Y814444D01*
X1230080Y813964D01*
X1229574Y813010D01*
X1229230Y812694D01*
X1224053D01*
X1223794Y812946D01*
X1223344Y813964D01*
X1223564Y814377D01*
X1223826Y815239D01*
X1223914Y816135D01*
X1223826Y817032D01*
X1223564Y817894D01*
X1223140Y818688D01*
X1222719Y819200D01*
X1223050Y819587D01*
X1223698Y820644D01*
X1224172Y821789D01*
X1224461Y822994D01*
X1224558Y824230D01*
X1224461Y825466D01*
X1224172Y826671D01*
X1223698Y827816D01*
X1223050Y828873D01*
X1222245Y829815D01*
X1221302Y830620D01*
X1220246Y831267D01*
X1219101Y831742D01*
X1217896Y832031D01*
X1216660Y832128D01*
X1215424Y832031D01*
X1214219Y831742D01*
X1213074Y831267D01*
X1212018Y830620D01*
X1211075Y829815D01*
X1210270Y828873D01*
X1209622Y827816D01*
X1209148Y826671D01*
X1208859Y825466D01*
X1208762Y824230D01*
X1208859Y822994D01*
X1209148Y821789D01*
X1209622Y820644D01*
X1210270Y819587D01*
X1211075Y818645D01*
X1212018Y817840D01*
X1212207Y817724D01*
X1212416Y817037D01*
X1212840Y816243D01*
X1213411Y815547D01*
X1214994Y813964D01*
X1214468Y812694D01*
X1212138D01*
Y813028D01*
X1212042Y813757D01*
X1211760Y814437D01*
X1211313Y815021D01*
X1209001Y817333D01*
X1208417Y817781D01*
X1207737Y818062D01*
X1207008Y818158D01*
X1206087D01*
X1205705Y818316D01*
X1204976Y818412D01*
X1188634D01*
Y822029D01*
X1178586D01*
Y809981D01*
X1186867D01*
X1187092Y809644D01*
X1187515Y808711D01*
X1187269Y807686D01*
X1187172Y806450D01*
X1187269Y805214D01*
X1187558Y804009D01*
X1187595Y803920D01*
X1186623Y802948D01*
X1186602Y802957D01*
X1185397Y803246D01*
X1184162Y803344D01*
X1182926Y803246D01*
X1181721Y802957D01*
X1181372Y802812D01*
X1180882Y803074D01*
X1180020Y803336D01*
X1179124Y803424D01*
X1178384D01*
Y804854D01*
X1167336D01*
Y792806D01*
X1176732D01*
X1177124Y791860D01*
X1177772Y790803D01*
X1178577Y789860D01*
X1179519Y789055D01*
X1180576Y788408D01*
X1181721Y787934D01*
X1182926Y787644D01*
X1184162Y787547D01*
X1185397Y787644D01*
X1185934Y787773D01*
X1186734Y786922D01*
X1186268Y785804D01*
X1184846D01*
Y779583D01*
X1183926D01*
X1183197Y779487D01*
X1182517Y779205D01*
X1181934Y778757D01*
X1181067Y777891D01*
X1179894Y778377D01*
Y785804D01*
X1172831D01*
X1168094Y790541D01*
X1167511Y790989D01*
X1166831Y791270D01*
X1166474Y791317D01*
X1165400Y791790D01*
Y797560D01*
X1158860D01*
Y798830D01*
X1157590D01*
Y805870D01*
X1153438D01*
Y814380D01*
X1153907Y814749D01*
X1154708Y815140D01*
X1155700Y815062D01*
X1156936Y815159D01*
X1158141Y815448D01*
X1159286Y815922D01*
X1160342Y816570D01*
X1161285Y817375D01*
X1161300Y817393D01*
X1161620Y817275D01*
X1167340D01*
Y823045D01*
X1163592D01*
X1163501Y824196D01*
X1163212Y825401D01*
X1162738Y826546D01*
X1162090Y827602D01*
X1161285Y828545D01*
X1160342Y829350D01*
X1159286Y829997D01*
X1158141Y830472D01*
X1156936Y830761D01*
X1156892Y830765D01*
Y942813D01*
X1165076Y950998D01*
X1166639D01*
X1167024Y949728D01*
D02*
G37*
G36*
X1277199Y617299D02*
X1278235Y617505D01*
X1279338Y617879D01*
X1280383Y618395D01*
X1281352Y619042D01*
X1281427Y619108D01*
X1282697Y618532D01*
Y598703D01*
X1272442Y588448D01*
X1260884D01*
Y591790D01*
X1261204Y592047D01*
X1262154Y592347D01*
X1262818Y591780D01*
X1263874Y591133D01*
X1265019Y590658D01*
X1266224Y590369D01*
X1267460Y590272D01*
X1268696Y590369D01*
X1269901Y590658D01*
X1271046Y591133D01*
X1272103Y591780D01*
X1273045Y592585D01*
X1273850Y593527D01*
X1274498Y594584D01*
X1274972Y595729D01*
X1275261Y596934D01*
X1275358Y598170D01*
X1275261Y599406D01*
X1274972Y600611D01*
X1274498Y601756D01*
X1273850Y602812D01*
X1273045Y603755D01*
X1272103Y604560D01*
X1271046Y605207D01*
X1269901Y605682D01*
X1269835Y605698D01*
X1269594Y606866D01*
X1269607Y607058D01*
X1270505Y607825D01*
X1271310Y608768D01*
X1271957Y609824D01*
X1272432Y610969D01*
X1272721Y612174D01*
X1272818Y613410D01*
X1272721Y614646D01*
X1272432Y615851D01*
X1272077Y616706D01*
X1272606Y617439D01*
X1273007Y617714D01*
X1273623Y617505D01*
X1274659Y617299D01*
Y626110D01*
X1277199D01*
Y617299D01*
D02*
G37*
%LPC*%
G36*
X938650Y822380D02*
X933880D01*
Y816610D01*
X938650D01*
Y822380D01*
D02*
G37*
G36*
X1031120Y826190D02*
X1026350D01*
Y820420D01*
X1031120D01*
Y826190D01*
D02*
G37*
G36*
X1049670Y561340D02*
X1044400D01*
Y555570D01*
X1049670D01*
Y561340D01*
D02*
G37*
G36*
X1057480D02*
X1052210D01*
Y555570D01*
X1057480D01*
Y561340D01*
D02*
G37*
G36*
X1149350Y629841D02*
Y622300D01*
X1156891D01*
X1156685Y623336D01*
X1156311Y624439D01*
X1155796Y625485D01*
X1155148Y626454D01*
X1154380Y627330D01*
X1153503Y628098D01*
X1152535Y628745D01*
X1151489Y629261D01*
X1150386Y629636D01*
X1149350Y629841D01*
D02*
G37*
G36*
X1171060Y621030D02*
X1166290D01*
Y615260D01*
X1171060D01*
Y621030D01*
D02*
G37*
G36*
Y629340D02*
X1166290D01*
Y623570D01*
X1171060D01*
Y629340D01*
D02*
G37*
G36*
X1156891Y619760D02*
X1149350D01*
Y612219D01*
X1150386Y612425D01*
X1151489Y612799D01*
X1152535Y613315D01*
X1153503Y613962D01*
X1154380Y614730D01*
X1155148Y615606D01*
X1155796Y616575D01*
X1156311Y617621D01*
X1156685Y618724D01*
X1156891Y619760D01*
D02*
G37*
G36*
X1158860Y605210D02*
X1153590D01*
Y599440D01*
X1158860D01*
Y605210D01*
D02*
G37*
G36*
X988060Y509270D02*
X980518D01*
X980724Y508234D01*
X981099Y507131D01*
X981615Y506085D01*
X982262Y505117D01*
X983030Y504240D01*
X983906Y503472D01*
X984875Y502825D01*
X985921Y502309D01*
X987024Y501935D01*
X988060Y501729D01*
Y509270D01*
D02*
G37*
G36*
X998141D02*
X990600D01*
Y501729D01*
X991636Y501935D01*
X992739Y502309D01*
X993785Y502825D01*
X994753Y503472D01*
X995630Y504240D01*
X996398Y505117D01*
X997046Y506085D01*
X997561Y507131D01*
X997935Y508234D01*
X998141Y509270D01*
D02*
G37*
G36*
X988060Y519352D02*
X987024Y519146D01*
X985921Y518771D01*
X984875Y518256D01*
X983906Y517608D01*
X983030Y516840D01*
X982262Y515964D01*
X981615Y514995D01*
X981099Y513949D01*
X980724Y512846D01*
X980518Y511810D01*
X988060D01*
Y519352D01*
D02*
G37*
G36*
X990600D02*
Y511810D01*
X998141D01*
X997935Y512846D01*
X997561Y513949D01*
X997046Y514995D01*
X996398Y515964D01*
X995630Y516840D01*
X994753Y517608D01*
X993785Y518256D01*
X992739Y518771D01*
X991636Y519146D01*
X990600Y519352D01*
D02*
G37*
G36*
X1033660Y633150D02*
X1028890D01*
Y627380D01*
X1033660D01*
Y633150D01*
D02*
G37*
G36*
X939441Y629660D02*
X934671D01*
Y623890D01*
X939441D01*
Y629660D01*
D02*
G37*
G36*
X971184Y675274D02*
X954136D01*
Y658226D01*
X971184D01*
Y675274D01*
D02*
G37*
G36*
X1037590Y675292D02*
X1036475Y675219D01*
X1035379Y675001D01*
X1034321Y674642D01*
X1033319Y674148D01*
X1032390Y673527D01*
X1031550Y672790D01*
X1030813Y671950D01*
X1030192Y671021D01*
X1029698Y670019D01*
X1029339Y668961D01*
X1029121Y667865D01*
X1029048Y666750D01*
X1029121Y665635D01*
X1029339Y664539D01*
X1029698Y663481D01*
X1030192Y662479D01*
X1030813Y661550D01*
X1031550Y660710D01*
X1032390Y659973D01*
X1033319Y659352D01*
X1034321Y658858D01*
X1035379Y658499D01*
X1036475Y658281D01*
X1037590Y658208D01*
X1038705Y658281D01*
X1039801Y658499D01*
X1040859Y658858D01*
X1041861Y659352D01*
X1042790Y659973D01*
X1043630Y660710D01*
X1044367Y661550D01*
X1044988Y662479D01*
X1045482Y663481D01*
X1045841Y664539D01*
X1046059Y665635D01*
X1046132Y666750D01*
X1046059Y667865D01*
X1045841Y668961D01*
X1045482Y670019D01*
X1044988Y671021D01*
X1044367Y671950D01*
X1043630Y672790D01*
X1042790Y673527D01*
X1041861Y674148D01*
X1040859Y674642D01*
X1039801Y675001D01*
X1038705Y675219D01*
X1037590Y675292D01*
D02*
G37*
G36*
X948690Y644462D02*
X947654Y644256D01*
X946551Y643881D01*
X945505Y643366D01*
X944537Y642718D01*
X943660Y641950D01*
X942892Y641074D01*
X942244Y640105D01*
X941729Y639060D01*
X941355Y637956D01*
X941149Y636920D01*
X948690D01*
Y644462D01*
D02*
G37*
G36*
X1040970Y633150D02*
X1036200D01*
Y627380D01*
X1040970D01*
Y633150D01*
D02*
G37*
G36*
X951230Y644462D02*
Y636920D01*
X958772D01*
X958566Y637956D01*
X958191Y639060D01*
X957675Y640105D01*
X957028Y641074D01*
X956260Y641950D01*
X955384Y642718D01*
X954415Y643366D01*
X953369Y643881D01*
X952266Y644256D01*
X951230Y644462D01*
D02*
G37*
G36*
X1013460Y675292D02*
X1012345Y675219D01*
X1011249Y675001D01*
X1010191Y674642D01*
X1009189Y674148D01*
X1008260Y673527D01*
X1007420Y672790D01*
X1006683Y671950D01*
X1006062Y671021D01*
X1005568Y670019D01*
X1005209Y668961D01*
X1004991Y667865D01*
X1004918Y666750D01*
X1004991Y665635D01*
X1005209Y664539D01*
X1005568Y663481D01*
X1006062Y662479D01*
X1006683Y661550D01*
X1007420Y660710D01*
X1008260Y659973D01*
X1009189Y659352D01*
X1010191Y658858D01*
X1011249Y658499D01*
X1012345Y658281D01*
X1013460Y658208D01*
X1014575Y658281D01*
X1015671Y658499D01*
X1016729Y658858D01*
X1017731Y659352D01*
X1018660Y659973D01*
X1019500Y660710D01*
X1020237Y661550D01*
X1020858Y662479D01*
X1021352Y663481D01*
X1021711Y664539D01*
X1021929Y665635D01*
X1022002Y666750D01*
X1021929Y667865D01*
X1021711Y668961D01*
X1021352Y670019D01*
X1020858Y671021D01*
X1020237Y671950D01*
X1019500Y672790D01*
X1018660Y673527D01*
X1017731Y674148D01*
X1016729Y674642D01*
X1015671Y675001D01*
X1014575Y675219D01*
X1013460Y675292D01*
D02*
G37*
G36*
X988060D02*
X986945Y675219D01*
X985849Y675001D01*
X984791Y674642D01*
X983789Y674148D01*
X982860Y673527D01*
X982020Y672790D01*
X981283Y671950D01*
X980662Y671021D01*
X980168Y670019D01*
X979809Y668961D01*
X979591Y667865D01*
X979518Y666750D01*
X979591Y665635D01*
X979809Y664539D01*
X980168Y663481D01*
X980662Y662479D01*
X981283Y661550D01*
X982020Y660710D01*
X982860Y659973D01*
X983789Y659352D01*
X984791Y658858D01*
X985849Y658499D01*
X986945Y658281D01*
X988060Y658208D01*
X989175Y658281D01*
X990271Y658499D01*
X991329Y658858D01*
X992331Y659352D01*
X993260Y659973D01*
X994100Y660710D01*
X994837Y661550D01*
X995458Y662479D01*
X995952Y663481D01*
X996311Y664539D01*
X996529Y665635D01*
X996602Y666750D01*
X996529Y667865D01*
X996311Y668961D01*
X995952Y670019D01*
X995458Y671021D01*
X994837Y671950D01*
X994100Y672790D01*
X993260Y673527D01*
X992331Y674148D01*
X991329Y674642D01*
X990271Y675001D01*
X989175Y675219D01*
X988060Y675292D01*
D02*
G37*
G36*
X1284810Y762690D02*
X1279540D01*
Y756920D01*
X1284810D01*
Y762690D01*
D02*
G37*
G36*
X1270000Y735251D02*
Y727710D01*
X1277542D01*
X1277336Y728746D01*
X1276961Y729849D01*
X1276445Y730895D01*
X1275798Y731863D01*
X1275030Y732740D01*
X1274154Y733508D01*
X1273185Y734156D01*
X1272139Y734671D01*
X1271036Y735045D01*
X1270000Y735251D01*
D02*
G37*
G36*
X1265760Y741680D02*
X1260990D01*
Y735910D01*
X1264594Y735910D01*
X1264749D01*
X1265026Y735886D01*
X1265321Y734671D01*
X1264275Y734156D01*
X1263307Y733508D01*
X1262430Y732740D01*
X1261662Y731863D01*
X1261014Y730895D01*
X1260499Y729849D01*
X1260125Y728746D01*
X1259919Y727710D01*
X1267460D01*
Y735285D01*
X1266470Y735318D01*
X1265760Y736161D01*
X1265760Y736161D01*
X1265760Y736828D01*
Y741680D01*
D02*
G37*
G36*
X1336040Y761490D02*
X1326770D01*
Y744220D01*
X1336040D01*
Y761490D01*
D02*
G37*
G36*
X1284810Y754380D02*
X1279540D01*
Y748610D01*
X1284810D01*
Y754380D01*
D02*
G37*
G36*
X1277000D02*
X1271730D01*
Y748610D01*
X1277000D01*
Y754380D01*
D02*
G37*
G36*
X1267460Y725170D02*
X1259919D01*
X1260125Y724134D01*
X1260499Y723031D01*
X1261014Y721985D01*
X1261662Y721016D01*
X1262430Y720140D01*
X1263307Y719372D01*
X1264275Y718725D01*
X1265321Y718209D01*
X1266424Y717834D01*
X1267460Y717628D01*
Y725170D01*
D02*
G37*
G36*
X1336040Y741680D02*
X1326770D01*
Y724410D01*
X1336040D01*
Y741680D01*
D02*
G37*
G36*
X1277542Y725170D02*
X1270000D01*
Y717628D01*
X1271036Y717834D01*
X1272139Y718209D01*
X1273185Y718725D01*
X1274154Y719372D01*
X1275030Y720140D01*
X1275798Y721016D01*
X1276445Y721985D01*
X1276961Y723031D01*
X1277336Y724134D01*
X1277542Y725170D01*
D02*
G37*
G36*
X1102281Y520700D02*
X1094740D01*
Y513158D01*
X1095776Y513364D01*
X1096879Y513739D01*
X1097925Y514254D01*
X1098894Y514902D01*
X1099770Y515670D01*
X1100538Y516547D01*
X1101186Y517515D01*
X1101701Y518561D01*
X1102076Y519664D01*
X1102281Y520700D01*
D02*
G37*
G36*
X1092200Y530782D02*
X1091164Y530575D01*
X1090061Y530201D01*
X1089015Y529686D01*
X1088046Y529038D01*
X1087170Y528270D01*
X1086402Y527393D01*
X1085754Y526425D01*
X1085239Y525379D01*
X1084865Y524276D01*
X1084659Y523240D01*
X1092200D01*
Y530782D01*
D02*
G37*
G36*
X1094740D02*
Y523240D01*
X1102281D01*
X1102076Y524276D01*
X1101701Y525379D01*
X1101186Y526425D01*
X1100538Y527393D01*
X1099770Y528270D01*
X1098894Y529038D01*
X1097925Y529686D01*
X1096879Y530201D01*
X1095776Y530575D01*
X1094740Y530782D01*
D02*
G37*
G36*
X1092200Y520700D02*
X1084659D01*
X1084865Y519664D01*
X1085239Y518561D01*
X1085754Y517515D01*
X1086402Y516547D01*
X1087170Y515670D01*
X1088046Y514902D01*
X1089015Y514254D01*
X1090061Y513739D01*
X1091164Y513364D01*
X1092200Y513158D01*
Y520700D01*
D02*
G37*
G36*
X1101090Y551180D02*
X1091820D01*
Y533910D01*
X1101090D01*
Y551180D01*
D02*
G37*
G36*
Y570990D02*
X1091820D01*
Y553720D01*
X1101090D01*
Y570990D01*
D02*
G37*
G36*
X1165400Y805870D02*
X1160130D01*
Y800100D01*
X1165400D01*
Y805870D01*
D02*
G37*
G36*
X1167340Y814735D02*
X1162570D01*
Y808965D01*
X1167340D01*
Y814735D01*
D02*
G37*
G36*
X1174650D02*
X1169880D01*
Y808965D01*
X1174650D01*
Y814735D01*
D02*
G37*
G36*
X1168520Y850702D02*
X1167484Y850496D01*
X1166380Y850121D01*
X1165335Y849606D01*
X1164366Y848958D01*
X1163490Y848190D01*
X1162722Y847314D01*
X1162074Y846345D01*
X1161559Y845300D01*
X1161184Y844196D01*
X1160978Y843160D01*
X1168520D01*
Y850702D01*
D02*
G37*
G36*
X1178601Y840620D02*
X1171060D01*
Y833079D01*
X1172096Y833285D01*
X1173199Y833659D01*
X1174244Y834175D01*
X1175213Y834822D01*
X1176089Y835591D01*
X1176858Y836467D01*
X1177505Y837436D01*
X1178021Y838481D01*
X1178395Y839584D01*
X1178601Y840620D01*
D02*
G37*
G36*
X1171060Y850702D02*
Y843160D01*
X1178601D01*
X1178395Y844196D01*
X1178021Y845300D01*
X1177505Y846345D01*
X1176858Y847314D01*
X1176089Y848190D01*
X1175213Y848958D01*
X1174244Y849606D01*
X1173199Y850121D01*
X1172096Y850496D01*
X1171060Y850702D01*
D02*
G37*
G36*
X1198514Y868314D02*
X1181466D01*
Y851266D01*
X1198514D01*
Y868314D01*
D02*
G37*
G36*
X1215390Y868332D02*
X1214275Y868259D01*
X1213179Y868041D01*
X1212121Y867682D01*
X1211119Y867188D01*
X1210190Y866567D01*
X1209350Y865830D01*
X1208613Y864990D01*
X1207992Y864061D01*
X1207498Y863059D01*
X1207139Y862001D01*
X1206921Y860905D01*
X1206848Y859790D01*
X1206921Y858675D01*
X1207139Y857579D01*
X1207498Y856521D01*
X1207992Y855519D01*
X1208613Y854590D01*
X1209350Y853750D01*
X1210190Y853013D01*
X1211119Y852392D01*
X1212121Y851898D01*
X1213179Y851539D01*
X1214275Y851321D01*
X1215390Y851248D01*
X1216505Y851321D01*
X1217601Y851539D01*
X1218659Y851898D01*
X1219661Y852392D01*
X1220590Y853013D01*
X1221430Y853750D01*
X1222167Y854590D01*
X1222788Y855519D01*
X1223282Y856521D01*
X1223641Y857579D01*
X1223859Y858675D01*
X1223932Y859790D01*
X1223859Y860905D01*
X1223641Y862001D01*
X1223282Y863059D01*
X1222788Y864061D01*
X1222167Y864990D01*
X1221430Y865830D01*
X1220590Y866567D01*
X1219661Y867188D01*
X1218659Y867682D01*
X1217601Y868041D01*
X1216505Y868259D01*
X1215390Y868332D01*
D02*
G37*
G36*
X1174650Y823045D02*
X1169880D01*
Y817275D01*
X1174650D01*
Y823045D01*
D02*
G37*
G36*
X1260990Y826190D02*
X1256220D01*
Y820420D01*
X1260990D01*
Y826190D01*
D02*
G37*
G36*
X1168520Y840620D02*
X1160978D01*
X1161184Y839584D01*
X1161559Y838481D01*
X1162074Y837436D01*
X1162722Y836467D01*
X1163490Y835591D01*
X1164366Y834822D01*
X1165335Y834175D01*
X1166380Y833659D01*
X1167484Y833285D01*
X1168520Y833079D01*
Y840620D01*
D02*
G37*
G36*
X1268300Y826190D02*
X1263530D01*
Y820420D01*
X1268300D01*
Y826190D01*
D02*
G37*
%LPD*%
D10*
X1201820Y798670D02*
D03*
Y793670D02*
D03*
Y788670D02*
D03*
Y783670D02*
D03*
Y778670D02*
D03*
Y773670D02*
D03*
Y768670D02*
D03*
Y763670D02*
D03*
X1251820D02*
D03*
Y768670D02*
D03*
Y773670D02*
D03*
Y778670D02*
D03*
Y783670D02*
D03*
Y788670D02*
D03*
Y793670D02*
D03*
Y798670D02*
D03*
X971950D02*
D03*
Y793670D02*
D03*
Y788670D02*
D03*
Y783670D02*
D03*
Y778670D02*
D03*
Y773670D02*
D03*
Y768670D02*
D03*
Y763670D02*
D03*
X1021950D02*
D03*
Y768670D02*
D03*
Y773670D02*
D03*
Y778670D02*
D03*
Y783670D02*
D03*
Y788670D02*
D03*
Y793670D02*
D03*
Y798670D02*
D03*
X1204360Y605630D02*
D03*
Y600630D02*
D03*
Y595630D02*
D03*
Y590630D02*
D03*
Y585630D02*
D03*
Y580630D02*
D03*
Y575630D02*
D03*
Y570630D02*
D03*
X1254360D02*
D03*
Y575630D02*
D03*
Y580630D02*
D03*
Y585630D02*
D03*
Y590630D02*
D03*
Y595630D02*
D03*
Y600630D02*
D03*
Y605630D02*
D03*
X974490D02*
D03*
Y600630D02*
D03*
Y595630D02*
D03*
Y590630D02*
D03*
Y585630D02*
D03*
Y580630D02*
D03*
Y575630D02*
D03*
Y570630D02*
D03*
X1024490D02*
D03*
Y575630D02*
D03*
Y580630D02*
D03*
Y585630D02*
D03*
Y590630D02*
D03*
Y595630D02*
D03*
Y600630D02*
D03*
Y605630D02*
D03*
D11*
X1209320Y756170D02*
D03*
X1214320D02*
D03*
X1219320D02*
D03*
X1224320D02*
D03*
X1229320D02*
D03*
X1234320D02*
D03*
X1239320D02*
D03*
X1244320D02*
D03*
Y806170D02*
D03*
X1239320D02*
D03*
X1234320D02*
D03*
X1229320D02*
D03*
X1224320D02*
D03*
X1219320D02*
D03*
X1214320D02*
D03*
X1209320D02*
D03*
X979450Y756170D02*
D03*
X984450D02*
D03*
X989450D02*
D03*
X994450D02*
D03*
X999450D02*
D03*
X1004450D02*
D03*
X1009450D02*
D03*
X1014450D02*
D03*
Y806170D02*
D03*
X1009450D02*
D03*
X1004450D02*
D03*
X999450D02*
D03*
X994450D02*
D03*
X989450D02*
D03*
X984450D02*
D03*
X979450D02*
D03*
X1211860Y563130D02*
D03*
X1216860D02*
D03*
X1221860D02*
D03*
X1226860D02*
D03*
X1231860D02*
D03*
X1236860D02*
D03*
X1241860D02*
D03*
X1246860D02*
D03*
Y613130D02*
D03*
X1241860D02*
D03*
X1236860D02*
D03*
X1231860D02*
D03*
X1226860D02*
D03*
X1221860D02*
D03*
X1216860D02*
D03*
X1211860D02*
D03*
X981990Y563130D02*
D03*
X986990D02*
D03*
X991990D02*
D03*
X996990D02*
D03*
X1001990D02*
D03*
X1006990D02*
D03*
X1011990D02*
D03*
X1016990D02*
D03*
Y613130D02*
D03*
X1011990D02*
D03*
X1006990D02*
D03*
X1001990D02*
D03*
X996990D02*
D03*
X991990D02*
D03*
X986990D02*
D03*
X981990D02*
D03*
D12*
X1226820Y781170D02*
D03*
X996950D02*
D03*
X1229360Y588130D02*
D03*
X999490D02*
D03*
D13*
X984250Y743600D02*
D03*
Y729600D02*
D03*
X971550Y729600D02*
D03*
Y743600D02*
D03*
X957392Y763185D02*
D03*
Y749185D02*
D03*
X1189810Y571407D02*
D03*
Y557407D02*
D03*
X1203960Y536560D02*
D03*
Y550560D02*
D03*
X1216660Y550560D02*
D03*
Y536560D02*
D03*
X959723Y571048D02*
D03*
Y557048D02*
D03*
X974090Y536560D02*
D03*
Y550560D02*
D03*
X986790Y550560D02*
D03*
Y536560D02*
D03*
X1187450Y766460D02*
D03*
Y752460D02*
D03*
X1201420Y729600D02*
D03*
Y743600D02*
D03*
X1214120Y743600D02*
D03*
Y729600D02*
D03*
D14*
X939180Y793750D02*
D03*
X925180D02*
D03*
X1034400Y755650D02*
D03*
X1048400D02*
D03*
X1266810Y562610D02*
D03*
X1280810D02*
D03*
X1174130Y598170D02*
D03*
X1160130D02*
D03*
X1036940Y562610D02*
D03*
X1050940D02*
D03*
X958950Y599589D02*
D03*
X944950D02*
D03*
X1264270Y755650D02*
D03*
X1278270D02*
D03*
X1172860Y798830D02*
D03*
X1158860D02*
D03*
D15*
X876700Y500380D02*
D03*
Y551180D02*
D03*
D16*
X774700Y525780D02*
D03*
D17*
X1014850Y742950D02*
D03*
X1029850D02*
D03*
X941192Y775979D02*
D03*
X956192D02*
D03*
X939920Y815340D02*
D03*
X954920D02*
D03*
X1032390Y819150D02*
D03*
X1017390D02*
D03*
X1264800Y626110D02*
D03*
X1249800D02*
D03*
X1172330Y622300D02*
D03*
X1187330D02*
D03*
X1177410Y586740D02*
D03*
X1192410D02*
D03*
X1247260Y549910D02*
D03*
X1262260D02*
D03*
X1034930Y626110D02*
D03*
X1019930D02*
D03*
X940711Y622620D02*
D03*
X955711D02*
D03*
X947540Y586740D02*
D03*
X962540D02*
D03*
X1017390Y549910D02*
D03*
X1032390D02*
D03*
X1262260Y819150D02*
D03*
X1247260D02*
D03*
X1168610Y816005D02*
D03*
X1183610D02*
D03*
X1174870Y779780D02*
D03*
X1189870D02*
D03*
X1244720Y742950D02*
D03*
X1259720D02*
D03*
D18*
X1009650Y716400D02*
D03*
Y731400D02*
D03*
X896620Y806570D02*
D03*
Y821570D02*
D03*
Y739260D02*
D03*
Y754260D02*
D03*
X1242060Y523360D02*
D03*
Y538360D02*
D03*
X1012190Y523360D02*
D03*
Y538360D02*
D03*
X1239520Y716400D02*
D03*
Y731400D02*
D03*
X896620Y890270D02*
D03*
Y875270D02*
D03*
X910590Y530740D02*
D03*
Y515740D02*
D03*
D19*
X1102360Y603250D02*
D03*
Y552450D02*
D03*
X1336040Y598170D02*
D03*
Y547370D02*
D03*
X1099820Y795020D02*
D03*
Y744220D02*
D03*
X1337310Y793750D02*
D03*
Y742950D02*
D03*
X871220Y668020D02*
D03*
Y617220D02*
D03*
D20*
X741680Y525780D02*
Y641858D01*
X862330Y701040D02*
X871220Y692150D01*
X799084Y701040D02*
X862330D01*
X767080Y733044D02*
X799084Y701040D01*
X1191260Y523860D02*
X1203960Y536560D01*
X1191260Y451358D02*
Y523860D01*
X933450Y875030D02*
X1099820D01*
X928370Y869950D02*
X933450Y875030D01*
X1108710Y511556D02*
X1116838Y519684D01*
X1108710Y455168D02*
Y511556D01*
X1337310Y793750D02*
Y855726D01*
Y792988D02*
Y793750D01*
X871220Y668020D02*
Y688340D01*
Y666496D02*
Y668020D01*
X767080Y667258D02*
Y698500D01*
Y733044D02*
Y749300D01*
X1336040Y598170D02*
Y680720D01*
X871220Y666496D02*
X884936Y652780D01*
X904748D01*
X1102360Y683768D02*
X1114298Y695706D01*
X1099820Y794258D02*
X1114298Y779780D01*
X974090Y457200D02*
Y536560D01*
X1116838Y519684D02*
Y588010D01*
X1102360Y602488D02*
X1116838Y588010D01*
X971550Y707136D02*
Y729600D01*
X1324864Y868172D02*
X1337310Y855726D01*
X1028700Y611124D02*
X1032764D01*
X753364Y885444D02*
X768350Y900430D01*
X753364Y763016D02*
Y885444D01*
Y763016D02*
X767080Y749300D01*
X1028700Y607060D02*
X1032764Y611124D01*
X741680Y641858D02*
X767080Y667258D01*
X1337310Y792988D02*
X1351788Y778510D01*
Y696468D02*
Y778510D01*
X906780Y652780D02*
X914400Y660400D01*
X904748Y652780D02*
X906780D01*
X1073303Y701040D02*
X1082141D01*
X1084681Y698500D01*
X1113028D01*
X1114298Y699770D01*
Y695706D02*
Y699770D01*
Y779780D01*
X971550Y707136D02*
X980186Y698500D01*
X1070763D01*
X1073303Y701040D01*
X1102360Y602488D02*
Y603250D01*
Y608330D01*
Y683768D01*
X1300480Y868172D02*
X1324864D01*
X1172860Y798830D02*
X1179124D01*
X1099820Y794258D02*
Y795020D01*
Y875030D02*
Y886714D01*
X1216660Y818795D02*
Y824230D01*
Y818795D02*
X1219320Y816135D01*
X1004570Y816610D02*
Y824230D01*
X989450Y815220D02*
Y824901D01*
X990049Y825500D01*
X949960Y795020D02*
X956310D01*
X1234440Y815340D02*
Y821690D01*
X1254760Y802329D02*
X1258259D01*
X1197610Y802640D02*
X1200150D01*
X1220470Y622300D02*
Y627380D01*
Y622300D02*
X1221740Y621030D01*
X1236980Y620964D02*
Y628650D01*
X1200150Y608330D02*
X1202690D01*
X1259840D02*
X1264920Y613410D01*
X1256030Y608330D02*
X1259840D01*
X1029697Y806450D02*
X1032510D01*
X1024617Y801370D02*
X1029697Y806450D01*
X1023620Y801370D02*
X1024617D01*
X896620Y570963D02*
X931024Y536560D01*
X974090D01*
X896620Y570963D02*
Y644652D01*
X904748Y652780D01*
X1099820Y795020D02*
Y858520D01*
Y859790D02*
Y875030D01*
X1089660Y848360D02*
X1099820Y858520D01*
X965638Y611702D02*
X969010Y608330D01*
X971550D01*
X1032764Y611124D02*
X1035050Y613410D01*
X939180Y793750D02*
X948690D01*
X949960Y795020D01*
X1336040Y680720D02*
X1351788Y696468D01*
X1333071Y683689D02*
X1336040Y680720D01*
X1294130Y660400D02*
Y682611D01*
X1293052Y683689D02*
X1294130Y682611D01*
X1205151Y683689D02*
X1293052D01*
X1333071D01*
X1201420Y687421D02*
Y729600D01*
Y687421D02*
X1205151Y683689D01*
X974090Y457200D02*
X985917Y445373D01*
X1098915D01*
X1098413Y444871D02*
X1184773D01*
X1191260Y451358D01*
X1098413Y444871D02*
X1098915Y445373D01*
X1108710Y455168D01*
X963930Y804303D02*
X964368Y804742D01*
X963930Y803910D02*
Y804303D01*
X964368Y804742D02*
X967740Y801370D01*
X952624Y609571D02*
X952653Y609600D01*
X932321Y609571D02*
X952624D01*
X1286002Y905555D02*
Y948436D01*
Y905555D02*
X1300480Y891077D01*
Y868172D02*
Y891077D01*
Y857250D02*
Y868172D01*
Y857250D02*
X1301750Y855980D01*
X1128148Y961016D02*
X1273422D01*
X1286002Y948436D01*
X1099820Y886714D02*
X1118977Y905871D01*
Y951845D01*
X1128148Y961016D01*
X1179124Y798830D02*
X1182508Y795445D01*
X1184162D01*
X1195070Y805180D02*
Y806450D01*
Y805180D02*
X1197610Y802640D01*
X1258259Y802329D02*
X1260318Y804388D01*
X1262957D01*
X1174130Y598170D02*
X1187160D01*
X1102360Y608330D02*
X1120140D01*
D21*
X999490Y588130D02*
X1006990Y580630D01*
X991990D02*
X999490Y588130D01*
X996950Y781170D02*
X1004450Y773670D01*
X989450D02*
X996950Y781170D01*
X1226820D02*
X1234320Y773670D01*
X1219320D02*
X1226820Y781170D01*
X1221860Y580630D02*
X1229360Y588130D01*
X1236860Y580630D01*
X1189284Y788670D02*
X1201820D01*
X962660D02*
X971950D01*
X824230Y907034D02*
X846836Y929640D01*
X824230Y759460D02*
Y907034D01*
Y759460D02*
X849630Y734060D01*
X1177290Y655320D02*
Y719074D01*
X1194816Y736600D01*
X1252220Y855726D02*
Y878078D01*
X935990Y842010D02*
X1025652D01*
X1228598Y447040D02*
X1235710Y454152D01*
X1203960Y447040D02*
X1228598D01*
X1235710Y454152D02*
Y507492D01*
X1241044Y512826D01*
X1146260Y789220D02*
X1154512Y780968D01*
X1141730Y789220D02*
X1146260D01*
X1324610Y942340D02*
X1337310Y929640D01*
Y876300D02*
Y929640D01*
Y876300D02*
X1360170Y853440D01*
X1191260Y929640D02*
X1235710D01*
X1184910Y935990D02*
X1191260Y929640D01*
X1172210Y937260D02*
X1184910Y924560D01*
X1172210Y937260D02*
Y942340D01*
X1184910Y904748D02*
Y924560D01*
X1261110Y929640D02*
X1273810Y942340D01*
X1235710Y908050D02*
Y929640D01*
X1207270Y550560D02*
Y553870D01*
X977400Y550560D02*
Y553870D01*
X958883Y778670D02*
X971950D01*
X959790Y768670D02*
X971950D01*
X957580Y766460D02*
X959790Y768670D01*
X971550Y743600D02*
X979450Y751500D01*
X1009450Y756170D02*
X1014450D01*
X954920Y815340D02*
X975360D01*
X1219320Y756170D02*
X1224320D01*
X1187450Y752460D02*
X1198660Y763670D01*
X1205230Y815340D02*
X1209040Y811530D01*
X1239320Y756170D02*
X1244320D01*
X1201420Y743600D02*
X1209320Y751500D01*
X1187450Y766460D02*
X1189660Y768670D01*
X1201820D01*
X1190980Y778670D02*
X1201820D01*
X1221860Y563130D02*
X1226860D01*
X1241860D02*
X1246860D01*
X1189990Y573420D02*
X1192200Y575630D01*
X1204360D01*
X1193520Y585630D02*
X1204360D01*
X996990Y538560D02*
X1012190Y523360D01*
X991990Y563130D02*
X996990D01*
X1011990D02*
X1016990D01*
X960120Y573420D02*
X962330Y575630D01*
X974490D01*
X963650Y585630D02*
X974490D01*
X1244320Y816210D02*
X1247260Y819150D01*
X1244320Y806170D02*
Y816210D01*
X1014450D02*
X1017390Y819150D01*
X1014450Y806170D02*
Y816210D01*
X1246860Y623170D02*
X1249800Y626110D01*
X1246860Y613130D02*
Y623170D01*
X1016990D02*
X1019930Y626110D01*
X1016990Y613130D02*
Y623170D01*
X1198660Y763670D02*
X1201820D01*
X1209320Y751500D02*
Y756170D01*
X1214320Y743800D02*
Y756170D01*
X1214120Y743600D02*
X1214320Y743800D01*
X979450Y751500D02*
Y756170D01*
X984450Y743800D02*
Y756170D01*
X984250Y743600D02*
X984450Y743800D01*
X1216860Y550760D02*
Y563130D01*
X1216660Y550560D02*
X1216860Y550760D01*
X986990D02*
Y563130D01*
X986790Y550560D02*
X986990Y550760D01*
X965850Y595630D02*
X974490D01*
X962040Y599440D02*
X965850Y595630D01*
X989450Y756170D02*
X994450D01*
Y731600D02*
X1009650Y716400D01*
X1226860Y538560D02*
X1242060Y523360D01*
X1226860Y538560D02*
Y563130D01*
X849630Y734060D02*
X870458D01*
X875658Y739260D01*
X896620D01*
X849630Y801370D02*
X870458D01*
X875658Y806570D01*
X896620D01*
X1244320Y756170D02*
X1253998D01*
X1254518Y755650D01*
X1016990Y563130D02*
X1026668D01*
X1027188Y562610D01*
X896620Y821570D02*
Y875270D01*
X1009343Y745436D02*
X1012364D01*
X1004450Y750328D02*
Y756170D01*
X1003046Y538360D02*
X1012190D01*
X1001990Y539416D02*
X1003046Y538360D01*
X1230376Y731400D02*
X1239520D01*
X1229320Y732456D02*
X1230376Y731400D01*
X1239213Y745436D02*
X1242234D01*
X1234320Y750328D02*
Y756170D01*
X1232916Y538360D02*
X1242060D01*
X1231860Y539416D02*
X1232916Y538360D01*
X897890Y500380D02*
X909574Y512064D01*
Y515740D02*
X910590D01*
X849630Y868680D02*
X871220Y890270D01*
X896620D01*
X1040384Y523360D02*
X1070610Y493134D01*
X1012190Y523360D02*
X1040384D01*
X1012190Y538360D02*
X1021468D01*
X1016990Y559308D02*
Y563130D01*
X1009650Y731400D02*
X1016896D01*
X1014450Y752348D02*
Y756170D01*
X1239520Y731400D02*
X1246766D01*
X1244320Y752348D02*
Y756170D01*
X1246860Y559308D02*
Y563130D01*
X981990Y558460D02*
Y563130D01*
X977400Y553870D02*
X981990Y558460D01*
X974090Y550560D02*
X977400D01*
X1211860Y558460D02*
Y563130D01*
X1207270Y553870D02*
X1211860Y558460D01*
X1203960Y550560D02*
X1207270D01*
X1251820Y763670D02*
X1269492D01*
X979450Y622300D02*
X981990Y619760D01*
Y613130D02*
Y619760D01*
X1224280Y731012D02*
Y733552D01*
X1070610Y558038D02*
X1087120Y574548D01*
X994450Y739180D02*
Y756170D01*
X1154512Y764712D02*
Y780968D01*
Y764712D02*
X1158494Y760730D01*
X1167892D01*
X1183926Y776765D01*
X1209320Y806170D02*
Y813028D01*
X1207008Y815340D02*
X1209320Y813028D01*
X979450Y806170D02*
Y811250D01*
X849630Y801370D02*
X863346Y815086D01*
Y874776D01*
X1068070Y929640D02*
X1080770Y942340D01*
X846836Y929640D02*
X1042670D01*
X1055370Y942340D01*
X907662Y754260D02*
X926592Y735330D01*
X1192410Y586740D02*
X1193520Y585630D01*
X1189870Y779780D02*
X1190980Y778670D01*
X1061104Y570630D02*
X1077976Y587502D01*
X1024490Y570630D02*
X1061104D01*
X952875Y825246D02*
X972820D01*
X962540Y586740D02*
X963650Y585630D01*
X1136650Y605790D02*
Y784140D01*
X1141730Y789220D01*
X1241044Y523360D02*
X1242060D01*
X936419Y712137D02*
X960628Y736346D01*
X947540Y586740D02*
Y587756D01*
X1221272Y736600D02*
X1224320Y739648D01*
X1177410Y586740D02*
Y589534D01*
X1205230Y815340D02*
X1207008D01*
X1234320Y750328D02*
X1239213Y745436D01*
X1242234D02*
X1244720Y742950D01*
X975360Y815340D02*
X979450Y811250D01*
X1004450Y750328D02*
X1009343Y745436D01*
X1012364D02*
X1014850Y742950D01*
X1244774Y552396D02*
X1247260Y549910D01*
X957460Y622300D02*
X979450D01*
X1229320Y732456D02*
Y756170D01*
X1254518Y755650D02*
X1263650D01*
X1264270D01*
X1253998Y756170D02*
X1263130D01*
X1263650Y755650D01*
X1033780D02*
X1034400D01*
X1033260Y756170D02*
X1033780Y755650D01*
X1231860Y539416D02*
Y563130D01*
X1266190Y562610D02*
X1266810D01*
X1265670Y563130D02*
X1266190Y562610D01*
X1203960Y550560D02*
X1207270Y553870D01*
X1001990Y539416D02*
Y563130D01*
X1016990Y559308D02*
X1021080D01*
X1027188Y562610D02*
X1036320D01*
X1036940D01*
X1026668Y563130D02*
X1035800D01*
X1036320Y562610D01*
X974090Y550560D02*
X977400Y553870D01*
X876700Y500380D02*
X897890D01*
X920496D01*
X1070610Y459740D02*
Y493134D01*
Y558038D01*
X896620Y754260D02*
X907662D01*
X929132D01*
X994450Y731600D02*
Y739180D01*
X1224320Y731600D02*
Y739648D01*
X1162050Y736600D02*
X1194816D01*
X1221272D01*
X1224320Y739648D02*
Y756170D01*
X741680Y525780D02*
X774700D01*
X871220Y688340D02*
Y692150D01*
X1254360Y570630D02*
X1351680D01*
X1360170Y579120D01*
Y853440D01*
X961898Y690880D02*
X962660Y690118D01*
X1056004D01*
X1062990Y683132D01*
X1254360Y595630D02*
X1263650D01*
X1251820Y778670D02*
X1251980Y778510D01*
X1268602D01*
X1150620Y817880D02*
X1155700Y822960D01*
X1253998Y640588D02*
X1278851D01*
X1169140Y589810D02*
X1174340D01*
X1177410Y586740D01*
X1062990Y660146D02*
X1087120Y636016D01*
X1062990Y660146D02*
Y675640D01*
Y683132D01*
Y675640D02*
X1064260Y674370D01*
X1076960D01*
X1219320Y811530D02*
Y816135D01*
X989450Y806170D02*
Y815220D01*
X1068070Y894080D02*
Y929640D01*
X933608Y785622D02*
X955548D01*
X1004450Y806170D02*
Y816490D01*
X1004570Y816610D01*
X969170Y798670D02*
X971950D01*
X1234320Y806170D02*
Y815220D01*
X1234440Y815340D01*
X1221860Y613130D02*
Y620910D01*
X1221740Y621030D02*
X1221860Y620910D01*
X1236860Y613130D02*
Y620844D01*
X1236980Y620964D01*
X926592Y656082D02*
Y735330D01*
X936419Y645589D02*
Y712137D01*
X930910Y648970D02*
Y713994D01*
X914400Y584200D02*
Y632460D01*
X930910Y648970D01*
X1167130Y591820D02*
X1169140Y589810D01*
X1021950Y788670D02*
X1032510D01*
X1099820Y858520D02*
Y859790D01*
X1021950Y768670D02*
X1040384D01*
X1021950Y778670D02*
X1036574D01*
X1037237Y793397D02*
X1039213D01*
X1032510Y788670D02*
X1037237Y793397D01*
X919480Y593090D02*
X924814Y587756D01*
X919480Y593090D02*
Y628650D01*
X936419Y645589D01*
X914400Y584200D02*
X922020Y576580D01*
X908050Y577850D02*
Y637540D01*
X926592Y656082D01*
X1251820Y788670D02*
X1251820Y788670D01*
X1264920D01*
X1024490Y595630D02*
X1035050D01*
X1040130Y600710D01*
X1042670D01*
X1024490Y575630D02*
X1048070D01*
X1069848Y597408D01*
X1024490Y585630D02*
X1049020D01*
X1055370Y606298D02*
X1067308Y618236D01*
X1049020Y585630D02*
Y590550D01*
X1055370Y596900D01*
Y606298D01*
X1069848Y597408D02*
X1087120D01*
Y636016D01*
Y574548D02*
Y597408D01*
X999450Y741600D02*
Y756170D01*
Y741600D02*
X1009650Y731400D01*
X1006990Y549910D02*
X1017390D01*
X1006990D02*
Y563130D01*
X1236860Y552396D02*
Y563130D01*
Y552396D02*
X1244774D01*
X1254873Y563130D02*
X1254979Y563024D01*
X1246860Y563130D02*
X1254873D01*
X1265670D01*
X1246766Y731400D02*
X1253060Y737694D01*
Y755232D01*
X1253998Y756170D01*
X1263650Y755650D02*
X1264920Y754380D01*
X1016896Y731400D02*
X1023179Y737683D01*
Y755493D01*
X1023855Y756170D01*
X1014450D02*
X1023855D01*
X1033260D01*
X1033780Y755650D02*
X1035050Y754380D01*
X961898Y690880D02*
Y734691D01*
X960628Y736346D02*
X963553D01*
X961898Y734691D02*
X963553Y736346D01*
X1192984Y595630D02*
X1204360D01*
X1187160Y601453D02*
X1192984Y595630D01*
X1224280Y731012D02*
X1238892Y716400D01*
X1239520D01*
X1183926Y776765D02*
X1188419D01*
X956310Y795020D02*
X962660Y788670D01*
X1184910Y904748D02*
X1203644Y886014D01*
X1244284D01*
X1252220Y878078D01*
X863346Y874776D02*
X872877Y884307D01*
X890631D01*
X890963Y883976D01*
X1057966D01*
X1068070Y894080D01*
X909574Y512064D02*
Y515740D01*
X1189990Y559420D02*
X1193150D01*
X1204360Y570630D01*
X1183602Y577932D02*
X1192410Y586740D01*
X1136650Y605790D02*
X1164509Y577932D01*
X1183602D01*
X1167130Y591820D02*
Y606188D01*
X1168383Y607441D02*
X1174630D01*
X1167130Y606188D02*
X1168383Y607441D01*
X1174630D02*
X1179636Y612446D01*
Y633790D01*
X1187330Y622300D02*
X1190706Y625676D01*
X1211860Y613130D02*
Y620706D01*
X1206889Y625676D02*
X1211860Y620706D01*
X1190706Y625676D02*
X1206889D01*
X1177290Y655320D02*
X1180465Y652145D01*
X1197991D01*
X1179636Y633790D02*
X1197991Y652145D01*
X1198048Y652202D01*
X1254360Y575630D02*
X1269916D01*
X1295057Y600771D01*
X1198048Y652202D02*
X1276454D01*
X1295057Y633600D01*
Y600771D02*
Y633600D01*
X1254360Y585630D02*
X1273609D01*
X930910Y713994D02*
X948000Y731084D01*
Y770708D01*
X929132Y754260D02*
X940690Y765819D01*
X971950Y761579D02*
Y763670D01*
X960206Y749835D02*
X971950Y761579D01*
X956192Y775979D02*
X958883Y778670D01*
X955548Y776623D02*
X956192Y775979D01*
X955548Y776623D02*
Y778256D01*
Y785622D01*
X932078Y787153D02*
X933608Y785622D01*
X932078Y787153D02*
Y803910D01*
X940441D01*
X947800Y811269D01*
Y820171D01*
X952875Y825246D01*
X991616Y736346D02*
X994450Y739180D01*
X963553Y736346D02*
X965845D01*
X965893Y736394D01*
X977207D01*
X977255Y736346D01*
X978544D01*
X978593Y736394D01*
X989907D01*
X989956Y736346D01*
X991616D01*
X896620Y754260D02*
X905436Y763076D01*
Y812754D01*
X896620Y821570D02*
X905436Y812754D01*
X911183Y789346D02*
Y817204D01*
X935990Y842010D01*
X911183Y789346D02*
X920750Y779780D01*
X937077D01*
X940690Y776167D01*
X960120Y559420D02*
X963280D01*
X974490Y570630D01*
X922020Y576580D02*
X952380D01*
X962540Y586740D01*
X952653Y609600D02*
X958950Y603303D01*
Y599589D02*
Y603303D01*
Y599589D02*
X959099Y599440D01*
X962040D01*
X991990Y613130D02*
Y625990D01*
X990600Y627380D02*
X991990Y625990D01*
X1006990Y613130D02*
Y628530D01*
X1007110Y628650D01*
X1021468Y538360D02*
X1025235Y542127D01*
Y555153D01*
X1021080Y559308D02*
X1025235Y555153D01*
X1036320Y562610D02*
X1037590Y561340D01*
X908050Y577850D02*
X942134Y543766D01*
X996852D01*
X996990Y543627D01*
Y538560D02*
Y543627D01*
Y563130D01*
X1261110Y906780D02*
Y929640D01*
Y906780D02*
X1278890Y889000D01*
X1251820Y768670D02*
X1264510D01*
X1275080Y838613D02*
Y868680D01*
X1235710Y908050D02*
X1275080Y868680D01*
X1281430Y838011D02*
Y886474D01*
X1278904Y889000D02*
X1281430Y886474D01*
X1278890Y889000D02*
X1278904D01*
X1141730Y789220D02*
X1144027Y791517D01*
X1131570Y942340D02*
X1144027Y929883D01*
Y791517D02*
Y929883D01*
X948000Y770708D02*
X955548Y778256D01*
X1154074Y824586D02*
X1155700Y822960D01*
X1184910Y935990D02*
Y953816D01*
X1154074Y824586D02*
Y943980D01*
X1163909Y953816D01*
X1184910D01*
X1184162Y793792D02*
X1189284Y788670D01*
X1184162Y793792D02*
Y795445D01*
X1184790Y815340D02*
X1185044Y815594D01*
X1204976D02*
X1205230Y815340D01*
X1185044Y815594D02*
X1204976D01*
X1166102Y788548D02*
X1174870Y779780D01*
X1156690Y788548D02*
X1166102D01*
X1150620Y794618D02*
X1156690Y788548D01*
X1150620Y794618D02*
Y817880D01*
X1021950Y763670D02*
X1044871D01*
X1059285Y778084D02*
Y792205D01*
X1044871Y763670D02*
X1059285Y778084D01*
X1040384Y768670D02*
X1050049Y778335D01*
Y817613D01*
X1025652Y842010D02*
X1050049Y817613D01*
X1242060Y538360D02*
X1250389D01*
X1254979Y542950D01*
Y563024D01*
X1266190Y562610D02*
X1267460Y561340D01*
X1278851Y640588D02*
X1285515Y633923D01*
X1273609Y585630D02*
X1285515Y597536D01*
Y633923D01*
X1264800Y626110D02*
X1275929D01*
X1282192Y776370D02*
Y837249D01*
X1278128Y782288D02*
Y835565D01*
X1274064Y783972D02*
Y833882D01*
X1268602Y778510D02*
X1274064Y783972D01*
X1252220Y855726D02*
X1274064Y833882D01*
X1264510Y768670D02*
X1278128Y782288D01*
X1275080Y838613D02*
X1278128Y835565D01*
X1269492Y763670D02*
X1282192Y776370D01*
X1281430Y838011D02*
X1282192Y837249D01*
X974490Y580630D02*
X991990D01*
X1006990D02*
X1024490D01*
X971950Y773670D02*
X989450D01*
X1004450D02*
X1021950D01*
X1204360Y580630D02*
X1221860D01*
X1236860D02*
X1254360D01*
X1201820Y773670D02*
X1219320D01*
X1234320D02*
X1251820D01*
X924814Y587756D02*
X947540D01*
X940690Y765819D02*
Y776167D01*
X1241044Y512826D02*
Y523360D01*
D22*
X849630Y734060D02*
D03*
Y801370D02*
D03*
Y868680D02*
D03*
X765810Y600710D02*
D03*
D23*
X849630Y759460D02*
D03*
Y826770D02*
D03*
Y894080D02*
D03*
X765810Y626110D02*
D03*
D24*
X1240790Y859790D02*
D03*
X1215390D02*
D03*
X1264920D02*
D03*
X1010920D02*
D03*
X985520D02*
D03*
X1035050D02*
D03*
X1243330Y666750D02*
D03*
X1217930D02*
D03*
X1267460D02*
D03*
X1013460D02*
D03*
X988060D02*
D03*
X1037590D02*
D03*
D25*
X1189990Y859790D02*
D03*
X960120D02*
D03*
X1192530Y666750D02*
D03*
X962660D02*
D03*
D26*
X768350Y849630D02*
D03*
X767080Y698500D02*
D03*
D27*
X768350Y900430D02*
D03*
X767080Y749300D02*
D03*
D28*
X1172210Y942340D02*
D03*
X1197610D02*
D03*
X1223010D02*
D03*
X1248410D02*
D03*
X1273810D02*
D03*
X1299210D02*
D03*
X1324610D02*
D03*
X1106170D02*
D03*
X1055370D02*
D03*
X1029970D02*
D03*
X1004570D02*
D03*
X979170D02*
D03*
X953770D02*
D03*
X928370D02*
D03*
X902970D02*
D03*
X1080770D02*
D03*
X1172210Y916940D02*
D03*
X1197610D02*
D03*
X1223010D02*
D03*
X1248410D02*
D03*
X1273810D02*
D03*
X1299210D02*
D03*
X1324610D02*
D03*
X953770D02*
D03*
X979170D02*
D03*
X1004570D02*
D03*
X1029970D02*
D03*
X1055370D02*
D03*
X1080770D02*
D03*
X1106170D02*
D03*
X1223010Y459740D02*
D03*
X1248410D02*
D03*
X1273810D02*
D03*
X1299210D02*
D03*
X1324610D02*
D03*
X994410D02*
D03*
X1019810D02*
D03*
X1045210D02*
D03*
X1070610D02*
D03*
X1096010D02*
D03*
X1121410D02*
D03*
X1146810D02*
D03*
X1223010Y485140D02*
D03*
X1248410D02*
D03*
X1273810D02*
D03*
X1299210D02*
D03*
X1324610D02*
D03*
X1146810D02*
D03*
X1121410D02*
D03*
X1096010D02*
D03*
D29*
X1350010Y942340D02*
D03*
X1131570D02*
D03*
X1350010Y916940D02*
D03*
X1131570D02*
D03*
X1350010Y459740D02*
D03*
X1172210D02*
D03*
X1350010Y485140D02*
D03*
X1172210D02*
D03*
D30*
X1203960Y447040D02*
D03*
X1215390Y792600D02*
D03*
X1226820Y781170D02*
D03*
Y792600D02*
D03*
X1215390Y781170D02*
D03*
Y769740D02*
D03*
X1226820D02*
D03*
X1238250D02*
D03*
Y781170D02*
D03*
Y792600D02*
D03*
X985520D02*
D03*
X996950Y781170D02*
D03*
Y792600D02*
D03*
X985520Y781170D02*
D03*
Y769740D02*
D03*
X996950D02*
D03*
X1008380D02*
D03*
Y781170D02*
D03*
Y792600D02*
D03*
X1217930Y599560D02*
D03*
X1229360Y588130D02*
D03*
Y599560D02*
D03*
X1217930Y588130D02*
D03*
Y576700D02*
D03*
X1229360D02*
D03*
X1240790D02*
D03*
Y588130D02*
D03*
Y599560D02*
D03*
X988060D02*
D03*
X999490Y588130D02*
D03*
Y599560D02*
D03*
X988060Y588130D02*
D03*
Y576700D02*
D03*
X999490D02*
D03*
X1010920D02*
D03*
Y588130D02*
D03*
Y599560D02*
D03*
X920496Y500380D02*
D03*
D31*
X1234440Y821690D02*
D03*
X1007110Y628650D02*
D03*
X1264920Y613410D02*
D03*
X1032510Y806450D02*
D03*
X990600Y627380D02*
D03*
X1253998Y640588D02*
D03*
X1077976Y587502D02*
D03*
X1067308Y618236D02*
D03*
X972820Y825246D02*
D03*
X1162050Y736600D02*
D03*
X965638Y611702D02*
D03*
X914400Y660400D02*
D03*
X1267460Y598170D02*
D03*
X1220470Y627380D02*
D03*
X1236980Y628650D02*
D03*
X1294130Y660400D02*
D03*
X1120140Y608330D02*
D03*
X1301750Y855980D02*
D03*
X1155700Y822960D02*
D03*
X1169790Y841890D02*
D03*
X1101090Y770890D02*
D03*
X922020Y802640D02*
D03*
X928370Y869950D02*
D03*
X1032510Y534670D02*
D03*
X1268730Y726440D02*
D03*
Y530860D02*
D03*
X1042670Y734060D02*
D03*
X949960Y635650D02*
D03*
X989330Y510540D02*
D03*
X1148080Y621030D02*
D03*
X1093470Y521970D02*
D03*
X1076960Y674370D02*
D03*
X1216660Y824230D02*
D03*
X1004570D02*
D03*
X990049Y825500D02*
D03*
X949960Y795020D02*
D03*
X1036574Y778670D02*
D03*
X1089660Y848360D02*
D03*
X1039213Y793397D02*
D03*
X1264920Y788670D02*
D03*
X1035050Y613410D02*
D03*
X1042670Y600710D02*
D03*
X1199059Y613983D02*
D03*
X1187160Y601453D02*
D03*
X963930Y803910D02*
D03*
X932321Y609571D02*
D03*
X1184162Y795445D02*
D03*
X1195070Y806450D02*
D03*
X1059285Y792205D02*
D03*
X1275929Y626110D02*
D03*
X1262957Y804388D02*
D03*
M02*
