G04 Layer_Physical_Order=1*
G04 Layer_Color=255*
%FSLAX44Y44*%
%MOMM*%
G71*
G01*
G75*
%ADD10R,1.0000X0.2500*%
%ADD11R,0.2500X1.0000*%
%ADD12R,3.4000X3.4000*%
%ADD13R,0.9000X0.8000*%
%ADD14R,0.8000X0.9000*%
%ADD15R,4.1500X1.0500*%
%ADD16R,8.8000X9.6000*%
%ADD17R,0.7000X0.9000*%
%ADD18R,0.9000X0.7000*%
%ADD19R,1.6000X3.2000*%
%ADD20C,0.2540*%
%ADD21C,0.6096*%
%ADD22R,1.8000X1.8000*%
%ADD23C,1.8000*%
%ADD24C,1.4000*%
%ADD25R,1.4000X1.4000*%
%ADD26C,1.9000*%
%ADD27R,1.9000X1.9000*%
%ADD28C,1.5000*%
%ADD29R,1.5000X1.5000*%
%ADD30C,0.6000*%
%ADD31C,1.2700*%
G36*
X1402177Y970377D02*
X1402080Y970280D01*
Y434340D01*
X713740D01*
X712472Y970651D01*
X713369Y971550D01*
X1401691D01*
X1402177Y970377D01*
D02*
G37*
%LPC*%
G36*
X767080Y709293D02*
X765671Y709201D01*
X764286Y708925D01*
X762950Y708472D01*
X761684Y707847D01*
X760510Y707063D01*
X759448Y706132D01*
X758517Y705070D01*
X757733Y703896D01*
X757109Y702630D01*
X756655Y701293D01*
X756379Y699909D01*
X756287Y698500D01*
X756379Y697091D01*
X756655Y695706D01*
X757109Y694370D01*
X757733Y693103D01*
X758517Y691930D01*
X759448Y690868D01*
X760510Y689937D01*
X761684Y689153D01*
X762741Y688631D01*
Y669055D01*
X738612Y644926D01*
X738072Y644269D01*
X737671Y643518D01*
X737424Y642704D01*
X737341Y641858D01*
Y575050D01*
X729430D01*
Y476510D01*
X819970D01*
Y575050D01*
X746019D01*
Y640061D01*
X770148Y664190D01*
X770688Y664847D01*
X771089Y665598D01*
X771336Y666412D01*
X771419Y667258D01*
Y688631D01*
X772477Y689153D01*
X773650Y689937D01*
X774712Y690868D01*
X775643Y691930D01*
X776427Y693103D01*
X777051Y694370D01*
X777505Y695706D01*
X777781Y697091D01*
X777873Y698500D01*
X777781Y699909D01*
X777505Y701293D01*
X777051Y702630D01*
X776427Y703896D01*
X775643Y705070D01*
X774712Y706132D01*
X773650Y707063D01*
X772477Y707847D01*
X771210Y708472D01*
X769874Y708925D01*
X768489Y709201D01*
X767080Y709293D01*
D02*
G37*
G36*
X1200800Y675020D02*
X1184260D01*
Y658480D01*
X1200800D01*
Y675020D01*
D02*
G37*
G36*
X1358780Y493910D02*
X1341240D01*
Y476370D01*
X1358780D01*
Y493910D01*
D02*
G37*
G36*
X1051481Y732790D02*
X1043940D01*
Y725248D01*
X1044976Y725454D01*
X1046079Y725829D01*
X1047125Y726345D01*
X1048093Y726992D01*
X1048970Y727760D01*
X1049738Y728636D01*
X1050386Y729605D01*
X1050901Y730651D01*
X1051275Y731754D01*
X1051481Y732790D01*
D02*
G37*
G36*
X1041400D02*
X1033858D01*
X1034064Y731754D01*
X1034439Y730651D01*
X1034955Y729605D01*
X1035602Y728636D01*
X1036370Y727760D01*
X1037246Y726992D01*
X1038215Y726345D01*
X1039261Y725829D01*
X1040364Y725454D01*
X1041400Y725248D01*
Y732790D01*
D02*
G37*
G36*
X1267460Y675038D02*
X1266378Y674967D01*
X1265315Y674755D01*
X1264288Y674407D01*
X1263316Y673927D01*
X1262415Y673325D01*
X1261600Y672610D01*
X1260885Y671795D01*
X1260283Y670894D01*
X1259803Y669922D01*
X1259455Y668895D01*
X1259243Y667832D01*
X1259172Y666750D01*
X1259243Y665668D01*
X1259455Y664605D01*
X1259803Y663578D01*
X1260283Y662606D01*
X1260885Y661705D01*
X1261600Y660890D01*
X1262415Y660175D01*
X1263316Y659573D01*
X1264288Y659093D01*
X1265315Y658745D01*
X1266378Y658533D01*
X1267460Y658462D01*
X1268542Y658533D01*
X1269605Y658745D01*
X1270632Y659093D01*
X1271604Y659573D01*
X1272505Y660175D01*
X1273320Y660890D01*
X1274035Y661705D01*
X1274637Y662606D01*
X1275117Y663578D01*
X1275465Y664605D01*
X1275677Y665668D01*
X1275748Y666750D01*
X1275677Y667832D01*
X1275465Y668895D01*
X1275117Y669922D01*
X1274637Y670894D01*
X1274035Y671795D01*
X1273320Y672610D01*
X1272505Y673325D01*
X1271604Y673927D01*
X1270632Y674407D01*
X1269605Y674755D01*
X1268542Y674967D01*
X1267460Y675038D01*
D02*
G37*
G36*
Y529590D02*
X1259919D01*
X1260125Y528554D01*
X1260499Y527451D01*
X1261014Y526405D01*
X1261662Y525437D01*
X1262430Y524560D01*
X1263307Y523792D01*
X1264275Y523144D01*
X1265321Y522629D01*
X1266424Y522254D01*
X1267460Y522048D01*
Y529590D01*
D02*
G37*
G36*
X1277542D02*
X1270000D01*
Y522048D01*
X1271036Y522254D01*
X1272139Y522629D01*
X1273185Y523144D01*
X1274154Y523792D01*
X1275030Y524560D01*
X1275798Y525437D01*
X1276445Y526405D01*
X1276961Y527451D01*
X1277336Y528554D01*
X1277542Y529590D01*
D02*
G37*
G36*
X916360Y520510D02*
X904820D01*
Y510970D01*
X904820Y510970D01*
X904820D01*
X903990Y510103D01*
X899894Y506007D01*
X898720Y506493D01*
Y506900D01*
X854680D01*
Y493860D01*
X898720D01*
Y497818D01*
X917075D01*
X917462Y497346D01*
X918112Y496813D01*
X918854Y496416D01*
X919659Y496172D01*
X920496Y496089D01*
X921333Y496172D01*
X922138Y496416D01*
X922880Y496813D01*
X923530Y497346D01*
X924063Y497996D01*
X924460Y498738D01*
X924704Y499543D01*
X924787Y500380D01*
X924704Y501217D01*
X924460Y502022D01*
X924063Y502764D01*
X923530Y503414D01*
X922880Y503947D01*
X922138Y504344D01*
X921333Y504588D01*
X920496Y504671D01*
X919659Y504588D01*
X918854Y504344D01*
X918112Y503947D01*
X917462Y503414D01*
X917075Y502942D01*
X905734D01*
X905248Y504115D01*
X911386Y510252D01*
X911793Y510783D01*
X911870Y510970D01*
X916360D01*
Y520510D01*
D02*
G37*
G36*
X1243330Y675038D02*
X1242248Y674967D01*
X1241185Y674755D01*
X1240158Y674407D01*
X1239186Y673927D01*
X1238285Y673325D01*
X1237470Y672610D01*
X1236755Y671795D01*
X1236153Y670894D01*
X1235673Y669922D01*
X1235325Y668895D01*
X1235113Y667832D01*
X1235042Y666750D01*
X1235113Y665668D01*
X1235325Y664605D01*
X1235673Y663578D01*
X1236153Y662606D01*
X1236755Y661705D01*
X1237470Y660890D01*
X1238285Y660175D01*
X1239186Y659573D01*
X1240158Y659093D01*
X1241185Y658745D01*
X1242248Y658533D01*
X1243330Y658462D01*
X1244412Y658533D01*
X1245475Y658745D01*
X1246502Y659093D01*
X1247474Y659573D01*
X1248375Y660175D01*
X1249190Y660890D01*
X1249905Y661705D01*
X1250507Y662606D01*
X1250987Y663578D01*
X1251335Y664605D01*
X1251547Y665668D01*
X1251618Y666750D01*
X1251547Y667832D01*
X1251335Y668895D01*
X1250987Y669922D01*
X1250507Y670894D01*
X1249905Y671795D01*
X1249190Y672610D01*
X1248375Y673325D01*
X1247474Y673927D01*
X1246502Y674407D01*
X1245475Y674755D01*
X1244412Y674967D01*
X1243330Y675038D01*
D02*
G37*
G36*
X1217930D02*
X1216848Y674967D01*
X1215785Y674755D01*
X1214758Y674407D01*
X1213786Y673927D01*
X1212885Y673325D01*
X1212070Y672610D01*
X1211355Y671795D01*
X1210753Y670894D01*
X1210273Y669922D01*
X1209925Y668895D01*
X1209713Y667832D01*
X1209642Y666750D01*
X1209713Y665668D01*
X1209925Y664605D01*
X1210273Y663578D01*
X1210753Y662606D01*
X1211355Y661705D01*
X1212070Y660890D01*
X1212885Y660175D01*
X1213786Y659573D01*
X1214758Y659093D01*
X1215785Y658745D01*
X1216848Y658533D01*
X1217930Y658462D01*
X1219012Y658533D01*
X1220075Y658745D01*
X1221102Y659093D01*
X1222074Y659573D01*
X1222975Y660175D01*
X1223790Y660890D01*
X1224505Y661705D01*
X1225107Y662606D01*
X1225587Y663578D01*
X1225935Y664605D01*
X1226147Y665668D01*
X1226218Y666750D01*
X1226147Y667832D01*
X1225935Y668895D01*
X1225587Y669922D01*
X1225107Y670894D01*
X1224505Y671795D01*
X1223790Y672610D01*
X1222975Y673325D01*
X1222074Y673927D01*
X1221102Y674407D01*
X1220075Y674755D01*
X1219012Y674967D01*
X1217930Y675038D01*
D02*
G37*
G36*
X1047130Y754380D02*
X1041860D01*
Y748610D01*
X1047130D01*
Y754380D01*
D02*
G37*
G36*
X861112Y758190D02*
X850900D01*
Y747979D01*
X851140Y747994D01*
X852623Y748289D01*
X854056Y748776D01*
X855412Y749445D01*
X856670Y750285D01*
X857807Y751283D01*
X858805Y752420D01*
X859645Y753678D01*
X860314Y755034D01*
X860801Y756467D01*
X861096Y757951D01*
X861112Y758190D01*
D02*
G37*
G36*
X848360D02*
X838148D01*
X838164Y757951D01*
X838459Y756467D01*
X838946Y755034D01*
X839615Y753678D01*
X840455Y752420D01*
X841452Y751283D01*
X842590Y750285D01*
X843848Y749445D01*
X845204Y748776D01*
X846637Y748289D01*
X848120Y747994D01*
X848360Y747979D01*
Y758190D01*
D02*
G37*
G36*
X1248410Y493929D02*
X1247263Y493854D01*
X1246135Y493629D01*
X1245047Y493260D01*
X1244016Y492751D01*
X1243060Y492113D01*
X1242195Y491355D01*
X1241437Y490490D01*
X1240799Y489534D01*
X1240290Y488503D01*
X1239921Y487415D01*
X1239696Y486287D01*
X1239621Y485140D01*
X1239696Y483993D01*
X1239921Y482865D01*
X1240290Y481777D01*
X1240799Y480746D01*
X1241437Y479790D01*
X1242195Y478925D01*
X1243060Y478167D01*
X1244016Y477529D01*
X1245047Y477020D01*
X1246135Y476651D01*
X1247263Y476426D01*
X1248410Y476351D01*
X1249557Y476426D01*
X1250685Y476651D01*
X1251773Y477020D01*
X1252804Y477529D01*
X1253760Y478167D01*
X1254625Y478925D01*
X1255383Y479790D01*
X1256021Y480746D01*
X1256530Y481777D01*
X1256899Y482865D01*
X1257124Y483993D01*
X1257199Y485140D01*
X1257124Y486287D01*
X1256899Y487415D01*
X1256530Y488503D01*
X1256021Y489534D01*
X1255383Y490490D01*
X1254625Y491355D01*
X1253760Y492113D01*
X1252804Y492751D01*
X1251773Y493260D01*
X1250685Y493629D01*
X1249557Y493854D01*
X1248410Y493929D01*
D02*
G37*
G36*
X1273810D02*
X1272663Y493854D01*
X1271535Y493629D01*
X1270447Y493260D01*
X1269416Y492751D01*
X1268460Y492113D01*
X1267595Y491355D01*
X1266837Y490490D01*
X1266199Y489534D01*
X1265690Y488503D01*
X1265321Y487415D01*
X1265096Y486287D01*
X1265021Y485140D01*
X1265096Y483993D01*
X1265321Y482865D01*
X1265690Y481777D01*
X1266199Y480746D01*
X1266837Y479790D01*
X1267595Y478925D01*
X1268460Y478167D01*
X1269416Y477529D01*
X1270447Y477020D01*
X1271535Y476651D01*
X1272663Y476426D01*
X1273810Y476351D01*
X1274957Y476426D01*
X1276085Y476651D01*
X1277173Y477020D01*
X1278204Y477529D01*
X1279160Y478167D01*
X1280025Y478925D01*
X1280783Y479790D01*
X1281421Y480746D01*
X1281930Y481777D01*
X1282299Y482865D01*
X1282524Y483993D01*
X1282599Y485140D01*
X1282524Y486287D01*
X1282299Y487415D01*
X1281930Y488503D01*
X1281421Y489534D01*
X1280783Y490490D01*
X1280025Y491355D01*
X1279160Y492113D01*
X1278204Y492751D01*
X1277173Y493260D01*
X1276085Y493629D01*
X1274957Y493854D01*
X1273810Y493929D01*
D02*
G37*
G36*
X1054940Y754380D02*
X1049670D01*
Y748610D01*
X1054940D01*
Y754380D01*
D02*
G37*
G36*
X1324610Y493929D02*
X1323463Y493854D01*
X1322335Y493629D01*
X1321247Y493260D01*
X1320216Y492751D01*
X1319260Y492113D01*
X1318395Y491355D01*
X1317637Y490490D01*
X1316999Y489534D01*
X1316490Y488503D01*
X1316121Y487415D01*
X1315896Y486287D01*
X1315821Y485140D01*
X1315896Y483993D01*
X1316121Y482865D01*
X1316490Y481777D01*
X1316999Y480746D01*
X1317637Y479790D01*
X1318395Y478925D01*
X1319260Y478167D01*
X1320216Y477529D01*
X1321247Y477020D01*
X1322335Y476651D01*
X1323463Y476426D01*
X1324610Y476351D01*
X1325757Y476426D01*
X1326885Y476651D01*
X1327973Y477020D01*
X1329004Y477529D01*
X1329960Y478167D01*
X1330825Y478925D01*
X1331583Y479790D01*
X1332221Y480746D01*
X1332730Y481777D01*
X1333099Y482865D01*
X1333324Y483993D01*
X1333399Y485140D01*
X1333324Y486287D01*
X1333099Y487415D01*
X1332730Y488503D01*
X1332221Y489534D01*
X1331583Y490490D01*
X1330825Y491355D01*
X1329960Y492113D01*
X1329004Y492751D01*
X1327973Y493260D01*
X1326885Y493629D01*
X1325757Y493854D01*
X1324610Y493929D01*
D02*
G37*
G36*
X1180980Y493910D02*
X1163440D01*
Y476370D01*
X1180980D01*
Y493910D01*
D02*
G37*
G36*
X1098550Y742950D02*
X1089280D01*
Y725680D01*
X1098550D01*
Y742950D01*
D02*
G37*
G36*
X1299210Y493929D02*
X1298063Y493854D01*
X1296935Y493629D01*
X1295847Y493260D01*
X1294816Y492751D01*
X1293860Y492113D01*
X1292995Y491355D01*
X1292237Y490490D01*
X1291599Y489534D01*
X1291090Y488503D01*
X1290721Y487415D01*
X1290496Y486287D01*
X1290421Y485140D01*
X1290496Y483993D01*
X1290721Y482865D01*
X1291090Y481777D01*
X1291599Y480746D01*
X1292237Y479790D01*
X1292995Y478925D01*
X1293860Y478167D01*
X1294816Y477529D01*
X1295847Y477020D01*
X1296935Y476651D01*
X1298063Y476426D01*
X1299210Y476351D01*
X1300357Y476426D01*
X1301485Y476651D01*
X1302573Y477020D01*
X1303604Y477529D01*
X1304560Y478167D01*
X1305425Y478925D01*
X1306183Y479790D01*
X1306821Y480746D01*
X1307330Y481777D01*
X1307699Y482865D01*
X1307924Y483993D01*
X1307999Y485140D01*
X1307924Y486287D01*
X1307699Y487415D01*
X1307330Y488503D01*
X1306821Y489534D01*
X1306183Y490490D01*
X1305425Y491355D01*
X1304560Y492113D01*
X1303604Y492751D01*
X1302573Y493260D01*
X1301485Y493629D01*
X1300357Y493854D01*
X1299210Y493929D01*
D02*
G37*
G36*
X1041400Y742871D02*
X1040364Y742665D01*
X1039261Y742291D01*
X1038215Y741776D01*
X1037246Y741128D01*
X1037160Y741052D01*
X1035890Y741628D01*
Y741680D01*
X1031120D01*
Y735910D01*
X1032868D01*
X1033293Y735330D01*
X1041400D01*
Y742871D01*
D02*
G37*
G36*
X1043940D02*
Y735330D01*
X1051481D01*
X1051275Y736366D01*
X1050901Y737469D01*
X1050386Y738515D01*
X1049738Y739483D01*
X1048970Y740360D01*
X1048093Y741128D01*
X1047125Y741776D01*
X1046079Y742291D01*
X1044976Y742665D01*
X1043940Y742871D01*
D02*
G37*
G36*
X1346580Y565910D02*
X1337310D01*
Y548640D01*
X1346580D01*
Y565910D01*
D02*
G37*
G36*
X1334770D02*
X1325500D01*
Y548640D01*
X1334770D01*
Y565910D01*
D02*
G37*
G36*
X875430Y558970D02*
X853410D01*
Y552450D01*
X875430D01*
Y558970D01*
D02*
G37*
G36*
X909320Y536780D02*
X903550D01*
Y532010D01*
X909320D01*
Y536780D01*
D02*
G37*
G36*
X899990Y558970D02*
X877970D01*
Y552450D01*
X899990D01*
Y558970D01*
D02*
G37*
G36*
Y549910D02*
X877970D01*
Y543390D01*
X899990D01*
Y549910D01*
D02*
G37*
G36*
X1270000Y539672D02*
Y532130D01*
X1277542D01*
X1277336Y533166D01*
X1276961Y534269D01*
X1276445Y535315D01*
X1275798Y536283D01*
X1275030Y537160D01*
X1274154Y537928D01*
X1273185Y538576D01*
X1272139Y539091D01*
X1271036Y539465D01*
X1270000Y539672D01*
D02*
G37*
G36*
X1267460D02*
X1266424Y539465D01*
X1265321Y539091D01*
X1264275Y538576D01*
X1263307Y537928D01*
X1262430Y537160D01*
X1261662Y536283D01*
X1261014Y535315D01*
X1260499Y534269D01*
X1260125Y533166D01*
X1259919Y532130D01*
X1267460D01*
Y539672D01*
D02*
G37*
G36*
X917630Y536780D02*
X911860D01*
Y532010D01*
X917630D01*
Y536780D01*
D02*
G37*
G36*
X875430Y549910D02*
X853410D01*
Y543390D01*
X875430D01*
Y549910D01*
D02*
G37*
G36*
X1268300Y548640D02*
X1263530D01*
Y542870D01*
X1268300D01*
Y548640D01*
D02*
G37*
G36*
X1346580Y546100D02*
X1337310D01*
Y528830D01*
X1346580D01*
Y546100D01*
D02*
G37*
G36*
X909320Y529470D02*
X903550D01*
Y524700D01*
X909320D01*
Y529470D01*
D02*
G37*
G36*
X917630D02*
X911860D01*
Y524700D01*
X917630D01*
Y529470D01*
D02*
G37*
G36*
X765810Y636402D02*
X764467Y636314D01*
X763146Y636051D01*
X761871Y635619D01*
X760664Y635023D01*
X759545Y634275D01*
X758532Y633388D01*
X757645Y632375D01*
X756897Y631256D01*
X756301Y630049D01*
X755869Y628774D01*
X755606Y627453D01*
X755518Y626110D01*
X755606Y624767D01*
X755869Y623446D01*
X756301Y622171D01*
X756897Y620964D01*
X757645Y619845D01*
X758532Y618832D01*
X759545Y617945D01*
X760664Y617197D01*
X761871Y616601D01*
X763146Y616169D01*
X764467Y615906D01*
X765810Y615818D01*
X767153Y615906D01*
X768474Y616169D01*
X769749Y616601D01*
X770956Y617197D01*
X772075Y617945D01*
X773088Y618832D01*
X773975Y619845D01*
X774723Y620964D01*
X775319Y622171D01*
X775751Y623446D01*
X776014Y624767D01*
X776102Y626110D01*
X776014Y627453D01*
X775751Y628774D01*
X775319Y630049D01*
X774723Y631256D01*
X773975Y632375D01*
X773088Y633388D01*
X772075Y634275D01*
X770956Y635023D01*
X769749Y635619D01*
X768474Y636051D01*
X767153Y636314D01*
X765810Y636402D01*
D02*
G37*
G36*
X881760Y635760D02*
X872490D01*
Y618490D01*
X881760D01*
Y635760D01*
D02*
G37*
G36*
X869950D02*
X860680D01*
Y618490D01*
X869950D01*
Y635760D01*
D02*
G37*
G36*
X1334770Y546100D02*
X1325500D01*
Y528830D01*
X1334770D01*
Y546100D01*
D02*
G37*
G36*
X1287350Y561340D02*
X1282080D01*
Y555570D01*
X1287350D01*
Y561340D01*
D02*
G37*
G36*
X1279540D02*
X1274270D01*
Y555570D01*
X1279540D01*
Y561340D01*
D02*
G37*
G36*
X776080Y610980D02*
X755540D01*
Y590440D01*
X776080D01*
Y610980D01*
D02*
G37*
G36*
X881760Y615950D02*
X872490D01*
Y598680D01*
X881760D01*
Y615950D01*
D02*
G37*
G36*
X869950D02*
X860680D01*
Y598680D01*
X869950D01*
Y615950D01*
D02*
G37*
G36*
X979170Y925729D02*
X978023Y925654D01*
X976895Y925429D01*
X975807Y925060D01*
X974776Y924551D01*
X973820Y923913D01*
X972955Y923155D01*
X972197Y922290D01*
X971559Y921334D01*
X971050Y920303D01*
X970681Y919215D01*
X970456Y918087D01*
X970381Y916940D01*
X970456Y915793D01*
X970681Y914665D01*
X971050Y913577D01*
X971559Y912546D01*
X972197Y911590D01*
X972955Y910725D01*
X973820Y909967D01*
X974776Y909329D01*
X975807Y908820D01*
X976895Y908451D01*
X978023Y908226D01*
X979170Y908151D01*
X980317Y908226D01*
X981445Y908451D01*
X982533Y908820D01*
X983564Y909329D01*
X984520Y909967D01*
X985385Y910725D01*
X986143Y911590D01*
X986781Y912546D01*
X987290Y913577D01*
X987659Y914665D01*
X987884Y915793D01*
X987959Y916940D01*
X987884Y918087D01*
X987659Y919215D01*
X987290Y920303D01*
X986781Y921334D01*
X986143Y922290D01*
X985385Y923155D01*
X984520Y923913D01*
X983564Y924551D01*
X982533Y925060D01*
X981445Y925429D01*
X980317Y925654D01*
X979170Y925729D01*
D02*
G37*
G36*
X953770D02*
X952623Y925654D01*
X951495Y925429D01*
X950407Y925060D01*
X949376Y924551D01*
X948420Y923913D01*
X947555Y923155D01*
X946797Y922290D01*
X946159Y921334D01*
X945650Y920303D01*
X945281Y919215D01*
X945056Y918087D01*
X944981Y916940D01*
X945056Y915793D01*
X945281Y914665D01*
X945650Y913577D01*
X946159Y912546D01*
X946797Y911590D01*
X947555Y910725D01*
X948420Y909967D01*
X949376Y909329D01*
X950407Y908820D01*
X951495Y908451D01*
X952623Y908226D01*
X953770Y908151D01*
X954917Y908226D01*
X956045Y908451D01*
X957133Y908820D01*
X958164Y909329D01*
X959120Y909967D01*
X959985Y910725D01*
X960743Y911590D01*
X961381Y912546D01*
X961890Y913577D01*
X962259Y914665D01*
X962484Y915793D01*
X962559Y916940D01*
X962484Y918087D01*
X962259Y919215D01*
X961890Y920303D01*
X961381Y921334D01*
X960743Y922290D01*
X959985Y923155D01*
X959120Y923913D01*
X958164Y924551D01*
X957133Y925060D01*
X956045Y925429D01*
X954917Y925654D01*
X953770Y925729D01*
D02*
G37*
G36*
X850900Y905562D02*
Y895350D01*
X861112D01*
X861096Y895590D01*
X860801Y897073D01*
X860314Y898506D01*
X859645Y899862D01*
X858805Y901120D01*
X857807Y902258D01*
X856670Y903255D01*
X855412Y904095D01*
X854056Y904764D01*
X852623Y905251D01*
X851140Y905546D01*
X850900Y905562D01*
D02*
G37*
G36*
X1055370Y925729D02*
X1054223Y925654D01*
X1053095Y925429D01*
X1052007Y925060D01*
X1050976Y924551D01*
X1050020Y923913D01*
X1049155Y923155D01*
X1048397Y922290D01*
X1047759Y921334D01*
X1047250Y920303D01*
X1046881Y919215D01*
X1046656Y918087D01*
X1046581Y916940D01*
X1046656Y915793D01*
X1046881Y914665D01*
X1047250Y913577D01*
X1047759Y912546D01*
X1048397Y911590D01*
X1049155Y910725D01*
X1050020Y909967D01*
X1050976Y909329D01*
X1052007Y908820D01*
X1053095Y908451D01*
X1054223Y908226D01*
X1055370Y908151D01*
X1056517Y908226D01*
X1057645Y908451D01*
X1058733Y908820D01*
X1059764Y909329D01*
X1060720Y909967D01*
X1061585Y910725D01*
X1062343Y911590D01*
X1062981Y912546D01*
X1063490Y913577D01*
X1063859Y914665D01*
X1064084Y915793D01*
X1064159Y916940D01*
X1064084Y918087D01*
X1063859Y919215D01*
X1063490Y920303D01*
X1062981Y921334D01*
X1062343Y922290D01*
X1061585Y923155D01*
X1060720Y923913D01*
X1059764Y924551D01*
X1058733Y925060D01*
X1057645Y925429D01*
X1056517Y925654D01*
X1055370Y925729D01*
D02*
G37*
G36*
X1029970D02*
X1028823Y925654D01*
X1027695Y925429D01*
X1026607Y925060D01*
X1025576Y924551D01*
X1024620Y923913D01*
X1023755Y923155D01*
X1022997Y922290D01*
X1022359Y921334D01*
X1021850Y920303D01*
X1021481Y919215D01*
X1021256Y918087D01*
X1021181Y916940D01*
X1021256Y915793D01*
X1021481Y914665D01*
X1021850Y913577D01*
X1022359Y912546D01*
X1022997Y911590D01*
X1023755Y910725D01*
X1024620Y909967D01*
X1025576Y909329D01*
X1026607Y908820D01*
X1027695Y908451D01*
X1028823Y908226D01*
X1029970Y908151D01*
X1031117Y908226D01*
X1032245Y908451D01*
X1033333Y908820D01*
X1034364Y909329D01*
X1035320Y909967D01*
X1036185Y910725D01*
X1036943Y911590D01*
X1037581Y912546D01*
X1038090Y913577D01*
X1038459Y914665D01*
X1038684Y915793D01*
X1038759Y916940D01*
X1038684Y918087D01*
X1038459Y919215D01*
X1038090Y920303D01*
X1037581Y921334D01*
X1036943Y922290D01*
X1036185Y923155D01*
X1035320Y923913D01*
X1034364Y924551D01*
X1033333Y925060D01*
X1032245Y925429D01*
X1031117Y925654D01*
X1029970Y925729D01*
D02*
G37*
G36*
X1004570D02*
X1003423Y925654D01*
X1002295Y925429D01*
X1001207Y925060D01*
X1000176Y924551D01*
X999220Y923913D01*
X998355Y923155D01*
X997597Y922290D01*
X996959Y921334D01*
X996450Y920303D01*
X996081Y919215D01*
X995856Y918087D01*
X995781Y916940D01*
X995856Y915793D01*
X996081Y914665D01*
X996450Y913577D01*
X996959Y912546D01*
X997597Y911590D01*
X998355Y910725D01*
X999220Y909967D01*
X1000176Y909329D01*
X1001207Y908820D01*
X1002295Y908451D01*
X1003423Y908226D01*
X1004570Y908151D01*
X1005717Y908226D01*
X1006845Y908451D01*
X1007933Y908820D01*
X1008964Y909329D01*
X1009920Y909967D01*
X1010785Y910725D01*
X1011543Y911590D01*
X1012181Y912546D01*
X1012690Y913577D01*
X1013059Y914665D01*
X1013284Y915793D01*
X1013359Y916940D01*
X1013284Y918087D01*
X1013059Y919215D01*
X1012690Y920303D01*
X1012181Y921334D01*
X1011543Y922290D01*
X1010785Y923155D01*
X1009920Y923913D01*
X1008964Y924551D01*
X1007933Y925060D01*
X1006845Y925429D01*
X1005717Y925654D01*
X1004570Y925729D01*
D02*
G37*
G36*
X968390Y868060D02*
X951850D01*
Y851520D01*
X968390D01*
Y868060D01*
D02*
G37*
G36*
X1223010Y468529D02*
X1221863Y468454D01*
X1220735Y468229D01*
X1219647Y467860D01*
X1218616Y467351D01*
X1217660Y466713D01*
X1216795Y465955D01*
X1216037Y465090D01*
X1215399Y464134D01*
X1214890Y463103D01*
X1214521Y462015D01*
X1214296Y460887D01*
X1214221Y459740D01*
X1214296Y458593D01*
X1214521Y457465D01*
X1214890Y456377D01*
X1215399Y455346D01*
X1216037Y454390D01*
X1216795Y453525D01*
X1217660Y452767D01*
X1218616Y452129D01*
X1219647Y451620D01*
X1220735Y451251D01*
X1221863Y451026D01*
X1223010Y450951D01*
X1224157Y451026D01*
X1225285Y451251D01*
X1226373Y451620D01*
X1227404Y452129D01*
X1228360Y452767D01*
X1229225Y453525D01*
X1229983Y454390D01*
X1230621Y455346D01*
X1231130Y456377D01*
X1231499Y457465D01*
X1231724Y458593D01*
X1231799Y459740D01*
X1231724Y460887D01*
X1231499Y462015D01*
X1231130Y463103D01*
X1230621Y464134D01*
X1229983Y465090D01*
X1229225Y465955D01*
X1228360Y466713D01*
X1227404Y467351D01*
X1226373Y467860D01*
X1225285Y468229D01*
X1224157Y468454D01*
X1223010Y468529D01*
D02*
G37*
G36*
X1035050Y868078D02*
X1033968Y868007D01*
X1032905Y867795D01*
X1031878Y867447D01*
X1030906Y866967D01*
X1030005Y866365D01*
X1029190Y865650D01*
X1028475Y864835D01*
X1027873Y863934D01*
X1027393Y862962D01*
X1027045Y861935D01*
X1026833Y860872D01*
X1026762Y859790D01*
X1026833Y858708D01*
X1027045Y857645D01*
X1027393Y856618D01*
X1027873Y855646D01*
X1028475Y854745D01*
X1029190Y853930D01*
X1030005Y853215D01*
X1030906Y852613D01*
X1031878Y852133D01*
X1032905Y851785D01*
X1033968Y851573D01*
X1035050Y851502D01*
X1036132Y851573D01*
X1037195Y851785D01*
X1038222Y852133D01*
X1039194Y852613D01*
X1040095Y853215D01*
X1040910Y853930D01*
X1041625Y854745D01*
X1042227Y855646D01*
X1042707Y856618D01*
X1043055Y857645D01*
X1043267Y858708D01*
X1043338Y859790D01*
X1043267Y860872D01*
X1043055Y861935D01*
X1042707Y862962D01*
X1042227Y863934D01*
X1041625Y864835D01*
X1040910Y865650D01*
X1040095Y866365D01*
X1039194Y866967D01*
X1038222Y867447D01*
X1037195Y867795D01*
X1036132Y868007D01*
X1035050Y868078D01*
D02*
G37*
G36*
X848360Y905562D02*
X848120Y905546D01*
X846637Y905251D01*
X845204Y904764D01*
X843848Y904095D01*
X842590Y903255D01*
X841452Y902258D01*
X840455Y901120D01*
X839615Y899862D01*
X838946Y898506D01*
X838459Y897073D01*
X838164Y895590D01*
X838148Y895350D01*
X848360D01*
Y905562D01*
D02*
G37*
G36*
X861112Y892810D02*
X850900D01*
Y882598D01*
X851140Y882614D01*
X852623Y882909D01*
X854056Y883396D01*
X855412Y884065D01*
X856670Y884905D01*
X857807Y885902D01*
X858805Y887040D01*
X859645Y888298D01*
X860314Y889654D01*
X860801Y891087D01*
X861096Y892570D01*
X861112Y892810D01*
D02*
G37*
G36*
X848360D02*
X838148D01*
X838164Y892570D01*
X838459Y891087D01*
X838946Y889654D01*
X839615Y888298D01*
X840455Y887040D01*
X841452Y885902D01*
X842590Y884905D01*
X843848Y884065D01*
X845204Y883396D01*
X846637Y882909D01*
X848120Y882614D01*
X848360Y882598D01*
Y892810D01*
D02*
G37*
G36*
X1029970Y951129D02*
X1028823Y951054D01*
X1027695Y950829D01*
X1026607Y950460D01*
X1025576Y949951D01*
X1024620Y949313D01*
X1023755Y948555D01*
X1022997Y947690D01*
X1022359Y946734D01*
X1021850Y945703D01*
X1021481Y944615D01*
X1021256Y943487D01*
X1021181Y942340D01*
X1021256Y941193D01*
X1021481Y940065D01*
X1021850Y938977D01*
X1022359Y937946D01*
X1022997Y936990D01*
X1023755Y936125D01*
X1024620Y935367D01*
X1025576Y934729D01*
X1026607Y934220D01*
X1027695Y933851D01*
X1028823Y933626D01*
X1029970Y933551D01*
X1031117Y933626D01*
X1032245Y933851D01*
X1033333Y934220D01*
X1034364Y934729D01*
X1035320Y935367D01*
X1036185Y936125D01*
X1036943Y936990D01*
X1037581Y937946D01*
X1038090Y938977D01*
X1038459Y940065D01*
X1038684Y941193D01*
X1038759Y942340D01*
X1038684Y943487D01*
X1038459Y944615D01*
X1038090Y945703D01*
X1037581Y946734D01*
X1036943Y947690D01*
X1036185Y948555D01*
X1035320Y949313D01*
X1034364Y949951D01*
X1033333Y950460D01*
X1032245Y950829D01*
X1031117Y951054D01*
X1029970Y951129D01*
D02*
G37*
G36*
X1004570D02*
X1003423Y951054D01*
X1002295Y950829D01*
X1001207Y950460D01*
X1000176Y949951D01*
X999220Y949313D01*
X998355Y948555D01*
X997597Y947690D01*
X996959Y946734D01*
X996450Y945703D01*
X996081Y944615D01*
X995856Y943487D01*
X995781Y942340D01*
X995856Y941193D01*
X996081Y940065D01*
X996450Y938977D01*
X996959Y937946D01*
X997597Y936990D01*
X998355Y936125D01*
X999220Y935367D01*
X1000176Y934729D01*
X1001207Y934220D01*
X1002295Y933851D01*
X1003423Y933626D01*
X1004570Y933551D01*
X1005717Y933626D01*
X1006845Y933851D01*
X1007933Y934220D01*
X1008964Y934729D01*
X1009920Y935367D01*
X1010785Y936125D01*
X1011543Y936990D01*
X1012181Y937946D01*
X1012690Y938977D01*
X1013059Y940065D01*
X1013284Y941193D01*
X1013359Y942340D01*
X1013284Y943487D01*
X1013059Y944615D01*
X1012690Y945703D01*
X1012181Y946734D01*
X1011543Y947690D01*
X1010785Y948555D01*
X1009920Y949313D01*
X1008964Y949951D01*
X1007933Y950460D01*
X1006845Y950829D01*
X1005717Y951054D01*
X1004570Y951129D01*
D02*
G37*
G36*
X979170D02*
X978023Y951054D01*
X976895Y950829D01*
X975807Y950460D01*
X974776Y949951D01*
X973820Y949313D01*
X972955Y948555D01*
X972197Y947690D01*
X971559Y946734D01*
X971050Y945703D01*
X970681Y944615D01*
X970456Y943487D01*
X970381Y942340D01*
X970456Y941193D01*
X970681Y940065D01*
X971050Y938977D01*
X971559Y937946D01*
X972197Y936990D01*
X972955Y936125D01*
X973820Y935367D01*
X974776Y934729D01*
X975807Y934220D01*
X976895Y933851D01*
X978023Y933626D01*
X979170Y933551D01*
X980317Y933626D01*
X981445Y933851D01*
X982533Y934220D01*
X983564Y934729D01*
X984520Y935367D01*
X985385Y936125D01*
X986143Y936990D01*
X986781Y937946D01*
X987290Y938977D01*
X987659Y940065D01*
X987884Y941193D01*
X987959Y942340D01*
X987884Y943487D01*
X987659Y944615D01*
X987290Y945703D01*
X986781Y946734D01*
X986143Y947690D01*
X985385Y948555D01*
X984520Y949313D01*
X983564Y949951D01*
X982533Y950460D01*
X981445Y950829D01*
X980317Y951054D01*
X979170Y951129D01*
D02*
G37*
G36*
X1276470Y962307D02*
X1125100D01*
X1124254Y962224D01*
X1123440Y961977D01*
X1122690Y961576D01*
X1122032Y961036D01*
X1115040Y954044D01*
X1114500Y953387D01*
X1114099Y952636D01*
X1113852Y951823D01*
X1113769Y950976D01*
Y948902D01*
X1112499Y948424D01*
X1112385Y948555D01*
X1111520Y949313D01*
X1110564Y949951D01*
X1109533Y950460D01*
X1108445Y950829D01*
X1107317Y951054D01*
X1106170Y951129D01*
X1105023Y951054D01*
X1103895Y950829D01*
X1102807Y950460D01*
X1101776Y949951D01*
X1100820Y949313D01*
X1099955Y948555D01*
X1099197Y947690D01*
X1098559Y946734D01*
X1098050Y945703D01*
X1097681Y944615D01*
X1097456Y943487D01*
X1097381Y942340D01*
X1097456Y941193D01*
X1097681Y940065D01*
X1098050Y938977D01*
X1098559Y937946D01*
X1099197Y936990D01*
X1099955Y936125D01*
X1100820Y935367D01*
X1101776Y934729D01*
X1102807Y934220D01*
X1103895Y933851D01*
X1105023Y933626D01*
X1106170Y933551D01*
X1107317Y933626D01*
X1108445Y933851D01*
X1109533Y934220D01*
X1110564Y934729D01*
X1111520Y935367D01*
X1112385Y936125D01*
X1112499Y936256D01*
X1113769Y935778D01*
Y923502D01*
X1112499Y923024D01*
X1112385Y923155D01*
X1111520Y923913D01*
X1110564Y924551D01*
X1109533Y925060D01*
X1108445Y925429D01*
X1107317Y925654D01*
X1106170Y925729D01*
X1105023Y925654D01*
X1103895Y925429D01*
X1102807Y925060D01*
X1101776Y924551D01*
X1100820Y923913D01*
X1099955Y923155D01*
X1099197Y922290D01*
X1098559Y921334D01*
X1098050Y920303D01*
X1097681Y919215D01*
X1097456Y918087D01*
X1097381Y916940D01*
X1097456Y915793D01*
X1097681Y914665D01*
X1098050Y913577D01*
X1098559Y912546D01*
X1099197Y911590D01*
X1099955Y910725D01*
X1100820Y909967D01*
X1101776Y909329D01*
X1102807Y908820D01*
X1103895Y908451D01*
X1105023Y908226D01*
X1106170Y908151D01*
X1107317Y908226D01*
X1108445Y908451D01*
X1109533Y908820D01*
X1110564Y909329D01*
X1111520Y909967D01*
X1112385Y910725D01*
X1112499Y910856D01*
X1113769Y910378D01*
Y906799D01*
X1096752Y889782D01*
X1096212Y889125D01*
X1095811Y888374D01*
X1095564Y887561D01*
X1095481Y886714D01*
Y879369D01*
X933450D01*
X932604Y879286D01*
X931790Y879039D01*
X931039Y878638D01*
X930382Y878098D01*
X929741Y877457D01*
X929566Y877499D01*
X928370Y877594D01*
X927174Y877499D01*
X926008Y877219D01*
X924900Y876760D01*
X923877Y876134D01*
X922965Y875355D01*
X922186Y874443D01*
X921560Y873420D01*
X921100Y872312D01*
X920820Y871146D01*
X920726Y869950D01*
X920820Y868754D01*
X921100Y867588D01*
X921560Y866480D01*
X922186Y865457D01*
X922965Y864545D01*
X923877Y863766D01*
X924900Y863139D01*
X926008Y862681D01*
X927174Y862401D01*
X928370Y862306D01*
X929566Y862401D01*
X930732Y862681D01*
X931840Y863139D01*
X932863Y863766D01*
X933775Y864545D01*
X934554Y865457D01*
X935181Y866480D01*
X935639Y867588D01*
X935919Y868754D01*
X936014Y869950D01*
X936699Y870691D01*
X1095481D01*
Y860317D01*
X1091031Y855867D01*
X1090856Y855910D01*
X1089660Y856004D01*
X1088464Y855910D01*
X1087298Y855630D01*
X1086190Y855171D01*
X1085167Y854544D01*
X1084255Y853765D01*
X1083476Y852853D01*
X1082850Y851830D01*
X1082391Y850722D01*
X1082111Y849556D01*
X1082016Y848360D01*
X1082111Y847164D01*
X1082391Y845998D01*
X1082850Y844890D01*
X1083476Y843867D01*
X1084255Y842955D01*
X1085167Y842176D01*
X1086190Y841550D01*
X1087298Y841090D01*
X1088464Y840810D01*
X1089660Y840716D01*
X1090856Y840810D01*
X1092022Y841090D01*
X1093130Y841550D01*
X1094153Y842176D01*
X1094211Y842226D01*
X1095481Y841640D01*
Y812290D01*
X1090550D01*
Y777750D01*
X1093593D01*
X1094168Y776480D01*
X1094022Y776313D01*
X1093374Y775345D01*
X1092859Y774299D01*
X1092485Y773196D01*
X1092279Y772160D01*
X1101090D01*
Y769620D01*
X1092279D01*
X1092485Y768584D01*
X1092859Y767481D01*
X1093374Y766435D01*
X1094022Y765467D01*
X1094790Y764590D01*
X1095429Y764030D01*
X1095235Y763165D01*
X1094970Y762760D01*
X1089280D01*
Y745490D01*
X1099820D01*
Y744220D01*
X1101090D01*
Y725680D01*
X1109959D01*
Y702839D01*
X1086478D01*
X1085209Y704108D01*
X1084551Y704648D01*
X1083801Y705049D01*
X1082987Y705295D01*
X1082141Y705379D01*
X1073303D01*
X1072457Y705295D01*
X1071643Y705049D01*
X1070893Y704648D01*
X1070235Y704108D01*
X1068966Y702839D01*
X981983D01*
X975889Y708933D01*
Y724330D01*
X977210D01*
Y723060D01*
X982980D01*
Y729600D01*
X985520D01*
Y723060D01*
X991290D01*
Y729460D01*
X992560Y729891D01*
X992639Y729788D01*
X1003880Y718547D01*
Y711630D01*
X1015420D01*
Y721170D01*
X1008503D01*
X1004313Y725360D01*
X1004839Y726630D01*
X1015420D01*
Y728838D01*
X1016896D01*
X1017559Y728925D01*
X1018177Y729181D01*
X1018708Y729589D01*
X1024990Y735871D01*
X1025020Y735910D01*
X1028580D01*
Y742950D01*
X1029850D01*
Y744220D01*
X1035890D01*
Y749880D01*
X1039670D01*
Y761108D01*
X1041038D01*
X1041860Y759935D01*
Y756920D01*
X1047130D01*
Y762690D01*
X1045340D01*
X1044854Y763863D01*
X1059722Y778730D01*
X1060129Y779261D01*
X1060385Y779879D01*
X1060472Y780542D01*
Y786563D01*
X1061380Y786939D01*
X1062403Y787566D01*
X1063315Y788345D01*
X1064094Y789257D01*
X1064721Y790280D01*
X1065180Y791388D01*
X1065460Y792554D01*
X1065554Y793750D01*
X1065460Y794946D01*
X1065180Y796112D01*
X1064721Y797220D01*
X1064094Y798243D01*
X1063315Y799155D01*
X1062403Y799934D01*
X1061380Y800561D01*
X1060272Y801020D01*
X1059106Y801300D01*
X1057910Y801394D01*
X1056714Y801300D01*
X1055548Y801020D01*
X1054440Y800561D01*
X1053417Y799934D01*
X1052852Y799451D01*
X1051718Y799876D01*
X1051582Y800001D01*
Y818642D01*
X1051495Y819305D01*
X1051239Y819923D01*
X1050832Y820454D01*
X1027464Y843822D01*
X1026933Y844229D01*
X1026315Y844485D01*
X1025652Y844572D01*
X935990D01*
X935327Y844485D01*
X934709Y844229D01*
X934178Y843822D01*
X911318Y820962D01*
X910911Y820431D01*
X910655Y819813D01*
X910568Y819150D01*
Y787400D01*
X910655Y786737D01*
X910911Y786119D01*
X911318Y785588D01*
X918938Y777968D01*
X919469Y777561D01*
X920087Y777305D01*
X920750Y777218D01*
X937690D01*
Y772740D01*
X941162D01*
Y769914D01*
X928071Y756822D01*
X904464D01*
X903978Y757995D01*
X905544Y759561D01*
X905951Y760091D01*
X906207Y760709D01*
X906294Y761372D01*
Y814458D01*
X906207Y815121D01*
X905951Y815739D01*
X905544Y816270D01*
X902390Y819423D01*
Y826340D01*
X899182D01*
Y870500D01*
X902390D01*
Y880040D01*
X890850D01*
Y870500D01*
X894058D01*
Y826340D01*
X890850D01*
Y816800D01*
X897767D01*
X901170Y813397D01*
Y811340D01*
X890850D01*
Y809132D01*
X875658D01*
X874995Y809044D01*
X874377Y808789D01*
X873846Y808381D01*
X869397Y803932D01*
X859900D01*
Y808017D01*
X865158Y813274D01*
X865565Y813805D01*
X865821Y814423D01*
X865908Y815086D01*
Y873715D01*
X873805Y881612D01*
X1058164D01*
X1058827Y881699D01*
X1059445Y881955D01*
X1059976Y882362D01*
X1069882Y892268D01*
X1070289Y892799D01*
X1070545Y893417D01*
X1070632Y894080D01*
Y928579D01*
X1076648Y934594D01*
X1077407Y934220D01*
X1078495Y933851D01*
X1079623Y933626D01*
X1080770Y933551D01*
X1081917Y933626D01*
X1083045Y933851D01*
X1084133Y934220D01*
X1085164Y934729D01*
X1086120Y935367D01*
X1086985Y936125D01*
X1087743Y936990D01*
X1088381Y937946D01*
X1088890Y938977D01*
X1089259Y940065D01*
X1089484Y941193D01*
X1089559Y942340D01*
X1089484Y943487D01*
X1089259Y944615D01*
X1088890Y945703D01*
X1088381Y946734D01*
X1087743Y947690D01*
X1086985Y948555D01*
X1086120Y949313D01*
X1085164Y949951D01*
X1084133Y950460D01*
X1083045Y950829D01*
X1081917Y951054D01*
X1080770Y951129D01*
X1079623Y951054D01*
X1078495Y950829D01*
X1077407Y950460D01*
X1076376Y949951D01*
X1075420Y949313D01*
X1074555Y948555D01*
X1073797Y947690D01*
X1073159Y946734D01*
X1072650Y945703D01*
X1072281Y944615D01*
X1072056Y943487D01*
X1071981Y942340D01*
X1072056Y941193D01*
X1072281Y940065D01*
X1072650Y938977D01*
X1073025Y938218D01*
X1066258Y931452D01*
X1065851Y930921D01*
X1065595Y930303D01*
X1065508Y929640D01*
Y895141D01*
X1057103Y886736D01*
X902390D01*
Y895040D01*
X890850D01*
Y892832D01*
X871220D01*
X870557Y892745D01*
X869939Y892489D01*
X869408Y892082D01*
X856277Y878950D01*
X839360D01*
Y858410D01*
X859900D01*
X860784Y857506D01*
Y833114D01*
X860136Y832794D01*
X859514Y832749D01*
X858805Y833810D01*
X857807Y834948D01*
X856670Y835945D01*
X855412Y836785D01*
X854056Y837454D01*
X852623Y837941D01*
X851140Y838236D01*
X850900Y838251D01*
Y826770D01*
Y815288D01*
X851140Y815304D01*
X852623Y815599D01*
X854056Y816086D01*
X855412Y816755D01*
X856670Y817595D01*
X857807Y818593D01*
X858805Y819730D01*
X859514Y820791D01*
X860136Y820746D01*
X860784Y820426D01*
Y816147D01*
X856277Y811640D01*
X839360D01*
Y791100D01*
X859900D01*
Y798808D01*
X870458D01*
X871121Y798895D01*
X871739Y799151D01*
X872270Y799558D01*
X876719Y804008D01*
X890850D01*
Y801800D01*
X901170D01*
Y762433D01*
X897767Y759030D01*
X890850D01*
Y749490D01*
X902390D01*
Y751698D01*
X906601D01*
X924030Y734269D01*
Y657143D01*
X906238Y639352D01*
X905831Y638821D01*
X905575Y638203D01*
X905488Y637540D01*
Y577850D01*
X905575Y577187D01*
X905831Y576569D01*
X906238Y576038D01*
X940108Y542169D01*
X939987Y541512D01*
X939627Y540899D01*
X932821D01*
X900959Y572761D01*
Y642855D01*
X906545Y648441D01*
X906780D01*
X907626Y648524D01*
X908440Y648771D01*
X909191Y649172D01*
X909848Y649712D01*
X913029Y652893D01*
X913204Y652850D01*
X914400Y652756D01*
X915596Y652850D01*
X916762Y653130D01*
X917870Y653589D01*
X918893Y654216D01*
X919805Y654995D01*
X920584Y655907D01*
X921210Y656930D01*
X921669Y658038D01*
X921949Y659204D01*
X922044Y660400D01*
X921949Y661596D01*
X921669Y662762D01*
X921210Y663870D01*
X920584Y664893D01*
X919805Y665805D01*
X918893Y666584D01*
X917870Y667210D01*
X916762Y667670D01*
X915596Y667950D01*
X914400Y668044D01*
X913204Y667950D01*
X912038Y667670D01*
X910930Y667210D01*
X909907Y666584D01*
X908995Y665805D01*
X908216Y664893D01*
X907589Y663870D01*
X907131Y662762D01*
X906851Y661596D01*
X906756Y660400D01*
X906851Y659204D01*
X906893Y659029D01*
X904983Y657119D01*
X886733D01*
X880490Y663362D01*
Y685290D01*
X875559D01*
Y688340D01*
X875475Y689186D01*
X875229Y690000D01*
X875098Y690245D01*
X875229Y690490D01*
X875475Y691303D01*
X875559Y692150D01*
X875475Y692997D01*
X875229Y693810D01*
X874828Y694561D01*
X874288Y695218D01*
X865398Y704108D01*
X864741Y704648D01*
X863990Y705049D01*
X863176Y705295D01*
X862330Y705379D01*
X800881D01*
X771419Y734841D01*
Y738530D01*
X777850D01*
Y760070D01*
X762446D01*
X757703Y764813D01*
Y841635D01*
X758771Y842052D01*
X758973Y842054D01*
X759823Y841103D01*
X760831Y840202D01*
X761934Y839419D01*
X763118Y838765D01*
X764367Y838248D01*
X765667Y837873D01*
X767000Y837647D01*
X767080Y837642D01*
Y849630D01*
Y861618D01*
X767000Y861613D01*
X765667Y861387D01*
X764367Y861012D01*
X763118Y860495D01*
X761934Y859841D01*
X760831Y859058D01*
X759823Y858157D01*
X758973Y857206D01*
X758771Y857208D01*
X757703Y857625D01*
Y883647D01*
X763716Y889660D01*
X779120D01*
Y911200D01*
X757580D01*
Y895796D01*
X750296Y888512D01*
X749756Y887855D01*
X749355Y887104D01*
X749109Y886291D01*
X749025Y885444D01*
Y763016D01*
X749109Y762169D01*
X749355Y761356D01*
X749756Y760605D01*
X750296Y759948D01*
X756310Y753934D01*
Y738530D01*
X762741D01*
Y733044D01*
X762824Y732197D01*
X763071Y731384D01*
X763472Y730633D01*
X764012Y729976D01*
X796016Y697972D01*
X796673Y697432D01*
X797424Y697031D01*
X798238Y696785D01*
X799084Y696701D01*
X860533D01*
X867219Y690015D01*
X867211Y690000D01*
X866964Y689186D01*
X866881Y688340D01*
Y685290D01*
X861950D01*
Y650750D01*
X880490D01*
X880490Y650750D01*
Y650750D01*
X881472Y650107D01*
X881868Y649712D01*
X882525Y649172D01*
X883276Y648771D01*
X884090Y648524D01*
X884936Y648441D01*
X892501D01*
X893101Y647171D01*
X893012Y647063D01*
X892611Y646312D01*
X892365Y645499D01*
X892281Y644652D01*
Y570963D01*
X892365Y570117D01*
X892611Y569303D01*
X893012Y568553D01*
X893552Y567895D01*
X927956Y533492D01*
X928613Y532952D01*
X929363Y532551D01*
X930177Y532304D01*
X931024Y532221D01*
X968320D01*
Y531290D01*
X969751D01*
Y457200D01*
X969835Y456353D01*
X970081Y455540D01*
X970482Y454789D01*
X971022Y454132D01*
X980420Y444734D01*
X981077Y444194D01*
X981828Y443793D01*
X982642Y443546D01*
X983488Y443463D01*
X1187704D01*
X1188550Y443546D01*
X1189364Y443793D01*
X1190115Y444194D01*
X1190772Y444734D01*
X1194328Y448290D01*
X1194868Y448947D01*
X1195269Y449698D01*
X1195516Y450512D01*
X1195599Y451358D01*
Y522062D01*
X1204826Y531290D01*
X1209620D01*
Y530020D01*
X1215390D01*
Y536560D01*
Y543100D01*
X1209620D01*
Y541830D01*
X1198190D01*
Y536926D01*
X1188192Y526928D01*
X1187652Y526270D01*
X1187251Y525520D01*
X1187004Y524706D01*
X1186921Y523860D01*
Y453155D01*
X1185907Y452141D01*
X1180980D01*
Y468510D01*
X1163440D01*
Y452141D01*
X1155189D01*
X1154613Y453411D01*
X1154792Y453615D01*
X1155524Y454709D01*
X1156106Y455890D01*
X1156529Y457136D01*
X1156785Y458427D01*
X1156788Y458470D01*
X1146810D01*
X1136832D01*
X1136835Y458427D01*
X1137091Y457136D01*
X1137514Y455890D01*
X1138096Y454709D01*
X1138828Y453615D01*
X1139007Y453411D01*
X1138431Y452141D01*
X1129789D01*
X1129213Y453411D01*
X1129392Y453615D01*
X1130124Y454709D01*
X1130706Y455890D01*
X1131129Y457136D01*
X1131385Y458427D01*
X1131388Y458470D01*
X1121410D01*
Y459740D01*
X1120140D01*
Y469718D01*
X1120097Y469715D01*
X1118806Y469459D01*
X1117560Y469036D01*
X1116379Y468453D01*
X1115285Y467722D01*
X1114319Y466875D01*
X1114226Y466883D01*
X1113049Y467359D01*
Y479582D01*
X1114319Y479967D01*
X1114437Y479790D01*
X1115195Y478925D01*
X1116060Y478167D01*
X1117016Y477529D01*
X1118047Y477020D01*
X1119135Y476651D01*
X1120263Y476426D01*
X1121410Y476351D01*
X1122557Y476426D01*
X1123685Y476651D01*
X1124773Y477020D01*
X1125804Y477529D01*
X1126760Y478167D01*
X1127625Y478925D01*
X1128383Y479790D01*
X1129021Y480746D01*
X1129530Y481777D01*
X1129899Y482865D01*
X1130124Y483993D01*
X1130199Y485140D01*
X1130124Y486287D01*
X1129899Y487415D01*
X1129530Y488503D01*
X1129021Y489534D01*
X1128383Y490490D01*
X1127625Y491355D01*
X1126760Y492113D01*
X1125804Y492751D01*
X1124773Y493260D01*
X1123685Y493629D01*
X1122557Y493854D01*
X1121410Y493929D01*
X1120263Y493854D01*
X1119135Y493629D01*
X1118047Y493260D01*
X1117016Y492751D01*
X1116060Y492113D01*
X1115195Y491355D01*
X1114437Y490490D01*
X1114319Y490313D01*
X1113049Y490698D01*
Y509759D01*
X1119906Y516616D01*
X1120446Y517273D01*
X1120847Y518024D01*
X1121094Y518838D01*
X1121177Y519684D01*
Y588010D01*
X1121094Y588857D01*
X1120847Y589670D01*
X1120446Y590421D01*
X1119906Y591078D01*
X1111630Y599354D01*
Y603991D01*
X1113862D01*
X1113956Y603837D01*
X1114735Y602925D01*
X1115647Y602146D01*
X1116670Y601520D01*
X1117778Y601060D01*
X1118944Y600780D01*
X1120140Y600686D01*
X1121336Y600780D01*
X1122502Y601060D01*
X1123610Y601520D01*
X1124633Y602146D01*
X1125545Y602925D01*
X1126324Y603837D01*
X1126951Y604860D01*
X1127410Y605968D01*
X1127690Y607134D01*
X1127784Y608330D01*
X1127690Y609526D01*
X1127410Y610692D01*
X1126951Y611800D01*
X1126324Y612823D01*
X1125545Y613735D01*
X1124633Y614514D01*
X1123610Y615140D01*
X1122502Y615600D01*
X1121336Y615880D01*
X1120140Y615974D01*
X1118944Y615880D01*
X1117778Y615600D01*
X1116670Y615140D01*
X1115647Y614514D01*
X1114735Y613735D01*
X1113956Y612823D01*
X1113862Y612669D01*
X1111630D01*
Y620520D01*
X1106699D01*
Y681971D01*
X1117366Y692638D01*
X1117906Y693295D01*
X1118307Y694046D01*
X1118553Y694859D01*
X1118637Y695706D01*
Y699770D01*
Y779780D01*
X1118553Y780627D01*
X1118307Y781440D01*
X1117906Y782191D01*
X1117366Y782848D01*
X1109090Y791124D01*
Y812290D01*
X1104159D01*
Y858520D01*
X1104096Y859155D01*
X1104159Y859790D01*
Y875030D01*
Y884917D01*
X1121176Y901934D01*
X1121716Y902591D01*
X1122117Y903342D01*
X1122364Y904156D01*
X1122447Y905002D01*
Y907046D01*
X1122800Y908170D01*
X1123717Y908170D01*
X1140340D01*
Y925710D01*
X1123717D01*
X1122800Y925710D01*
X1122447Y926834D01*
Y932446D01*
X1122800Y933570D01*
X1136717D01*
X1144248Y926039D01*
Y795361D01*
X1139918Y791031D01*
X1134838Y785951D01*
X1134431Y785421D01*
X1134175Y784803D01*
X1134088Y784140D01*
Y605790D01*
X1134175Y605127D01*
X1134431Y604509D01*
X1134838Y603978D01*
X1161000Y577816D01*
X1161531Y577409D01*
X1162149Y577153D01*
X1162812Y577066D01*
X1184106D01*
X1184220Y576966D01*
Y568150D01*
X1193438D01*
X1193923Y566977D01*
X1191637Y564690D01*
X1184220D01*
Y554150D01*
X1195760D01*
Y561567D01*
X1202261Y568068D01*
X1204360D01*
X1204679Y568110D01*
X1209340D01*
Y563449D01*
X1209298Y563130D01*
Y559521D01*
X1205607Y555830D01*
X1198190D01*
Y545290D01*
X1209620D01*
X1209730Y545290D01*
Y545290D01*
X1210890Y545290D01*
Y545290D01*
X1222430D01*
Y555830D01*
X1223010Y556860D01*
X1224298D01*
Y544123D01*
X1223700Y543100D01*
X1217930D01*
Y536560D01*
Y530020D01*
X1223700D01*
Y536419D01*
X1224970Y536851D01*
X1225049Y536748D01*
X1236290Y525507D01*
Y518590D01*
X1238482D01*
Y513887D01*
X1233898Y509304D01*
X1233491Y508773D01*
X1233235Y508155D01*
X1233148Y507492D01*
Y455213D01*
X1227537Y449602D01*
X1207381D01*
X1206994Y450074D01*
X1206344Y450607D01*
X1205602Y451004D01*
X1204797Y451248D01*
X1203960Y451331D01*
X1203123Y451248D01*
X1202318Y451004D01*
X1201576Y450607D01*
X1200926Y450074D01*
X1200393Y449424D01*
X1199996Y448682D01*
X1199752Y447877D01*
X1199669Y447040D01*
X1199752Y446203D01*
X1199996Y445398D01*
X1200393Y444656D01*
X1200926Y444006D01*
X1201576Y443473D01*
X1202318Y443076D01*
X1203123Y442832D01*
X1203960Y442749D01*
X1204797Y442832D01*
X1205602Y443076D01*
X1206344Y443473D01*
X1206994Y444006D01*
X1207381Y444478D01*
X1228598D01*
X1229261Y444565D01*
X1229879Y444821D01*
X1230410Y445228D01*
X1237522Y452340D01*
X1237929Y452871D01*
X1238185Y453489D01*
X1238272Y454152D01*
Y506431D01*
X1242856Y511014D01*
X1243263Y511545D01*
X1243519Y512163D01*
X1243606Y512826D01*
Y518590D01*
X1247830D01*
Y528130D01*
X1240913D01*
X1236723Y532320D01*
X1237249Y533590D01*
X1247830D01*
Y535822D01*
X1248311Y535886D01*
X1248929Y536141D01*
X1249460Y536549D01*
X1255198Y542287D01*
X1256220Y542870D01*
Y542870D01*
X1256220Y542870D01*
X1260990D01*
Y549910D01*
X1262260D01*
Y551180D01*
X1268300D01*
Y556840D01*
X1272080D01*
Y568068D01*
X1274270D01*
Y563880D01*
X1280810D01*
X1287350D01*
Y568068D01*
X1351680D01*
X1352343Y568155D01*
X1352961Y568411D01*
X1353491Y568818D01*
X1361982Y577308D01*
X1362389Y577839D01*
X1362645Y578457D01*
X1362732Y579120D01*
Y853440D01*
X1362645Y854103D01*
X1362389Y854721D01*
X1361982Y855252D01*
X1339872Y877361D01*
Y929640D01*
X1339785Y930303D01*
X1339529Y930921D01*
X1339122Y931452D01*
X1332355Y938218D01*
X1332730Y938977D01*
X1333099Y940065D01*
X1333324Y941193D01*
X1333399Y942340D01*
X1333324Y943487D01*
X1333099Y944615D01*
X1332730Y945703D01*
X1332221Y946734D01*
X1331583Y947690D01*
X1330825Y948555D01*
X1329960Y949313D01*
X1329004Y949951D01*
X1327973Y950460D01*
X1326885Y950829D01*
X1325757Y951054D01*
X1324610Y951129D01*
X1323463Y951054D01*
X1322335Y950829D01*
X1321247Y950460D01*
X1320216Y949951D01*
X1319260Y949313D01*
X1318395Y948555D01*
X1317637Y947690D01*
X1316999Y946734D01*
X1316490Y945703D01*
X1316121Y944615D01*
X1315896Y943487D01*
X1315821Y942340D01*
X1315896Y941193D01*
X1316121Y940065D01*
X1316490Y938977D01*
X1316999Y937946D01*
X1317637Y936990D01*
X1318395Y936125D01*
X1319260Y935367D01*
X1320216Y934729D01*
X1321247Y934220D01*
X1322335Y933851D01*
X1323463Y933626D01*
X1324610Y933551D01*
X1325757Y933626D01*
X1326885Y933851D01*
X1327973Y934220D01*
X1328732Y934594D01*
X1334748Y928579D01*
Y876300D01*
X1334835Y875637D01*
X1335091Y875019D01*
X1335498Y874488D01*
X1357608Y852379D01*
Y580181D01*
X1350619Y573192D01*
X1265861D01*
X1265335Y574462D01*
X1290862Y599988D01*
X1291269Y600518D01*
X1291525Y601136D01*
X1291612Y601800D01*
Y633730D01*
X1291525Y634393D01*
X1291269Y635011D01*
X1290862Y635542D01*
X1274921Y651483D01*
X1274390Y651890D01*
X1273772Y652146D01*
X1273109Y652233D01*
X1184000D01*
X1179852Y656381D01*
Y718013D01*
X1194477Y732638D01*
X1195650Y732151D01*
Y724330D01*
X1197081D01*
Y687421D01*
X1197165Y686574D01*
X1197411Y685760D01*
X1197812Y685010D01*
X1198352Y684353D01*
X1202083Y680621D01*
X1202741Y680082D01*
X1203491Y679681D01*
X1204305Y679434D01*
X1205151Y679351D01*
X1289791D01*
Y666678D01*
X1289637Y666584D01*
X1288725Y665805D01*
X1287946Y664893D01*
X1287319Y663870D01*
X1286861Y662762D01*
X1286581Y661596D01*
X1286486Y660400D01*
X1286581Y659204D01*
X1286861Y658038D01*
X1287319Y656930D01*
X1287946Y655907D01*
X1288725Y654995D01*
X1289637Y654216D01*
X1290660Y653589D01*
X1291768Y653130D01*
X1292934Y652850D01*
X1294130Y652756D01*
X1295326Y652850D01*
X1296492Y653130D01*
X1297600Y653589D01*
X1298623Y654216D01*
X1299535Y654995D01*
X1300314Y655907D01*
X1300941Y656930D01*
X1301400Y658038D01*
X1301680Y659204D01*
X1301774Y660400D01*
X1301680Y661596D01*
X1301400Y662762D01*
X1300941Y663870D01*
X1300314Y664893D01*
X1299535Y665805D01*
X1298623Y666584D01*
X1298469Y666678D01*
Y679351D01*
X1331273D01*
X1331701Y678923D01*
Y615440D01*
X1326770D01*
Y580900D01*
X1345310D01*
Y615440D01*
X1340379D01*
Y678923D01*
X1354856Y693400D01*
X1355396Y694057D01*
X1355797Y694808D01*
X1356044Y695621D01*
X1356127Y696468D01*
Y778510D01*
X1356044Y779357D01*
X1355797Y780170D01*
X1355396Y780921D01*
X1354856Y781578D01*
X1346580Y789854D01*
Y811020D01*
X1341649D01*
Y855726D01*
X1341566Y856572D01*
X1341319Y857386D01*
X1340918Y858137D01*
X1340378Y858794D01*
X1327932Y871240D01*
X1327275Y871780D01*
X1326524Y872181D01*
X1325710Y872428D01*
X1324864Y872511D01*
X1297451D01*
X1290341Y879621D01*
Y912225D01*
X1291599Y912546D01*
X1292237Y911590D01*
X1292995Y910725D01*
X1293860Y909967D01*
X1294816Y909329D01*
X1295847Y908820D01*
X1296935Y908451D01*
X1298063Y908226D01*
X1299210Y908151D01*
X1300357Y908226D01*
X1301485Y908451D01*
X1302573Y908820D01*
X1303604Y909329D01*
X1304560Y909967D01*
X1305425Y910725D01*
X1306183Y911590D01*
X1306821Y912546D01*
X1307330Y913577D01*
X1307699Y914665D01*
X1307924Y915793D01*
X1307999Y916940D01*
X1307924Y918087D01*
X1307699Y919215D01*
X1307330Y920303D01*
X1306821Y921334D01*
X1306183Y922290D01*
X1305425Y923155D01*
X1304560Y923913D01*
X1303604Y924551D01*
X1302573Y925060D01*
X1301485Y925429D01*
X1300357Y925654D01*
X1299210Y925729D01*
X1298063Y925654D01*
X1296935Y925429D01*
X1295847Y925060D01*
X1294816Y924551D01*
X1293860Y923913D01*
X1292995Y923155D01*
X1292237Y922290D01*
X1291599Y921334D01*
X1290341Y921655D01*
Y937625D01*
X1291599Y937946D01*
X1292237Y936990D01*
X1292995Y936125D01*
X1293860Y935367D01*
X1294816Y934729D01*
X1295847Y934220D01*
X1296935Y933851D01*
X1298063Y933626D01*
X1299210Y933551D01*
X1300357Y933626D01*
X1301485Y933851D01*
X1302573Y934220D01*
X1303604Y934729D01*
X1304560Y935367D01*
X1305425Y936125D01*
X1306183Y936990D01*
X1306821Y937946D01*
X1307330Y938977D01*
X1307699Y940065D01*
X1307924Y941193D01*
X1307999Y942340D01*
X1307924Y943487D01*
X1307699Y944615D01*
X1307330Y945703D01*
X1306821Y946734D01*
X1306183Y947690D01*
X1305425Y948555D01*
X1304560Y949313D01*
X1303604Y949951D01*
X1302573Y950460D01*
X1301485Y950829D01*
X1300357Y951054D01*
X1299210Y951129D01*
X1298063Y951054D01*
X1296935Y950829D01*
X1295847Y950460D01*
X1294816Y949951D01*
X1293860Y949313D01*
X1292995Y948555D01*
X1292237Y947690D01*
X1291599Y946734D01*
X1290341Y947055D01*
Y948436D01*
X1290258Y949283D01*
X1290011Y950096D01*
X1289610Y950847D01*
X1289070Y951504D01*
X1279538Y961036D01*
X1278880Y961576D01*
X1278130Y961977D01*
X1277316Y962224D01*
X1276470Y962307D01*
D02*
G37*
G36*
X1358780Y951110D02*
X1341240D01*
Y933570D01*
X1358780D01*
Y951110D01*
D02*
G37*
G36*
X1055370Y951129D02*
X1054223Y951054D01*
X1053095Y950829D01*
X1052007Y950460D01*
X1050976Y949951D01*
X1050020Y949313D01*
X1049155Y948555D01*
X1048397Y947690D01*
X1047759Y946734D01*
X1047250Y945703D01*
X1046881Y944615D01*
X1046656Y943487D01*
X1046581Y942340D01*
X1046656Y941193D01*
X1046881Y940065D01*
X1047250Y938977D01*
X1047625Y938218D01*
X1041609Y932202D01*
X846836D01*
X846173Y932115D01*
X845555Y931859D01*
X845024Y931452D01*
X822418Y908846D01*
X822011Y908315D01*
X821755Y907697D01*
X821668Y907034D01*
Y759460D01*
X821755Y758797D01*
X822011Y758179D01*
X822418Y757648D01*
X839360Y740707D01*
Y723790D01*
X859900D01*
Y731498D01*
X870458D01*
X871121Y731585D01*
X871739Y731841D01*
X872270Y732248D01*
X876719Y736698D01*
X890850D01*
Y734490D01*
X902390D01*
Y744030D01*
X890850D01*
Y741822D01*
X875658D01*
X874995Y741734D01*
X874377Y741479D01*
X873846Y741071D01*
X869397Y736622D01*
X859900D01*
Y744330D01*
X842983D01*
X826792Y760521D01*
Y905973D01*
X847897Y927078D01*
X1042670D01*
X1043333Y927165D01*
X1043951Y927421D01*
X1044482Y927828D01*
X1051248Y934594D01*
X1052007Y934220D01*
X1053095Y933851D01*
X1054223Y933626D01*
X1055370Y933551D01*
X1056517Y933626D01*
X1057645Y933851D01*
X1058733Y934220D01*
X1059764Y934729D01*
X1060720Y935367D01*
X1061585Y936125D01*
X1062343Y936990D01*
X1062981Y937946D01*
X1063490Y938977D01*
X1063859Y940065D01*
X1064084Y941193D01*
X1064159Y942340D01*
X1064084Y943487D01*
X1063859Y944615D01*
X1063490Y945703D01*
X1062981Y946734D01*
X1062343Y947690D01*
X1061585Y948555D01*
X1060720Y949313D01*
X1059764Y949951D01*
X1058733Y950460D01*
X1057645Y950829D01*
X1056517Y951054D01*
X1055370Y951129D01*
D02*
G37*
G36*
X1358780Y925710D02*
X1341240D01*
Y908170D01*
X1358780D01*
Y925710D01*
D02*
G37*
G36*
X1324610Y925729D02*
X1323463Y925654D01*
X1322335Y925429D01*
X1321247Y925060D01*
X1320216Y924551D01*
X1319260Y923913D01*
X1318395Y923155D01*
X1317637Y922290D01*
X1316999Y921334D01*
X1316490Y920303D01*
X1316121Y919215D01*
X1315896Y918087D01*
X1315821Y916940D01*
X1315896Y915793D01*
X1316121Y914665D01*
X1316490Y913577D01*
X1316999Y912546D01*
X1317637Y911590D01*
X1318395Y910725D01*
X1319260Y909967D01*
X1320216Y909329D01*
X1321247Y908820D01*
X1322335Y908451D01*
X1323463Y908226D01*
X1324610Y908151D01*
X1325757Y908226D01*
X1326885Y908451D01*
X1327973Y908820D01*
X1329004Y909329D01*
X1329960Y909967D01*
X1330825Y910725D01*
X1331583Y911590D01*
X1332221Y912546D01*
X1332730Y913577D01*
X1333099Y914665D01*
X1333324Y915793D01*
X1333399Y916940D01*
X1333324Y918087D01*
X1333099Y919215D01*
X1332730Y920303D01*
X1332221Y921334D01*
X1331583Y922290D01*
X1330825Y923155D01*
X1329960Y923913D01*
X1329004Y924551D01*
X1327973Y925060D01*
X1326885Y925429D01*
X1325757Y925654D01*
X1324610Y925729D01*
D02*
G37*
G36*
X1080770D02*
X1079623Y925654D01*
X1078495Y925429D01*
X1077407Y925060D01*
X1076376Y924551D01*
X1075420Y923913D01*
X1074555Y923155D01*
X1073797Y922290D01*
X1073159Y921334D01*
X1072650Y920303D01*
X1072281Y919215D01*
X1072056Y918087D01*
X1071981Y916940D01*
X1072056Y915793D01*
X1072281Y914665D01*
X1072650Y913577D01*
X1073159Y912546D01*
X1073797Y911590D01*
X1074555Y910725D01*
X1075420Y909967D01*
X1076376Y909329D01*
X1077407Y908820D01*
X1078495Y908451D01*
X1079623Y908226D01*
X1080770Y908151D01*
X1081917Y908226D01*
X1083045Y908451D01*
X1084133Y908820D01*
X1085164Y909329D01*
X1086120Y909967D01*
X1086985Y910725D01*
X1087743Y911590D01*
X1088381Y912546D01*
X1088890Y913577D01*
X1089259Y914665D01*
X1089484Y915793D01*
X1089559Y916940D01*
X1089484Y918087D01*
X1089259Y919215D01*
X1088890Y920303D01*
X1088381Y921334D01*
X1087743Y922290D01*
X1086985Y923155D01*
X1086120Y923913D01*
X1085164Y924551D01*
X1084133Y925060D01*
X1083045Y925429D01*
X1081917Y925654D01*
X1080770Y925729D01*
D02*
G37*
G36*
X953770Y951129D02*
X952623Y951054D01*
X951495Y950829D01*
X950407Y950460D01*
X949376Y949951D01*
X948420Y949313D01*
X947555Y948555D01*
X946797Y947690D01*
X946159Y946734D01*
X945650Y945703D01*
X945281Y944615D01*
X945056Y943487D01*
X944981Y942340D01*
X945056Y941193D01*
X945281Y940065D01*
X945650Y938977D01*
X946159Y937946D01*
X946797Y936990D01*
X947555Y936125D01*
X948420Y935367D01*
X949376Y934729D01*
X950407Y934220D01*
X951495Y933851D01*
X952623Y933626D01*
X953770Y933551D01*
X954917Y933626D01*
X956045Y933851D01*
X957133Y934220D01*
X958164Y934729D01*
X959120Y935367D01*
X959985Y936125D01*
X960743Y936990D01*
X961381Y937946D01*
X961890Y938977D01*
X962259Y940065D01*
X962484Y941193D01*
X962559Y942340D01*
X962484Y943487D01*
X962259Y944615D01*
X961890Y945703D01*
X961381Y946734D01*
X960743Y947690D01*
X959985Y948555D01*
X959120Y949313D01*
X958164Y949951D01*
X957133Y950460D01*
X956045Y950829D01*
X954917Y951054D01*
X953770Y951129D01*
D02*
G37*
G36*
X928370D02*
X927223Y951054D01*
X926095Y950829D01*
X925007Y950460D01*
X923976Y949951D01*
X923020Y949313D01*
X922155Y948555D01*
X921397Y947690D01*
X920759Y946734D01*
X920250Y945703D01*
X919881Y944615D01*
X919656Y943487D01*
X919581Y942340D01*
X919656Y941193D01*
X919881Y940065D01*
X920250Y938977D01*
X920759Y937946D01*
X921397Y936990D01*
X922155Y936125D01*
X923020Y935367D01*
X923976Y934729D01*
X925007Y934220D01*
X926095Y933851D01*
X927223Y933626D01*
X928370Y933551D01*
X929517Y933626D01*
X930645Y933851D01*
X931733Y934220D01*
X932764Y934729D01*
X933720Y935367D01*
X934585Y936125D01*
X935343Y936990D01*
X935981Y937946D01*
X936490Y938977D01*
X936859Y940065D01*
X937084Y941193D01*
X937159Y942340D01*
X937084Y943487D01*
X936859Y944615D01*
X936490Y945703D01*
X935981Y946734D01*
X935343Y947690D01*
X934585Y948555D01*
X933720Y949313D01*
X932764Y949951D01*
X931733Y950460D01*
X930645Y950829D01*
X929517Y951054D01*
X928370Y951129D01*
D02*
G37*
G36*
X902970D02*
X901823Y951054D01*
X900695Y950829D01*
X899607Y950460D01*
X898576Y949951D01*
X897620Y949313D01*
X896755Y948555D01*
X895997Y947690D01*
X895359Y946734D01*
X894850Y945703D01*
X894481Y944615D01*
X894256Y943487D01*
X894181Y942340D01*
X894256Y941193D01*
X894481Y940065D01*
X894850Y938977D01*
X895359Y937946D01*
X895997Y936990D01*
X896755Y936125D01*
X897620Y935367D01*
X898576Y934729D01*
X899607Y934220D01*
X900695Y933851D01*
X901823Y933626D01*
X902970Y933551D01*
X904117Y933626D01*
X905245Y933851D01*
X906333Y934220D01*
X907364Y934729D01*
X908320Y935367D01*
X909185Y936125D01*
X909943Y936990D01*
X910581Y937946D01*
X911090Y938977D01*
X911459Y940065D01*
X911684Y941193D01*
X911759Y942340D01*
X911684Y943487D01*
X911459Y944615D01*
X911090Y945703D01*
X910581Y946734D01*
X909943Y947690D01*
X909185Y948555D01*
X908320Y949313D01*
X907364Y949951D01*
X906333Y950460D01*
X905245Y950829D01*
X904117Y951054D01*
X902970Y951129D01*
D02*
G37*
G36*
X1010920Y868078D02*
X1009838Y868007D01*
X1008775Y867795D01*
X1007748Y867447D01*
X1006776Y866967D01*
X1005875Y866365D01*
X1005060Y865650D01*
X1004345Y864835D01*
X1003743Y863934D01*
X1003263Y862962D01*
X1002915Y861935D01*
X1002703Y860872D01*
X1002632Y859790D01*
X1002703Y858708D01*
X1002915Y857645D01*
X1003263Y856618D01*
X1003743Y855646D01*
X1004345Y854745D01*
X1005060Y853930D01*
X1005875Y853215D01*
X1006776Y852613D01*
X1007748Y852133D01*
X1008775Y851785D01*
X1009838Y851573D01*
X1010920Y851502D01*
X1012002Y851573D01*
X1013065Y851785D01*
X1014092Y852133D01*
X1015064Y852613D01*
X1015965Y853215D01*
X1016780Y853930D01*
X1017495Y854745D01*
X1018097Y855646D01*
X1018577Y856618D01*
X1018925Y857645D01*
X1019137Y858708D01*
X1019208Y859790D01*
X1019137Y860872D01*
X1018925Y861935D01*
X1018577Y862962D01*
X1018097Y863934D01*
X1017495Y864835D01*
X1016780Y865650D01*
X1015965Y866365D01*
X1015064Y866967D01*
X1014092Y867447D01*
X1013065Y867795D01*
X1012002Y868007D01*
X1010920Y868078D01*
D02*
G37*
G36*
X1358780Y468510D02*
X1341240D01*
Y450970D01*
X1358780D01*
Y468510D01*
D02*
G37*
G36*
X1145540Y469718D02*
X1145497Y469715D01*
X1144206Y469459D01*
X1142960Y469036D01*
X1141779Y468453D01*
X1140685Y467722D01*
X1139695Y466855D01*
X1138828Y465865D01*
X1138096Y464771D01*
X1137514Y463590D01*
X1137091Y462344D01*
X1136835Y461053D01*
X1136832Y461010D01*
X1145540D01*
Y469718D01*
D02*
G37*
G36*
X848360Y825500D02*
X838148D01*
X838164Y825260D01*
X838459Y823777D01*
X838946Y822344D01*
X839615Y820988D01*
X840455Y819730D01*
X841452Y818593D01*
X842590Y817595D01*
X843848Y816755D01*
X845204Y816086D01*
X846637Y815599D01*
X848120Y815304D01*
X848360Y815288D01*
Y825500D01*
D02*
G37*
G36*
X1324610Y468529D02*
X1323463Y468454D01*
X1322335Y468229D01*
X1321247Y467860D01*
X1320216Y467351D01*
X1319260Y466713D01*
X1318395Y465955D01*
X1317637Y465090D01*
X1316999Y464134D01*
X1316490Y463103D01*
X1316121Y462015D01*
X1315896Y460887D01*
X1315821Y459740D01*
X1315896Y458593D01*
X1316121Y457465D01*
X1316490Y456377D01*
X1316999Y455346D01*
X1317637Y454390D01*
X1318395Y453525D01*
X1319260Y452767D01*
X1320216Y452129D01*
X1321247Y451620D01*
X1322335Y451251D01*
X1323463Y451026D01*
X1324610Y450951D01*
X1325757Y451026D01*
X1326885Y451251D01*
X1327973Y451620D01*
X1329004Y452129D01*
X1329960Y452767D01*
X1330825Y453525D01*
X1331583Y454390D01*
X1332221Y455346D01*
X1332730Y456377D01*
X1333099Y457465D01*
X1333324Y458593D01*
X1333399Y459740D01*
X1333324Y460887D01*
X1333099Y462015D01*
X1332730Y463103D01*
X1332221Y464134D01*
X1331583Y465090D01*
X1330825Y465955D01*
X1329960Y466713D01*
X1329004Y467351D01*
X1327973Y467860D01*
X1326885Y468229D01*
X1325757Y468454D01*
X1324610Y468529D01*
D02*
G37*
G36*
X1273810D02*
X1272663Y468454D01*
X1271535Y468229D01*
X1270447Y467860D01*
X1269416Y467351D01*
X1268460Y466713D01*
X1267595Y465955D01*
X1266837Y465090D01*
X1266199Y464134D01*
X1265690Y463103D01*
X1265321Y462015D01*
X1265096Y460887D01*
X1265021Y459740D01*
X1265096Y458593D01*
X1265321Y457465D01*
X1265690Y456377D01*
X1266199Y455346D01*
X1266837Y454390D01*
X1267595Y453525D01*
X1268460Y452767D01*
X1269416Y452129D01*
X1270447Y451620D01*
X1271535Y451251D01*
X1272663Y451026D01*
X1273810Y450951D01*
X1274957Y451026D01*
X1276085Y451251D01*
X1277173Y451620D01*
X1278204Y452129D01*
X1279160Y452767D01*
X1280025Y453525D01*
X1280783Y454390D01*
X1281421Y455346D01*
X1281930Y456377D01*
X1282299Y457465D01*
X1282524Y458593D01*
X1282599Y459740D01*
X1282524Y460887D01*
X1282299Y462015D01*
X1281930Y463103D01*
X1281421Y464134D01*
X1280783Y465090D01*
X1280025Y465955D01*
X1279160Y466713D01*
X1278204Y467351D01*
X1277173Y467860D01*
X1276085Y468229D01*
X1274957Y468454D01*
X1273810Y468529D01*
D02*
G37*
G36*
X848360Y838251D02*
X848120Y838236D01*
X846637Y837941D01*
X845204Y837454D01*
X843848Y836785D01*
X842590Y835945D01*
X841452Y834948D01*
X840455Y833810D01*
X839615Y832552D01*
X838946Y831196D01*
X838459Y829763D01*
X838164Y828279D01*
X838148Y828040D01*
X848360D01*
Y838251D01*
D02*
G37*
G36*
X1299210Y468529D02*
X1298063Y468454D01*
X1296935Y468229D01*
X1295847Y467860D01*
X1294816Y467351D01*
X1293860Y466713D01*
X1292995Y465955D01*
X1292237Y465090D01*
X1291599Y464134D01*
X1291090Y463103D01*
X1290721Y462015D01*
X1290496Y460887D01*
X1290421Y459740D01*
X1290496Y458593D01*
X1290721Y457465D01*
X1291090Y456377D01*
X1291599Y455346D01*
X1292237Y454390D01*
X1292995Y453525D01*
X1293860Y452767D01*
X1294816Y452129D01*
X1295847Y451620D01*
X1296935Y451251D01*
X1298063Y451026D01*
X1299210Y450951D01*
X1300357Y451026D01*
X1301485Y451251D01*
X1302573Y451620D01*
X1303604Y452129D01*
X1304560Y452767D01*
X1305425Y453525D01*
X1306183Y454390D01*
X1306821Y455346D01*
X1307330Y456377D01*
X1307699Y457465D01*
X1307924Y458593D01*
X1307999Y459740D01*
X1307924Y460887D01*
X1307699Y462015D01*
X1307330Y463103D01*
X1306821Y464134D01*
X1306183Y465090D01*
X1305425Y465955D01*
X1304560Y466713D01*
X1303604Y467351D01*
X1302573Y467860D01*
X1301485Y468229D01*
X1300357Y468454D01*
X1299210Y468529D01*
D02*
G37*
G36*
X848360Y770941D02*
X848120Y770926D01*
X846637Y770631D01*
X845204Y770144D01*
X843848Y769475D01*
X842590Y768635D01*
X841452Y767637D01*
X840455Y766500D01*
X839615Y765242D01*
X838946Y763886D01*
X838459Y762453D01*
X838164Y760969D01*
X838148Y760730D01*
X848360D01*
Y770941D01*
D02*
G37*
G36*
X1223010Y493929D02*
X1221863Y493854D01*
X1220735Y493629D01*
X1219647Y493260D01*
X1218616Y492751D01*
X1217660Y492113D01*
X1216795Y491355D01*
X1216037Y490490D01*
X1215399Y489534D01*
X1214890Y488503D01*
X1214521Y487415D01*
X1214296Y486287D01*
X1214221Y485140D01*
X1214296Y483993D01*
X1214521Y482865D01*
X1214890Y481777D01*
X1215399Y480746D01*
X1216037Y479790D01*
X1216795Y478925D01*
X1217660Y478167D01*
X1218616Y477529D01*
X1219647Y477020D01*
X1220735Y476651D01*
X1221863Y476426D01*
X1223010Y476351D01*
X1224157Y476426D01*
X1225285Y476651D01*
X1226373Y477020D01*
X1227404Y477529D01*
X1228360Y478167D01*
X1229225Y478925D01*
X1229983Y479790D01*
X1230621Y480746D01*
X1231130Y481777D01*
X1231499Y482865D01*
X1231724Y483993D01*
X1231799Y485140D01*
X1231724Y486287D01*
X1231499Y487415D01*
X1231130Y488503D01*
X1230621Y489534D01*
X1229983Y490490D01*
X1229225Y491355D01*
X1228360Y492113D01*
X1227404Y492751D01*
X1226373Y493260D01*
X1225285Y493629D01*
X1224157Y493854D01*
X1223010Y493929D01*
D02*
G37*
G36*
X1054940Y762690D02*
X1049670D01*
Y756920D01*
X1054940D01*
Y762690D01*
D02*
G37*
G36*
X850900Y770941D02*
Y760730D01*
X861112D01*
X861096Y760969D01*
X860801Y762453D01*
X860314Y763886D01*
X859645Y765242D01*
X858805Y766500D01*
X857807Y767637D01*
X856670Y768635D01*
X855412Y769475D01*
X854056Y770144D01*
X852623Y770631D01*
X851140Y770926D01*
X850900Y770941D01*
D02*
G37*
G36*
X1122680Y469718D02*
Y461010D01*
X1131388D01*
X1131385Y461053D01*
X1131129Y462344D01*
X1130706Y463590D01*
X1130124Y464771D01*
X1129392Y465865D01*
X1128525Y466855D01*
X1127535Y467722D01*
X1126441Y468453D01*
X1125260Y469036D01*
X1124014Y469459D01*
X1122723Y469715D01*
X1122680Y469718D01*
D02*
G37*
G36*
X1148080D02*
Y461010D01*
X1156788D01*
X1156785Y461053D01*
X1156529Y462344D01*
X1156106Y463590D01*
X1155524Y464771D01*
X1154792Y465865D01*
X1153925Y466855D01*
X1152935Y467722D01*
X1151841Y468453D01*
X1150660Y469036D01*
X1149414Y469459D01*
X1148123Y469715D01*
X1148080Y469718D01*
D02*
G37*
G36*
X1146810Y493929D02*
X1145663Y493854D01*
X1144535Y493629D01*
X1143447Y493260D01*
X1142416Y492751D01*
X1141460Y492113D01*
X1140595Y491355D01*
X1139837Y490490D01*
X1139199Y489534D01*
X1138690Y488503D01*
X1138321Y487415D01*
X1138096Y486287D01*
X1138021Y485140D01*
X1138096Y483993D01*
X1138321Y482865D01*
X1138690Y481777D01*
X1139199Y480746D01*
X1139837Y479790D01*
X1140595Y478925D01*
X1141460Y478167D01*
X1142416Y477529D01*
X1143447Y477020D01*
X1144535Y476651D01*
X1145663Y476426D01*
X1146810Y476351D01*
X1147957Y476426D01*
X1149085Y476651D01*
X1150173Y477020D01*
X1151204Y477529D01*
X1152160Y478167D01*
X1153025Y478925D01*
X1153783Y479790D01*
X1154421Y480746D01*
X1154930Y481777D01*
X1155299Y482865D01*
X1155524Y483993D01*
X1155599Y485140D01*
X1155524Y486287D01*
X1155299Y487415D01*
X1154930Y488503D01*
X1154421Y489534D01*
X1153783Y490490D01*
X1153025Y491355D01*
X1152160Y492113D01*
X1151204Y492751D01*
X1150173Y493260D01*
X1149085Y493629D01*
X1147957Y493854D01*
X1146810Y493929D01*
D02*
G37*
G36*
X780338Y848360D02*
X769620D01*
Y837642D01*
X769700Y837647D01*
X771033Y837873D01*
X772333Y838248D01*
X773582Y838765D01*
X774766Y839419D01*
X775869Y840202D01*
X776877Y841103D01*
X777778Y842111D01*
X778561Y843214D01*
X779215Y844398D01*
X779732Y845647D01*
X780107Y846947D01*
X780333Y848280D01*
X780338Y848360D01*
D02*
G37*
G36*
X1248410Y468529D02*
X1247263Y468454D01*
X1246135Y468229D01*
X1245047Y467860D01*
X1244016Y467351D01*
X1243060Y466713D01*
X1242195Y465955D01*
X1241437Y465090D01*
X1240799Y464134D01*
X1240290Y463103D01*
X1239921Y462015D01*
X1239696Y460887D01*
X1239621Y459740D01*
X1239696Y458593D01*
X1239921Y457465D01*
X1240290Y456377D01*
X1240799Y455346D01*
X1241437Y454390D01*
X1242195Y453525D01*
X1243060Y452767D01*
X1244016Y452129D01*
X1245047Y451620D01*
X1246135Y451251D01*
X1247263Y451026D01*
X1248410Y450951D01*
X1249557Y451026D01*
X1250685Y451251D01*
X1251773Y451620D01*
X1252804Y452129D01*
X1253760Y452767D01*
X1254625Y453525D01*
X1255383Y454390D01*
X1256021Y455346D01*
X1256530Y456377D01*
X1256899Y457465D01*
X1257124Y458593D01*
X1257199Y459740D01*
X1257124Y460887D01*
X1256899Y462015D01*
X1256530Y463103D01*
X1256021Y464134D01*
X1255383Y465090D01*
X1254625Y465955D01*
X1253760Y466713D01*
X1252804Y467351D01*
X1251773Y467860D01*
X1250685Y468229D01*
X1249557Y468454D01*
X1248410Y468529D01*
D02*
G37*
G36*
X769620Y861618D02*
Y850900D01*
X780338D01*
X780333Y850980D01*
X780107Y852313D01*
X779732Y853613D01*
X779215Y854862D01*
X778561Y856046D01*
X777778Y857149D01*
X776877Y858157D01*
X775869Y859058D01*
X774766Y859841D01*
X773582Y860495D01*
X772333Y861012D01*
X771033Y861387D01*
X769700Y861613D01*
X769620Y861618D01*
D02*
G37*
G36*
X985520Y868078D02*
X984438Y868007D01*
X983375Y867795D01*
X982348Y867447D01*
X981376Y866967D01*
X980475Y866365D01*
X979660Y865650D01*
X978945Y864835D01*
X978343Y863934D01*
X977863Y862962D01*
X977515Y861935D01*
X977303Y860872D01*
X977232Y859790D01*
X977303Y858708D01*
X977515Y857645D01*
X977863Y856618D01*
X978343Y855646D01*
X978945Y854745D01*
X979660Y853930D01*
X980475Y853215D01*
X981376Y852613D01*
X982348Y852133D01*
X983375Y851785D01*
X984438Y851573D01*
X985520Y851502D01*
X986602Y851573D01*
X987665Y851785D01*
X988692Y852133D01*
X989664Y852613D01*
X990565Y853215D01*
X991380Y853930D01*
X992095Y854745D01*
X992697Y855646D01*
X993177Y856618D01*
X993525Y857645D01*
X993737Y858708D01*
X993808Y859790D01*
X993737Y860872D01*
X993525Y861935D01*
X993177Y862962D01*
X992697Y863934D01*
X992095Y864835D01*
X991380Y865650D01*
X990565Y866365D01*
X989664Y866967D01*
X988692Y867447D01*
X987665Y867795D01*
X986602Y868007D01*
X985520Y868078D01*
D02*
G37*
%LPD*%
G36*
X995179Y536748D02*
X1006420Y525507D01*
Y518590D01*
X1017960D01*
Y520798D01*
X1039323D01*
X1068048Y492073D01*
Y468132D01*
X1067247Y467860D01*
X1066216Y467351D01*
X1065260Y466713D01*
X1064395Y465955D01*
X1063637Y465090D01*
X1062999Y464134D01*
X1062490Y463103D01*
X1062121Y462015D01*
X1061896Y460887D01*
X1061821Y459740D01*
X1061896Y458593D01*
X1062121Y457465D01*
X1062490Y456377D01*
X1062999Y455346D01*
X1063637Y454390D01*
X1064395Y453525D01*
X1064526Y453411D01*
X1064048Y452141D01*
X1051772D01*
X1051294Y453411D01*
X1051425Y453525D01*
X1052183Y454390D01*
X1052821Y455346D01*
X1053330Y456377D01*
X1053699Y457465D01*
X1053924Y458593D01*
X1053999Y459740D01*
X1053924Y460887D01*
X1053699Y462015D01*
X1053330Y463103D01*
X1052821Y464134D01*
X1052183Y465090D01*
X1051425Y465955D01*
X1050560Y466713D01*
X1049604Y467351D01*
X1048573Y467860D01*
X1047485Y468229D01*
X1046357Y468454D01*
X1045210Y468529D01*
X1044063Y468454D01*
X1042935Y468229D01*
X1041847Y467860D01*
X1040816Y467351D01*
X1039860Y466713D01*
X1038995Y465955D01*
X1038237Y465090D01*
X1037599Y464134D01*
X1037090Y463103D01*
X1036721Y462015D01*
X1036496Y460887D01*
X1036421Y459740D01*
X1036496Y458593D01*
X1036721Y457465D01*
X1037090Y456377D01*
X1037599Y455346D01*
X1038237Y454390D01*
X1038995Y453525D01*
X1039126Y453411D01*
X1038648Y452141D01*
X1026372D01*
X1025894Y453411D01*
X1026025Y453525D01*
X1026783Y454390D01*
X1027421Y455346D01*
X1027930Y456377D01*
X1028299Y457465D01*
X1028524Y458593D01*
X1028599Y459740D01*
X1028524Y460887D01*
X1028299Y462015D01*
X1027930Y463103D01*
X1027421Y464134D01*
X1026783Y465090D01*
X1026025Y465955D01*
X1025160Y466713D01*
X1024204Y467351D01*
X1023173Y467860D01*
X1022085Y468229D01*
X1020957Y468454D01*
X1019810Y468529D01*
X1018663Y468454D01*
X1017535Y468229D01*
X1016447Y467860D01*
X1015416Y467351D01*
X1014460Y466713D01*
X1013595Y465955D01*
X1012837Y465090D01*
X1012199Y464134D01*
X1011690Y463103D01*
X1011321Y462015D01*
X1011096Y460887D01*
X1011021Y459740D01*
X1011096Y458593D01*
X1011321Y457465D01*
X1011690Y456377D01*
X1012199Y455346D01*
X1012837Y454390D01*
X1013595Y453525D01*
X1013726Y453411D01*
X1013248Y452141D01*
X1000972D01*
X1000494Y453411D01*
X1000625Y453525D01*
X1001383Y454390D01*
X1002021Y455346D01*
X1002530Y456377D01*
X1002899Y457465D01*
X1003124Y458593D01*
X1003199Y459740D01*
X1003124Y460887D01*
X1002899Y462015D01*
X1002530Y463103D01*
X1002021Y464134D01*
X1001383Y465090D01*
X1000625Y465955D01*
X999760Y466713D01*
X998804Y467351D01*
X997773Y467860D01*
X996685Y468229D01*
X995557Y468454D01*
X994410Y468529D01*
X993263Y468454D01*
X992135Y468229D01*
X991047Y467860D01*
X990016Y467351D01*
X989060Y466713D01*
X988195Y465955D01*
X987437Y465090D01*
X986799Y464134D01*
X986290Y463103D01*
X985921Y462015D01*
X985696Y460887D01*
X985621Y459740D01*
X985696Y458593D01*
X985921Y457465D01*
X986290Y456377D01*
X986799Y455346D01*
X987437Y454390D01*
X988195Y453525D01*
X988326Y453411D01*
X987848Y452141D01*
X985285D01*
X978429Y458997D01*
Y531290D01*
X979750D01*
Y530020D01*
X985520D01*
Y536560D01*
X988060D01*
Y530020D01*
X993830D01*
Y536419D01*
X995100Y536851D01*
X995179Y536748D01*
D02*
G37*
G36*
X1036676Y827363D02*
X1036189Y826190D01*
X1033660D01*
Y819150D01*
X1032390D01*
Y817880D01*
X1026350D01*
Y812110D01*
X1026350Y812110D01*
X1026281Y810869D01*
X1025699Y809920D01*
X1025240Y808812D01*
X1025025Y807914D01*
X1022720Y805609D01*
X1021960Y805379D01*
X1021209Y804978D01*
X1020552Y804438D01*
X1020012Y803781D01*
X1019611Y803030D01*
X1019364Y802216D01*
X1019281Y801370D01*
X1019118Y801190D01*
X1016970D01*
Y805851D01*
X1017012Y806170D01*
Y813380D01*
X1022160D01*
Y824920D01*
X1013223D01*
X1012620Y824920D01*
X1011998Y825932D01*
X1011840Y826592D01*
X1011380Y827700D01*
X1010754Y828723D01*
X1009975Y829635D01*
X1009063Y830414D01*
X1008040Y831040D01*
X1006932Y831499D01*
X1005766Y831779D01*
X1004570Y831874D01*
X1003374Y831779D01*
X1002208Y831499D01*
X1001100Y831040D01*
X1000077Y830414D01*
X999165Y829635D01*
X998386Y828723D01*
X998357Y828675D01*
X996936Y828786D01*
X996860Y828970D01*
X996233Y829993D01*
X995454Y830905D01*
X994542Y831684D01*
X993519Y832310D01*
X992411Y832769D01*
X991245Y833049D01*
X990049Y833144D01*
X988854Y833049D01*
X987687Y832769D01*
X986579Y832310D01*
X985556Y831684D01*
X984644Y830905D01*
X983865Y829993D01*
X983239Y828970D01*
X982780Y827862D01*
X982500Y826696D01*
X982406Y825500D01*
X982500Y824304D01*
X982780Y823138D01*
X983239Y822030D01*
X983865Y821007D01*
X984644Y820095D01*
X985111Y819697D01*
Y815220D01*
X985194Y814373D01*
X985396Y813710D01*
X985177Y813208D01*
X984600Y812440D01*
X981706D01*
X981669Y812531D01*
X981262Y813062D01*
X977172Y817152D01*
X976917Y817347D01*
X976817Y818364D01*
X976916Y818819D01*
X977313Y819062D01*
X978225Y819841D01*
X979004Y820753D01*
X979631Y821776D01*
X980089Y822884D01*
X980369Y824050D01*
X980464Y825246D01*
X980369Y826442D01*
X980089Y827608D01*
X979631Y828716D01*
X979004Y829739D01*
X978225Y830651D01*
X977313Y831430D01*
X976290Y832057D01*
X975182Y832515D01*
X974016Y832795D01*
X972820Y832890D01*
X971624Y832795D01*
X970458Y832515D01*
X969350Y832057D01*
X968327Y831430D01*
X967415Y830651D01*
X966636Y829739D01*
X966010Y828716D01*
X965633Y827808D01*
X953008D01*
X952345Y827721D01*
X951727Y827465D01*
X951196Y827058D01*
X947031Y822892D01*
X945960Y822380D01*
Y822380D01*
X945960Y822380D01*
X941190D01*
Y815340D01*
X939920D01*
Y814070D01*
X933880D01*
Y808300D01*
X938484D01*
X939105Y807030D01*
X938671Y806472D01*
X932640D01*
X931977Y806385D01*
X931540Y806204D01*
X931244Y806168D01*
X929980Y806599D01*
X929735Y807095D01*
X929088Y808064D01*
X928320Y808940D01*
X927443Y809708D01*
X926475Y810356D01*
X925429Y810871D01*
X924326Y811245D01*
X923290Y811451D01*
Y802640D01*
X920750D01*
Y811451D01*
X919714Y811245D01*
X918611Y810871D01*
X917565Y810356D01*
X916962Y809952D01*
X915927Y810371D01*
X915692Y810604D01*
Y818089D01*
X937051Y839448D01*
X1024591D01*
X1036676Y827363D01*
D02*
G37*
G36*
X1151950Y779907D02*
Y764712D01*
X1152037Y764049D01*
X1152293Y763431D01*
X1152700Y762901D01*
X1156682Y758918D01*
X1157213Y758511D01*
X1157831Y758255D01*
X1158494Y758168D01*
X1167892D01*
X1168555Y758255D01*
X1169173Y758511D01*
X1169704Y758918D01*
X1180507Y769722D01*
X1181680Y769236D01*
Y761190D01*
X1190898D01*
X1191384Y760017D01*
X1189097Y757730D01*
X1181680D01*
Y747190D01*
X1193220D01*
Y754607D01*
X1199721Y761108D01*
X1201820D01*
X1202139Y761150D01*
X1206800D01*
Y756489D01*
X1206758Y756170D01*
Y752561D01*
X1203067Y748870D01*
X1195650D01*
Y739162D01*
X1169237D01*
X1168860Y740070D01*
X1168234Y741093D01*
X1167455Y742005D01*
X1166543Y742784D01*
X1165520Y743410D01*
X1164412Y743869D01*
X1163246Y744149D01*
X1162050Y744244D01*
X1160854Y744149D01*
X1159688Y743869D01*
X1158580Y743410D01*
X1157557Y742784D01*
X1156645Y742005D01*
X1155866Y741093D01*
X1155239Y740070D01*
X1154781Y738962D01*
X1154501Y737796D01*
X1154406Y736600D01*
X1154501Y735404D01*
X1154781Y734238D01*
X1155239Y733130D01*
X1155866Y732107D01*
X1156645Y731195D01*
X1157557Y730416D01*
X1158580Y729790D01*
X1159688Y729331D01*
X1160854Y729051D01*
X1162050Y728956D01*
X1163246Y729051D01*
X1164412Y729331D01*
X1165520Y729790D01*
X1166543Y730416D01*
X1167455Y731195D01*
X1168234Y732107D01*
X1168860Y733130D01*
X1169237Y734038D01*
X1186972D01*
X1187458Y732865D01*
X1175478Y720886D01*
X1175071Y720355D01*
X1174815Y719737D01*
X1174728Y719074D01*
Y655320D01*
X1174815Y654657D01*
X1175071Y654039D01*
X1175478Y653508D01*
X1181127Y647859D01*
X1181658Y647452D01*
X1182276Y647196D01*
X1182939Y647109D01*
X1187673D01*
X1188159Y645936D01*
X1179478Y637255D01*
X1179071Y636725D01*
X1178815Y636107D01*
X1178728Y635443D01*
Y630462D01*
X1178370Y629340D01*
X1177458Y629340D01*
X1173600D01*
Y622300D01*
Y615260D01*
X1177030D01*
X1177556Y613990D01*
X1171338Y607772D01*
X1169078D01*
X1168415Y607685D01*
X1167797Y607429D01*
X1167267Y607022D01*
X1165455Y605210D01*
X1161400D01*
Y598170D01*
X1160130D01*
Y596900D01*
X1153590D01*
Y594133D01*
X1152416Y593647D01*
X1139212Y606851D01*
Y616041D01*
X1139945Y616381D01*
X1140482Y616400D01*
X1141012Y615606D01*
X1141780Y614730D01*
X1142656Y613962D01*
X1143625Y613315D01*
X1144671Y612799D01*
X1145774Y612425D01*
X1146810Y612219D01*
Y621030D01*
Y629841D01*
X1145774Y629636D01*
X1144671Y629261D01*
X1143625Y628745D01*
X1142656Y628098D01*
X1141780Y627330D01*
X1141012Y626454D01*
X1140482Y625660D01*
X1139945Y625679D01*
X1139212Y626019D01*
Y783079D01*
X1142791Y786658D01*
X1145199D01*
X1151950Y779907D01*
D02*
G37*
G36*
X1165237Y936990D02*
X1165995Y936125D01*
X1166860Y935367D01*
X1167816Y934729D01*
X1168847Y934220D01*
X1169935Y933851D01*
X1171063Y933626D01*
X1172210Y933551D01*
X1172290Y933557D01*
X1182348Y923499D01*
Y904748D01*
X1182435Y904085D01*
X1182691Y903467D01*
X1183098Y902936D01*
X1201833Y884202D01*
X1202363Y883795D01*
X1202981Y883539D01*
X1203644Y883452D01*
X1243223D01*
X1249658Y877017D01*
Y863344D01*
X1248447Y862962D01*
X1247967Y863934D01*
X1247365Y864835D01*
X1246650Y865650D01*
X1245835Y866365D01*
X1244934Y866967D01*
X1243962Y867447D01*
X1242935Y867795D01*
X1241872Y868007D01*
X1240790Y868078D01*
X1239708Y868007D01*
X1238645Y867795D01*
X1237618Y867447D01*
X1236646Y866967D01*
X1235745Y866365D01*
X1234930Y865650D01*
X1234215Y864835D01*
X1233613Y863934D01*
X1233133Y862962D01*
X1232785Y861935D01*
X1232573Y860872D01*
X1232502Y859790D01*
X1232573Y858708D01*
X1232785Y857645D01*
X1233133Y856618D01*
X1233613Y855646D01*
X1234215Y854745D01*
X1234930Y853930D01*
X1235745Y853215D01*
X1236646Y852613D01*
X1237618Y852133D01*
X1238645Y851785D01*
X1239708Y851573D01*
X1240790Y851502D01*
X1241872Y851573D01*
X1242935Y851785D01*
X1243962Y852133D01*
X1244934Y852613D01*
X1245835Y853215D01*
X1246650Y853930D01*
X1247365Y854745D01*
X1247967Y855646D01*
X1248447Y856618D01*
X1249658Y856236D01*
Y855726D01*
X1249745Y855063D01*
X1250001Y854445D01*
X1250408Y853914D01*
X1268708Y835615D01*
Y827291D01*
X1268300Y826190D01*
X1263530D01*
Y819150D01*
X1262260D01*
Y817880D01*
X1256220D01*
Y812110D01*
X1256220Y812110D01*
X1256151Y810869D01*
X1255570Y809920D01*
X1255110Y808812D01*
X1254830Y807646D01*
X1254753Y806667D01*
X1253913Y806584D01*
X1253100Y806338D01*
X1252349Y805937D01*
X1251692Y805397D01*
X1251152Y804740D01*
X1250751Y803989D01*
X1250505Y803175D01*
X1250421Y802329D01*
X1249330Y801190D01*
X1246840D01*
Y805851D01*
X1246882Y806170D01*
Y813380D01*
X1252030D01*
Y824920D01*
X1242490D01*
X1242490Y824920D01*
Y824920D01*
X1241285Y825077D01*
X1241251Y825160D01*
X1240624Y826183D01*
X1239845Y827095D01*
X1238933Y827874D01*
X1237910Y828501D01*
X1236802Y828960D01*
X1235636Y829240D01*
X1234440Y829334D01*
X1233244Y829240D01*
X1232078Y828960D01*
X1230970Y828501D01*
X1229947Y827874D01*
X1229035Y827095D01*
X1228256Y826183D01*
X1227629Y825160D01*
X1227170Y824052D01*
X1226890Y822886D01*
X1226796Y821690D01*
X1226890Y820494D01*
X1227170Y819328D01*
X1227629Y818220D01*
X1228256Y817197D01*
X1229035Y816285D01*
X1229947Y815506D01*
X1230101Y815412D01*
Y815340D01*
X1230184Y814493D01*
X1230431Y813680D01*
X1229654Y812440D01*
X1223516D01*
X1222915Y813710D01*
X1222928Y813725D01*
X1223329Y814475D01*
X1223576Y815289D01*
X1223659Y816135D01*
X1223576Y816982D01*
X1223329Y817796D01*
X1222928Y818546D01*
X1222388Y819203D01*
X1222388Y819203D01*
X1222844Y819737D01*
X1223471Y820760D01*
X1223930Y821868D01*
X1224210Y823034D01*
X1224304Y824230D01*
X1224210Y825426D01*
X1223930Y826592D01*
X1223471Y827700D01*
X1222844Y828723D01*
X1222065Y829635D01*
X1221153Y830414D01*
X1220130Y831040D01*
X1219022Y831499D01*
X1217856Y831779D01*
X1216660Y831874D01*
X1215464Y831779D01*
X1214298Y831499D01*
X1213190Y831040D01*
X1212167Y830414D01*
X1211255Y829635D01*
X1210476Y828723D01*
X1209849Y827700D01*
X1209390Y826592D01*
X1209110Y825426D01*
X1209016Y824230D01*
X1209110Y823034D01*
X1209390Y821868D01*
X1209849Y820760D01*
X1210476Y819737D01*
X1211255Y818825D01*
X1212167Y818046D01*
X1212422Y817890D01*
X1212651Y817135D01*
X1213052Y816385D01*
X1213592Y815727D01*
X1215609Y813710D01*
X1215083Y812440D01*
X1211882D01*
Y813028D01*
X1211795Y813691D01*
X1211539Y814309D01*
X1211132Y814840D01*
X1208820Y817152D01*
X1208289Y817559D01*
X1207671Y817815D01*
X1207008Y817902D01*
X1189560D01*
Y821110D01*
X1180020D01*
Y809570D01*
X1185501D01*
X1186212Y808300D01*
X1186158Y808212D01*
X1185699Y807104D01*
X1185419Y805937D01*
X1185325Y804742D01*
X1185419Y803546D01*
X1185699Y802380D01*
X1186158Y801272D01*
X1186456Y800786D01*
X1186263Y800191D01*
X1185862Y799626D01*
X1184582Y799508D01*
X1182191Y801898D01*
X1181534Y802438D01*
X1180784Y802839D01*
X1179970Y803085D01*
X1179124Y803169D01*
X1178130D01*
Y804600D01*
X1167590D01*
Y793060D01*
X1177227D01*
X1178410Y791906D01*
X1178410Y791900D01*
X1178504Y790704D01*
X1178784Y789538D01*
X1179243Y788430D01*
X1179870Y787407D01*
X1180649Y786495D01*
X1181561Y785716D01*
X1182583Y785089D01*
X1183691Y784631D01*
X1184858Y784351D01*
X1185100Y784332D01*
Y779326D01*
X1183926D01*
X1183263Y779239D01*
X1182645Y778983D01*
X1182115Y778576D01*
X1180813Y777274D01*
X1179640Y777760D01*
Y785550D01*
X1172723D01*
X1165400Y792873D01*
Y797560D01*
X1158860D01*
Y798830D01*
X1157590D01*
Y805870D01*
X1153182D01*
Y814422D01*
X1154452Y815423D01*
X1154504Y815411D01*
X1155700Y815316D01*
X1156896Y815411D01*
X1158062Y815691D01*
X1159170Y816150D01*
X1160193Y816776D01*
X1161105Y817555D01*
X1161884Y818467D01*
X1162511Y819490D01*
X1163750Y819163D01*
Y816610D01*
X1168520D01*
Y822380D01*
X1164572D01*
X1163552Y822862D01*
X1163304Y823465D01*
X1163250Y824156D01*
X1162970Y825322D01*
X1162593Y826230D01*
X1162999Y826759D01*
X1163255Y827377D01*
X1163342Y828040D01*
Y834031D01*
X1163818Y834399D01*
X1164612Y834658D01*
X1165335Y834175D01*
X1166380Y833659D01*
X1167484Y833285D01*
X1168520Y833079D01*
Y841890D01*
Y850702D01*
X1167484Y850496D01*
X1166380Y850121D01*
X1165335Y849606D01*
X1164612Y849122D01*
X1163818Y849381D01*
X1163342Y849749D01*
Y912223D01*
X1164599Y912546D01*
X1165237Y911590D01*
X1165995Y910725D01*
X1166860Y909967D01*
X1167816Y909329D01*
X1168847Y908820D01*
X1169935Y908451D01*
X1171063Y908226D01*
X1172210Y908151D01*
X1173357Y908226D01*
X1174485Y908451D01*
X1175573Y908820D01*
X1176604Y909329D01*
X1177560Y909967D01*
X1178425Y910725D01*
X1179183Y911590D01*
X1179821Y912546D01*
X1180330Y913577D01*
X1180699Y914665D01*
X1180924Y915793D01*
X1180999Y916940D01*
X1180924Y918087D01*
X1180699Y919215D01*
X1180330Y920303D01*
X1179821Y921334D01*
X1179183Y922290D01*
X1178425Y923155D01*
X1177560Y923913D01*
X1176604Y924551D01*
X1175573Y925060D01*
X1174485Y925429D01*
X1173357Y925654D01*
X1172210Y925729D01*
X1171063Y925654D01*
X1169935Y925429D01*
X1168847Y925060D01*
X1167816Y924551D01*
X1166860Y923913D01*
X1165995Y923155D01*
X1165237Y922290D01*
X1164599Y921334D01*
X1163342Y921657D01*
Y937623D01*
X1164599Y937946D01*
X1165237Y936990D01*
D02*
G37*
G36*
X965780Y731882D02*
Y724330D01*
X967211D01*
Y707136D01*
X967294Y706290D01*
X967541Y705476D01*
X967942Y704725D01*
X968482Y704068D01*
X977118Y695432D01*
X977775Y694892D01*
X978526Y694491D01*
X979340Y694245D01*
X980186Y694161D01*
X1070763D01*
X1071610Y694245D01*
X1072424Y694491D01*
X1073174Y694892D01*
X1073831Y695432D01*
X1075100Y696701D01*
X1080344D01*
X1081613Y695432D01*
X1082270Y694892D01*
X1083020Y694491D01*
X1083834Y694245D01*
X1084681Y694161D01*
X1104958D01*
X1105444Y692988D01*
X1099292Y686836D01*
X1098752Y686179D01*
X1098351Y685428D01*
X1098104Y684614D01*
X1098021Y683768D01*
Y620520D01*
X1093090D01*
Y585980D01*
X1111630D01*
X1112499Y585070D01*
Y570990D01*
X1103630D01*
Y552450D01*
Y533910D01*
X1112499D01*
Y521481D01*
X1105642Y514624D01*
X1105102Y513967D01*
X1104701Y513216D01*
X1104454Y512402D01*
X1104371Y511556D01*
Y490698D01*
X1103101Y490313D01*
X1102983Y490490D01*
X1102225Y491355D01*
X1101360Y492113D01*
X1100404Y492751D01*
X1099373Y493260D01*
X1098285Y493629D01*
X1097157Y493854D01*
X1096010Y493929D01*
X1094863Y493854D01*
X1093735Y493629D01*
X1092647Y493260D01*
X1091616Y492751D01*
X1090660Y492113D01*
X1089795Y491355D01*
X1089037Y490490D01*
X1088399Y489534D01*
X1087890Y488503D01*
X1087521Y487415D01*
X1087296Y486287D01*
X1087221Y485140D01*
X1087296Y483993D01*
X1087521Y482865D01*
X1087890Y481777D01*
X1088399Y480746D01*
X1089037Y479790D01*
X1089795Y478925D01*
X1090660Y478167D01*
X1091616Y477529D01*
X1092647Y477020D01*
X1093735Y476651D01*
X1094863Y476426D01*
X1096010Y476351D01*
X1097157Y476426D01*
X1098285Y476651D01*
X1099373Y477020D01*
X1100404Y477529D01*
X1101360Y478167D01*
X1102225Y478925D01*
X1102983Y479790D01*
X1103101Y479967D01*
X1104371Y479582D01*
Y465298D01*
X1103101Y464913D01*
X1102983Y465090D01*
X1102225Y465955D01*
X1101360Y466713D01*
X1100404Y467351D01*
X1099373Y467860D01*
X1098285Y468229D01*
X1097157Y468454D01*
X1096010Y468529D01*
X1094863Y468454D01*
X1093735Y468229D01*
X1092647Y467860D01*
X1091616Y467351D01*
X1090660Y466713D01*
X1089795Y465955D01*
X1089037Y465090D01*
X1088399Y464134D01*
X1087890Y463103D01*
X1087521Y462015D01*
X1087296Y460887D01*
X1087221Y459740D01*
X1087296Y458593D01*
X1087521Y457465D01*
X1087890Y456377D01*
X1088399Y455346D01*
X1089037Y454390D01*
X1089795Y453525D01*
X1089926Y453411D01*
X1089448Y452141D01*
X1077172D01*
X1076694Y453411D01*
X1076825Y453525D01*
X1077583Y454390D01*
X1078221Y455346D01*
X1078730Y456377D01*
X1079099Y457465D01*
X1079324Y458593D01*
X1079399Y459740D01*
X1079324Y460887D01*
X1079099Y462015D01*
X1078730Y463103D01*
X1078221Y464134D01*
X1077583Y465090D01*
X1076825Y465955D01*
X1075960Y466713D01*
X1075004Y467351D01*
X1073973Y467860D01*
X1073172Y468132D01*
Y493134D01*
Y556977D01*
X1088932Y572736D01*
X1089339Y573267D01*
X1089595Y573885D01*
X1089682Y574548D01*
Y597408D01*
Y636016D01*
X1089595Y636679D01*
X1089339Y637297D01*
X1088932Y637828D01*
X1065552Y661207D01*
Y671808D01*
X1069773D01*
X1070150Y670900D01*
X1070776Y669877D01*
X1071555Y668965D01*
X1072467Y668186D01*
X1073490Y667560D01*
X1074598Y667101D01*
X1075764Y666821D01*
X1076960Y666726D01*
X1078156Y666821D01*
X1079322Y667101D01*
X1080430Y667560D01*
X1081453Y668186D01*
X1082365Y668965D01*
X1083144Y669877D01*
X1083771Y670900D01*
X1084230Y672008D01*
X1084510Y673174D01*
X1084604Y674370D01*
X1084510Y675566D01*
X1084230Y676732D01*
X1083771Y677840D01*
X1083144Y678863D01*
X1082365Y679775D01*
X1081453Y680554D01*
X1080430Y681180D01*
X1079322Y681639D01*
X1078156Y681919D01*
X1076960Y682014D01*
X1075764Y681919D01*
X1074598Y681639D01*
X1073490Y681180D01*
X1072467Y680554D01*
X1071555Y679775D01*
X1070776Y678863D01*
X1070150Y677840D01*
X1069773Y676932D01*
X1065552D01*
Y683132D01*
X1065465Y683795D01*
X1065209Y684413D01*
X1064802Y684944D01*
X1057816Y691930D01*
X1057285Y692337D01*
X1056667Y692593D01*
X1056004Y692680D01*
X964460D01*
Y732407D01*
X964510Y732452D01*
X965780Y731882D01*
D02*
G37*
G36*
X1282934Y874756D02*
X1292586Y865104D01*
X1293243Y864564D01*
X1293994Y864163D01*
X1294807Y863916D01*
X1295654Y863833D01*
X1297411D01*
Y862258D01*
X1297257Y862164D01*
X1296345Y861385D01*
X1295566Y860473D01*
X1294940Y859450D01*
X1294480Y858342D01*
X1294200Y857176D01*
X1294106Y855980D01*
X1294200Y854784D01*
X1294480Y853618D01*
X1294940Y852510D01*
X1295566Y851487D01*
X1296345Y850575D01*
X1297257Y849796D01*
X1298280Y849169D01*
X1299388Y848710D01*
X1300554Y848430D01*
X1301750Y848336D01*
X1302946Y848430D01*
X1304112Y848710D01*
X1305220Y849169D01*
X1306243Y849796D01*
X1307155Y850575D01*
X1307934Y851487D01*
X1308560Y852510D01*
X1309019Y853618D01*
X1309299Y854784D01*
X1309394Y855980D01*
X1309299Y857176D01*
X1309019Y858342D01*
X1308560Y859450D01*
X1307934Y860473D01*
X1307155Y861385D01*
X1306243Y862164D01*
X1306089Y862258D01*
Y863833D01*
X1323067D01*
X1332971Y853929D01*
Y811020D01*
X1328040D01*
Y776480D01*
X1346580D01*
X1347449Y775570D01*
Y761490D01*
X1338580D01*
Y742950D01*
Y724410D01*
X1347449D01*
Y698265D01*
X1336030Y686846D01*
X1335481Y687297D01*
X1334731Y687698D01*
X1333917Y687945D01*
X1333071Y688028D01*
X1206949D01*
X1205759Y689218D01*
Y724330D01*
X1207080D01*
Y723060D01*
X1212850D01*
Y729600D01*
X1215390D01*
Y723060D01*
X1221160D01*
Y728819D01*
X1222430Y729251D01*
X1222468Y729200D01*
X1233750Y717919D01*
Y711630D01*
X1245290D01*
Y721170D01*
X1237745D01*
X1233417Y725498D01*
X1234081Y726630D01*
X1245290D01*
Y728838D01*
X1246766D01*
X1247429Y728925D01*
X1248047Y729181D01*
X1248578Y729589D01*
X1254872Y735883D01*
X1254893Y735910D01*
X1258450D01*
Y742950D01*
X1259720D01*
Y744220D01*
X1265760D01*
Y749880D01*
X1269540D01*
Y760588D01*
X1270686Y761129D01*
X1271730Y760472D01*
Y756920D01*
X1277000D01*
Y762690D01*
X1273795D01*
X1273309Y763863D01*
X1283242Y773796D01*
X1283649Y774327D01*
X1283905Y774945D01*
X1283992Y775608D01*
Y795509D01*
X1283905Y796172D01*
X1283649Y796790D01*
X1283242Y797320D01*
X1281394Y799168D01*
X1281452Y799611D01*
Y874560D01*
X1282722Y875014D01*
X1282934Y874756D01*
D02*
G37*
G36*
X959336Y729772D02*
Y690880D01*
X959423Y690217D01*
X959679Y689599D01*
X960086Y689068D01*
X960848Y688306D01*
X961379Y687899D01*
X961997Y687643D01*
X962660Y687556D01*
X1054943D01*
X1060428Y682071D01*
Y675640D01*
Y660146D01*
X1060515Y659483D01*
X1060771Y658865D01*
X1061178Y658334D01*
X1084558Y634955D01*
Y599970D01*
X1069848D01*
X1069185Y599883D01*
X1068567Y599627D01*
X1068036Y599220D01*
X1047009Y578192D01*
X1032030D01*
Y579360D01*
X1024490D01*
Y581900D01*
X1032030D01*
Y583068D01*
X1049020D01*
X1049683Y583155D01*
X1050301Y583411D01*
X1050832Y583819D01*
X1051239Y584349D01*
X1051495Y584967D01*
X1051582Y585630D01*
Y589489D01*
X1057182Y595088D01*
X1057589Y595619D01*
X1057845Y596237D01*
X1057932Y596900D01*
Y605237D01*
X1064038Y611343D01*
X1064946Y610966D01*
X1066112Y610686D01*
X1067308Y610592D01*
X1068504Y610686D01*
X1069670Y610966D01*
X1070778Y611426D01*
X1071801Y612052D01*
X1072713Y612831D01*
X1073492Y613743D01*
X1074118Y614766D01*
X1074577Y615874D01*
X1074857Y617040D01*
X1074952Y618236D01*
X1074857Y619432D01*
X1074577Y620598D01*
X1074118Y621706D01*
X1073492Y622729D01*
X1072713Y623641D01*
X1071801Y624420D01*
X1070778Y625047D01*
X1069670Y625505D01*
X1068504Y625785D01*
X1067308Y625880D01*
X1066112Y625785D01*
X1064946Y625505D01*
X1063838Y625047D01*
X1062815Y624420D01*
X1061903Y623641D01*
X1061124Y622729D01*
X1060498Y621706D01*
X1060039Y620598D01*
X1059759Y619432D01*
X1059664Y618236D01*
X1059759Y617040D01*
X1060039Y615874D01*
X1060415Y614966D01*
X1053558Y608110D01*
X1053151Y607579D01*
X1052895Y606961D01*
X1052808Y606298D01*
Y597961D01*
X1047208Y592362D01*
X1046801Y591831D01*
X1046545Y591213D01*
X1046458Y590550D01*
Y588192D01*
X1030760D01*
Y593068D01*
X1035050D01*
X1035713Y593155D01*
X1036331Y593411D01*
X1036861Y593818D01*
X1037849Y594806D01*
X1038177Y594526D01*
X1039200Y593899D01*
X1040308Y593441D01*
X1041474Y593161D01*
X1042670Y593066D01*
X1043866Y593161D01*
X1045032Y593441D01*
X1046140Y593899D01*
X1047163Y594526D01*
X1048075Y595305D01*
X1048854Y596217D01*
X1049481Y597240D01*
X1049939Y598348D01*
X1050219Y599514D01*
X1050314Y600710D01*
X1050219Y601906D01*
X1049939Y603072D01*
X1049481Y604180D01*
X1048854Y605203D01*
X1048075Y606115D01*
X1047163Y606894D01*
X1046140Y607520D01*
X1045032Y607980D01*
X1043866Y608260D01*
X1042670Y608354D01*
X1042363Y608329D01*
X1041618Y609545D01*
X1041861Y609940D01*
X1042319Y611048D01*
X1042599Y612214D01*
X1042694Y613410D01*
X1042599Y614606D01*
X1042319Y615772D01*
X1041861Y616880D01*
X1041234Y617903D01*
X1041230Y617907D01*
X1040970Y619070D01*
X1040970Y619070D01*
X1040970Y619070D01*
Y624840D01*
X1034930D01*
X1028890D01*
Y619070D01*
X1028890Y619070D01*
X1028821Y617829D01*
X1028240Y616880D01*
X1027781Y615772D01*
X1027673Y615325D01*
X1027040Y615133D01*
X1026289Y614732D01*
X1025632Y614192D01*
X1025092Y613535D01*
X1024691Y612784D01*
X1024445Y611970D01*
X1024361Y611124D01*
X1024445Y610277D01*
X1024691Y609464D01*
X1024771Y609315D01*
X1024189Y608150D01*
X1019510D01*
Y612811D01*
X1019552Y613130D01*
Y620340D01*
X1024700D01*
Y631880D01*
X1015160D01*
X1015160Y631880D01*
Y631880D01*
X1013955Y632037D01*
X1013921Y632120D01*
X1013294Y633143D01*
X1012515Y634055D01*
X1011603Y634834D01*
X1010580Y635461D01*
X1009472Y635919D01*
X1008306Y636199D01*
X1007110Y636294D01*
X1005914Y636199D01*
X1004748Y635919D01*
X1003640Y635461D01*
X1002617Y634834D01*
X1001705Y634055D01*
X1000926Y633143D01*
X1000300Y632120D01*
X999840Y631012D01*
X999560Y629846D01*
X999466Y628650D01*
X999560Y627454D01*
X999840Y626288D01*
X1000300Y625180D01*
X1000926Y624157D01*
X1001705Y623245D01*
X1002617Y622466D01*
X1002771Y622372D01*
Y621454D01*
X1002735Y621333D01*
X1002651Y620487D01*
X1001533Y619400D01*
X997449D01*
X997447Y619400D01*
X997013Y619670D01*
X996330Y620486D01*
X996329Y620488D01*
X996288Y620912D01*
X996246Y621333D01*
X996246Y621334D01*
X996246Y621334D01*
X996124Y621734D01*
X996039Y622015D01*
X996784Y622887D01*
X997411Y623910D01*
X997869Y625018D01*
X998149Y626184D01*
X998244Y627380D01*
X998149Y628576D01*
X997869Y629742D01*
X997411Y630850D01*
X996784Y631873D01*
X996005Y632785D01*
X995093Y633564D01*
X994070Y634190D01*
X992962Y634650D01*
X991796Y634930D01*
X990600Y635024D01*
X989404Y634930D01*
X988238Y634650D01*
X987130Y634190D01*
X986107Y633564D01*
X985195Y632785D01*
X984416Y631873D01*
X983790Y630850D01*
X983331Y629742D01*
X983051Y628576D01*
X982956Y627380D01*
X983051Y626184D01*
X983331Y625018D01*
X983790Y623910D01*
X984416Y622887D01*
X985195Y621975D01*
X986107Y621196D01*
X986342Y621052D01*
X986345Y621030D01*
X986345Y621030D01*
X986345Y621030D01*
X986454Y620670D01*
X985873Y619632D01*
X985822Y619590D01*
X985174Y619677D01*
X984532Y619914D01*
X984464Y620423D01*
X984209Y621041D01*
X983801Y621572D01*
X981262Y624112D01*
X980731Y624519D01*
X980113Y624775D01*
X979450Y624862D01*
X962230D01*
Y628070D01*
X956726D01*
X956248Y629340D01*
X956260Y629351D01*
X957028Y630227D01*
X957675Y631196D01*
X958191Y632241D01*
X958566Y633344D01*
X958772Y634380D01*
X941149D01*
X941355Y633344D01*
X941729Y632241D01*
X942244Y631196D01*
X942636Y630610D01*
X942193Y629547D01*
X941980Y629340D01*
X936420D01*
Y623570D01*
X942460D01*
Y621030D01*
X936420D01*
Y618209D01*
X935150Y617210D01*
X934720Y617244D01*
X933524Y617150D01*
X932358Y616870D01*
X931250Y616410D01*
X930227Y615784D01*
X929315Y615005D01*
X928536Y614093D01*
X927909Y613070D01*
X927450Y611962D01*
X927170Y610796D01*
X927076Y609600D01*
X927170Y608404D01*
X927450Y607238D01*
X927909Y606130D01*
X928536Y605107D01*
X929315Y604195D01*
X930227Y603416D01*
X931250Y602789D01*
X932358Y602331D01*
X933524Y602051D01*
X934720Y601956D01*
X935916Y602051D01*
X937082Y602331D01*
X938190Y602789D01*
X939213Y603416D01*
X940125Y604195D01*
X940230Y604318D01*
X941500Y603849D01*
Y600710D01*
X948040D01*
Y598170D01*
X941500D01*
Y592400D01*
X942770D01*
Y590318D01*
X925875D01*
X922042Y594151D01*
Y627589D01*
X938231Y643778D01*
X938638Y644308D01*
X938894Y644926D01*
X938981Y645589D01*
Y711076D01*
X958163Y730258D01*
X959336Y729772D01*
D02*
G37*
G36*
X1083658Y581961D02*
X1084558Y581520D01*
Y575609D01*
X1068798Y559850D01*
X1068391Y559319D01*
X1068135Y558701D01*
X1068048Y558038D01*
Y500978D01*
X1066875Y500492D01*
X1042196Y525171D01*
X1041665Y525579D01*
X1041047Y525835D01*
X1040384Y525922D01*
X1037705D01*
X1037320Y527192D01*
X1037934Y527602D01*
X1038810Y528370D01*
X1039578Y529246D01*
X1040226Y530215D01*
X1040741Y531261D01*
X1041115Y532364D01*
X1041321Y533400D01*
X1032510D01*
Y535940D01*
X1041321D01*
X1041115Y536976D01*
X1040741Y538079D01*
X1040226Y539125D01*
X1039578Y540093D01*
X1038810Y540970D01*
X1038091Y541600D01*
X1038104Y541709D01*
X1038430Y542870D01*
X1038430Y542870D01*
X1038430Y542870D01*
Y548640D01*
X1032390D01*
Y551180D01*
X1038430D01*
Y556840D01*
X1042210D01*
Y568068D01*
X1044400D01*
Y563880D01*
X1050940D01*
X1057480D01*
Y568068D01*
X1061104D01*
X1061767Y568155D01*
X1062385Y568411D01*
X1062915Y568818D01*
X1074706Y580609D01*
X1075614Y580233D01*
X1076780Y579953D01*
X1077976Y579858D01*
X1079172Y579953D01*
X1080338Y580233D01*
X1081446Y580691D01*
X1082469Y581318D01*
X1083288Y582018D01*
X1083658Y581961D01*
D02*
G37*
%LPC*%
G36*
X988060Y519352D02*
X987024Y519146D01*
X985921Y518771D01*
X984875Y518256D01*
X983906Y517608D01*
X983030Y516840D01*
X982262Y515964D01*
X981615Y514995D01*
X981099Y513949D01*
X980724Y512846D01*
X980518Y511810D01*
X988060D01*
Y519352D01*
D02*
G37*
G36*
X990600D02*
Y511810D01*
X998141D01*
X997935Y512846D01*
X997561Y513949D01*
X997046Y514995D01*
X996398Y515964D01*
X995630Y516840D01*
X994753Y517608D01*
X993785Y518256D01*
X992739Y518771D01*
X991636Y519146D01*
X990600Y519352D01*
D02*
G37*
G36*
X998141Y509270D02*
X990600D01*
Y501729D01*
X991636Y501935D01*
X992739Y502309D01*
X993785Y502825D01*
X994753Y503472D01*
X995630Y504240D01*
X996398Y505117D01*
X997046Y506085D01*
X997561Y507131D01*
X997935Y508234D01*
X998141Y509270D01*
D02*
G37*
G36*
X988060D02*
X980518D01*
X980724Y508234D01*
X981099Y507131D01*
X981615Y506085D01*
X982262Y505117D01*
X983030Y504240D01*
X983906Y503472D01*
X984875Y502825D01*
X985921Y502309D01*
X987024Y501935D01*
X988060Y501729D01*
Y509270D01*
D02*
G37*
G36*
X938650Y822380D02*
X933880D01*
Y816610D01*
X938650D01*
Y822380D01*
D02*
G37*
G36*
X1031120Y826190D02*
X1026350D01*
Y820420D01*
X1031120D01*
Y826190D01*
D02*
G37*
G36*
X1171060Y621030D02*
X1166290D01*
Y615260D01*
X1171060D01*
Y621030D01*
D02*
G37*
G36*
X1156891Y619760D02*
X1149350D01*
Y612219D01*
X1150386Y612425D01*
X1151489Y612799D01*
X1152535Y613315D01*
X1153503Y613962D01*
X1154380Y614730D01*
X1155148Y615606D01*
X1155796Y616575D01*
X1156311Y617621D01*
X1156685Y618724D01*
X1156891Y619760D01*
D02*
G37*
G36*
X1171060Y629340D02*
X1166290D01*
Y623570D01*
X1171060D01*
Y629340D01*
D02*
G37*
G36*
X1149350Y629841D02*
Y622300D01*
X1156891D01*
X1156685Y623336D01*
X1156311Y624439D01*
X1155796Y625485D01*
X1155148Y626454D01*
X1154380Y627330D01*
X1153503Y628098D01*
X1152535Y628745D01*
X1151489Y629261D01*
X1150386Y629636D01*
X1149350Y629841D01*
D02*
G37*
G36*
X1158860Y605210D02*
X1153590D01*
Y599440D01*
X1158860D01*
Y605210D01*
D02*
G37*
G36*
X1168520Y814070D02*
X1163750D01*
Y808300D01*
X1168520D01*
Y814070D01*
D02*
G37*
G36*
X1165400Y805870D02*
X1160130D01*
Y800100D01*
X1165400D01*
Y805870D01*
D02*
G37*
G36*
X1171060Y850702D02*
Y843160D01*
X1178601D01*
X1178395Y844196D01*
X1178021Y845300D01*
X1177505Y846345D01*
X1176858Y847314D01*
X1176089Y848190D01*
X1175213Y848958D01*
X1174244Y849606D01*
X1173199Y850121D01*
X1172096Y850496D01*
X1171060Y850702D01*
D02*
G37*
G36*
X1178601Y840620D02*
X1171060D01*
Y833079D01*
X1172096Y833285D01*
X1173199Y833659D01*
X1174244Y834175D01*
X1175213Y834822D01*
X1176089Y835591D01*
X1176858Y836467D01*
X1177505Y837436D01*
X1178021Y838481D01*
X1178395Y839584D01*
X1178601Y840620D01*
D02*
G37*
G36*
X1198260Y868060D02*
X1181720D01*
Y851520D01*
X1198260D01*
Y868060D01*
D02*
G37*
G36*
X1215390Y868078D02*
X1214308Y868007D01*
X1213245Y867795D01*
X1212218Y867447D01*
X1211246Y866967D01*
X1210345Y866365D01*
X1209530Y865650D01*
X1208815Y864835D01*
X1208213Y863934D01*
X1207733Y862962D01*
X1207385Y861935D01*
X1207173Y860872D01*
X1207102Y859790D01*
X1207173Y858708D01*
X1207385Y857645D01*
X1207733Y856618D01*
X1208213Y855646D01*
X1208815Y854745D01*
X1209530Y853930D01*
X1210345Y853215D01*
X1211246Y852613D01*
X1212218Y852133D01*
X1213245Y851785D01*
X1214308Y851573D01*
X1215390Y851502D01*
X1216472Y851573D01*
X1217535Y851785D01*
X1218562Y852133D01*
X1219534Y852613D01*
X1220435Y853215D01*
X1221250Y853930D01*
X1221965Y854745D01*
X1222567Y855646D01*
X1223047Y856618D01*
X1223395Y857645D01*
X1223607Y858708D01*
X1223678Y859790D01*
X1223607Y860872D01*
X1223395Y861935D01*
X1223047Y862962D01*
X1222567Y863934D01*
X1221965Y864835D01*
X1221250Y865650D01*
X1220435Y866365D01*
X1219534Y866967D01*
X1218562Y867447D01*
X1217535Y867795D01*
X1216472Y868007D01*
X1215390Y868078D01*
D02*
G37*
G36*
X1260990Y826190D02*
X1256220D01*
Y820420D01*
X1260990D01*
Y826190D01*
D02*
G37*
G36*
X1175830Y814070D02*
X1171060D01*
Y808300D01*
X1175830D01*
Y814070D01*
D02*
G37*
G36*
Y822380D02*
X1171060D01*
Y816610D01*
X1175830D01*
Y822380D01*
D02*
G37*
G36*
X1092200Y520700D02*
X1084659D01*
X1084865Y519664D01*
X1085239Y518561D01*
X1085754Y517515D01*
X1086402Y516547D01*
X1087170Y515670D01*
X1088046Y514902D01*
X1089015Y514254D01*
X1090061Y513739D01*
X1091164Y513364D01*
X1092200Y513158D01*
Y520700D01*
D02*
G37*
G36*
X1102281D02*
X1094740D01*
Y513158D01*
X1095776Y513364D01*
X1096879Y513739D01*
X1097925Y514254D01*
X1098894Y514902D01*
X1099770Y515670D01*
X1100538Y516547D01*
X1101186Y517515D01*
X1101701Y518561D01*
X1102076Y519664D01*
X1102281Y520700D01*
D02*
G37*
G36*
X1092200Y530782D02*
X1091164Y530575D01*
X1090061Y530201D01*
X1089015Y529686D01*
X1088046Y529038D01*
X1087170Y528270D01*
X1086402Y527393D01*
X1085754Y526425D01*
X1085239Y525379D01*
X1084865Y524276D01*
X1084659Y523240D01*
X1092200D01*
Y530782D01*
D02*
G37*
G36*
X1094740D02*
Y523240D01*
X1102281D01*
X1102076Y524276D01*
X1101701Y525379D01*
X1101186Y526425D01*
X1100538Y527393D01*
X1099770Y528270D01*
X1098894Y529038D01*
X1097925Y529686D01*
X1096879Y530201D01*
X1095776Y530575D01*
X1094740Y530782D01*
D02*
G37*
G36*
X1101090Y570990D02*
X1091820D01*
Y553720D01*
X1101090D01*
Y570990D01*
D02*
G37*
G36*
Y551180D02*
X1091820D01*
Y533910D01*
X1101090D01*
Y551180D01*
D02*
G37*
G36*
X1284810Y762690D02*
X1279540D01*
Y756920D01*
X1284810D01*
Y762690D01*
D02*
G37*
G36*
Y754380D02*
X1279540D01*
Y748610D01*
X1284810D01*
Y754380D01*
D02*
G37*
G36*
X1277000D02*
X1271730D01*
Y748610D01*
X1277000D01*
Y754380D01*
D02*
G37*
G36*
X1265760Y741680D02*
X1260990D01*
Y735910D01*
X1264594Y735910D01*
X1264749D01*
X1265026Y735886D01*
X1265321Y734671D01*
X1264275Y734156D01*
X1263307Y733508D01*
X1262430Y732740D01*
X1261662Y731863D01*
X1261014Y730895D01*
X1260499Y729849D01*
X1260125Y728746D01*
X1259919Y727710D01*
X1267460D01*
Y735285D01*
X1266470Y735318D01*
X1265760Y736161D01*
X1265760Y736161D01*
X1265760Y736828D01*
Y741680D01*
D02*
G37*
G36*
X1336040D02*
X1326770D01*
Y724410D01*
X1336040D01*
Y741680D01*
D02*
G37*
G36*
Y761490D02*
X1326770D01*
Y744220D01*
X1336040D01*
Y761490D01*
D02*
G37*
G36*
X1270000Y735251D02*
Y727710D01*
X1277542D01*
X1277336Y728746D01*
X1276961Y729849D01*
X1276445Y730895D01*
X1275798Y731863D01*
X1275030Y732740D01*
X1274154Y733508D01*
X1273185Y734156D01*
X1272139Y734671D01*
X1271036Y735045D01*
X1270000Y735251D01*
D02*
G37*
G36*
X1277542Y725170D02*
X1270000D01*
Y717628D01*
X1271036Y717834D01*
X1272139Y718209D01*
X1273185Y718725D01*
X1274154Y719372D01*
X1275030Y720140D01*
X1275798Y721016D01*
X1276445Y721985D01*
X1276961Y723031D01*
X1277336Y724134D01*
X1277542Y725170D01*
D02*
G37*
G36*
X1267460D02*
X1259919D01*
X1260125Y724134D01*
X1260499Y723031D01*
X1261014Y721985D01*
X1261662Y721016D01*
X1262430Y720140D01*
X1263307Y719372D01*
X1264275Y718725D01*
X1265321Y718209D01*
X1266424Y717834D01*
X1267460Y717628D01*
Y725170D01*
D02*
G37*
G36*
X1037590Y675038D02*
X1036508Y674967D01*
X1035445Y674755D01*
X1034418Y674407D01*
X1033446Y673927D01*
X1032545Y673325D01*
X1031730Y672610D01*
X1031015Y671795D01*
X1030413Y670894D01*
X1029933Y669922D01*
X1029585Y668895D01*
X1029373Y667832D01*
X1029302Y666750D01*
X1029373Y665668D01*
X1029585Y664605D01*
X1029933Y663578D01*
X1030413Y662606D01*
X1031015Y661705D01*
X1031730Y660890D01*
X1032545Y660175D01*
X1033446Y659573D01*
X1034418Y659093D01*
X1035445Y658745D01*
X1036508Y658533D01*
X1037590Y658462D01*
X1038672Y658533D01*
X1039735Y658745D01*
X1040762Y659093D01*
X1041734Y659573D01*
X1042635Y660175D01*
X1043450Y660890D01*
X1044165Y661705D01*
X1044767Y662606D01*
X1045247Y663578D01*
X1045595Y664605D01*
X1045807Y665668D01*
X1045878Y666750D01*
X1045807Y667832D01*
X1045595Y668895D01*
X1045247Y669922D01*
X1044767Y670894D01*
X1044165Y671795D01*
X1043450Y672610D01*
X1042635Y673325D01*
X1041734Y673927D01*
X1040762Y674407D01*
X1039735Y674755D01*
X1038672Y674967D01*
X1037590Y675038D01*
D02*
G37*
G36*
X1013460D02*
X1012378Y674967D01*
X1011315Y674755D01*
X1010288Y674407D01*
X1009316Y673927D01*
X1008415Y673325D01*
X1007600Y672610D01*
X1006885Y671795D01*
X1006283Y670894D01*
X1005803Y669922D01*
X1005455Y668895D01*
X1005243Y667832D01*
X1005172Y666750D01*
X1005243Y665668D01*
X1005455Y664605D01*
X1005803Y663578D01*
X1006283Y662606D01*
X1006885Y661705D01*
X1007600Y660890D01*
X1008415Y660175D01*
X1009316Y659573D01*
X1010288Y659093D01*
X1011315Y658745D01*
X1012378Y658533D01*
X1013460Y658462D01*
X1014542Y658533D01*
X1015605Y658745D01*
X1016632Y659093D01*
X1017604Y659573D01*
X1018505Y660175D01*
X1019320Y660890D01*
X1020035Y661705D01*
X1020637Y662606D01*
X1021117Y663578D01*
X1021465Y664605D01*
X1021677Y665668D01*
X1021748Y666750D01*
X1021677Y667832D01*
X1021465Y668895D01*
X1021117Y669922D01*
X1020637Y670894D01*
X1020035Y671795D01*
X1019320Y672610D01*
X1018505Y673325D01*
X1017604Y673927D01*
X1016632Y674407D01*
X1015605Y674755D01*
X1014542Y674967D01*
X1013460Y675038D01*
D02*
G37*
G36*
X970930Y675020D02*
X954390D01*
Y658480D01*
X970930D01*
Y675020D01*
D02*
G37*
G36*
X988060Y675038D02*
X986978Y674967D01*
X985915Y674755D01*
X984888Y674407D01*
X983916Y673927D01*
X983015Y673325D01*
X982200Y672610D01*
X981485Y671795D01*
X980883Y670894D01*
X980403Y669922D01*
X980055Y668895D01*
X979843Y667832D01*
X979772Y666750D01*
X979843Y665668D01*
X980055Y664605D01*
X980403Y663578D01*
X980883Y662606D01*
X981485Y661705D01*
X982200Y660890D01*
X983015Y660175D01*
X983916Y659573D01*
X984888Y659093D01*
X985915Y658745D01*
X986978Y658533D01*
X988060Y658462D01*
X989142Y658533D01*
X990205Y658745D01*
X991232Y659093D01*
X992204Y659573D01*
X993105Y660175D01*
X993920Y660890D01*
X994635Y661705D01*
X995237Y662606D01*
X995717Y663578D01*
X996065Y664605D01*
X996277Y665668D01*
X996348Y666750D01*
X996277Y667832D01*
X996065Y668895D01*
X995717Y669922D01*
X995237Y670894D01*
X994635Y671795D01*
X993920Y672610D01*
X993105Y673325D01*
X992204Y673927D01*
X991232Y674407D01*
X990205Y674755D01*
X989142Y674967D01*
X988060Y675038D01*
D02*
G37*
G36*
X1040970Y633150D02*
X1036200D01*
Y627380D01*
X1040970D01*
Y633150D01*
D02*
G37*
G36*
X1033660D02*
X1028890D01*
Y627380D01*
X1033660D01*
Y633150D01*
D02*
G37*
G36*
X951230Y644462D02*
Y636920D01*
X958772D01*
X958566Y637956D01*
X958191Y639060D01*
X957675Y640105D01*
X957028Y641074D01*
X956260Y641950D01*
X955384Y642718D01*
X954415Y643366D01*
X953369Y643881D01*
X952266Y644256D01*
X951230Y644462D01*
D02*
G37*
G36*
X948690D02*
X947654Y644256D01*
X946551Y643881D01*
X945505Y643366D01*
X944537Y642718D01*
X943660Y641950D01*
X942892Y641074D01*
X942244Y640105D01*
X941729Y639060D01*
X941355Y637956D01*
X941149Y636920D01*
X948690D01*
Y644462D01*
D02*
G37*
G36*
X1057480Y561340D02*
X1052210D01*
Y555570D01*
X1057480D01*
Y561340D01*
D02*
G37*
G36*
X1049670D02*
X1044400D01*
Y555570D01*
X1049670D01*
Y561340D01*
D02*
G37*
%LPD*%
D10*
X1201820Y798670D02*
D03*
Y793670D02*
D03*
Y788670D02*
D03*
Y783670D02*
D03*
Y778670D02*
D03*
Y773670D02*
D03*
Y768670D02*
D03*
Y763670D02*
D03*
X1251820D02*
D03*
Y768670D02*
D03*
Y773670D02*
D03*
Y778670D02*
D03*
Y783670D02*
D03*
Y788670D02*
D03*
Y793670D02*
D03*
Y798670D02*
D03*
X971950D02*
D03*
Y793670D02*
D03*
Y788670D02*
D03*
Y783670D02*
D03*
Y778670D02*
D03*
Y773670D02*
D03*
Y768670D02*
D03*
Y763670D02*
D03*
X1021950D02*
D03*
Y768670D02*
D03*
Y773670D02*
D03*
Y778670D02*
D03*
Y783670D02*
D03*
Y788670D02*
D03*
Y793670D02*
D03*
Y798670D02*
D03*
X1204360Y605630D02*
D03*
Y600630D02*
D03*
Y595630D02*
D03*
Y590630D02*
D03*
Y585630D02*
D03*
Y580630D02*
D03*
Y575630D02*
D03*
Y570630D02*
D03*
X1254360D02*
D03*
Y575630D02*
D03*
Y580630D02*
D03*
Y585630D02*
D03*
Y590630D02*
D03*
Y595630D02*
D03*
Y600630D02*
D03*
Y605630D02*
D03*
X974490D02*
D03*
Y600630D02*
D03*
Y595630D02*
D03*
Y590630D02*
D03*
Y585630D02*
D03*
Y580630D02*
D03*
Y575630D02*
D03*
Y570630D02*
D03*
X1024490D02*
D03*
Y575630D02*
D03*
Y580630D02*
D03*
Y585630D02*
D03*
Y590630D02*
D03*
Y595630D02*
D03*
Y600630D02*
D03*
Y605630D02*
D03*
D11*
X1209320Y756170D02*
D03*
X1214320D02*
D03*
X1219320D02*
D03*
X1224320D02*
D03*
X1229320D02*
D03*
X1234320D02*
D03*
X1239320D02*
D03*
X1244320D02*
D03*
Y806170D02*
D03*
X1239320D02*
D03*
X1234320D02*
D03*
X1229320D02*
D03*
X1224320D02*
D03*
X1219320D02*
D03*
X1214320D02*
D03*
X1209320D02*
D03*
X979450Y756170D02*
D03*
X984450D02*
D03*
X989450D02*
D03*
X994450D02*
D03*
X999450D02*
D03*
X1004450D02*
D03*
X1009450D02*
D03*
X1014450D02*
D03*
Y806170D02*
D03*
X1009450D02*
D03*
X1004450D02*
D03*
X999450D02*
D03*
X994450D02*
D03*
X989450D02*
D03*
X984450D02*
D03*
X979450D02*
D03*
X1211860Y563130D02*
D03*
X1216860D02*
D03*
X1221860D02*
D03*
X1226860D02*
D03*
X1231860D02*
D03*
X1236860D02*
D03*
X1241860D02*
D03*
X1246860D02*
D03*
Y613130D02*
D03*
X1241860D02*
D03*
X1236860D02*
D03*
X1231860D02*
D03*
X1226860D02*
D03*
X1221860D02*
D03*
X1216860D02*
D03*
X1211860D02*
D03*
X981990Y563130D02*
D03*
X986990D02*
D03*
X991990D02*
D03*
X996990D02*
D03*
X1001990D02*
D03*
X1006990D02*
D03*
X1011990D02*
D03*
X1016990D02*
D03*
Y613130D02*
D03*
X1011990D02*
D03*
X1006990D02*
D03*
X1001990D02*
D03*
X996990D02*
D03*
X991990D02*
D03*
X986990D02*
D03*
X981990D02*
D03*
D12*
X1226820Y781170D02*
D03*
X996950D02*
D03*
X1229360Y588130D02*
D03*
X999490D02*
D03*
D13*
X984250Y743600D02*
D03*
Y729600D02*
D03*
X971550Y729600D02*
D03*
Y743600D02*
D03*
X957580Y766460D02*
D03*
Y752460D02*
D03*
X1189990Y573420D02*
D03*
Y559420D02*
D03*
X1203960Y536560D02*
D03*
Y550560D02*
D03*
X1216660Y550560D02*
D03*
Y536560D02*
D03*
X960120Y573420D02*
D03*
Y559420D02*
D03*
X974090Y536560D02*
D03*
Y550560D02*
D03*
X986790Y550560D02*
D03*
Y536560D02*
D03*
X1187450Y766460D02*
D03*
Y752460D02*
D03*
X1201420Y729600D02*
D03*
Y743600D02*
D03*
X1214120Y743600D02*
D03*
Y729600D02*
D03*
D14*
X939180Y793750D02*
D03*
X925180D02*
D03*
X1034400Y755650D02*
D03*
X1048400D02*
D03*
X1266810Y562610D02*
D03*
X1280810D02*
D03*
X1174130Y598170D02*
D03*
X1160130D02*
D03*
X1036940Y562610D02*
D03*
X1050940D02*
D03*
X962040Y599440D02*
D03*
X948040D02*
D03*
X1264270Y755650D02*
D03*
X1278270D02*
D03*
X1172860Y798830D02*
D03*
X1158860D02*
D03*
D15*
X876700Y500380D02*
D03*
Y551180D02*
D03*
D16*
X774700Y525780D02*
D03*
D17*
X1014850Y742950D02*
D03*
X1029850D02*
D03*
X942460Y778510D02*
D03*
X957460D02*
D03*
X939920Y815340D02*
D03*
X954920D02*
D03*
X1032390Y819150D02*
D03*
X1017390D02*
D03*
X1264800Y626110D02*
D03*
X1249800D02*
D03*
X1172330Y622300D02*
D03*
X1187330D02*
D03*
X1177410Y586740D02*
D03*
X1192410D02*
D03*
X1247260Y549910D02*
D03*
X1262260D02*
D03*
X1034930Y626110D02*
D03*
X1019930D02*
D03*
X942460Y622300D02*
D03*
X957460D02*
D03*
X947540Y586740D02*
D03*
X962540D02*
D03*
X1017390Y549910D02*
D03*
X1032390D02*
D03*
X1262260Y819150D02*
D03*
X1247260D02*
D03*
X1169790Y815340D02*
D03*
X1184790D02*
D03*
X1174870Y779780D02*
D03*
X1189870D02*
D03*
X1244720Y742950D02*
D03*
X1259720D02*
D03*
D18*
X1009650Y716400D02*
D03*
Y731400D02*
D03*
X896620Y806570D02*
D03*
Y821570D02*
D03*
Y739260D02*
D03*
Y754260D02*
D03*
X1242060Y523360D02*
D03*
Y538360D02*
D03*
X1012190Y523360D02*
D03*
Y538360D02*
D03*
X1239520Y716400D02*
D03*
Y731400D02*
D03*
X896620Y890270D02*
D03*
Y875270D02*
D03*
X910590Y530740D02*
D03*
Y515740D02*
D03*
D19*
X1102360Y603250D02*
D03*
Y552450D02*
D03*
X1336040Y598170D02*
D03*
Y547370D02*
D03*
X1099820Y795020D02*
D03*
Y744220D02*
D03*
X1337310Y793750D02*
D03*
Y742950D02*
D03*
X871220Y668020D02*
D03*
Y617220D02*
D03*
D20*
X974490Y580630D02*
X991990D01*
X1006990D02*
X1024490D01*
X971950Y773670D02*
X989450D01*
X1004450D02*
X1021950D01*
X1204360Y580630D02*
X1221860D01*
X1236860D02*
X1254360D01*
X1201820Y773670D02*
X1219320D01*
X1234320D02*
X1251820D01*
X909574Y512064D02*
Y515740D01*
X999490Y588130D02*
X1006990Y580630D01*
X991990D02*
X999490Y588130D01*
X996950Y781170D02*
X1004450Y773670D01*
X989450D02*
X996950Y781170D01*
X1226820D02*
X1234320Y773670D01*
X1219320D02*
X1226820Y781170D01*
X1221860Y580630D02*
X1229360Y588130D01*
X1236860Y580630D01*
X1272540Y626110D02*
X1276350Y622300D01*
X1264800Y626110D02*
X1272540D01*
X1271270Y802768D02*
Y836676D01*
X1275080Y801189D02*
Y874268D01*
X1278890Y799611D02*
Y889000D01*
X1270762Y802260D02*
X1271270Y802768D01*
X1274572Y800682D02*
X1275080Y801189D01*
X1278382Y799103D02*
X1278890Y799611D01*
X1252220Y855726D02*
X1271270Y836676D01*
X1186053Y791900D02*
X1189284Y788670D01*
X1201820D01*
X962660D02*
X971950D01*
X824230Y907034D02*
X846836Y929640D01*
X824230Y759460D02*
Y907034D01*
Y759460D02*
X849630Y734060D01*
X1182939Y649671D02*
X1195517D01*
X1177290Y655320D02*
X1182939Y649671D01*
X1177290Y655320D02*
Y719074D01*
X1194816Y736600D01*
X1252220Y855726D02*
Y878078D01*
X935990Y842010D02*
X1025652D01*
X913130Y819150D02*
X935990Y842010D01*
X1228598Y447040D02*
X1235710Y454152D01*
X1203960Y447040D02*
X1228598D01*
X1235710Y454152D02*
Y507492D01*
X1241044Y512826D01*
X1141730Y789220D02*
X1146810Y794300D01*
Y926592D01*
X1147064Y926846D01*
X1146260Y789220D02*
X1154512Y780968D01*
X1141730Y789220D02*
X1146260D01*
X1324610Y942340D02*
X1337310Y929640D01*
Y876300D02*
Y929640D01*
Y876300D02*
X1360170Y853440D01*
X1191260Y929640D02*
X1235710D01*
X1184910Y935990D02*
X1191260Y929640D01*
X1184910Y935990D02*
Y952380D01*
X1172210Y937260D02*
X1184910Y924560D01*
X1172210Y937260D02*
Y942340D01*
X1184910Y904748D02*
Y924560D01*
X1269492Y874268D02*
X1275080D01*
X1235710Y908050D02*
X1269492Y874268D01*
X1261110Y906780D02*
X1278890Y889000D01*
X1261110Y906780D02*
Y929640D01*
X1273810Y942340D01*
X1235710Y908050D02*
Y929640D01*
X1207270Y550560D02*
Y553870D01*
X977400Y550560D02*
Y553870D01*
X961110Y778670D02*
X971950D01*
X959790Y768670D02*
X971950D01*
X957580Y766460D02*
X959790Y768670D01*
X971550Y743600D02*
X979450Y751500D01*
X1009450Y756170D02*
X1014450D01*
X954920Y815340D02*
X975360D01*
X957580Y752460D02*
X968790Y763670D01*
X1219320Y756170D02*
X1224320D01*
X1187450Y752460D02*
X1198660Y763670D01*
X1205230Y815340D02*
X1209040Y811530D01*
X1239320Y756170D02*
X1244320D01*
X1201420Y743600D02*
X1209320Y751500D01*
X1187450Y766460D02*
X1189660Y768670D01*
X1201820D01*
X1190980Y778670D02*
X1201820D01*
X1221860Y563130D02*
X1226860D01*
X1207770Y622300D02*
X1211580Y618490D01*
X1241860Y563130D02*
X1246860D01*
X1189990Y573420D02*
X1192200Y575630D01*
X1204360D01*
X1193520Y585630D02*
X1204360D01*
X996990Y538560D02*
X1012190Y523360D01*
X991990Y563130D02*
X996990D01*
X960120Y559420D02*
X971329Y570630D01*
X977900Y622300D02*
X981710Y618490D01*
X957460Y622300D02*
X977900D01*
X1011990Y563130D02*
X1016990D01*
X960120Y573420D02*
X962330Y575630D01*
X974490D01*
X963650Y585630D02*
X974490D01*
X1244320Y816210D02*
X1247260Y819150D01*
X1244320Y806170D02*
Y816210D01*
X1014450D02*
X1017390Y819150D01*
X1014450Y806170D02*
Y816210D01*
X1246860Y623170D02*
X1249800Y626110D01*
X1246860Y613130D02*
Y623170D01*
X1016990D02*
X1019930Y626110D01*
X1016990Y613130D02*
Y623170D01*
X1198660Y763670D02*
X1201820D01*
X1209320Y751500D02*
Y756170D01*
X1214320Y743800D02*
Y756170D01*
X1214120Y743600D02*
X1214320Y743800D01*
X968790Y763670D02*
X971950D01*
X979450Y751500D02*
Y756170D01*
X984450Y743800D02*
Y756170D01*
X984250Y743600D02*
X984450Y743800D01*
X1216860Y550760D02*
Y563130D01*
X1216660Y550560D02*
X1216860Y550760D01*
X971329Y570630D02*
X974490D01*
X986990Y550760D02*
Y563130D01*
X986790Y550560D02*
X986990Y550760D01*
X965850Y595630D02*
X974490D01*
X962040Y599440D02*
X965850Y595630D01*
X989450Y756170D02*
X994450D01*
Y731600D02*
X1009650Y716400D01*
X1226860Y538560D02*
X1242060Y523360D01*
X1226860Y538560D02*
Y563130D01*
X849630Y734060D02*
X870458D01*
X875658Y739260D01*
X896620D01*
X849630Y801370D02*
X870458D01*
X875658Y806570D01*
X896620D01*
X1244320Y756170D02*
X1253998D01*
X1254518Y755650D01*
X1016990Y563130D02*
X1026668D01*
X1027188Y562610D01*
X896620Y821570D02*
Y875270D01*
Y754260D02*
X903732Y761372D01*
Y814458D01*
X896620Y821570D02*
X903732Y814458D01*
X1009343Y745436D02*
X1012364D01*
X1004450Y750328D02*
Y756170D01*
X1003046Y538360D02*
X1012190D01*
X1001990Y539416D02*
X1003046Y538360D01*
X1230376Y731400D02*
X1239520D01*
X1229320Y732456D02*
X1230376Y731400D01*
X1239213Y745436D02*
X1242234D01*
X1234320Y750328D02*
Y756170D01*
X1232916Y538360D02*
X1242060D01*
X1231860Y539416D02*
X1232916Y538360D01*
X897890Y500380D02*
X909574Y512064D01*
Y515740D02*
X910590D01*
X849630Y868680D02*
X871220Y890270D01*
X896620D01*
X1040384Y523360D02*
X1070610Y493134D01*
X1012190Y523360D02*
X1040384D01*
X1201199Y570630D02*
X1204360D01*
X1189990Y559420D02*
X1201199Y570630D01*
X1012190Y538360D02*
X1021468D01*
X1021080Y559308D02*
X1023620Y556768D01*
X1016990Y559308D02*
Y563130D01*
X1009650Y731400D02*
X1016896D01*
X1014450Y752348D02*
Y756170D01*
X1239520Y731400D02*
X1246766D01*
X1244320Y752348D02*
Y756170D01*
X1242060Y538360D02*
X1247648D01*
X1246860Y559308D02*
Y563130D01*
X981990Y558460D02*
Y563130D01*
X977400Y553870D02*
X981990Y558460D01*
X974090Y550560D02*
X977400D01*
X1211860Y558460D02*
Y563130D01*
X1207270Y553870D02*
X1211860Y558460D01*
X1203960Y550560D02*
X1207270D01*
X1251820Y763670D02*
X1269492D01*
X979450Y622300D02*
X981990Y619760D01*
Y613130D02*
Y619760D01*
X1224280Y731012D02*
Y733552D01*
X1070610Y558038D02*
X1087120Y574548D01*
X994450Y739180D02*
Y756170D01*
X991616Y736346D02*
X994450Y739180D01*
X1131570Y942340D02*
X1147064Y926846D01*
X1154512Y764712D02*
Y780968D01*
Y764712D02*
X1158494Y760730D01*
X1167892D01*
X1183926Y776765D01*
X1209320Y806170D02*
Y813028D01*
X1207008Y815340D02*
X1209320Y813028D01*
X979450Y806170D02*
Y811250D01*
X849630Y801370D02*
X863346Y815086D01*
Y874776D01*
X872744Y884174D01*
X1058164D01*
X1068070Y894080D01*
Y929640D02*
X1080770Y942340D01*
X846836Y929640D02*
X1042670D01*
X1055370Y942340D01*
X992164Y543814D02*
X996990Y548640D01*
X907662Y754260D02*
X926592Y735330D01*
X1021950Y763670D02*
X1041038D01*
X1192410Y586740D02*
X1193520Y585630D01*
X1189870Y779780D02*
X1190980Y778670D01*
X960000Y779780D02*
X961110Y778670D01*
X1061104Y570630D02*
X1077976Y587502D01*
X1024490Y570630D02*
X1061104D01*
X953008Y825246D02*
X972820D01*
X962540Y586486D02*
Y586740D01*
X962667Y586613D01*
X950468Y733552D02*
Y773176D01*
X955962Y778670D01*
X1136650Y605790D02*
X1162812Y579628D01*
X1136650Y605790D02*
Y784140D01*
X1141730Y789220D01*
X1241044Y523360D02*
X1242060D01*
X936419Y712137D02*
X960628Y736346D01*
X947540Y586740D02*
Y587756D01*
X1166368Y952380D02*
X1184910D01*
X1221272Y736600D02*
X1224320Y739648D01*
X1181290Y635443D02*
X1195517Y649671D01*
X1177410Y586740D02*
Y589534D01*
X1205230Y815340D02*
X1207008D01*
X1234320Y750328D02*
X1239213Y745436D01*
X1242234D02*
X1244720Y742950D01*
X975360Y815340D02*
X979450Y811250D01*
X1004450Y750328D02*
X1009343Y745436D01*
X1012364D02*
X1014850Y742950D01*
X1244774Y552396D02*
X1247260Y549910D01*
X977900Y622300D02*
X979450D01*
X1229320Y732456D02*
Y756170D01*
X1254518Y755650D02*
X1263650D01*
X1264270D01*
X1253998Y756170D02*
X1263130D01*
X1263650Y755650D01*
X1033780D02*
X1034400D01*
X1033260Y756170D02*
X1033780Y755650D01*
X1231860Y539416D02*
Y563130D01*
X1266190Y562610D02*
X1266810D01*
X1265670Y563130D02*
X1266190Y562610D01*
X1203960Y550560D02*
X1207270Y553870D01*
X1001990Y539416D02*
Y563130D01*
X1016990Y559308D02*
X1021080D01*
X1027188Y562610D02*
X1036320D01*
X1036940D01*
X1026668Y563130D02*
X1035800D01*
X1036320Y562610D01*
X974090Y550560D02*
X977400Y553870D01*
X962540Y586486D02*
X962814Y586466D01*
X962667Y586613D02*
X962814Y586466D01*
X963650Y585630D01*
X876700Y500380D02*
X897890D01*
X920496D01*
X996990Y538560D02*
Y548640D01*
Y563130D01*
X1070610Y459740D02*
Y493134D01*
Y558038D01*
X896620Y754260D02*
X907662D01*
X929132D01*
X994450Y731600D02*
Y739180D01*
X1224320Y731600D02*
Y739648D01*
X1162050Y736600D02*
X1194816D01*
X1221272D01*
X1224320Y739648D02*
Y756170D01*
X741680Y525780D02*
X774700D01*
X871220Y688340D02*
Y692150D01*
X1254360Y570630D02*
X1351680D01*
X1360170Y579120D01*
Y853440D01*
X961898Y690880D02*
X962660Y690118D01*
X1056004D01*
X1062990Y683132D01*
X1254360Y595630D02*
X1263650D01*
X1254360Y585630D02*
X1267492D01*
X1254360Y575630D02*
X1262880D01*
X1207770Y622300D02*
X1209320D01*
X1211860Y619760D01*
Y613130D02*
Y619760D01*
X1162812Y579628D02*
X1184106D01*
X1184438Y579960D01*
X1192410D01*
Y586740D01*
X1268602Y778510D02*
X1273810Y783718D01*
X1264150Y768670D02*
X1277620Y782140D01*
X1251820Y778670D02*
X1251980Y778510D01*
X1268602D01*
X1251820Y768670D02*
X1264150D01*
X1269492Y763670D02*
X1281430Y775608D01*
X1160780Y946792D02*
X1166368Y952380D01*
X1160780Y828040D02*
Y946792D01*
X1155700Y822960D02*
X1160780Y828040D01*
X1162860Y791790D02*
X1174870Y779780D01*
X1153808Y791790D02*
X1162860D01*
X1150620Y794978D02*
X1153808Y791790D01*
X1150620Y794978D02*
Y817880D01*
X1155700Y822960D01*
X913130Y787400D02*
Y819150D01*
Y787400D02*
X920750Y779780D01*
X945960Y818198D02*
X953008Y825246D01*
X945960Y809788D02*
Y818198D01*
X1021468Y538360D02*
X1023620Y540512D01*
Y556768D01*
X1262880Y575630D02*
X1289050Y601800D01*
X1253998Y640588D02*
X1265682D01*
X1267492Y585630D02*
X1285240Y603378D01*
X1280032Y631190D02*
X1285240Y625982D01*
X1275080Y631190D02*
X1280032D01*
X1265682Y640588D02*
X1275080Y631190D01*
X1285240Y603378D02*
Y625982D01*
X1195517Y649671D02*
X1273109D01*
X1289050Y633730D01*
Y601800D02*
Y633730D01*
X1184790Y815340D02*
X1205230D01*
X1169140Y589810D02*
X1174340D01*
X1177410Y586740D01*
X1062990Y660146D02*
X1087120Y636016D01*
X1062990Y660146D02*
Y675640D01*
Y683132D01*
Y675640D02*
X1064260Y674370D01*
X1076960D01*
X1219320Y811530D02*
Y816135D01*
X989450Y806170D02*
Y815220D01*
X1068070Y894080D02*
Y929640D01*
X933608Y785622D02*
X955548D01*
X957580Y783590D01*
X1004450Y806170D02*
Y816490D01*
X1004570Y816610D01*
X969170Y798670D02*
X971950D01*
X1234320Y806170D02*
Y815220D01*
X1234440Y815340D01*
X1221860Y613130D02*
Y620910D01*
X1221740Y621030D02*
X1221860Y620910D01*
X1236860Y613130D02*
Y620844D01*
X1236980Y620964D01*
X926592Y656082D02*
Y735330D01*
X942086Y543814D02*
X992164D01*
X936419Y645589D02*
Y712137D01*
X930910Y648970D02*
Y713994D01*
X950468Y733552D01*
X914400Y584200D02*
Y632460D01*
X930910Y648970D01*
X1167130Y591820D02*
X1169140Y589810D01*
X1167130Y591820D02*
Y603262D01*
X1021950Y788670D02*
X1032510D01*
X1099820Y858520D02*
Y859790D01*
X1021950Y768670D02*
X1040384D01*
X1021950Y778670D02*
X1036574D01*
X1057910Y780542D02*
Y793750D01*
X1037237Y793397D02*
X1039213D01*
X1032510Y788670D02*
X1037237Y793397D01*
X1041038Y763670D02*
X1057910Y780542D01*
X1040384Y768670D02*
X1049020Y777306D01*
Y818642D01*
X1025652Y842010D02*
X1049020Y818642D01*
X1036320Y562610D02*
X1037590Y561340D01*
X962040Y599440D02*
Y600213D01*
X952653Y609600D02*
X962040Y600213D01*
X919480Y593090D02*
X924814Y587756D01*
X919480Y593090D02*
Y628650D01*
X936419Y645589D01*
X914400Y584200D02*
X922020Y576580D01*
X951188D01*
X954568Y579960D01*
X955760D01*
X962540Y586740D01*
X908050Y577850D02*
X942086Y543814D01*
X908050Y577850D02*
Y637540D01*
X926592Y656082D01*
X1270762Y795400D02*
Y802260D01*
Y795400D02*
X1273810Y792352D01*
X1274572Y796979D02*
Y800682D01*
Y796979D02*
X1277620Y793931D01*
X1278382Y798557D02*
Y799103D01*
Y798557D02*
X1281430Y795509D01*
X1273810Y783718D02*
Y792352D01*
X1277620Y782140D02*
Y793931D01*
X1281430Y775608D02*
Y795509D01*
X1251820Y788670D02*
X1251820Y788670D01*
X1264920D01*
X1024490Y595630D02*
X1035050D01*
X1040130Y600710D01*
X1042670D01*
X1024490Y575630D02*
X1048070D01*
X1069848Y597408D01*
X1024490Y585630D02*
X1049020D01*
X1055370Y606298D02*
X1067308Y618236D01*
X1049020Y585630D02*
Y590550D01*
X1055370Y596900D01*
Y606298D01*
X1069848Y597408D02*
X1087120D01*
Y636016D01*
Y574548D02*
Y597408D01*
X940082Y803910D02*
X945960Y809788D01*
X932640Y803910D02*
X940082D01*
X932640Y786590D02*
X933608Y785622D01*
X932640Y786590D02*
Y803910D01*
X929132Y754260D02*
X943725Y768853D01*
X999450Y741600D02*
Y756170D01*
Y741600D02*
X1009650Y731400D01*
X1006990Y549910D02*
X1017390D01*
X1006990D02*
Y563130D01*
X1236860Y552396D02*
Y563130D01*
Y552396D02*
X1244774D01*
X1247648Y538360D02*
X1254979Y545691D01*
Y563024D01*
X1254873Y563130D02*
X1254979Y563024D01*
X1246860Y563130D02*
X1254873D01*
X1265670D01*
X1266190Y562610D02*
X1267460Y561340D01*
X1246766Y731400D02*
X1253060Y737694D01*
Y755232D01*
X1253998Y756170D01*
X1263650Y755650D02*
X1264920Y754380D01*
X1016896Y731400D02*
X1023179Y737683D01*
Y755493D01*
X1023855Y756170D01*
X1014450D02*
X1023855D01*
X1033260D01*
X1033780Y755650D02*
X1035050Y754380D01*
X961898Y690880D02*
Y734691D01*
X960628Y736346D02*
X963553D01*
X991616D01*
X961898Y734691D02*
X963553Y736346D01*
X1167130Y603262D02*
X1169078Y605210D01*
X1172399D01*
X1181290Y614100D01*
Y635443D01*
X1187330Y622300D02*
X1187903Y622873D01*
X1207197D02*
X1207770Y622300D01*
X1187903Y622873D02*
X1207197D01*
X1192984Y595630D02*
X1204360D01*
X1187160Y601453D02*
X1192984Y595630D01*
X1224280Y731012D02*
X1238892Y716400D01*
X1239520D01*
X924814Y587756D02*
X947540D01*
X920750Y779780D02*
X943725D01*
Y768853D02*
Y779780D01*
X1241044Y512826D02*
Y523360D01*
X1183926Y776765D02*
X1188419D01*
X962540Y586486D02*
X962667Y586613D01*
X955962Y778670D02*
X961110D01*
X956310Y795020D02*
X962660Y788670D01*
X1184910Y904748D02*
X1203644Y886014D01*
X1244284D01*
X1252220Y878078D01*
D21*
X741680Y525780D02*
Y641858D01*
X862330Y701040D02*
X871220Y692150D01*
X799084Y701040D02*
X862330D01*
X767080Y733044D02*
X799084Y701040D01*
X1187704Y447802D02*
X1191260Y451358D01*
X1101344Y447802D02*
X1187704D01*
X1191260Y523860D02*
X1203960Y536560D01*
X1191260Y451358D02*
Y523860D01*
X933450Y875030D02*
X1099820D01*
X928370Y869950D02*
X933450Y875030D01*
X1108710Y511556D02*
X1116838Y519684D01*
X1108710Y455168D02*
Y511556D01*
X1101344Y447802D02*
X1108710Y455168D01*
X1337310Y793750D02*
Y855726D01*
Y792988D02*
Y793750D01*
X871220Y668020D02*
Y688340D01*
Y666496D02*
Y668020D01*
X990600Y621877D02*
X991990Y620487D01*
X767080Y667258D02*
Y698500D01*
Y733044D02*
Y749300D01*
X1336040Y598170D02*
Y680720D01*
X871220Y666496D02*
X884936Y652780D01*
X904748D01*
X1102360Y683768D02*
X1114298Y695706D01*
X1099820Y794258D02*
X1114298Y779780D01*
X974090Y457200D02*
X983488Y447802D01*
X974090Y457200D02*
Y536560D01*
X1116838Y519684D02*
Y588010D01*
X1102360Y602488D02*
X1116838Y588010D01*
X971550Y707136D02*
Y729600D01*
X1324864Y868172D02*
X1337310Y855726D01*
X1286002Y877824D02*
X1295654Y868172D01*
X1286002Y877824D02*
Y948436D01*
X1276470Y957968D02*
X1286002Y948436D01*
X1125100Y957968D02*
X1276470D01*
X1118108Y950976D02*
X1125100Y957968D01*
X1118108Y905002D02*
Y950976D01*
X1099820Y886714D02*
X1118108Y905002D01*
X1006990Y620487D02*
X1007110Y620607D01*
Y628650D01*
X1028700Y611124D02*
X1032764D01*
X990600Y621877D02*
X991990Y620487D01*
X753364Y885444D02*
X768350Y900430D01*
X753364Y763016D02*
Y885444D01*
Y763016D02*
X767080Y749300D01*
X1028700Y607060D02*
X1032764Y611124D01*
X990600Y621877D02*
Y621877D01*
Y627380D01*
X983488Y447802D02*
X1101344D01*
X741680Y641858D02*
X767080Y667258D01*
X1337310Y792988D02*
X1351788Y778510D01*
Y696468D02*
Y778510D01*
X934720Y609600D02*
X952653D01*
X906780Y652780D02*
X914400Y660400D01*
X904748Y652780D02*
X906780D01*
X1073303Y701040D02*
X1082141D01*
X1084681Y698500D01*
X1113028D01*
X1114298Y699770D01*
Y695706D02*
Y699770D01*
Y779780D01*
X971550Y707136D02*
X980186Y698500D01*
X1070763D01*
X1073303Y701040D01*
X1102360Y602488D02*
Y603250D01*
Y608330D01*
Y683768D01*
X1301750Y855980D02*
Y866902D01*
X1300480Y868172D02*
X1301750Y866902D01*
X1295654Y868172D02*
X1300480D01*
X1324864D01*
X1172860Y798830D02*
X1179124D01*
X1186053Y791900D01*
X1099820Y794258D02*
Y795020D01*
Y875030D02*
Y886714D01*
X1216660Y818795D02*
Y824230D01*
Y818795D02*
X1219320Y816135D01*
X1004570Y816610D02*
Y824230D01*
X989450Y815220D02*
Y824901D01*
X990049Y825500D01*
X949960Y795020D02*
X956310D01*
X963098Y804742D02*
X964368D01*
X967740Y801370D01*
X1234440Y815340D02*
Y821690D01*
X1258259Y802329D02*
X1262380Y806450D01*
X1254760Y802329D02*
X1258259D01*
X1195508Y804742D02*
X1197610Y802640D01*
X1200150D01*
X1192968Y804742D02*
X1195508D01*
X1220470Y622300D02*
Y627380D01*
Y622300D02*
X1221740Y621030D01*
X1236980Y620964D02*
Y628650D01*
X1200150Y608330D02*
X1202690D01*
X1259840D02*
X1264920Y613410D01*
X1256030Y608330D02*
X1259840D01*
X1029697Y806450D02*
X1032510D01*
X1024617Y801370D02*
X1029697Y806450D01*
X1023620Y801370D02*
X1024617D01*
X896620Y570963D02*
X931024Y536560D01*
X974090D01*
X896620Y570963D02*
Y644652D01*
X904748Y652780D01*
X1099820Y795020D02*
Y858520D01*
Y859790D02*
Y875030D01*
X1089660Y848360D02*
X1099820Y858520D01*
X965638Y611702D02*
X969010Y608330D01*
X971550D01*
X1032764Y611124D02*
X1035050Y613410D01*
X939180Y793750D02*
X948690D01*
X949960Y795020D01*
X1336040Y680720D02*
X1351788Y696468D01*
X1333071Y683689D02*
X1336040Y680720D01*
X1294130Y660400D02*
Y682611D01*
X1293052Y683689D02*
X1294130Y682611D01*
X1205151Y683689D02*
X1293052D01*
X1333071D01*
X1201420Y687421D02*
Y729600D01*
Y687421D02*
X1205151Y683689D01*
X1174130Y598170D02*
X1187160D01*
X1102360Y608330D02*
X1120140D01*
D22*
X849630Y734060D02*
D03*
Y801370D02*
D03*
Y868680D02*
D03*
X765810Y600710D02*
D03*
D23*
X849630Y759460D02*
D03*
Y826770D02*
D03*
Y894080D02*
D03*
X765810Y626110D02*
D03*
D24*
X1240790Y859790D02*
D03*
X1215390D02*
D03*
X1264920D02*
D03*
X1010920D02*
D03*
X985520D02*
D03*
X1035050D02*
D03*
X1243330Y666750D02*
D03*
X1217930D02*
D03*
X1267460D02*
D03*
X1013460D02*
D03*
X988060D02*
D03*
X1037590D02*
D03*
D25*
X1189990Y859790D02*
D03*
X960120D02*
D03*
X1192530Y666750D02*
D03*
X962660D02*
D03*
D26*
X768350Y849630D02*
D03*
X767080Y698500D02*
D03*
D27*
X768350Y900430D02*
D03*
X767080Y749300D02*
D03*
D28*
X1172210Y942340D02*
D03*
X1197610D02*
D03*
X1223010D02*
D03*
X1248410D02*
D03*
X1273810D02*
D03*
X1299210D02*
D03*
X1324610D02*
D03*
X1106170D02*
D03*
X1055370D02*
D03*
X1029970D02*
D03*
X1004570D02*
D03*
X979170D02*
D03*
X953770D02*
D03*
X928370D02*
D03*
X902970D02*
D03*
X1080770D02*
D03*
X1172210Y916940D02*
D03*
X1197610D02*
D03*
X1223010D02*
D03*
X1248410D02*
D03*
X1273810D02*
D03*
X1299210D02*
D03*
X1324610D02*
D03*
X953770D02*
D03*
X979170D02*
D03*
X1004570D02*
D03*
X1029970D02*
D03*
X1055370D02*
D03*
X1080770D02*
D03*
X1106170D02*
D03*
X1223010Y459740D02*
D03*
X1248410D02*
D03*
X1273810D02*
D03*
X1299210D02*
D03*
X1324610D02*
D03*
X994410D02*
D03*
X1019810D02*
D03*
X1045210D02*
D03*
X1070610D02*
D03*
X1096010D02*
D03*
X1121410D02*
D03*
X1146810D02*
D03*
X1223010Y485140D02*
D03*
X1248410D02*
D03*
X1273810D02*
D03*
X1299210D02*
D03*
X1324610D02*
D03*
X1146810D02*
D03*
X1121410D02*
D03*
X1096010D02*
D03*
D29*
X1350010Y942340D02*
D03*
X1131570D02*
D03*
X1350010Y916940D02*
D03*
X1131570D02*
D03*
X1350010Y459740D02*
D03*
X1172210D02*
D03*
X1350010Y485140D02*
D03*
X1172210D02*
D03*
D30*
X1203960Y447040D02*
D03*
X1215390Y792600D02*
D03*
X1226820Y781170D02*
D03*
Y792600D02*
D03*
X1215390Y781170D02*
D03*
Y769740D02*
D03*
X1226820D02*
D03*
X1238250D02*
D03*
Y781170D02*
D03*
Y792600D02*
D03*
X985520D02*
D03*
X996950Y781170D02*
D03*
Y792600D02*
D03*
X985520Y781170D02*
D03*
Y769740D02*
D03*
X996950D02*
D03*
X1008380D02*
D03*
Y781170D02*
D03*
Y792600D02*
D03*
X1217930Y599560D02*
D03*
X1229360Y588130D02*
D03*
Y599560D02*
D03*
X1217930Y588130D02*
D03*
Y576700D02*
D03*
X1229360D02*
D03*
X1240790D02*
D03*
Y588130D02*
D03*
Y599560D02*
D03*
X988060D02*
D03*
X999490Y588130D02*
D03*
Y599560D02*
D03*
X988060Y588130D02*
D03*
Y576700D02*
D03*
X999490D02*
D03*
X1010920D02*
D03*
Y588130D02*
D03*
Y599560D02*
D03*
X920496Y500380D02*
D03*
D31*
X1234440Y821690D02*
D03*
X1007110Y628650D02*
D03*
X1264920Y613410D02*
D03*
X1032510Y806450D02*
D03*
X990600Y627380D02*
D03*
X1253998Y640588D02*
D03*
X1077976Y587502D02*
D03*
X1067308Y618236D02*
D03*
X972820Y825246D02*
D03*
X1162050Y736600D02*
D03*
X965638Y611702D02*
D03*
X934720Y609600D02*
D03*
X914400Y660400D02*
D03*
X1267460Y598170D02*
D03*
X1220470Y627380D02*
D03*
X1236980Y628650D02*
D03*
X1294130Y660400D02*
D03*
X1120140Y608330D02*
D03*
X1301750Y855980D02*
D03*
X1186053Y791900D02*
D03*
X1155700Y822960D02*
D03*
X1169790Y841890D02*
D03*
X1101090Y770890D02*
D03*
X922020Y802640D02*
D03*
X928370Y869950D02*
D03*
X963098Y804742D02*
D03*
X1032510Y534670D02*
D03*
X1268730Y726440D02*
D03*
Y530860D02*
D03*
X1042670Y734060D02*
D03*
X1276350Y622300D02*
D03*
X949960Y635650D02*
D03*
X989330Y510540D02*
D03*
X1148080Y621030D02*
D03*
X1093470Y521970D02*
D03*
X1262380Y806450D02*
D03*
X1192968Y804742D02*
D03*
X1076960Y674370D02*
D03*
X1216660Y824230D02*
D03*
X1004570D02*
D03*
X990049Y825500D02*
D03*
X949960Y795020D02*
D03*
X1036574Y778670D02*
D03*
X1089660Y848360D02*
D03*
X1039213Y793397D02*
D03*
X1057910Y793750D02*
D03*
X1264920Y788670D02*
D03*
X1035050Y613410D02*
D03*
X1042670Y600710D02*
D03*
X1199059Y613983D02*
D03*
X1187160Y601453D02*
D03*
M02*
