G04 Layer_Physical_Order=1*
G04 Layer_Color=255*
%FSLAX44Y44*%
%MOMM*%
G71*
G01*
G75*
%ADD10R,4.1500X1.0500*%
%ADD11R,8.8000X9.6000*%
%ADD12R,0.7000X0.9000*%
%ADD13R,0.8000X0.9000*%
%ADD14R,3.2000X1.6000*%
%ADD15R,0.9000X0.7000*%
%ADD16R,1.0000X0.2500*%
%ADD17R,0.2500X1.0000*%
%ADD18R,3.4000X3.4000*%
%ADD19C,0.2540*%
%ADD20C,0.6096*%
%ADD21C,0.0127*%
%ADD22C,0.0254*%
%ADD23C,1.4000*%
%ADD24R,1.2000X1.2000*%
%ADD25C,1.9000*%
%ADD26R,1.8000X1.8000*%
%ADD27R,1.5000X1.5000*%
%ADD28C,1.5000*%
%ADD29R,1.6000X1.6000*%
%ADD30C,1.7000*%
%ADD31C,1.2700*%
G36*
X1403350Y967740D02*
Y435610D01*
X716280D01*
X716173Y435503D01*
X714998Y435985D01*
X711206Y968109D01*
X712101Y969010D01*
X1402080D01*
X1403350Y967740D01*
D02*
G37*
%LPC*%
G36*
X1306830Y530926D02*
X1304841Y530664D01*
X1302987Y529896D01*
X1301395Y528675D01*
X1300174Y527083D01*
X1299406Y525229D01*
X1299144Y523240D01*
X1299406Y521251D01*
X1300174Y519397D01*
X1301395Y517805D01*
X1302987Y516584D01*
X1304841Y515816D01*
X1306830Y515554D01*
X1308819Y515816D01*
X1310673Y516584D01*
X1312265Y517805D01*
X1313486Y519397D01*
X1314254Y521251D01*
X1314516Y523240D01*
X1314254Y525229D01*
X1313486Y527083D01*
X1312265Y528675D01*
X1310673Y529896D01*
X1308819Y530664D01*
X1306830Y530926D01*
D02*
G37*
G36*
X1332230D02*
X1330241Y530664D01*
X1328387Y529896D01*
X1326795Y528675D01*
X1325574Y527083D01*
X1324806Y525229D01*
X1324544Y523240D01*
X1324806Y521251D01*
X1325574Y519397D01*
X1326795Y517805D01*
X1328387Y516584D01*
X1330241Y515816D01*
X1332230Y515554D01*
X1334219Y515816D01*
X1336073Y516584D01*
X1337665Y517805D01*
X1338886Y519397D01*
X1339654Y521251D01*
X1339916Y523240D01*
X1339654Y525229D01*
X1338886Y527083D01*
X1337665Y528675D01*
X1336073Y529896D01*
X1334219Y530664D01*
X1332230Y530926D01*
D02*
G37*
G36*
X1231900D02*
X1229911Y530664D01*
X1228057Y529896D01*
X1226465Y528675D01*
X1225244Y527083D01*
X1224476Y525229D01*
X1224214Y523240D01*
X1224476Y521251D01*
X1225244Y519397D01*
X1226465Y517805D01*
X1228057Y516584D01*
X1229911Y515816D01*
X1231900Y515554D01*
X1233889Y515816D01*
X1235743Y516584D01*
X1237335Y517805D01*
X1238556Y519397D01*
X1239324Y521251D01*
X1239586Y523240D01*
X1239324Y525229D01*
X1238556Y527083D01*
X1237335Y528675D01*
X1235743Y529896D01*
X1233889Y530664D01*
X1231900Y530926D01*
D02*
G37*
G36*
X1259840D02*
X1257851Y530664D01*
X1255997Y529896D01*
X1254405Y528675D01*
X1253184Y527083D01*
X1252416Y525229D01*
X1252154Y523240D01*
X1252416Y521251D01*
X1253184Y519397D01*
X1254405Y517805D01*
X1255997Y516584D01*
X1257851Y515816D01*
X1259840Y515554D01*
X1261829Y515816D01*
X1263683Y516584D01*
X1265275Y517805D01*
X1266496Y519397D01*
X1267264Y521251D01*
X1267526Y523240D01*
X1267264Y525229D01*
X1266496Y527083D01*
X1265275Y528675D01*
X1263683Y529896D01*
X1261829Y530664D01*
X1259840Y530926D01*
D02*
G37*
G36*
X1049020Y533466D02*
X1047031Y533204D01*
X1045177Y532436D01*
X1043585Y531215D01*
X1042364Y529623D01*
X1041596Y527769D01*
X1041334Y525780D01*
X1041596Y523791D01*
X1042364Y521937D01*
X1043585Y520345D01*
X1045177Y519124D01*
X1047031Y518356D01*
X1049020Y518094D01*
X1051009Y518356D01*
X1052863Y519124D01*
X1054455Y520345D01*
X1055676Y521937D01*
X1056444Y523791D01*
X1056706Y525780D01*
X1056444Y527769D01*
X1055676Y529623D01*
X1054455Y531215D01*
X1052863Y532436D01*
X1051009Y533204D01*
X1049020Y533466D01*
D02*
G37*
G36*
X1296670Y546821D02*
X1294511Y546537D01*
X1292499Y545704D01*
X1290772Y544378D01*
X1289446Y542651D01*
X1288613Y540639D01*
X1288329Y538480D01*
X1288613Y536321D01*
X1289446Y534309D01*
X1290772Y532582D01*
X1292499Y531256D01*
X1294511Y530423D01*
X1296670Y530139D01*
X1298829Y530423D01*
X1300841Y531256D01*
X1302568Y532582D01*
X1303894Y534309D01*
X1304727Y536321D01*
X1305011Y538480D01*
X1304727Y540639D01*
X1303894Y542651D01*
X1302568Y544378D01*
X1300841Y545704D01*
X1298829Y546537D01*
X1296670Y546821D01*
D02*
G37*
G36*
X1320800D02*
X1318641Y546537D01*
X1316629Y545704D01*
X1314902Y544378D01*
X1313576Y542651D01*
X1312743Y540639D01*
X1312459Y538480D01*
X1312743Y536321D01*
X1313576Y534309D01*
X1314902Y532582D01*
X1316629Y531256D01*
X1318641Y530423D01*
X1320800Y530139D01*
X1322959Y530423D01*
X1324971Y531256D01*
X1326698Y532582D01*
X1328024Y534309D01*
X1328857Y536321D01*
X1329141Y538480D01*
X1328857Y540639D01*
X1328024Y542651D01*
X1326698Y544378D01*
X1324971Y545704D01*
X1322959Y546537D01*
X1320800Y546821D01*
D02*
G37*
G36*
X1123950Y533466D02*
X1121961Y533204D01*
X1120107Y532436D01*
X1118515Y531215D01*
X1117294Y529623D01*
X1116526Y527769D01*
X1116264Y525780D01*
X1116526Y523791D01*
X1117294Y521937D01*
X1118515Y520345D01*
X1120107Y519124D01*
X1121961Y518356D01*
X1123950Y518094D01*
X1125939Y518356D01*
X1127793Y519124D01*
X1129385Y520345D01*
X1130606Y521937D01*
X1131374Y523791D01*
X1131636Y525780D01*
X1131374Y527769D01*
X1130606Y529623D01*
X1129385Y531215D01*
X1127793Y532436D01*
X1125939Y533204D01*
X1123950Y533466D01*
D02*
G37*
G36*
X1271270Y546821D02*
X1269111Y546537D01*
X1267099Y545704D01*
X1265372Y544378D01*
X1264046Y542651D01*
X1263213Y540639D01*
X1262929Y538480D01*
X1263213Y536321D01*
X1264046Y534309D01*
X1265372Y532582D01*
X1267099Y531256D01*
X1269111Y530423D01*
X1271270Y530139D01*
X1273429Y530423D01*
X1275441Y531256D01*
X1277168Y532582D01*
X1278494Y534309D01*
X1279327Y536321D01*
X1279611Y538480D01*
X1279327Y540639D01*
X1278494Y542651D01*
X1277168Y544378D01*
X1275441Y545704D01*
X1273429Y546537D01*
X1271270Y546821D01*
D02*
G37*
G36*
X1146810Y493986D02*
X1144521Y493684D01*
X1142387Y492801D01*
X1140555Y491395D01*
X1139149Y489563D01*
X1138266Y487429D01*
X1137964Y485140D01*
X1138266Y482851D01*
X1139149Y480717D01*
X1140555Y478885D01*
X1142387Y477479D01*
X1144521Y476596D01*
X1146810Y476294D01*
X1149099Y476596D01*
X1151233Y477479D01*
X1153065Y478885D01*
X1154471Y480717D01*
X1155354Y482851D01*
X1155656Y485140D01*
X1155354Y487429D01*
X1154471Y489563D01*
X1153065Y491395D01*
X1151233Y492801D01*
X1149099Y493684D01*
X1146810Y493986D01*
D02*
G37*
G36*
X1223010D02*
X1220721Y493684D01*
X1218587Y492801D01*
X1216755Y491395D01*
X1215349Y489563D01*
X1214466Y487429D01*
X1214164Y485140D01*
X1214466Y482851D01*
X1215349Y480717D01*
X1216755Y478885D01*
X1218587Y477479D01*
X1220721Y476596D01*
X1223010Y476294D01*
X1225299Y476596D01*
X1227433Y477479D01*
X1229265Y478885D01*
X1230671Y480717D01*
X1231554Y482851D01*
X1231856Y485140D01*
X1231554Y487429D01*
X1230671Y489563D01*
X1229265Y491395D01*
X1227433Y492801D01*
X1225299Y493684D01*
X1223010Y493986D01*
D02*
G37*
G36*
X1096010D02*
X1093721Y493684D01*
X1091587Y492801D01*
X1089755Y491395D01*
X1088349Y489563D01*
X1087466Y487429D01*
X1087164Y485140D01*
X1087466Y482851D01*
X1088349Y480717D01*
X1089755Y478885D01*
X1091587Y477479D01*
X1093721Y476596D01*
X1096010Y476294D01*
X1098299Y476596D01*
X1100433Y477479D01*
X1102265Y478885D01*
X1103671Y480717D01*
X1104554Y482851D01*
X1104856Y485140D01*
X1104554Y487429D01*
X1103671Y489563D01*
X1102265Y491395D01*
X1100433Y492801D01*
X1098299Y493684D01*
X1096010Y493986D01*
D02*
G37*
G36*
X1121410D02*
X1119121Y493684D01*
X1116987Y492801D01*
X1115155Y491395D01*
X1113749Y489563D01*
X1112866Y487429D01*
X1112564Y485140D01*
X1112866Y482851D01*
X1113749Y480717D01*
X1115155Y478885D01*
X1116987Y477479D01*
X1119121Y476596D01*
X1121410Y476294D01*
X1123699Y476596D01*
X1125833Y477479D01*
X1127665Y478885D01*
X1129071Y480717D01*
X1129954Y482851D01*
X1130256Y485140D01*
X1129954Y487429D01*
X1129071Y489563D01*
X1127665Y491395D01*
X1125833Y492801D01*
X1123699Y493684D01*
X1121410Y493986D01*
D02*
G37*
G36*
X1248410D02*
X1246121Y493684D01*
X1243987Y492801D01*
X1242155Y491395D01*
X1240749Y489563D01*
X1239866Y487429D01*
X1239564Y485140D01*
X1239866Y482851D01*
X1240749Y480717D01*
X1242155Y478885D01*
X1243987Y477479D01*
X1246121Y476596D01*
X1248410Y476294D01*
X1250699Y476596D01*
X1252833Y477479D01*
X1254665Y478885D01*
X1256071Y480717D01*
X1256954Y482851D01*
X1257256Y485140D01*
X1256954Y487429D01*
X1256071Y489563D01*
X1254665Y491395D01*
X1252833Y492801D01*
X1250699Y493684D01*
X1248410Y493986D01*
D02*
G37*
G36*
X1324610D02*
X1322321Y493684D01*
X1320187Y492801D01*
X1318355Y491395D01*
X1316949Y489563D01*
X1316066Y487429D01*
X1315764Y485140D01*
X1316066Y482851D01*
X1316949Y480717D01*
X1318355Y478885D01*
X1320187Y477479D01*
X1322321Y476596D01*
X1324610Y476294D01*
X1326899Y476596D01*
X1329033Y477479D01*
X1330865Y478885D01*
X1332271Y480717D01*
X1333154Y482851D01*
X1333456Y485140D01*
X1333154Y487429D01*
X1332271Y489563D01*
X1330865Y491395D01*
X1329033Y492801D01*
X1326899Y493684D01*
X1324610Y493986D01*
D02*
G37*
G36*
X1094740Y530926D02*
X1092751Y530664D01*
X1090897Y529896D01*
X1089305Y528675D01*
X1088084Y527083D01*
X1087316Y525229D01*
X1087054Y523240D01*
X1087316Y521251D01*
X1088084Y519397D01*
X1089305Y517805D01*
X1090897Y516584D01*
X1092751Y515816D01*
X1094740Y515554D01*
X1096729Y515816D01*
X1098583Y516584D01*
X1100175Y517805D01*
X1101396Y519397D01*
X1102164Y521251D01*
X1102426Y523240D01*
X1102164Y525229D01*
X1101396Y527083D01*
X1100175Y528675D01*
X1098583Y529896D01*
X1096729Y530664D01*
X1094740Y530926D01*
D02*
G37*
G36*
X1273810Y493986D02*
X1271521Y493684D01*
X1269387Y492801D01*
X1267555Y491395D01*
X1266149Y489563D01*
X1265266Y487429D01*
X1264964Y485140D01*
X1265266Y482851D01*
X1266149Y480717D01*
X1267555Y478885D01*
X1269387Y477479D01*
X1271521Y476596D01*
X1273810Y476294D01*
X1276099Y476596D01*
X1278233Y477479D01*
X1280065Y478885D01*
X1281471Y480717D01*
X1282354Y482851D01*
X1282656Y485140D01*
X1282354Y487429D01*
X1281471Y489563D01*
X1280065Y491395D01*
X1278233Y492801D01*
X1276099Y493684D01*
X1273810Y493986D01*
D02*
G37*
G36*
X1299210D02*
X1296921Y493684D01*
X1294787Y492801D01*
X1292955Y491395D01*
X1291549Y489563D01*
X1290666Y487429D01*
X1290364Y485140D01*
X1290666Y482851D01*
X1291549Y480717D01*
X1292955Y478885D01*
X1294787Y477479D01*
X1296921Y476596D01*
X1299210Y476294D01*
X1301499Y476596D01*
X1303633Y477479D01*
X1305465Y478885D01*
X1306871Y480717D01*
X1307754Y482851D01*
X1308056Y485140D01*
X1307754Y487429D01*
X1306871Y489563D01*
X1305465Y491395D01*
X1303633Y492801D01*
X1301499Y493684D01*
X1299210Y493986D01*
D02*
G37*
G36*
X943470Y582930D02*
X938650D01*
Y577110D01*
X940880D01*
X941871Y577307D01*
X942711Y577869D01*
X943272Y578709D01*
X943470Y579700D01*
Y582930D01*
D02*
G37*
G36*
X936110Y591290D02*
X933880D01*
X932889Y591093D01*
X932049Y590531D01*
X931487Y589691D01*
X931290Y588700D01*
Y585470D01*
X936110D01*
Y591290D01*
D02*
G37*
G36*
X1361010Y625635D02*
X1354010D01*
X1353038Y625232D01*
X1352635Y624260D01*
Y615260D01*
X1353038Y614288D01*
X1354010Y613885D01*
X1354920D01*
Y581977D01*
X1353667Y581458D01*
X1352076Y580237D01*
X1350854Y578645D01*
X1350086Y576791D01*
X1349824Y574802D01*
X1350086Y572813D01*
X1350854Y570959D01*
X1352076Y569367D01*
X1353667Y568146D01*
X1355521Y567378D01*
X1357510Y567116D01*
X1359499Y567378D01*
X1361353Y568146D01*
X1362945Y569367D01*
X1364166Y570959D01*
X1364934Y572813D01*
X1365196Y574802D01*
X1364934Y576791D01*
X1364166Y578645D01*
X1362945Y580237D01*
X1361353Y581458D01*
X1360100Y581977D01*
Y613885D01*
X1361010D01*
X1361982Y614288D01*
X1362385Y615260D01*
Y624260D01*
X1361982Y625232D01*
X1361010Y625635D01*
D02*
G37*
G36*
X936110Y582930D02*
X931290D01*
Y579700D01*
X931487Y578709D01*
X932049Y577869D01*
X932889Y577307D01*
X933880Y577110D01*
X936110D01*
Y582930D01*
D02*
G37*
G36*
X940880Y591290D02*
X938650D01*
Y585470D01*
X943470D01*
Y588700D01*
X943272Y589691D01*
X942711Y590531D01*
X941871Y591093D01*
X940880Y591290D01*
D02*
G37*
G36*
X1361010Y643042D02*
X1358780D01*
Y637223D01*
X1363600D01*
Y640452D01*
X1363403Y641443D01*
X1362841Y642284D01*
X1362001Y642845D01*
X1361010Y643042D01*
D02*
G37*
G36*
X1363600Y650875D02*
X1358780D01*
Y645055D01*
X1361010D01*
X1362001Y645252D01*
X1362841Y645814D01*
X1363403Y646654D01*
X1363600Y647645D01*
Y650875D01*
D02*
G37*
G36*
X750570Y610564D02*
X748019Y610229D01*
X745643Y609244D01*
X743602Y607678D01*
X742036Y605637D01*
X741051Y603260D01*
X740716Y600710D01*
X741051Y598159D01*
X742036Y595783D01*
X743602Y593742D01*
X745643Y592176D01*
X748019Y591191D01*
X750570Y590856D01*
X753120Y591191D01*
X755497Y592176D01*
X757538Y593742D01*
X759104Y595783D01*
X760089Y598159D01*
X760424Y600710D01*
X760089Y603260D01*
X759104Y605637D01*
X757538Y607678D01*
X755497Y609244D01*
X753120Y610229D01*
X750570Y610564D01*
D02*
G37*
G36*
X1363600Y634683D02*
X1358780D01*
Y628863D01*
X1361010D01*
X1362001Y629060D01*
X1362841Y629621D01*
X1363403Y630462D01*
X1363600Y631452D01*
Y634683D01*
D02*
G37*
G36*
X1109980Y548091D02*
X1107821Y547807D01*
X1105809Y546974D01*
X1104082Y545648D01*
X1102756Y543921D01*
X1101923Y541909D01*
X1101639Y539750D01*
X1101923Y537591D01*
X1102756Y535579D01*
X1104082Y533852D01*
X1105809Y532526D01*
X1107821Y531693D01*
X1109980Y531409D01*
X1112139Y531693D01*
X1114151Y532526D01*
X1115878Y533852D01*
X1117204Y535579D01*
X1118037Y537591D01*
X1118321Y539750D01*
X1118037Y541909D01*
X1117204Y543921D01*
X1115878Y545648D01*
X1114151Y546974D01*
X1112139Y547807D01*
X1109980Y548091D01*
D02*
G37*
G36*
X1041050Y547125D02*
X1029050D01*
X1028078Y546722D01*
X1027675Y545750D01*
Y534328D01*
X1026872Y533931D01*
X1026405Y533839D01*
X1024923Y534976D01*
X1023069Y535744D01*
X1021080Y536006D01*
X1019091Y535744D01*
X1017237Y534976D01*
X1015645Y533755D01*
X1014424Y532163D01*
X1013656Y530309D01*
X1013394Y528320D01*
X1013656Y526331D01*
X1014424Y524477D01*
X1015645Y522885D01*
X1017237Y521664D01*
X1019091Y520896D01*
X1021080Y520634D01*
X1023069Y520896D01*
X1024923Y521664D01*
X1026515Y522885D01*
X1027736Y524477D01*
X1028504Y526331D01*
X1028766Y528320D01*
X1028504Y530309D01*
X1028045Y531417D01*
X1029017Y532389D01*
X1029050Y532375D01*
X1041050D01*
X1042022Y532778D01*
X1042425Y533750D01*
Y545750D01*
X1042022Y546722D01*
X1041050Y547125D01*
D02*
G37*
G36*
X1251870Y545855D02*
X1239870D01*
X1238898Y545452D01*
X1238495Y544480D01*
Y532480D01*
X1238898Y531508D01*
X1239870Y531105D01*
X1251870D01*
X1252842Y531508D01*
X1253245Y532480D01*
Y544480D01*
X1252842Y545452D01*
X1251870Y545855D01*
D02*
G37*
G36*
X1085850Y548091D02*
X1083691Y547807D01*
X1081679Y546974D01*
X1079952Y545648D01*
X1078626Y543921D01*
X1077793Y541909D01*
X1077509Y539750D01*
X1077793Y537591D01*
X1078626Y535579D01*
X1079952Y533852D01*
X1081679Y532526D01*
X1083691Y531693D01*
X1085850Y531409D01*
X1088009Y531693D01*
X1090021Y532526D01*
X1091748Y533852D01*
X1093074Y535579D01*
X1093907Y537591D01*
X1094191Y539750D01*
X1093907Y541909D01*
X1093074Y543921D01*
X1091748Y545648D01*
X1090021Y546974D01*
X1088009Y547807D01*
X1085850Y548091D01*
D02*
G37*
G36*
X941470Y546100D02*
X919400D01*
Y542120D01*
X919598Y541129D01*
X920159Y540289D01*
X920999Y539727D01*
X921990Y539530D01*
X941470D01*
Y546100D01*
D02*
G37*
G36*
X943102Y571616D02*
Y564087D01*
X950631D01*
X950493Y565137D01*
X949597Y567300D01*
X948172Y569157D01*
X946315Y570582D01*
X944153Y571478D01*
X943102Y571616D01*
D02*
G37*
G36*
X758570Y584685D02*
X742570D01*
X741598Y584282D01*
X741195Y583310D01*
Y567310D01*
X741598Y566338D01*
X742570Y565935D01*
X758570D01*
X759542Y566338D01*
X759945Y567310D01*
Y583310D01*
X759542Y584282D01*
X758570Y584685D01*
D02*
G37*
G36*
X955880Y590075D02*
X948880D01*
X947908Y589672D01*
X947505Y588700D01*
Y579700D01*
X947908Y578728D01*
X948880Y578325D01*
X953576D01*
X970324Y561578D01*
X969868Y560237D01*
X968790Y560095D01*
X966627Y559199D01*
X964770Y557774D01*
X963345Y555917D01*
X963052Y555210D01*
X948497D01*
X948089Y556412D01*
X948172Y556476D01*
X949597Y558333D01*
X950493Y560496D01*
X950631Y561547D01*
X933033D01*
X933171Y560496D01*
X934067Y558333D01*
X935492Y556476D01*
X935575Y556412D01*
X935167Y555210D01*
X921990D01*
X920999Y555013D01*
X920159Y554451D01*
X919598Y553611D01*
X919400Y552620D01*
Y548640D01*
X942740D01*
Y547370D01*
X944010D01*
Y539530D01*
X963490D01*
X964481Y539727D01*
X965322Y540289D01*
X965883Y541129D01*
X966080Y542120D01*
Y542556D01*
X967350Y543369D01*
X968790Y542773D01*
X969841Y542635D01*
Y551434D01*
X972381D01*
Y542635D01*
X973431Y542773D01*
X975594Y543669D01*
X977451Y545094D01*
X978876Y546951D01*
X979628Y548767D01*
X980898Y548514D01*
Y538713D01*
X956511Y514325D01*
X955949Y513485D01*
X955752Y512494D01*
Y503195D01*
X921990D01*
X921018Y502792D01*
X920616Y501820D01*
Y491320D01*
X921018Y490348D01*
X921990Y489945D01*
X963490D01*
X964462Y490348D01*
X964538Y490532D01*
X964853Y490699D01*
X966038Y490857D01*
X967268Y489914D01*
X969121Y489146D01*
X971111Y488884D01*
X973100Y489146D01*
X974953Y489914D01*
X976545Y491135D01*
X977767Y492727D01*
X978534Y494581D01*
X978796Y496570D01*
X978534Y498559D01*
X977767Y500413D01*
X976545Y502005D01*
X974953Y503226D01*
X973100Y503994D01*
X971111Y504256D01*
X969121Y503994D01*
X967268Y503226D01*
X966038Y502283D01*
X964853Y502441D01*
X964538Y502608D01*
X964462Y502792D01*
X963490Y503195D01*
X960932D01*
Y511422D01*
X985319Y535809D01*
X985881Y536649D01*
X986078Y537640D01*
Y552076D01*
X985881Y553067D01*
X985319Y553907D01*
X957255Y581972D01*
Y588700D01*
X956852Y589672D01*
X955880Y590075D01*
D02*
G37*
G36*
X940562Y571616D02*
X939511Y571478D01*
X937349Y570582D01*
X935492Y569157D01*
X934067Y567300D01*
X933171Y565137D01*
X933033Y564087D01*
X940562D01*
Y571616D01*
D02*
G37*
G36*
X1357510Y494015D02*
X1342510D01*
X1341538Y493612D01*
X1341135Y492640D01*
Y477640D01*
X1341538Y476668D01*
X1342510Y476265D01*
X1357510D01*
X1358482Y476668D01*
X1358885Y477640D01*
Y492640D01*
X1358482Y493612D01*
X1357510Y494015D01*
D02*
G37*
G36*
X1156769Y458470D02*
X1148080D01*
Y449781D01*
X1149431Y449958D01*
X1151873Y450970D01*
X1153971Y452579D01*
X1155580Y454677D01*
X1156592Y457119D01*
X1156769Y458470D01*
D02*
G37*
G36*
X1357510Y951215D02*
X1342510D01*
X1341538Y950812D01*
X1341135Y949840D01*
Y934840D01*
X1341538Y933868D01*
X1342510Y933465D01*
X1357510D01*
X1358482Y933868D01*
X1358885Y934840D01*
Y949840D01*
X1358482Y950812D01*
X1357510Y951215D01*
D02*
G37*
G36*
X1145540Y458470D02*
X1136851D01*
X1137028Y457119D01*
X1138040Y454677D01*
X1139649Y452579D01*
X1141747Y450970D01*
X1144189Y449958D01*
X1145540Y449781D01*
Y458470D01*
D02*
G37*
G36*
X1131369D02*
X1122680D01*
Y449781D01*
X1124031Y449958D01*
X1126473Y450970D01*
X1128571Y452579D01*
X1130180Y454677D01*
X1131192Y457119D01*
X1131369Y458470D01*
D02*
G37*
G36*
X1179710Y468615D02*
X1164710D01*
X1163738Y468212D01*
X1163335Y467240D01*
Y452240D01*
X1163738Y451268D01*
X1164710Y450865D01*
X1179710D01*
X1180682Y451268D01*
X1181085Y452240D01*
Y467240D01*
X1180682Y468212D01*
X1179710Y468615D01*
D02*
G37*
G36*
X1172210Y925786D02*
X1169921Y925484D01*
X1167787Y924601D01*
X1165955Y923195D01*
X1164549Y921363D01*
X1163666Y919229D01*
X1163364Y916940D01*
X1163666Y914651D01*
X1164549Y912517D01*
X1165955Y910685D01*
X1167787Y909279D01*
X1169921Y908396D01*
X1172210Y908094D01*
X1174499Y908396D01*
X1176633Y909279D01*
X1178465Y910685D01*
X1179871Y912517D01*
X1180754Y914651D01*
X1181056Y916940D01*
X1180754Y919229D01*
X1179871Y921363D01*
X1178465Y923195D01*
X1176633Y924601D01*
X1174499Y925484D01*
X1172210Y925786D01*
D02*
G37*
G36*
X994410Y468586D02*
X992121Y468284D01*
X989987Y467401D01*
X988155Y465995D01*
X986749Y464163D01*
X985866Y462029D01*
X985564Y459740D01*
X985866Y457451D01*
X986749Y455317D01*
X988155Y453485D01*
X989987Y452079D01*
X992121Y451196D01*
X994410Y450894D01*
X996699Y451196D01*
X998833Y452079D01*
X1000665Y453485D01*
X1002071Y455317D01*
X1002954Y457451D01*
X1003256Y459740D01*
X1002954Y462029D01*
X1002071Y464163D01*
X1000665Y465995D01*
X998833Y467401D01*
X996699Y468284D01*
X994410Y468586D01*
D02*
G37*
G36*
X1357510Y468615D02*
X1342510D01*
X1341538Y468212D01*
X1341135Y467240D01*
Y452240D01*
X1341538Y451268D01*
X1342510Y450865D01*
X1357510D01*
X1358482Y451268D01*
X1358885Y452240D01*
Y467240D01*
X1358482Y468212D01*
X1357510Y468615D01*
D02*
G37*
G36*
X1223010Y925786D02*
X1220721Y925484D01*
X1218587Y924601D01*
X1216755Y923195D01*
X1215349Y921363D01*
X1214466Y919229D01*
X1214164Y916940D01*
X1214466Y914651D01*
X1215349Y912517D01*
X1216755Y910685D01*
X1218587Y909279D01*
X1220721Y908396D01*
X1223010Y908094D01*
X1225299Y908396D01*
X1227433Y909279D01*
X1229265Y910685D01*
X1230671Y912517D01*
X1231554Y914651D01*
X1231856Y916940D01*
X1231554Y919229D01*
X1230671Y921363D01*
X1229265Y923195D01*
X1227433Y924601D01*
X1225299Y925484D01*
X1223010Y925786D01*
D02*
G37*
G36*
X1299210Y951186D02*
X1296921Y950884D01*
X1294787Y950001D01*
X1292955Y948595D01*
X1291549Y946763D01*
X1290666Y944629D01*
X1290364Y942340D01*
X1290666Y940051D01*
X1291549Y937917D01*
X1292955Y936085D01*
X1294787Y934679D01*
X1296921Y933796D01*
X1299210Y933494D01*
X1301499Y933796D01*
X1303633Y934679D01*
X1305465Y936085D01*
X1306871Y937917D01*
X1307754Y940051D01*
X1308056Y942340D01*
X1307754Y944629D01*
X1306871Y946763D01*
X1305465Y948595D01*
X1303633Y950001D01*
X1301499Y950884D01*
X1299210Y951186D01*
D02*
G37*
G36*
X1273810D02*
X1271521Y950884D01*
X1269387Y950001D01*
X1267555Y948595D01*
X1266149Y946763D01*
X1265266Y944629D01*
X1264964Y942340D01*
X1265266Y940051D01*
X1266149Y937917D01*
X1267555Y936085D01*
X1269387Y934679D01*
X1271521Y933796D01*
X1273810Y933494D01*
X1276099Y933796D01*
X1278233Y934679D01*
X1280065Y936085D01*
X1281471Y937917D01*
X1282354Y940051D01*
X1282656Y942340D01*
X1282354Y944629D01*
X1281471Y946763D01*
X1280065Y948595D01*
X1278233Y950001D01*
X1276099Y950884D01*
X1273810Y951186D01*
D02*
G37*
G36*
X1151121Y964368D02*
X1004958D01*
X1003967Y964171D01*
X1003127Y963609D01*
X992632Y953114D01*
X989637Y956109D01*
X988797Y956671D01*
X987806Y956868D01*
X820928D01*
X819937Y956671D01*
X819097Y956109D01*
X772522Y909535D01*
X756810D01*
X755838Y909132D01*
X755435Y908160D01*
Y895012D01*
X744155Y883731D01*
X743201Y882303D01*
X742865Y880618D01*
Y751332D01*
X743201Y749647D01*
X744155Y748219D01*
X757975Y734398D01*
Y721250D01*
X758378Y720278D01*
X759350Y719875D01*
X765760D01*
Y710692D01*
X765957Y709701D01*
X766519Y708861D01*
X828241Y647139D01*
X829081Y646577D01*
X830072Y646380D01*
X842415D01*
Y640970D01*
X842818Y639998D01*
X843790Y639595D01*
X865502D01*
X877009Y628089D01*
X877849Y627527D01*
X878840Y627330D01*
X929583D01*
X985213Y571701D01*
X986053Y571139D01*
X987044Y570942D01*
X1033018D01*
X1034009Y571139D01*
X1034849Y571701D01*
X1036373Y573225D01*
X1036935Y574065D01*
X1037132Y575056D01*
Y605028D01*
X1036935Y606019D01*
X1036373Y606859D01*
X1020755Y622478D01*
Y625784D01*
X1020352Y626755D01*
X1019380Y627158D01*
X1017970D01*
Y630903D01*
X1019380D01*
X1020352Y631306D01*
X1020755Y632278D01*
Y641278D01*
X1021633Y642073D01*
X1022708Y642155D01*
X1030025Y634839D01*
X1030865Y634277D01*
X1031856Y634080D01*
X1037986D01*
X1038070Y634045D01*
X1047945D01*
Y632002D01*
X1041908D01*
X1040917Y631805D01*
X1040077Y631243D01*
X1038436Y629602D01*
X1037623Y630226D01*
X1035769Y630994D01*
X1033780Y631256D01*
X1031791Y630994D01*
X1029937Y630226D01*
X1028345Y629005D01*
X1027124Y627413D01*
X1026356Y625559D01*
X1026094Y623570D01*
X1026356Y621581D01*
X1027124Y619727D01*
X1028345Y618135D01*
X1029937Y616914D01*
X1031791Y616146D01*
X1033780Y615884D01*
X1035769Y616146D01*
X1037623Y616914D01*
X1039215Y618135D01*
X1040436Y619727D01*
X1041204Y621581D01*
X1041466Y623570D01*
X1041264Y625105D01*
X1042981Y626822D01*
X1047945D01*
Y624170D01*
X1048348Y623198D01*
X1049320Y622795D01*
X1049406D01*
X1049907Y621525D01*
X1048968Y620301D01*
X1048200Y618447D01*
X1047938Y616458D01*
X1048200Y614469D01*
X1048968Y612615D01*
X1050189Y611023D01*
X1051781Y609802D01*
X1053635Y609034D01*
X1055624Y608772D01*
X1057613Y609034D01*
X1059467Y609802D01*
X1061059Y611023D01*
X1061710Y611873D01*
X1062980Y611442D01*
Y584668D01*
X1063177Y583677D01*
X1063739Y582837D01*
X1067001Y579575D01*
X1067841Y579013D01*
X1068020Y578978D01*
Y545555D01*
X1066750Y545124D01*
X1066348Y545648D01*
X1064621Y546974D01*
X1062609Y547807D01*
X1060450Y548091D01*
X1058291Y547807D01*
X1056279Y546974D01*
X1054552Y545648D01*
X1053226Y543921D01*
X1052393Y541909D01*
X1052109Y539750D01*
X1052393Y537591D01*
X1053226Y535579D01*
X1054552Y533852D01*
X1056279Y532526D01*
X1058291Y531693D01*
X1060450Y531409D01*
X1062609Y531693D01*
X1064621Y532526D01*
X1066348Y533852D01*
X1066750Y534376D01*
X1068020Y533945D01*
Y468160D01*
X1066187Y467401D01*
X1064355Y465995D01*
X1062949Y464163D01*
X1062066Y462029D01*
X1061764Y459740D01*
X1062066Y457451D01*
X1062949Y455317D01*
X1064355Y453485D01*
X1066187Y452079D01*
X1068321Y451196D01*
X1070610Y450894D01*
X1072899Y451196D01*
X1075033Y452079D01*
X1076865Y453485D01*
X1078271Y455317D01*
X1079154Y457451D01*
X1079456Y459740D01*
X1079154Y462029D01*
X1078271Y464163D01*
X1076865Y465995D01*
X1075033Y467401D01*
X1073200Y468160D01*
Y578816D01*
X1146048D01*
X1147039Y579013D01*
X1147879Y579575D01*
X1171968Y603664D01*
X1172246Y604080D01*
X1172525Y604493D01*
X1172526Y604499D01*
X1172530Y604504D01*
X1172627Y604996D01*
X1172727Y605484D01*
X1173253Y726427D01*
X1174427Y726911D01*
X1175675Y725662D01*
Y568960D01*
X1175872Y567969D01*
X1176434Y567129D01*
X1184562Y559001D01*
X1185402Y558439D01*
X1186393Y558242D01*
X1274612D01*
X1275603Y558439D01*
X1276443Y559001D01*
X1284571Y567129D01*
X1285133Y567969D01*
X1285330Y568960D01*
Y597076D01*
X1286503Y597562D01*
X1295347Y588719D01*
X1296187Y588157D01*
X1297178Y587960D01*
X1328166D01*
X1329157Y588157D01*
X1329997Y588719D01*
X1344341Y603063D01*
X1344902Y603903D01*
X1345100Y604894D01*
Y613885D01*
X1346010D01*
X1346982Y614288D01*
X1347384Y615260D01*
Y624260D01*
X1347189Y624733D01*
X1347269Y624787D01*
X1350767Y628285D01*
X1351169Y628885D01*
X1351535Y629152D01*
X1352659Y629301D01*
X1353019Y629060D01*
X1354010Y628863D01*
X1356240D01*
Y635952D01*
Y643042D01*
X1354010D01*
X1353019Y642845D01*
X1352796Y642696D01*
X1351526Y643375D01*
Y644723D01*
X1352796Y645402D01*
X1353019Y645252D01*
X1354010Y645055D01*
X1356240D01*
Y652145D01*
X1357510D01*
Y653415D01*
X1363600D01*
Y656645D01*
X1363403Y657636D01*
X1362841Y658476D01*
X1362001Y659038D01*
X1361010Y659235D01*
X1358621D01*
X1358095Y660505D01*
X1359341Y661751D01*
X1359817Y662463D01*
X1361010D01*
X1361982Y662866D01*
X1362385Y663838D01*
Y672838D01*
X1361982Y673810D01*
X1361010Y674212D01*
X1354010D01*
X1353038Y673810D01*
X1352635Y672838D01*
Y663871D01*
X1352321Y663809D01*
X1351481Y663247D01*
X1347977Y659743D01*
X1347013Y659935D01*
X1346613Y660176D01*
X1345833Y661193D01*
X1345896Y661644D01*
X1346227Y662501D01*
X1346298Y662582D01*
X1346982Y662866D01*
X1347384Y663838D01*
Y672838D01*
X1346982Y673810D01*
X1346010Y674212D01*
X1343536D01*
X1341481Y676267D01*
X1341967Y677440D01*
X1346010D01*
X1347001Y677637D01*
X1347841Y678199D01*
X1348403Y679039D01*
X1348600Y680030D01*
Y683260D01*
X1342510D01*
Y685800D01*
X1348600D01*
Y689001D01*
X1349537Y689124D01*
X1351665Y690006D01*
X1351777Y689955D01*
X1352701Y689187D01*
X1352635Y689030D01*
Y680030D01*
X1353038Y679058D01*
X1354010Y678655D01*
X1361010D01*
X1361982Y679058D01*
X1362385Y680030D01*
Y689030D01*
X1361982Y690002D01*
X1361010Y690405D01*
X1360100D01*
Y694603D01*
X1361370Y695034D01*
X1362212Y693938D01*
X1364069Y692513D01*
X1366231Y691617D01*
X1367282Y691479D01*
Y700278D01*
X1369822D01*
Y691479D01*
X1370873Y691617D01*
X1373035Y692513D01*
X1373713Y693033D01*
X1374852Y692471D01*
Y600265D01*
X1373599Y599746D01*
X1372007Y598525D01*
X1370786Y596933D01*
X1370018Y595079D01*
X1369756Y593090D01*
X1370018Y591101D01*
X1370786Y589247D01*
X1372007Y587655D01*
X1373599Y586434D01*
X1375453Y585666D01*
X1377442Y585404D01*
X1379431Y585666D01*
X1381285Y586434D01*
X1382877Y587655D01*
X1384098Y589247D01*
X1384866Y591101D01*
X1385128Y593090D01*
X1384866Y595079D01*
X1384098Y596933D01*
X1382877Y598525D01*
X1381285Y599746D01*
X1380032Y600265D01*
Y707136D01*
X1379835Y708127D01*
X1379273Y708967D01*
X1372161Y716079D01*
X1371321Y716641D01*
X1370330Y716838D01*
X1364622D01*
X1363631Y716641D01*
X1362791Y716079D01*
X1355679Y708967D01*
X1355117Y708127D01*
X1354920Y707136D01*
Y704324D01*
X1353718Y703915D01*
X1353556Y704126D01*
X1351699Y705551D01*
X1349537Y706446D01*
X1348486Y706585D01*
Y697785D01*
X1345946D01*
Y706585D01*
X1344895Y706446D01*
X1342733Y705551D01*
X1340876Y704126D01*
X1340154Y703185D01*
X1338884Y703616D01*
Y719399D01*
X1357937Y738452D01*
X1358499Y739293D01*
X1358696Y740284D01*
Y767030D01*
X1387094D01*
X1388085Y767227D01*
X1388925Y767789D01*
X1389487Y768629D01*
X1389684Y769620D01*
Y918464D01*
X1389487Y919455D01*
X1388925Y920295D01*
X1380289Y928931D01*
X1379449Y929493D01*
X1378458Y929690D01*
X1242822D01*
X1241831Y929493D01*
X1240991Y928931D01*
X1236419Y924359D01*
X1235857Y923519D01*
X1235660Y922528D01*
Y901954D01*
X1235857Y900963D01*
X1236419Y900123D01*
X1249630Y886911D01*
Y869625D01*
X1244925Y864920D01*
X1243458D01*
X1242467Y864723D01*
X1241626Y864161D01*
X1233879Y856414D01*
X1233317Y855573D01*
X1233120Y854582D01*
Y851192D01*
X1231947Y850706D01*
X1226873Y855779D01*
X1226033Y856341D01*
X1225042Y856538D01*
X1225034D01*
X1224386Y857808D01*
X1224605Y858338D01*
Y867338D01*
X1224202Y868310D01*
X1223231Y868713D01*
X1215230D01*
X1215186Y868743D01*
Y871713D01*
X1215230Y871750D01*
X1217961D01*
Y878840D01*
Y885930D01*
X1217722D01*
X1216705Y887200D01*
X1216710Y887222D01*
Y902208D01*
X1216513Y903199D01*
X1215951Y904039D01*
X1211887Y908103D01*
X1211047Y908665D01*
X1210056Y908862D01*
X1203575D01*
X1203144Y910132D01*
X1203865Y910685D01*
X1205271Y912517D01*
X1206154Y914651D01*
X1206456Y916940D01*
X1206154Y919229D01*
X1205271Y921363D01*
X1203865Y923195D01*
X1202033Y924601D01*
X1199899Y925484D01*
X1197610Y925786D01*
X1195321Y925484D01*
X1193187Y924601D01*
X1191355Y923195D01*
X1189949Y921363D01*
X1189066Y919229D01*
X1188764Y916940D01*
X1189066Y914651D01*
X1189949Y912517D01*
X1191355Y910685D01*
X1192456Y909840D01*
X1192496Y909708D01*
X1192324Y908341D01*
X1191969Y908103D01*
X1176722Y892857D01*
X1175469Y893376D01*
X1173480Y893638D01*
X1171491Y893376D01*
X1169637Y892608D01*
X1168045Y891387D01*
X1166824Y889795D01*
X1166612Y889283D01*
X1165342Y889535D01*
Y906205D01*
X1165145Y907196D01*
X1164583Y908036D01*
X1160703Y911917D01*
Y954786D01*
X1160506Y955777D01*
X1159944Y956617D01*
X1152952Y963609D01*
X1152112Y964171D01*
X1151121Y964368D01*
D02*
G37*
G36*
X1324610Y951186D02*
X1322321Y950884D01*
X1320187Y950001D01*
X1318355Y948595D01*
X1316949Y946763D01*
X1316066Y944629D01*
X1315764Y942340D01*
X1316066Y940051D01*
X1316949Y937917D01*
X1318355Y936085D01*
X1320187Y934679D01*
X1322321Y933796D01*
X1324610Y933494D01*
X1326899Y933796D01*
X1329033Y934679D01*
X1330865Y936085D01*
X1332271Y937917D01*
X1333154Y940051D01*
X1333456Y942340D01*
X1333154Y944629D01*
X1332271Y946763D01*
X1330865Y948595D01*
X1329033Y950001D01*
X1326899Y950884D01*
X1324610Y951186D01*
D02*
G37*
G36*
X1248410D02*
X1246121Y950884D01*
X1243987Y950001D01*
X1242155Y948595D01*
X1240749Y946763D01*
X1239866Y944629D01*
X1239564Y942340D01*
X1239866Y940051D01*
X1240749Y937917D01*
X1242155Y936085D01*
X1243987Y934679D01*
X1246121Y933796D01*
X1248410Y933494D01*
X1250699Y933796D01*
X1252833Y934679D01*
X1254665Y936085D01*
X1256071Y937917D01*
X1256954Y940051D01*
X1257256Y942340D01*
X1256954Y944629D01*
X1256071Y946763D01*
X1254665Y948595D01*
X1252833Y950001D01*
X1250699Y950884D01*
X1248410Y951186D01*
D02*
G37*
G36*
X1172210D02*
X1169921Y950884D01*
X1167787Y950001D01*
X1165955Y948595D01*
X1164549Y946763D01*
X1163666Y944629D01*
X1163364Y942340D01*
X1163666Y940051D01*
X1164549Y937917D01*
X1165955Y936085D01*
X1167787Y934679D01*
X1169921Y933796D01*
X1172210Y933494D01*
X1174499Y933796D01*
X1176633Y934679D01*
X1178465Y936085D01*
X1179871Y937917D01*
X1180754Y940051D01*
X1181056Y942340D01*
X1180754Y944629D01*
X1179871Y946763D01*
X1178465Y948595D01*
X1176633Y950001D01*
X1174499Y950884D01*
X1172210Y951186D01*
D02*
G37*
G36*
X1120140Y458470D02*
X1111451D01*
X1111628Y457119D01*
X1112640Y454677D01*
X1114249Y452579D01*
X1116347Y450970D01*
X1118789Y449958D01*
X1120140Y449781D01*
Y458470D01*
D02*
G37*
G36*
X1223010Y951186D02*
X1220721Y950884D01*
X1218587Y950001D01*
X1216755Y948595D01*
X1215349Y946763D01*
X1214466Y944629D01*
X1214164Y942340D01*
X1214466Y940051D01*
X1215349Y937917D01*
X1216755Y936085D01*
X1218587Y934679D01*
X1220721Y933796D01*
X1223010Y933494D01*
X1225299Y933796D01*
X1227433Y934679D01*
X1229265Y936085D01*
X1230671Y937917D01*
X1231554Y940051D01*
X1231856Y942340D01*
X1231554Y944629D01*
X1230671Y946763D01*
X1229265Y948595D01*
X1227433Y950001D01*
X1225299Y950884D01*
X1223010Y951186D01*
D02*
G37*
G36*
X1197610D02*
X1195321Y950884D01*
X1193187Y950001D01*
X1191355Y948595D01*
X1189949Y946763D01*
X1189066Y944629D01*
X1188764Y942340D01*
X1189066Y940051D01*
X1189949Y937917D01*
X1191355Y936085D01*
X1193187Y934679D01*
X1195321Y933796D01*
X1197610Y933494D01*
X1199899Y933796D01*
X1202033Y934679D01*
X1203865Y936085D01*
X1205271Y937917D01*
X1206154Y940051D01*
X1206456Y942340D01*
X1206154Y944629D01*
X1205271Y946763D01*
X1203865Y948595D01*
X1202033Y950001D01*
X1199899Y950884D01*
X1197610Y951186D01*
D02*
G37*
G36*
X1145540Y469699D02*
X1144189Y469522D01*
X1141747Y468510D01*
X1139649Y466901D01*
X1138040Y464803D01*
X1137028Y462361D01*
X1136851Y461010D01*
X1145540D01*
Y469699D01*
D02*
G37*
G36*
X1238302Y886761D02*
X1230772D01*
Y879232D01*
X1231823Y879370D01*
X1233986Y880266D01*
X1235843Y881691D01*
X1237268Y883548D01*
X1238163Y885711D01*
X1238302Y886761D01*
D02*
G37*
G36*
X1324610Y468586D02*
X1322321Y468284D01*
X1320187Y467401D01*
X1318355Y465995D01*
X1316949Y464163D01*
X1316066Y462029D01*
X1315764Y459740D01*
X1316066Y457451D01*
X1316949Y455317D01*
X1318355Y453485D01*
X1320187Y452079D01*
X1322321Y451196D01*
X1324610Y450894D01*
X1326899Y451196D01*
X1329033Y452079D01*
X1330865Y453485D01*
X1332271Y455317D01*
X1333154Y457451D01*
X1333456Y459740D01*
X1333154Y462029D01*
X1332271Y464163D01*
X1330865Y465995D01*
X1329033Y467401D01*
X1326899Y468284D01*
X1324610Y468586D01*
D02*
G37*
G36*
X1120140Y469699D02*
X1118789Y469522D01*
X1116347Y468510D01*
X1114249Y466901D01*
X1112640Y464803D01*
X1111628Y462361D01*
X1111451Y461010D01*
X1120140D01*
Y469699D01*
D02*
G37*
G36*
X1228232Y886761D02*
X1220578D01*
X1220500Y886673D01*
Y878840D01*
Y871750D01*
X1223231D01*
X1224221Y871947D01*
X1225062Y872509D01*
X1225623Y873349D01*
X1225820Y874340D01*
Y878791D01*
X1226876Y879497D01*
X1227181Y879370D01*
X1228232Y879232D01*
Y886761D01*
D02*
G37*
G36*
X768350Y690313D02*
X765538Y689943D01*
X762918Y688858D01*
X760669Y687131D01*
X758942Y684882D01*
X757857Y682262D01*
X757487Y679450D01*
X757857Y676638D01*
X758942Y674018D01*
X760669Y671769D01*
X762918Y670042D01*
X763947Y669616D01*
Y533908D01*
X764283Y532223D01*
X765237Y530795D01*
X777175Y518857D01*
X778603Y517902D01*
X780288Y517567D01*
X795365D01*
Y473970D01*
X795768Y472998D01*
X796740Y472595D01*
X884740D01*
X885712Y472998D01*
X886115Y473970D01*
Y569970D01*
X885712Y570942D01*
X884740Y571345D01*
X796740D01*
X795768Y570942D01*
X795365Y569970D01*
Y526373D01*
X782112D01*
X772753Y535732D01*
Y669616D01*
X773782Y670042D01*
X776031Y671769D01*
X777758Y674018D01*
X778843Y676638D01*
X779213Y679450D01*
X778843Y682262D01*
X777758Y684882D01*
X776031Y687131D01*
X773782Y688858D01*
X771161Y689943D01*
X768350Y690313D01*
D02*
G37*
G36*
X1179710Y494015D02*
X1164710D01*
X1163738Y493612D01*
X1163335Y492640D01*
Y477640D01*
X1163738Y476668D01*
X1164710Y476265D01*
X1179710D01*
X1180682Y476668D01*
X1181085Y477640D01*
Y492640D01*
X1180682Y493612D01*
X1179710Y494015D01*
D02*
G37*
G36*
X1122680Y469699D02*
Y461010D01*
X1131369D01*
X1131192Y462361D01*
X1130180Y464803D01*
X1128571Y466901D01*
X1126473Y468510D01*
X1124031Y469522D01*
X1122680Y469699D01*
D02*
G37*
G36*
X1148080D02*
Y461010D01*
X1156769D01*
X1156592Y462361D01*
X1155580Y464803D01*
X1153971Y466901D01*
X1151873Y468510D01*
X1149431Y469522D01*
X1148080Y469699D01*
D02*
G37*
G36*
X1299210Y468586D02*
X1296921Y468284D01*
X1294787Y467401D01*
X1292955Y465995D01*
X1291549Y464163D01*
X1290666Y462029D01*
X1290364Y459740D01*
X1290666Y457451D01*
X1291549Y455317D01*
X1292955Y453485D01*
X1294787Y452079D01*
X1296921Y451196D01*
X1299210Y450894D01*
X1301499Y451196D01*
X1303633Y452079D01*
X1305465Y453485D01*
X1306871Y455317D01*
X1307754Y457451D01*
X1308056Y459740D01*
X1307754Y462029D01*
X1306871Y464163D01*
X1305465Y465995D01*
X1303633Y467401D01*
X1301499Y468284D01*
X1299210Y468586D01*
D02*
G37*
G36*
X1223010D02*
X1220721Y468284D01*
X1218587Y467401D01*
X1216755Y465995D01*
X1215349Y464163D01*
X1214466Y462029D01*
X1214164Y459740D01*
X1214466Y457451D01*
X1215349Y455317D01*
X1216755Y453485D01*
X1218587Y452079D01*
X1220721Y451196D01*
X1223010Y450894D01*
X1225299Y451196D01*
X1227433Y452079D01*
X1229265Y453485D01*
X1230671Y455317D01*
X1231554Y457451D01*
X1231856Y459740D01*
X1231554Y462029D01*
X1230671Y464163D01*
X1229265Y465995D01*
X1227433Y467401D01*
X1225299Y468284D01*
X1223010Y468586D01*
D02*
G37*
G36*
X1248410D02*
X1246121Y468284D01*
X1243987Y467401D01*
X1242155Y465995D01*
X1240749Y464163D01*
X1239866Y462029D01*
X1239564Y459740D01*
X1239866Y457451D01*
X1240749Y455317D01*
X1242155Y453485D01*
X1243987Y452079D01*
X1246121Y451196D01*
X1248410Y450894D01*
X1250699Y451196D01*
X1252833Y452079D01*
X1254665Y453485D01*
X1256071Y455317D01*
X1256954Y457451D01*
X1257256Y459740D01*
X1256954Y462029D01*
X1256071Y464163D01*
X1254665Y465995D01*
X1252833Y467401D01*
X1250699Y468284D01*
X1248410Y468586D01*
D02*
G37*
G36*
X1273810D02*
X1271521Y468284D01*
X1269387Y467401D01*
X1267555Y465995D01*
X1266149Y464163D01*
X1265266Y462029D01*
X1264964Y459740D01*
X1265266Y457451D01*
X1266149Y455317D01*
X1267555Y453485D01*
X1269387Y452079D01*
X1271521Y451196D01*
X1273810Y450894D01*
X1276099Y451196D01*
X1278233Y452079D01*
X1280065Y453485D01*
X1281471Y455317D01*
X1282354Y457451D01*
X1282656Y459740D01*
X1282354Y462029D01*
X1281471Y464163D01*
X1280065Y465995D01*
X1278233Y467401D01*
X1276099Y468284D01*
X1273810Y468586D01*
D02*
G37*
G36*
X1045210D02*
X1042921Y468284D01*
X1040787Y467401D01*
X1038955Y465995D01*
X1037549Y464163D01*
X1036666Y462029D01*
X1036364Y459740D01*
X1036666Y457451D01*
X1037549Y455317D01*
X1038955Y453485D01*
X1040787Y452079D01*
X1042921Y451196D01*
X1045210Y450894D01*
X1047499Y451196D01*
X1049633Y452079D01*
X1051465Y453485D01*
X1052871Y455317D01*
X1053754Y457451D01*
X1054056Y459740D01*
X1053754Y462029D01*
X1052871Y464163D01*
X1051465Y465995D01*
X1049633Y467401D01*
X1047499Y468284D01*
X1045210Y468586D01*
D02*
G37*
G36*
X1096010D02*
X1093721Y468284D01*
X1091587Y467401D01*
X1089755Y465995D01*
X1088349Y464163D01*
X1087466Y462029D01*
X1087164Y459740D01*
X1087466Y457451D01*
X1088349Y455317D01*
X1089755Y453485D01*
X1091587Y452079D01*
X1093721Y451196D01*
X1096010Y450894D01*
X1098299Y451196D01*
X1100433Y452079D01*
X1102265Y453485D01*
X1103671Y455317D01*
X1104554Y457451D01*
X1104856Y459740D01*
X1104554Y462029D01*
X1103671Y464163D01*
X1102265Y465995D01*
X1100433Y467401D01*
X1098299Y468284D01*
X1096010Y468586D01*
D02*
G37*
G36*
X1019810D02*
X1017521Y468284D01*
X1015387Y467401D01*
X1013555Y465995D01*
X1012149Y464163D01*
X1011266Y462029D01*
X1010964Y459740D01*
X1011266Y457451D01*
X1012149Y455317D01*
X1013555Y453485D01*
X1015387Y452079D01*
X1017521Y451196D01*
X1019810Y450894D01*
X1022099Y451196D01*
X1024233Y452079D01*
X1026065Y453485D01*
X1027471Y455317D01*
X1028354Y457451D01*
X1028656Y459740D01*
X1028354Y462029D01*
X1027471Y464163D01*
X1026065Y465995D01*
X1024233Y467401D01*
X1022099Y468284D01*
X1019810Y468586D01*
D02*
G37*
G36*
X1230772Y896831D02*
Y889301D01*
X1238302D01*
X1238163Y890352D01*
X1237268Y892515D01*
X1235843Y894372D01*
X1233986Y895797D01*
X1231823Y896692D01*
X1230772Y896831D01*
D02*
G37*
G36*
X1228232D02*
X1227181Y896692D01*
X1225019Y895797D01*
X1223162Y894372D01*
X1221737Y892515D01*
X1220841Y890352D01*
X1220703Y889301D01*
X1228232D01*
Y896831D01*
D02*
G37*
%LPD*%
G36*
X1155523Y953713D02*
Y910844D01*
X1155720Y909853D01*
X1156282Y909013D01*
X1160162Y905132D01*
Y878646D01*
X1160359Y877655D01*
X1160921Y876815D01*
X1174649Y863087D01*
X1174337Y861735D01*
X1173447Y861366D01*
X1171855Y860145D01*
X1170634Y858553D01*
X1169866Y856699D01*
X1169604Y854710D01*
X1169866Y852721D01*
X1170634Y850867D01*
X1171855Y849275D01*
X1173447Y848054D01*
X1175301Y847286D01*
X1177290Y847024D01*
X1179279Y847286D01*
X1181133Y848054D01*
X1182725Y849275D01*
X1183946Y850867D01*
X1184714Y852721D01*
X1184976Y854710D01*
X1184714Y856699D01*
X1183946Y858553D01*
X1183620Y858978D01*
X1184246Y860248D01*
X1194258D01*
Y834136D01*
X1194455Y833145D01*
X1195017Y832305D01*
X1198319Y829003D01*
X1199159Y828441D01*
X1199855Y828303D01*
Y826334D01*
X1200258Y825362D01*
X1201230Y824959D01*
X1202640D01*
Y820707D01*
X1201230D01*
X1200258Y820304D01*
X1199855Y819332D01*
Y813120D01*
X1199839Y813104D01*
X1196848D01*
X1195857Y812907D01*
X1195017Y812345D01*
X1194455Y811505D01*
X1194258Y810514D01*
Y764794D01*
Y644652D01*
X1194455Y643661D01*
X1194905Y642987D01*
X1193901Y642213D01*
X1192309Y643434D01*
X1190455Y644202D01*
X1188466Y644464D01*
X1186477Y644202D01*
X1184623Y643434D01*
X1183031Y642213D01*
X1182125Y641031D01*
X1180855Y641462D01*
Y726735D01*
X1180658Y727726D01*
X1180096Y728566D01*
X1173291Y735371D01*
X1173329Y744074D01*
X1174783Y744676D01*
X1176375Y745897D01*
X1177596Y747489D01*
X1178364Y749343D01*
X1178626Y751332D01*
X1178364Y753321D01*
X1177596Y755175D01*
X1176375Y756767D01*
X1174783Y757988D01*
X1172929Y758756D01*
X1170940Y759018D01*
X1168951Y758756D01*
X1167698Y758237D01*
X1145085Y780849D01*
X1144245Y781411D01*
X1143492Y781561D01*
X1143279Y782225D01*
X1143304Y782857D01*
X1143414Y782903D01*
X1145006Y784124D01*
X1146227Y785716D01*
X1146995Y787570D01*
X1147257Y789559D01*
X1146995Y791548D01*
X1146227Y793402D01*
X1145006Y794994D01*
X1143414Y796215D01*
X1141560Y796983D01*
X1140158Y797168D01*
X1139519Y797351D01*
X1138985Y798448D01*
Y806505D01*
X1138712Y807162D01*
X1139286Y808432D01*
X1144016D01*
X1145007Y808629D01*
X1145847Y809191D01*
X1154483Y817827D01*
X1155045Y818667D01*
X1155242Y819658D01*
Y893572D01*
X1155045Y894563D01*
X1154483Y895403D01*
X1152956Y896931D01*
Y940562D01*
X1152759Y941553D01*
X1152197Y942393D01*
X1148130Y946461D01*
Y956190D01*
X1147933Y957181D01*
X1147440Y957918D01*
X1147559Y958427D01*
X1147911Y959188D01*
X1150048D01*
X1155523Y953713D01*
D02*
G37*
G36*
X1168103Y733235D02*
X1168088Y729787D01*
X1166913Y729303D01*
X1160071Y736145D01*
X1159231Y736707D01*
X1158240Y736904D01*
X1150112D01*
X1149121Y736707D01*
X1148281Y736145D01*
X1142947Y730811D01*
X1142385Y729971D01*
X1142188Y728980D01*
Y717168D01*
X1142385Y716176D01*
X1142947Y715336D01*
X1145587Y712696D01*
X1144748Y711739D01*
X1144435Y711979D01*
X1142273Y712875D01*
X1141222Y713013D01*
Y704213D01*
X1139952D01*
Y702943D01*
X1131152D01*
X1131291Y701893D01*
X1132187Y699730D01*
X1133612Y697873D01*
X1135469Y696448D01*
X1137631Y695552D01*
X1139952Y695247D01*
X1140598Y695332D01*
X1141191Y694129D01*
X1137119Y690057D01*
X1136558Y689217D01*
X1136456Y688705D01*
X1135450D01*
X1134478Y688302D01*
X1134076Y687330D01*
Y678330D01*
X1134478Y677358D01*
X1135450Y676956D01*
X1142450D01*
X1143422Y677358D01*
X1143825Y678330D01*
Y687330D01*
X1143422Y688302D01*
X1143301Y688914D01*
X1150673Y696286D01*
X1151235Y697126D01*
X1151432Y698118D01*
Y713103D01*
X1151235Y714094D01*
X1150673Y714935D01*
X1148971Y716637D01*
X1149693Y717659D01*
X1151855Y716763D01*
X1152906Y716625D01*
Y725424D01*
X1155446D01*
Y716625D01*
X1156497Y716763D01*
X1158659Y717659D01*
X1160516Y719084D01*
X1161941Y720941D01*
X1162467Y722210D01*
X1163737Y721957D01*
Y611140D01*
X1147515Y594918D01*
X1129350D01*
X1128919Y596188D01*
X1129385Y596545D01*
X1130606Y598137D01*
X1131374Y599991D01*
X1131636Y601980D01*
X1131374Y603969D01*
X1130606Y605823D01*
X1129385Y607415D01*
X1127793Y608636D01*
X1126540Y609155D01*
Y610916D01*
X1127450D01*
X1128422Y611318D01*
X1128825Y612290D01*
Y617070D01*
X1130095Y617573D01*
X1132025Y615643D01*
X1132865Y615081D01*
X1133856Y614884D01*
X1134076D01*
Y612290D01*
X1134478Y611318D01*
X1135450Y610916D01*
X1142450D01*
X1143422Y611318D01*
X1143825Y612290D01*
Y621290D01*
X1143422Y622262D01*
X1142450Y622665D01*
X1135450D01*
X1135430Y622656D01*
X1134160Y623505D01*
Y625196D01*
X1135430Y626214D01*
X1135450Y626211D01*
X1137680D01*
Y633300D01*
Y640390D01*
X1135450D01*
X1134986Y641501D01*
Y641610D01*
X1135009Y641665D01*
X1136111Y642720D01*
X1137680D01*
Y649810D01*
Y656900D01*
X1135450D01*
X1134644Y656740D01*
X1134459Y656703D01*
X1134459Y656703D01*
X1133401Y656389D01*
X1132792Y656998D01*
X1132791Y656999D01*
X1132565Y657225D01*
X1128574Y661216D01*
X1128825Y661820D01*
Y670820D01*
X1128422Y671792D01*
X1127450Y672195D01*
X1126540D01*
Y673220D01*
X1126343Y674211D01*
X1126169Y674471D01*
X1126848Y675741D01*
X1127450D01*
X1128441Y675938D01*
X1129281Y676499D01*
X1129843Y677339D01*
X1130040Y678330D01*
Y681560D01*
X1123950D01*
Y682830D01*
X1122680D01*
Y689920D01*
X1121460D01*
Y704069D01*
X1121263Y705060D01*
X1120701Y705900D01*
X1120444Y706157D01*
Y715207D01*
X1145085Y739849D01*
X1145647Y740689D01*
X1145844Y741680D01*
Y747726D01*
X1153611D01*
X1168103Y733235D01*
D02*
G37*
G36*
X1242051Y676523D02*
X1242207Y675739D01*
X1242769Y674898D01*
X1245312Y672355D01*
Y657512D01*
X1245509Y656521D01*
X1246071Y655681D01*
X1251913Y649839D01*
X1252753Y649277D01*
X1252666Y648000D01*
X1252654Y647940D01*
X1260240D01*
Y645400D01*
X1252632D01*
X1251586Y644260D01*
X1232399D01*
X1230175Y646483D01*
X1229335Y647045D01*
X1228344Y647242D01*
X1227954D01*
X1227106Y648512D01*
X1227115Y648534D01*
Y657534D01*
X1227130Y657556D01*
X1229043D01*
X1229562Y656303D01*
X1230783Y654711D01*
X1232375Y653490D01*
X1234229Y652722D01*
X1236218Y652460D01*
X1238207Y652722D01*
X1240061Y653490D01*
X1241653Y654711D01*
X1242874Y656303D01*
X1243642Y658157D01*
X1243904Y660146D01*
X1243642Y662135D01*
X1242874Y663989D01*
X1241653Y665581D01*
X1240061Y666802D01*
X1238207Y667570D01*
X1236218Y667832D01*
X1234229Y667570D01*
X1232375Y666802D01*
X1232184Y666655D01*
X1231345Y667612D01*
X1240901Y677169D01*
X1242051Y676523D01*
D02*
G37*
G36*
X1095062Y706167D02*
X1087501Y698605D01*
X1086997Y698578D01*
X1085928Y698829D01*
X1084935Y700125D01*
X1083343Y701346D01*
X1081489Y702114D01*
X1079500Y702376D01*
X1077511Y702114D01*
X1075657Y701346D01*
X1074065Y700125D01*
X1072844Y698533D01*
X1072076Y696679D01*
X1071814Y694690D01*
X1072016Y693154D01*
X1071622Y692565D01*
X1071287Y690880D01*
Y687131D01*
X1071167Y686527D01*
X1071167Y686526D01*
X1070362Y685545D01*
X1069320D01*
X1069047Y685432D01*
X1068070Y685206D01*
X1067093Y685432D01*
X1066820Y685545D01*
X1066445D01*
X1066043Y686384D01*
X1065961Y686815D01*
X1067106Y688307D01*
X1067874Y690161D01*
X1068136Y692150D01*
X1067874Y694139D01*
X1067106Y695993D01*
X1065885Y697585D01*
X1064293Y698806D01*
X1062439Y699574D01*
X1060450Y699836D01*
X1059645Y699730D01*
X1059051Y700933D01*
X1065459Y707340D01*
X1094576D01*
X1095062Y706167D01*
D02*
G37*
G36*
X1308853Y706598D02*
X1306269Y704014D01*
X1305707Y703173D01*
X1305510Y702182D01*
Y695651D01*
X1304240Y695567D01*
X1304094Y696679D01*
X1303326Y698533D01*
X1302105Y700125D01*
X1300513Y701346D01*
X1298659Y702114D01*
X1296670Y702376D01*
X1294681Y702114D01*
X1292827Y701346D01*
X1291235Y700125D01*
X1290014Y698533D01*
X1290000Y698500D01*
X1288626D01*
X1288086Y699803D01*
X1286865Y701395D01*
X1285273Y702616D01*
X1283419Y703384D01*
X1281430Y703646D01*
X1279441Y703384D01*
X1277587Y702616D01*
X1275995Y701395D01*
X1275923Y701300D01*
X1274469Y701491D01*
X1274116Y702343D01*
X1272895Y703935D01*
X1271303Y705156D01*
X1269449Y705924D01*
X1267460Y706186D01*
X1265471Y705924D01*
X1263617Y705156D01*
X1262025Y703935D01*
X1260804Y702343D01*
X1260451Y701491D01*
X1258997Y701300D01*
X1258925Y701395D01*
X1257333Y702616D01*
X1255479Y703384D01*
X1253995Y703579D01*
X1253477Y704857D01*
X1256392Y707772D01*
X1308367D01*
X1308853Y706598D01*
D02*
G37*
G36*
X1037538Y698467D02*
X1038759Y696875D01*
X1040351Y695654D01*
X1042205Y694886D01*
X1044194Y694624D01*
X1046183Y694886D01*
X1046924Y695193D01*
X1047980Y694487D01*
Y684254D01*
X1047945Y684170D01*
Y674295D01*
X1043025D01*
X1042927Y674785D01*
X1041973Y676213D01*
X1040545Y677168D01*
X1038860Y677503D01*
X1038680D01*
X1038664Y677629D01*
X1037896Y679483D01*
X1036675Y681075D01*
X1035851Y681706D01*
X1035823Y681744D01*
X1035739Y683335D01*
X1036267Y683863D01*
X1036675Y684175D01*
X1036987Y684583D01*
X1038151Y685747D01*
X1038713Y686587D01*
X1038910Y687578D01*
X1038758Y688339D01*
X1038926Y689610D01*
X1038664Y691599D01*
X1037896Y693453D01*
X1036675Y695045D01*
X1035083Y696266D01*
X1033229Y697034D01*
X1031240Y697296D01*
X1029251Y697034D01*
X1027397Y696266D01*
X1025805Y695045D01*
X1024584Y693453D01*
X1023816Y691599D01*
X1023554Y689610D01*
X1023816Y687621D01*
X1024584Y685767D01*
X1024822Y685457D01*
X1021928Y682563D01*
X1020755Y683049D01*
Y687760D01*
X1020352Y688732D01*
X1019380Y689135D01*
X1018965Y690405D01*
X1028280Y699720D01*
X1037019D01*
X1037538Y698467D01*
D02*
G37*
G36*
X1240232Y717747D02*
Y704325D01*
X1238959Y703052D01*
X1238397Y702212D01*
X1238200Y701220D01*
Y700972D01*
X1236930Y700435D01*
X1235743Y701346D01*
X1233889Y702114D01*
X1231900Y702376D01*
X1229911Y702114D01*
X1228057Y701346D01*
X1226465Y700125D01*
X1225244Y698533D01*
X1224476Y696679D01*
X1224214Y694690D01*
X1224476Y692701D01*
X1225059Y691294D01*
X1224935Y691109D01*
X1224738Y690118D01*
Y689897D01*
X1217740D01*
X1216768Y689494D01*
X1216366Y688522D01*
Y679522D01*
X1216768Y678550D01*
X1217740Y678147D01*
X1225741D01*
X1226712Y678550D01*
X1227115Y679522D01*
Y681432D01*
X1227328D01*
X1228319Y681629D01*
X1229159Y682191D01*
X1229721Y683031D01*
X1229918Y684022D01*
Y686302D01*
X1230873Y687140D01*
X1231900Y687004D01*
X1233889Y687266D01*
X1235743Y688034D01*
X1236930Y688945D01*
X1238200Y688408D01*
Y681793D01*
X1228385Y671978D01*
X1227115Y672504D01*
Y673028D01*
X1226712Y674000D01*
X1225741Y674403D01*
X1217740D01*
X1216768Y674000D01*
X1216366Y673028D01*
Y664028D01*
X1216375Y664006D01*
X1215527Y662736D01*
X1213955D01*
X1213106Y664006D01*
X1213115Y664028D01*
Y673028D01*
X1212713Y674000D01*
X1211740Y674403D01*
X1203740D01*
X1202768Y674000D01*
X1202366Y673028D01*
Y664028D01*
X1202768Y663056D01*
X1203740Y662653D01*
X1205151D01*
Y662432D01*
X1205348Y661441D01*
X1205909Y660601D01*
X1206428Y660082D01*
X1205942Y658909D01*
X1203740D01*
X1202768Y658506D01*
X1202366Y657534D01*
Y648534D01*
X1202768Y647562D01*
X1203740Y647159D01*
X1211740D01*
X1212546Y646621D01*
Y643953D01*
X1211740Y643415D01*
X1203740D01*
X1202768Y643012D01*
X1202253Y642910D01*
X1199438Y645725D01*
Y696403D01*
X1200708Y696655D01*
X1201275Y695287D01*
X1202700Y693430D01*
X1204065Y692382D01*
X1203797Y691333D01*
X1203656Y691095D01*
X1202749Y690915D01*
X1201909Y690353D01*
X1201348Y689513D01*
X1201151Y688522D01*
Y685292D01*
X1207740D01*
X1214330D01*
Y688522D01*
X1214133Y689513D01*
X1213572Y690353D01*
X1213298Y690536D01*
X1213439Y691970D01*
X1213523Y692005D01*
X1215380Y693430D01*
X1216805Y695287D01*
X1217701Y697449D01*
X1217840Y698500D01*
X1209040D01*
Y699770D01*
X1207770D01*
Y708569D01*
X1206719Y708431D01*
X1204557Y707535D01*
X1202700Y706110D01*
X1201275Y704253D01*
X1200708Y702885D01*
X1199438Y703138D01*
Y756882D01*
X1200611Y757368D01*
X1240232Y717747D01*
D02*
G37*
G36*
X1071840Y621562D02*
X1072980Y620516D01*
Y601472D01*
X1073177Y600481D01*
X1073739Y599641D01*
X1082883Y590497D01*
X1083723Y589935D01*
X1084714Y589738D01*
X1148588D01*
X1149005Y589821D01*
X1149630Y588651D01*
X1144975Y583996D01*
X1069905D01*
X1068160Y585741D01*
Y620516D01*
X1069300Y621562D01*
Y629170D01*
X1071840D01*
Y621562D01*
D02*
G37*
G36*
X1230335Y639277D02*
X1231326Y639080D01*
X1250588D01*
X1251114Y637810D01*
X1249119Y635815D01*
X1248557Y634975D01*
X1248360Y633984D01*
Y586289D01*
X1246185Y584114D01*
X1244982Y584707D01*
X1245043Y585169D01*
X1244737Y587490D01*
X1243842Y589652D01*
X1242417Y591509D01*
X1240560Y592934D01*
X1238397Y593830D01*
X1237346Y593968D01*
Y585169D01*
X1236076D01*
Y583899D01*
X1227277D01*
X1227415Y582848D01*
X1228311Y580685D01*
X1229736Y578828D01*
X1229953Y578662D01*
X1229522Y577392D01*
X1226623D01*
X1217726Y586289D01*
Y599450D01*
X1217740Y599462D01*
X1220471D01*
Y606552D01*
Y613642D01*
X1217740D01*
X1217726Y613654D01*
Y614944D01*
X1217740Y614956D01*
X1220471D01*
Y622046D01*
Y629136D01*
X1217740D01*
X1217726Y629148D01*
Y630438D01*
X1217740Y630450D01*
X1220471D01*
Y637540D01*
X1221740D01*
Y638810D01*
X1228330D01*
Y639356D01*
X1228962Y639618D01*
X1229600Y639768D01*
X1230335Y639277D01*
D02*
G37*
G36*
X1255240Y634045D02*
X1265115D01*
Y631838D01*
X1264945Y631805D01*
X1264105Y631243D01*
X1261819Y628957D01*
X1261257Y628117D01*
X1261060Y627126D01*
Y571303D01*
X1258259Y568502D01*
X1214022D01*
X1213485Y569772D01*
X1214396Y570959D01*
X1215164Y572813D01*
X1215426Y574802D01*
X1215164Y576791D01*
X1214396Y578645D01*
X1213175Y580237D01*
X1211583Y581458D01*
X1210330Y581977D01*
Y600677D01*
X1211740D01*
X1212546Y600139D01*
Y585216D01*
X1212743Y584225D01*
X1213305Y583385D01*
X1223719Y572971D01*
X1224559Y572409D01*
X1225550Y572212D01*
X1240536D01*
X1241527Y572409D01*
X1242367Y572971D01*
X1252781Y583385D01*
X1253343Y584225D01*
X1253540Y585216D01*
Y632911D01*
X1254708Y634080D01*
X1255156D01*
X1255240Y634045D01*
D02*
G37*
G36*
X1183031Y631343D02*
X1184623Y630122D01*
X1186477Y629354D01*
X1188466Y629092D01*
X1190455Y629354D01*
X1191708Y629873D01*
X1196036Y625545D01*
Y570230D01*
X1196233Y569239D01*
X1196795Y568399D01*
X1200502Y564692D01*
X1199976Y563422D01*
X1187466D01*
X1180855Y570033D01*
Y632094D01*
X1182125Y632525D01*
X1183031Y631343D01*
D02*
G37*
G36*
X1337740Y640707D02*
X1337635Y640452D01*
Y631452D01*
X1338038Y630480D01*
X1339010Y630078D01*
X1340870D01*
X1341215Y628808D01*
X1340679Y628449D01*
X1340117Y627609D01*
X1339920Y626618D01*
Y625635D01*
X1339010D01*
X1338038Y625232D01*
X1337635Y624260D01*
Y615260D01*
X1338038Y614288D01*
X1339010Y613885D01*
X1339920D01*
Y605967D01*
X1327093Y593140D01*
X1324648D01*
X1324162Y594313D01*
X1329489Y599641D01*
X1330051Y600481D01*
X1330248Y601472D01*
Y634746D01*
X1330051Y635737D01*
X1329489Y636577D01*
X1327965Y638101D01*
X1327876Y638161D01*
X1328018Y639594D01*
X1328453Y639774D01*
X1330045Y640995D01*
X1331266Y642587D01*
X1332034Y644441D01*
X1332203Y645728D01*
X1333532Y646091D01*
X1337740Y640707D01*
D02*
G37*
G36*
X1312007Y631748D02*
X1311604Y631223D01*
X1310836Y629369D01*
X1310574Y627380D01*
X1310836Y625391D01*
X1311604Y623537D01*
X1312825Y621945D01*
X1314417Y620724D01*
X1316271Y619956D01*
X1318260Y619694D01*
X1320249Y619956D01*
X1322103Y620724D01*
X1323695Y621945D01*
X1323798Y622080D01*
X1325068Y621649D01*
Y602545D01*
X1319731Y597207D01*
X1315663Y593140D01*
X1298251D01*
X1285330Y606061D01*
Y610546D01*
X1286600Y610877D01*
X1288001Y609802D01*
X1289855Y609034D01*
X1291844Y608772D01*
X1293671Y609013D01*
X1294124Y608647D01*
X1294620Y607986D01*
X1294079Y606678D01*
X1293941Y605627D01*
X1301470D01*
Y613157D01*
X1300419Y613019D01*
X1299964Y612830D01*
X1298992Y613802D01*
X1299268Y614469D01*
X1299530Y616458D01*
X1299268Y618447D01*
X1298500Y620301D01*
X1298393Y620441D01*
X1298643Y620950D01*
X1299102Y621602D01*
X1299981Y621777D01*
X1300240Y621950D01*
X1300499Y621777D01*
X1301470Y621584D01*
Y629170D01*
X1302740D01*
Y630440D01*
X1306580D01*
Y634045D01*
X1309710D01*
X1312007Y631748D01*
D02*
G37*
G36*
X1010006Y641278D02*
Y632278D01*
X1010408Y631306D01*
X1011380Y630903D01*
X1012791D01*
Y627158D01*
X1011380D01*
X1010408Y626755D01*
X1010006Y625784D01*
Y616783D01*
X1010408Y615812D01*
X1011380Y615409D01*
X1019380D01*
X1020171Y615736D01*
X1031952Y603955D01*
Y593276D01*
X1030682Y592739D01*
X1029495Y593650D01*
X1027641Y594418D01*
X1025652Y594680D01*
X1023663Y594418D01*
X1022410Y593899D01*
X1017970Y598339D01*
Y599916D01*
X1019380D01*
X1020352Y600318D01*
X1020755Y601291D01*
Y610290D01*
X1020352Y611263D01*
X1019380Y611665D01*
X1011380D01*
X1010408Y611263D01*
X1010006Y610290D01*
Y601291D01*
X1010408Y600318D01*
X1011380Y599916D01*
X1012791D01*
Y597266D01*
X1012988Y596275D01*
X1013549Y595434D01*
X1018747Y590236D01*
X1018228Y588983D01*
X1017966Y586994D01*
X1018228Y585005D01*
X1018996Y583151D01*
X1020217Y581559D01*
X1021809Y580338D01*
X1023663Y579570D01*
X1025652Y579308D01*
X1027641Y579570D01*
X1029495Y580338D01*
X1030682Y581249D01*
X1031952Y580712D01*
Y576129D01*
X1031945Y576122D01*
X1009462D01*
X1009031Y577392D01*
X1009640Y577860D01*
X1011065Y579717D01*
X1011961Y581879D01*
X1012100Y582930D01*
X1003300D01*
Y584200D01*
X1002030D01*
Y592999D01*
X1000979Y592861D01*
X998817Y591965D01*
X996960Y590540D01*
X995535Y588683D01*
X994968Y587315D01*
X993698Y587567D01*
Y600274D01*
X994968Y600399D01*
X994988Y600299D01*
X995549Y599459D01*
X996389Y598898D01*
X997380Y598701D01*
X1000110D01*
Y605790D01*
Y612880D01*
X997380D01*
X996389Y612683D01*
X995549Y612122D01*
X994988Y611282D01*
X994968Y611182D01*
X993698Y611307D01*
Y615767D01*
X994968Y615892D01*
X994988Y615792D01*
X995549Y614952D01*
X996389Y614391D01*
X997380Y614194D01*
X1000110D01*
Y621283D01*
Y628373D01*
X997380D01*
X996389Y628176D01*
X995549Y627615D01*
X994988Y626774D01*
X994968Y626675D01*
X993698Y626800D01*
Y631262D01*
X994968Y631387D01*
X994988Y631287D01*
X995549Y630447D01*
X996389Y629885D01*
X997380Y629688D01*
X1000110D01*
Y636778D01*
X1001380D01*
Y638048D01*
X1007970D01*
Y640491D01*
X1009046Y641566D01*
X1010006Y641278D01*
D02*
G37*
G36*
X1280150Y611766D02*
Y604988D01*
Y570033D01*
X1273539Y563422D01*
X1262300D01*
X1261774Y564692D01*
X1265481Y568399D01*
X1266043Y569239D01*
X1266240Y570230D01*
Y610777D01*
X1267510Y611121D01*
X1268897Y610056D01*
X1270751Y609288D01*
X1272740Y609026D01*
X1274729Y609288D01*
X1276583Y610056D01*
X1278175Y611277D01*
X1278880Y612197D01*
X1280150Y611766D01*
D02*
G37*
G36*
X1115769Y622247D02*
X1116609Y621685D01*
X1117600Y621488D01*
X1118943D01*
X1119075Y621290D01*
Y612290D01*
X1119478Y611318D01*
X1120450Y610916D01*
X1121360D01*
Y609155D01*
X1120107Y608636D01*
X1118515Y607415D01*
X1117294Y605823D01*
X1116526Y603969D01*
X1116264Y601980D01*
X1116526Y599991D01*
X1117294Y598137D01*
X1118515Y596545D01*
X1118981Y596188D01*
X1118550Y594918D01*
X1085787D01*
X1078160Y602545D01*
Y609715D01*
X1079430Y610055D01*
X1081087Y608784D01*
X1083249Y607888D01*
X1084300Y607750D01*
Y616549D01*
X1085570D01*
Y617819D01*
X1094370D01*
X1094343Y618021D01*
X1094393Y618153D01*
X1095450Y619106D01*
X1096772Y618932D01*
X1098761Y619194D01*
X1100615Y619962D01*
X1102207Y621183D01*
X1103428Y622775D01*
X1104196Y624629D01*
X1104458Y626618D01*
X1104196Y628607D01*
X1103428Y630461D01*
X1102207Y632053D01*
X1100615Y633274D01*
X1099362Y633793D01*
Y635219D01*
X1099445Y635420D01*
Y636775D01*
X1100715Y637301D01*
X1115769Y622247D01*
D02*
G37*
G36*
X1354275Y882851D02*
X1355115Y882289D01*
X1356106Y882092D01*
X1363306D01*
X1363837Y880822D01*
X1362717Y879362D01*
X1361821Y877200D01*
X1361682Y876149D01*
X1370482D01*
Y874879D01*
X1371752D01*
Y866080D01*
X1372803Y866218D01*
X1374965Y867114D01*
X1375614Y867612D01*
X1376884Y866985D01*
Y837749D01*
X1371345Y832210D01*
X1365465D01*
Y834120D01*
X1365062Y835092D01*
X1364090Y835495D01*
X1359499D01*
X1358820Y836765D01*
X1358898Y836880D01*
X1360590D01*
X1361581Y837077D01*
X1362421Y837639D01*
X1362473Y837715D01*
X1364090D01*
X1365062Y838118D01*
X1365465Y839090D01*
Y848090D01*
X1365062Y849062D01*
X1364601Y849253D01*
X1364731Y850574D01*
X1365201Y850667D01*
X1366041Y851229D01*
X1366603Y852069D01*
X1366800Y853060D01*
Y856290D01*
X1360710D01*
Y857560D01*
D01*
Y856290D01*
X1354620D01*
Y853060D01*
X1354817Y852069D01*
X1355379Y851229D01*
X1356219Y850667D01*
X1356527Y850606D01*
X1356657Y849285D01*
X1356118Y849062D01*
X1355715Y848090D01*
Y841881D01*
X1355623Y841863D01*
X1354783Y841301D01*
X1352497Y839015D01*
X1351935Y838175D01*
X1351746Y837225D01*
X1351464Y837048D01*
X1350567Y836602D01*
X1350195Y836798D01*
X1350062Y838118D01*
X1350464Y839090D01*
Y848090D01*
X1350062Y849062D01*
X1349090Y849464D01*
X1342186D01*
Y851669D01*
X1342210Y851685D01*
X1349210D01*
X1350182Y852088D01*
X1350584Y853060D01*
Y862060D01*
X1350182Y863032D01*
X1350060Y863082D01*
Y874902D01*
X1349863Y875893D01*
X1349301Y876734D01*
X1342316Y883719D01*
X1341475Y884281D01*
X1340484Y884478D01*
X1336611D01*
X1336092Y885731D01*
X1334871Y887323D01*
X1333279Y888544D01*
X1331425Y889312D01*
X1329436Y889574D01*
X1327447Y889312D01*
X1325926Y888682D01*
X1325520Y888786D01*
X1325018Y889061D01*
X1324633Y889408D01*
X1324381Y891321D01*
X1323485Y893483D01*
X1322091Y895300D01*
X1322159Y895762D01*
X1322433Y896570D01*
X1340555D01*
X1354275Y882851D01*
D02*
G37*
G36*
X1380694Y887419D02*
Y882942D01*
X1379521Y882456D01*
X1375463Y886513D01*
X1374623Y887075D01*
X1373632Y887272D01*
X1357179D01*
X1344990Y899461D01*
X1345476Y900634D01*
X1367479D01*
X1380694Y887419D01*
D02*
G37*
G36*
X1103072Y798898D02*
Y777043D01*
X1092651Y766622D01*
X1085653D01*
X1083491Y768783D01*
X1084211Y769860D01*
X1084406Y769779D01*
X1086395Y769517D01*
X1088384Y769779D01*
X1090238Y770547D01*
X1091830Y771768D01*
X1093051Y773360D01*
X1093819Y775214D01*
X1094081Y777203D01*
X1093819Y779192D01*
X1093051Y781046D01*
X1091830Y782638D01*
X1090238Y783859D01*
X1088660Y784512D01*
X1088516Y785398D01*
X1088595Y785860D01*
X1090053Y786464D01*
X1091910Y787889D01*
X1093335Y789746D01*
X1094231Y791909D01*
X1094370Y792960D01*
X1085570D01*
Y795500D01*
X1094370D01*
X1094231Y796550D01*
X1094139Y796773D01*
X1095125Y797711D01*
X1096772Y797494D01*
X1098761Y797756D01*
X1100615Y798524D01*
X1101802Y799435D01*
X1103072Y798898D01*
D02*
G37*
G36*
X1384504Y917391D02*
Y892594D01*
X1383331Y892108D01*
X1370383Y905055D01*
X1369543Y905617D01*
X1368552Y905814D01*
X1277464D01*
X1276451Y907135D01*
X1276336Y907222D01*
X1276615Y908609D01*
X1278233Y909279D01*
X1280065Y910685D01*
X1281471Y912517D01*
X1282354Y914651D01*
X1282656Y916940D01*
X1282354Y919229D01*
X1281471Y921363D01*
X1280065Y923195D01*
X1279918Y923308D01*
X1280326Y924510D01*
X1292694D01*
X1293102Y923308D01*
X1292955Y923195D01*
X1291549Y921363D01*
X1290666Y919229D01*
X1290364Y916940D01*
X1290666Y914651D01*
X1291549Y912517D01*
X1292955Y910685D01*
X1294787Y909279D01*
X1296921Y908396D01*
X1299210Y908094D01*
X1301499Y908396D01*
X1303633Y909279D01*
X1305465Y910685D01*
X1306871Y912517D01*
X1307754Y914651D01*
X1308056Y916940D01*
X1307754Y919229D01*
X1306871Y921363D01*
X1305465Y923195D01*
X1305318Y923308D01*
X1305726Y924510D01*
X1318094D01*
X1318502Y923308D01*
X1318355Y923195D01*
X1316949Y921363D01*
X1316066Y919229D01*
X1315764Y916940D01*
X1316066Y914651D01*
X1316949Y912517D01*
X1318355Y910685D01*
X1320187Y909279D01*
X1322321Y908396D01*
X1324610Y908094D01*
X1326899Y908396D01*
X1329033Y909279D01*
X1330865Y910685D01*
X1332271Y912517D01*
X1333154Y914651D01*
X1333456Y916940D01*
X1333154Y919229D01*
X1332271Y921363D01*
X1330865Y923195D01*
X1330718Y923308D01*
X1331126Y924510D01*
X1341088D01*
X1341135Y924440D01*
Y909440D01*
X1341538Y908468D01*
X1342510Y908065D01*
X1357510D01*
X1358482Y908468D01*
X1358885Y909440D01*
Y924440D01*
X1358932Y924510D01*
X1377385D01*
X1384504Y917391D01*
D02*
G37*
G36*
X1309281Y895762D02*
X1309349Y895300D01*
X1307955Y893483D01*
X1307059Y891321D01*
X1306920Y890270D01*
X1315720D01*
Y889000D01*
X1316990D01*
Y880201D01*
X1318041Y880339D01*
X1320203Y881235D01*
X1320523Y881480D01*
X1321878Y880919D01*
X1322012Y879899D01*
X1322780Y878045D01*
X1324001Y876453D01*
X1325593Y875232D01*
X1327447Y874464D01*
X1329436Y874202D01*
X1330236Y874308D01*
X1331150Y873216D01*
X1331148Y873147D01*
X1330894Y871220D01*
X1331156Y869231D01*
X1331924Y867377D01*
X1333145Y865785D01*
X1334737Y864564D01*
X1336591Y863796D01*
X1337006Y863741D01*
Y844296D01*
X1337203Y843305D01*
X1337765Y842465D01*
X1338605Y841903D01*
X1339596Y841706D01*
X1340715D01*
Y839090D01*
X1341118Y838118D01*
X1341618Y837911D01*
X1341488Y836590D01*
X1341099Y836513D01*
X1340259Y835951D01*
X1339697Y835111D01*
X1339500Y834120D01*
Y830890D01*
X1345590D01*
Y828350D01*
X1339500D01*
Y825120D01*
X1339697Y824129D01*
X1340259Y823289D01*
Y821981D01*
X1339697Y821141D01*
X1339500Y820150D01*
Y816920D01*
X1345590D01*
Y814380D01*
X1339500D01*
Y814100D01*
X1338327Y813614D01*
X1330759Y821181D01*
X1329919Y821743D01*
X1329702Y821786D01*
X1329214Y823178D01*
X1329996Y824197D01*
X1330764Y826051D01*
X1331026Y828040D01*
X1330764Y830029D01*
X1329996Y831883D01*
X1328775Y833475D01*
X1327183Y834696D01*
X1325329Y835464D01*
X1323340Y835726D01*
X1321351Y835464D01*
X1319497Y834696D01*
X1317905Y833475D01*
X1317885Y833448D01*
X1316615Y833879D01*
Y835600D01*
X1316589Y835662D01*
X1316591Y836880D01*
X1317128Y837316D01*
X1317431Y837519D01*
X1319259Y839347D01*
X1319497Y839164D01*
X1321351Y838396D01*
X1323340Y838134D01*
X1325329Y838396D01*
X1327183Y839164D01*
X1328775Y840385D01*
X1329996Y841977D01*
X1330764Y843831D01*
X1331026Y845820D01*
X1330764Y847809D01*
X1329996Y849663D01*
X1328775Y851255D01*
X1327183Y852476D01*
X1325329Y853244D01*
X1323340Y853506D01*
X1321351Y853244D01*
X1319497Y852476D01*
X1317905Y851255D01*
X1317784Y851096D01*
X1316330Y851288D01*
X1316212Y851572D01*
X1315240Y851975D01*
X1314589Y852768D01*
X1314643Y853040D01*
Y855027D01*
X1315700Y856084D01*
X1316990Y855914D01*
X1318979Y856176D01*
X1320833Y856944D01*
X1322425Y858165D01*
X1323646Y859757D01*
X1324414Y861611D01*
X1324676Y863600D01*
X1324414Y865589D01*
X1323646Y867443D01*
X1322425Y869035D01*
X1320833Y870256D01*
X1318979Y871024D01*
X1316990Y871286D01*
X1315001Y871024D01*
X1313147Y870256D01*
X1311555Y869035D01*
X1310334Y867443D01*
X1309566Y865589D01*
X1309304Y863600D01*
X1309474Y862310D01*
X1307127Y859963D01*
X1306635Y859226D01*
X1305365Y859612D01*
Y861850D01*
X1305330Y861934D01*
Y868617D01*
X1306583Y869136D01*
X1308175Y870357D01*
X1309396Y871949D01*
X1310164Y873803D01*
X1310426Y875792D01*
X1310164Y877781D01*
X1309396Y879635D01*
X1308175Y881227D01*
X1306583Y882448D01*
X1304729Y883216D01*
X1302740Y883478D01*
X1302356Y883427D01*
X1301853Y884642D01*
X1302105Y884835D01*
X1303326Y886427D01*
X1304094Y888281D01*
X1304356Y890270D01*
X1304094Y892259D01*
X1303326Y894113D01*
X1302415Y895300D01*
X1302952Y896570D01*
X1309007D01*
X1309281Y895762D01*
D02*
G37*
G36*
X1340715Y803900D02*
Y797180D01*
X1341118Y796208D01*
X1342090Y795805D01*
X1343000D01*
Y781621D01*
X1341747Y781102D01*
X1340155Y779881D01*
X1338934Y778289D01*
X1338166Y776435D01*
X1337904Y774446D01*
X1338166Y772457D01*
X1338685Y771204D01*
X1328515Y761034D01*
X1293425D01*
X1285290Y769169D01*
Y787468D01*
X1286560Y788005D01*
X1287747Y787094D01*
X1289601Y786326D01*
X1291590Y786064D01*
X1293579Y786326D01*
X1295433Y787094D01*
X1297025Y788315D01*
X1298246Y789907D01*
X1299014Y791761D01*
X1299276Y793750D01*
X1299014Y795739D01*
X1298246Y797593D01*
X1297941Y797990D01*
X1298568Y799260D01*
X1298990D01*
X1299981Y799457D01*
X1300240Y799630D01*
X1300499Y799457D01*
X1301470Y799264D01*
Y806850D01*
X1302740D01*
Y808120D01*
X1306580D01*
Y811725D01*
X1314338D01*
X1315464Y810548D01*
X1315426Y810260D01*
X1315688Y808271D01*
X1316456Y806417D01*
X1317677Y804825D01*
X1319269Y803604D01*
X1321123Y802836D01*
X1323112Y802574D01*
X1325101Y802836D01*
X1326955Y803604D01*
X1328547Y804825D01*
X1329768Y806417D01*
X1330536Y808271D01*
X1330798Y810260D01*
X1330536Y812249D01*
X1330511Y812308D01*
X1331588Y813028D01*
X1340715Y803900D01*
D02*
G37*
G36*
X1290925Y895300D02*
X1290014Y894113D01*
X1289246Y892259D01*
X1288984Y890270D01*
X1289246Y888281D01*
X1290014Y886427D01*
X1290903Y885268D01*
X1288959Y883324D01*
X1288005Y881896D01*
X1287670Y880211D01*
Y864875D01*
X1287802Y864207D01*
X1286997Y863225D01*
X1286490D01*
X1285518Y862822D01*
X1284962Y862822D01*
X1283990Y863225D01*
X1283459D01*
X1283028Y864495D01*
X1283055Y864515D01*
X1284276Y866107D01*
X1285044Y867961D01*
X1285306Y869950D01*
X1285044Y871939D01*
X1284276Y873793D01*
X1283055Y875385D01*
X1281463Y876606D01*
X1279609Y877374D01*
X1277620Y877636D01*
X1275631Y877374D01*
X1273777Y876606D01*
X1272185Y875385D01*
X1271600Y874621D01*
X1270330Y875052D01*
Y880035D01*
X1286865Y896570D01*
X1290388D01*
X1290925Y895300D01*
D02*
G37*
G36*
X1164035Y754574D02*
X1163516Y753321D01*
X1163461Y752906D01*
X1145844D01*
Y763778D01*
Y771106D01*
X1147017Y771592D01*
X1164035Y754574D01*
D02*
G37*
G36*
X1125424Y883596D02*
Y853440D01*
X1125621Y852449D01*
X1126183Y851609D01*
X1128469Y849323D01*
X1129235Y848811D01*
Y846083D01*
X1129638Y845110D01*
X1130610Y844708D01*
X1137610D01*
X1138582Y845110D01*
X1138985Y846083D01*
Y855082D01*
X1138582Y856055D01*
X1137610Y856457D01*
X1130610D01*
X1130604Y856461D01*
Y859680D01*
X1130610Y859685D01*
X1132840D01*
Y866775D01*
X1134110D01*
Y868045D01*
X1140200D01*
Y871114D01*
X1142139Y871369D01*
X1144301Y872265D01*
X1144982Y872787D01*
X1146252Y872161D01*
Y830129D01*
X1139592Y823469D01*
X1138582Y823670D01*
X1137610Y824072D01*
X1130610D01*
X1130604Y824076D01*
Y827221D01*
X1131898Y828515D01*
X1137610D01*
X1138582Y828918D01*
X1138985Y829890D01*
Y838890D01*
X1138582Y839862D01*
X1137610Y840265D01*
X1130610D01*
X1129638Y839862D01*
X1129235Y838890D01*
Y833178D01*
X1126469Y830412D01*
X1125338Y830773D01*
X1125200Y830879D01*
Y833120D01*
X1119110D01*
Y834390D01*
X1117840D01*
Y841480D01*
X1116672D01*
X1116146Y842750D01*
X1118104Y844708D01*
X1122610D01*
X1123582Y845110D01*
X1123984Y846083D01*
Y855082D01*
X1123582Y856055D01*
X1122610Y856457D01*
X1115659D01*
Y860900D01*
X1122610D01*
X1123582Y861303D01*
X1123984Y862275D01*
Y871275D01*
X1123582Y872247D01*
X1122610Y872650D01*
X1121700D01*
Y876865D01*
X1123241Y878406D01*
X1123803Y879247D01*
X1124000Y880238D01*
Y884275D01*
X1124154Y884357D01*
X1125424Y883596D01*
D02*
G37*
G36*
X1199869Y902412D02*
X1199795Y902356D01*
X1198574Y900764D01*
X1197806Y898911D01*
X1197544Y896921D01*
X1197806Y894932D01*
X1198574Y893078D01*
X1199795Y891487D01*
X1201387Y890265D01*
X1202640Y889746D01*
Y884715D01*
X1201230D01*
X1200258Y884312D01*
X1199855Y883340D01*
Y874340D01*
X1200258Y873368D01*
X1201230Y872965D01*
X1209230D01*
X1210006Y872447D01*
Y869231D01*
X1209230Y868713D01*
X1201230D01*
X1200258Y868310D01*
X1199855Y867338D01*
Y865428D01*
X1179633D01*
X1165342Y879719D01*
Y882369D01*
X1166612Y882621D01*
X1166824Y882109D01*
X1168045Y880517D01*
X1169637Y879296D01*
X1171491Y878528D01*
X1173480Y878266D01*
X1175469Y878528D01*
X1177323Y879296D01*
X1178915Y880517D01*
X1180136Y882109D01*
X1180904Y883963D01*
X1181166Y885952D01*
X1180904Y887941D01*
X1180385Y889194D01*
X1194873Y903682D01*
X1199438D01*
X1199869Y902412D01*
D02*
G37*
G36*
X975755Y950418D02*
X974747Y950001D01*
X972915Y948595D01*
X971509Y946763D01*
X970626Y944629D01*
X970324Y942340D01*
X970626Y940051D01*
X971509Y937917D01*
X972915Y936085D01*
X974747Y934679D01*
X976881Y933796D01*
X979170Y933494D01*
X981459Y933796D01*
X983593Y934679D01*
X985425Y936085D01*
X986831Y937917D01*
X987248Y938925D01*
X988518Y938673D01*
Y920607D01*
X987248Y920355D01*
X986831Y921363D01*
X985425Y923195D01*
X983593Y924601D01*
X981459Y925484D01*
X979170Y925786D01*
X976881Y925484D01*
X974747Y924601D01*
X972915Y923195D01*
X971509Y921363D01*
X970626Y919229D01*
X970324Y916940D01*
X970626Y914651D01*
X971509Y912517D01*
X972915Y910685D01*
X974747Y909279D01*
X976881Y908396D01*
X979170Y908094D01*
X981459Y908396D01*
X983593Y909279D01*
X985425Y910685D01*
X986831Y912517D01*
X987248Y913525D01*
X988518Y913273D01*
Y892860D01*
X983805D01*
X983286Y894113D01*
X982065Y895705D01*
X980473Y896926D01*
X978619Y897694D01*
X976630Y897956D01*
X974641Y897694D01*
X972787Y896926D01*
X971195Y895705D01*
X969974Y894113D01*
X969206Y892259D01*
X968944Y890270D01*
X969206Y888281D01*
X969974Y886427D01*
X971195Y884835D01*
X972787Y883614D01*
X974641Y882846D01*
X976630Y882584D01*
X978619Y882846D01*
X980473Y883614D01*
X982065Y884835D01*
X983286Y886427D01*
X983805Y887680D01*
X988518D01*
Y864870D01*
Y838962D01*
X988715Y837971D01*
X989277Y837131D01*
X991400Y835007D01*
X991277Y834390D01*
X991612Y832705D01*
X992567Y831277D01*
X993995Y830322D01*
X995385Y830046D01*
Y829890D01*
X995788Y828918D01*
X996760Y828515D01*
X998170D01*
Y825025D01*
X996760D01*
X995788Y824622D01*
X995385Y823650D01*
Y814650D01*
X995788Y813678D01*
X996760Y813275D01*
X1004760D01*
X1005732Y813678D01*
X1006135Y814650D01*
Y823650D01*
X1005732Y824622D01*
X1004760Y825025D01*
X1003350D01*
Y828515D01*
X1004760D01*
X1005732Y828918D01*
X1006135Y829890D01*
Y838890D01*
X1005732Y839862D01*
X1004760Y840265D01*
X996760D01*
X995788Y839862D01*
X994579Y839757D01*
X993698Y840517D01*
Y862280D01*
X995385D01*
Y860370D01*
X995788Y859398D01*
X996760Y858995D01*
X998961D01*
X999448Y857822D01*
X998929Y857303D01*
X998367Y856463D01*
X998177Y855505D01*
X996760D01*
X995788Y855102D01*
X995385Y854130D01*
Y845130D01*
X995788Y844158D01*
X996760Y843755D01*
X1004760D01*
X1005732Y844158D01*
X1006135Y845130D01*
Y854130D01*
X1007079Y855168D01*
X1008441D01*
X1009385Y854130D01*
Y845130D01*
X1009788Y844158D01*
X1010760Y843755D01*
X1018760D01*
X1019732Y844158D01*
X1020192Y844249D01*
X1021258Y843326D01*
Y841803D01*
X1019988Y841124D01*
X1019751Y841283D01*
X1018760Y841480D01*
X1016030D01*
Y834390D01*
X1014760D01*
Y833120D01*
X1008170D01*
Y829890D01*
X1008367Y828899D01*
X1008929Y828059D01*
X1009769Y827497D01*
X1010171Y827417D01*
Y826123D01*
X1009769Y826043D01*
X1008929Y825481D01*
X1008367Y824641D01*
X1008170Y823650D01*
Y820420D01*
X1014760D01*
Y817880D01*
X1008170D01*
Y814650D01*
X1008367Y813659D01*
X1008929Y812819D01*
X1009769Y812257D01*
X1010171Y812177D01*
Y810883D01*
X1009769Y810803D01*
X1008929Y810241D01*
X1008367Y809401D01*
X1008170Y808410D01*
Y805180D01*
X1014760D01*
Y803910D01*
D01*
Y805180D01*
X1021350D01*
Y808410D01*
X1021153Y809401D01*
X1020591Y810241D01*
X1019751Y810803D01*
X1019349Y810883D01*
Y812177D01*
X1019751Y812257D01*
X1020591Y812819D01*
X1021153Y813659D01*
X1021350Y814650D01*
Y819798D01*
X1022620Y820324D01*
X1030425Y812519D01*
X1031265Y811957D01*
X1032256Y811760D01*
X1037986D01*
X1038070Y811725D01*
X1047945D01*
Y802916D01*
X1037996Y792967D01*
X1037336Y793054D01*
X1035347Y792792D01*
X1033493Y792024D01*
X1031901Y790803D01*
X1030680Y789211D01*
X1029938Y787421D01*
X1029304Y787197D01*
X1028607Y787175D01*
X1027309Y788867D01*
X1025452Y790292D01*
X1023289Y791188D01*
X1022238Y791326D01*
Y782527D01*
Y773727D01*
X1023289Y773866D01*
X1025452Y774761D01*
X1027309Y776186D01*
X1028734Y778043D01*
X1029629Y780206D01*
X1029697Y780720D01*
X1031025Y781076D01*
X1031901Y779933D01*
X1033493Y778712D01*
X1035347Y777944D01*
X1037336Y777682D01*
X1039325Y777944D01*
X1041179Y778712D01*
X1042771Y779933D01*
X1043992Y781525D01*
X1044760Y783379D01*
X1045022Y785368D01*
X1044760Y787357D01*
X1043992Y789211D01*
X1042938Y790584D01*
X1046764Y794410D01*
X1047993Y793842D01*
X1048200Y792269D01*
X1048968Y790415D01*
X1050189Y788823D01*
X1051781Y787602D01*
X1053635Y786834D01*
X1055624Y786572D01*
X1056282Y786659D01*
X1056876Y785456D01*
X1020007Y748588D01*
X1016186D01*
X1015649Y749858D01*
X1016560Y751045D01*
X1017328Y752899D01*
X1017590Y754888D01*
X1017328Y756877D01*
X1016560Y758731D01*
X1015339Y760323D01*
X1013747Y761544D01*
X1011893Y762312D01*
X1009904Y762574D01*
X1007915Y762312D01*
X1006662Y761793D01*
X1003350Y765105D01*
Y798035D01*
X1004760D01*
X1005732Y798438D01*
X1006135Y799410D01*
Y808410D01*
X1005732Y809382D01*
X1004760Y809785D01*
X996760D01*
X995788Y809382D01*
X995385Y808410D01*
Y799410D01*
X995788Y798438D01*
X996760Y798035D01*
X998170D01*
Y785779D01*
X996997Y785294D01*
X937059Y845231D01*
X934519Y847771D01*
X933679Y848333D01*
X932975Y848473D01*
Y849440D01*
X932572Y850412D01*
X931600Y850815D01*
X922600D01*
X921628Y850412D01*
X921225Y849440D01*
Y842440D01*
X921628Y841468D01*
X922600Y841065D01*
X931600D01*
X932638Y840121D01*
Y814809D01*
X931600Y813865D01*
X925337D01*
X924751Y815135D01*
X925380Y816653D01*
X925642Y818642D01*
X925380Y820631D01*
X924612Y822485D01*
X923391Y824077D01*
X921799Y825298D01*
X919945Y826066D01*
X917956Y826328D01*
X915967Y826066D01*
X914113Y825298D01*
X912521Y824077D01*
X911300Y822485D01*
X910532Y820631D01*
X910270Y818642D01*
X910532Y816653D01*
X911300Y814799D01*
X912521Y813207D01*
X912987Y812850D01*
X912556Y811580D01*
X887920D01*
X887401Y812833D01*
X886180Y814425D01*
X884588Y815646D01*
X882734Y816414D01*
X880745Y816676D01*
X878756Y816414D01*
X876902Y815646D01*
X875310Y814425D01*
X874089Y812833D01*
X873321Y810979D01*
X873059Y808990D01*
X873321Y807001D01*
X874089Y805147D01*
X875310Y803555D01*
X876902Y802334D01*
X878756Y801566D01*
X880745Y801304D01*
X882734Y801566D01*
X884588Y802334D01*
X886180Y803555D01*
X887401Y805147D01*
X887920Y806400D01*
X921225D01*
Y805490D01*
X921628Y804518D01*
X922600Y804115D01*
X931600D01*
X931947Y803806D01*
X931984Y802536D01*
X928312Y798864D01*
X922600D01*
X921628Y798462D01*
X921225Y797490D01*
Y790490D01*
X921628Y789518D01*
X922600Y789115D01*
X924510D01*
Y761675D01*
X922600D01*
X921628Y761272D01*
X921225Y760300D01*
Y753300D01*
X921628Y752328D01*
X922600Y751926D01*
X931600D01*
X932572Y752328D01*
X932975Y753300D01*
Y760300D01*
X932572Y761272D01*
X931600Y761675D01*
X929690D01*
Y789115D01*
X931600D01*
X932572Y789518D01*
X932975Y790490D01*
Y796202D01*
X937059Y800286D01*
X937621Y801127D01*
X937818Y802118D01*
Y835488D01*
X938991Y835974D01*
X994360Y780605D01*
Y751840D01*
X994557Y750849D01*
X995119Y750009D01*
X1000961Y744167D01*
X1001801Y743605D01*
X1002792Y743408D01*
X1021080D01*
X1022071Y743605D01*
X1022911Y744167D01*
X1061784Y783039D01*
X1063080Y782540D01*
X1063177Y782051D01*
X1063739Y781211D01*
X1082749Y762201D01*
X1096465Y748485D01*
X1097305Y747923D01*
X1098296Y747726D01*
X1105780D01*
X1106032Y746456D01*
X1105809Y746364D01*
X1104082Y745038D01*
X1102756Y743311D01*
X1101923Y741299D01*
X1101639Y739140D01*
X1101923Y736981D01*
X1102756Y734969D01*
X1104082Y733242D01*
X1105809Y731916D01*
X1107821Y731083D01*
X1109980Y730799D01*
X1112139Y731083D01*
X1114151Y731916D01*
X1115878Y733242D01*
X1117204Y734969D01*
X1117899Y736649D01*
X1118993Y736777D01*
X1119243Y736723D01*
X1119834Y735297D01*
X1121055Y733705D01*
X1122647Y732484D01*
X1124501Y731716D01*
X1126490Y731454D01*
X1127733Y731618D01*
X1128327Y730415D01*
X1116023Y718111D01*
X1115461Y717271D01*
X1115264Y716280D01*
Y707608D01*
X1114091Y707122D01*
X1109452Y711761D01*
X1108612Y712323D01*
X1107620Y712520D01*
X1064386D01*
X1063395Y712323D01*
X1062555Y711761D01*
X1053091Y702297D01*
X1051813Y702815D01*
X1051618Y704299D01*
X1050850Y706153D01*
X1049629Y707745D01*
X1048037Y708966D01*
X1046183Y709734D01*
X1044194Y709996D01*
X1042205Y709734D01*
X1040351Y708966D01*
X1038759Y707745D01*
X1037538Y706153D01*
X1037019Y704900D01*
X1027207D01*
X1026216Y704703D01*
X1025376Y704141D01*
X1013549Y692314D01*
X1012988Y691474D01*
X1012791Y690483D01*
Y689135D01*
X1011380D01*
X1010408Y688732D01*
X1010006Y687760D01*
Y678760D01*
X1010408Y677788D01*
X1011380Y677385D01*
X1011727D01*
X1012791Y676220D01*
Y673641D01*
X1011380D01*
X1010408Y673238D01*
X1010006Y672266D01*
Y664599D01*
X1008736Y664073D01*
X1006755Y666054D01*
Y672266D01*
X1006352Y673238D01*
X1005380Y673641D01*
X997380D01*
X996408Y673238D01*
X996006Y672266D01*
Y670356D01*
X995680D01*
X994689Y670159D01*
X993849Y669597D01*
X991108Y666857D01*
X981760Y676205D01*
Y689807D01*
X984818Y692865D01*
X986071Y692346D01*
X988060Y692084D01*
X990049Y692346D01*
X991903Y693114D01*
X993495Y694335D01*
X994716Y695927D01*
X995484Y697781D01*
X995656Y699088D01*
X995669Y699187D01*
X996950D01*
X996963Y699088D01*
X997179Y697449D01*
X998075Y695287D01*
X999500Y693430D01*
X1001357Y692005D01*
X1002286Y691620D01*
X1002033Y690350D01*
X997380D01*
X996389Y690153D01*
X995549Y689591D01*
X994988Y688751D01*
X994790Y687760D01*
Y684530D01*
X1001380D01*
X1007970D01*
Y687760D01*
X1007773Y688751D01*
X1007212Y689591D01*
X1007072Y689685D01*
X1007380Y691006D01*
X1008161Y691109D01*
X1010323Y692005D01*
X1012180Y693430D01*
X1013605Y695287D01*
X1014501Y697449D01*
X1014640Y698500D01*
X1005840D01*
Y699770D01*
X1004570D01*
Y708569D01*
X1003519Y708431D01*
X1001357Y707535D01*
X999500Y706110D01*
X998075Y704253D01*
X997179Y702091D01*
X996963Y700452D01*
X996950Y700353D01*
X995669D01*
X995656Y700452D01*
X995484Y701759D01*
X994716Y703613D01*
X993495Y705205D01*
X991903Y706426D01*
X990049Y707194D01*
X988060Y707456D01*
X986071Y707194D01*
X984217Y706426D01*
X982625Y705205D01*
X981404Y703613D01*
X980636Y701759D01*
X980374Y699770D01*
X980636Y697781D01*
X981155Y696528D01*
X977339Y692711D01*
X976777Y691871D01*
X976580Y690880D01*
Y675132D01*
X976777Y674141D01*
X977339Y673301D01*
X988518Y662121D01*
Y577516D01*
X987388Y576956D01*
X987293Y576945D01*
X932487Y631751D01*
X931647Y632313D01*
X930656Y632510D01*
X879913D01*
X874000Y638422D01*
X874486Y639595D01*
X875790D01*
X876762Y639998D01*
X877165Y640970D01*
Y656970D01*
X876762Y657942D01*
X875790Y658345D01*
X843790D01*
X842818Y657942D01*
X842415Y656970D01*
Y651560D01*
X831145D01*
X770940Y711765D01*
Y719875D01*
X777350D01*
X778322Y720278D01*
X778725Y721250D01*
Y739250D01*
X778322Y740222D01*
X777350Y740625D01*
X764202D01*
X751671Y753156D01*
Y878794D01*
X761662Y888785D01*
X774810D01*
X775782Y889188D01*
X776185Y890160D01*
Y905872D01*
X822001Y951688D01*
X899303D01*
X899556Y950418D01*
X898547Y950001D01*
X896715Y948595D01*
X895309Y946763D01*
X894426Y944629D01*
X894124Y942340D01*
X894426Y940051D01*
X895309Y937917D01*
X896715Y936085D01*
X898547Y934679D01*
X900681Y933796D01*
X902970Y933494D01*
X905259Y933796D01*
X907393Y934679D01*
X909225Y936085D01*
X910631Y937917D01*
X911514Y940051D01*
X911816Y942340D01*
X911514Y944629D01*
X910631Y946763D01*
X909225Y948595D01*
X907393Y950001D01*
X906385Y950418D01*
X906637Y951688D01*
X924703D01*
X924956Y950418D01*
X923947Y950001D01*
X922115Y948595D01*
X920709Y946763D01*
X919826Y944629D01*
X919524Y942340D01*
X919826Y940051D01*
X920709Y937917D01*
X922115Y936085D01*
X923947Y934679D01*
X926081Y933796D01*
X928370Y933494D01*
X930659Y933796D01*
X932793Y934679D01*
X934625Y936085D01*
X936031Y937917D01*
X936914Y940051D01*
X937216Y942340D01*
X936914Y944629D01*
X936031Y946763D01*
X934625Y948595D01*
X932793Y950001D01*
X931785Y950418D01*
X932037Y951688D01*
X950103D01*
X950356Y950418D01*
X949347Y950001D01*
X947515Y948595D01*
X946109Y946763D01*
X945226Y944629D01*
X944924Y942340D01*
X945226Y940051D01*
X946109Y937917D01*
X947515Y936085D01*
X949347Y934679D01*
X951481Y933796D01*
X953770Y933494D01*
X956059Y933796D01*
X958193Y934679D01*
X960025Y936085D01*
X961431Y937917D01*
X962314Y940051D01*
X962616Y942340D01*
X962314Y944629D01*
X961431Y946763D01*
X960025Y948595D01*
X958193Y950001D01*
X957185Y950418D01*
X957437Y951688D01*
X975503D01*
X975755Y950418D01*
D02*
G37*
G36*
X1097543Y944003D02*
X1097324Y942340D01*
X1097626Y940051D01*
X1098509Y937917D01*
X1099915Y936085D01*
X1101747Y934679D01*
X1103519Y933946D01*
X1103991Y932622D01*
X1091639Y920270D01*
X1091077Y919430D01*
X1090880Y918439D01*
Y914355D01*
X1090423Y914009D01*
X1089603Y914484D01*
X1089331Y914775D01*
X1089616Y916940D01*
X1089314Y919229D01*
X1088431Y921363D01*
X1087025Y923195D01*
X1085193Y924601D01*
X1083059Y925484D01*
X1080770Y925786D01*
X1078481Y925484D01*
X1076347Y924601D01*
X1074515Y923195D01*
X1073109Y921363D01*
X1072226Y919229D01*
X1071924Y916940D01*
X1072226Y914651D01*
X1073109Y912517D01*
X1074515Y910685D01*
X1076347Y909279D01*
X1078481Y908396D01*
X1080770Y908094D01*
X1083059Y908396D01*
X1083649Y908640D01*
X1084369Y907563D01*
X1084019Y907214D01*
X1083457Y906373D01*
X1083260Y905382D01*
Y896492D01*
X1083457Y895501D01*
X1084019Y894661D01*
X1085863Y892817D01*
X1085345Y891539D01*
X1083861Y891344D01*
X1082007Y890576D01*
X1080415Y889355D01*
X1079194Y887763D01*
X1078426Y885909D01*
X1078164Y883920D01*
X1078426Y881931D01*
X1079194Y880077D01*
X1080415Y878485D01*
X1081447Y877693D01*
Y877027D01*
X1081566Y876429D01*
X1074215Y869078D01*
X1073012Y869671D01*
X1073216Y871220D01*
X1072954Y873209D01*
X1072186Y875063D01*
X1070965Y876655D01*
X1069373Y877876D01*
X1067519Y878644D01*
X1065530Y878906D01*
X1063541Y878644D01*
X1061687Y877876D01*
X1061639Y877839D01*
X1060500Y878401D01*
Y883792D01*
X1060303Y884783D01*
X1059741Y885624D01*
X1047800Y897565D01*
Y910424D01*
X1049002Y910832D01*
X1049115Y910685D01*
X1050947Y909279D01*
X1053081Y908396D01*
X1055370Y908094D01*
X1057659Y908396D01*
X1059793Y909279D01*
X1061625Y910685D01*
X1063031Y912517D01*
X1063914Y914651D01*
X1064216Y916940D01*
X1063914Y919229D01*
X1063031Y921363D01*
X1061625Y923195D01*
X1059793Y924601D01*
X1057659Y925484D01*
X1055370Y925786D01*
X1055077Y925747D01*
X1054316Y926928D01*
X1054392Y927050D01*
X1085850D01*
X1086841Y927247D01*
X1087681Y927809D01*
X1092761Y932889D01*
X1093323Y933729D01*
X1093520Y934720D01*
Y941775D01*
X1096340Y944596D01*
X1097543Y944003D01*
D02*
G37*
G36*
X1113020Y818900D02*
Y813698D01*
X1113217Y812707D01*
X1113779Y811866D01*
X1114619Y811305D01*
X1115610Y811108D01*
X1117840D01*
Y818197D01*
X1120380D01*
Y811108D01*
X1122610D01*
X1123601Y811305D01*
X1124154Y811675D01*
X1125149Y811323D01*
X1125424Y811112D01*
Y811022D01*
X1125621Y810031D01*
X1126183Y809191D01*
X1127023Y808629D01*
X1128014Y808432D01*
X1128934D01*
X1129508Y807162D01*
X1129235Y806505D01*
Y797505D01*
X1129638Y796533D01*
X1130610Y796130D01*
X1131520D01*
Y795020D01*
X1131717Y794029D01*
X1132279Y793189D01*
X1132666Y792801D01*
X1132147Y791548D01*
X1131885Y789559D01*
X1132147Y787570D01*
X1132915Y785716D01*
X1134136Y784124D01*
X1135728Y782903D01*
X1135789Y782878D01*
X1135536Y781608D01*
X1133391D01*
X1121700Y793299D01*
Y796130D01*
X1122610D01*
X1123582Y796533D01*
X1123984Y797505D01*
Y806505D01*
X1123582Y807477D01*
X1122610Y807880D01*
X1115610D01*
X1114638Y807477D01*
X1114235Y806505D01*
Y797505D01*
X1114638Y796533D01*
X1115610Y796130D01*
X1116520D01*
Y792226D01*
X1116717Y791235D01*
X1117279Y790395D01*
X1129143Y778531D01*
X1129060Y777263D01*
X1128024Y776468D01*
X1126599Y774611D01*
X1125703Y772449D01*
X1125564Y771398D01*
X1134364D01*
Y770128D01*
X1135634D01*
Y760612D01*
X1135895Y760082D01*
X1128719Y752906D01*
X1099369D01*
X1092006Y760269D01*
X1092492Y761442D01*
X1093724D01*
X1094715Y761639D01*
X1095555Y762201D01*
X1107493Y774139D01*
X1108055Y774979D01*
X1108252Y775970D01*
Y815032D01*
X1108160Y815495D01*
X1108154Y816120D01*
X1108979Y816926D01*
X1109139Y816957D01*
X1109979Y817519D01*
X1111847Y819386D01*
X1113020Y818900D01*
D02*
G37*
G36*
X1213856Y851336D02*
Y842336D01*
X1214258Y841364D01*
X1215230Y840961D01*
X1216785D01*
X1216838Y840693D01*
X1217399Y839853D01*
X1218239Y839292D01*
X1218732Y839194D01*
X1218607Y837924D01*
X1215230D01*
X1214239Y837727D01*
X1213399Y837165D01*
X1212838Y836325D01*
X1212641Y835334D01*
Y832104D01*
X1219230D01*
Y830834D01*
X1220500D01*
Y823744D01*
X1223231D01*
X1224221Y823941D01*
X1225062Y824503D01*
X1225218Y824736D01*
X1226488Y824351D01*
Y821315D01*
X1225218Y820930D01*
X1225062Y821163D01*
X1224221Y821725D01*
X1223231Y821922D01*
X1220500D01*
Y814832D01*
Y807742D01*
X1221554D01*
X1222082Y806994D01*
X1221325Y805920D01*
X1220500D01*
Y798830D01*
Y791740D01*
X1223231D01*
X1224221Y791937D01*
X1225062Y792499D01*
X1225623Y793339D01*
X1225820Y794330D01*
Y799117D01*
X1227090Y799966D01*
X1228133Y799534D01*
X1230122Y799272D01*
X1232111Y799534D01*
X1233965Y800302D01*
X1235557Y801523D01*
X1236778Y803115D01*
X1237297Y804368D01*
X1247282D01*
X1247819Y803098D01*
X1246908Y801911D01*
X1246140Y800057D01*
X1245878Y798068D01*
X1246140Y796079D01*
X1246908Y794225D01*
X1248129Y792633D01*
X1249721Y791412D01*
X1251574Y790644D01*
X1253564Y790382D01*
X1255553Y790644D01*
X1257406Y791412D01*
X1258998Y792633D01*
X1260220Y794225D01*
X1260739Y795478D01*
X1270200D01*
X1271191Y795675D01*
X1272031Y796237D01*
X1274571Y798777D01*
X1275133Y799617D01*
X1275141Y799659D01*
X1276490Y800475D01*
X1278990D01*
X1280110Y799565D01*
Y768096D01*
X1280307Y767105D01*
X1280869Y766265D01*
X1290521Y756613D01*
X1291361Y756051D01*
X1292352Y755854D01*
X1329588D01*
X1330579Y756051D01*
X1331419Y756613D01*
X1342348Y767541D01*
X1343601Y767022D01*
X1345590Y766760D01*
X1347579Y767022D01*
X1349433Y767790D01*
X1351025Y769011D01*
X1352246Y770603D01*
X1352246Y770604D01*
X1353516Y770351D01*
Y741356D01*
X1339857Y727697D01*
X1338579Y728215D01*
X1338384Y729699D01*
X1337616Y731553D01*
X1336395Y733145D01*
X1334803Y734366D01*
X1332949Y735134D01*
X1330960Y735396D01*
X1330031Y735273D01*
X1329903Y735321D01*
X1328949Y736412D01*
X1329141Y737870D01*
X1328857Y740029D01*
X1328024Y742041D01*
X1326698Y743768D01*
X1324971Y745094D01*
X1322959Y745927D01*
X1320800Y746211D01*
X1318641Y745927D01*
X1316629Y745094D01*
X1314902Y743768D01*
X1313576Y742041D01*
X1312743Y740029D01*
X1312459Y737870D01*
X1312743Y735711D01*
X1313576Y733699D01*
X1314902Y731972D01*
X1316629Y730646D01*
X1318641Y729813D01*
X1320800Y729529D01*
X1322258Y729721D01*
X1323349Y728767D01*
X1323397Y728640D01*
X1323274Y727710D01*
X1323536Y725721D01*
X1324304Y723867D01*
X1325525Y722275D01*
X1327117Y721054D01*
X1328971Y720286D01*
X1330960Y720024D01*
X1332434Y720218D01*
X1333510Y719497D01*
X1333704Y719224D01*
Y705068D01*
X1332531Y704582D01*
X1324082Y713031D01*
X1323241Y713593D01*
X1322251Y713790D01*
X1311729D01*
X1310739Y713593D01*
X1309898Y713031D01*
X1309818Y712951D01*
X1255319D01*
X1254328Y712754D01*
X1253488Y712193D01*
X1246585Y705290D01*
X1245412Y705776D01*
Y714775D01*
X1246682Y715624D01*
X1247691Y715206D01*
X1249680Y714944D01*
X1251669Y715206D01*
X1253523Y715974D01*
X1255115Y717195D01*
X1256336Y718787D01*
X1257104Y720641D01*
X1257366Y722630D01*
X1257104Y724619D01*
X1256336Y726473D01*
X1255115Y728065D01*
X1253523Y729286D01*
X1252896Y729546D01*
X1252842Y730898D01*
X1252858Y730936D01*
X1253245Y731870D01*
Y743870D01*
X1252842Y744842D01*
X1251870Y745245D01*
X1239870D01*
X1238898Y744842D01*
X1238495Y743870D01*
Y731870D01*
X1238898Y730898D01*
X1239870Y730495D01*
X1245103D01*
X1245764Y729361D01*
X1245758Y729225D01*
X1244245Y728065D01*
X1243024Y726473D01*
X1242322Y724779D01*
X1241083Y724222D01*
X1199438Y765867D01*
Y792519D01*
X1200708Y793172D01*
X1201230Y792955D01*
X1202640D01*
Y776960D01*
X1202003Y776130D01*
X1201235Y774276D01*
X1200973Y772287D01*
X1201235Y770298D01*
X1202003Y768444D01*
X1203224Y766852D01*
X1204816Y765631D01*
X1206670Y764863D01*
X1208659Y764601D01*
X1210648Y764863D01*
X1212502Y765631D01*
X1214094Y766852D01*
X1215315Y768444D01*
X1216083Y770298D01*
X1216345Y772287D01*
X1216083Y774276D01*
X1215315Y776130D01*
X1214094Y777722D01*
X1212502Y778943D01*
X1210648Y779711D01*
X1208659Y779973D01*
X1207820Y780709D01*
Y792955D01*
X1209230D01*
X1210202Y793358D01*
X1210605Y794330D01*
Y803330D01*
X1210202Y804302D01*
X1209230Y804705D01*
X1201230D01*
X1200708Y804488D01*
X1199438Y805141D01*
Y807924D01*
X1200912D01*
X1201903Y808121D01*
X1202743Y808683D01*
X1203018Y808957D01*
X1209230D01*
X1210202Y809360D01*
X1210605Y810332D01*
Y819332D01*
X1210202Y820304D01*
X1209230Y820707D01*
X1207820D01*
Y824959D01*
X1209230D01*
X1210202Y825362D01*
X1210605Y826334D01*
Y835334D01*
X1210202Y836306D01*
X1209230Y836709D01*
X1201230D01*
X1200708Y836492D01*
X1199438Y837145D01*
Y840525D01*
X1200708Y841178D01*
X1201230Y840961D01*
X1209230D01*
X1210202Y841364D01*
X1210605Y842336D01*
Y851336D01*
X1210620Y851358D01*
X1213841D01*
X1213856Y851336D01*
D02*
G37*
G36*
X1267702Y923308D02*
X1267555Y923195D01*
X1266149Y921363D01*
X1265266Y919229D01*
X1264964Y916940D01*
X1265266Y914651D01*
X1266149Y912517D01*
X1267555Y910685D01*
X1268229Y910168D01*
X1268038Y908714D01*
X1267173Y908356D01*
X1265581Y907135D01*
X1264360Y905543D01*
X1263592Y903689D01*
X1263330Y901700D01*
X1263592Y899711D01*
X1264360Y897857D01*
X1265581Y896265D01*
X1267173Y895044D01*
X1269027Y894276D01*
X1271016Y894014D01*
X1273005Y894276D01*
X1274859Y895044D01*
X1276451Y896265D01*
X1277672Y897857D01*
X1278440Y899711D01*
X1278561Y900634D01*
X1281945D01*
X1282431Y899461D01*
X1265909Y882939D01*
X1265347Y882099D01*
X1265150Y881108D01*
Y868154D01*
X1264947Y868085D01*
X1263880Y867860D01*
X1262413Y868986D01*
X1260559Y869754D01*
X1258570Y870016D01*
X1256581Y869754D01*
X1255866Y869458D01*
X1254810Y870163D01*
Y887984D01*
X1254613Y888975D01*
X1254051Y889815D01*
X1240840Y903027D01*
Y910424D01*
X1242042Y910832D01*
X1242155Y910685D01*
X1243987Y909279D01*
X1246121Y908396D01*
X1248410Y908094D01*
X1250699Y908396D01*
X1252833Y909279D01*
X1254665Y910685D01*
X1256071Y912517D01*
X1256954Y914651D01*
X1257256Y916940D01*
X1256954Y919229D01*
X1256071Y921363D01*
X1254665Y923195D01*
X1254518Y923308D01*
X1254926Y924510D01*
X1267294D01*
X1267702Y923308D01*
D02*
G37*
G36*
X1384504Y824954D02*
Y772210D01*
X1358696D01*
Y779526D01*
X1359966Y779818D01*
X1361407Y778712D01*
X1363261Y777944D01*
X1365250Y777682D01*
X1367239Y777944D01*
X1369093Y778712D01*
X1370685Y779933D01*
X1371906Y781525D01*
X1372674Y783379D01*
X1372936Y785368D01*
X1372674Y787357D01*
X1371906Y789211D01*
X1370685Y790803D01*
X1369093Y792024D01*
X1367239Y792792D01*
X1365250Y793054D01*
X1364450Y792948D01*
X1363180Y794062D01*
Y795805D01*
X1364090D01*
X1365062Y796208D01*
X1365465Y797180D01*
Y806180D01*
X1365062Y807152D01*
X1364090Y807554D01*
X1357090D01*
X1356918Y807670D01*
Y809660D01*
X1357090Y809775D01*
X1364090D01*
X1365062Y810178D01*
X1365465Y811150D01*
Y818084D01*
X1374902D01*
X1375893Y818281D01*
X1376733Y818843D01*
X1383331Y825440D01*
X1384504Y824954D01*
D02*
G37*
G36*
X1102288Y958352D02*
X1102338Y957918D01*
X1090045Y945625D01*
X1088799Y945873D01*
X1088431Y946763D01*
X1087025Y948595D01*
X1085193Y950001D01*
X1083059Y950884D01*
X1080770Y951186D01*
X1078481Y950884D01*
X1076347Y950001D01*
X1074515Y948595D01*
X1073109Y946763D01*
X1072226Y944629D01*
X1071924Y942340D01*
X1072226Y940051D01*
X1073109Y937917D01*
X1074515Y936085D01*
X1076347Y934679D01*
X1078481Y933796D01*
X1080770Y933494D01*
X1083059Y933796D01*
X1085193Y934679D01*
X1086216Y935465D01*
X1087055Y934508D01*
X1084777Y932230D01*
X1052322D01*
X1051331Y932033D01*
X1050491Y931471D01*
X1043379Y924359D01*
X1042817Y923519D01*
X1042620Y922528D01*
Y896492D01*
X1042817Y895501D01*
X1043379Y894661D01*
X1049033Y889007D01*
X1048515Y887729D01*
X1047031Y887534D01*
X1045177Y886766D01*
X1043585Y885545D01*
X1042364Y883953D01*
X1041596Y882099D01*
X1041334Y880110D01*
X1041495Y878890D01*
X1040530Y877620D01*
X1039305D01*
X1038666Y878289D01*
X1038420Y878802D01*
X1038664Y879391D01*
X1038926Y881380D01*
X1038664Y883369D01*
X1037896Y885223D01*
X1036675Y886815D01*
X1035083Y888036D01*
X1033229Y888804D01*
X1031240Y889066D01*
X1029251Y888804D01*
X1027397Y888036D01*
X1025805Y886815D01*
X1024584Y885223D01*
X1023816Y883369D01*
X1023554Y881380D01*
X1023816Y879391D01*
X1024584Y877537D01*
X1025805Y875945D01*
X1027380Y874737D01*
Y872422D01*
X1026110Y871885D01*
X1024923Y872796D01*
X1023069Y873564D01*
X1022064Y873696D01*
X1021854Y873908D01*
X1021245Y875085D01*
X1021350Y875610D01*
Y878840D01*
X1014760D01*
X1008170D01*
Y875610D01*
X1008367Y874619D01*
X1008929Y873779D01*
X1009769Y873217D01*
X1010760Y873020D01*
X1015443D01*
X1015874Y871750D01*
X1015645Y871575D01*
X1015008Y870745D01*
X1010760D01*
X1009788Y870342D01*
X1009385Y869370D01*
Y860370D01*
X1009370Y860348D01*
X1006150D01*
X1006135Y860370D01*
Y869370D01*
X1005732Y870342D01*
X1004760Y870745D01*
X996760D01*
X995788Y870342D01*
X995385Y869370D01*
Y867460D01*
X993698D01*
Y891114D01*
X994968Y891367D01*
X995120Y890999D01*
X996341Y889407D01*
X997933Y888186D01*
X998170Y888088D01*
Y885985D01*
X996760D01*
X995788Y885582D01*
X995385Y884610D01*
Y875610D01*
X995788Y874638D01*
X996760Y874235D01*
X1004760D01*
X1005732Y874638D01*
X1006135Y875610D01*
Y884610D01*
X1005732Y885582D01*
X1004760Y885985D01*
X1003350D01*
Y887363D01*
X1003765Y887418D01*
X1005619Y888186D01*
X1007211Y889407D01*
X1008432Y890999D01*
X1009200Y892853D01*
X1009462Y894842D01*
X1009200Y896831D01*
X1008432Y898685D01*
X1007211Y900277D01*
X1005619Y901498D01*
X1003765Y902266D01*
X1001776Y902528D01*
X999787Y902266D01*
X997933Y901498D01*
X996341Y900277D01*
X995120Y898685D01*
X994968Y898317D01*
X993698Y898570D01*
Y946855D01*
X1006031Y959188D01*
X1101901D01*
X1102288Y958352D01*
D02*
G37*
G36*
X1122695Y948207D02*
Y934840D01*
X1123098Y933868D01*
X1124070Y933465D01*
X1136782D01*
X1139140Y931107D01*
Y925862D01*
X1139070Y925815D01*
X1124070D01*
X1123098Y925412D01*
X1122695Y924440D01*
Y909440D01*
X1123098Y908468D01*
X1124070Y908065D01*
X1139070D01*
X1139140Y908018D01*
Y901630D01*
X1130307Y892797D01*
X1129029Y893315D01*
X1128834Y894799D01*
X1128066Y896653D01*
X1126845Y898245D01*
X1125253Y899466D01*
X1123399Y900234D01*
X1121410Y900496D01*
X1119421Y900234D01*
X1117567Y899466D01*
X1115975Y898245D01*
X1114754Y896653D01*
X1113986Y894799D01*
X1113724Y892810D01*
X1113986Y890821D01*
X1114754Y888967D01*
X1114837Y888858D01*
X1113932Y887953D01*
X1113823Y888036D01*
X1111969Y888804D01*
X1109980Y889066D01*
X1107991Y888804D01*
X1106137Y888036D01*
X1104545Y886815D01*
X1103680Y885687D01*
X1102410Y886118D01*
Y887911D01*
X1102213Y888902D01*
X1101651Y889742D01*
X1097975Y893418D01*
X1098273Y894916D01*
X1098583Y895044D01*
X1100175Y896265D01*
X1101396Y897857D01*
X1102164Y899711D01*
X1102426Y901700D01*
X1102164Y903689D01*
X1101396Y905543D01*
X1100175Y907135D01*
X1098583Y908356D01*
X1096729Y909124D01*
X1095245Y909319D01*
X1094727Y910597D01*
X1095301Y911171D01*
X1095863Y912011D01*
X1096060Y913002D01*
Y916148D01*
X1096136Y916235D01*
X1096592Y916196D01*
X1097508Y915547D01*
X1097626Y914651D01*
X1098509Y912517D01*
X1099915Y910685D01*
X1101747Y909279D01*
X1103881Y908396D01*
X1106170Y908094D01*
X1108459Y908396D01*
X1110593Y909279D01*
X1112425Y910685D01*
X1113831Y912517D01*
X1114714Y914651D01*
X1115016Y916940D01*
X1114714Y919229D01*
X1113831Y921363D01*
X1112425Y923195D01*
X1110593Y924601D01*
X1108459Y925484D01*
X1106263Y925773D01*
X1105974Y926183D01*
X1105612Y926918D01*
X1108404Y929710D01*
X1110329D01*
X1111320Y929907D01*
X1112160Y930469D01*
X1118041Y936350D01*
X1118603Y937190D01*
X1118800Y938181D01*
Y946107D01*
X1121425Y948733D01*
X1122695Y948207D01*
D02*
G37*
%LPC*%
G36*
X1142450Y672195D02*
X1135450D01*
X1134478Y671792D01*
X1134076Y670820D01*
Y661820D01*
X1134478Y660848D01*
X1135450Y660446D01*
X1136452D01*
X1136558Y659917D01*
X1137119Y659077D01*
X1137959Y658515D01*
X1138950Y658318D01*
X1141410D01*
X1141481Y658170D01*
X1140679Y656900D01*
X1140220D01*
Y651080D01*
X1145040D01*
Y653399D01*
X1145430Y653740D01*
X1146310Y654130D01*
X1147869Y653484D01*
X1149858Y653222D01*
X1151847Y653484D01*
X1153701Y654252D01*
X1155293Y655473D01*
X1156514Y657065D01*
X1157282Y658919D01*
X1157544Y660908D01*
X1157282Y662897D01*
X1156514Y664751D01*
X1155293Y666343D01*
X1153701Y667564D01*
X1151847Y668332D01*
X1149858Y668594D01*
X1147869Y668332D01*
X1146015Y667564D01*
X1145095Y666858D01*
X1143825Y667484D01*
Y670820D01*
X1143422Y671792D01*
X1142450Y672195D01*
D02*
G37*
G36*
X1127450Y689920D02*
X1125220D01*
Y684100D01*
X1130040D01*
Y687330D01*
X1129843Y688321D01*
X1129281Y689162D01*
X1128441Y689723D01*
X1127450Y689920D01*
D02*
G37*
G36*
X1145040Y648540D02*
X1140220D01*
Y642720D01*
X1142450D01*
X1143441Y642918D01*
X1144281Y643479D01*
X1144843Y644319D01*
X1145040Y645310D01*
Y648540D01*
D02*
G37*
G36*
X1138682Y713013D02*
X1137631Y712875D01*
X1135469Y711979D01*
X1133612Y710554D01*
X1132187Y708697D01*
X1131291Y706534D01*
X1131152Y705483D01*
X1138682D01*
Y713013D01*
D02*
G37*
G36*
X1142450Y640390D02*
X1140220D01*
Y634570D01*
X1145040D01*
Y637800D01*
X1144843Y638791D01*
X1144281Y639632D01*
X1143441Y640193D01*
X1142450Y640390D01*
D02*
G37*
G36*
X1145040Y632030D02*
X1140220D01*
Y626211D01*
X1142450D01*
X1143441Y626408D01*
X1144281Y626969D01*
X1144843Y627809D01*
X1145040Y628800D01*
Y632030D01*
D02*
G37*
G36*
X1206470Y682752D02*
X1201151D01*
Y679522D01*
X1201348Y678531D01*
X1201909Y677691D01*
X1202749Y677129D01*
X1203740Y676932D01*
X1206470D01*
Y682752D01*
D02*
G37*
G36*
X1214330D02*
X1209010D01*
Y676932D01*
X1211740D01*
X1212732Y677129D01*
X1213572Y677691D01*
X1214133Y678531D01*
X1214330Y679522D01*
Y682752D01*
D02*
G37*
G36*
X1210310Y708569D02*
Y701040D01*
X1217840D01*
X1217701Y702091D01*
X1216805Y704253D01*
X1215380Y706110D01*
X1213523Y707535D01*
X1211361Y708431D01*
X1210310Y708569D01*
D02*
G37*
G36*
X1228330Y605282D02*
X1223010D01*
Y599462D01*
X1225741D01*
X1226732Y599659D01*
X1227572Y600221D01*
X1228133Y601061D01*
X1228330Y602052D01*
Y605282D01*
D02*
G37*
G36*
X1225741Y613642D02*
X1223010D01*
Y607822D01*
X1228330D01*
Y611052D01*
X1228133Y612043D01*
X1227572Y612883D01*
X1226732Y613445D01*
X1225741Y613642D01*
D02*
G37*
G36*
X1234806Y593968D02*
X1233755Y593830D01*
X1231593Y592934D01*
X1229736Y591509D01*
X1228311Y589652D01*
X1227415Y587490D01*
X1227277Y586439D01*
X1234806D01*
Y593968D01*
D02*
G37*
G36*
X1228330Y636270D02*
X1223010D01*
Y630450D01*
X1225741D01*
X1226732Y630647D01*
X1227572Y631209D01*
X1228133Y632049D01*
X1228330Y633040D01*
Y636270D01*
D02*
G37*
G36*
Y620776D02*
X1223010D01*
Y614956D01*
X1225741D01*
X1226732Y615153D01*
X1227572Y615715D01*
X1228133Y616555D01*
X1228330Y617546D01*
Y620776D01*
D02*
G37*
G36*
X1225741Y629136D02*
X1223010D01*
Y623316D01*
X1228330D01*
Y626546D01*
X1228133Y627537D01*
X1227572Y628377D01*
X1226732Y628939D01*
X1225741Y629136D01*
D02*
G37*
G36*
X1304010Y613157D02*
Y605627D01*
X1311540D01*
X1311401Y606678D01*
X1310506Y608841D01*
X1309081Y610698D01*
X1307223Y612123D01*
X1305061Y613019D01*
X1304010Y613157D01*
D02*
G37*
G36*
X1311540Y603087D02*
X1304010D01*
Y595558D01*
X1305061Y595696D01*
X1307223Y596592D01*
X1309081Y598017D01*
X1310506Y599874D01*
X1311401Y602037D01*
X1311540Y603087D01*
D02*
G37*
G36*
X1301470D02*
X1293941D01*
X1294079Y602037D01*
X1294975Y599874D01*
X1296400Y598017D01*
X1298257Y596592D01*
X1300419Y595696D01*
X1301470Y595558D01*
Y603087D01*
D02*
G37*
G36*
X1306580Y627900D02*
X1304010D01*
Y621584D01*
X1304981Y621777D01*
X1305821Y622338D01*
X1306383Y623179D01*
X1306580Y624170D01*
Y627900D01*
D02*
G37*
G36*
X1005380Y612880D02*
X1002650D01*
Y607061D01*
X1007970D01*
Y610290D01*
X1007773Y611282D01*
X1007212Y612122D01*
X1006371Y612683D01*
X1005380Y612880D01*
D02*
G37*
G36*
X1007970Y620014D02*
X1002650D01*
Y614194D01*
X1005380D01*
X1006371Y614391D01*
X1007212Y614952D01*
X1007773Y615792D01*
X1007970Y616783D01*
Y620014D01*
D02*
G37*
G36*
X1004570Y592999D02*
Y585470D01*
X1012100D01*
X1011961Y586521D01*
X1011065Y588683D01*
X1009640Y590540D01*
X1007783Y591965D01*
X1005621Y592861D01*
X1004570Y592999D01*
D02*
G37*
G36*
X1007970Y604520D02*
X1002650D01*
Y598701D01*
X1005380D01*
X1006371Y598898D01*
X1007212Y599459D01*
X1007773Y600299D01*
X1007970Y601291D01*
Y604520D01*
D02*
G37*
G36*
Y635508D02*
X1002650D01*
Y629688D01*
X1005380D01*
X1006371Y629885D01*
X1007212Y630447D01*
X1007773Y631287D01*
X1007970Y632278D01*
Y635508D01*
D02*
G37*
G36*
X1005380Y628373D02*
X1002650D01*
Y622553D01*
X1007970D01*
Y625784D01*
X1007773Y626774D01*
X1007212Y627615D01*
X1006371Y628176D01*
X1005380Y628373D01*
D02*
G37*
G36*
X1094370Y615279D02*
X1086840D01*
Y607750D01*
X1087891Y607888D01*
X1090053Y608784D01*
X1091910Y610209D01*
X1093335Y612066D01*
X1094231Y614229D01*
X1094370Y615279D01*
D02*
G37*
G36*
X1369212Y873609D02*
X1361682D01*
X1361821Y872558D01*
X1362717Y870396D01*
X1364142Y868539D01*
X1365999Y867114D01*
X1368161Y866218D01*
X1369212Y866080D01*
Y873609D01*
D02*
G37*
G36*
X1359440Y864650D02*
X1357210D01*
X1356219Y864453D01*
X1355379Y863891D01*
X1354817Y863051D01*
X1354620Y862060D01*
Y858830D01*
X1359440D01*
Y864650D01*
D02*
G37*
G36*
X1364210D02*
X1361980D01*
Y858830D01*
X1366800D01*
Y862060D01*
X1366603Y863051D01*
X1366041Y863891D01*
X1365201Y864453D01*
X1364210Y864650D01*
D02*
G37*
G36*
X1314450Y887730D02*
X1306920D01*
X1307059Y886679D01*
X1307955Y884517D01*
X1309380Y882660D01*
X1311237Y881235D01*
X1313399Y880339D01*
X1314450Y880201D01*
Y887730D01*
D02*
G37*
G36*
X1306580Y805580D02*
X1304010D01*
Y799264D01*
X1304981Y799457D01*
X1305821Y800019D01*
X1306383Y800859D01*
X1306580Y801850D01*
Y805580D01*
D02*
G37*
G36*
X1301470Y782709D02*
X1300419Y782571D01*
X1298257Y781675D01*
X1296400Y780250D01*
X1294975Y778393D01*
X1294079Y776230D01*
X1293941Y775180D01*
X1301470D01*
Y782709D01*
D02*
G37*
G36*
X1304010D02*
Y775180D01*
X1311540D01*
X1311401Y776230D01*
X1310506Y778393D01*
X1309081Y780250D01*
X1307223Y781675D01*
X1305061Y782571D01*
X1304010Y782709D01*
D02*
G37*
G36*
X1311540Y772640D02*
X1304010D01*
Y765110D01*
X1305061Y765248D01*
X1307223Y766144D01*
X1309081Y767569D01*
X1310506Y769426D01*
X1311401Y771589D01*
X1311540Y772640D01*
D02*
G37*
G36*
X1301470D02*
X1293941D01*
X1294079Y771589D01*
X1294975Y769426D01*
X1296400Y767569D01*
X1298257Y766144D01*
X1300419Y765248D01*
X1301470Y765110D01*
Y772640D01*
D02*
G37*
G36*
X1122610Y841480D02*
X1120380D01*
Y835660D01*
X1125200D01*
Y838890D01*
X1125002Y839881D01*
X1124441Y840721D01*
X1123601Y841283D01*
X1122610Y841480D01*
D02*
G37*
G36*
X1140200Y865505D02*
X1135380D01*
Y859685D01*
X1137610D01*
X1138601Y859882D01*
X1139441Y860444D01*
X1140003Y861284D01*
X1140200Y862275D01*
Y865505D01*
D02*
G37*
G36*
X861060Y824403D02*
Y814705D01*
X870758D01*
X870546Y816317D01*
X869433Y819003D01*
X867664Y821309D01*
X865358Y823078D01*
X862672Y824191D01*
X861060Y824403D01*
D02*
G37*
G36*
X1013490Y841480D02*
X1010760D01*
X1009769Y841283D01*
X1008929Y840721D01*
X1008367Y839881D01*
X1008170Y838890D01*
Y835660D01*
X1013490D01*
Y841480D01*
D02*
G37*
G36*
X867790Y851385D02*
X851790D01*
X850818Y850982D01*
X850415Y850010D01*
Y834010D01*
X850818Y833038D01*
X851790Y832635D01*
X867790D01*
X868762Y833038D01*
X869165Y834010D01*
Y850010D01*
X868762Y850982D01*
X867790Y851385D01*
D02*
G37*
G36*
X858520Y824403D02*
X856908Y824191D01*
X854222Y823078D01*
X851916Y821309D01*
X850147Y819003D01*
X849034Y816317D01*
X848822Y814705D01*
X858520D01*
Y824403D01*
D02*
G37*
G36*
X1013490Y802640D02*
X1008170D01*
Y799410D01*
X1008367Y798419D01*
X1008929Y797579D01*
X1009769Y797017D01*
X1010760Y796820D01*
X1013490D01*
Y802640D01*
D02*
G37*
G36*
X1021350D02*
X1016030D01*
Y796820D01*
X1018760D01*
X1019751Y797017D01*
X1020591Y797579D01*
X1021153Y798419D01*
X1021350Y799410D01*
Y802640D01*
D02*
G37*
G36*
X1019698Y791326D02*
X1018648Y791188D01*
X1016485Y790292D01*
X1014628Y788867D01*
X1013203Y787010D01*
X1012307Y784847D01*
X1012169Y783797D01*
X1019698D01*
Y791326D01*
D02*
G37*
G36*
X870758Y812165D02*
X861060D01*
Y802467D01*
X862672Y802679D01*
X865358Y803792D01*
X867664Y805561D01*
X869433Y807867D01*
X870546Y810553D01*
X870758Y812165D01*
D02*
G37*
G36*
X858520D02*
X848822D01*
X849034Y810553D01*
X850147Y807867D01*
X851916Y805561D01*
X854222Y803792D01*
X856908Y802679D01*
X858520Y802467D01*
Y812165D01*
D02*
G37*
G36*
X764540Y847090D02*
X753833D01*
X754080Y845217D01*
X755293Y842288D01*
X757223Y839773D01*
X759738Y837843D01*
X762667Y836630D01*
X764540Y836383D01*
Y847090D01*
D02*
G37*
G36*
X953770Y925786D02*
X951481Y925484D01*
X949347Y924601D01*
X947515Y923195D01*
X946109Y921363D01*
X945226Y919229D01*
X944924Y916940D01*
X945226Y914651D01*
X946109Y912517D01*
X947515Y910685D01*
X949347Y909279D01*
X951481Y908396D01*
X953770Y908094D01*
X956059Y908396D01*
X958193Y909279D01*
X960025Y910685D01*
X961431Y912517D01*
X962314Y914651D01*
X962616Y916940D01*
X962314Y919229D01*
X961431Y921363D01*
X960025Y923195D01*
X958193Y924601D01*
X956059Y925484D01*
X953770Y925786D01*
D02*
G37*
G36*
X861060Y878378D02*
Y868680D01*
X870758D01*
X870546Y870292D01*
X869433Y872978D01*
X867664Y875284D01*
X865358Y877053D01*
X862672Y878166D01*
X861060Y878378D01*
D02*
G37*
G36*
X922140Y908236D02*
X920151Y907974D01*
X918297Y907206D01*
X916705Y905984D01*
X915484Y904393D01*
X914716Y902539D01*
X914454Y900550D01*
X914716Y898561D01*
X915484Y896707D01*
X916705Y895115D01*
X918297Y893894D01*
X919550Y893375D01*
Y863530D01*
X908304D01*
X907313Y863333D01*
X906473Y862771D01*
X892616Y848915D01*
X891363Y849434D01*
X889374Y849696D01*
X887385Y849434D01*
X885531Y848666D01*
X883939Y847445D01*
X882718Y845853D01*
X881950Y843999D01*
X881688Y842010D01*
X881950Y840021D01*
X882718Y838167D01*
X883939Y836575D01*
X885531Y835354D01*
X887385Y834586D01*
X889374Y834324D01*
X891363Y834586D01*
X893217Y835354D01*
X894809Y836575D01*
X896030Y838167D01*
X896798Y840021D01*
X897060Y842010D01*
X896798Y843999D01*
X896279Y845252D01*
X909377Y858350D01*
X921225D01*
Y857440D01*
X921628Y856468D01*
X922600Y856066D01*
X931600D01*
X932572Y856468D01*
X932975Y857440D01*
Y864440D01*
X932572Y865412D01*
X931600Y865815D01*
X924730D01*
Y893375D01*
X925983Y893894D01*
X927574Y895115D01*
X928796Y896707D01*
X929564Y898561D01*
X929826Y900550D01*
X929564Y902539D01*
X928796Y904393D01*
X927574Y905984D01*
X925983Y907206D01*
X924129Y907974D01*
X922140Y908236D01*
D02*
G37*
G36*
X858520Y866140D02*
X848822D01*
X849034Y864528D01*
X850147Y861842D01*
X851916Y859536D01*
X854222Y857767D01*
X856908Y856654D01*
X858520Y856442D01*
Y866140D01*
D02*
G37*
G36*
X767080Y860337D02*
Y849630D01*
X777787D01*
X777540Y851503D01*
X776327Y854432D01*
X774397Y856947D01*
X771882Y858877D01*
X768953Y860090D01*
X767080Y860337D01*
D02*
G37*
G36*
X777787Y847090D02*
X767080D01*
Y836383D01*
X768953Y836630D01*
X771882Y837843D01*
X774397Y839773D01*
X776327Y842288D01*
X777540Y845217D01*
X777787Y847090D01*
D02*
G37*
G36*
X764540Y860337D02*
X762667Y860090D01*
X759738Y858877D01*
X757223Y856947D01*
X755293Y854432D01*
X754080Y851503D01*
X753833Y849630D01*
X764540D01*
Y860337D01*
D02*
G37*
G36*
X870758Y866140D02*
X861060D01*
Y856442D01*
X862672Y856654D01*
X865358Y857767D01*
X867664Y859536D01*
X869433Y861842D01*
X870546Y864528D01*
X870758Y866140D01*
D02*
G37*
G36*
X858520Y878378D02*
X856908Y878166D01*
X854222Y877053D01*
X851916Y875284D01*
X850147Y872978D01*
X849034Y870292D01*
X848822Y868680D01*
X858520D01*
Y878378D01*
D02*
G37*
G36*
X1007970Y681990D02*
X1002650D01*
Y676170D01*
X1005380D01*
X1006371Y676367D01*
X1007212Y676929D01*
X1007773Y677769D01*
X1007970Y678760D01*
Y681990D01*
D02*
G37*
G36*
X1000110D02*
X994790D01*
Y678760D01*
X994988Y677769D01*
X995549Y676929D01*
X996389Y676367D01*
X997380Y676170D01*
X1000110D01*
Y681990D01*
D02*
G37*
G36*
X870758Y758190D02*
X861060D01*
Y748492D01*
X862672Y748704D01*
X865358Y749817D01*
X867664Y751586D01*
X869433Y753892D01*
X870546Y756578D01*
X870758Y758190D01*
D02*
G37*
G36*
X943010Y647700D02*
X935480D01*
Y640171D01*
X936531Y640309D01*
X938694Y641205D01*
X940551Y642630D01*
X941976Y644487D01*
X942872Y646649D01*
X943010Y647700D01*
D02*
G37*
G36*
X861060Y770428D02*
Y760730D01*
X870758D01*
X870546Y762342D01*
X869433Y765028D01*
X867664Y767334D01*
X865358Y769103D01*
X862672Y770216D01*
X861060Y770428D01*
D02*
G37*
G36*
X858520D02*
X856908Y770216D01*
X854222Y769103D01*
X851916Y767334D01*
X850147Y765028D01*
X849034Y762342D01*
X848822Y760730D01*
X858520D01*
Y770428D01*
D02*
G37*
G36*
X935480Y657769D02*
Y650240D01*
X943010D01*
X942872Y651291D01*
X941976Y653453D01*
X940551Y655310D01*
X938694Y656735D01*
X936531Y657631D01*
X935480Y657769D01*
D02*
G37*
G36*
X909320Y659560D02*
X894590D01*
X893599Y659363D01*
X892759Y658801D01*
X892197Y657961D01*
X892000Y656970D01*
Y650240D01*
X909320D01*
Y659560D01*
D02*
G37*
G36*
X931600Y746674D02*
X922600D01*
X921628Y746272D01*
X921225Y745300D01*
Y744390D01*
X897248D01*
X896257Y744193D01*
X895417Y743631D01*
X888435Y736650D01*
X869165D01*
Y742060D01*
X868762Y743032D01*
X867790Y743435D01*
X851790D01*
X850818Y743032D01*
X850415Y742060D01*
Y726060D01*
X850818Y725088D01*
X851790Y724685D01*
X867790D01*
X868762Y725088D01*
X869165Y726060D01*
Y731470D01*
X889508D01*
X890499Y731667D01*
X891339Y732229D01*
X898321Y739210D01*
X921225D01*
Y738300D01*
X921628Y737328D01*
X922600Y736925D01*
X931600D01*
X932572Y737328D01*
X932975Y738300D01*
Y745300D01*
X932572Y746272D01*
X931600Y746674D01*
D02*
G37*
G36*
X1097280Y732856D02*
X1095291Y732594D01*
X1093437Y731826D01*
X1091845Y730605D01*
X1090624Y729013D01*
X1089856Y727159D01*
X1089594Y725170D01*
X1089856Y723181D01*
X1090624Y721327D01*
X1091845Y719735D01*
X1093437Y718514D01*
X1095291Y717746D01*
X1097280Y717484D01*
X1099269Y717746D01*
X1101123Y718514D01*
X1102715Y719735D01*
X1103936Y721327D01*
X1104704Y723181D01*
X1104966Y725170D01*
X1104704Y727159D01*
X1103936Y729013D01*
X1102715Y730605D01*
X1101123Y731826D01*
X1099269Y732594D01*
X1097280Y732856D01*
D02*
G37*
G36*
X1017270D02*
X1015281Y732594D01*
X1013427Y731826D01*
X1011835Y730605D01*
X1010614Y729013D01*
X1009846Y727159D01*
X1009584Y725170D01*
X1009846Y723181D01*
X1010614Y721327D01*
X1011835Y719735D01*
X1013427Y718514D01*
X1015281Y717746D01*
X1017270Y717484D01*
X1019259Y717746D01*
X1021113Y718514D01*
X1022705Y719735D01*
X1023926Y721327D01*
X1024694Y723181D01*
X1024956Y725170D01*
X1024694Y727159D01*
X1023926Y729013D01*
X1022705Y730605D01*
X1021113Y731826D01*
X1019259Y732594D01*
X1017270Y732856D01*
D02*
G37*
G36*
X1085850Y747481D02*
X1083691Y747197D01*
X1081679Y746364D01*
X1079952Y745038D01*
X1078626Y743311D01*
X1077793Y741299D01*
X1077509Y739140D01*
X1077793Y736981D01*
X1078626Y734969D01*
X1079103Y734348D01*
X1078197Y733442D01*
X1076993Y734366D01*
X1075139Y735134D01*
X1073150Y735396D01*
X1071161Y735134D01*
X1069307Y734366D01*
X1068102Y733442D01*
X1067197Y734348D01*
X1067674Y734969D01*
X1068507Y736981D01*
X1068791Y739140D01*
X1068507Y741299D01*
X1067674Y743311D01*
X1066348Y745038D01*
X1064621Y746364D01*
X1062609Y747197D01*
X1060450Y747481D01*
X1058291Y747197D01*
X1056279Y746364D01*
X1054552Y745038D01*
X1053226Y743311D01*
X1052393Y741299D01*
X1052109Y739140D01*
X1052393Y736981D01*
X1053226Y734969D01*
X1054552Y733242D01*
X1056279Y731916D01*
X1058291Y731083D01*
X1060450Y730799D01*
X1062609Y731083D01*
X1064621Y731916D01*
X1065961Y732945D01*
X1066867Y732039D01*
X1066494Y731553D01*
X1065726Y729699D01*
X1065464Y727710D01*
X1065726Y725721D01*
X1066494Y723867D01*
X1067715Y722275D01*
X1069307Y721054D01*
X1071161Y720286D01*
X1073150Y720024D01*
X1075139Y720286D01*
X1076993Y721054D01*
X1078585Y722275D01*
X1079806Y723867D01*
X1080574Y725721D01*
X1080836Y727710D01*
X1080574Y729699D01*
X1079806Y731553D01*
X1079433Y732039D01*
X1080339Y732945D01*
X1081679Y731916D01*
X1083691Y731083D01*
X1085850Y730799D01*
X1088009Y731083D01*
X1090021Y731916D01*
X1091748Y733242D01*
X1093074Y734969D01*
X1093907Y736981D01*
X1094191Y739140D01*
X1093907Y741299D01*
X1093074Y743311D01*
X1091748Y745038D01*
X1090021Y746364D01*
X1088009Y747197D01*
X1085850Y747481D01*
D02*
G37*
G36*
X1041050Y746515D02*
X1029050D01*
X1028078Y746112D01*
X1027675Y745140D01*
Y733140D01*
X1028078Y732168D01*
X1029050Y731765D01*
X1041050D01*
X1042022Y732168D01*
X1042425Y733140D01*
Y745140D01*
X1042022Y746112D01*
X1041050Y746515D01*
D02*
G37*
G36*
X1007110Y708569D02*
Y701040D01*
X1014640D01*
X1014501Y702091D01*
X1013605Y704253D01*
X1012180Y706110D01*
X1010323Y707535D01*
X1008161Y708431D01*
X1007110Y708569D01*
D02*
G37*
G36*
X858520Y758190D02*
X848822D01*
X849034Y756578D01*
X850147Y753892D01*
X851916Y751586D01*
X854222Y749817D01*
X856908Y748704D01*
X858520Y748492D01*
Y758190D01*
D02*
G37*
G36*
X926590Y659560D02*
X911860D01*
Y648970D01*
Y638380D01*
X926590D01*
X927581Y638577D01*
X928421Y639139D01*
X928983Y639979D01*
X929022Y640179D01*
X929079Y640261D01*
X930355Y640918D01*
X930427Y640915D01*
X931890Y640309D01*
X932941Y640171D01*
Y648970D01*
Y657769D01*
X931890Y657631D01*
X930427Y657025D01*
X930355Y657022D01*
X929079Y657679D01*
X929022Y657761D01*
X928983Y657961D01*
X928421Y658801D01*
X927581Y659363D01*
X926590Y659560D01*
D02*
G37*
G36*
X867790Y797410D02*
X851790D01*
X850818Y797007D01*
X850415Y796035D01*
Y780035D01*
X850818Y779063D01*
X851790Y778660D01*
X867790D01*
X868762Y779063D01*
X869165Y780035D01*
Y796035D01*
X868762Y797007D01*
X867790Y797410D01*
D02*
G37*
G36*
X909320Y647700D02*
X892000D01*
Y640970D01*
X892197Y639979D01*
X892759Y639139D01*
X893599Y638577D01*
X894590Y638380D01*
X909320D01*
Y647700D01*
D02*
G37*
G36*
X1019698Y781257D02*
X1012169D01*
X1012307Y780206D01*
X1013203Y778043D01*
X1014628Y776186D01*
X1016485Y774761D01*
X1018648Y773866D01*
X1019698Y773727D01*
Y781257D01*
D02*
G37*
G36*
X1133094Y768858D02*
X1125564D01*
X1125703Y767807D01*
X1126599Y765645D01*
X1128024Y763788D01*
X1129881Y762363D01*
X1132043Y761467D01*
X1133094Y761329D01*
Y768858D01*
D02*
G37*
G36*
X1217961Y821922D02*
X1215230D01*
X1214239Y821725D01*
X1213399Y821163D01*
X1212838Y820323D01*
X1212641Y819332D01*
Y816102D01*
X1217961D01*
Y821922D01*
D02*
G37*
G36*
Y829564D02*
X1212641D01*
Y826334D01*
X1212838Y825343D01*
X1213399Y824503D01*
X1214239Y823941D01*
X1215230Y823744D01*
X1217961D01*
Y829564D01*
D02*
G37*
G36*
Y797560D02*
X1212641D01*
Y794330D01*
X1212838Y793339D01*
X1213399Y792499D01*
X1214239Y791937D01*
X1215230Y791740D01*
X1217961D01*
Y797560D01*
D02*
G37*
G36*
X1230772Y786246D02*
Y778717D01*
X1238302D01*
X1238163Y779768D01*
X1237268Y781930D01*
X1235843Y783787D01*
X1233986Y785212D01*
X1231823Y786108D01*
X1230772Y786246D01*
D02*
G37*
G36*
X1217961Y813562D02*
X1212641D01*
Y810332D01*
X1212838Y809341D01*
X1213399Y808501D01*
X1214239Y807939D01*
X1215230Y807742D01*
X1217961D01*
Y813562D01*
D02*
G37*
G36*
Y805920D02*
X1215230D01*
X1214239Y805723D01*
X1213399Y805161D01*
X1212838Y804321D01*
X1212641Y803330D01*
Y800100D01*
X1217961D01*
Y805920D01*
D02*
G37*
G36*
X1228232Y786246D02*
X1227181Y786108D01*
X1225019Y785212D01*
X1223162Y783787D01*
X1221737Y781930D01*
X1220841Y779768D01*
X1220703Y778717D01*
X1228232D01*
Y786246D01*
D02*
G37*
G36*
X1271270Y746211D02*
X1269111Y745927D01*
X1267099Y745094D01*
X1265372Y743768D01*
X1264046Y742041D01*
X1263213Y740029D01*
X1262929Y737870D01*
X1263213Y735711D01*
X1264046Y733699D01*
X1265372Y731972D01*
X1267099Y730646D01*
X1269111Y729813D01*
X1271270Y729529D01*
X1273429Y729813D01*
X1275441Y730646D01*
X1277168Y731972D01*
X1278494Y733699D01*
X1279327Y735711D01*
X1279611Y737870D01*
X1279327Y740029D01*
X1278494Y742041D01*
X1277168Y743768D01*
X1275441Y745094D01*
X1273429Y745927D01*
X1271270Y746211D01*
D02*
G37*
G36*
X1296670D02*
X1294511Y745927D01*
X1292499Y745094D01*
X1290772Y743768D01*
X1289446Y742041D01*
X1288613Y740029D01*
X1288329Y737870D01*
X1288613Y735711D01*
X1289446Y733699D01*
X1290772Y731972D01*
X1292499Y730646D01*
X1294511Y729813D01*
X1296670Y729529D01*
X1298829Y729813D01*
X1300841Y730646D01*
X1302568Y731972D01*
X1303894Y733699D01*
X1304727Y735711D01*
X1305011Y737870D01*
X1304727Y740029D01*
X1303894Y742041D01*
X1302568Y743768D01*
X1300841Y745094D01*
X1298829Y745927D01*
X1296670Y746211D01*
D02*
G37*
G36*
X1231900Y759526D02*
X1229911Y759264D01*
X1228057Y758496D01*
X1226465Y757275D01*
X1225244Y755683D01*
X1224476Y753829D01*
X1224214Y751840D01*
X1224476Y749851D01*
X1225244Y747997D01*
X1226465Y746405D01*
X1228057Y745184D01*
X1229911Y744416D01*
X1231900Y744154D01*
X1233889Y744416D01*
X1235743Y745184D01*
X1237335Y746405D01*
X1238556Y747997D01*
X1239324Y749851D01*
X1239586Y751840D01*
X1239324Y753829D01*
X1238556Y755683D01*
X1237335Y757275D01*
X1235743Y758496D01*
X1233889Y759264D01*
X1231900Y759526D01*
D02*
G37*
G36*
X1282700Y731586D02*
X1280711Y731324D01*
X1278857Y730556D01*
X1277265Y729335D01*
X1276044Y727743D01*
X1275276Y725889D01*
X1275014Y723900D01*
X1275276Y721911D01*
X1276044Y720057D01*
X1277265Y718465D01*
X1278857Y717244D01*
X1280711Y716476D01*
X1282700Y716214D01*
X1284689Y716476D01*
X1286543Y717244D01*
X1288135Y718465D01*
X1289356Y720057D01*
X1290124Y721911D01*
X1290386Y723900D01*
X1290124Y725889D01*
X1289356Y727743D01*
X1288135Y729335D01*
X1286543Y730556D01*
X1284689Y731324D01*
X1282700Y731586D01*
D02*
G37*
G36*
X1308100Y730316D02*
X1306111Y730054D01*
X1304257Y729286D01*
X1302665Y728065D01*
X1301444Y726473D01*
X1300676Y724619D01*
X1300414Y722630D01*
X1300676Y720641D01*
X1301444Y718787D01*
X1302665Y717195D01*
X1304257Y715974D01*
X1306111Y715206D01*
X1308100Y714944D01*
X1310089Y715206D01*
X1311943Y715974D01*
X1313535Y717195D01*
X1314756Y718787D01*
X1315524Y720641D01*
X1315786Y722630D01*
X1315524Y724619D01*
X1314756Y726473D01*
X1313535Y728065D01*
X1311943Y729286D01*
X1310089Y730054D01*
X1308100Y730316D01*
D02*
G37*
G36*
X1228232Y776177D02*
X1220703D01*
X1220841Y775126D01*
X1221737Y772963D01*
X1223162Y771106D01*
X1225019Y769681D01*
X1227181Y768786D01*
X1228232Y768647D01*
Y776177D01*
D02*
G37*
G36*
X1238302D02*
X1230772D01*
Y768647D01*
X1231823Y768786D01*
X1233986Y769681D01*
X1235843Y771106D01*
X1237268Y772963D01*
X1238163Y775126D01*
X1238302Y776177D01*
D02*
G37*
G36*
X1019810Y905419D02*
X1018759Y905281D01*
X1016597Y904385D01*
X1014740Y902960D01*
X1013315Y901103D01*
X1012419Y898941D01*
X1012281Y897890D01*
X1019810D01*
Y905419D01*
D02*
G37*
G36*
X1022350D02*
Y897890D01*
X1029880D01*
X1029741Y898941D01*
X1028845Y901103D01*
X1027420Y902960D01*
X1025563Y904385D01*
X1023401Y905281D01*
X1022350Y905419D01*
D02*
G37*
G36*
X1029880Y895350D02*
X1012281D01*
X1012419Y894299D01*
X1013315Y892137D01*
X1014740Y890280D01*
X1016597Y888855D01*
X1017526Y888470D01*
X1017273Y887200D01*
X1016030D01*
Y881380D01*
X1021350D01*
Y884610D01*
X1021153Y885601D01*
X1020594Y886436D01*
X1020600Y886464D01*
X1021059Y887656D01*
X1021080Y887653D01*
X1023401Y887959D01*
X1025563Y888855D01*
X1027420Y890280D01*
X1028845Y892137D01*
X1029741Y894299D01*
X1029880Y895350D01*
D02*
G37*
G36*
X1013490Y887200D02*
X1010760D01*
X1009769Y887003D01*
X1008929Y886441D01*
X1008367Y885601D01*
X1008170Y884610D01*
Y881380D01*
X1013490D01*
Y887200D01*
D02*
G37*
G36*
X1029970Y951186D02*
X1027681Y950884D01*
X1025547Y950001D01*
X1023715Y948595D01*
X1022309Y946763D01*
X1021426Y944629D01*
X1021124Y942340D01*
X1021426Y940051D01*
X1022309Y937917D01*
X1023715Y936085D01*
X1025547Y934679D01*
X1027681Y933796D01*
X1029970Y933494D01*
X1032259Y933796D01*
X1034393Y934679D01*
X1036225Y936085D01*
X1037631Y937917D01*
X1038514Y940051D01*
X1038816Y942340D01*
X1038514Y944629D01*
X1037631Y946763D01*
X1036225Y948595D01*
X1034393Y950001D01*
X1032259Y950884D01*
X1029970Y951186D01*
D02*
G37*
G36*
X1055370D02*
X1053081Y950884D01*
X1050947Y950001D01*
X1049115Y948595D01*
X1047709Y946763D01*
X1046826Y944629D01*
X1046524Y942340D01*
X1046826Y940051D01*
X1047709Y937917D01*
X1049115Y936085D01*
X1050947Y934679D01*
X1053081Y933796D01*
X1055370Y933494D01*
X1057659Y933796D01*
X1059793Y934679D01*
X1061625Y936085D01*
X1063031Y937917D01*
X1063914Y940051D01*
X1064216Y942340D01*
X1063914Y944629D01*
X1063031Y946763D01*
X1061625Y948595D01*
X1059793Y950001D01*
X1057659Y950884D01*
X1055370Y951186D01*
D02*
G37*
G36*
X1004570D02*
X1002281Y950884D01*
X1000147Y950001D01*
X998315Y948595D01*
X996909Y946763D01*
X996026Y944629D01*
X995724Y942340D01*
X996026Y940051D01*
X996909Y937917D01*
X998315Y936085D01*
X1000147Y934679D01*
X1002281Y933796D01*
X1004570Y933494D01*
X1006859Y933796D01*
X1008993Y934679D01*
X1010825Y936085D01*
X1012231Y937917D01*
X1013114Y940051D01*
X1013416Y942340D01*
X1013114Y944629D01*
X1012231Y946763D01*
X1010825Y948595D01*
X1008993Y950001D01*
X1006859Y950884D01*
X1004570Y951186D01*
D02*
G37*
G36*
Y925786D02*
X1002281Y925484D01*
X1000147Y924601D01*
X998315Y923195D01*
X996909Y921363D01*
X996026Y919229D01*
X995724Y916940D01*
X996026Y914651D01*
X996909Y912517D01*
X998315Y910685D01*
X1000147Y909279D01*
X1002281Y908396D01*
X1004570Y908094D01*
X1006859Y908396D01*
X1008993Y909279D01*
X1010825Y910685D01*
X1012231Y912517D01*
X1013114Y914651D01*
X1013416Y916940D01*
X1013114Y919229D01*
X1012231Y921363D01*
X1010825Y923195D01*
X1008993Y924601D01*
X1006859Y925484D01*
X1004570Y925786D01*
D02*
G37*
G36*
X1029970D02*
X1027681Y925484D01*
X1025547Y924601D01*
X1023715Y923195D01*
X1022309Y921363D01*
X1021426Y919229D01*
X1021124Y916940D01*
X1021426Y914651D01*
X1022309Y912517D01*
X1023715Y910685D01*
X1025547Y909279D01*
X1027681Y908396D01*
X1029970Y908094D01*
X1032259Y908396D01*
X1034393Y909279D01*
X1036225Y910685D01*
X1037631Y912517D01*
X1038514Y914651D01*
X1038816Y916940D01*
X1038514Y919229D01*
X1037631Y921363D01*
X1036225Y923195D01*
X1034393Y924601D01*
X1032259Y925484D01*
X1029970Y925786D01*
D02*
G37*
%LPD*%
D10*
X942740Y496570D02*
D03*
Y547370D02*
D03*
D11*
X840740Y521970D02*
D03*
D12*
X1138950Y682830D02*
D03*
X1123950D02*
D03*
Y666320D02*
D03*
X1138950D02*
D03*
Y649810D02*
D03*
X1123950D02*
D03*
X1138950Y633300D02*
D03*
X1123950D02*
D03*
X1138950Y616790D02*
D03*
X1123950D02*
D03*
X1357510Y684530D02*
D03*
X1342510D02*
D03*
X1357510Y668337D02*
D03*
X1342510D02*
D03*
X1357510Y652145D02*
D03*
X1342510D02*
D03*
X1357510Y635952D02*
D03*
X1342510D02*
D03*
Y619760D02*
D03*
X1357510D02*
D03*
X1119110Y866775D02*
D03*
X1134110D02*
D03*
X1119110Y850583D02*
D03*
X1134110D02*
D03*
X1119110Y834390D02*
D03*
X1134110D02*
D03*
X1119110Y818197D02*
D03*
X1134110D02*
D03*
X1119110Y802005D02*
D03*
X1134110D02*
D03*
X1345710Y857560D02*
D03*
X1360710D02*
D03*
X1345590Y843590D02*
D03*
X1360590D02*
D03*
X1345590Y829620D02*
D03*
X1360590D02*
D03*
X1345590Y815650D02*
D03*
X1360590D02*
D03*
X1345590Y801680D02*
D03*
X1360590D02*
D03*
X937380Y584200D02*
D03*
X952380D02*
D03*
D13*
X1207740Y606552D02*
D03*
X1221740D02*
D03*
X1015380Y683260D02*
D03*
X1001380D02*
D03*
Y667766D02*
D03*
X1015380D02*
D03*
Y652272D02*
D03*
X1001380D02*
D03*
X1015380Y636778D02*
D03*
X1001380D02*
D03*
X1015380Y621283D02*
D03*
X1001380D02*
D03*
X1015380Y605790D02*
D03*
X1001380D02*
D03*
X1221740Y684022D02*
D03*
X1207740D02*
D03*
X1221740Y668528D02*
D03*
X1207740D02*
D03*
X1221740Y653034D02*
D03*
X1207740D02*
D03*
X1207740Y637540D02*
D03*
X1221740D02*
D03*
X1207740Y622046D02*
D03*
X1221740D02*
D03*
X1000760Y880110D02*
D03*
X1014760D02*
D03*
X1000760Y864870D02*
D03*
X1014760D02*
D03*
X1000760Y849630D02*
D03*
X1014760D02*
D03*
X1000760Y834390D02*
D03*
X1014760D02*
D03*
X1000760Y819150D02*
D03*
X1014760D02*
D03*
X1000760Y803910D02*
D03*
X1014760D02*
D03*
X1205230Y878840D02*
D03*
X1219230D02*
D03*
X1205230Y862838D02*
D03*
X1219230D02*
D03*
X1205230Y846836D02*
D03*
X1219230D02*
D03*
X1205230Y830834D02*
D03*
X1219230D02*
D03*
X1205230Y814832D02*
D03*
X1219230D02*
D03*
X1205230Y798830D02*
D03*
X1219230D02*
D03*
D14*
X910590Y648970D02*
D03*
X859790D02*
D03*
D15*
X927100Y741800D02*
D03*
Y756800D02*
D03*
Y808990D02*
D03*
Y793990D02*
D03*
Y860940D02*
D03*
Y845940D02*
D03*
D16*
X1043070Y671670D02*
D03*
Y666670D02*
D03*
Y661670D02*
D03*
Y656670D02*
D03*
Y651670D02*
D03*
Y646670D02*
D03*
Y641670D02*
D03*
Y636670D02*
D03*
X1093070D02*
D03*
Y641670D02*
D03*
Y646670D02*
D03*
Y651670D02*
D03*
Y656670D02*
D03*
Y661670D02*
D03*
Y666670D02*
D03*
Y671670D02*
D03*
X1260240D02*
D03*
Y666670D02*
D03*
Y661670D02*
D03*
Y656670D02*
D03*
Y651670D02*
D03*
Y646670D02*
D03*
Y641670D02*
D03*
Y636670D02*
D03*
X1310240D02*
D03*
Y641670D02*
D03*
Y646670D02*
D03*
Y651670D02*
D03*
Y656670D02*
D03*
Y661670D02*
D03*
Y666670D02*
D03*
Y671670D02*
D03*
X1043070Y849350D02*
D03*
Y844350D02*
D03*
Y839350D02*
D03*
Y834350D02*
D03*
Y829350D02*
D03*
Y824350D02*
D03*
Y819350D02*
D03*
Y814350D02*
D03*
X1093070D02*
D03*
Y819350D02*
D03*
Y824350D02*
D03*
Y829350D02*
D03*
Y834350D02*
D03*
Y839350D02*
D03*
Y844350D02*
D03*
Y849350D02*
D03*
X1260240D02*
D03*
Y844350D02*
D03*
Y839350D02*
D03*
Y834350D02*
D03*
Y829350D02*
D03*
Y824350D02*
D03*
Y819350D02*
D03*
Y814350D02*
D03*
X1310240D02*
D03*
Y819350D02*
D03*
Y824350D02*
D03*
Y829350D02*
D03*
Y834350D02*
D03*
Y839350D02*
D03*
Y844350D02*
D03*
Y849350D02*
D03*
D17*
X1050570Y629170D02*
D03*
X1055570D02*
D03*
X1060570D02*
D03*
X1065570D02*
D03*
X1070570D02*
D03*
X1075570D02*
D03*
X1080570D02*
D03*
X1085570D02*
D03*
Y679170D02*
D03*
X1080570D02*
D03*
X1075570D02*
D03*
X1070570D02*
D03*
X1065570D02*
D03*
X1060570D02*
D03*
X1055570D02*
D03*
X1050570D02*
D03*
X1267740Y629170D02*
D03*
X1272740D02*
D03*
X1277740D02*
D03*
X1282740D02*
D03*
X1287740D02*
D03*
X1292740D02*
D03*
X1297740D02*
D03*
X1302740D02*
D03*
Y679170D02*
D03*
X1297740D02*
D03*
X1292740D02*
D03*
X1287740D02*
D03*
X1282740D02*
D03*
X1277740D02*
D03*
X1272740D02*
D03*
X1267740D02*
D03*
X1050570Y806850D02*
D03*
X1055570D02*
D03*
X1060570D02*
D03*
X1065570D02*
D03*
X1070570D02*
D03*
X1075570D02*
D03*
X1080570D02*
D03*
X1085570D02*
D03*
Y856850D02*
D03*
X1080570D02*
D03*
X1075570D02*
D03*
X1070570D02*
D03*
X1065570D02*
D03*
X1060570D02*
D03*
X1055570D02*
D03*
X1050570D02*
D03*
X1267740Y806850D02*
D03*
X1272740D02*
D03*
X1277740D02*
D03*
X1282740D02*
D03*
X1287740D02*
D03*
X1292740D02*
D03*
X1297740D02*
D03*
X1302740D02*
D03*
Y856850D02*
D03*
X1297740D02*
D03*
X1292740D02*
D03*
X1287740D02*
D03*
X1282740D02*
D03*
X1277740D02*
D03*
X1272740D02*
D03*
X1267740D02*
D03*
D18*
X1068070Y654170D02*
D03*
X1285240D02*
D03*
X1068070Y831850D02*
D03*
X1285240D02*
D03*
D19*
X1005840Y698187D02*
Y699770D01*
X1001380Y693727D02*
X1005840Y698187D01*
X1001380Y683260D02*
Y693727D01*
Y621283D02*
Y636778D01*
Y605790D02*
Y621283D01*
X1001268Y586232D02*
Y605790D01*
Y586232D02*
X1003300Y584200D01*
X1345590Y829620D02*
Y836550D01*
Y815650D02*
Y829620D01*
X1315720Y877570D02*
Y889000D01*
Y877570D02*
X1335786Y857504D01*
Y841802D02*
Y857504D01*
Y841802D02*
X1341038Y836550D01*
X1345590D01*
X1329436Y881888D02*
X1340484D01*
X1339596Y844296D02*
Y870204D01*
X1338580Y871220D02*
X1339596Y870204D01*
X1340484Y881888D02*
X1347470Y874902D01*
Y859320D02*
Y874902D01*
X1345710Y857560D02*
X1347470Y859320D01*
X1310440Y819150D02*
X1327022D01*
X1310240Y819350D02*
X1310440Y819150D01*
X1327222Y819350D02*
X1328928D01*
X1327022Y819150D02*
X1327222Y819350D01*
X1323340Y828040D02*
Y828802D01*
X1322792Y829350D02*
X1323340Y828802D01*
X1322070Y845820D02*
X1323340D01*
X1315600Y839350D02*
X1322070Y845820D01*
X1319022Y814350D02*
X1323112Y810260D01*
X1310240Y814350D02*
X1319022D01*
X1328928Y819350D02*
X1345590Y802688D01*
Y774446D02*
Y801680D01*
X1329588Y758444D02*
X1345590Y774446D01*
X1302740Y856850D02*
Y875792D01*
X1344884Y844296D02*
X1345590Y843590D01*
X1339596Y844296D02*
X1344884D01*
X1310240Y829350D02*
X1322792D01*
X1379474Y836676D02*
Y878840D01*
X1373632Y884682D02*
X1379474Y878840D01*
X1383284Y829056D02*
Y888492D01*
X1387094Y769620D02*
Y918464D01*
X1360710Y870085D02*
X1365504Y874879D01*
X1360710Y857560D02*
Y870085D01*
X1285792Y899160D02*
X1341628D01*
X1267740Y881108D02*
X1285792Y899160D01*
X1272540Y903224D02*
X1368552D01*
X1267740Y856850D02*
Y881108D01*
X1291590Y793750D02*
X1292740Y794900D01*
X1282700Y768096D02*
Y806810D01*
X1242822Y927100D02*
X1378458D01*
X1356106Y884682D02*
X1373632D01*
X1368552Y903224D02*
X1383284Y888492D01*
X1378458Y927100D02*
X1387094Y918464D01*
X1341628Y899160D02*
X1356106Y884682D01*
X1271016Y901700D02*
X1272540Y903224D01*
X1310240Y839350D02*
X1315600D01*
X1116210Y938181D02*
Y947180D01*
X1110329Y932300D02*
X1116210Y938181D01*
X1107331Y932300D02*
X1110329D01*
X1093470Y918439D02*
X1107331Y932300D01*
X1093470Y913002D02*
Y918439D01*
X1085850Y905382D02*
X1093470Y913002D01*
X1085850Y896492D02*
Y905382D01*
Y896492D02*
X1094740Y887602D01*
Y879020D02*
Y887602D01*
X1093470Y877750D02*
X1094740Y879020D01*
Y892990D02*
Y901700D01*
Y892990D02*
X1099820Y887911D01*
Y876300D02*
Y887911D01*
Y876300D02*
X1107440Y868680D01*
X1104396Y847867D02*
Y855603D01*
X1107440Y858648D01*
Y868680D01*
X1109980Y881380D02*
X1113070Y878290D01*
Y851450D02*
Y878290D01*
X1107990Y846370D02*
X1113070Y851450D01*
X1107990Y838028D02*
Y846370D01*
X1104180Y848083D02*
X1104396Y847867D01*
X1104180Y843830D02*
Y848083D01*
X1099820Y839470D02*
X1104180Y843830D01*
X1093470Y873506D02*
Y877750D01*
X1085570Y865606D02*
X1093470Y873506D01*
X1085570Y856850D02*
Y865606D01*
X1113070Y843336D02*
X1119110Y849376D01*
X1113070Y824272D02*
Y843336D01*
X1057910Y876428D02*
Y883792D01*
X1045210Y896492D02*
X1057910Y883792D01*
X1043940Y875030D02*
X1049020Y880110D01*
X1029970D02*
X1031240Y881380D01*
X1108148Y819350D02*
X1113070Y824272D01*
X1121410Y880238D02*
Y892810D01*
X1119110Y877937D02*
X1121410Y880238D01*
X1119110Y866775D02*
Y877937D01*
X1141730Y900558D02*
Y932180D01*
X1128014Y886842D02*
X1141730Y900558D01*
X1128014Y853440D02*
Y886842D01*
X1052830Y871348D02*
X1057910Y876428D01*
X1052830Y863952D02*
Y871348D01*
X1139818Y872483D02*
Y880030D01*
X1148842Y829056D02*
Y889762D01*
X1152652Y819658D02*
Y893572D01*
X1119110Y849376D02*
Y850583D01*
X1093190Y839470D02*
X1099820D01*
X1099312Y829350D02*
X1107990Y838028D01*
X1111250Y788416D02*
Y811768D01*
X1115584Y816102D01*
X1119110D01*
X1101344Y819350D02*
X1108148D01*
X1093070Y829350D02*
X1099312D01*
X1101344Y819350D02*
X1105662Y815032D01*
Y775970D02*
Y815032D01*
X1096772Y805180D02*
Y814350D01*
X1111250Y788416D02*
X1126744Y772922D01*
X1033780Y869822D02*
X1038988Y875030D01*
X1033780Y862458D02*
Y869822D01*
Y862458D02*
X1035530Y860708D01*
Y842048D02*
Y860708D01*
X1029970Y860880D02*
Y880110D01*
Y860880D02*
X1031720Y859130D01*
Y840470D02*
Y859130D01*
X1021080Y866140D02*
X1024382D01*
X1016890Y857758D02*
X1017398Y857250D01*
X1003046Y857758D02*
X1016890D01*
X1051780Y862902D02*
X1052830Y863952D01*
X1027910Y827760D02*
Y848572D01*
X1019232Y857250D02*
X1027910Y848572D01*
X1023848Y822758D02*
Y844830D01*
X1019048Y849630D02*
X1023848Y844830D01*
X1014760Y849630D02*
X1019048D01*
X1017398Y857250D02*
X1019232D01*
X1045210Y896492D02*
Y922528D01*
X1000760Y893826D02*
X1001776Y894842D01*
X1038988Y875030D02*
X1043940D01*
X1035530Y842048D02*
X1037018Y840560D01*
X1041860D01*
X1043070Y839350D01*
X1027910Y827760D02*
X1036320Y819350D01*
X1024382Y866140D02*
X1024890Y865632D01*
X1031720Y840470D02*
X1034796Y837393D01*
Y829350D02*
Y837393D01*
X991108Y891540D02*
Y947928D01*
Y864870D02*
Y891540D01*
X989838Y890270D02*
X991108Y891540D01*
X976630Y890270D02*
X989838D01*
X1052322Y929640D02*
X1085850D01*
X1090930Y934720D01*
X1075570Y788028D02*
X1086395Y777203D01*
X1075570Y788028D02*
Y806850D01*
X1119110Y792226D02*
Y802005D01*
Y792226D02*
X1132318Y779018D01*
X1162752Y878646D02*
X1178560Y862838D01*
X1162752Y878646D02*
Y906205D01*
X1137920Y818134D02*
X1148842Y829056D01*
X1144016Y811022D02*
X1152652Y819658D01*
X1128014Y811022D02*
X1144016D01*
X1128014D02*
Y828294D01*
X1134110Y834390D01*
X1093070Y839350D02*
X1093190Y839470D01*
X1254188Y840560D02*
X1260240D01*
X1177290Y861568D02*
X1178560Y862838D01*
X1177290Y854710D02*
Y861568D01*
X1244600Y850147D02*
Y850900D01*
X1245998Y862330D02*
X1252220Y868552D01*
X1243458Y862330D02*
X1245998D01*
X1244728Y838200D02*
X1251159D01*
X1252220Y837139D01*
X1235710Y847218D02*
X1244728Y838200D01*
X1235710Y854582D02*
X1243458Y862330D01*
X1242060Y829310D02*
X1247288D01*
X1249520Y831542D01*
X1225042Y853948D02*
X1231900Y847090D01*
Y845639D02*
Y847090D01*
Y845639D02*
X1232888Y844652D01*
Y824992D02*
Y844652D01*
X1235710Y847218D02*
Y854582D01*
X1244600Y850147D02*
X1254188Y840560D01*
X1260240Y839350D02*
Y840560D01*
X1252220Y833414D02*
Y837139D01*
X1041860Y662880D02*
X1043070Y661670D01*
X1037018Y662880D02*
X1041860D01*
X1001380Y667766D02*
X1008420Y660726D01*
X979170Y690880D02*
X988060Y699770D01*
X979170Y675132D02*
Y690880D01*
Y675132D02*
X991108Y663194D01*
X1008420Y660726D02*
X1021920D01*
Y660726D01*
X1027465Y666270D01*
X1035530D01*
X1032891Y641670D02*
X1043070D01*
X1023126Y651435D02*
X1032891Y641670D01*
X1016217Y651435D02*
X1023126D01*
X1030450Y656683D02*
Y657070D01*
X1027195Y660325D02*
X1030450Y657070D01*
X1031856Y636670D02*
X1043070D01*
X1023366Y645160D02*
X1031856Y636670D01*
X1003808Y645160D02*
X1023366D01*
X1031240Y689610D02*
X1034288D01*
X1027207Y702310D02*
X1044194D01*
X1050570Y696114D02*
X1064386Y709930D01*
X1050570Y679170D02*
Y696114D01*
X1021920Y678893D02*
X1027558Y684530D01*
X1021920Y677708D02*
Y678893D01*
X1020432Y676220D02*
X1021920Y677708D01*
X1015380Y690483D02*
X1027207Y702310D01*
X1015380Y683260D02*
Y690483D01*
Y676220D02*
X1020432D01*
X1088390Y695832D02*
X1098678Y706120D01*
X1088390Y678434D02*
Y695832D01*
X1027558Y684530D02*
X1033272D01*
X1015380Y667766D02*
Y676220D01*
X1035530Y664368D02*
Y666270D01*
Y664368D02*
X1037018Y662880D01*
X1015380Y652272D02*
X1016217Y651435D01*
X1027195Y660325D02*
X1027430Y660560D01*
X1036320Y651670D01*
X1034288Y689610D02*
X1036320Y687578D01*
X1098678Y706120D02*
X1106042D01*
X1064386Y709930D02*
X1107620D01*
X1115060Y702490D01*
X1102360Y684530D02*
Y697230D01*
X1106042Y706120D02*
X1111250Y700912D01*
Y692499D02*
Y700912D01*
X1110290Y691539D02*
X1111250Y692499D01*
X1110290Y666560D02*
Y691539D01*
X1114100Y668138D02*
Y689960D01*
X1115060Y690920D01*
Y702490D01*
X1117854Y705085D02*
Y716280D01*
Y705085D02*
X1118870Y704069D01*
Y689342D02*
Y704069D01*
X1117910Y688382D02*
X1118870Y689342D01*
X1117910Y677278D02*
Y688382D01*
X1123950Y688212D02*
X1139952Y704213D01*
X1123950Y682830D02*
Y688212D01*
X1117854Y716280D02*
X1143254Y741680D01*
X1110290Y666560D02*
X1114099Y662750D01*
Y656153D02*
Y662750D01*
Y656153D02*
X1117107Y653146D01*
X1117909Y660345D02*
X1123950Y654304D01*
X1117909Y660345D02*
Y664329D01*
X1114100Y668138D02*
X1117909Y664329D01*
X1117910Y677278D02*
X1119398Y675790D01*
X1121380D01*
X1105822Y651670D02*
X1105916Y651764D01*
X1102360Y684530D02*
X1106170Y680720D01*
Y670560D02*
Y680720D01*
X1102360Y666750D02*
X1106170Y670560D01*
X1102360Y661670D02*
Y666750D01*
X1121380Y675790D02*
X1123950Y673220D01*
X1085570Y678434D02*
X1088390D01*
X1117107Y634985D02*
Y653146D01*
X1100008Y641670D02*
X1117600Y624078D01*
X1117107Y634985D02*
X1118616Y633476D01*
X1123950D01*
Y660400D02*
Y666320D01*
Y660400D02*
X1125728D01*
X1131570Y654558D01*
X1096772Y626618D02*
Y636670D01*
X1123950Y601980D02*
Y616790D01*
X1084714Y592328D02*
X1148588D01*
X1075570Y601472D02*
Y629170D01*
X1065570Y584668D02*
Y629170D01*
X1055570Y616512D02*
X1055624Y616458D01*
X1123950Y666320D02*
Y673220D01*
X1144778Y717168D02*
X1148842Y713103D01*
Y698118D02*
Y713103D01*
X1138950Y688226D02*
X1148842Y698118D01*
X1154430Y672805D02*
Y718691D01*
X1093070Y661670D02*
X1102360D01*
X1316990Y695832D02*
Y698500D01*
Y695832D02*
X1328420Y684402D01*
Y677038D02*
Y684402D01*
X1317780Y666398D02*
X1328420Y677038D01*
X1317780Y664368D02*
Y666398D01*
X1316990Y663577D02*
X1317780Y664368D01*
X1316990Y661670D02*
Y663577D01*
X1255319Y710361D02*
X1310891D01*
X1302740Y686790D02*
X1308100Y692150D01*
X1345438Y626618D02*
X1348936Y630116D01*
X1328166Y671395D02*
X1332230Y675460D01*
X1328166Y655320D02*
Y671395D01*
X1339834Y656217D02*
X1342510Y653542D01*
X1348936Y630116D02*
Y657040D01*
X1308100Y692150D02*
Y702182D01*
X1320672Y707390D02*
X1332230Y695832D01*
Y675460D02*
Y695832D01*
X1310891Y710361D02*
X1311729Y711200D01*
X1336040Y678046D02*
Y697411D01*
X1322251Y711200D02*
X1336040Y697411D01*
X1311729Y711200D02*
X1322251D01*
X1308100Y702182D02*
X1313308Y707390D01*
X1320672D01*
X1336040Y678046D02*
X1336294Y677792D01*
X1348936Y657040D02*
X1353312Y661416D01*
X1339834Y656217D02*
X1340046D01*
X1244600Y699642D02*
X1255319Y710361D01*
X1327658Y601472D02*
Y634746D01*
X1326134Y636270D02*
X1327658Y634746D01*
X1320482Y636270D02*
X1326134D01*
X1316292Y640460D02*
X1320482Y636270D01*
X1318260Y627380D02*
Y629158D01*
X1297178Y590550D02*
X1316736D01*
X1282740Y604988D02*
X1297178Y590550D01*
X1282740Y568960D02*
Y604988D01*
X1324356Y646430D02*
X1324610D01*
X1336294Y677792D02*
Y720472D01*
X1328166Y655320D02*
X1328292D01*
X1334757Y648856D01*
X1291844Y616458D02*
X1292740Y617354D01*
X1282740Y604988D02*
Y629170D01*
X1272740Y616712D02*
Y629170D01*
X1315468Y640460D02*
X1316292D01*
X1310748Y636670D02*
X1318260Y629158D01*
X1310240Y661670D02*
X1316990D01*
X1334757Y648729D02*
Y648856D01*
X1242822Y718820D02*
X1246632Y722630D01*
X1249680D01*
X1248410Y678308D02*
Y685672D01*
Y678308D02*
X1251712Y675006D01*
Y665355D02*
Y675006D01*
X1244600Y676730D02*
Y699642D01*
Y676730D02*
X1247902Y673428D01*
Y657512D02*
Y673428D01*
X1240790Y680720D02*
Y701220D01*
X1228598Y668528D02*
X1240790Y680720D01*
X1267460Y698500D02*
X1267740D01*
X1253490Y690752D02*
Y695960D01*
X1242822Y703252D02*
Y718820D01*
X1240790Y701220D02*
X1242822Y703252D01*
X1248410Y685672D02*
X1253490Y690752D01*
X1251712Y665355D02*
X1254188Y662880D01*
X1259030D01*
X1260240Y661670D01*
X1247902Y657512D02*
X1253744Y651670D01*
X1210026Y660146D02*
X1236218D01*
X1253636Y636670D02*
X1260240D01*
X1250950Y633984D02*
X1253636Y636670D01*
X1250950Y585216D02*
Y633984D01*
X1253744Y651670D02*
X1260240D01*
X1231326Y641670D02*
X1260240D01*
X859790Y648970D02*
X878840Y629920D01*
X930656D01*
X987806Y954278D02*
X991108Y950976D01*
X820928Y954278D02*
X987806D01*
X991108Y947928D02*
Y950976D01*
X1328166Y590550D02*
X1342510Y604894D01*
X1316736Y590550D02*
X1328166D01*
X1316736D02*
X1327658Y601472D01*
X1316736Y590550D02*
X1321562Y595376D01*
X1209040Y699770D02*
Y702806D01*
X1207740Y704106D02*
X1209040Y702806D01*
X1207740Y684022D02*
Y704106D01*
X1200912Y810514D02*
X1205230Y814832D01*
X1196848Y810514D02*
X1200912D01*
X1014760Y889030D02*
X1022350Y896620D01*
X1014760Y880110D02*
Y889030D01*
X1015380Y635369D02*
Y636778D01*
Y621283D02*
Y635369D01*
Y621283D02*
X1018287D01*
X1034542Y605028D01*
Y575056D02*
Y605028D01*
X1033018Y573532D02*
X1034542Y575056D01*
X930656Y629920D02*
X987044Y573532D01*
X994664D01*
X1302740Y679170D02*
Y686790D01*
X1319116Y651670D02*
X1324356Y646430D01*
X1314450Y641478D02*
X1315468Y640460D01*
X1314450Y641478D02*
Y641670D01*
X1310240D02*
X1314450D01*
X1267740Y679170D02*
Y698500D01*
X1227328Y690118D02*
X1231900Y694690D01*
X1227328Y684022D02*
Y690118D01*
X1221740Y684022D02*
X1227328D01*
X1207740Y662432D02*
X1210026Y660146D01*
X1093070Y651670D02*
X1105822D01*
X1085570Y678434D02*
Y679170D01*
X1188466Y636778D02*
X1198626Y626618D01*
X1196848Y644652D02*
Y764794D01*
Y644652D02*
X1202944Y638556D01*
X1093070Y641670D02*
X1100008D01*
X1033780Y623570D02*
X1036066D01*
X1041908Y629412D01*
X1033272Y684530D02*
X1036320Y687578D01*
X991108Y577088D02*
X994664Y573532D01*
X1033018D01*
X1356106Y740284D02*
Y769620D01*
X1336294Y720472D02*
X1356106Y740284D01*
X1282700Y768096D02*
X1292352Y758444D01*
X1282700Y806810D02*
X1282740Y806850D01*
X1252220Y868552D02*
Y887984D01*
X1238250Y901954D02*
X1252220Y887984D01*
X1250950Y832144D02*
X1252220Y833414D01*
X1235456Y814350D02*
X1260240D01*
X1229078Y820728D02*
X1235456Y814350D01*
X1229078Y820728D02*
Y839935D01*
X1238529Y819350D02*
X1260240D01*
X1232888Y824992D02*
X1238529Y819350D01*
X1230122Y806958D02*
X1267740D01*
X1253564Y798068D02*
X1270200D01*
X1227328Y841684D02*
X1229078Y839935D01*
X1219230Y841684D02*
X1227328D01*
X1270200Y798068D02*
X1272740Y800608D01*
X1219230Y787719D02*
X1229502Y777447D01*
X1196848Y764794D02*
Y810514D01*
X1205230Y775716D02*
X1208659Y772287D01*
X1093724Y764032D02*
X1105662Y775970D01*
X1055570Y794312D02*
X1055624Y794258D01*
X1050570Y801878D02*
Y806850D01*
X1037336Y788644D02*
X1050570Y801878D01*
X1143254Y763778D02*
Y776224D01*
X1051780Y858060D02*
Y862902D01*
X1173480Y885952D02*
X1193800Y906272D01*
X1129792Y750316D02*
X1143254Y763778D01*
X1050570Y856850D02*
X1051780Y858060D01*
X1024128Y864870D02*
X1024890Y865632D01*
X1014760Y819150D02*
Y834390D01*
X1205230Y814832D02*
Y830834D01*
X1000760Y819150D02*
Y834390D01*
X1060570Y629170D02*
X1065570D01*
X1060570Y806850D02*
X1065570D01*
X927100Y756800D02*
Y793990D01*
X1277740Y806850D02*
X1282740D01*
X1277740Y629170D02*
X1282740D01*
X859790Y734060D02*
X889508D01*
X897248Y741800D01*
X927100D01*
X768350Y710692D02*
Y730250D01*
Y710692D02*
X830072Y648970D01*
X859790D01*
X889374Y842010D02*
X908304Y860940D01*
X1342510Y652145D02*
Y653542D01*
X1123950Y633300D02*
Y633476D01*
X1131570Y619760D02*
X1133856Y617474D01*
X1138950Y616790D02*
Y617474D01*
X1131570Y627888D02*
Y654558D01*
X1127760Y624078D02*
X1131570Y627888D01*
X1117600Y624078D02*
X1127760D01*
X1219230Y814832D02*
Y830834D01*
X1221740Y668528D02*
X1228598D01*
X1196848Y764794D02*
X1242822Y718820D01*
X1196848Y860806D02*
X1198880Y862838D01*
X1196848Y834136D02*
Y860806D01*
Y834136D02*
X1200150Y830834D01*
X1205230D01*
X1093070Y814350D02*
X1096772D01*
X1336294Y677792D02*
X1342510Y671576D01*
X1354328Y784606D02*
X1356106Y782828D01*
X1354328Y784606D02*
Y837184D01*
X1356614Y839470D01*
X1360590D02*
Y843590D01*
X1036320Y651670D02*
X1043070D01*
X1138950Y660908D02*
Y666320D01*
X765810Y899160D02*
X820928Y954278D01*
X1357510Y643382D02*
Y652145D01*
X1207740Y653034D02*
X1211326D01*
X1215136Y649224D01*
Y585216D02*
Y649224D01*
Y585216D02*
X1225550Y574802D01*
X1240536D01*
X1250950Y585216D01*
X1357510Y663582D02*
Y668337D01*
X1355344Y661416D02*
X1357510Y663582D01*
X1353312Y661416D02*
X1355344D01*
X1342510Y626618D02*
X1345438D01*
X1342510Y619760D02*
Y626618D01*
Y604894D02*
Y619760D01*
X1123950Y649810D02*
Y654304D01*
X1221740Y648207D02*
Y653034D01*
Y648207D02*
X1225296Y644652D01*
X1228344D01*
X1231326Y641670D01*
X1134110Y866775D02*
X1139818Y872483D01*
X1134110Y818134D02*
Y818197D01*
X1145540Y893064D02*
X1148842Y889762D01*
X1145540Y893064D02*
Y934466D01*
X1141730Y938276D02*
X1145540Y934466D01*
X1141730Y938276D02*
Y952380D01*
X1121410D02*
X1141730D01*
X1116210Y947180D02*
X1121410Y952380D01*
X1292740Y617354D02*
Y629170D01*
X1377442Y593090D02*
Y707136D01*
X1370330Y714248D02*
X1377442Y707136D01*
X1364622Y714248D02*
X1370330D01*
X1357510Y707136D02*
X1364622Y714248D01*
X1357510Y684530D02*
Y707136D01*
X1207740Y574802D02*
Y606552D01*
X1357510Y574802D02*
Y619760D01*
Y635952D02*
Y643382D01*
X1368552Y654424D02*
Y700278D01*
X1015380Y597266D02*
Y605790D01*
Y597266D02*
X1025652Y586994D01*
X1219230Y841684D02*
Y846836D01*
X1207770Y853948D02*
X1225042D01*
X1205230Y851408D02*
X1207770Y853948D01*
X1205230Y846836D02*
Y851408D01*
X1000760Y849630D02*
Y855472D01*
X1003046Y857758D01*
X1036320Y819350D02*
X1043070D01*
X1034796Y829350D02*
X1043070D01*
X1014760Y798381D02*
Y803910D01*
Y798381D02*
X1025032Y788109D01*
Y786591D02*
Y788109D01*
X1020968Y782527D02*
X1025032Y786591D01*
X1207740Y662432D02*
Y668528D01*
X1198626Y570230D02*
Y626618D01*
Y570230D02*
X1202944Y565912D01*
X1259332D01*
X1263650Y570230D01*
Y627126D01*
X1265936Y629412D01*
X1267740Y629170D02*
Y629412D01*
X991108Y577088D02*
Y663194D01*
X995680Y667766D01*
X1001380D01*
X1267740Y806850D02*
Y806958D01*
X1193800Y906272D02*
X1210056D01*
X1214120Y902208D01*
Y887222D02*
Y902208D01*
X1212596Y885698D02*
X1214120Y887222D01*
X1212596Y865378D02*
Y885698D01*
Y865378D02*
X1215136Y862838D01*
X1219230D01*
X1292352Y758444D02*
X1329588D01*
X1342510Y668337D02*
Y671576D01*
X1345590Y801680D02*
Y802688D01*
X1084580Y764032D02*
X1093724D01*
X1093070Y819350D02*
X1101344D01*
X1310240Y651670D02*
X1319116D01*
X1140460Y779018D02*
X1143254Y776224D01*
X1178265Y568960D02*
Y726735D01*
Y568960D02*
X1186393Y560832D01*
X1274612D01*
X1282740Y568960D01*
X952380Y583184D02*
Y584200D01*
Y583184D02*
X983488Y552076D01*
Y537640D02*
Y552076D01*
X958342Y512494D02*
X983488Y537640D01*
X942740Y496570D02*
X958342D01*
X927100Y793990D02*
X935228Y802118D01*
X927100Y845940D02*
X932688D01*
X1158113Y910844D02*
X1162752Y906205D01*
X1158113Y910844D02*
Y954786D01*
X1151121Y961778D02*
X1158113Y954786D01*
X1004958Y961778D02*
X1151121D01*
X991108Y947928D02*
X1004958Y961778D01*
X991108Y838962D02*
X995680Y834390D01*
X991108Y864870D02*
X1000760D01*
X1146048Y581406D02*
X1170137Y605495D01*
X1143254Y779018D02*
X1170772Y751500D01*
X1070610Y459740D02*
Y581406D01*
X1068832D02*
X1070610D01*
X1065570Y584668D02*
X1068832Y581406D01*
X996950Y751840D02*
X1002792Y745998D01*
X1021080D01*
X1065570Y790488D01*
X1251712Y829350D02*
X1260240D01*
X1250950Y832144D02*
X1251712Y829350D01*
X1238250Y901954D02*
Y922528D01*
X1242822Y927100D01*
X1356106Y769620D02*
X1387094D01*
X1131570Y942340D02*
X1141730Y932180D01*
X1128014Y853440D02*
X1130300Y851154D01*
X1134110Y850583D02*
Y851154D01*
X1249520Y831542D02*
X1251712Y829350D01*
X1219230Y798830D02*
Y814832D01*
Y787719D02*
Y798830D01*
X1014760Y803910D02*
Y819150D01*
X1146026Y638048D02*
X1160739Y652761D01*
Y666496D01*
X1154430Y672805D02*
X1160739Y666496D01*
X1138950Y638048D02*
Y649810D01*
X1055570Y616512D02*
Y629170D01*
X1050570D02*
Y629412D01*
X1001380Y647588D02*
Y652272D01*
Y647588D02*
X1003808Y645160D01*
X1055570Y794312D02*
Y806850D01*
X1000760Y880110D02*
Y893826D01*
X1037336Y785368D02*
Y788644D01*
X1014760Y864870D02*
X1024128D01*
X1023848Y822758D02*
X1032256Y814350D01*
X1043070D01*
X1134110Y795020D02*
Y802005D01*
Y795020D02*
X1139571Y789559D01*
X1000760Y764032D02*
X1009904Y754888D01*
X1000760Y764032D02*
Y803910D01*
X1272740Y800608D02*
Y806850D01*
X1205230Y878840D02*
Y896921D01*
X1360590Y790028D02*
Y801680D01*
Y790028D02*
X1365250Y785368D01*
X1205230Y775716D02*
Y798830D01*
X1075570Y601472D02*
X1084714Y592328D01*
X1148588D02*
X1166327Y610067D01*
Y726227D01*
X1158240Y734314D02*
X1166327Y726227D01*
X1150112Y734314D02*
X1158240D01*
X1144778Y728980D02*
X1150112Y734314D01*
X1144778Y717168D02*
Y728980D01*
X1138950Y682830D02*
Y688226D01*
X1342510Y635952D02*
Y638810D01*
X1334757Y648729D02*
X1342510Y638810D01*
X1150366Y895858D02*
X1152652Y893572D01*
X1150366Y895858D02*
Y940562D01*
X1145540Y945388D02*
X1150366Y940562D01*
X1145540Y945388D02*
Y956190D01*
X1104272D02*
X1145540D01*
X1090930Y942848D02*
X1104272Y956190D01*
X1090930Y934720D02*
Y942848D01*
X1045210Y922528D02*
X1052322Y929640D01*
X1292740Y794900D02*
Y806850D01*
X1372418Y829620D02*
X1379474Y836676D01*
X1360590Y829620D02*
X1372418D01*
X1360590Y815650D02*
Y820674D01*
X1374902D02*
X1383284Y829056D01*
X1093070Y636670D02*
X1096772D01*
X917956Y813562D02*
Y818642D01*
Y813562D02*
X922528Y808990D01*
X1310240Y636670D02*
X1310748D01*
X991108Y838962D02*
Y864870D01*
X1202944Y638556D02*
X1207740D01*
X1178560Y862838D02*
X1198880D01*
X1205230D01*
X1084580Y764032D02*
X1098296Y750316D01*
X1070610Y581406D02*
X1146048D01*
X1098296Y750316D02*
X1129792D01*
X1143254D01*
X932688Y845940D02*
X935228Y843400D01*
X1065570Y790488D02*
Y806850D01*
X1143254Y750316D02*
X1154684D01*
X1170686D01*
X1133856Y617474D02*
X1138950D01*
X1131570Y619760D02*
Y627888D01*
X1154684Y750316D02*
X1170697Y734303D01*
X1178265Y726735D01*
X1143254Y741680D02*
Y750316D01*
Y763778D01*
X1170137Y605495D02*
X1170697Y734303D01*
X1170767Y750316D01*
X1170771Y751333D01*
X1170772Y751500D01*
X1140460Y779018D02*
X1143254D01*
X1132318D02*
X1140460D01*
X1170772Y751500D02*
X1170940Y751332D01*
X958342Y496570D02*
X971111D01*
X958342D02*
Y512494D01*
X1138950Y660908D02*
X1149858D01*
X1356106Y769620D02*
Y782828D01*
X1130300Y851154D02*
X1134110D01*
X1356614Y839470D02*
X1360590D01*
X1138950Y638048D02*
X1146026D01*
X1150447Y722674D02*
X1154430Y718691D01*
X1357510Y643382D02*
X1368552Y654424D01*
X1041908Y629412D02*
X1050570D01*
X1265936D02*
X1267740D01*
X1134110Y818134D02*
X1137920D01*
X1360590Y820674D02*
X1374902D01*
X922140Y860940D02*
Y900550D01*
X908304Y860940D02*
X922140D01*
X927100D01*
X880745Y808990D02*
X922528D01*
X927100D01*
X1065570Y783042D02*
Y790488D01*
Y783042D02*
X1084580Y764032D01*
X1043070Y824350D02*
X1060570D01*
X1068070Y831850D01*
X1075570Y824350D02*
X1093070D01*
X1070570Y806850D02*
Y829350D01*
X1068070Y831850D02*
X1070570Y829350D01*
X1075570Y824350D01*
X1068070Y654170D02*
X1070570Y651670D01*
X1075570Y646670D02*
X1093070D01*
X1070570Y651670D02*
X1075570Y646670D01*
X1043070D02*
X1060570D01*
X1068070Y654170D01*
X1260240Y646670D02*
X1277740D01*
X1285240Y654170D01*
X1287740Y629170D02*
Y651670D01*
X1292740Y646670D02*
X1310240D01*
X1285240Y654170D02*
X1287740Y651670D01*
X1292740Y646670D01*
X1285240Y819350D02*
Y831850D01*
X1290319Y814271D02*
Y814390D01*
X1295042D01*
X1296550Y812882D01*
Y808039D02*
Y812882D01*
Y808039D02*
X1297740Y806850D01*
X1302740D01*
X1260240Y824350D02*
X1277740D01*
X1285240Y831850D01*
X1292740Y824350D02*
X1310240D01*
X1285240Y831850D02*
X1292740Y824350D01*
X1287740Y806850D02*
Y816570D01*
X1287880Y816710D01*
X1285240Y819350D02*
X1287880Y816710D01*
X1290319Y814271D01*
X1080570Y806850D02*
X1085570D01*
X1080570D02*
Y819350D01*
X1075570Y824350D02*
X1080570Y819350D01*
X1070570Y629170D02*
Y643930D01*
Y651670D01*
X935228Y802118D02*
Y843400D01*
X996950Y751840D02*
Y781678D01*
X935228Y843400D02*
X996950Y781678D01*
D20*
X1003300Y584200D02*
Y588324D01*
X1309370Y852170D02*
X1310240Y853040D01*
Y856850D01*
X1316990Y863600D01*
X1296670Y884809D02*
Y890270D01*
X1292072Y880211D02*
X1296670Y884809D01*
X1292072Y864875D02*
Y880211D01*
X1277620Y864870D02*
Y869950D01*
X1292072Y864875D02*
X1292740Y864207D01*
X1277620Y864870D02*
X1277740Y864750D01*
X1302740Y804926D02*
Y806850D01*
Y804926D02*
X1302766D01*
Y783616D02*
Y804926D01*
X1302740Y773910D02*
Y783590D01*
X1093470Y850900D02*
Y852170D01*
X1098550Y857250D01*
Y862330D01*
X1085850Y877027D02*
Y883920D01*
Y877027D02*
X1087120Y875757D01*
X1075570Y864207D02*
X1087120Y875757D01*
X1065530Y870733D02*
Y871220D01*
X1021080Y896620D02*
X1022350D01*
X1065530Y870733D02*
X1066313Y869950D01*
X1060570Y864207D02*
X1066313Y869950D01*
X1042670Y866140D02*
X1043940Y864870D01*
X1085570Y794230D02*
Y806850D01*
X1031240Y675640D02*
X1033780Y673100D01*
X1060450Y692150D02*
X1060570Y692030D01*
X1075690Y690880D02*
X1079500Y694690D01*
X1094740Y673100D02*
X1097280Y675640D01*
X1075690Y686647D02*
Y690880D01*
X1342510Y693079D02*
X1347216Y697785D01*
X1302740Y604357D02*
Y629170D01*
X1296670Y692150D02*
Y694690D01*
X1281430Y690217D02*
Y695960D01*
X1319530Y679450D02*
Y680720D01*
X1257300Y674370D02*
Y681990D01*
Y674370D02*
X1258570Y673100D01*
X747268Y880618D02*
X765810Y899160D01*
X747268Y751332D02*
Y880618D01*
X1014421Y635369D02*
X1015380D01*
X1313180Y673100D02*
X1319530Y679450D01*
X1292740Y686527D02*
Y688220D01*
X1296670Y692150D01*
X1277740Y686527D02*
X1281430Y690217D01*
X1085570Y616549D02*
Y629170D01*
X1075570Y686527D02*
X1075690Y686647D01*
X1060570Y686527D02*
Y692030D01*
X1033780Y673100D02*
X1038860D01*
X1258570Y850900D02*
Y862330D01*
X1229502Y885078D02*
Y888031D01*
X1129792Y770128D02*
X1134364D01*
X1126998Y772922D02*
X1129792Y770128D01*
X1041400Y850900D02*
X1043940Y853440D01*
Y864870D01*
X910590Y648970D02*
X934211D01*
X1221740Y622046D02*
Y637540D01*
X1001268Y636778D02*
X1001380D01*
X1001268Y621283D02*
X1001380D01*
X1001268Y605790D02*
X1001380D01*
X1207740Y622046D02*
Y637540D01*
X768350Y533908D02*
Y679450D01*
Y533908D02*
X780288Y521970D01*
X840740D01*
X1119110Y818197D02*
Y834390D01*
Y816102D02*
Y818197D01*
X1126744Y772922D02*
X1126998D01*
X1219230Y878840D02*
X1223264D01*
X1229502Y885078D01*
X1302740Y783590D02*
X1302766Y783616D01*
X942740Y547370D02*
X967047D01*
X971111Y551434D01*
X937380Y567269D02*
Y584200D01*
Y567269D02*
X941832Y562817D01*
X1207740Y637540D02*
Y638556D01*
X1014421Y621283D02*
X1015380D01*
X995680Y834390D02*
X1000760D01*
X747268Y751332D02*
X768350Y730250D01*
X1342510Y684530D02*
Y693079D01*
X1221740Y622046D02*
X1221994D01*
X1221740Y599505D02*
Y606552D01*
Y599505D02*
X1236076Y585169D01*
X1152479Y725424D02*
X1154176D01*
X1138950Y633300D02*
Y638048D01*
X1221740Y606552D02*
X1221994Y622042D01*
X1221994Y622046D01*
X1085330Y629170D02*
X1085570D01*
X1081138Y633362D02*
Y638488D01*
X1076012D02*
X1081138D01*
X1068070Y646430D02*
Y654170D01*
X1081138Y633362D02*
X1085330Y629170D01*
X1068070Y646430D02*
X1070570Y643930D01*
X1076012Y638488D01*
X1299450Y632460D02*
Y639960D01*
Y632460D02*
X1302740Y629170D01*
X1292740Y646670D02*
X1299450Y639960D01*
D21*
X1400810Y485204D02*
Y812863D01*
X715073Y434403D02*
X1375774D01*
X715073Y968188D02*
X1375774D01*
X715073Y434403D02*
Y968188D01*
D22*
X1375774D02*
X1391472D01*
X1400810Y808990D02*
Y958613D01*
X1400573D02*
Y959087D01*
X1391472Y968188D02*
X1400573Y959087D01*
X1375774Y434403D02*
X1395793D01*
X1400573Y439183D01*
Y485204D01*
D23*
X1296670Y538480D02*
D03*
X1271270D02*
D03*
X1320800D02*
D03*
X1085850Y539750D02*
D03*
X1060450D02*
D03*
X1109980D02*
D03*
X1296670Y737870D02*
D03*
X1271270D02*
D03*
X1320800D02*
D03*
X1085850Y739140D02*
D03*
X1060450D02*
D03*
X1109980D02*
D03*
D24*
X1245870Y538480D02*
D03*
X1035050Y539750D02*
D03*
X1245870Y737870D02*
D03*
X1035050Y739140D02*
D03*
D25*
X765810Y848360D02*
D03*
X768350Y679450D02*
D03*
D26*
X765810Y899160D02*
D03*
X768350Y730250D02*
D03*
D27*
X1131570Y942340D02*
D03*
X1350010D02*
D03*
Y916940D02*
D03*
Y459740D02*
D03*
X1172210D02*
D03*
X1131570Y916940D02*
D03*
X1350010Y485140D02*
D03*
X1172210D02*
D03*
D28*
X1106170Y942340D02*
D03*
X1055370D02*
D03*
X1029970D02*
D03*
X1004570D02*
D03*
X979170D02*
D03*
X953770D02*
D03*
X928370D02*
D03*
X902970D02*
D03*
X1080770D02*
D03*
X1172210D02*
D03*
X1197610D02*
D03*
X1223010D02*
D03*
X1248410D02*
D03*
X1273810D02*
D03*
X1299210D02*
D03*
X1324610D02*
D03*
X1172210Y916940D02*
D03*
X1197610D02*
D03*
X1223010D02*
D03*
X1248410D02*
D03*
X1273810D02*
D03*
X1299210D02*
D03*
X1324610D02*
D03*
X1223010Y459740D02*
D03*
X1248410D02*
D03*
X1273810D02*
D03*
X1299210D02*
D03*
X1324610D02*
D03*
X994410D02*
D03*
X1019810D02*
D03*
X1045210D02*
D03*
X1070610D02*
D03*
X1096010D02*
D03*
X1121410D02*
D03*
X1146810D02*
D03*
X953770Y916940D02*
D03*
X979170D02*
D03*
X1004570D02*
D03*
X1029970D02*
D03*
X1055370D02*
D03*
X1080770D02*
D03*
X1106170D02*
D03*
X1223010Y485140D02*
D03*
X1248410D02*
D03*
X1273810D02*
D03*
X1299210D02*
D03*
X1324610D02*
D03*
X1146810D02*
D03*
X1121410D02*
D03*
X1096010D02*
D03*
D29*
X750570Y575310D02*
D03*
X859790Y842010D02*
D03*
Y788035D02*
D03*
Y734060D02*
D03*
D30*
X750570Y600710D02*
D03*
X859790Y867410D02*
D03*
Y813435D02*
D03*
Y759460D02*
D03*
D31*
X1005840Y699770D02*
D03*
X1003300Y584200D02*
D03*
X1315720Y889000D02*
D03*
X1338580Y871220D02*
D03*
X1323340Y828040D02*
D03*
Y845820D02*
D03*
X1316990Y863600D02*
D03*
X1345590Y774446D02*
D03*
X1323112Y810260D02*
D03*
X1302740Y875792D02*
D03*
X1329436Y881888D02*
D03*
X1370482Y874879D02*
D03*
X1296670Y890270D02*
D03*
X1277620Y869950D02*
D03*
X1291590Y793750D02*
D03*
X1271016Y901700D02*
D03*
X1302740Y773910D02*
D03*
X1098550Y862330D02*
D03*
X1085850Y883920D02*
D03*
X1049020Y880110D02*
D03*
X1031240Y881380D02*
D03*
X1109980D02*
D03*
X1094740Y901700D02*
D03*
X1065530Y871220D02*
D03*
X1121410Y892810D02*
D03*
X1021080Y896620D02*
D03*
X1139818Y880030D02*
D03*
X1096772Y805180D02*
D03*
X1042670Y866140D02*
D03*
X1021080D02*
D03*
X1001776Y894842D02*
D03*
X976630Y890270D02*
D03*
X1085570Y794230D02*
D03*
X1177290Y854710D02*
D03*
X1242060Y829310D02*
D03*
X1244600Y850900D02*
D03*
X1030450Y656683D02*
D03*
X1031240Y675640D02*
D03*
Y689610D02*
D03*
X1044194Y702310D02*
D03*
X988060Y699770D02*
D03*
X1060450Y692150D02*
D03*
X1079500Y694690D02*
D03*
X1097280Y725170D02*
D03*
X1102360Y697230D02*
D03*
X1097280Y675640D02*
D03*
X1105916Y651764D02*
D03*
X1096772Y626618D02*
D03*
X1123950Y601980D02*
D03*
X1055624Y616458D02*
D03*
X1139952Y704213D02*
D03*
X1316990Y698500D02*
D03*
X1340046Y656217D02*
D03*
X1347216Y697785D02*
D03*
X1318260Y627380D02*
D03*
X1302740Y604357D02*
D03*
X1324610Y646430D02*
D03*
X1296670Y694690D02*
D03*
X1281430Y695960D02*
D03*
X1291844Y616458D02*
D03*
X1272740Y616712D02*
D03*
X1319530Y680720D02*
D03*
X1249680Y722630D02*
D03*
X1257300Y681990D02*
D03*
X1267460Y698500D02*
D03*
X1253490Y695960D02*
D03*
X1236218Y660146D02*
D03*
X1209040Y699770D02*
D03*
X1332230Y523240D02*
D03*
X1306830D02*
D03*
X1259840D02*
D03*
X1231900Y694690D02*
D03*
Y523240D02*
D03*
X1085570Y616549D02*
D03*
X1123950Y525780D02*
D03*
X1188466Y636778D02*
D03*
X1094740Y523240D02*
D03*
X1033780Y623570D02*
D03*
X1049020Y525780D02*
D03*
X1021080Y528320D02*
D03*
X1330960Y727710D02*
D03*
X1308100Y722630D02*
D03*
X1282700Y723900D02*
D03*
X1258570Y862330D02*
D03*
X1231900Y751840D02*
D03*
X1230122Y806958D02*
D03*
X1253564Y798068D02*
D03*
X1229502Y888031D02*
D03*
Y777447D02*
D03*
X1208659Y772287D02*
D03*
X1055624Y794258D02*
D03*
X1086395Y777203D02*
D03*
X1134364Y770128D02*
D03*
X1173480Y885952D02*
D03*
X1126490Y739140D02*
D03*
X1073150Y727710D02*
D03*
X1017270Y725170D02*
D03*
X934211Y648970D02*
D03*
X971111Y496570D02*
D03*
X889374Y842010D02*
D03*
X880745Y808990D02*
D03*
X1149858Y660908D02*
D03*
X971111Y551434D02*
D03*
X941832Y562817D02*
D03*
X1377442Y593090D02*
D03*
X1207740Y574802D02*
D03*
X1357510D02*
D03*
X1368552Y700278D02*
D03*
X1025652Y586994D02*
D03*
X1020968Y782527D02*
D03*
X1170940Y751332D02*
D03*
X1236076Y585169D02*
D03*
X1154176Y725424D02*
D03*
X1037336Y785368D02*
D03*
X1139571Y789559D02*
D03*
X1009904Y754888D02*
D03*
X1205230Y896921D02*
D03*
X1365250Y785368D02*
D03*
X922140Y900550D02*
D03*
X917956Y818642D02*
D03*
M02*
