G04 Layer_Physical_Order=2*
G04 Layer_Color=16711680*
%FSLAX44Y44*%
%MOMM*%
G71*
G01*
G75*
%ADD20C,0.2540*%
%ADD21C,0.6096*%
%ADD22R,1.8000X1.8000*%
%ADD23C,1.8000*%
%ADD24C,1.4000*%
%ADD25R,1.4000X1.4000*%
%ADD26C,1.9000*%
%ADD27R,1.9000X1.9000*%
%ADD28C,1.5000*%
%ADD29R,1.5000X1.5000*%
%ADD30C,0.6000*%
%ADD31C,1.2700*%
%ADD32C,0.0254*%
G36*
X1290558Y944924D02*
X1290475Y944681D01*
X1290244Y943520D01*
X1290167Y942340D01*
X1290244Y941160D01*
X1290475Y939999D01*
X1290855Y938879D01*
X1291378Y937818D01*
X1292035Y936835D01*
X1292815Y935945D01*
X1293705Y935165D01*
X1294688Y934508D01*
X1295749Y933985D01*
X1295347Y932781D01*
X1277673D01*
X1277271Y933985D01*
X1278332Y934508D01*
X1279315Y935165D01*
X1280205Y935945D01*
X1280985Y936835D01*
X1281642Y937818D01*
X1282165Y938879D01*
X1282545Y939999D01*
X1282776Y941160D01*
X1282853Y942340D01*
X1282776Y943520D01*
X1282545Y944681D01*
X1282165Y945801D01*
X1281642Y946862D01*
X1280985Y947845D01*
X1280205Y948735D01*
X1279315Y949515D01*
X1278332Y950172D01*
X1277271Y950695D01*
X1276151Y951075D01*
X1274990Y951306D01*
X1273810Y951383D01*
X1272630Y951306D01*
X1271469Y951075D01*
X1270349Y950695D01*
X1269288Y950172D01*
X1268305Y949515D01*
X1267415Y948735D01*
X1266635Y947845D01*
X1265978Y946862D01*
X1265455Y945801D01*
X1265075Y944681D01*
X1264844Y943520D01*
X1264767Y942340D01*
X1264844Y941160D01*
X1265075Y939999D01*
X1265455Y938879D01*
X1265978Y937818D01*
X1266635Y936835D01*
X1267415Y935945D01*
X1268305Y935165D01*
X1269288Y934508D01*
X1270349Y933985D01*
X1269947Y932781D01*
X1252273D01*
X1251871Y933985D01*
X1252932Y934508D01*
X1253915Y935165D01*
X1254805Y935945D01*
X1255585Y936835D01*
X1256242Y937818D01*
X1256765Y938879D01*
X1257145Y939999D01*
X1257376Y941160D01*
X1257453Y942340D01*
X1257376Y943520D01*
X1257145Y944681D01*
X1256765Y945801D01*
X1256242Y946862D01*
X1255585Y947845D01*
X1254805Y948735D01*
X1253915Y949515D01*
X1252932Y950172D01*
X1251871Y950695D01*
X1250751Y951075D01*
X1249590Y951306D01*
X1248410Y951383D01*
X1247230Y951306D01*
X1246069Y951075D01*
X1245826Y950992D01*
X1243405Y953413D01*
X1243891Y954586D01*
X1280896D01*
X1290558Y944924D01*
D02*
G37*
G36*
X1319068Y467019D02*
X1319065Y466879D01*
X1318215Y466135D01*
X1317435Y465245D01*
X1316778Y464262D01*
X1316255Y463201D01*
X1315875Y462081D01*
X1315644Y460920D01*
X1315567Y459740D01*
X1315644Y458560D01*
X1315875Y457399D01*
X1315958Y457155D01*
X1304147Y445345D01*
X1209317D01*
X1208464Y446614D01*
X1208506Y447040D01*
X1208419Y447927D01*
X1208160Y448780D01*
X1207740Y449566D01*
X1207174Y450254D01*
X1206486Y450820D01*
X1205700Y451240D01*
X1204847Y451498D01*
X1203960Y451586D01*
X1203073Y451498D01*
X1202520Y451331D01*
X1182357D01*
X1182156Y451419D01*
X1181247Y452240D01*
Y467240D01*
X1182156Y468061D01*
X1182357Y468149D01*
X1217067D01*
X1217468Y467019D01*
X1217465Y466879D01*
X1216615Y466135D01*
X1215835Y465245D01*
X1215178Y464262D01*
X1214655Y463201D01*
X1214275Y462081D01*
X1214044Y460920D01*
X1213967Y459740D01*
X1214044Y458560D01*
X1214275Y457399D01*
X1214655Y456279D01*
X1215178Y455218D01*
X1215835Y454235D01*
X1216615Y453345D01*
X1217505Y452565D01*
X1218488Y451908D01*
X1219549Y451385D01*
X1220669Y451005D01*
X1221830Y450774D01*
X1223010Y450697D01*
X1224190Y450774D01*
X1225351Y451005D01*
X1226471Y451385D01*
X1227532Y451908D01*
X1228515Y452565D01*
X1229405Y453345D01*
X1230185Y454235D01*
X1230842Y455218D01*
X1231365Y456279D01*
X1231745Y457399D01*
X1231976Y458560D01*
X1232053Y459740D01*
X1231976Y460920D01*
X1231745Y462081D01*
X1231365Y463201D01*
X1230842Y464262D01*
X1230185Y465245D01*
X1229405Y466135D01*
X1228555Y466879D01*
X1228552Y467019D01*
X1228953Y468149D01*
X1242467D01*
X1242868Y467019D01*
X1242865Y466879D01*
X1242015Y466135D01*
X1241235Y465245D01*
X1240578Y464262D01*
X1240055Y463201D01*
X1239675Y462081D01*
X1239444Y460920D01*
X1239367Y459740D01*
X1239444Y458560D01*
X1239675Y457399D01*
X1240055Y456279D01*
X1240578Y455218D01*
X1241235Y454235D01*
X1242015Y453345D01*
X1242905Y452565D01*
X1243888Y451908D01*
X1244949Y451385D01*
X1246069Y451005D01*
X1247230Y450774D01*
X1248410Y450697D01*
X1249590Y450774D01*
X1250751Y451005D01*
X1251871Y451385D01*
X1252932Y451908D01*
X1253915Y452565D01*
X1254805Y453345D01*
X1255585Y454235D01*
X1256242Y455218D01*
X1256765Y456279D01*
X1257145Y457399D01*
X1257376Y458560D01*
X1257453Y459740D01*
X1257376Y460920D01*
X1257145Y462081D01*
X1256765Y463201D01*
X1256242Y464262D01*
X1255585Y465245D01*
X1254805Y466135D01*
X1253955Y466879D01*
X1253952Y467019D01*
X1254353Y468149D01*
X1267867D01*
X1268268Y467019D01*
X1268265Y466879D01*
X1267415Y466135D01*
X1266635Y465245D01*
X1265978Y464262D01*
X1265455Y463201D01*
X1265075Y462081D01*
X1264844Y460920D01*
X1264767Y459740D01*
X1264844Y458560D01*
X1265075Y457399D01*
X1265455Y456279D01*
X1265978Y455218D01*
X1266635Y454235D01*
X1267415Y453345D01*
X1268305Y452565D01*
X1269288Y451908D01*
X1270349Y451385D01*
X1271469Y451005D01*
X1272630Y450774D01*
X1273810Y450697D01*
X1274990Y450774D01*
X1276151Y451005D01*
X1277271Y451385D01*
X1278332Y451908D01*
X1279315Y452565D01*
X1280205Y453345D01*
X1280985Y454235D01*
X1281642Y455218D01*
X1282165Y456279D01*
X1282545Y457399D01*
X1282776Y458560D01*
X1282853Y459740D01*
X1282776Y460920D01*
X1282545Y462081D01*
X1282165Y463201D01*
X1281642Y464262D01*
X1280985Y465245D01*
X1280205Y466135D01*
X1279355Y466879D01*
X1279352Y467019D01*
X1279753Y468149D01*
X1293267D01*
X1293668Y467019D01*
X1293665Y466879D01*
X1292815Y466135D01*
X1292035Y465245D01*
X1291378Y464262D01*
X1290855Y463201D01*
X1290475Y462081D01*
X1290244Y460920D01*
X1290167Y459740D01*
X1290244Y458560D01*
X1290475Y457399D01*
X1290855Y456279D01*
X1291378Y455218D01*
X1292035Y454235D01*
X1292815Y453345D01*
X1293705Y452565D01*
X1294688Y451908D01*
X1295749Y451385D01*
X1296869Y451005D01*
X1298030Y450774D01*
X1299210Y450697D01*
X1300390Y450774D01*
X1301551Y451005D01*
X1302671Y451385D01*
X1303732Y451908D01*
X1304715Y452565D01*
X1305605Y453345D01*
X1306385Y454235D01*
X1307042Y455218D01*
X1307565Y456279D01*
X1307945Y457399D01*
X1308176Y458560D01*
X1308253Y459740D01*
X1308176Y460920D01*
X1307945Y462081D01*
X1307565Y463201D01*
X1307042Y464262D01*
X1306385Y465245D01*
X1305605Y466135D01*
X1304755Y466879D01*
X1304752Y467019D01*
X1305153Y468149D01*
X1318667D01*
X1319068Y467019D01*
D02*
G37*
G36*
X1396246Y950168D02*
X1396246Y448320D01*
X1387592Y439666D01*
X1312263D01*
X1311777Y440839D01*
X1322025Y451088D01*
X1322269Y451005D01*
X1323430Y450774D01*
X1324610Y450697D01*
X1325790Y450774D01*
X1326951Y451005D01*
X1328071Y451385D01*
X1329132Y451908D01*
X1330115Y452565D01*
X1331005Y453345D01*
X1331785Y454235D01*
X1332442Y455218D01*
X1332965Y456279D01*
X1333345Y457399D01*
X1333576Y458560D01*
X1333653Y459740D01*
X1333576Y460920D01*
X1333345Y462081D01*
X1332965Y463201D01*
X1332442Y464262D01*
X1331785Y465245D01*
X1331005Y466135D01*
X1330155Y466879D01*
X1330152Y467019D01*
X1330553Y468149D01*
X1335533D01*
X1340973Y462709D01*
Y452240D01*
X1341025Y451842D01*
X1341179Y451471D01*
X1341423Y451153D01*
X1341741Y450909D01*
X1342112Y450755D01*
X1342510Y450703D01*
X1357510D01*
X1357908Y450755D01*
X1358279Y450909D01*
X1358597Y451153D01*
X1358841Y451471D01*
X1358995Y451842D01*
X1359047Y452240D01*
Y467240D01*
X1358995Y467638D01*
X1358841Y468009D01*
X1358597Y468327D01*
X1358279Y468571D01*
X1357908Y468725D01*
X1357510Y468777D01*
X1347041D01*
X1340344Y475474D01*
X1339694Y476007D01*
X1338952Y476404D01*
X1338147Y476648D01*
X1337310Y476731D01*
X1337310Y476731D01*
X1330553D01*
X1330152Y477861D01*
X1330155Y478001D01*
X1331005Y478745D01*
X1331785Y479635D01*
X1332442Y480618D01*
X1332965Y481679D01*
X1333345Y482799D01*
X1333576Y483960D01*
X1333653Y485140D01*
X1333576Y486320D01*
X1333345Y487481D01*
X1332965Y488601D01*
X1332442Y489662D01*
X1331785Y490645D01*
X1331005Y491535D01*
X1330115Y492315D01*
X1329132Y492972D01*
X1328071Y493495D01*
X1326951Y493875D01*
X1325790Y494106D01*
X1324610Y494183D01*
X1323430Y494106D01*
X1322269Y493875D01*
X1321149Y493495D01*
X1320088Y492972D01*
X1319105Y492315D01*
X1318215Y491535D01*
X1317435Y490645D01*
X1316778Y489662D01*
X1316255Y488601D01*
X1315875Y487481D01*
X1315644Y486320D01*
X1315567Y485140D01*
X1315644Y483960D01*
X1315875Y482799D01*
X1316255Y481679D01*
X1316778Y480618D01*
X1317435Y479635D01*
X1318215Y478745D01*
X1319065Y478001D01*
X1319068Y477861D01*
X1318667Y476731D01*
X1305153D01*
X1304752Y477861D01*
X1304755Y478001D01*
X1305605Y478745D01*
X1306385Y479635D01*
X1307042Y480618D01*
X1307565Y481679D01*
X1307945Y482799D01*
X1308176Y483960D01*
X1308253Y485140D01*
X1308176Y486320D01*
X1307945Y487481D01*
X1307565Y488601D01*
X1307042Y489662D01*
X1306385Y490645D01*
X1305605Y491535D01*
X1304715Y492315D01*
X1303732Y492972D01*
X1302671Y493495D01*
X1301551Y493875D01*
X1300390Y494106D01*
X1299210Y494183D01*
X1298030Y494106D01*
X1296869Y493875D01*
X1295749Y493495D01*
X1294688Y492972D01*
X1293705Y492315D01*
X1292815Y491535D01*
X1292035Y490645D01*
X1291378Y489662D01*
X1290855Y488601D01*
X1290475Y487481D01*
X1290244Y486320D01*
X1290167Y485140D01*
X1290244Y483960D01*
X1290475Y482799D01*
X1290855Y481679D01*
X1291378Y480618D01*
X1292035Y479635D01*
X1292815Y478745D01*
X1293665Y478001D01*
X1293668Y477861D01*
X1293267Y476731D01*
X1279753D01*
X1279352Y477861D01*
X1279355Y478001D01*
X1280205Y478745D01*
X1280985Y479635D01*
X1281642Y480618D01*
X1282165Y481679D01*
X1282545Y482799D01*
X1282776Y483960D01*
X1282853Y485140D01*
X1282776Y486320D01*
X1282545Y487481D01*
X1282165Y488601D01*
X1281642Y489662D01*
X1280985Y490645D01*
X1280205Y491535D01*
X1279315Y492315D01*
X1278332Y492972D01*
X1277271Y493495D01*
X1276151Y493875D01*
X1274990Y494106D01*
X1273810Y494183D01*
X1272630Y494106D01*
X1271469Y493875D01*
X1270349Y493495D01*
X1269288Y492972D01*
X1268305Y492315D01*
X1267415Y491535D01*
X1266635Y490645D01*
X1265978Y489662D01*
X1265455Y488601D01*
X1265075Y487481D01*
X1264844Y486320D01*
X1264767Y485140D01*
X1264844Y483960D01*
X1265075Y482799D01*
X1265455Y481679D01*
X1265978Y480618D01*
X1266635Y479635D01*
X1267415Y478745D01*
X1268265Y478001D01*
X1268268Y477861D01*
X1267867Y476731D01*
X1254353D01*
X1253952Y477861D01*
X1253955Y478001D01*
X1254805Y478745D01*
X1255585Y479635D01*
X1256242Y480618D01*
X1256765Y481679D01*
X1257145Y482799D01*
X1257376Y483960D01*
X1257453Y485140D01*
X1257376Y486320D01*
X1257145Y487481D01*
X1256765Y488601D01*
X1256242Y489662D01*
X1255585Y490645D01*
X1254805Y491535D01*
X1253915Y492315D01*
X1252932Y492972D01*
X1251871Y493495D01*
X1250751Y493875D01*
X1249590Y494106D01*
X1248410Y494183D01*
X1247230Y494106D01*
X1246069Y493875D01*
X1244949Y493495D01*
X1243888Y492972D01*
X1242905Y492315D01*
X1242015Y491535D01*
X1241235Y490645D01*
X1240578Y489662D01*
X1240055Y488601D01*
X1239675Y487481D01*
X1239444Y486320D01*
X1239367Y485140D01*
X1239444Y483960D01*
X1239675Y482799D01*
X1240055Y481679D01*
X1240578Y480618D01*
X1241235Y479635D01*
X1242015Y478745D01*
X1242865Y478001D01*
X1242868Y477861D01*
X1242467Y476731D01*
X1228953D01*
X1228552Y477861D01*
X1228555Y478001D01*
X1229405Y478745D01*
X1230185Y479635D01*
X1230842Y480618D01*
X1231365Y481679D01*
X1231745Y482799D01*
X1231976Y483960D01*
X1232053Y485140D01*
X1231976Y486320D01*
X1231745Y487481D01*
X1231365Y488601D01*
X1230842Y489662D01*
X1230185Y490645D01*
X1229405Y491535D01*
X1228515Y492315D01*
X1227532Y492972D01*
X1226471Y493495D01*
X1225351Y493875D01*
X1224190Y494106D01*
X1223010Y494183D01*
X1221830Y494106D01*
X1220669Y493875D01*
X1219549Y493495D01*
X1218488Y492972D01*
X1217505Y492315D01*
X1216615Y491535D01*
X1215835Y490645D01*
X1215178Y489662D01*
X1214655Y488601D01*
X1214275Y487481D01*
X1214044Y486320D01*
X1213967Y485140D01*
X1214044Y483960D01*
X1214275Y482799D01*
X1214655Y481679D01*
X1215178Y480618D01*
X1215835Y479635D01*
X1216615Y478745D01*
X1217465Y478001D01*
X1217468Y477861D01*
X1217067Y476731D01*
X1182357D01*
X1182156Y476819D01*
X1181247Y477640D01*
Y492640D01*
X1181195Y493038D01*
X1181041Y493409D01*
X1180797Y493727D01*
X1180479Y493971D01*
X1180108Y494125D01*
X1179710Y494177D01*
X1164710D01*
X1164312Y494125D01*
X1163941Y493971D01*
X1163623Y493727D01*
X1163379Y493409D01*
X1163225Y493038D01*
X1163173Y492640D01*
Y477640D01*
X1162264Y476819D01*
X1162063Y476731D01*
X1152753D01*
X1152352Y477861D01*
X1152355Y478001D01*
X1153205Y478745D01*
X1153985Y479635D01*
X1154642Y480618D01*
X1155165Y481679D01*
X1155545Y482799D01*
X1155776Y483960D01*
X1155853Y485140D01*
X1155776Y486320D01*
X1155545Y487481D01*
X1155165Y488601D01*
X1154642Y489662D01*
X1153985Y490645D01*
X1153205Y491535D01*
X1152315Y492315D01*
X1151332Y492972D01*
X1150271Y493495D01*
X1149151Y493875D01*
X1147990Y494106D01*
X1146810Y494183D01*
X1145630Y494106D01*
X1144469Y493875D01*
X1143349Y493495D01*
X1142288Y492972D01*
X1141305Y492315D01*
X1140415Y491535D01*
X1139635Y490645D01*
X1138978Y489662D01*
X1138455Y488601D01*
X1138075Y487481D01*
X1137844Y486320D01*
X1137767Y485140D01*
X1137844Y483960D01*
X1138075Y482799D01*
X1138455Y481679D01*
X1138978Y480618D01*
X1139635Y479635D01*
X1140415Y478745D01*
X1141265Y478001D01*
X1141268Y477861D01*
X1140867Y476731D01*
X1127353D01*
X1126952Y477861D01*
X1126955Y478001D01*
X1127805Y478745D01*
X1128585Y479635D01*
X1129242Y480618D01*
X1129765Y481679D01*
X1130145Y482799D01*
X1130376Y483960D01*
X1130453Y485140D01*
X1130376Y486320D01*
X1130145Y487481D01*
X1129765Y488601D01*
X1129242Y489662D01*
X1128585Y490645D01*
X1127805Y491535D01*
X1126915Y492315D01*
X1125932Y492972D01*
X1124871Y493495D01*
X1123751Y493875D01*
X1122590Y494106D01*
X1121410Y494183D01*
X1120230Y494106D01*
X1119069Y493875D01*
X1117949Y493495D01*
X1116888Y492972D01*
X1115905Y492315D01*
X1115015Y491535D01*
X1114235Y490645D01*
X1113578Y489662D01*
X1113055Y488601D01*
X1112675Y487481D01*
X1112444Y486320D01*
X1112367Y485140D01*
X1112444Y483960D01*
X1112675Y482799D01*
X1113055Y481679D01*
X1113578Y480618D01*
X1114235Y479635D01*
X1115015Y478745D01*
X1115865Y478001D01*
X1115868Y477861D01*
X1115467Y476731D01*
X1101953D01*
X1101552Y477861D01*
X1101555Y478001D01*
X1102405Y478745D01*
X1103185Y479635D01*
X1103842Y480618D01*
X1104365Y481679D01*
X1104745Y482799D01*
X1104976Y483960D01*
X1105053Y485140D01*
X1104976Y486320D01*
X1104745Y487481D01*
X1104365Y488601D01*
X1103842Y489662D01*
X1103185Y490645D01*
X1102405Y491535D01*
X1101515Y492315D01*
X1100532Y492972D01*
X1099471Y493495D01*
X1098351Y493875D01*
X1097190Y494106D01*
X1096010Y494183D01*
X1094830Y494106D01*
X1093669Y493875D01*
X1092549Y493495D01*
X1091488Y492972D01*
X1090505Y492315D01*
X1089615Y491535D01*
X1088835Y490645D01*
X1088178Y489662D01*
X1087655Y488601D01*
X1087275Y487481D01*
X1087044Y486320D01*
X1086967Y485140D01*
X1087044Y483960D01*
X1087275Y482799D01*
X1087655Y481679D01*
X1088178Y480618D01*
X1088835Y479635D01*
X1089615Y478745D01*
X1090465Y478001D01*
X1090468Y477861D01*
X1090067Y476731D01*
X1058298D01*
X934370Y600659D01*
X934762Y602059D01*
X935907Y602534D01*
X936964Y603181D01*
X937906Y603986D01*
X938711Y604929D01*
X939359Y605985D01*
X939833Y607130D01*
X940123Y608335D01*
X940220Y609571D01*
X940123Y610807D01*
X939833Y612012D01*
X939359Y613157D01*
X938711Y614214D01*
X938388Y614592D01*
Y632629D01*
X939901Y634142D01*
X941126Y633852D01*
X941277Y633733D01*
X941355Y633344D01*
X941729Y632241D01*
X942244Y631196D01*
X942892Y630227D01*
X943660Y629351D01*
X944537Y628582D01*
X945505Y627935D01*
X946551Y627419D01*
X947654Y627045D01*
X948690Y626839D01*
Y635650D01*
Y644462D01*
X947654Y644256D01*
X946551Y643881D01*
X945505Y643366D01*
X944537Y642718D01*
X943660Y641950D01*
X942933Y641121D01*
X942718Y641101D01*
X941509Y641290D01*
X941395Y641564D01*
X940898Y642376D01*
X940280Y643100D01*
X940280Y643100D01*
X922240Y661139D01*
X922201Y661636D01*
X921912Y662841D01*
X921438Y663986D01*
X920790Y665042D01*
X919985Y665985D01*
X919043Y666790D01*
X917986Y667438D01*
X916841Y667912D01*
X915636Y668201D01*
X914400Y668298D01*
X913164Y668201D01*
X911959Y667912D01*
X910814Y667438D01*
X909758Y666790D01*
X908815Y665985D01*
X908010Y665042D01*
X907363Y663986D01*
X906888Y662841D01*
X906599Y661636D01*
X906502Y660400D01*
X906599Y659164D01*
X906888Y657959D01*
X907363Y656814D01*
X908010Y655758D01*
X908815Y654815D01*
X909758Y654010D01*
X910814Y653363D01*
X911959Y652888D01*
X913164Y652599D01*
X913661Y652560D01*
X927459Y638761D01*
X927413Y638707D01*
X926916Y637896D01*
X926552Y637016D01*
X926329Y636091D01*
X926255Y635141D01*
X926255Y635141D01*
Y614592D01*
X925932Y614214D01*
X925284Y613157D01*
X924971Y612401D01*
X923636Y611940D01*
X906432Y629144D01*
X905782Y629678D01*
X905040Y630074D01*
X904235Y630318D01*
X903398Y630401D01*
X903398Y630401D01*
X775428D01*
X774944Y631383D01*
X774177Y632530D01*
X773268Y633568D01*
X772230Y634477D01*
X771083Y635244D01*
X769846Y635854D01*
X768540Y636297D01*
X767187Y636566D01*
X765810Y636657D01*
X764433Y636566D01*
X763080Y636297D01*
X761774Y635854D01*
X760537Y635244D01*
X759390Y634477D01*
X758353Y633568D01*
X757443Y632530D01*
X756676Y631383D01*
X756066Y630146D01*
X755623Y628840D01*
X755354Y627487D01*
X755263Y626110D01*
X755354Y624733D01*
X755623Y623380D01*
X756066Y622074D01*
X756676Y620837D01*
X757443Y619690D01*
X758353Y618652D01*
X759390Y617743D01*
X760537Y616976D01*
X761774Y616366D01*
X763080Y615923D01*
X764433Y615654D01*
X765810Y615563D01*
X767187Y615654D01*
X768540Y615923D01*
X769846Y616366D01*
X771083Y616976D01*
X772230Y617743D01*
X773268Y618652D01*
X774177Y619690D01*
X774944Y620837D01*
X775428Y621819D01*
X901621D01*
X917266Y606174D01*
X916780Y605001D01*
X776347D01*
Y609710D01*
X776295Y610108D01*
X776141Y610479D01*
X775897Y610797D01*
X775579Y611041D01*
X775208Y611195D01*
X774810Y611247D01*
X756810D01*
X756412Y611195D01*
X756041Y611041D01*
X755723Y610797D01*
X755479Y610479D01*
X755325Y610108D01*
X755273Y609710D01*
Y591710D01*
X755325Y591312D01*
X755479Y590941D01*
X755723Y590623D01*
X756041Y590379D01*
X756412Y590225D01*
X756810Y590173D01*
X774810D01*
X775208Y590225D01*
X775579Y590379D01*
X775897Y590623D01*
X776141Y590941D01*
X776295Y591312D01*
X776347Y591710D01*
Y596419D01*
X917583D01*
X995095Y518907D01*
X994285Y517921D01*
X993785Y518256D01*
X992739Y518771D01*
X991636Y519146D01*
X990600Y519352D01*
Y511810D01*
X998141D01*
X997935Y512846D01*
X997561Y513949D01*
X997046Y514995D01*
X996711Y515495D01*
X997697Y516305D01*
X1044024Y469978D01*
X1044025Y469664D01*
X1043588Y468618D01*
X1042869Y468475D01*
X1041749Y468095D01*
X1040688Y467572D01*
X1039705Y466915D01*
X1038815Y466135D01*
X1038035Y465245D01*
X1037378Y464262D01*
X1036855Y463201D01*
X1036475Y462081D01*
X1036244Y460920D01*
X1036167Y459740D01*
X1036244Y458560D01*
X1036475Y457399D01*
X1036855Y456279D01*
X1037378Y455218D01*
X1038035Y454235D01*
X1038815Y453345D01*
X1039705Y452565D01*
X1040688Y451908D01*
X1041749Y451385D01*
X1042869Y451005D01*
X1044030Y450774D01*
X1045210Y450697D01*
X1046390Y450774D01*
X1047551Y451005D01*
X1048671Y451385D01*
X1049732Y451908D01*
X1050715Y452565D01*
X1051605Y453345D01*
X1052385Y454235D01*
X1053042Y455218D01*
X1053565Y456279D01*
X1053945Y457399D01*
X1054088Y458118D01*
X1055135Y458555D01*
X1055448Y458554D01*
X1057296Y456706D01*
X1057296Y456706D01*
X1057946Y456172D01*
X1058688Y455776D01*
X1059493Y455532D01*
X1060330Y455449D01*
X1062664D01*
X1062778Y455218D01*
X1063435Y454235D01*
X1064215Y453345D01*
X1065105Y452565D01*
X1066088Y451908D01*
X1067149Y451385D01*
X1068269Y451005D01*
X1069430Y450774D01*
X1070610Y450697D01*
X1071790Y450774D01*
X1072951Y451005D01*
X1073195Y451088D01*
X1077764Y446518D01*
X1077278Y445345D01*
X981599D01*
X924548Y502396D01*
X924276Y502906D01*
X923710Y503594D01*
X923022Y504160D01*
X922236Y504580D01*
X921383Y504838D01*
X920496Y504926D01*
X919609Y504838D01*
X918756Y504580D01*
X917970Y504160D01*
X917282Y503594D01*
X916716Y502906D01*
X916296Y502120D01*
X916038Y501267D01*
X915950Y500380D01*
X916038Y499493D01*
X916296Y498640D01*
X916716Y497854D01*
X917282Y497166D01*
X917970Y496600D01*
X918481Y496328D01*
X973969Y440839D01*
X973483Y439666D01*
X727450D01*
X719447Y447668D01*
Y956656D01*
X726145Y963354D01*
X1149656D01*
X1150110Y962084D01*
X1149899Y961910D01*
X1149899Y961910D01*
X1145808Y957820D01*
X1145275Y957170D01*
X1144878Y956428D01*
X1144634Y955623D01*
X1144551Y954786D01*
X1144551Y954786D01*
Y889507D01*
X1097045Y842001D01*
X1095786Y842538D01*
X1095770Y843390D01*
X1096050Y843717D01*
X1096697Y844774D01*
X1097172Y845919D01*
X1097461Y847124D01*
X1097558Y848360D01*
X1097461Y849596D01*
X1097172Y850801D01*
X1096697Y851946D01*
X1096050Y853002D01*
X1095245Y853945D01*
X1094303Y854750D01*
X1093246Y855397D01*
X1092101Y855872D01*
X1090896Y856161D01*
X1089660Y856258D01*
X1088424Y856161D01*
X1087219Y855872D01*
X1086074Y855397D01*
X1085017Y854750D01*
X1084075Y853945D01*
X1083270Y853002D01*
X1082623Y851946D01*
X1082148Y850801D01*
X1081859Y849596D01*
X1081762Y848360D01*
X1081859Y847124D01*
X1082148Y845919D01*
X1082443Y845207D01*
X1041354Y804117D01*
X1040202Y804762D01*
X1040311Y805214D01*
X1040382Y806116D01*
X1040455Y806236D01*
X1040820Y807115D01*
X1041042Y808041D01*
X1041117Y808990D01*
Y853780D01*
X1041827Y854590D01*
X1042448Y855519D01*
X1042942Y856521D01*
X1043301Y857579D01*
X1043519Y858675D01*
X1043592Y859790D01*
X1043519Y860905D01*
X1043301Y862001D01*
X1042942Y863059D01*
X1042448Y864061D01*
X1041827Y864990D01*
X1041090Y865830D01*
X1040250Y866567D01*
X1039321Y867188D01*
X1038319Y867682D01*
X1037261Y868041D01*
X1036165Y868259D01*
X1035050Y868332D01*
X1033935Y868259D01*
X1032839Y868041D01*
X1031781Y867682D01*
X1030779Y867188D01*
X1029850Y866567D01*
X1029010Y865830D01*
X1028273Y864990D01*
X1027652Y864061D01*
X1027158Y863059D01*
X1026799Y862001D01*
X1026581Y860905D01*
X1026508Y859790D01*
X1026581Y858675D01*
X1026799Y857579D01*
X1027158Y856521D01*
X1027652Y855519D01*
X1028273Y854590D01*
X1028983Y853780D01*
Y813512D01*
X1028924Y813487D01*
X1027868Y812840D01*
X1026925Y812035D01*
X1026120Y811093D01*
X1025472Y810036D01*
X1024998Y808891D01*
X1024709Y807686D01*
X1024612Y806450D01*
X1024709Y805214D01*
X1024998Y804009D01*
X1025472Y802864D01*
X1026120Y801807D01*
X1026925Y800865D01*
X1027868Y800060D01*
X1028924Y799413D01*
X1030069Y798938D01*
X1031274Y798649D01*
X1031687Y798616D01*
X1032364Y797289D01*
X1032176Y796982D01*
X1031702Y795837D01*
X1031412Y794632D01*
X1031315Y793397D01*
X1031412Y792161D01*
X1031702Y790956D01*
X1032176Y789811D01*
X1032823Y788754D01*
X1033628Y787812D01*
X1034035Y787464D01*
X1034068Y787034D01*
X1033773Y786032D01*
X1032988Y785707D01*
X1031932Y785060D01*
X1030989Y784255D01*
X1030184Y783313D01*
X1029537Y782256D01*
X1029062Y781111D01*
X1028773Y779906D01*
X1028676Y778670D01*
X1028773Y777434D01*
X1029062Y776229D01*
X1029537Y775084D01*
X1030184Y774027D01*
X1030989Y773085D01*
X1031932Y772280D01*
X1032988Y771633D01*
X1034133Y771158D01*
X1035338Y770869D01*
X1036574Y770772D01*
X1037810Y770869D01*
X1039015Y771158D01*
X1040160Y771633D01*
X1041217Y772280D01*
X1042159Y773085D01*
X1042964Y774027D01*
X1043179Y774379D01*
X1059345D01*
X1059346Y774379D01*
X1060183Y774462D01*
X1060988Y774706D01*
X1061729Y775102D01*
X1062380Y775636D01*
X1187533Y900790D01*
X1187534Y900790D01*
X1188067Y901440D01*
X1188464Y902182D01*
X1188708Y902987D01*
X1188790Y903824D01*
X1188790Y903824D01*
Y911611D01*
X1190060Y911996D01*
X1190435Y911435D01*
X1191215Y910545D01*
X1192105Y909765D01*
X1193088Y909108D01*
X1194149Y908585D01*
X1195269Y908205D01*
X1196430Y907974D01*
X1197610Y907897D01*
X1198790Y907974D01*
X1199951Y908205D01*
X1201071Y908585D01*
X1202132Y909108D01*
X1203115Y909765D01*
X1204005Y910545D01*
X1204785Y911435D01*
X1205442Y912418D01*
X1205555Y912648D01*
X1206825Y912352D01*
Y909617D01*
X1064274Y767066D01*
X1063740Y766416D01*
X1063344Y765674D01*
X1063100Y764869D01*
X1063017Y764032D01*
X1063017Y764032D01*
Y624841D01*
X1062665Y624626D01*
X1061723Y623821D01*
X1060918Y622878D01*
X1060270Y621822D01*
X1059796Y620677D01*
X1059507Y619472D01*
X1059410Y618236D01*
X1059507Y617000D01*
X1059796Y615795D01*
X1060270Y614650D01*
X1060918Y613593D01*
X1061723Y612651D01*
X1062665Y611846D01*
X1063722Y611199D01*
X1064867Y610724D01*
X1066072Y610435D01*
X1067308Y610338D01*
X1068544Y610435D01*
X1069749Y610724D01*
X1070894Y611199D01*
X1071951Y611846D01*
X1072893Y612651D01*
X1073698Y613593D01*
X1074345Y614650D01*
X1074820Y615795D01*
X1075109Y617000D01*
X1075206Y618236D01*
X1075109Y619472D01*
X1074820Y620677D01*
X1074345Y621822D01*
X1073698Y622878D01*
X1072893Y623821D01*
X1071951Y624626D01*
X1071599Y624841D01*
Y666973D01*
X1072869Y667642D01*
X1073374Y667333D01*
X1074519Y666858D01*
X1075724Y666569D01*
X1076960Y666472D01*
X1078196Y666569D01*
X1079401Y666858D01*
X1080546Y667333D01*
X1081602Y667980D01*
X1082545Y668785D01*
X1083350Y669727D01*
X1083997Y670784D01*
X1084472Y671929D01*
X1084761Y673134D01*
X1084858Y674370D01*
X1084761Y675606D01*
X1084472Y676811D01*
X1083997Y677956D01*
X1083350Y679013D01*
X1082545Y679955D01*
X1081602Y680760D01*
X1081251Y680975D01*
Y711201D01*
X1146809Y776759D01*
X1151409D01*
Y742950D01*
X1151409Y742950D01*
X1151492Y742113D01*
X1151736Y741308D01*
X1152132Y740566D01*
X1152666Y739916D01*
X1154345Y738237D01*
X1154249Y737836D01*
X1154152Y736600D01*
X1154249Y735364D01*
X1154538Y734159D01*
X1155013Y733014D01*
X1155660Y731957D01*
X1156465Y731015D01*
X1157408Y730210D01*
X1158464Y729563D01*
X1159609Y729088D01*
X1160814Y728799D01*
X1162050Y728702D01*
X1163286Y728799D01*
X1164491Y729088D01*
X1165636Y729563D01*
X1166693Y730210D01*
X1167635Y731015D01*
X1168440Y731957D01*
X1169088Y733014D01*
X1169562Y734159D01*
X1169851Y735364D01*
X1169948Y736600D01*
X1169851Y737836D01*
X1169562Y739041D01*
X1169088Y740186D01*
X1168440Y741243D01*
X1167635Y742185D01*
X1166693Y742990D01*
X1165636Y743637D01*
X1164491Y744112D01*
X1163286Y744401D01*
X1162050Y744498D01*
X1161136Y744426D01*
X1160285Y745074D01*
X1159991Y745448D01*
Y781050D01*
Y816355D01*
X1160342Y816570D01*
X1161285Y817375D01*
X1162090Y818317D01*
X1162738Y819374D01*
X1163212Y820519D01*
X1163501Y821724D01*
X1163598Y822960D01*
X1163501Y824196D01*
X1163212Y825401D01*
X1162738Y826546D01*
X1162090Y827602D01*
X1161285Y828545D01*
X1160342Y829350D01*
X1159286Y829997D01*
X1158141Y830472D01*
X1156936Y830761D01*
X1155700Y830858D01*
X1154464Y830761D01*
X1153259Y830472D01*
X1152114Y829997D01*
X1151058Y829350D01*
X1150115Y828545D01*
X1149310Y827602D01*
X1148662Y826546D01*
X1148188Y825401D01*
X1147899Y824196D01*
X1147802Y822960D01*
X1147899Y821724D01*
X1148188Y820519D01*
X1148662Y819374D01*
X1149310Y818317D01*
X1150115Y817375D01*
X1151058Y816570D01*
X1151409Y816355D01*
Y785341D01*
X1145032D01*
X1144195Y785258D01*
X1143390Y785014D01*
X1142648Y784617D01*
X1141998Y784084D01*
X1141998Y784084D01*
X1073926Y716012D01*
X1073392Y715362D01*
X1072996Y714620D01*
X1072869Y714200D01*
X1071599Y714389D01*
Y762255D01*
X1214150Y904806D01*
X1214683Y905456D01*
X1215080Y906198D01*
X1215324Y907003D01*
X1215406Y907840D01*
X1215406Y907840D01*
Y909998D01*
X1216435Y910464D01*
X1216676Y910492D01*
X1217505Y909765D01*
X1218488Y909108D01*
X1219549Y908585D01*
X1220669Y908205D01*
X1221830Y907974D01*
X1223010Y907897D01*
X1224190Y907974D01*
X1225351Y908205D01*
X1226471Y908585D01*
X1227532Y909108D01*
X1228515Y909765D01*
X1229405Y910545D01*
X1230185Y911435D01*
X1230842Y912418D01*
X1231365Y913479D01*
X1231745Y914599D01*
X1231976Y915760D01*
X1232053Y916940D01*
X1231976Y918120D01*
X1231745Y919281D01*
X1231365Y920401D01*
X1230842Y921462D01*
X1230185Y922445D01*
X1229405Y923335D01*
X1228515Y924115D01*
X1227532Y924772D01*
X1226471Y925295D01*
X1225351Y925675D01*
X1224190Y925906D01*
X1223010Y925983D01*
X1221830Y925906D01*
X1220669Y925675D01*
X1219549Y925295D01*
X1218488Y924772D01*
X1217505Y924115D01*
X1216676Y923388D01*
X1216435Y923416D01*
X1215406Y923882D01*
Y935398D01*
X1216435Y935864D01*
X1216676Y935892D01*
X1217505Y935165D01*
X1218488Y934508D01*
X1219549Y933985D01*
X1220669Y933605D01*
X1221830Y933374D01*
X1223010Y933297D01*
X1224190Y933374D01*
X1225351Y933605D01*
X1225594Y933688D01*
X1233826Y925456D01*
X1233826Y925456D01*
X1234476Y924922D01*
X1235218Y924526D01*
X1236023Y924282D01*
X1236860Y924199D01*
X1241116D01*
X1241660Y922929D01*
X1241235Y922445D01*
X1240578Y921462D01*
X1240055Y920401D01*
X1239675Y919281D01*
X1239444Y918120D01*
X1239367Y916940D01*
X1239444Y915760D01*
X1239675Y914599D01*
X1240055Y913479D01*
X1240578Y912418D01*
X1241235Y911435D01*
X1242015Y910545D01*
X1242905Y909765D01*
X1243888Y909108D01*
X1244949Y908585D01*
X1246069Y908205D01*
X1247230Y907974D01*
X1248410Y907897D01*
X1249590Y907974D01*
X1250751Y908205D01*
X1251871Y908585D01*
X1252932Y909108D01*
X1253915Y909765D01*
X1254805Y910545D01*
X1255585Y911435D01*
X1256242Y912418D01*
X1256765Y913479D01*
X1257145Y914599D01*
X1257376Y915760D01*
X1257453Y916940D01*
X1257376Y918120D01*
X1257145Y919281D01*
X1256765Y920401D01*
X1256242Y921462D01*
X1255585Y922445D01*
X1255160Y922929D01*
X1255704Y924199D01*
X1266516D01*
X1267060Y922929D01*
X1266635Y922445D01*
X1265978Y921462D01*
X1265455Y920401D01*
X1265075Y919281D01*
X1264844Y918120D01*
X1264767Y916940D01*
X1264844Y915760D01*
X1265075Y914599D01*
X1265455Y913479D01*
X1265978Y912418D01*
X1266635Y911435D01*
X1267415Y910545D01*
X1268305Y909765D01*
X1269288Y909108D01*
X1270349Y908585D01*
X1271469Y908205D01*
X1272630Y907974D01*
X1273810Y907897D01*
X1274990Y907974D01*
X1276151Y908205D01*
X1277271Y908585D01*
X1278332Y909108D01*
X1279315Y909765D01*
X1280205Y910545D01*
X1280985Y911435D01*
X1281642Y912418D01*
X1282165Y913479D01*
X1282545Y914599D01*
X1282776Y915760D01*
X1282853Y916940D01*
X1282776Y918120D01*
X1282545Y919281D01*
X1282165Y920401D01*
X1281642Y921462D01*
X1280985Y922445D01*
X1280560Y922929D01*
X1281104Y924199D01*
X1291916D01*
X1292460Y922929D01*
X1292035Y922445D01*
X1291378Y921462D01*
X1290855Y920401D01*
X1290475Y919281D01*
X1290244Y918120D01*
X1290167Y916940D01*
X1290244Y915760D01*
X1290475Y914599D01*
X1290855Y913479D01*
X1291378Y912418D01*
X1292035Y911435D01*
X1292815Y910545D01*
X1293705Y909765D01*
X1294688Y909108D01*
X1295749Y908585D01*
X1296869Y908205D01*
X1298030Y907974D01*
X1299210Y907897D01*
X1300390Y907974D01*
X1301551Y908205D01*
X1302671Y908585D01*
X1303732Y909108D01*
X1304715Y909765D01*
X1305605Y910545D01*
X1306385Y911435D01*
X1307042Y912418D01*
X1307565Y913479D01*
X1307945Y914599D01*
X1308176Y915760D01*
X1308253Y916940D01*
X1308176Y918120D01*
X1307945Y919281D01*
X1307565Y920401D01*
X1307042Y921462D01*
X1306385Y922445D01*
X1305960Y922929D01*
X1306504Y924199D01*
X1310640D01*
X1310640Y924199D01*
X1311477Y924282D01*
X1312282Y924526D01*
X1313024Y924922D01*
X1313674Y925456D01*
X1314944Y926726D01*
X1314944Y926726D01*
X1315477Y927376D01*
X1315874Y928118D01*
X1316118Y928923D01*
X1316201Y929760D01*
X1316201Y929760D01*
Y936397D01*
X1317331Y936798D01*
X1317471Y936795D01*
X1318215Y935945D01*
X1319105Y935165D01*
X1320088Y934508D01*
X1321149Y933985D01*
X1322269Y933605D01*
X1323430Y933374D01*
X1324610Y933297D01*
X1325790Y933374D01*
X1326951Y933605D01*
X1328071Y933985D01*
X1329132Y934508D01*
X1330115Y935165D01*
X1331005Y935945D01*
X1331785Y936835D01*
X1332442Y937818D01*
X1332965Y938879D01*
X1333345Y939999D01*
X1333576Y941160D01*
X1333653Y942340D01*
X1333576Y943520D01*
X1333345Y944681D01*
X1332965Y945801D01*
X1332442Y946862D01*
X1331785Y947845D01*
X1331005Y948735D01*
X1330115Y949515D01*
X1329132Y950172D01*
X1328071Y950695D01*
X1326951Y951075D01*
X1325790Y951306D01*
X1324610Y951383D01*
X1323430Y951306D01*
X1322269Y951075D01*
X1321149Y950695D01*
X1320088Y950172D01*
X1319105Y949515D01*
X1318215Y948735D01*
X1317471Y947885D01*
X1317331Y947882D01*
X1316201Y948283D01*
Y952781D01*
X1354851D01*
X1354941Y952647D01*
X1354262Y951377D01*
X1342510D01*
X1342112Y951325D01*
X1341741Y951171D01*
X1341423Y950927D01*
X1341179Y950609D01*
X1341025Y950238D01*
X1340973Y949840D01*
Y939371D01*
X1334276Y932674D01*
X1333743Y932024D01*
X1333346Y931282D01*
X1333102Y930477D01*
X1333019Y929640D01*
X1333019Y929640D01*
Y922883D01*
X1331889Y922482D01*
X1331749Y922485D01*
X1331005Y923335D01*
X1330115Y924115D01*
X1329132Y924772D01*
X1328071Y925295D01*
X1326951Y925675D01*
X1325790Y925906D01*
X1324610Y925983D01*
X1323430Y925906D01*
X1322269Y925675D01*
X1321149Y925295D01*
X1320088Y924772D01*
X1319105Y924115D01*
X1318215Y923335D01*
X1317435Y922445D01*
X1316778Y921462D01*
X1316255Y920401D01*
X1315875Y919281D01*
X1315644Y918120D01*
X1315567Y916940D01*
X1315644Y915760D01*
X1315875Y914599D01*
X1316255Y913479D01*
X1316778Y912418D01*
X1317435Y911435D01*
X1318215Y910545D01*
X1319105Y909765D01*
X1320088Y909108D01*
X1321149Y908585D01*
X1322269Y908205D01*
X1323430Y907974D01*
X1324610Y907897D01*
X1325790Y907974D01*
X1326951Y908205D01*
X1328071Y908585D01*
X1329132Y909108D01*
X1330115Y909765D01*
X1331005Y910545D01*
X1331749Y911395D01*
X1331889Y911398D01*
X1333019Y910997D01*
Y848613D01*
X1308607Y824201D01*
X1307520Y824895D01*
X1307742Y825821D01*
X1307817Y826770D01*
X1307817Y826770D01*
Y850959D01*
X1308140Y851338D01*
X1308788Y852394D01*
X1309262Y853539D01*
X1309551Y854744D01*
X1309648Y855980D01*
X1309551Y857216D01*
X1309262Y858421D01*
X1308788Y859566D01*
X1308140Y860622D01*
X1307335Y861565D01*
X1306393Y862370D01*
X1305336Y863018D01*
X1304191Y863492D01*
X1302986Y863781D01*
X1301750Y863878D01*
X1300514Y863781D01*
X1299309Y863492D01*
X1298164Y863018D01*
X1297108Y862370D01*
X1296165Y861565D01*
X1295360Y860622D01*
X1294713Y859566D01*
X1294238Y858421D01*
X1293949Y857216D01*
X1293852Y855980D01*
X1293949Y854744D01*
X1294238Y853539D01*
X1294713Y852394D01*
X1295360Y851338D01*
X1295683Y850959D01*
Y829283D01*
X1272453Y806052D01*
X1271018Y806390D01*
X1270690Y807115D01*
X1270912Y808041D01*
X1270987Y808990D01*
Y853780D01*
X1271697Y854590D01*
X1272318Y855519D01*
X1272812Y856521D01*
X1273171Y857579D01*
X1273389Y858675D01*
X1273462Y859790D01*
X1273389Y860905D01*
X1273171Y862001D01*
X1272812Y863059D01*
X1272318Y864061D01*
X1271697Y864990D01*
X1270960Y865830D01*
X1270120Y866567D01*
X1269191Y867188D01*
X1268189Y867682D01*
X1267131Y868041D01*
X1266035Y868259D01*
X1264920Y868332D01*
X1263805Y868259D01*
X1262709Y868041D01*
X1261651Y867682D01*
X1260649Y867188D01*
X1259720Y866567D01*
X1258880Y865830D01*
X1258143Y864990D01*
X1257522Y864061D01*
X1257028Y863059D01*
X1256669Y862001D01*
X1256451Y860905D01*
X1256378Y859790D01*
X1256451Y858675D01*
X1256669Y857579D01*
X1257028Y856521D01*
X1257522Y855519D01*
X1258143Y854590D01*
X1258853Y853780D01*
Y811108D01*
X1258315Y810778D01*
X1257372Y809973D01*
X1256567Y809031D01*
X1255920Y807974D01*
X1255569Y807127D01*
X1254272Y806627D01*
X1250941Y809959D01*
X1250217Y810577D01*
X1249405Y811074D01*
X1248526Y811439D01*
X1247600Y811661D01*
X1246651Y811736D01*
X1246651Y811736D01*
X1210799D01*
X1209850Y811661D01*
X1208924Y811439D01*
X1208045Y811074D01*
X1207233Y810577D01*
X1206509Y809959D01*
X1206509Y809958D01*
X1204152Y807601D01*
X1203677Y807633D01*
X1202788Y808033D01*
X1202582Y808891D01*
X1202107Y810036D01*
X1201460Y811093D01*
X1200655Y812035D01*
X1199713Y812840D01*
X1198656Y813487D01*
X1197511Y813962D01*
X1196306Y814251D01*
X1196057Y814271D01*
Y851253D01*
X1196990D01*
X1197388Y851305D01*
X1197759Y851459D01*
X1198077Y851703D01*
X1198321Y852021D01*
X1198475Y852392D01*
X1198527Y852790D01*
Y866790D01*
X1198475Y867188D01*
X1198321Y867559D01*
X1198077Y867877D01*
X1197759Y868121D01*
X1197388Y868275D01*
X1196990Y868327D01*
X1182990D01*
X1182592Y868275D01*
X1182221Y868121D01*
X1181903Y867877D01*
X1181659Y867559D01*
X1181505Y867188D01*
X1181453Y866790D01*
Y852790D01*
X1181505Y852392D01*
X1181659Y852021D01*
X1181903Y851703D01*
X1182221Y851459D01*
X1182592Y851305D01*
X1182990Y851253D01*
X1183923D01*
Y807720D01*
X1183923Y807720D01*
X1183998Y806771D01*
X1184220Y805845D01*
X1184585Y804966D01*
X1184830Y804565D01*
X1184246Y803418D01*
X1184161Y803344D01*
X1182926Y803246D01*
X1181721Y802957D01*
X1180576Y802483D01*
X1179519Y801835D01*
X1178577Y801030D01*
X1177772Y800088D01*
X1177124Y799031D01*
X1176650Y797886D01*
X1176360Y796681D01*
X1176263Y795445D01*
X1176360Y794210D01*
X1176650Y793005D01*
X1177124Y791860D01*
X1177772Y790803D01*
X1178577Y789860D01*
X1179519Y789055D01*
X1180576Y788408D01*
X1181721Y787934D01*
X1182926Y787644D01*
X1184162Y787547D01*
X1185397Y787644D01*
X1186602Y787934D01*
X1187747Y788408D01*
X1188804Y789055D01*
X1189182Y789379D01*
X1200837D01*
X1200837Y789379D01*
X1200838Y789379D01*
X1201094Y789399D01*
X1201786Y789453D01*
X1201787Y789453D01*
X1201787Y789453D01*
X1202221Y789557D01*
X1202712Y789675D01*
X1202712Y789675D01*
X1202713Y789676D01*
X1203097Y789835D01*
X1203592Y790040D01*
X1203592Y790040D01*
X1203592Y790040D01*
X1203874Y790212D01*
X1204403Y790537D01*
X1204404Y790537D01*
X1204404Y790537D01*
X1204757Y790839D01*
X1205127Y791155D01*
X1205127Y791155D01*
X1205128Y791155D01*
X1205387Y791459D01*
X1205746Y791879D01*
X1205746Y791879D01*
X1205746Y791879D01*
X1205995Y792285D01*
X1209228Y795518D01*
X1210304Y794799D01*
X1210105Y794317D01*
X1209997Y793870D01*
X1214120D01*
Y797992D01*
X1213673Y797885D01*
X1213380Y797764D01*
X1212727Y798868D01*
X1213327Y799602D01*
X1244138D01*
X1246629Y797111D01*
X1246630Y797110D01*
X1247127Y796298D01*
X1247746Y795574D01*
X1254144Y789176D01*
X1254867Y788558D01*
X1255679Y788061D01*
X1255680Y788060D01*
X1257376Y786365D01*
X1257408Y786229D01*
X1257883Y785084D01*
X1258530Y784027D01*
X1259335Y783085D01*
X1260277Y782280D01*
X1261334Y781633D01*
X1262479Y781158D01*
X1263519Y780909D01*
X1263782Y780438D01*
X1263978Y779572D01*
X1079613Y595207D01*
X1079212Y595303D01*
X1077976Y595400D01*
X1076740Y595303D01*
X1075535Y595014D01*
X1074390Y594539D01*
X1073334Y593892D01*
X1072391Y593087D01*
X1071586Y592145D01*
X1070938Y591088D01*
X1070464Y589943D01*
X1070175Y588738D01*
X1070078Y587502D01*
X1070175Y586266D01*
X1070464Y585061D01*
X1070938Y583916D01*
X1071586Y582859D01*
X1072391Y581917D01*
X1073334Y581112D01*
X1074390Y580465D01*
X1075254Y580107D01*
X1075001Y578837D01*
X1073123D01*
X1050510Y601449D01*
X1050471Y601946D01*
X1050182Y603151D01*
X1049707Y604296D01*
X1049060Y605353D01*
X1048255Y606295D01*
X1047312Y607100D01*
X1046256Y607747D01*
X1045111Y608222D01*
X1043906Y608511D01*
X1042824Y608596D01*
X1042487Y608990D01*
X1042087Y609824D01*
X1042562Y610969D01*
X1042851Y612174D01*
X1042922Y613076D01*
X1042996Y613196D01*
X1043360Y614075D01*
X1043582Y615001D01*
X1043657Y615950D01*
Y660740D01*
X1044367Y661550D01*
X1044988Y662479D01*
X1045482Y663481D01*
X1045841Y664539D01*
X1046059Y665635D01*
X1046132Y666750D01*
X1046059Y667865D01*
X1045841Y668961D01*
X1045482Y670019D01*
X1044988Y671021D01*
X1044367Y671950D01*
X1043630Y672790D01*
X1042790Y673527D01*
X1041861Y674148D01*
X1040859Y674642D01*
X1039801Y675001D01*
X1038705Y675219D01*
X1037590Y675292D01*
X1036475Y675219D01*
X1035379Y675001D01*
X1034321Y674642D01*
X1033319Y674148D01*
X1032390Y673527D01*
X1031550Y672790D01*
X1030813Y671950D01*
X1030192Y671021D01*
X1029698Y670019D01*
X1029339Y668961D01*
X1029121Y667865D01*
X1029048Y666750D01*
X1029121Y665635D01*
X1029339Y664539D01*
X1029698Y663481D01*
X1030192Y662479D01*
X1030813Y661550D01*
X1031523Y660740D01*
Y620472D01*
X1031464Y620448D01*
X1030407Y619800D01*
X1029465Y618995D01*
X1028660Y618052D01*
X1028012Y616996D01*
X1027538Y615851D01*
X1027249Y614646D01*
X1027152Y613410D01*
X1027249Y612174D01*
X1027538Y610969D01*
X1028012Y609824D01*
X1028660Y608768D01*
X1029465Y607825D01*
X1030407Y607020D01*
X1031464Y606372D01*
X1032609Y605898D01*
X1033814Y605609D01*
X1034895Y605524D01*
X1035233Y605130D01*
X1035632Y604296D01*
X1035158Y603151D01*
X1034869Y601946D01*
X1034772Y600710D01*
X1034869Y599474D01*
X1035158Y598269D01*
X1035632Y597124D01*
X1036280Y596068D01*
X1037085Y595125D01*
X1038027Y594320D01*
X1039084Y593672D01*
X1040229Y593198D01*
X1041434Y592909D01*
X1041931Y592870D01*
X1066320Y568480D01*
X1067044Y567862D01*
X1067856Y567365D01*
X1068735Y567000D01*
X1069661Y566778D01*
X1070610Y566703D01*
X1070610Y566703D01*
X1130300D01*
X1130300Y566703D01*
X1131249Y566778D01*
X1132175Y567000D01*
X1133054Y567365D01*
X1133866Y567862D01*
X1134590Y568480D01*
X1137130Y571020D01*
X1137130Y571020D01*
X1137748Y571744D01*
X1138245Y572556D01*
X1138610Y573435D01*
X1138832Y574361D01*
X1138907Y575310D01*
Y602263D01*
X1177771D01*
X1179320Y600714D01*
X1179359Y600218D01*
X1179648Y599013D01*
X1180123Y597868D01*
X1180770Y596811D01*
X1181575Y595868D01*
X1182517Y595064D01*
X1183574Y594416D01*
X1184719Y593942D01*
X1185925Y593652D01*
X1187160Y593555D01*
X1188396Y593652D01*
X1189601Y593942D01*
X1190746Y594416D01*
X1191803Y595064D01*
X1192745Y595868D01*
X1193550Y596811D01*
X1194198Y597868D01*
X1194672Y599013D01*
X1194961Y600218D01*
X1195058Y601453D01*
X1194961Y602689D01*
X1194672Y603894D01*
X1194198Y605039D01*
X1193550Y606096D01*
X1193104Y606619D01*
X1193535Y607877D01*
X1193599Y607946D01*
X1193960Y607983D01*
X1194417Y607593D01*
X1195474Y606945D01*
X1196619Y606471D01*
X1197824Y606181D01*
X1199059Y606084D01*
X1200295Y606181D01*
X1201500Y606471D01*
X1202645Y606945D01*
X1203702Y607593D01*
X1204644Y608397D01*
X1205449Y609340D01*
X1206097Y610397D01*
X1206571Y611542D01*
X1206861Y612747D01*
X1206958Y613983D01*
X1206861Y615218D01*
X1206571Y616423D01*
X1206097Y617568D01*
X1205449Y618625D01*
X1204644Y619567D01*
X1203702Y620372D01*
X1202645Y621020D01*
X1201500Y621494D01*
X1200295Y621784D01*
X1199059Y621881D01*
X1198597Y622309D01*
Y658213D01*
X1199530D01*
X1199928Y658265D01*
X1200299Y658419D01*
X1200617Y658663D01*
X1200861Y658981D01*
X1201015Y659352D01*
X1201067Y659750D01*
Y673750D01*
X1201015Y674148D01*
X1200861Y674519D01*
X1200617Y674837D01*
X1200299Y675081D01*
X1199928Y675235D01*
X1199530Y675287D01*
X1185530D01*
X1185132Y675235D01*
X1184761Y675081D01*
X1184443Y674837D01*
X1184199Y674519D01*
X1184045Y674148D01*
X1183993Y673750D01*
Y659750D01*
X1184045Y659352D01*
X1184199Y658981D01*
X1184443Y658663D01*
X1184761Y658419D01*
X1185132Y658265D01*
X1185530Y658213D01*
X1186463D01*
Y614680D01*
X1186538Y613731D01*
X1186760Y612805D01*
X1187124Y611926D01*
X1187221Y611768D01*
X1186217Y610976D01*
X1184573Y612620D01*
X1183849Y613238D01*
X1183038Y613736D01*
X1182158Y614100D01*
X1181233Y614322D01*
X1180284Y614397D01*
X1180283Y614397D01*
X1155776D01*
X1155235Y615439D01*
X1155188Y615667D01*
X1155796Y616575D01*
X1156311Y617621D01*
X1156685Y618724D01*
X1156891Y619760D01*
X1139268D01*
X1139474Y618724D01*
X1139849Y617621D01*
X1140365Y616575D01*
X1140972Y615667D01*
X1140925Y615439D01*
X1140384Y614397D01*
X1125161D01*
X1124782Y614720D01*
X1123726Y615368D01*
X1122581Y615842D01*
X1121376Y616131D01*
X1120140Y616228D01*
X1118904Y616131D01*
X1117699Y615842D01*
X1116554Y615368D01*
X1115498Y614720D01*
X1114555Y613915D01*
X1113750Y612972D01*
X1113102Y611916D01*
X1112628Y610771D01*
X1112339Y609566D01*
X1112242Y608330D01*
X1112339Y607094D01*
X1112628Y605889D01*
X1113102Y604744D01*
X1113750Y603688D01*
X1114555Y602745D01*
X1115498Y601940D01*
X1116554Y601292D01*
X1117699Y600818D01*
X1118904Y600529D01*
X1120140Y600432D01*
X1121376Y600529D01*
X1122581Y600818D01*
X1123726Y601292D01*
X1124782Y601940D01*
X1125161Y602263D01*
X1126773D01*
Y578837D01*
X1080951D01*
X1080698Y580107D01*
X1081562Y580465D01*
X1082618Y581112D01*
X1083561Y581917D01*
X1084366Y582859D01*
X1085014Y583916D01*
X1085488Y585061D01*
X1085777Y586266D01*
X1085874Y587502D01*
X1085777Y588738D01*
X1085681Y589139D01*
X1340344Y843802D01*
X1340344Y843802D01*
X1340878Y844452D01*
X1341274Y845194D01*
X1341518Y845999D01*
X1341601Y846836D01*
Y906793D01*
X1341689Y906994D01*
X1342510Y907903D01*
X1357510D01*
X1357853Y907948D01*
X1357920Y907949D01*
X1358887Y907423D01*
X1359123Y907156D01*
Y846015D01*
X1250964Y737856D01*
X1250431Y737206D01*
X1250034Y736464D01*
X1249790Y735659D01*
X1249707Y734822D01*
X1249707Y734822D01*
Y674184D01*
X1248781Y673667D01*
X1248437Y673589D01*
X1247601Y674148D01*
X1246599Y674642D01*
X1245541Y675001D01*
X1244445Y675219D01*
X1243330Y675292D01*
X1242215Y675219D01*
X1241119Y675001D01*
X1240061Y674642D01*
X1239059Y674148D01*
X1238130Y673527D01*
X1237290Y672790D01*
X1236553Y671950D01*
X1235932Y671021D01*
X1235438Y670019D01*
X1235079Y668961D01*
X1234861Y667865D01*
X1234790Y666790D01*
X1234205Y666205D01*
X1233587Y665481D01*
X1233090Y664669D01*
X1232725Y663790D01*
X1232503Y662864D01*
X1232428Y661915D01*
X1232428Y661915D01*
Y635095D01*
X1232337Y635040D01*
X1231395Y634235D01*
X1230590Y633293D01*
X1229942Y632236D01*
X1229468Y631091D01*
X1229448Y631007D01*
X1228450Y630481D01*
X1227572Y630810D01*
X1227507Y630966D01*
X1226860Y632023D01*
X1226055Y632965D01*
X1225113Y633770D01*
X1224056Y634417D01*
X1223997Y634442D01*
Y660740D01*
X1224707Y661550D01*
X1225328Y662479D01*
X1225822Y663481D01*
X1226181Y664539D01*
X1226399Y665635D01*
X1226472Y666750D01*
X1226399Y667865D01*
X1226181Y668961D01*
X1225822Y670019D01*
X1225328Y671021D01*
X1224707Y671950D01*
X1223970Y672790D01*
X1223130Y673527D01*
X1222201Y674148D01*
X1221199Y674642D01*
X1220141Y675001D01*
X1219045Y675219D01*
X1217930Y675292D01*
X1216815Y675219D01*
X1215719Y675001D01*
X1214661Y674642D01*
X1213659Y674148D01*
X1212730Y673527D01*
X1211890Y672790D01*
X1211153Y671950D01*
X1210532Y671021D01*
X1210038Y670019D01*
X1209679Y668961D01*
X1209461Y667865D01*
X1209388Y666750D01*
X1209461Y665635D01*
X1209679Y664539D01*
X1210038Y663481D01*
X1210532Y662479D01*
X1211153Y661550D01*
X1211863Y660740D01*
Y629920D01*
X1211863Y629920D01*
X1211938Y628971D01*
X1212160Y628045D01*
X1212524Y627166D01*
X1212598Y627046D01*
X1212669Y626144D01*
X1212958Y624939D01*
X1213432Y623794D01*
X1214080Y622738D01*
X1214885Y621795D01*
X1215827Y620990D01*
X1216884Y620342D01*
X1218029Y619868D01*
X1219234Y619579D01*
X1220470Y619482D01*
X1221706Y619579D01*
X1222911Y619868D01*
X1224056Y620342D01*
X1225113Y620990D01*
X1226055Y621795D01*
X1226860Y622738D01*
X1227507Y623794D01*
X1227982Y624939D01*
X1228002Y625023D01*
X1229000Y625549D01*
X1229878Y625220D01*
X1229942Y625064D01*
X1230590Y624007D01*
X1231395Y623065D01*
X1232337Y622260D01*
X1233394Y621613D01*
X1234539Y621138D01*
X1235744Y620849D01*
X1236980Y620752D01*
X1238216Y620849D01*
X1239421Y621138D01*
X1240566Y621613D01*
X1241622Y622260D01*
X1242565Y623065D01*
X1243370Y624007D01*
X1244017Y625064D01*
X1244492Y626209D01*
X1244781Y627414D01*
X1244878Y628650D01*
X1244781Y629886D01*
X1244562Y630800D01*
Y658304D01*
X1245541Y658499D01*
X1246599Y658858D01*
X1247601Y659352D01*
X1248437Y659911D01*
X1248781Y659833D01*
X1249707Y659316D01*
Y647194D01*
X1249355Y646978D01*
X1248413Y646173D01*
X1247608Y645230D01*
X1246961Y644174D01*
X1246486Y643029D01*
X1246197Y641824D01*
X1246100Y640588D01*
X1246197Y639352D01*
X1246486Y638147D01*
X1246961Y637002D01*
X1247608Y635946D01*
X1248413Y635003D01*
X1249355Y634198D01*
X1250412Y633550D01*
X1251557Y633076D01*
X1252762Y632787D01*
X1253998Y632690D01*
X1255234Y632787D01*
X1256439Y633076D01*
X1257584Y633550D01*
X1257670Y633604D01*
X1258940Y632892D01*
Y621586D01*
X1258940Y621586D01*
X1259015Y620637D01*
X1259237Y619711D01*
X1259361Y619412D01*
Y619017D01*
X1259335Y618995D01*
X1258530Y618052D01*
X1257883Y616996D01*
X1257408Y615851D01*
X1257119Y614646D01*
X1257022Y613410D01*
X1257119Y612174D01*
X1257408Y610969D01*
X1257883Y609824D01*
X1258530Y608768D01*
X1259335Y607825D01*
X1260277Y607020D01*
X1261334Y606372D01*
X1262479Y605898D01*
X1262545Y605882D01*
X1262786Y604714D01*
X1262773Y604522D01*
X1261875Y603755D01*
X1261070Y602812D01*
X1260423Y601756D01*
X1259948Y600611D01*
X1259659Y599406D01*
X1259562Y598170D01*
X1259659Y596934D01*
X1259948Y595729D01*
X1260423Y594584D01*
X1261070Y593527D01*
X1261875Y592585D01*
X1262818Y591780D01*
X1263874Y591133D01*
X1265019Y590658D01*
X1266224Y590369D01*
X1267460Y590272D01*
X1268696Y590369D01*
X1269901Y590658D01*
X1271046Y591133D01*
X1272103Y591780D01*
X1272481Y592103D01*
X1277578D01*
X1277578Y592103D01*
X1278527Y592178D01*
X1279453Y592400D01*
X1280332Y592765D01*
X1281144Y593262D01*
X1281868Y593880D01*
X1299690Y611702D01*
X1300308Y612426D01*
X1300806Y613238D01*
X1301170Y614118D01*
X1301392Y615043D01*
X1301467Y615992D01*
Y657537D01*
X1301642Y657959D01*
X1301931Y659164D01*
X1302028Y660400D01*
X1301931Y661636D01*
X1301642Y662841D01*
X1301167Y663986D01*
X1300520Y665042D01*
X1299715Y665985D01*
X1298772Y666790D01*
X1297716Y667438D01*
X1296571Y667912D01*
X1295366Y668201D01*
X1294130Y668298D01*
X1292894Y668201D01*
X1291689Y667912D01*
X1290544Y667438D01*
X1289487Y666790D01*
X1288545Y665985D01*
X1287740Y665042D01*
X1287092Y663986D01*
X1286618Y662841D01*
X1286329Y661636D01*
X1286232Y660400D01*
X1286329Y659164D01*
X1286618Y657959D01*
X1287092Y656814D01*
X1287740Y655758D01*
X1288545Y654815D01*
X1289333Y654142D01*
Y618505D01*
X1275065Y604237D01*
X1272481D01*
X1272103Y604560D01*
X1271046Y605207D01*
X1269901Y605682D01*
X1269835Y605698D01*
X1269594Y606866D01*
X1269607Y607058D01*
X1270505Y607825D01*
X1271310Y608768D01*
X1271957Y609824D01*
X1272432Y610969D01*
X1272721Y612174D01*
X1272818Y613410D01*
X1272721Y614646D01*
X1272432Y615851D01*
X1272077Y616706D01*
X1272606Y617439D01*
X1273007Y617714D01*
X1273623Y617505D01*
X1274659Y617299D01*
Y626110D01*
Y634921D01*
X1273623Y634715D01*
X1272520Y634341D01*
X1272344Y634254D01*
X1271074Y635044D01*
Y659028D01*
X1271731Y659352D01*
X1272660Y659973D01*
X1273500Y660710D01*
X1274237Y661550D01*
X1274858Y662479D01*
X1275352Y663481D01*
X1275711Y664539D01*
X1275929Y665635D01*
X1276002Y666750D01*
X1275929Y667865D01*
X1275711Y668961D01*
X1275352Y670019D01*
X1274858Y671021D01*
X1274237Y671950D01*
X1273500Y672790D01*
X1272660Y673527D01*
X1271731Y674148D01*
X1270729Y674642D01*
X1269671Y675001D01*
X1268575Y675219D01*
X1267460Y675292D01*
X1266345Y675219D01*
X1265249Y675001D01*
X1264191Y674642D01*
X1263189Y674148D01*
X1262260Y673527D01*
X1261420Y672790D01*
X1260683Y671950D01*
X1260062Y671021D01*
X1259568Y670019D01*
X1259559Y669992D01*
X1258289Y670201D01*
Y733045D01*
X1366448Y841204D01*
X1366448Y841204D01*
X1366982Y841854D01*
X1367378Y842596D01*
X1367622Y843401D01*
X1367705Y844238D01*
X1367705Y844238D01*
Y951335D01*
X1367622Y952172D01*
X1367378Y952977D01*
X1366982Y953718D01*
X1366448Y954369D01*
X1366448Y954369D01*
X1360710Y960106D01*
X1360060Y960639D01*
X1359318Y961036D01*
X1358513Y961280D01*
X1357677Y961363D01*
X1357676Y961363D01*
X1313942D01*
X1313942Y961363D01*
X1313105Y961280D01*
X1312300Y961036D01*
X1311558Y960639D01*
X1310908Y960106D01*
X1308876Y958074D01*
X1308342Y957424D01*
X1307946Y956682D01*
X1307702Y955877D01*
X1307619Y955040D01*
X1307619Y955040D01*
Y948283D01*
X1306489Y947882D01*
X1306349Y947885D01*
X1305605Y948735D01*
X1304715Y949515D01*
X1303732Y950172D01*
X1302671Y950695D01*
X1301551Y951075D01*
X1300390Y951306D01*
X1299210Y951383D01*
X1298030Y951306D01*
X1296869Y951075D01*
X1296626Y950992D01*
X1285707Y961910D01*
X1285496Y962084D01*
X1285950Y963354D01*
X1383060D01*
X1396246Y950168D01*
D02*
G37*
G36*
X1208898Y953413D02*
X1208082Y952597D01*
X1207548Y951946D01*
X1207152Y951205D01*
X1206908Y950400D01*
X1206825Y949563D01*
X1206825Y949562D01*
Y946928D01*
X1205555Y946632D01*
X1205442Y946862D01*
X1204785Y947845D01*
X1204005Y948735D01*
X1203115Y949515D01*
X1202132Y950172D01*
X1201071Y950695D01*
X1199951Y951075D01*
X1198790Y951306D01*
X1197610Y951383D01*
X1196430Y951306D01*
X1195269Y951075D01*
X1194149Y950695D01*
X1193088Y950172D01*
X1192105Y949515D01*
X1191215Y948735D01*
X1190435Y947845D01*
X1189778Y946862D01*
X1189255Y945801D01*
X1188875Y944681D01*
X1188644Y943520D01*
X1188567Y942340D01*
X1188644Y941160D01*
X1188875Y939999D01*
X1188958Y939755D01*
X1181466Y932264D01*
X1180932Y931613D01*
X1180536Y930872D01*
X1180292Y930067D01*
X1180209Y929230D01*
X1180209Y929230D01*
Y923431D01*
X1178939Y922953D01*
X1178605Y923335D01*
X1177715Y924115D01*
X1176732Y924772D01*
X1175671Y925295D01*
X1174551Y925675D01*
X1173390Y925906D01*
X1172210Y925983D01*
X1171030Y925906D01*
X1169869Y925675D01*
X1168749Y925295D01*
X1167688Y924772D01*
X1166705Y924115D01*
X1165815Y923335D01*
X1165035Y922445D01*
X1164378Y921462D01*
X1163855Y920401D01*
X1163475Y919281D01*
X1163244Y918120D01*
X1163167Y916940D01*
X1163244Y915760D01*
X1163475Y914599D01*
X1163855Y913479D01*
X1164378Y912418D01*
X1165035Y911435D01*
X1165815Y910545D01*
X1166705Y909765D01*
X1167688Y909108D01*
X1168749Y908585D01*
X1169869Y908205D01*
X1171030Y907974D01*
X1172210Y907897D01*
X1173390Y907974D01*
X1174551Y908205D01*
X1175671Y908585D01*
X1176732Y909108D01*
X1177715Y909765D01*
X1178605Y910545D01*
X1178939Y910927D01*
X1180209Y910449D01*
Y905601D01*
X1068316Y793708D01*
X1066924Y794113D01*
X1066796Y794645D01*
X1066322Y795790D01*
X1065674Y796847D01*
X1064916Y797736D01*
X1151876Y884696D01*
X1151876Y884696D01*
X1152410Y885346D01*
X1152806Y886088D01*
X1153050Y886893D01*
X1153133Y887730D01*
Y953009D01*
X1154710Y954586D01*
X1208412D01*
X1208898Y953413D01*
D02*
G37*
G36*
X1206825Y937752D02*
Y921528D01*
X1205555Y921232D01*
X1205442Y921462D01*
X1204785Y922445D01*
X1204005Y923335D01*
X1203115Y924115D01*
X1202132Y924772D01*
X1201071Y925295D01*
X1199951Y925675D01*
X1198790Y925906D01*
X1197610Y925983D01*
X1196430Y925906D01*
X1195269Y925675D01*
X1194149Y925295D01*
X1193088Y924772D01*
X1192105Y924115D01*
X1191215Y923335D01*
X1190435Y922445D01*
X1190060Y921884D01*
X1188790Y922269D01*
Y927452D01*
X1195025Y933688D01*
X1195269Y933605D01*
X1196430Y933374D01*
X1197610Y933297D01*
X1198790Y933374D01*
X1199951Y933605D01*
X1201071Y933985D01*
X1202132Y934508D01*
X1203115Y935165D01*
X1204005Y935945D01*
X1204785Y936835D01*
X1205442Y937818D01*
X1205555Y938048D01*
X1206825Y937752D01*
D02*
G37*
%LPC*%
G36*
X969660Y675287D02*
X955660D01*
X955262Y675235D01*
X954891Y675081D01*
X954573Y674837D01*
X954329Y674519D01*
X954175Y674148D01*
X954123Y673750D01*
Y659750D01*
X954175Y659352D01*
X954329Y658981D01*
X954573Y658663D01*
X954891Y658419D01*
X955262Y658265D01*
X955660Y658213D01*
X956593D01*
Y643346D01*
X955551Y642805D01*
X955323Y642758D01*
X954415Y643366D01*
X953369Y643881D01*
X952266Y644256D01*
X951230Y644462D01*
Y635650D01*
Y626839D01*
X952266Y627045D01*
X953369Y627419D01*
X954415Y627935D01*
X955323Y628542D01*
X955551Y628495D01*
X956593Y627954D01*
Y614680D01*
X956593Y614680D01*
X956668Y613731D01*
X956890Y612805D01*
X957254Y611926D01*
X957752Y611114D01*
X957790Y611070D01*
X957837Y610466D01*
X958127Y609261D01*
X958601Y608116D01*
X959249Y607059D01*
X960053Y606117D01*
X960996Y605312D01*
X962053Y604664D01*
X963198Y604190D01*
X964403Y603900D01*
X965638Y603803D01*
X966874Y603900D01*
X968079Y604190D01*
X969224Y604664D01*
X970281Y605312D01*
X971223Y606117D01*
X972028Y607059D01*
X972676Y608116D01*
X973150Y609261D01*
X973439Y610466D01*
X973537Y611702D01*
X973439Y612937D01*
X973150Y614142D01*
X972676Y615287D01*
X972028Y616344D01*
X971223Y617287D01*
X970281Y618092D01*
X969224Y618739D01*
X968727Y618945D01*
Y658213D01*
X969660D01*
X970058Y658265D01*
X970429Y658419D01*
X970747Y658663D01*
X970991Y658981D01*
X971145Y659352D01*
X971197Y659750D01*
Y673750D01*
X971145Y674148D01*
X970991Y674519D01*
X970747Y674837D01*
X970429Y675081D01*
X970058Y675235D01*
X969660Y675287D01*
D02*
G37*
G36*
X1146810Y629841D02*
X1145774Y629636D01*
X1144671Y629261D01*
X1143625Y628745D01*
X1142656Y628098D01*
X1141780Y627330D01*
X1141012Y626454D01*
X1140365Y625485D01*
X1139849Y624439D01*
X1139474Y623336D01*
X1139268Y622300D01*
X1146810D01*
Y629841D01*
D02*
G37*
G36*
X1149350D02*
Y622300D01*
X1156891D01*
X1156685Y623336D01*
X1156311Y624439D01*
X1155796Y625485D01*
X1155148Y626454D01*
X1154380Y627330D01*
X1153503Y628098D01*
X1152535Y628745D01*
X1151489Y629261D01*
X1150386Y629636D01*
X1149350Y629841D01*
D02*
G37*
G36*
X1013460Y675292D02*
X1012345Y675219D01*
X1011249Y675001D01*
X1010191Y674642D01*
X1009189Y674148D01*
X1008260Y673527D01*
X1007420Y672790D01*
X1006683Y671950D01*
X1006062Y671021D01*
X1005568Y670019D01*
X1005209Y668961D01*
X1004991Y667865D01*
X1004918Y666750D01*
X1004991Y665635D01*
X1005209Y664539D01*
X1005568Y663481D01*
X1006062Y662479D01*
X1006683Y661550D01*
X1007393Y660740D01*
Y637513D01*
X1006371Y636490D01*
X1005874Y636451D01*
X1004669Y636162D01*
X1003524Y635687D01*
X1002467Y635040D01*
X1001525Y634235D01*
X1000720Y633293D01*
X1000072Y632236D01*
X999598Y631091D01*
X999578Y631007D01*
X998580Y630481D01*
X997702Y630810D01*
X997637Y630966D01*
X996990Y632023D01*
X996185Y632965D01*
X995242Y633770D01*
X994186Y634417D01*
X994127Y634442D01*
Y660740D01*
X994837Y661550D01*
X995458Y662479D01*
X995952Y663481D01*
X996311Y664539D01*
X996529Y665635D01*
X996602Y666750D01*
X996529Y667865D01*
X996311Y668961D01*
X995952Y670019D01*
X995458Y671021D01*
X994837Y671950D01*
X994100Y672790D01*
X993260Y673527D01*
X992331Y674148D01*
X991329Y674642D01*
X990271Y675001D01*
X989175Y675219D01*
X988060Y675292D01*
X986945Y675219D01*
X985849Y675001D01*
X984791Y674642D01*
X983789Y674148D01*
X982860Y673527D01*
X982020Y672790D01*
X981283Y671950D01*
X980662Y671021D01*
X980168Y670019D01*
X979809Y668961D01*
X979591Y667865D01*
X979518Y666750D01*
X979591Y665635D01*
X979809Y664539D01*
X980168Y663481D01*
X980662Y662479D01*
X981283Y661550D01*
X981993Y660740D01*
Y629920D01*
X981993Y629920D01*
X982068Y628971D01*
X982290Y628045D01*
X982654Y627166D01*
X982728Y627046D01*
X982799Y626144D01*
X983088Y624939D01*
X983562Y623794D01*
X984210Y622738D01*
X985015Y621795D01*
X985957Y620990D01*
X987014Y620342D01*
X988159Y619868D01*
X989364Y619579D01*
X990600Y619482D01*
X991836Y619579D01*
X993041Y619868D01*
X994186Y620342D01*
X995242Y620990D01*
X996185Y621795D01*
X996990Y622738D01*
X997637Y623794D01*
X998112Y624939D01*
X998132Y625023D01*
X999130Y625549D01*
X1000008Y625220D01*
X1000072Y625064D01*
X1000720Y624007D01*
X1001525Y623065D01*
X1002467Y622260D01*
X1003524Y621613D01*
X1004669Y621138D01*
X1005874Y620849D01*
X1007110Y620752D01*
X1008346Y620849D01*
X1009551Y621138D01*
X1010696Y621613D01*
X1011752Y622260D01*
X1012695Y623065D01*
X1013500Y624007D01*
X1014147Y625064D01*
X1014622Y626209D01*
X1014911Y627414D01*
X1014950Y627911D01*
X1017750Y630710D01*
X1017750Y630710D01*
X1018368Y631434D01*
X1018866Y632246D01*
X1019230Y633125D01*
X1019452Y634051D01*
X1019527Y635000D01*
Y660740D01*
X1020237Y661550D01*
X1020858Y662479D01*
X1021352Y663481D01*
X1021711Y664539D01*
X1021929Y665635D01*
X1022002Y666750D01*
X1021929Y667865D01*
X1021711Y668961D01*
X1021352Y670019D01*
X1020858Y671021D01*
X1020237Y671950D01*
X1019500Y672790D01*
X1018660Y673527D01*
X1017731Y674148D01*
X1016729Y674642D01*
X1015671Y675001D01*
X1014575Y675219D01*
X1013460Y675292D01*
D02*
G37*
G36*
X1277199Y634921D02*
Y627380D01*
X1284740D01*
X1284534Y628416D01*
X1284160Y629519D01*
X1283644Y630565D01*
X1282997Y631534D01*
X1282229Y632410D01*
X1281352Y633178D01*
X1280383Y633825D01*
X1279338Y634341D01*
X1278235Y634715D01*
X1277199Y634921D01*
D02*
G37*
G36*
X1284740Y624840D02*
X1277199D01*
Y617299D01*
X1278235Y617505D01*
X1279338Y617879D01*
X1280383Y618395D01*
X1281352Y619042D01*
X1282229Y619810D01*
X1282997Y620686D01*
X1283644Y621655D01*
X1284160Y622701D01*
X1284534Y623804D01*
X1284740Y624840D01*
D02*
G37*
G36*
X1216660Y604952D02*
X1216213Y604845D01*
X1215407Y604511D01*
X1214664Y604056D01*
X1214000Y603489D01*
X1213434Y602826D01*
X1212979Y602083D01*
X1212645Y601277D01*
X1212538Y600830D01*
X1216660D01*
Y604952D01*
D02*
G37*
G36*
X1012190D02*
Y600830D01*
X1016312D01*
X1016205Y601277D01*
X1015871Y602083D01*
X1015416Y602826D01*
X1014849Y603489D01*
X1014186Y604056D01*
X1013443Y604511D01*
X1012637Y604845D01*
X1012190Y604952D01*
D02*
G37*
G36*
X1242060D02*
Y600830D01*
X1246182D01*
X1246075Y601277D01*
X1245741Y602083D01*
X1245286Y602826D01*
X1244719Y603489D01*
X1244056Y604056D01*
X1243313Y604511D01*
X1242507Y604845D01*
X1242060Y604952D01*
D02*
G37*
G36*
X1239520D02*
X1239073Y604845D01*
X1238267Y604511D01*
X1237524Y604056D01*
X1236861Y603489D01*
X1236294Y602826D01*
X1235839Y602083D01*
X1235762Y601899D01*
X1234388D01*
X1234311Y602083D01*
X1233856Y602826D01*
X1233289Y603489D01*
X1232626Y604056D01*
X1231883Y604511D01*
X1231077Y604845D01*
X1230630Y604952D01*
Y599560D01*
X1228090D01*
Y604952D01*
X1227643Y604845D01*
X1226837Y604511D01*
X1226094Y604056D01*
X1225431Y603489D01*
X1224864Y602826D01*
X1224409Y602083D01*
X1224332Y601899D01*
X1222958D01*
X1222881Y602083D01*
X1222426Y602826D01*
X1221860Y603489D01*
X1221196Y604056D01*
X1220453Y604511D01*
X1219647Y604845D01*
X1219200Y604952D01*
Y599560D01*
X1217930D01*
Y598290D01*
X1212538D01*
X1212645Y597843D01*
X1212979Y597037D01*
X1213434Y596293D01*
X1214000Y595630D01*
X1214664Y595064D01*
X1215407Y594608D01*
X1215591Y594532D01*
Y593158D01*
X1215407Y593081D01*
X1214664Y592626D01*
X1214000Y592059D01*
X1213434Y591396D01*
X1212979Y590653D01*
X1212645Y589847D01*
X1212538Y589400D01*
X1217930D01*
Y586860D01*
X1212538D01*
X1212645Y586413D01*
X1212979Y585607D01*
X1213434Y584864D01*
X1214000Y584200D01*
X1214664Y583634D01*
X1215407Y583178D01*
X1215591Y583102D01*
Y581728D01*
X1215407Y581651D01*
X1214664Y581196D01*
X1214000Y580629D01*
X1213434Y579966D01*
X1212979Y579223D01*
X1212645Y578417D01*
X1212538Y577970D01*
X1217930D01*
Y576700D01*
X1219200D01*
Y571307D01*
X1219647Y571415D01*
X1220453Y571749D01*
X1221196Y572204D01*
X1221860Y572770D01*
X1222426Y573433D01*
X1222881Y574177D01*
X1222958Y574361D01*
X1224332D01*
X1224409Y574177D01*
X1224864Y573433D01*
X1225431Y572770D01*
X1226094Y572204D01*
X1226837Y571749D01*
X1227643Y571415D01*
X1228090Y571307D01*
Y576700D01*
X1230630D01*
Y571307D01*
X1231077Y571415D01*
X1231883Y571749D01*
X1232626Y572204D01*
X1233289Y572770D01*
X1233856Y573433D01*
X1234311Y574177D01*
X1234388Y574361D01*
X1235762D01*
X1235839Y574177D01*
X1236294Y573433D01*
X1236861Y572770D01*
X1237524Y572204D01*
X1238267Y571749D01*
X1239073Y571415D01*
X1239520Y571307D01*
Y576700D01*
X1240790D01*
Y577970D01*
X1246182D01*
X1246075Y578417D01*
X1245741Y579223D01*
X1245286Y579966D01*
X1244719Y580629D01*
X1244056Y581196D01*
X1243313Y581651D01*
X1243129Y581728D01*
Y583102D01*
X1243313Y583178D01*
X1244056Y583634D01*
X1244719Y584200D01*
X1245286Y584864D01*
X1245741Y585607D01*
X1246075Y586413D01*
X1246182Y586860D01*
X1240790D01*
Y589400D01*
X1246182D01*
X1246075Y589847D01*
X1245741Y590653D01*
X1245286Y591396D01*
X1244719Y592059D01*
X1244056Y592626D01*
X1243313Y593081D01*
X1243129Y593158D01*
Y594532D01*
X1243313Y594608D01*
X1244056Y595064D01*
X1244719Y595630D01*
X1245286Y596293D01*
X1245741Y597037D01*
X1246075Y597843D01*
X1246182Y598290D01*
X1240790D01*
Y599560D01*
X1239520D01*
Y604952D01*
D02*
G37*
G36*
X1009650D02*
X1009203Y604845D01*
X1008397Y604511D01*
X1007654Y604056D01*
X1006991Y603489D01*
X1006424Y602826D01*
X1005969Y602083D01*
X1005892Y601899D01*
X1004518D01*
X1004441Y602083D01*
X1003986Y602826D01*
X1003419Y603489D01*
X1002756Y604056D01*
X1002013Y604511D01*
X1001207Y604845D01*
X1000760Y604952D01*
Y599560D01*
X998220D01*
Y604952D01*
X997773Y604845D01*
X996967Y604511D01*
X996224Y604056D01*
X995561Y603489D01*
X994994Y602826D01*
X994539Y602083D01*
X994462Y601899D01*
X993088D01*
X993011Y602083D01*
X992556Y602826D01*
X991990Y603489D01*
X991326Y604056D01*
X990583Y604511D01*
X989777Y604845D01*
X989330Y604952D01*
Y599560D01*
X988060D01*
Y598290D01*
X982667D01*
X982775Y597843D01*
X983109Y597037D01*
X983564Y596293D01*
X984130Y595630D01*
X984794Y595064D01*
X985537Y594608D01*
X985721Y594532D01*
Y593158D01*
X985537Y593081D01*
X984794Y592626D01*
X984130Y592059D01*
X983564Y591396D01*
X983109Y590653D01*
X982775Y589847D01*
X982667Y589400D01*
X988060D01*
Y586860D01*
X982667D01*
X982775Y586413D01*
X983109Y585607D01*
X983564Y584864D01*
X984130Y584200D01*
X984794Y583634D01*
X985537Y583178D01*
X985721Y583102D01*
Y581728D01*
X985537Y581651D01*
X984794Y581196D01*
X984130Y580629D01*
X983564Y579966D01*
X983109Y579223D01*
X982775Y578417D01*
X982667Y577970D01*
X988060D01*
Y576700D01*
X989330D01*
Y571307D01*
X989777Y571415D01*
X990583Y571749D01*
X991326Y572204D01*
X991990Y572770D01*
X992556Y573433D01*
X993011Y574177D01*
X993088Y574361D01*
X994462D01*
X994539Y574177D01*
X994994Y573433D01*
X995561Y572770D01*
X996224Y572204D01*
X996967Y571749D01*
X997773Y571415D01*
X998220Y571307D01*
Y576700D01*
X1000760D01*
Y571307D01*
X1001207Y571415D01*
X1002013Y571749D01*
X1002756Y572204D01*
X1003419Y572770D01*
X1003986Y573433D01*
X1004441Y574177D01*
X1004518Y574361D01*
X1005892D01*
X1005969Y574177D01*
X1006424Y573433D01*
X1006991Y572770D01*
X1007654Y572204D01*
X1008397Y571749D01*
X1009203Y571415D01*
X1009650Y571307D01*
Y576700D01*
X1010920D01*
Y577970D01*
X1016312D01*
X1016205Y578417D01*
X1015871Y579223D01*
X1015416Y579966D01*
X1014849Y580629D01*
X1014186Y581196D01*
X1013443Y581651D01*
X1013259Y581728D01*
Y583102D01*
X1013443Y583178D01*
X1014186Y583634D01*
X1014849Y584200D01*
X1015416Y584864D01*
X1015871Y585607D01*
X1016205Y586413D01*
X1016312Y586860D01*
X1010920D01*
Y589400D01*
X1016312D01*
X1016205Y589847D01*
X1015871Y590653D01*
X1015416Y591396D01*
X1014849Y592059D01*
X1014186Y592626D01*
X1013443Y593081D01*
X1013259Y593158D01*
Y594532D01*
X1013443Y594608D01*
X1014186Y595064D01*
X1014849Y595630D01*
X1015416Y596293D01*
X1015871Y597037D01*
X1016205Y597843D01*
X1016312Y598290D01*
X1010920D01*
Y599560D01*
X1009650D01*
Y604952D01*
D02*
G37*
G36*
X735330Y671162D02*
X734060D01*
X733447Y671102D01*
X732858Y670923D01*
X732314Y670633D01*
X731838Y670242D01*
X731447Y669766D01*
X731157Y669222D01*
X730978Y668633D01*
X730918Y668020D01*
X730978Y667407D01*
X731157Y666818D01*
X731447Y666274D01*
X731838Y665798D01*
X732314Y665407D01*
X732858Y665117D01*
X733447Y664938D01*
X734060Y664878D01*
X735330D01*
X735943Y664938D01*
X736532Y665117D01*
X737076Y665407D01*
X737552Y665798D01*
X737943Y666274D01*
X738233Y666818D01*
X738412Y667407D01*
X738472Y668020D01*
X738412Y668633D01*
X738233Y669222D01*
X737943Y669766D01*
X737552Y670242D01*
X737076Y670633D01*
X736532Y670923D01*
X735943Y671102D01*
X735330Y671162D01*
D02*
G37*
G36*
X1270000Y735251D02*
Y727710D01*
X1277542D01*
X1277336Y728746D01*
X1276961Y729849D01*
X1276445Y730895D01*
X1275798Y731863D01*
X1275030Y732740D01*
X1274154Y733508D01*
X1273185Y734156D01*
X1272139Y734671D01*
X1271036Y735045D01*
X1270000Y735251D01*
D02*
G37*
G36*
X1267460D02*
X1266424Y735045D01*
X1265321Y734671D01*
X1264275Y734156D01*
X1263307Y733508D01*
X1262430Y732740D01*
X1261662Y731863D01*
X1261014Y730895D01*
X1260499Y729849D01*
X1260125Y728746D01*
X1259919Y727710D01*
X1267460D01*
Y735251D01*
D02*
G37*
G36*
X1041400Y742871D02*
X1040364Y742665D01*
X1039261Y742291D01*
X1038215Y741776D01*
X1037246Y741128D01*
X1036370Y740360D01*
X1035602Y739483D01*
X1034955Y738515D01*
X1034439Y737469D01*
X1034064Y736366D01*
X1033858Y735330D01*
X1041400D01*
Y742871D01*
D02*
G37*
G36*
X776580Y760337D02*
X757580D01*
X757182Y760285D01*
X756811Y760131D01*
X756493Y759887D01*
X756249Y759569D01*
X756095Y759198D01*
X756043Y758800D01*
Y739800D01*
X756095Y739402D01*
X756249Y739031D01*
X756493Y738713D01*
X756811Y738469D01*
X757182Y738315D01*
X757580Y738263D01*
X776580D01*
X776978Y738315D01*
X777349Y738469D01*
X777667Y738713D01*
X777911Y739031D01*
X778065Y739402D01*
X778117Y739800D01*
Y758800D01*
X778065Y759198D01*
X777911Y759569D01*
X777667Y759887D01*
X777349Y760131D01*
X776978Y760285D01*
X776580Y760337D01*
D02*
G37*
G36*
X1043940Y742871D02*
Y735330D01*
X1051481D01*
X1051275Y736366D01*
X1050901Y737469D01*
X1050386Y738515D01*
X1049738Y739483D01*
X1048970Y740360D01*
X1048093Y741128D01*
X1047125Y741776D01*
X1046079Y742291D01*
X1044976Y742665D01*
X1043940Y742871D01*
D02*
G37*
G36*
X1051481Y732790D02*
X1043940D01*
Y725248D01*
X1044976Y725454D01*
X1046079Y725829D01*
X1047125Y726345D01*
X1048093Y726992D01*
X1048970Y727760D01*
X1049738Y728636D01*
X1050386Y729605D01*
X1050901Y730651D01*
X1051275Y731754D01*
X1051481Y732790D01*
D02*
G37*
G36*
X1267460Y725170D02*
X1259919D01*
X1260125Y724134D01*
X1260499Y723031D01*
X1261014Y721985D01*
X1261662Y721016D01*
X1262430Y720140D01*
X1263307Y719372D01*
X1264275Y718725D01*
X1265321Y718209D01*
X1266424Y717834D01*
X1267460Y717628D01*
Y725170D01*
D02*
G37*
G36*
X767080Y709548D02*
X765638Y709453D01*
X764221Y709171D01*
X762852Y708707D01*
X761556Y708067D01*
X760355Y707265D01*
X759268Y706312D01*
X758315Y705225D01*
X757513Y704024D01*
X756873Y702728D01*
X756409Y701359D01*
X756127Y699942D01*
X756032Y698500D01*
X756127Y697058D01*
X756409Y695641D01*
X756873Y694272D01*
X757513Y692976D01*
X758315Y691775D01*
X759268Y690688D01*
X760355Y689735D01*
X761556Y688932D01*
X762852Y688293D01*
X764221Y687829D01*
X765638Y687547D01*
X767080Y687452D01*
X768522Y687547D01*
X769939Y687829D01*
X771308Y688293D01*
X772604Y688932D01*
X773805Y689735D01*
X774892Y690688D01*
X775845Y691775D01*
X776647Y692976D01*
X777287Y694272D01*
X777751Y695641D01*
X778033Y697058D01*
X778128Y698500D01*
X778033Y699942D01*
X777751Y701359D01*
X777287Y702728D01*
X776647Y704024D01*
X775845Y705225D01*
X774892Y706312D01*
X773805Y707265D01*
X772604Y708067D01*
X771308Y708707D01*
X769939Y709171D01*
X768522Y709453D01*
X767080Y709548D01*
D02*
G37*
G36*
X1277542Y725170D02*
X1270000D01*
Y717628D01*
X1271036Y717834D01*
X1272139Y718209D01*
X1273185Y718725D01*
X1274154Y719372D01*
X1275030Y720140D01*
X1275798Y721016D01*
X1276445Y721985D01*
X1276961Y723031D01*
X1277336Y724134D01*
X1277542Y725170D01*
D02*
G37*
G36*
X1041400Y732790D02*
X1033858D01*
X1034064Y731754D01*
X1034439Y730651D01*
X1034955Y729605D01*
X1035602Y728636D01*
X1036370Y727760D01*
X1037246Y726992D01*
X1038215Y726345D01*
X1039261Y725829D01*
X1040364Y725454D01*
X1041400Y725248D01*
Y732790D01*
D02*
G37*
G36*
X858630Y744597D02*
X840630D01*
X840232Y744545D01*
X839861Y744391D01*
X839543Y744147D01*
X839299Y743829D01*
X839145Y743458D01*
X839093Y743060D01*
Y725060D01*
X839145Y724662D01*
X839299Y724291D01*
X839543Y723973D01*
X839861Y723729D01*
X840232Y723575D01*
X840630Y723523D01*
X858630D01*
X859028Y723575D01*
X859399Y723729D01*
X859717Y723973D01*
X859961Y724291D01*
X860115Y724662D01*
X860167Y725060D01*
Y743060D01*
X860115Y743458D01*
X859961Y743829D01*
X859717Y744147D01*
X859399Y744391D01*
X859028Y744545D01*
X858630Y744597D01*
D02*
G37*
G36*
X1102281Y520700D02*
X1094740D01*
Y513158D01*
X1095776Y513364D01*
X1096879Y513739D01*
X1097925Y514254D01*
X1098894Y514902D01*
X1099770Y515670D01*
X1100538Y516547D01*
X1101186Y517515D01*
X1101701Y518561D01*
X1102076Y519664D01*
X1102281Y520700D01*
D02*
G37*
G36*
X1092200D02*
X1084659D01*
X1084865Y519664D01*
X1085239Y518561D01*
X1085754Y517515D01*
X1086402Y516547D01*
X1087170Y515670D01*
X1088046Y514902D01*
X1089015Y514254D01*
X1090061Y513739D01*
X1091164Y513364D01*
X1092200Y513158D01*
Y520700D01*
D02*
G37*
G36*
X1267460Y529590D02*
X1259919D01*
X1260125Y528554D01*
X1260499Y527451D01*
X1261014Y526405D01*
X1261662Y525437D01*
X1262430Y524560D01*
X1263307Y523792D01*
X1264275Y523144D01*
X1265321Y522629D01*
X1266424Y522254D01*
X1267460Y522048D01*
Y529590D01*
D02*
G37*
G36*
X1092200Y530782D02*
X1091164Y530575D01*
X1090061Y530201D01*
X1089015Y529686D01*
X1088046Y529038D01*
X1087170Y528270D01*
X1086402Y527393D01*
X1085754Y526425D01*
X1085239Y525379D01*
X1084865Y524276D01*
X1084659Y523240D01*
X1092200D01*
Y530782D01*
D02*
G37*
G36*
X1277542Y529590D02*
X1270000D01*
Y522048D01*
X1271036Y522254D01*
X1272139Y522629D01*
X1273185Y523144D01*
X1274154Y523792D01*
X1275030Y524560D01*
X1275798Y525437D01*
X1276445Y526405D01*
X1276961Y527451D01*
X1277336Y528554D01*
X1277542Y529590D01*
D02*
G37*
G36*
X988060Y519352D02*
X987024Y519146D01*
X985921Y518771D01*
X984875Y518256D01*
X983906Y517608D01*
X983030Y516840D01*
X982262Y515964D01*
X981615Y514995D01*
X981099Y513949D01*
X980724Y512846D01*
X980518Y511810D01*
X988060D01*
Y519352D01*
D02*
G37*
G36*
X1019810Y468783D02*
X1018630Y468706D01*
X1017469Y468475D01*
X1016349Y468095D01*
X1015288Y467572D01*
X1014305Y466915D01*
X1013415Y466135D01*
X1012635Y465245D01*
X1011978Y464262D01*
X1011455Y463201D01*
X1011075Y462081D01*
X1010844Y460920D01*
X1010767Y459740D01*
X1010844Y458560D01*
X1011075Y457399D01*
X1011455Y456279D01*
X1011978Y455218D01*
X1012635Y454235D01*
X1013415Y453345D01*
X1014305Y452565D01*
X1015288Y451908D01*
X1016349Y451385D01*
X1017469Y451005D01*
X1018630Y450774D01*
X1019810Y450697D01*
X1020990Y450774D01*
X1022151Y451005D01*
X1023271Y451385D01*
X1024332Y451908D01*
X1025315Y452565D01*
X1026205Y453345D01*
X1026985Y454235D01*
X1027642Y455218D01*
X1028165Y456279D01*
X1028545Y457399D01*
X1028776Y458560D01*
X1028853Y459740D01*
X1028776Y460920D01*
X1028545Y462081D01*
X1028165Y463201D01*
X1027642Y464262D01*
X1026985Y465245D01*
X1026205Y466135D01*
X1025315Y466915D01*
X1024332Y467572D01*
X1023271Y468095D01*
X1022151Y468475D01*
X1020990Y468706D01*
X1019810Y468783D01*
D02*
G37*
G36*
X994410D02*
X993230Y468706D01*
X992069Y468475D01*
X990949Y468095D01*
X989888Y467572D01*
X988905Y466915D01*
X988015Y466135D01*
X987235Y465245D01*
X986578Y464262D01*
X986055Y463201D01*
X985675Y462081D01*
X985444Y460920D01*
X985367Y459740D01*
X985444Y458560D01*
X985675Y457399D01*
X986055Y456279D01*
X986578Y455218D01*
X987235Y454235D01*
X988015Y453345D01*
X988905Y452565D01*
X989888Y451908D01*
X990949Y451385D01*
X992069Y451005D01*
X993230Y450774D01*
X994410Y450697D01*
X995590Y450774D01*
X996751Y451005D01*
X997871Y451385D01*
X998932Y451908D01*
X999915Y452565D01*
X1000805Y453345D01*
X1001585Y454235D01*
X1002242Y455218D01*
X1002765Y456279D01*
X1003145Y457399D01*
X1003376Y458560D01*
X1003453Y459740D01*
X1003376Y460920D01*
X1003145Y462081D01*
X1002765Y463201D01*
X1002242Y464262D01*
X1001585Y465245D01*
X1000805Y466135D01*
X999915Y466915D01*
X998932Y467572D01*
X997871Y468095D01*
X996751Y468475D01*
X995590Y468706D01*
X994410Y468783D01*
D02*
G37*
G36*
X1357510Y494177D02*
X1342510D01*
X1342112Y494125D01*
X1341741Y493971D01*
X1341423Y493727D01*
X1341179Y493409D01*
X1341025Y493038D01*
X1340973Y492640D01*
Y477640D01*
X1341025Y477242D01*
X1341179Y476871D01*
X1341423Y476553D01*
X1341741Y476309D01*
X1342112Y476155D01*
X1342510Y476103D01*
X1357510D01*
X1357908Y476155D01*
X1358279Y476309D01*
X1358597Y476553D01*
X1358841Y476871D01*
X1358995Y477242D01*
X1359047Y477640D01*
Y492640D01*
X1358995Y493038D01*
X1358841Y493409D01*
X1358597Y493727D01*
X1358279Y493971D01*
X1357908Y494125D01*
X1357510Y494177D01*
D02*
G37*
G36*
X998141Y509270D02*
X990600D01*
Y501729D01*
X991636Y501935D01*
X992739Y502309D01*
X993785Y502825D01*
X994753Y503472D01*
X995630Y504240D01*
X996398Y505117D01*
X997046Y506085D01*
X997561Y507131D01*
X997935Y508234D01*
X998141Y509270D01*
D02*
G37*
G36*
X988060D02*
X980518D01*
X980724Y508234D01*
X981099Y507131D01*
X981615Y506085D01*
X982262Y505117D01*
X983030Y504240D01*
X983906Y503472D01*
X984875Y502825D01*
X985921Y502309D01*
X987024Y501935D01*
X988060Y501729D01*
Y509270D01*
D02*
G37*
G36*
X1094740Y530782D02*
Y523240D01*
X1102281D01*
X1102076Y524276D01*
X1101701Y525379D01*
X1101186Y526425D01*
X1100538Y527393D01*
X1099770Y528270D01*
X1098894Y529038D01*
X1097925Y529686D01*
X1096879Y530201D01*
X1095776Y530575D01*
X1094740Y530782D01*
D02*
G37*
G36*
X1016312Y575430D02*
X1012190D01*
Y571307D01*
X1012637Y571415D01*
X1013443Y571749D01*
X1014186Y572204D01*
X1014849Y572770D01*
X1015416Y573433D01*
X1015871Y574177D01*
X1016205Y574983D01*
X1016312Y575430D01*
D02*
G37*
G36*
X986790D02*
X982667D01*
X982775Y574983D01*
X983109Y574177D01*
X983564Y573433D01*
X984130Y572770D01*
X984794Y572204D01*
X985537Y571749D01*
X986343Y571415D01*
X986790Y571307D01*
Y575430D01*
D02*
G37*
G36*
X1216660D02*
X1212538D01*
X1212645Y574983D01*
X1212979Y574177D01*
X1213434Y573433D01*
X1214000Y572770D01*
X1214664Y572204D01*
X1215407Y571749D01*
X1216213Y571415D01*
X1216660Y571307D01*
Y575430D01*
D02*
G37*
G36*
X986790Y604952D02*
X986343Y604845D01*
X985537Y604511D01*
X984794Y604056D01*
X984130Y603489D01*
X983564Y602826D01*
X983109Y602083D01*
X982775Y601277D01*
X982667Y600830D01*
X986790D01*
Y604952D01*
D02*
G37*
G36*
X1246182Y575430D02*
X1242060D01*
Y571307D01*
X1242507Y571415D01*
X1243313Y571749D01*
X1244056Y572204D01*
X1244719Y572770D01*
X1245286Y573433D01*
X1245741Y574177D01*
X1246075Y574983D01*
X1246182Y575430D01*
D02*
G37*
G36*
X1033780Y543481D02*
Y535940D01*
X1041321D01*
X1041115Y536976D01*
X1040741Y538079D01*
X1040226Y539125D01*
X1039578Y540093D01*
X1038810Y540970D01*
X1037934Y541738D01*
X1036965Y542385D01*
X1035919Y542901D01*
X1034816Y543275D01*
X1033780Y543481D01*
D02*
G37*
G36*
X1041321Y533400D02*
X1033780D01*
Y525858D01*
X1034816Y526064D01*
X1035919Y526439D01*
X1036965Y526954D01*
X1037934Y527602D01*
X1038810Y528370D01*
X1039578Y529246D01*
X1040226Y530215D01*
X1040741Y531261D01*
X1041115Y532364D01*
X1041321Y533400D01*
D02*
G37*
G36*
X1031240D02*
X1023699D01*
X1023904Y532364D01*
X1024279Y531261D01*
X1024794Y530215D01*
X1025442Y529246D01*
X1026210Y528370D01*
X1027086Y527602D01*
X1028055Y526954D01*
X1029101Y526439D01*
X1030204Y526064D01*
X1031240Y525858D01*
Y533400D01*
D02*
G37*
G36*
X1267460Y539672D02*
X1266424Y539465D01*
X1265321Y539091D01*
X1264275Y538576D01*
X1263307Y537928D01*
X1262430Y537160D01*
X1261662Y536283D01*
X1261014Y535315D01*
X1260499Y534269D01*
X1260125Y533166D01*
X1259919Y532130D01*
X1267460D01*
Y539672D01*
D02*
G37*
G36*
X1031240Y543481D02*
X1030204Y543275D01*
X1029101Y542901D01*
X1028055Y542385D01*
X1027086Y541738D01*
X1026210Y540970D01*
X1025442Y540093D01*
X1024794Y539125D01*
X1024279Y538079D01*
X1023904Y536976D01*
X1023699Y535940D01*
X1031240D01*
Y543481D01*
D02*
G37*
G36*
X1270000Y539672D02*
Y532130D01*
X1277542D01*
X1277336Y533166D01*
X1276961Y534269D01*
X1276445Y535315D01*
X1275798Y536283D01*
X1275030Y537160D01*
X1274154Y537928D01*
X1273185Y538576D01*
X1272139Y539091D01*
X1271036Y539465D01*
X1270000Y539672D01*
D02*
G37*
G36*
X848360Y758190D02*
X838148D01*
X838164Y757951D01*
X838459Y756467D01*
X838946Y755034D01*
X839615Y753678D01*
X840455Y752420D01*
X841452Y751283D01*
X842590Y750285D01*
X843848Y749445D01*
X845204Y748776D01*
X846637Y748289D01*
X848120Y747994D01*
X848360Y747979D01*
Y758190D01*
D02*
G37*
G36*
X767080Y848360D02*
X756362D01*
X756367Y848280D01*
X756593Y846947D01*
X756968Y845647D01*
X757485Y844398D01*
X758139Y843214D01*
X758922Y842111D01*
X759823Y841103D01*
X760831Y840202D01*
X761934Y839419D01*
X763118Y838765D01*
X764367Y838248D01*
X765667Y837873D01*
X767000Y837647D01*
X767080Y837642D01*
Y848360D01*
D02*
G37*
G36*
X1178601Y840620D02*
X1171060D01*
Y833079D01*
X1172096Y833285D01*
X1173199Y833659D01*
X1174244Y834175D01*
X1175213Y834822D01*
X1176089Y835591D01*
X1176858Y836467D01*
X1177505Y837436D01*
X1178021Y838481D01*
X1178395Y839584D01*
X1178601Y840620D01*
D02*
G37*
G36*
X780338Y848360D02*
X769620D01*
Y837642D01*
X769700Y837647D01*
X771033Y837873D01*
X772333Y838248D01*
X773582Y838765D01*
X774766Y839419D01*
X775869Y840202D01*
X776877Y841103D01*
X777778Y842111D01*
X778561Y843214D01*
X779215Y844398D01*
X779732Y845647D01*
X780107Y846947D01*
X780333Y848280D01*
X780338Y848360D01*
D02*
G37*
G36*
X1171060Y850702D02*
Y843160D01*
X1178601D01*
X1178395Y844196D01*
X1178021Y845300D01*
X1177505Y846345D01*
X1176858Y847314D01*
X1176089Y848190D01*
X1175213Y848958D01*
X1174244Y849606D01*
X1173199Y850121D01*
X1172096Y850496D01*
X1171060Y850702D01*
D02*
G37*
G36*
X1168520D02*
X1167484Y850496D01*
X1166380Y850121D01*
X1165335Y849606D01*
X1164366Y848958D01*
X1163490Y848190D01*
X1162722Y847314D01*
X1162074Y846345D01*
X1161559Y845300D01*
X1161184Y844196D01*
X1160978Y843160D01*
X1168520D01*
Y850702D01*
D02*
G37*
G36*
Y840620D02*
X1160978D01*
X1161184Y839584D01*
X1161559Y838481D01*
X1162074Y837436D01*
X1162722Y836467D01*
X1163490Y835591D01*
X1164366Y834822D01*
X1165335Y834175D01*
X1166380Y833659D01*
X1167484Y833285D01*
X1168520Y833079D01*
Y840620D01*
D02*
G37*
G36*
X736600Y822292D02*
X735330D01*
X734717Y822232D01*
X734128Y822053D01*
X733584Y821763D01*
X733108Y821372D01*
X732717Y820896D01*
X732427Y820352D01*
X732248Y819763D01*
X732188Y819150D01*
X732248Y818537D01*
X732427Y817948D01*
X732717Y817404D01*
X733108Y816928D01*
X733584Y816537D01*
X734128Y816247D01*
X734717Y816068D01*
X735330Y816008D01*
X736600D01*
X737213Y816068D01*
X737802Y816247D01*
X738346Y816537D01*
X738822Y816928D01*
X739213Y817404D01*
X739503Y817948D01*
X739682Y818537D01*
X739742Y819150D01*
X739682Y819763D01*
X739503Y820352D01*
X739213Y820896D01*
X738822Y821372D01*
X738346Y821763D01*
X737802Y822053D01*
X737213Y822232D01*
X736600Y822292D01*
D02*
G37*
G36*
X861112Y825500D02*
X850900D01*
Y815288D01*
X851140Y815304D01*
X852623Y815599D01*
X854056Y816086D01*
X855412Y816755D01*
X856670Y817595D01*
X857807Y818593D01*
X858805Y819730D01*
X859645Y820988D01*
X860314Y822344D01*
X860801Y823777D01*
X861096Y825260D01*
X861112Y825500D01*
D02*
G37*
G36*
X1215390Y868332D02*
X1214275Y868259D01*
X1213179Y868041D01*
X1212121Y867682D01*
X1211119Y867188D01*
X1210190Y866567D01*
X1209350Y865830D01*
X1208613Y864990D01*
X1207992Y864061D01*
X1207498Y863059D01*
X1207139Y862001D01*
X1206921Y860905D01*
X1206848Y859790D01*
X1206921Y858675D01*
X1207139Y857579D01*
X1207498Y856521D01*
X1207992Y855519D01*
X1208613Y854590D01*
X1209323Y853780D01*
Y827093D01*
X1209148Y826671D01*
X1208859Y825466D01*
X1208762Y824230D01*
X1208859Y822994D01*
X1209148Y821789D01*
X1209622Y820644D01*
X1210270Y819587D01*
X1211075Y818645D01*
X1212018Y817840D01*
X1213074Y817193D01*
X1214219Y816718D01*
X1215424Y816429D01*
X1216660Y816332D01*
X1217896Y816429D01*
X1219101Y816718D01*
X1220246Y817193D01*
X1221302Y817840D01*
X1222245Y818645D01*
X1223050Y819587D01*
X1223698Y820644D01*
X1224172Y821789D01*
X1224461Y822994D01*
X1224558Y824230D01*
X1224461Y825466D01*
X1224172Y826671D01*
X1223698Y827816D01*
X1223050Y828873D01*
X1222245Y829815D01*
X1221457Y830488D01*
Y853780D01*
X1222167Y854590D01*
X1222788Y855519D01*
X1223282Y856521D01*
X1223641Y857579D01*
X1223859Y858675D01*
X1223932Y859790D01*
X1223859Y860905D01*
X1223641Y862001D01*
X1223282Y863059D01*
X1222788Y864061D01*
X1222167Y864990D01*
X1221430Y865830D01*
X1220590Y866567D01*
X1219661Y867188D01*
X1218659Y867682D01*
X1217601Y868041D01*
X1216505Y868259D01*
X1215390Y868332D01*
D02*
G37*
G36*
X850900Y838251D02*
Y828040D01*
X861112D01*
X861096Y828279D01*
X860801Y829763D01*
X860314Y831196D01*
X859645Y832552D01*
X858805Y833810D01*
X857807Y834948D01*
X856670Y835945D01*
X855412Y836785D01*
X854056Y837454D01*
X852623Y837941D01*
X851140Y838236D01*
X850900Y838251D01*
D02*
G37*
G36*
X848360D02*
X848120Y838236D01*
X846637Y837941D01*
X845204Y837454D01*
X843848Y836785D01*
X842590Y835945D01*
X841452Y834948D01*
X840455Y833810D01*
X839615Y832552D01*
X838946Y831196D01*
X838459Y829763D01*
X838164Y828279D01*
X838148Y828040D01*
X848360D01*
Y838251D01*
D02*
G37*
G36*
X953770Y925983D02*
X952590Y925906D01*
X951429Y925675D01*
X950309Y925295D01*
X949248Y924772D01*
X948265Y924115D01*
X947375Y923335D01*
X946595Y922445D01*
X945938Y921462D01*
X945415Y920401D01*
X945035Y919281D01*
X944804Y918120D01*
X944727Y916940D01*
X944804Y915760D01*
X945035Y914599D01*
X945415Y913479D01*
X945938Y912418D01*
X946595Y911435D01*
X947375Y910545D01*
X948265Y909765D01*
X949248Y909108D01*
X950309Y908585D01*
X951429Y908205D01*
X952590Y907974D01*
X953770Y907897D01*
X954950Y907974D01*
X956111Y908205D01*
X957231Y908585D01*
X958292Y909108D01*
X959275Y909765D01*
X960165Y910545D01*
X960945Y911435D01*
X961602Y912418D01*
X962125Y913479D01*
X962505Y914599D01*
X962736Y915760D01*
X962813Y916940D01*
X962736Y918120D01*
X962505Y919281D01*
X962125Y920401D01*
X961602Y921462D01*
X960945Y922445D01*
X960165Y923335D01*
X959275Y924115D01*
X958292Y924772D01*
X957231Y925295D01*
X956111Y925675D01*
X954950Y925906D01*
X953770Y925983D01*
D02*
G37*
G36*
X850900Y905562D02*
Y895350D01*
X861112D01*
X861096Y895590D01*
X860801Y897073D01*
X860314Y898506D01*
X859645Y899862D01*
X858805Y901120D01*
X857807Y902258D01*
X856670Y903255D01*
X855412Y904095D01*
X854056Y904764D01*
X852623Y905251D01*
X851140Y905546D01*
X850900Y905562D01*
D02*
G37*
G36*
X979170Y925983D02*
X977990Y925906D01*
X976829Y925675D01*
X975709Y925295D01*
X974648Y924772D01*
X973665Y924115D01*
X972775Y923335D01*
X971995Y922445D01*
X971338Y921462D01*
X970815Y920401D01*
X970435Y919281D01*
X970204Y918120D01*
X970127Y916940D01*
X970204Y915760D01*
X970435Y914599D01*
X970815Y913479D01*
X971338Y912418D01*
X971995Y911435D01*
X972775Y910545D01*
X973665Y909765D01*
X974648Y909108D01*
X975709Y908585D01*
X976829Y908205D01*
X977990Y907974D01*
X979170Y907897D01*
X980350Y907974D01*
X981511Y908205D01*
X982631Y908585D01*
X983692Y909108D01*
X984675Y909765D01*
X985565Y910545D01*
X986345Y911435D01*
X987002Y912418D01*
X987525Y913479D01*
X987905Y914599D01*
X988136Y915760D01*
X988213Y916940D01*
X988136Y918120D01*
X987905Y919281D01*
X987525Y920401D01*
X987002Y921462D01*
X986345Y922445D01*
X985565Y923335D01*
X984675Y924115D01*
X983692Y924772D01*
X982631Y925295D01*
X981511Y925675D01*
X980350Y925906D01*
X979170Y925983D01*
D02*
G37*
G36*
X1092200Y960601D02*
X1092200Y960601D01*
X920750D01*
X920750Y960601D01*
X919913Y960518D01*
X919108Y960274D01*
X918366Y959877D01*
X917716Y959344D01*
X917716Y959344D01*
X912636Y954264D01*
X912103Y953614D01*
X911706Y952872D01*
X911462Y952067D01*
X911379Y951230D01*
X911379Y951230D01*
Y948283D01*
X910249Y947882D01*
X910109Y947885D01*
X909365Y948735D01*
X908475Y949515D01*
X907492Y950172D01*
X906431Y950695D01*
X905311Y951075D01*
X904150Y951306D01*
X902970Y951383D01*
X901790Y951306D01*
X900629Y951075D01*
X899509Y950695D01*
X898448Y950172D01*
X897465Y949515D01*
X896575Y948735D01*
X895795Y947845D01*
X895138Y946862D01*
X894615Y945801D01*
X894235Y944681D01*
X894004Y943520D01*
X893927Y942340D01*
X894004Y941160D01*
X894235Y939999D01*
X894615Y938879D01*
X895138Y937818D01*
X895795Y936835D01*
X896575Y935945D01*
X897465Y935165D01*
X898448Y934508D01*
X899509Y933985D01*
X900629Y933605D01*
X901790Y933374D01*
X902970Y933297D01*
X904150Y933374D01*
X905311Y933605D01*
X906431Y933985D01*
X907492Y934508D01*
X907801Y934715D01*
X908611Y933728D01*
X854099Y879217D01*
X840630D01*
X840232Y879165D01*
X839861Y879011D01*
X839543Y878767D01*
X839299Y878449D01*
X839145Y878078D01*
X839093Y877680D01*
Y859680D01*
X839145Y859282D01*
X839299Y858911D01*
X839543Y858593D01*
X839861Y858349D01*
X840232Y858195D01*
X840630Y858143D01*
X858630D01*
X859028Y858195D01*
X859399Y858349D01*
X859717Y858593D01*
X859961Y858911D01*
X860115Y859282D01*
X860167Y859680D01*
Y873149D01*
X918704Y931686D01*
X918704Y931686D01*
X919238Y932336D01*
X919634Y933078D01*
X919878Y933883D01*
X919961Y934720D01*
Y936397D01*
X921091Y936798D01*
X921231Y936795D01*
X921975Y935945D01*
X922865Y935165D01*
X923848Y934508D01*
X924909Y933985D01*
X926029Y933605D01*
X927190Y933374D01*
X928370Y933297D01*
X929550Y933374D01*
X930711Y933605D01*
X931831Y933985D01*
X932892Y934508D01*
X933875Y935165D01*
X934765Y935945D01*
X935545Y936835D01*
X936202Y937818D01*
X936725Y938879D01*
X937105Y939999D01*
X937336Y941160D01*
X937413Y942340D01*
X937336Y943520D01*
X937105Y944681D01*
X936725Y945801D01*
X936202Y946862D01*
X935545Y947845D01*
X934765Y948735D01*
X933875Y949515D01*
X932892Y950172D01*
X931831Y950695D01*
X931671Y950749D01*
X931880Y952019D01*
X950260D01*
X950470Y950749D01*
X950309Y950695D01*
X949248Y950172D01*
X948265Y949515D01*
X947375Y948735D01*
X946595Y947845D01*
X945938Y946862D01*
X945415Y945801D01*
X945035Y944681D01*
X944804Y943520D01*
X944727Y942340D01*
X944804Y941160D01*
X945035Y939999D01*
X945415Y938879D01*
X945938Y937818D01*
X946595Y936835D01*
X947375Y935945D01*
X948265Y935165D01*
X949248Y934508D01*
X950309Y933985D01*
X951429Y933605D01*
X952590Y933374D01*
X953770Y933297D01*
X954950Y933374D01*
X956111Y933605D01*
X957231Y933985D01*
X958292Y934508D01*
X959275Y935165D01*
X960165Y935945D01*
X960945Y936835D01*
X961602Y937818D01*
X962125Y938879D01*
X962505Y939999D01*
X962736Y941160D01*
X962813Y942340D01*
X962736Y943520D01*
X962505Y944681D01*
X962125Y945801D01*
X961602Y946862D01*
X960945Y947845D01*
X960165Y948735D01*
X959275Y949515D01*
X958292Y950172D01*
X957231Y950695D01*
X957070Y950749D01*
X957280Y952019D01*
X975660D01*
X975870Y950749D01*
X975709Y950695D01*
X974648Y950172D01*
X973665Y949515D01*
X972775Y948735D01*
X971995Y947845D01*
X971338Y946862D01*
X970815Y945801D01*
X970435Y944681D01*
X970204Y943520D01*
X970127Y942340D01*
X970204Y941160D01*
X970435Y939999D01*
X970815Y938879D01*
X971338Y937818D01*
X971995Y936835D01*
X972775Y935945D01*
X973665Y935165D01*
X974648Y934508D01*
X975709Y933985D01*
X976829Y933605D01*
X977990Y933374D01*
X979170Y933297D01*
X980350Y933374D01*
X981511Y933605D01*
X982631Y933985D01*
X983692Y934508D01*
X984675Y935165D01*
X985565Y935945D01*
X986345Y936835D01*
X987002Y937818D01*
X987525Y938879D01*
X987905Y939999D01*
X988136Y941160D01*
X988213Y942340D01*
X988136Y943520D01*
X987905Y944681D01*
X987525Y945801D01*
X987002Y946862D01*
X986345Y947845D01*
X985565Y948735D01*
X984675Y949515D01*
X983692Y950172D01*
X982631Y950695D01*
X982470Y950749D01*
X982680Y952019D01*
X1001060D01*
X1001270Y950749D01*
X1001109Y950695D01*
X1000048Y950172D01*
X999065Y949515D01*
X998175Y948735D01*
X997395Y947845D01*
X996738Y946862D01*
X996215Y945801D01*
X995835Y944681D01*
X995604Y943520D01*
X995527Y942340D01*
X995604Y941160D01*
X995835Y939999D01*
X996215Y938879D01*
X996738Y937818D01*
X997395Y936835D01*
X998175Y935945D01*
X999065Y935165D01*
X1000048Y934508D01*
X1001109Y933985D01*
X1002229Y933605D01*
X1003390Y933374D01*
X1004570Y933297D01*
X1005750Y933374D01*
X1006911Y933605D01*
X1008031Y933985D01*
X1009092Y934508D01*
X1010075Y935165D01*
X1010965Y935945D01*
X1011745Y936835D01*
X1012402Y937818D01*
X1012925Y938879D01*
X1013305Y939999D01*
X1013536Y941160D01*
X1013613Y942340D01*
X1013536Y943520D01*
X1013305Y944681D01*
X1012925Y945801D01*
X1012402Y946862D01*
X1011745Y947845D01*
X1010965Y948735D01*
X1010075Y949515D01*
X1009092Y950172D01*
X1008031Y950695D01*
X1007870Y950749D01*
X1008080Y952019D01*
X1026460D01*
X1026669Y950749D01*
X1026509Y950695D01*
X1025448Y950172D01*
X1024465Y949515D01*
X1023575Y948735D01*
X1022795Y947845D01*
X1022138Y946862D01*
X1021615Y945801D01*
X1021235Y944681D01*
X1021004Y943520D01*
X1020927Y942340D01*
X1021004Y941160D01*
X1021235Y939999D01*
X1021615Y938879D01*
X1022138Y937818D01*
X1022795Y936835D01*
X1023575Y935945D01*
X1024465Y935165D01*
X1025448Y934508D01*
X1026509Y933985D01*
X1026107Y932781D01*
X1019930D01*
X1019093Y932698D01*
X1018288Y932454D01*
X1017546Y932057D01*
X1016896Y931524D01*
X1016896Y931524D01*
X1014236Y928864D01*
X1013702Y928214D01*
X1013306Y927472D01*
X1013062Y926667D01*
X1012979Y925830D01*
X1012979Y925830D01*
Y922883D01*
X1011849Y922482D01*
X1011709Y922485D01*
X1010965Y923335D01*
X1010075Y924115D01*
X1009092Y924772D01*
X1008031Y925295D01*
X1006911Y925675D01*
X1005750Y925906D01*
X1004570Y925983D01*
X1003390Y925906D01*
X1002229Y925675D01*
X1001109Y925295D01*
X1000048Y924772D01*
X999065Y924115D01*
X998175Y923335D01*
X997395Y922445D01*
X996738Y921462D01*
X996215Y920401D01*
X995835Y919281D01*
X995604Y918120D01*
X995527Y916940D01*
X995604Y915760D01*
X995835Y914599D01*
X996215Y913479D01*
X996738Y912418D01*
X997395Y911435D01*
X998175Y910545D01*
X999065Y909765D01*
X1000048Y909108D01*
X1001109Y908585D01*
X1002229Y908205D01*
X1003390Y907974D01*
X1004570Y907897D01*
X1005750Y907974D01*
X1006911Y908205D01*
X1008031Y908585D01*
X1009092Y909108D01*
X1010075Y909765D01*
X1010965Y910545D01*
X1011273Y910897D01*
X1012610Y910496D01*
X1012706Y909808D01*
X969909Y867011D01*
X969302Y867063D01*
X968532Y867362D01*
X968451Y867559D01*
X968207Y867877D01*
X967889Y868121D01*
X967518Y868275D01*
X967120Y868327D01*
X953120D01*
X952722Y868275D01*
X952351Y868121D01*
X952033Y867877D01*
X951789Y867559D01*
X951635Y867188D01*
X951583Y866790D01*
Y852790D01*
X951635Y852392D01*
X951789Y852021D01*
X952033Y851703D01*
X952351Y851459D01*
X952722Y851305D01*
X953120Y851253D01*
X954053D01*
Y807720D01*
X954053Y807720D01*
X954128Y806771D01*
X954350Y805845D01*
X954715Y804966D01*
X955212Y804154D01*
X955830Y803430D01*
X956090Y803171D01*
X956129Y802674D01*
X956418Y801469D01*
X955323Y800795D01*
X954603Y801410D01*
X953546Y802057D01*
X952401Y802532D01*
X952265Y802564D01*
X934437Y820393D01*
Y864929D01*
X934760Y865307D01*
X935407Y866364D01*
X935882Y867509D01*
X936171Y868714D01*
X936268Y869950D01*
X936171Y871186D01*
X935882Y872391D01*
X935407Y873536D01*
X934760Y874593D01*
X933955Y875535D01*
X933012Y876340D01*
X931956Y876988D01*
X930811Y877462D01*
X929606Y877751D01*
X928370Y877848D01*
X927134Y877751D01*
X925929Y877462D01*
X924784Y876988D01*
X923727Y876340D01*
X922785Y875535D01*
X921980Y874593D01*
X921332Y873536D01*
X920858Y872391D01*
X920569Y871186D01*
X920472Y869950D01*
X920569Y868714D01*
X920858Y867509D01*
X921332Y866364D01*
X921980Y865307D01*
X922303Y864929D01*
Y817880D01*
X922303Y817880D01*
X922378Y816931D01*
X922600Y816005D01*
X922964Y815126D01*
X923462Y814314D01*
X924080Y813590D01*
X925473Y812197D01*
X924784Y811090D01*
X924326Y811245D01*
X923290Y811451D01*
Y803910D01*
X930832D01*
X930626Y804946D01*
X930470Y805405D01*
X931577Y806093D01*
X942105Y795566D01*
X942062Y795020D01*
X942159Y793784D01*
X942448Y792579D01*
X942923Y791434D01*
X943570Y790378D01*
X944375Y789435D01*
X945318Y788630D01*
X946374Y787982D01*
X947519Y787508D01*
X948724Y787219D01*
X949960Y787122D01*
X951196Y787219D01*
X952401Y787508D01*
X953546Y787982D01*
X954603Y788630D01*
X955545Y789435D01*
X956350Y790378D01*
X956998Y791434D01*
X957472Y792579D01*
X957761Y793784D01*
X957858Y795020D01*
X957761Y796256D01*
X957472Y797461D01*
X958567Y798136D01*
X959287Y797520D01*
X960344Y796872D01*
X961489Y796398D01*
X962694Y796109D01*
X963930Y796012D01*
X965166Y796109D01*
X966371Y796398D01*
X967516Y796872D01*
X968572Y797520D01*
X969515Y798325D01*
X970320Y799268D01*
X970967Y800324D01*
X971442Y801469D01*
X971731Y802674D01*
X971828Y803910D01*
X971731Y805146D01*
X971442Y806351D01*
X970967Y807496D01*
X970320Y808552D01*
X969515Y809495D01*
X968572Y810300D01*
X967516Y810947D01*
X966371Y811422D01*
X966187Y811466D01*
Y818933D01*
X966656Y819259D01*
X967457Y819472D01*
X968177Y818856D01*
X969234Y818208D01*
X970379Y817734D01*
X971584Y817445D01*
X972820Y817348D01*
X974056Y817445D01*
X975261Y817734D01*
X976406Y818208D01*
X977462Y818856D01*
X978405Y819661D01*
X978783Y820103D01*
X979447Y820154D01*
X980157Y820011D01*
X980282Y819932D01*
X980612Y819394D01*
X981230Y818670D01*
X981954Y818052D01*
X982766Y817554D01*
X983645Y817190D01*
X984571Y816968D01*
X985520Y816893D01*
X986469Y816968D01*
X987395Y817190D01*
X988274Y817554D01*
X988595Y817751D01*
X988814Y817699D01*
X990049Y817602D01*
X991285Y817699D01*
X992490Y817988D01*
X993635Y818463D01*
X994692Y819110D01*
X995634Y819915D01*
X996190Y820566D01*
X997116Y820620D01*
X997665Y820428D01*
X998180Y819587D01*
X998985Y818645D01*
X999928Y817840D01*
X1000984Y817193D01*
X1002129Y816718D01*
X1003334Y816429D01*
X1004570Y816332D01*
X1005806Y816429D01*
X1007011Y816718D01*
X1008156Y817193D01*
X1009212Y817840D01*
X1010155Y818645D01*
X1010887Y819503D01*
X1011400Y819940D01*
X1015210Y823750D01*
X1015828Y824474D01*
X1016326Y825286D01*
X1016690Y826165D01*
X1016912Y827091D01*
X1016987Y828040D01*
X1016987Y828040D01*
Y853780D01*
X1017697Y854590D01*
X1018318Y855519D01*
X1018812Y856521D01*
X1019171Y857579D01*
X1019389Y858675D01*
X1019462Y859790D01*
X1019389Y860905D01*
X1019171Y862001D01*
X1018812Y863059D01*
X1018318Y864061D01*
X1017697Y864990D01*
X1016960Y865830D01*
X1016120Y866567D01*
X1015191Y867188D01*
X1014189Y867682D01*
X1013131Y868041D01*
X1012035Y868259D01*
X1010920Y868332D01*
X1009805Y868259D01*
X1008709Y868041D01*
X1007651Y867682D01*
X1006649Y867188D01*
X1005720Y866567D01*
X1004880Y865830D01*
X1004143Y864990D01*
X1003522Y864061D01*
X1003028Y863059D01*
X1002669Y862001D01*
X1002451Y860905D01*
X1002378Y859790D01*
X1002451Y858675D01*
X1002669Y857579D01*
X1003028Y856521D01*
X1003522Y855519D01*
X1004143Y854590D01*
X1004853Y853780D01*
Y832390D01*
X1004570Y832128D01*
X1003334Y832031D01*
X1002129Y831742D01*
X1000984Y831267D01*
X999928Y830620D01*
X998985Y829815D01*
X998429Y829164D01*
X997503Y829110D01*
X996954Y829302D01*
X996439Y830143D01*
X995634Y831085D01*
X994692Y831890D01*
X993635Y832538D01*
X992490Y833012D01*
X991587Y833229D01*
Y853780D01*
X992297Y854590D01*
X992918Y855519D01*
X993412Y856521D01*
X993771Y857579D01*
X993989Y858675D01*
X994062Y859790D01*
X993989Y860905D01*
X993771Y862001D01*
X993412Y863059D01*
X992918Y864061D01*
X992297Y864990D01*
X991560Y865830D01*
X990720Y866567D01*
X989791Y867188D01*
X988789Y867682D01*
X987731Y868041D01*
X986635Y868259D01*
X985520Y868332D01*
X985137Y868307D01*
X984577Y869543D01*
X1020304Y905270D01*
X1020304Y905270D01*
X1020837Y905920D01*
X1021234Y906662D01*
X1021478Y907467D01*
X1021561Y908304D01*
X1021561Y908304D01*
Y910997D01*
X1022691Y911398D01*
X1022831Y911395D01*
X1023575Y910545D01*
X1024465Y909765D01*
X1025448Y909108D01*
X1026509Y908585D01*
X1027629Y908205D01*
X1028790Y907974D01*
X1029970Y907897D01*
X1031150Y907974D01*
X1032311Y908205D01*
X1033431Y908585D01*
X1034492Y909108D01*
X1035475Y909765D01*
X1036365Y910545D01*
X1037145Y911435D01*
X1037802Y912418D01*
X1038325Y913479D01*
X1038705Y914599D01*
X1038936Y915760D01*
X1039013Y916940D01*
X1038936Y918120D01*
X1038705Y919281D01*
X1038325Y920401D01*
X1037802Y921462D01*
X1037145Y922445D01*
X1036720Y922929D01*
X1037264Y924199D01*
X1048076D01*
X1048620Y922929D01*
X1048195Y922445D01*
X1047538Y921462D01*
X1047015Y920401D01*
X1046635Y919281D01*
X1046404Y918120D01*
X1046327Y916940D01*
X1046404Y915760D01*
X1046635Y914599D01*
X1047015Y913479D01*
X1047538Y912418D01*
X1048195Y911435D01*
X1048975Y910545D01*
X1049865Y909765D01*
X1050848Y909108D01*
X1051909Y908585D01*
X1053029Y908205D01*
X1054190Y907974D01*
X1055370Y907897D01*
X1056550Y907974D01*
X1057711Y908205D01*
X1058831Y908585D01*
X1059892Y909108D01*
X1060875Y909765D01*
X1061765Y910545D01*
X1062545Y911435D01*
X1063202Y912418D01*
X1063725Y913479D01*
X1064105Y914599D01*
X1064336Y915760D01*
X1064413Y916940D01*
X1064336Y918120D01*
X1064105Y919281D01*
X1063725Y920401D01*
X1063202Y921462D01*
X1062545Y922445D01*
X1062120Y922929D01*
X1062664Y924199D01*
X1073476D01*
X1074020Y922929D01*
X1073595Y922445D01*
X1072938Y921462D01*
X1072415Y920401D01*
X1072035Y919281D01*
X1071804Y918120D01*
X1071727Y916940D01*
X1071804Y915760D01*
X1072035Y914599D01*
X1072415Y913479D01*
X1072938Y912418D01*
X1073595Y911435D01*
X1074375Y910545D01*
X1075265Y909765D01*
X1076248Y909108D01*
X1077309Y908585D01*
X1078429Y908205D01*
X1079590Y907974D01*
X1080770Y907897D01*
X1081950Y907974D01*
X1083111Y908205D01*
X1084231Y908585D01*
X1085292Y909108D01*
X1086275Y909765D01*
X1087165Y910545D01*
X1087945Y911435D01*
X1088602Y912418D01*
X1089125Y913479D01*
X1089505Y914599D01*
X1089736Y915760D01*
X1089813Y916940D01*
X1089736Y918120D01*
X1089505Y919281D01*
X1089125Y920401D01*
X1088602Y921462D01*
X1087945Y922445D01*
X1087520Y922929D01*
X1088064Y924199D01*
X1098876D01*
X1099420Y922929D01*
X1098995Y922445D01*
X1098338Y921462D01*
X1097815Y920401D01*
X1097435Y919281D01*
X1097204Y918120D01*
X1097127Y916940D01*
X1097204Y915760D01*
X1097435Y914599D01*
X1097815Y913479D01*
X1098338Y912418D01*
X1098995Y911435D01*
X1099775Y910545D01*
X1100665Y909765D01*
X1101648Y909108D01*
X1102709Y908585D01*
X1103829Y908205D01*
X1104990Y907974D01*
X1106170Y907897D01*
X1107350Y907974D01*
X1108511Y908205D01*
X1109631Y908585D01*
X1110692Y909108D01*
X1111675Y909765D01*
X1112565Y910545D01*
X1113345Y911435D01*
X1114002Y912418D01*
X1114525Y913479D01*
X1114905Y914599D01*
X1115136Y915760D01*
X1115213Y916940D01*
X1115136Y918120D01*
X1114905Y919281D01*
X1114525Y920401D01*
X1114002Y921462D01*
X1113345Y922445D01*
X1112920Y922929D01*
X1113464Y924199D01*
X1122533D01*
Y909440D01*
X1122585Y909042D01*
X1122739Y908671D01*
X1122983Y908353D01*
X1123301Y908109D01*
X1123672Y907955D01*
X1124070Y907903D01*
X1139070D01*
X1139468Y907955D01*
X1139839Y908109D01*
X1140157Y908353D01*
X1140401Y908671D01*
X1140555Y909042D01*
X1140607Y909440D01*
Y924440D01*
X1140555Y924838D01*
X1140401Y925209D01*
X1140157Y925527D01*
X1139839Y925771D01*
X1139468Y925925D01*
X1139070Y925977D01*
X1130554D01*
X1130068Y927150D01*
X1134604Y931686D01*
X1134604Y931686D01*
X1135137Y932336D01*
X1135534Y933078D01*
X1135602Y933303D01*
X1139070D01*
X1139468Y933355D01*
X1139839Y933509D01*
X1140157Y933753D01*
X1140401Y934071D01*
X1140555Y934442D01*
X1140607Y934840D01*
Y949840D01*
X1140555Y950238D01*
X1140401Y950609D01*
X1140157Y950927D01*
X1139839Y951171D01*
X1139468Y951325D01*
X1139070Y951377D01*
X1124070D01*
X1123672Y951325D01*
X1123301Y951171D01*
X1122983Y950927D01*
X1122739Y950609D01*
X1122585Y950238D01*
X1122533Y949840D01*
Y934840D01*
X1122585Y934442D01*
X1122739Y934071D01*
X1122755Y934051D01*
X1122415Y933057D01*
X1122190Y932781D01*
X1110033D01*
X1109631Y933985D01*
X1110692Y934508D01*
X1111675Y935165D01*
X1112565Y935945D01*
X1113345Y936835D01*
X1114002Y937818D01*
X1114525Y938879D01*
X1114905Y939999D01*
X1115136Y941160D01*
X1115213Y942340D01*
X1115136Y943520D01*
X1114905Y944681D01*
X1114525Y945801D01*
X1114002Y946862D01*
X1113345Y947845D01*
X1112565Y948735D01*
X1111675Y949515D01*
X1110692Y950172D01*
X1109631Y950695D01*
X1108511Y951075D01*
X1107350Y951306D01*
X1106170Y951383D01*
X1104990Y951306D01*
X1103829Y951075D01*
X1103586Y950992D01*
X1095234Y959344D01*
X1094584Y959877D01*
X1093842Y960274D01*
X1093037Y960518D01*
X1092200Y960601D01*
D02*
G37*
G36*
X848360Y905562D02*
X848120Y905546D01*
X846637Y905251D01*
X845204Y904764D01*
X843848Y904095D01*
X842590Y903255D01*
X841452Y902258D01*
X840455Y901120D01*
X839615Y899862D01*
X838946Y898506D01*
X838459Y897073D01*
X838164Y895590D01*
X838148Y895350D01*
X848360D01*
Y905562D01*
D02*
G37*
G36*
X769620Y861618D02*
Y850900D01*
X780338D01*
X780333Y850980D01*
X780107Y852313D01*
X779732Y853613D01*
X779215Y854862D01*
X778561Y856046D01*
X777778Y857149D01*
X776877Y858157D01*
X775869Y859058D01*
X774766Y859841D01*
X773582Y860495D01*
X772333Y861012D01*
X771033Y861387D01*
X769700Y861613D01*
X769620Y861618D01*
D02*
G37*
G36*
X767080D02*
X767000Y861613D01*
X765667Y861387D01*
X764367Y861012D01*
X763118Y860495D01*
X761934Y859841D01*
X760831Y859058D01*
X759823Y858157D01*
X758922Y857149D01*
X758139Y856046D01*
X757485Y854862D01*
X756968Y853613D01*
X756593Y852313D01*
X756367Y850980D01*
X756362Y850900D01*
X767080D01*
Y861618D01*
D02*
G37*
G36*
X848360Y892810D02*
X838148D01*
X838164Y892570D01*
X838459Y891087D01*
X838946Y889654D01*
X839615Y888298D01*
X840455Y887040D01*
X841452Y885902D01*
X842590Y884905D01*
X843848Y884065D01*
X845204Y883396D01*
X846637Y882909D01*
X848120Y882614D01*
X848360Y882598D01*
Y892810D01*
D02*
G37*
G36*
X777850Y911467D02*
X758850D01*
X758452Y911415D01*
X758081Y911261D01*
X757763Y911017D01*
X757519Y910699D01*
X757365Y910328D01*
X757313Y909930D01*
Y890930D01*
X757365Y890532D01*
X757519Y890161D01*
X757763Y889843D01*
X758081Y889599D01*
X758452Y889445D01*
X758850Y889393D01*
X777850D01*
X778248Y889445D01*
X778619Y889599D01*
X778937Y889843D01*
X779181Y890161D01*
X779335Y890532D01*
X779387Y890930D01*
Y909930D01*
X779335Y910328D01*
X779181Y910699D01*
X778937Y911017D01*
X778619Y911261D01*
X778248Y911415D01*
X777850Y911467D01*
D02*
G37*
G36*
X861112Y892810D02*
X850900D01*
Y882598D01*
X851140Y882614D01*
X852623Y882909D01*
X854056Y883396D01*
X855412Y884065D01*
X856670Y884905D01*
X857807Y885902D01*
X858805Y887040D01*
X859645Y888298D01*
X860314Y889654D01*
X860801Y891087D01*
X861096Y892570D01*
X861112Y892810D01*
D02*
G37*
G36*
X1214120Y768470D02*
X1209997D01*
X1210105Y768023D01*
X1210439Y767217D01*
X1210894Y766473D01*
X1211460Y765810D01*
X1212124Y765244D01*
X1212867Y764789D01*
X1213673Y764455D01*
X1214120Y764347D01*
Y768470D01*
D02*
G37*
G36*
X1013773D02*
X1009650D01*
Y764347D01*
X1010097Y764455D01*
X1010903Y764789D01*
X1011646Y765244D01*
X1012309Y765810D01*
X1012876Y766473D01*
X1013331Y767217D01*
X1013665Y768023D01*
X1013773Y768470D01*
D02*
G37*
G36*
X1243643D02*
X1239520D01*
Y764347D01*
X1239967Y764455D01*
X1240773Y764789D01*
X1241516Y765244D01*
X1242179Y765810D01*
X1242746Y766473D01*
X1243201Y767217D01*
X1243535Y768023D01*
X1243643Y768470D01*
D02*
G37*
G36*
X1102360Y779702D02*
Y772160D01*
X1109902D01*
X1109696Y773196D01*
X1109321Y774299D01*
X1108805Y775345D01*
X1108158Y776313D01*
X1107390Y777190D01*
X1106514Y777958D01*
X1105545Y778605D01*
X1104499Y779121D01*
X1103396Y779495D01*
X1102360Y779702D01*
D02*
G37*
G36*
X1099820D02*
X1098784Y779495D01*
X1097681Y779121D01*
X1096635Y778605D01*
X1095667Y777958D01*
X1094790Y777190D01*
X1094022Y776313D01*
X1093374Y775345D01*
X1092859Y774299D01*
X1092485Y773196D01*
X1092279Y772160D01*
X1099820D01*
Y779702D01*
D02*
G37*
G36*
X984250Y768470D02*
X980127D01*
X980235Y768023D01*
X980569Y767217D01*
X981024Y766473D01*
X981590Y765810D01*
X982254Y765244D01*
X982997Y764789D01*
X983803Y764455D01*
X984250Y764347D01*
Y768470D01*
D02*
G37*
G36*
X848360Y770941D02*
X848120Y770926D01*
X846637Y770631D01*
X845204Y770144D01*
X843848Y769475D01*
X842590Y768635D01*
X841452Y767637D01*
X840455Y766500D01*
X839615Y765242D01*
X838946Y763886D01*
X838459Y762453D01*
X838164Y760969D01*
X838148Y760730D01*
X848360D01*
Y770941D01*
D02*
G37*
G36*
X861112Y758190D02*
X850900D01*
Y747979D01*
X851140Y747994D01*
X852623Y748289D01*
X854056Y748776D01*
X855412Y749445D01*
X856670Y750285D01*
X857807Y751283D01*
X858805Y752420D01*
X859645Y753678D01*
X860314Y755034D01*
X860801Y756467D01*
X861096Y757951D01*
X861112Y758190D01*
D02*
G37*
G36*
X850900Y770941D02*
Y760730D01*
X861112D01*
X861096Y760969D01*
X860801Y762453D01*
X860314Y763886D01*
X859645Y765242D01*
X858805Y766500D01*
X857807Y767637D01*
X856670Y768635D01*
X855412Y769475D01*
X854056Y770144D01*
X852623Y770631D01*
X851140Y770926D01*
X850900Y770941D01*
D02*
G37*
G36*
X1109902Y769620D02*
X1102360D01*
Y762078D01*
X1103396Y762284D01*
X1104499Y762659D01*
X1105545Y763175D01*
X1106514Y763822D01*
X1107390Y764590D01*
X1108158Y765467D01*
X1108805Y766435D01*
X1109321Y767481D01*
X1109696Y768584D01*
X1109902Y769620D01*
D02*
G37*
G36*
X1099820D02*
X1092279D01*
X1092485Y768584D01*
X1092859Y767481D01*
X1093374Y766435D01*
X1094022Y765467D01*
X1094790Y764590D01*
X1095667Y763822D01*
X1096635Y763175D01*
X1097681Y762659D01*
X1098784Y762284D01*
X1099820Y762078D01*
Y769620D01*
D02*
G37*
G36*
X1236980Y797992D02*
X1236533Y797885D01*
X1235727Y797551D01*
X1234984Y797096D01*
X1234321Y796529D01*
X1233754Y795866D01*
X1233299Y795123D01*
X1233222Y794939D01*
X1231848D01*
X1231771Y795123D01*
X1231316Y795866D01*
X1230750Y796529D01*
X1230086Y797096D01*
X1229343Y797551D01*
X1228537Y797885D01*
X1228090Y797992D01*
Y792600D01*
X1225550D01*
Y797992D01*
X1225103Y797885D01*
X1224297Y797551D01*
X1223554Y797096D01*
X1222890Y796529D01*
X1222324Y795866D01*
X1221869Y795123D01*
X1221792Y794939D01*
X1220418D01*
X1220341Y795123D01*
X1219886Y795866D01*
X1219320Y796529D01*
X1218656Y797096D01*
X1217913Y797551D01*
X1217107Y797885D01*
X1216660Y797992D01*
Y792600D01*
X1215390D01*
Y791330D01*
X1209997D01*
X1210105Y790883D01*
X1210439Y790077D01*
X1210894Y789333D01*
X1211460Y788670D01*
X1212124Y788104D01*
X1212867Y787648D01*
X1213051Y787572D01*
Y786198D01*
X1212867Y786121D01*
X1212124Y785666D01*
X1211460Y785099D01*
X1210894Y784436D01*
X1210439Y783693D01*
X1210105Y782887D01*
X1209997Y782440D01*
X1215390D01*
Y779900D01*
X1209997D01*
X1210105Y779453D01*
X1210439Y778647D01*
X1210894Y777904D01*
X1211460Y777240D01*
X1212124Y776674D01*
X1212867Y776218D01*
X1213051Y776142D01*
Y774768D01*
X1212867Y774691D01*
X1212124Y774236D01*
X1211460Y773669D01*
X1210894Y773006D01*
X1210439Y772263D01*
X1210105Y771457D01*
X1209997Y771010D01*
X1215390D01*
Y769740D01*
X1216660D01*
Y764347D01*
X1217107Y764455D01*
X1217913Y764789D01*
X1218656Y765244D01*
X1219320Y765810D01*
X1219886Y766473D01*
X1220341Y767217D01*
X1220418Y767401D01*
X1221792D01*
X1221869Y767217D01*
X1222324Y766473D01*
X1222890Y765810D01*
X1223554Y765244D01*
X1224297Y764789D01*
X1225103Y764455D01*
X1225550Y764347D01*
Y769740D01*
X1228090D01*
Y764347D01*
X1228537Y764455D01*
X1229343Y764789D01*
X1230086Y765244D01*
X1230750Y765810D01*
X1231316Y766473D01*
X1231771Y767217D01*
X1231848Y767401D01*
X1233222D01*
X1233299Y767217D01*
X1233754Y766473D01*
X1234321Y765810D01*
X1234984Y765244D01*
X1235727Y764789D01*
X1236533Y764455D01*
X1236980Y764347D01*
Y769740D01*
X1238250D01*
Y771010D01*
X1243643D01*
X1243535Y771457D01*
X1243201Y772263D01*
X1242746Y773006D01*
X1242179Y773669D01*
X1241516Y774236D01*
X1240773Y774691D01*
X1240589Y774768D01*
Y776142D01*
X1240773Y776218D01*
X1241516Y776674D01*
X1242179Y777240D01*
X1242746Y777904D01*
X1243201Y778647D01*
X1243535Y779453D01*
X1243643Y779900D01*
X1238250D01*
Y782440D01*
X1243643D01*
X1243535Y782887D01*
X1243201Y783693D01*
X1242746Y784436D01*
X1242179Y785099D01*
X1241516Y785666D01*
X1240773Y786121D01*
X1240589Y786198D01*
Y787572D01*
X1240773Y787648D01*
X1241516Y788104D01*
X1242179Y788670D01*
X1242746Y789333D01*
X1243201Y790077D01*
X1243535Y790883D01*
X1243643Y791330D01*
X1238250D01*
Y792600D01*
X1236980D01*
Y797992D01*
D02*
G37*
G36*
X1007110D02*
X1006663Y797885D01*
X1005857Y797551D01*
X1005114Y797096D01*
X1004451Y796529D01*
X1003884Y795866D01*
X1003429Y795123D01*
X1003352Y794939D01*
X1001978D01*
X1001901Y795123D01*
X1001446Y795866D01*
X1000880Y796529D01*
X1000216Y797096D01*
X999473Y797551D01*
X998667Y797885D01*
X998220Y797992D01*
Y792600D01*
X995680D01*
Y797992D01*
X995233Y797885D01*
X994427Y797551D01*
X993684Y797096D01*
X993020Y796529D01*
X992454Y795866D01*
X991999Y795123D01*
X991922Y794939D01*
X990548D01*
X990471Y795123D01*
X990016Y795866D01*
X989449Y796529D01*
X988786Y797096D01*
X988043Y797551D01*
X987237Y797885D01*
X986790Y797992D01*
Y792600D01*
X985520D01*
Y791330D01*
X980127D01*
X980235Y790883D01*
X980569Y790077D01*
X981024Y789333D01*
X981590Y788670D01*
X982254Y788104D01*
X982997Y787648D01*
X983181Y787572D01*
Y786198D01*
X982997Y786121D01*
X982254Y785666D01*
X981590Y785099D01*
X981024Y784436D01*
X980569Y783693D01*
X980235Y782887D01*
X980127Y782440D01*
X985520D01*
Y779900D01*
X980127D01*
X980235Y779453D01*
X980569Y778647D01*
X981024Y777904D01*
X981590Y777240D01*
X982254Y776674D01*
X982997Y776218D01*
X983181Y776142D01*
Y774768D01*
X982997Y774691D01*
X982254Y774236D01*
X981590Y773669D01*
X981024Y773006D01*
X980569Y772263D01*
X980235Y771457D01*
X980127Y771010D01*
X985520D01*
Y769740D01*
X986790D01*
Y764347D01*
X987237Y764455D01*
X988043Y764789D01*
X988786Y765244D01*
X989449Y765810D01*
X990016Y766473D01*
X990471Y767217D01*
X990548Y767401D01*
X991922D01*
X991999Y767217D01*
X992454Y766473D01*
X993020Y765810D01*
X993684Y765244D01*
X994427Y764789D01*
X995233Y764455D01*
X995680Y764347D01*
Y769740D01*
X998220D01*
Y764347D01*
X998667Y764455D01*
X999473Y764789D01*
X1000216Y765244D01*
X1000880Y765810D01*
X1001446Y766473D01*
X1001901Y767217D01*
X1001978Y767401D01*
X1003352D01*
X1003429Y767217D01*
X1003884Y766473D01*
X1004451Y765810D01*
X1005114Y765244D01*
X1005857Y764789D01*
X1006663Y764455D01*
X1007110Y764347D01*
Y769740D01*
X1008380D01*
Y771010D01*
X1013773D01*
X1013665Y771457D01*
X1013331Y772263D01*
X1012876Y773006D01*
X1012309Y773669D01*
X1011646Y774236D01*
X1010903Y774691D01*
X1010719Y774768D01*
Y776142D01*
X1010903Y776218D01*
X1011646Y776674D01*
X1012309Y777240D01*
X1012876Y777904D01*
X1013331Y778647D01*
X1013665Y779453D01*
X1013773Y779900D01*
X1008380D01*
Y782440D01*
X1013773D01*
X1013665Y782887D01*
X1013331Y783693D01*
X1012876Y784436D01*
X1012309Y785099D01*
X1011646Y785666D01*
X1010903Y786121D01*
X1010719Y786198D01*
Y787572D01*
X1010903Y787648D01*
X1011646Y788104D01*
X1012309Y788670D01*
X1012876Y789333D01*
X1013331Y790077D01*
X1013665Y790883D01*
X1013773Y791330D01*
X1008380D01*
Y792600D01*
X1007110D01*
Y797992D01*
D02*
G37*
G36*
X920750Y811451D02*
X919714Y811245D01*
X918611Y810871D01*
X917565Y810356D01*
X916597Y809708D01*
X915720Y808940D01*
X914952Y808064D01*
X914305Y807095D01*
X913789Y806049D01*
X913415Y804946D01*
X913208Y803910D01*
X920750D01*
Y811451D01*
D02*
G37*
G36*
X848360Y825500D02*
X838148D01*
X838164Y825260D01*
X838459Y823777D01*
X838946Y822344D01*
X839615Y820988D01*
X840455Y819730D01*
X841452Y818593D01*
X842590Y817595D01*
X843848Y816755D01*
X845204Y816086D01*
X846637Y815599D01*
X848120Y815304D01*
X848360Y815288D01*
Y825500D01*
D02*
G37*
G36*
X1240790Y868332D02*
X1239675Y868259D01*
X1238579Y868041D01*
X1237521Y867682D01*
X1236519Y867188D01*
X1235590Y866567D01*
X1234750Y865830D01*
X1234013Y864990D01*
X1233392Y864061D01*
X1232898Y863059D01*
X1232539Y862001D01*
X1232321Y860905D01*
X1232248Y859790D01*
X1232321Y858675D01*
X1232539Y857579D01*
X1232898Y856521D01*
X1233392Y855519D01*
X1234013Y854590D01*
X1234723Y853780D01*
Y830553D01*
X1233701Y829530D01*
X1233204Y829491D01*
X1231999Y829202D01*
X1230854Y828727D01*
X1229798Y828080D01*
X1228855Y827275D01*
X1228050Y826332D01*
X1227402Y825276D01*
X1226928Y824131D01*
X1226639Y822926D01*
X1226542Y821690D01*
X1226639Y820454D01*
X1226928Y819249D01*
X1227402Y818104D01*
X1228050Y817048D01*
X1228855Y816105D01*
X1229798Y815300D01*
X1230854Y814652D01*
X1231999Y814178D01*
X1233204Y813889D01*
X1234440Y813792D01*
X1235676Y813889D01*
X1236881Y814178D01*
X1238026Y814652D01*
X1239082Y815300D01*
X1240025Y816105D01*
X1240830Y817048D01*
X1241478Y818104D01*
X1241952Y819249D01*
X1242241Y820454D01*
X1242280Y820951D01*
X1245080Y823750D01*
X1245080Y823750D01*
X1245698Y824474D01*
X1246196Y825286D01*
X1246560Y826165D01*
X1246782Y827091D01*
X1246857Y828040D01*
Y853780D01*
X1247567Y854590D01*
X1248188Y855519D01*
X1248682Y856521D01*
X1249041Y857579D01*
X1249259Y858675D01*
X1249332Y859790D01*
X1249259Y860905D01*
X1249041Y862001D01*
X1248682Y863059D01*
X1248188Y864061D01*
X1247567Y864990D01*
X1246830Y865830D01*
X1245990Y866567D01*
X1245061Y867188D01*
X1244059Y867682D01*
X1243001Y868041D01*
X1241905Y868259D01*
X1240790Y868332D01*
D02*
G37*
G36*
X1239520Y797992D02*
Y793870D01*
X1243643D01*
X1243535Y794317D01*
X1243201Y795123D01*
X1242746Y795866D01*
X1242179Y796529D01*
X1241516Y797096D01*
X1240773Y797551D01*
X1239967Y797885D01*
X1239520Y797992D01*
D02*
G37*
G36*
X858630Y811907D02*
X840630D01*
X840232Y811855D01*
X839861Y811701D01*
X839543Y811457D01*
X839299Y811139D01*
X839145Y810768D01*
X839093Y810370D01*
Y792370D01*
X839145Y791972D01*
X839299Y791601D01*
X839543Y791283D01*
X839861Y791039D01*
X840232Y790885D01*
X840630Y790833D01*
X858630D01*
X859028Y790885D01*
X859399Y791039D01*
X859717Y791283D01*
X859961Y791601D01*
X860115Y791972D01*
X860167Y792370D01*
Y810370D01*
X860115Y810768D01*
X859961Y811139D01*
X859717Y811457D01*
X859399Y811701D01*
X859028Y811855D01*
X858630Y811907D01*
D02*
G37*
G36*
X920750Y801370D02*
X913208D01*
X913415Y800334D01*
X913789Y799231D01*
X914305Y798185D01*
X914952Y797216D01*
X915720Y796340D01*
X916597Y795572D01*
X917565Y794924D01*
X918611Y794409D01*
X919714Y794035D01*
X920750Y793829D01*
Y801370D01*
D02*
G37*
G36*
X930832D02*
X923290D01*
Y793829D01*
X924326Y794035D01*
X925429Y794409D01*
X926475Y794924D01*
X927443Y795572D01*
X928320Y796340D01*
X929088Y797216D01*
X929735Y798185D01*
X930251Y799231D01*
X930626Y800334D01*
X930832Y801370D01*
D02*
G37*
G36*
X1009650Y797992D02*
Y793870D01*
X1013773D01*
X1013665Y794317D01*
X1013331Y795123D01*
X1012876Y795866D01*
X1012309Y796529D01*
X1011646Y797096D01*
X1010903Y797551D01*
X1010097Y797885D01*
X1009650Y797992D01*
D02*
G37*
G36*
X984250D02*
X983803Y797885D01*
X982997Y797551D01*
X982254Y797096D01*
X981590Y796529D01*
X981024Y795866D01*
X980569Y795123D01*
X980235Y794317D01*
X980127Y793870D01*
X984250D01*
Y797992D01*
D02*
G37*
%LPD*%
G36*
X1097518Y944924D02*
X1097435Y944681D01*
X1097204Y943520D01*
X1097127Y942340D01*
X1097204Y941160D01*
X1097435Y939999D01*
X1097815Y938879D01*
X1098338Y937818D01*
X1098995Y936835D01*
X1099775Y935945D01*
X1100665Y935165D01*
X1101648Y934508D01*
X1102709Y933985D01*
X1102307Y932781D01*
X1084633D01*
X1084231Y933985D01*
X1085292Y934508D01*
X1086275Y935165D01*
X1087165Y935945D01*
X1087945Y936835D01*
X1088602Y937818D01*
X1089125Y938879D01*
X1089505Y939999D01*
X1089736Y941160D01*
X1089813Y942340D01*
X1089736Y943520D01*
X1089505Y944681D01*
X1089125Y945801D01*
X1088602Y946862D01*
X1087945Y947845D01*
X1087165Y948735D01*
X1086275Y949515D01*
X1085292Y950172D01*
X1084231Y950695D01*
X1084071Y950749D01*
X1084280Y952019D01*
X1090423D01*
X1097518Y944924D01*
D02*
G37*
G36*
X1052069Y950749D02*
X1051909Y950695D01*
X1050848Y950172D01*
X1049865Y949515D01*
X1048975Y948735D01*
X1048195Y947845D01*
X1047538Y946862D01*
X1047015Y945801D01*
X1046635Y944681D01*
X1046404Y943520D01*
X1046327Y942340D01*
X1046404Y941160D01*
X1046635Y939999D01*
X1047015Y938879D01*
X1047538Y937818D01*
X1048195Y936835D01*
X1048975Y935945D01*
X1049865Y935165D01*
X1050848Y934508D01*
X1051909Y933985D01*
X1051507Y932781D01*
X1033833D01*
X1033431Y933985D01*
X1034492Y934508D01*
X1035475Y935165D01*
X1036365Y935945D01*
X1037145Y936835D01*
X1037802Y937818D01*
X1038325Y938879D01*
X1038705Y939999D01*
X1038936Y941160D01*
X1039013Y942340D01*
X1038936Y943520D01*
X1038705Y944681D01*
X1038325Y945801D01*
X1037802Y946862D01*
X1037145Y947845D01*
X1036365Y948735D01*
X1035475Y949515D01*
X1034492Y950172D01*
X1033431Y950695D01*
X1033270Y950749D01*
X1033480Y952019D01*
X1051860D01*
X1052069Y950749D01*
D02*
G37*
G36*
X1077469D02*
X1077309Y950695D01*
X1076248Y950172D01*
X1075265Y949515D01*
X1074375Y948735D01*
X1073595Y947845D01*
X1072938Y946862D01*
X1072415Y945801D01*
X1072035Y944681D01*
X1071804Y943520D01*
X1071727Y942340D01*
X1071804Y941160D01*
X1072035Y939999D01*
X1072415Y938879D01*
X1072938Y937818D01*
X1073595Y936835D01*
X1074375Y935945D01*
X1075265Y935165D01*
X1076248Y934508D01*
X1077309Y933985D01*
X1076907Y932781D01*
X1059233D01*
X1058831Y933985D01*
X1059892Y934508D01*
X1060875Y935165D01*
X1061765Y935945D01*
X1062545Y936835D01*
X1063202Y937818D01*
X1063725Y938879D01*
X1064105Y939999D01*
X1064336Y941160D01*
X1064413Y942340D01*
X1064336Y943520D01*
X1064105Y944681D01*
X1063725Y945801D01*
X1063202Y946862D01*
X1062545Y947845D01*
X1061765Y948735D01*
X1060875Y949515D01*
X1059892Y950172D01*
X1058831Y950695D01*
X1058671Y950749D01*
X1058880Y952019D01*
X1077260D01*
X1077469Y950749D01*
D02*
G37*
%LPC*%
G36*
X1172210Y951383D02*
X1171030Y951306D01*
X1169869Y951075D01*
X1168749Y950695D01*
X1167688Y950172D01*
X1166705Y949515D01*
X1165815Y948735D01*
X1165035Y947845D01*
X1164378Y946862D01*
X1163855Y945801D01*
X1163475Y944681D01*
X1163244Y943520D01*
X1163167Y942340D01*
X1163244Y941160D01*
X1163475Y939999D01*
X1163855Y938879D01*
X1164378Y937818D01*
X1165035Y936835D01*
X1165815Y935945D01*
X1166705Y935165D01*
X1167688Y934508D01*
X1168749Y933985D01*
X1169869Y933605D01*
X1171030Y933374D01*
X1172210Y933297D01*
X1173390Y933374D01*
X1174551Y933605D01*
X1175671Y933985D01*
X1176732Y934508D01*
X1177715Y935165D01*
X1178605Y935945D01*
X1179385Y936835D01*
X1180042Y937818D01*
X1180565Y938879D01*
X1180945Y939999D01*
X1181176Y941160D01*
X1181253Y942340D01*
X1181176Y943520D01*
X1180945Y944681D01*
X1180565Y945801D01*
X1180042Y946862D01*
X1179385Y947845D01*
X1178605Y948735D01*
X1177715Y949515D01*
X1176732Y950172D01*
X1175671Y950695D01*
X1174551Y951075D01*
X1173390Y951306D01*
X1172210Y951383D01*
D02*
G37*
%LPD*%
D20*
X903398Y626110D02*
X923177Y606331D01*
X765810Y626110D02*
X903398D01*
X1305924Y441054D02*
X1324610Y459740D01*
X979822Y441054D02*
X1305924D01*
X920496Y500380D02*
X979822Y441054D01*
X1056640Y795528D02*
X1059285Y792884D01*
Y792205D02*
Y792884D01*
X1337310Y929640D02*
X1350010Y942340D01*
X1337310Y846836D02*
Y929640D01*
X1357677Y957072D02*
X1363414Y951335D01*
X1313942Y957072D02*
X1357677D01*
X1363414Y844238D02*
Y951335D01*
X1253998Y734822D02*
X1363414Y844238D01*
X1216262Y954709D02*
X1236041D01*
X1211116Y949563D02*
X1216262Y954709D01*
X1211116Y907840D02*
Y949563D01*
X1067308Y764032D02*
X1211116Y907840D01*
X1059346Y778670D02*
X1184500Y903824D01*
Y929230D02*
X1197610Y942340D01*
X1184500Y903824D02*
Y929230D01*
X1236041Y954709D02*
X1248410Y942340D01*
X1282673Y958877D02*
X1299210Y942340D01*
X1152933Y958877D02*
X1282673D01*
X1148842Y954786D02*
X1152933Y958877D01*
X1056521Y472440D02*
X1337310D01*
X923177Y605784D02*
X1056521Y472440D01*
X923177Y605784D02*
Y606331D01*
X1264920Y787400D02*
Y788670D01*
Y789940D01*
X1310640Y928490D02*
X1311910Y929760D01*
Y955040D01*
X1313942Y957072D01*
X1236860Y928490D02*
X1310640D01*
X1036574Y778670D02*
X1059346D01*
X1019930Y928490D02*
X1125340D01*
X1017270Y925830D02*
X1019930Y928490D01*
X1017270Y908304D02*
Y925830D01*
X915670Y951230D02*
X920750Y956310D01*
X915670Y934720D02*
Y951230D01*
X849630Y868680D02*
X915670Y934720D01*
X920750Y956310D02*
X1092200D01*
X1106170Y942340D01*
X949960Y795020D02*
X951230D01*
X1076960Y712978D02*
X1145032Y781050D01*
X1076960Y674370D02*
Y712978D01*
X1067308Y618236D02*
Y764032D01*
X1056640Y795528D02*
X1148842Y887730D01*
X1155700Y781050D02*
Y822960D01*
Y742950D02*
Y781050D01*
X1145032D02*
X1155700D01*
Y742950D02*
X1162050Y736600D01*
X1060330Y459740D02*
X1070610D01*
X919360Y600710D02*
X1060330Y459740D01*
X765810Y600710D02*
X919360D01*
X1131570Y934720D02*
Y942340D01*
X1125340Y928490D02*
X1131570Y934720D01*
X972820Y863854D02*
X1017270Y908304D01*
X972820Y825246D02*
Y863854D01*
X1337310Y472440D02*
X1350010Y459740D01*
X1077976Y587502D02*
X1337310Y846836D01*
X1223010Y942340D02*
X1236860Y928490D01*
X1253998Y640588D02*
Y734822D01*
X1148842Y887730D02*
Y954786D01*
X1070610Y459740D02*
X1083310Y447040D01*
X1203960D01*
D21*
X1246651Y805669D02*
X1252035Y800285D01*
X1210799Y805669D02*
X1246651D01*
X1200707Y795577D02*
X1210799Y805669D01*
X1258433Y793466D02*
X1258854D01*
X1252035Y799864D02*
X1258433Y793466D01*
X1252035Y799864D02*
Y800285D01*
X1265007Y664297D02*
X1267460Y666750D01*
X1265007Y621586D02*
Y664297D01*
Y621586D02*
X1265428Y621165D01*
Y613918D02*
Y621165D01*
X1264920Y613410D02*
X1265428Y613918D01*
X1200707Y795577D02*
X1200838Y795445D01*
X1184162D02*
X1200838D01*
X1191260Y806450D02*
X1195070D01*
X1189990Y807720D02*
X1191260Y806450D01*
X932321Y609571D02*
Y635141D01*
X935990Y638810D01*
X914400Y660400D02*
X935990Y638810D01*
X960120Y807720D02*
X963930Y803910D01*
X1295400Y615992D02*
Y659130D01*
X1277578Y598170D02*
X1295400Y615992D01*
X1267460Y598170D02*
X1277578D01*
X1238495Y661915D02*
X1243330Y666750D01*
X1238495Y630165D02*
Y661915D01*
X1236980Y628650D02*
X1238495Y630165D01*
X1180284Y608330D02*
X1187160Y601453D01*
X1198362Y614680D02*
X1199059Y613983D01*
X1192530Y614680D02*
X1198362D01*
X1132840Y608330D02*
X1180284D01*
X1120140D02*
X1132840D01*
Y575310D02*
Y608330D01*
X1130300Y572770D02*
X1132840Y575310D01*
X1070610Y572770D02*
X1130300D01*
X1042670Y600710D02*
X1070610Y572770D01*
X1035050Y613410D02*
X1037590Y615950D01*
X1039213Y793397D02*
X1089660Y843844D01*
Y848360D01*
X985520Y822960D02*
Y859790D01*
X988060Y825500D02*
X990049D01*
X1004570Y824230D02*
X1007110D01*
X1010920Y828040D01*
X985520Y822960D02*
X988060Y825500D01*
X1215390Y822960D02*
Y859790D01*
Y822960D02*
X1216660Y824230D01*
X928370Y817880D02*
Y869950D01*
X1301750Y826770D02*
Y855980D01*
X1264920Y789940D02*
X1301750Y826770D01*
X1294130Y660400D02*
X1295400Y659130D01*
X1217930Y629920D02*
X1220470Y627380D01*
X1037590Y615950D02*
Y666750D01*
X962660Y614680D02*
X965638Y611702D01*
X1217930Y629920D02*
Y666750D01*
X988060Y629920D02*
Y666750D01*
Y629920D02*
X990600Y627380D01*
X1032510Y806450D02*
X1035050Y808990D01*
Y859790D01*
X1010920Y828040D02*
Y859790D01*
X960120Y807720D02*
Y859790D01*
X1192530Y614680D02*
Y666750D01*
X1013460Y635000D02*
Y666750D01*
X1007110Y628650D02*
X1013460Y635000D01*
X962660Y614680D02*
Y666750D01*
X1264920Y808990D02*
Y859790D01*
X1234440Y821690D02*
X1240790Y828040D01*
Y859790D01*
X1189990Y807720D02*
Y859790D01*
X928370Y817880D02*
X951230Y795020D01*
X1258854Y793466D02*
X1264920Y787400D01*
D22*
X849630Y734060D02*
D03*
Y801370D02*
D03*
Y868680D02*
D03*
X765810Y600710D02*
D03*
D23*
X849630Y759460D02*
D03*
Y826770D02*
D03*
Y894080D02*
D03*
X765810Y626110D02*
D03*
D24*
X1240790Y859790D02*
D03*
X1215390D02*
D03*
X1264920D02*
D03*
X1010920D02*
D03*
X985520D02*
D03*
X1035050D02*
D03*
X1243330Y666750D02*
D03*
X1217930D02*
D03*
X1267460D02*
D03*
X1013460D02*
D03*
X988060D02*
D03*
X1037590D02*
D03*
D25*
X1189990Y859790D02*
D03*
X960120D02*
D03*
X1192530Y666750D02*
D03*
X962660D02*
D03*
D26*
X768350Y849630D02*
D03*
X767080Y698500D02*
D03*
D27*
X768350Y900430D02*
D03*
X767080Y749300D02*
D03*
D28*
X1096010Y485140D02*
D03*
X1121410D02*
D03*
X1146810D02*
D03*
X1324610D02*
D03*
X1299210D02*
D03*
X1273810D02*
D03*
X1248410D02*
D03*
X1223010D02*
D03*
X1146810Y459740D02*
D03*
X1121410D02*
D03*
X1096010D02*
D03*
X1070610D02*
D03*
X1045210D02*
D03*
X1019810D02*
D03*
X994410D02*
D03*
X1324610D02*
D03*
X1299210D02*
D03*
X1273810D02*
D03*
X1248410D02*
D03*
X1223010D02*
D03*
X1106170Y916940D02*
D03*
X1080770D02*
D03*
X1055370D02*
D03*
X1029970D02*
D03*
X1004570D02*
D03*
X979170D02*
D03*
X953770D02*
D03*
X1324610D02*
D03*
X1299210D02*
D03*
X1273810D02*
D03*
X1248410D02*
D03*
X1223010D02*
D03*
X1197610D02*
D03*
X1172210D02*
D03*
X1080770Y942340D02*
D03*
X902970D02*
D03*
X928370D02*
D03*
X953770D02*
D03*
X979170D02*
D03*
X1004570D02*
D03*
X1029970D02*
D03*
X1055370D02*
D03*
X1106170D02*
D03*
X1324610D02*
D03*
X1299210D02*
D03*
X1273810D02*
D03*
X1248410D02*
D03*
X1223010D02*
D03*
X1197610D02*
D03*
X1172210D02*
D03*
D29*
Y485140D02*
D03*
X1350010D02*
D03*
X1172210Y459740D02*
D03*
X1350010D02*
D03*
X1131570Y916940D02*
D03*
X1350010D02*
D03*
X1131570Y942340D02*
D03*
X1350010D02*
D03*
D30*
X1215390Y792600D02*
D03*
X1226820D02*
D03*
X1238250Y781170D02*
D03*
X1215390Y769740D02*
D03*
X1226820D02*
D03*
Y781170D02*
D03*
X1215390D02*
D03*
X1238250Y792600D02*
D03*
X920496Y500380D02*
D03*
X1010920Y599560D02*
D03*
Y588130D02*
D03*
Y576700D02*
D03*
X999490D02*
D03*
X988060D02*
D03*
Y588130D02*
D03*
X999490Y599560D02*
D03*
Y588130D02*
D03*
X988060Y599560D02*
D03*
X1240790D02*
D03*
Y588130D02*
D03*
Y576700D02*
D03*
X1229360D02*
D03*
X1217930D02*
D03*
Y588130D02*
D03*
X1229360Y599560D02*
D03*
Y588130D02*
D03*
X1217930Y599560D02*
D03*
X1008380Y792600D02*
D03*
Y781170D02*
D03*
Y769740D02*
D03*
X996950D02*
D03*
X985520D02*
D03*
Y781170D02*
D03*
X996950Y792600D02*
D03*
Y781170D02*
D03*
X985520Y792600D02*
D03*
X1238250Y769740D02*
D03*
X1203960Y447040D02*
D03*
D31*
X1262957Y804388D02*
D03*
X1275929Y626110D02*
D03*
X1059285Y792205D02*
D03*
X1195070Y806450D02*
D03*
X1184162Y795445D02*
D03*
X932321Y609571D02*
D03*
X963930Y803910D02*
D03*
X1187160Y601453D02*
D03*
X1199059Y613983D02*
D03*
X1042670Y600710D02*
D03*
X1035050Y613410D02*
D03*
X1264920Y788670D02*
D03*
X1039213Y793397D02*
D03*
X1089660Y848360D02*
D03*
X1036574Y778670D02*
D03*
X949960Y795020D02*
D03*
X990049Y825500D02*
D03*
X1004570Y824230D02*
D03*
X1216660D02*
D03*
X1076960Y674370D02*
D03*
X1093470Y521970D02*
D03*
X1148080Y621030D02*
D03*
X989330Y510540D02*
D03*
X949960Y635650D02*
D03*
X1042670Y734060D02*
D03*
X1268730Y530860D02*
D03*
Y726440D02*
D03*
X1032510Y534670D02*
D03*
X928370Y869950D02*
D03*
X922020Y802640D02*
D03*
X1101090Y770890D02*
D03*
X1169790Y841890D02*
D03*
X1155700Y822960D02*
D03*
X1301750Y855980D02*
D03*
X1120140Y608330D02*
D03*
X1294130Y660400D02*
D03*
X1236980Y628650D02*
D03*
X1220470Y627380D02*
D03*
X1267460Y598170D02*
D03*
X914400Y660400D02*
D03*
X965638Y611702D02*
D03*
X1162050Y736600D02*
D03*
X972820Y825246D02*
D03*
X1067308Y618236D02*
D03*
X1077976Y587502D02*
D03*
X1253998Y640588D02*
D03*
X990600Y627380D02*
D03*
X1032510Y806450D02*
D03*
X1264920Y613410D02*
D03*
X1007110Y628650D02*
D03*
X1234440Y821690D02*
D03*
D32*
X735330Y819150D02*
X736600D01*
X734060Y668020D02*
X735330D01*
M02*
